%TF.GenerationSoftware,KiCad,Pcbnew,8.0.0*%
%TF.CreationDate,2024-11-26T10:36:05-05:00*%
%TF.ProjectId,macropad,6d616372-6f70-4616-942e-6b696361645f,v1.0*%
%TF.SameCoordinates,Original*%
%TF.FileFunction,Legend,Bot*%
%TF.FilePolarity,Positive*%
%FSLAX46Y46*%
G04 Gerber Fmt 4.6, Leading zero omitted, Abs format (unit mm)*
G04 Created by KiCad (PCBNEW 8.0.0) date 2024-11-26 10:36:05*
%MOMM*%
%LPD*%
G01*
G04 APERTURE LIST*
%ADD10C,0.200000*%
%ADD11C,0.150000*%
%ADD12C,0.100000*%
%ADD13C,0.120000*%
%ADD14C,0.152400*%
%ADD15C,0.000000*%
G04 APERTURE END LIST*
D10*
X65050001Y-106444002D02*
X73050001Y-106444002D01*
X73050001Y-114444002D01*
X65050001Y-114444002D01*
X65050001Y-106444002D01*
G36*
X65050001Y-106444002D02*
G01*
X73050001Y-106444002D01*
X73050001Y-114444002D01*
X65050001Y-114444002D01*
X65050001Y-106444002D01*
G37*
X74050001Y-102517914D02*
X74050001Y-101017914D01*
X74050001Y-101017914D02*
X73550001Y-102089343D01*
X73550001Y-102089343D02*
X73050001Y-101017914D01*
X73050001Y-101017914D02*
X73050001Y-102517914D01*
X71692858Y-102517914D02*
X71692858Y-101732200D01*
X71692858Y-101732200D02*
X71764286Y-101589343D01*
X71764286Y-101589343D02*
X71907143Y-101517914D01*
X71907143Y-101517914D02*
X72192858Y-101517914D01*
X72192858Y-101517914D02*
X72335715Y-101589343D01*
X71692858Y-102446486D02*
X71835715Y-102517914D01*
X71835715Y-102517914D02*
X72192858Y-102517914D01*
X72192858Y-102517914D02*
X72335715Y-102446486D01*
X72335715Y-102446486D02*
X72407143Y-102303628D01*
X72407143Y-102303628D02*
X72407143Y-102160771D01*
X72407143Y-102160771D02*
X72335715Y-102017914D01*
X72335715Y-102017914D02*
X72192858Y-101946486D01*
X72192858Y-101946486D02*
X71835715Y-101946486D01*
X71835715Y-101946486D02*
X71692858Y-101875057D01*
X70335715Y-102446486D02*
X70478572Y-102517914D01*
X70478572Y-102517914D02*
X70764286Y-102517914D01*
X70764286Y-102517914D02*
X70907143Y-102446486D01*
X70907143Y-102446486D02*
X70978572Y-102375057D01*
X70978572Y-102375057D02*
X71050000Y-102232200D01*
X71050000Y-102232200D02*
X71050000Y-101803628D01*
X71050000Y-101803628D02*
X70978572Y-101660771D01*
X70978572Y-101660771D02*
X70907143Y-101589343D01*
X70907143Y-101589343D02*
X70764286Y-101517914D01*
X70764286Y-101517914D02*
X70478572Y-101517914D01*
X70478572Y-101517914D02*
X70335715Y-101589343D01*
X69692858Y-102517914D02*
X69692858Y-101517914D01*
X69692858Y-101803628D02*
X69621429Y-101660771D01*
X69621429Y-101660771D02*
X69550001Y-101589343D01*
X69550001Y-101589343D02*
X69407143Y-101517914D01*
X69407143Y-101517914D02*
X69264286Y-101517914D01*
X68550001Y-102517914D02*
X68692858Y-102446486D01*
X68692858Y-102446486D02*
X68764287Y-102375057D01*
X68764287Y-102375057D02*
X68835715Y-102232200D01*
X68835715Y-102232200D02*
X68835715Y-101803628D01*
X68835715Y-101803628D02*
X68764287Y-101660771D01*
X68764287Y-101660771D02*
X68692858Y-101589343D01*
X68692858Y-101589343D02*
X68550001Y-101517914D01*
X68550001Y-101517914D02*
X68335715Y-101517914D01*
X68335715Y-101517914D02*
X68192858Y-101589343D01*
X68192858Y-101589343D02*
X68121430Y-101660771D01*
X68121430Y-101660771D02*
X68050001Y-101803628D01*
X68050001Y-101803628D02*
X68050001Y-102232200D01*
X68050001Y-102232200D02*
X68121430Y-102375057D01*
X68121430Y-102375057D02*
X68192858Y-102446486D01*
X68192858Y-102446486D02*
X68335715Y-102517914D01*
X68335715Y-102517914D02*
X68550001Y-102517914D01*
X67407144Y-101517914D02*
X67407144Y-103017914D01*
X67407144Y-101589343D02*
X67264287Y-101517914D01*
X67264287Y-101517914D02*
X66978572Y-101517914D01*
X66978572Y-101517914D02*
X66835715Y-101589343D01*
X66835715Y-101589343D02*
X66764287Y-101660771D01*
X66764287Y-101660771D02*
X66692858Y-101803628D01*
X66692858Y-101803628D02*
X66692858Y-102232200D01*
X66692858Y-102232200D02*
X66764287Y-102375057D01*
X66764287Y-102375057D02*
X66835715Y-102446486D01*
X66835715Y-102446486D02*
X66978572Y-102517914D01*
X66978572Y-102517914D02*
X67264287Y-102517914D01*
X67264287Y-102517914D02*
X67407144Y-102446486D01*
X65407144Y-102517914D02*
X65407144Y-101732200D01*
X65407144Y-101732200D02*
X65478572Y-101589343D01*
X65478572Y-101589343D02*
X65621429Y-101517914D01*
X65621429Y-101517914D02*
X65907144Y-101517914D01*
X65907144Y-101517914D02*
X66050001Y-101589343D01*
X65407144Y-102446486D02*
X65550001Y-102517914D01*
X65550001Y-102517914D02*
X65907144Y-102517914D01*
X65907144Y-102517914D02*
X66050001Y-102446486D01*
X66050001Y-102446486D02*
X66121429Y-102303628D01*
X66121429Y-102303628D02*
X66121429Y-102160771D01*
X66121429Y-102160771D02*
X66050001Y-102017914D01*
X66050001Y-102017914D02*
X65907144Y-101946486D01*
X65907144Y-101946486D02*
X65550001Y-101946486D01*
X65550001Y-101946486D02*
X65407144Y-101875057D01*
X64050001Y-102517914D02*
X64050001Y-101017914D01*
X64050001Y-102446486D02*
X64192858Y-102517914D01*
X64192858Y-102517914D02*
X64478572Y-102517914D01*
X64478572Y-102517914D02*
X64621429Y-102446486D01*
X64621429Y-102446486D02*
X64692858Y-102375057D01*
X64692858Y-102375057D02*
X64764286Y-102232200D01*
X64764286Y-102232200D02*
X64764286Y-101803628D01*
X64764286Y-101803628D02*
X64692858Y-101660771D01*
X64692858Y-101660771D02*
X64621429Y-101589343D01*
X64621429Y-101589343D02*
X64478572Y-101517914D01*
X64478572Y-101517914D02*
X64192858Y-101517914D01*
X64192858Y-101517914D02*
X64050001Y-101589343D01*
X71192857Y-103932830D02*
X70835714Y-104932830D01*
X70835714Y-104932830D02*
X70478571Y-103932830D01*
X69121428Y-104932830D02*
X69978571Y-104932830D01*
X69550000Y-104932830D02*
X69550000Y-103432830D01*
X69550000Y-103432830D02*
X69692857Y-103647116D01*
X69692857Y-103647116D02*
X69835714Y-103789973D01*
X69835714Y-103789973D02*
X69978571Y-103861402D01*
X68478572Y-104789973D02*
X68407143Y-104861402D01*
X68407143Y-104861402D02*
X68478572Y-104932830D01*
X68478572Y-104932830D02*
X68550000Y-104861402D01*
X68550000Y-104861402D02*
X68478572Y-104789973D01*
X68478572Y-104789973D02*
X68478572Y-104932830D01*
X67478571Y-103432830D02*
X67335714Y-103432830D01*
X67335714Y-103432830D02*
X67192857Y-103504259D01*
X67192857Y-103504259D02*
X67121429Y-103575687D01*
X67121429Y-103575687D02*
X67050000Y-103718544D01*
X67050000Y-103718544D02*
X66978571Y-104004259D01*
X66978571Y-104004259D02*
X66978571Y-104361402D01*
X66978571Y-104361402D02*
X67050000Y-104647116D01*
X67050000Y-104647116D02*
X67121429Y-104789973D01*
X67121429Y-104789973D02*
X67192857Y-104861402D01*
X67192857Y-104861402D02*
X67335714Y-104932830D01*
X67335714Y-104932830D02*
X67478571Y-104932830D01*
X67478571Y-104932830D02*
X67621429Y-104861402D01*
X67621429Y-104861402D02*
X67692857Y-104789973D01*
X67692857Y-104789973D02*
X67764286Y-104647116D01*
X67764286Y-104647116D02*
X67835714Y-104361402D01*
X67835714Y-104361402D02*
X67835714Y-104004259D01*
X67835714Y-104004259D02*
X67764286Y-103718544D01*
X67764286Y-103718544D02*
X67692857Y-103575687D01*
X67692857Y-103575687D02*
X67621429Y-103504259D01*
X67621429Y-103504259D02*
X67478571Y-103432830D01*
D11*
X127410857Y-130364221D02*
X127744190Y-129888030D01*
X127982285Y-130364221D02*
X127982285Y-129364221D01*
X127982285Y-129364221D02*
X127601333Y-129364221D01*
X127601333Y-129364221D02*
X127506095Y-129411840D01*
X127506095Y-129411840D02*
X127458476Y-129459459D01*
X127458476Y-129459459D02*
X127410857Y-129554697D01*
X127410857Y-129554697D02*
X127410857Y-129697554D01*
X127410857Y-129697554D02*
X127458476Y-129792792D01*
X127458476Y-129792792D02*
X127506095Y-129840411D01*
X127506095Y-129840411D02*
X127601333Y-129888030D01*
X127601333Y-129888030D02*
X127982285Y-129888030D01*
X126458476Y-130364221D02*
X127029904Y-130364221D01*
X126744190Y-130364221D02*
X126744190Y-129364221D01*
X126744190Y-129364221D02*
X126839428Y-129507078D01*
X126839428Y-129507078D02*
X126934666Y-129602316D01*
X126934666Y-129602316D02*
X127029904Y-129649935D01*
X125553714Y-129364221D02*
X126029904Y-129364221D01*
X126029904Y-129364221D02*
X126077523Y-129840411D01*
X126077523Y-129840411D02*
X126029904Y-129792792D01*
X126029904Y-129792792D02*
X125934666Y-129745173D01*
X125934666Y-129745173D02*
X125696571Y-129745173D01*
X125696571Y-129745173D02*
X125601333Y-129792792D01*
X125601333Y-129792792D02*
X125553714Y-129840411D01*
X125553714Y-129840411D02*
X125506095Y-129935649D01*
X125506095Y-129935649D02*
X125506095Y-130173744D01*
X125506095Y-130173744D02*
X125553714Y-130268982D01*
X125553714Y-130268982D02*
X125601333Y-130316602D01*
X125601333Y-130316602D02*
X125696571Y-130364221D01*
X125696571Y-130364221D02*
X125934666Y-130364221D01*
X125934666Y-130364221D02*
X126029904Y-130316602D01*
X126029904Y-130316602D02*
X126077523Y-130268982D01*
X139479580Y-87425235D02*
X139527200Y-87377616D01*
X139527200Y-87377616D02*
X139574819Y-87234759D01*
X139574819Y-87234759D02*
X139574819Y-87139521D01*
X139574819Y-87139521D02*
X139527200Y-86996664D01*
X139527200Y-86996664D02*
X139431961Y-86901426D01*
X139431961Y-86901426D02*
X139336723Y-86853807D01*
X139336723Y-86853807D02*
X139146247Y-86806188D01*
X139146247Y-86806188D02*
X139003390Y-86806188D01*
X139003390Y-86806188D02*
X138812914Y-86853807D01*
X138812914Y-86853807D02*
X138717676Y-86901426D01*
X138717676Y-86901426D02*
X138622438Y-86996664D01*
X138622438Y-86996664D02*
X138574819Y-87139521D01*
X138574819Y-87139521D02*
X138574819Y-87234759D01*
X138574819Y-87234759D02*
X138622438Y-87377616D01*
X138622438Y-87377616D02*
X138670057Y-87425235D01*
X139003390Y-87996664D02*
X138955771Y-87901426D01*
X138955771Y-87901426D02*
X138908152Y-87853807D01*
X138908152Y-87853807D02*
X138812914Y-87806188D01*
X138812914Y-87806188D02*
X138765295Y-87806188D01*
X138765295Y-87806188D02*
X138670057Y-87853807D01*
X138670057Y-87853807D02*
X138622438Y-87901426D01*
X138622438Y-87901426D02*
X138574819Y-87996664D01*
X138574819Y-87996664D02*
X138574819Y-88187140D01*
X138574819Y-88187140D02*
X138622438Y-88282378D01*
X138622438Y-88282378D02*
X138670057Y-88329997D01*
X138670057Y-88329997D02*
X138765295Y-88377616D01*
X138765295Y-88377616D02*
X138812914Y-88377616D01*
X138812914Y-88377616D02*
X138908152Y-88329997D01*
X138908152Y-88329997D02*
X138955771Y-88282378D01*
X138955771Y-88282378D02*
X139003390Y-88187140D01*
X139003390Y-88187140D02*
X139003390Y-87996664D01*
X139003390Y-87996664D02*
X139051009Y-87901426D01*
X139051009Y-87901426D02*
X139098628Y-87853807D01*
X139098628Y-87853807D02*
X139193866Y-87806188D01*
X139193866Y-87806188D02*
X139384342Y-87806188D01*
X139384342Y-87806188D02*
X139479580Y-87853807D01*
X139479580Y-87853807D02*
X139527200Y-87901426D01*
X139527200Y-87901426D02*
X139574819Y-87996664D01*
X139574819Y-87996664D02*
X139574819Y-88187140D01*
X139574819Y-88187140D02*
X139527200Y-88282378D01*
X139527200Y-88282378D02*
X139479580Y-88329997D01*
X139479580Y-88329997D02*
X139384342Y-88377616D01*
X139384342Y-88377616D02*
X139193866Y-88377616D01*
X139193866Y-88377616D02*
X139098628Y-88329997D01*
X139098628Y-88329997D02*
X139051009Y-88282378D01*
X139051009Y-88282378D02*
X139003390Y-88187140D01*
X149064285Y-148398221D02*
X149064285Y-147398221D01*
X149064285Y-147398221D02*
X148826190Y-147398221D01*
X148826190Y-147398221D02*
X148683333Y-147445840D01*
X148683333Y-147445840D02*
X148588095Y-147541078D01*
X148588095Y-147541078D02*
X148540476Y-147636316D01*
X148540476Y-147636316D02*
X148492857Y-147826792D01*
X148492857Y-147826792D02*
X148492857Y-147969649D01*
X148492857Y-147969649D02*
X148540476Y-148160125D01*
X148540476Y-148160125D02*
X148588095Y-148255363D01*
X148588095Y-148255363D02*
X148683333Y-148350602D01*
X148683333Y-148350602D02*
X148826190Y-148398221D01*
X148826190Y-148398221D02*
X149064285Y-148398221D01*
X148111904Y-147493459D02*
X148064285Y-147445840D01*
X148064285Y-147445840D02*
X147969047Y-147398221D01*
X147969047Y-147398221D02*
X147730952Y-147398221D01*
X147730952Y-147398221D02*
X147635714Y-147445840D01*
X147635714Y-147445840D02*
X147588095Y-147493459D01*
X147588095Y-147493459D02*
X147540476Y-147588697D01*
X147540476Y-147588697D02*
X147540476Y-147683935D01*
X147540476Y-147683935D02*
X147588095Y-147826792D01*
X147588095Y-147826792D02*
X148159523Y-148398221D01*
X148159523Y-148398221D02*
X147540476Y-148398221D01*
X146921428Y-147398221D02*
X146826190Y-147398221D01*
X146826190Y-147398221D02*
X146730952Y-147445840D01*
X146730952Y-147445840D02*
X146683333Y-147493459D01*
X146683333Y-147493459D02*
X146635714Y-147588697D01*
X146635714Y-147588697D02*
X146588095Y-147779173D01*
X146588095Y-147779173D02*
X146588095Y-148017268D01*
X146588095Y-148017268D02*
X146635714Y-148207744D01*
X146635714Y-148207744D02*
X146683333Y-148302982D01*
X146683333Y-148302982D02*
X146730952Y-148350602D01*
X146730952Y-148350602D02*
X146826190Y-148398221D01*
X146826190Y-148398221D02*
X146921428Y-148398221D01*
X146921428Y-148398221D02*
X147016666Y-148350602D01*
X147016666Y-148350602D02*
X147064285Y-148302982D01*
X147064285Y-148302982D02*
X147111904Y-148207744D01*
X147111904Y-148207744D02*
X147159523Y-148017268D01*
X147159523Y-148017268D02*
X147159523Y-147779173D01*
X147159523Y-147779173D02*
X147111904Y-147588697D01*
X147111904Y-147588697D02*
X147064285Y-147493459D01*
X147064285Y-147493459D02*
X147016666Y-147445840D01*
X147016666Y-147445840D02*
X146921428Y-147398221D01*
X135826819Y-126027116D02*
X134826819Y-126027116D01*
X134826819Y-126027116D02*
X134826819Y-126265211D01*
X134826819Y-126265211D02*
X134874438Y-126408068D01*
X134874438Y-126408068D02*
X134969676Y-126503306D01*
X134969676Y-126503306D02*
X135064914Y-126550925D01*
X135064914Y-126550925D02*
X135255390Y-126598544D01*
X135255390Y-126598544D02*
X135398247Y-126598544D01*
X135398247Y-126598544D02*
X135588723Y-126550925D01*
X135588723Y-126550925D02*
X135683961Y-126503306D01*
X135683961Y-126503306D02*
X135779200Y-126408068D01*
X135779200Y-126408068D02*
X135826819Y-126265211D01*
X135826819Y-126265211D02*
X135826819Y-126027116D01*
X135826819Y-127550925D02*
X135826819Y-126979497D01*
X135826819Y-127265211D02*
X134826819Y-127265211D01*
X134826819Y-127265211D02*
X134969676Y-127169973D01*
X134969676Y-127169973D02*
X135064914Y-127074735D01*
X135064914Y-127074735D02*
X135112533Y-126979497D01*
X134826819Y-128455687D02*
X134826819Y-127979497D01*
X134826819Y-127979497D02*
X135303009Y-127931878D01*
X135303009Y-127931878D02*
X135255390Y-127979497D01*
X135255390Y-127979497D02*
X135207771Y-128074735D01*
X135207771Y-128074735D02*
X135207771Y-128312830D01*
X135207771Y-128312830D02*
X135255390Y-128408068D01*
X135255390Y-128408068D02*
X135303009Y-128455687D01*
X135303009Y-128455687D02*
X135398247Y-128503306D01*
X135398247Y-128503306D02*
X135636342Y-128503306D01*
X135636342Y-128503306D02*
X135731580Y-128455687D01*
X135731580Y-128455687D02*
X135779200Y-128408068D01*
X135779200Y-128408068D02*
X135826819Y-128312830D01*
X135826819Y-128312830D02*
X135826819Y-128074735D01*
X135826819Y-128074735D02*
X135779200Y-127979497D01*
X135779200Y-127979497D02*
X135731580Y-127931878D01*
X154876819Y-88403307D02*
X153876819Y-88403307D01*
X153876819Y-88403307D02*
X153876819Y-88641402D01*
X153876819Y-88641402D02*
X153924438Y-88784259D01*
X153924438Y-88784259D02*
X154019676Y-88879497D01*
X154019676Y-88879497D02*
X154114914Y-88927116D01*
X154114914Y-88927116D02*
X154305390Y-88974735D01*
X154305390Y-88974735D02*
X154448247Y-88974735D01*
X154448247Y-88974735D02*
X154638723Y-88927116D01*
X154638723Y-88927116D02*
X154733961Y-88879497D01*
X154733961Y-88879497D02*
X154829200Y-88784259D01*
X154829200Y-88784259D02*
X154876819Y-88641402D01*
X154876819Y-88641402D02*
X154876819Y-88403307D01*
X154305390Y-89546164D02*
X154257771Y-89450926D01*
X154257771Y-89450926D02*
X154210152Y-89403307D01*
X154210152Y-89403307D02*
X154114914Y-89355688D01*
X154114914Y-89355688D02*
X154067295Y-89355688D01*
X154067295Y-89355688D02*
X153972057Y-89403307D01*
X153972057Y-89403307D02*
X153924438Y-89450926D01*
X153924438Y-89450926D02*
X153876819Y-89546164D01*
X153876819Y-89546164D02*
X153876819Y-89736640D01*
X153876819Y-89736640D02*
X153924438Y-89831878D01*
X153924438Y-89831878D02*
X153972057Y-89879497D01*
X153972057Y-89879497D02*
X154067295Y-89927116D01*
X154067295Y-89927116D02*
X154114914Y-89927116D01*
X154114914Y-89927116D02*
X154210152Y-89879497D01*
X154210152Y-89879497D02*
X154257771Y-89831878D01*
X154257771Y-89831878D02*
X154305390Y-89736640D01*
X154305390Y-89736640D02*
X154305390Y-89546164D01*
X154305390Y-89546164D02*
X154353009Y-89450926D01*
X154353009Y-89450926D02*
X154400628Y-89403307D01*
X154400628Y-89403307D02*
X154495866Y-89355688D01*
X154495866Y-89355688D02*
X154686342Y-89355688D01*
X154686342Y-89355688D02*
X154781580Y-89403307D01*
X154781580Y-89403307D02*
X154829200Y-89450926D01*
X154829200Y-89450926D02*
X154876819Y-89546164D01*
X154876819Y-89546164D02*
X154876819Y-89736640D01*
X154876819Y-89736640D02*
X154829200Y-89831878D01*
X154829200Y-89831878D02*
X154781580Y-89879497D01*
X154781580Y-89879497D02*
X154686342Y-89927116D01*
X154686342Y-89927116D02*
X154495866Y-89927116D01*
X154495866Y-89927116D02*
X154400628Y-89879497D01*
X154400628Y-89879497D02*
X154353009Y-89831878D01*
X154353009Y-89831878D02*
X154305390Y-89736640D01*
X132207580Y-38842544D02*
X132255200Y-38794925D01*
X132255200Y-38794925D02*
X132302819Y-38652068D01*
X132302819Y-38652068D02*
X132302819Y-38556830D01*
X132302819Y-38556830D02*
X132255200Y-38413973D01*
X132255200Y-38413973D02*
X132159961Y-38318735D01*
X132159961Y-38318735D02*
X132064723Y-38271116D01*
X132064723Y-38271116D02*
X131874247Y-38223497D01*
X131874247Y-38223497D02*
X131731390Y-38223497D01*
X131731390Y-38223497D02*
X131540914Y-38271116D01*
X131540914Y-38271116D02*
X131445676Y-38318735D01*
X131445676Y-38318735D02*
X131350438Y-38413973D01*
X131350438Y-38413973D02*
X131302819Y-38556830D01*
X131302819Y-38556830D02*
X131302819Y-38652068D01*
X131302819Y-38652068D02*
X131350438Y-38794925D01*
X131350438Y-38794925D02*
X131398057Y-38842544D01*
X131398057Y-39223497D02*
X131350438Y-39271116D01*
X131350438Y-39271116D02*
X131302819Y-39366354D01*
X131302819Y-39366354D02*
X131302819Y-39604449D01*
X131302819Y-39604449D02*
X131350438Y-39699687D01*
X131350438Y-39699687D02*
X131398057Y-39747306D01*
X131398057Y-39747306D02*
X131493295Y-39794925D01*
X131493295Y-39794925D02*
X131588533Y-39794925D01*
X131588533Y-39794925D02*
X131731390Y-39747306D01*
X131731390Y-39747306D02*
X132302819Y-39175878D01*
X132302819Y-39175878D02*
X132302819Y-39794925D01*
X131398057Y-40175878D02*
X131350438Y-40223497D01*
X131350438Y-40223497D02*
X131302819Y-40318735D01*
X131302819Y-40318735D02*
X131302819Y-40556830D01*
X131302819Y-40556830D02*
X131350438Y-40652068D01*
X131350438Y-40652068D02*
X131398057Y-40699687D01*
X131398057Y-40699687D02*
X131493295Y-40747306D01*
X131493295Y-40747306D02*
X131588533Y-40747306D01*
X131588533Y-40747306D02*
X131731390Y-40699687D01*
X131731390Y-40699687D02*
X132302819Y-40128259D01*
X132302819Y-40128259D02*
X132302819Y-40747306D01*
X120429580Y-144099044D02*
X120477200Y-144051425D01*
X120477200Y-144051425D02*
X120524819Y-143908568D01*
X120524819Y-143908568D02*
X120524819Y-143813330D01*
X120524819Y-143813330D02*
X120477200Y-143670473D01*
X120477200Y-143670473D02*
X120381961Y-143575235D01*
X120381961Y-143575235D02*
X120286723Y-143527616D01*
X120286723Y-143527616D02*
X120096247Y-143479997D01*
X120096247Y-143479997D02*
X119953390Y-143479997D01*
X119953390Y-143479997D02*
X119762914Y-143527616D01*
X119762914Y-143527616D02*
X119667676Y-143575235D01*
X119667676Y-143575235D02*
X119572438Y-143670473D01*
X119572438Y-143670473D02*
X119524819Y-143813330D01*
X119524819Y-143813330D02*
X119524819Y-143908568D01*
X119524819Y-143908568D02*
X119572438Y-144051425D01*
X119572438Y-144051425D02*
X119620057Y-144099044D01*
X119620057Y-144479997D02*
X119572438Y-144527616D01*
X119572438Y-144527616D02*
X119524819Y-144622854D01*
X119524819Y-144622854D02*
X119524819Y-144860949D01*
X119524819Y-144860949D02*
X119572438Y-144956187D01*
X119572438Y-144956187D02*
X119620057Y-145003806D01*
X119620057Y-145003806D02*
X119715295Y-145051425D01*
X119715295Y-145051425D02*
X119810533Y-145051425D01*
X119810533Y-145051425D02*
X119953390Y-145003806D01*
X119953390Y-145003806D02*
X120524819Y-144432378D01*
X120524819Y-144432378D02*
X120524819Y-145051425D01*
X119858152Y-145908568D02*
X120524819Y-145908568D01*
X119477200Y-145670473D02*
X120191485Y-145432378D01*
X120191485Y-145432378D02*
X120191485Y-146051425D01*
X82329580Y-105999044D02*
X82377200Y-105951425D01*
X82377200Y-105951425D02*
X82424819Y-105808568D01*
X82424819Y-105808568D02*
X82424819Y-105713330D01*
X82424819Y-105713330D02*
X82377200Y-105570473D01*
X82377200Y-105570473D02*
X82281961Y-105475235D01*
X82281961Y-105475235D02*
X82186723Y-105427616D01*
X82186723Y-105427616D02*
X81996247Y-105379997D01*
X81996247Y-105379997D02*
X81853390Y-105379997D01*
X81853390Y-105379997D02*
X81662914Y-105427616D01*
X81662914Y-105427616D02*
X81567676Y-105475235D01*
X81567676Y-105475235D02*
X81472438Y-105570473D01*
X81472438Y-105570473D02*
X81424819Y-105713330D01*
X81424819Y-105713330D02*
X81424819Y-105808568D01*
X81424819Y-105808568D02*
X81472438Y-105951425D01*
X81472438Y-105951425D02*
X81520057Y-105999044D01*
X82424819Y-106951425D02*
X82424819Y-106379997D01*
X82424819Y-106665711D02*
X81424819Y-106665711D01*
X81424819Y-106665711D02*
X81567676Y-106570473D01*
X81567676Y-106570473D02*
X81662914Y-106475235D01*
X81662914Y-106475235D02*
X81710533Y-106379997D01*
X81424819Y-107284759D02*
X81424819Y-107903806D01*
X81424819Y-107903806D02*
X81805771Y-107570473D01*
X81805771Y-107570473D02*
X81805771Y-107713330D01*
X81805771Y-107713330D02*
X81853390Y-107808568D01*
X81853390Y-107808568D02*
X81901009Y-107856187D01*
X81901009Y-107856187D02*
X81996247Y-107903806D01*
X81996247Y-107903806D02*
X82234342Y-107903806D01*
X82234342Y-107903806D02*
X82329580Y-107856187D01*
X82329580Y-107856187D02*
X82377200Y-107808568D01*
X82377200Y-107808568D02*
X82424819Y-107713330D01*
X82424819Y-107713330D02*
X82424819Y-107427616D01*
X82424819Y-107427616D02*
X82377200Y-107332378D01*
X82377200Y-107332378D02*
X82329580Y-107284759D01*
X70786304Y-75564421D02*
X70786304Y-76373944D01*
X70786304Y-76373944D02*
X70738685Y-76469182D01*
X70738685Y-76469182D02*
X70691066Y-76516802D01*
X70691066Y-76516802D02*
X70595828Y-76564421D01*
X70595828Y-76564421D02*
X70405352Y-76564421D01*
X70405352Y-76564421D02*
X70310114Y-76516802D01*
X70310114Y-76516802D02*
X70262495Y-76469182D01*
X70262495Y-76469182D02*
X70214876Y-76373944D01*
X70214876Y-76373944D02*
X70214876Y-75564421D01*
X69786304Y-75659659D02*
X69738685Y-75612040D01*
X69738685Y-75612040D02*
X69643447Y-75564421D01*
X69643447Y-75564421D02*
X69405352Y-75564421D01*
X69405352Y-75564421D02*
X69310114Y-75612040D01*
X69310114Y-75612040D02*
X69262495Y-75659659D01*
X69262495Y-75659659D02*
X69214876Y-75754897D01*
X69214876Y-75754897D02*
X69214876Y-75850135D01*
X69214876Y-75850135D02*
X69262495Y-75992992D01*
X69262495Y-75992992D02*
X69833923Y-76564421D01*
X69833923Y-76564421D02*
X69214876Y-76564421D01*
X101379580Y-86949044D02*
X101427200Y-86901425D01*
X101427200Y-86901425D02*
X101474819Y-86758568D01*
X101474819Y-86758568D02*
X101474819Y-86663330D01*
X101474819Y-86663330D02*
X101427200Y-86520473D01*
X101427200Y-86520473D02*
X101331961Y-86425235D01*
X101331961Y-86425235D02*
X101236723Y-86377616D01*
X101236723Y-86377616D02*
X101046247Y-86329997D01*
X101046247Y-86329997D02*
X100903390Y-86329997D01*
X100903390Y-86329997D02*
X100712914Y-86377616D01*
X100712914Y-86377616D02*
X100617676Y-86425235D01*
X100617676Y-86425235D02*
X100522438Y-86520473D01*
X100522438Y-86520473D02*
X100474819Y-86663330D01*
X100474819Y-86663330D02*
X100474819Y-86758568D01*
X100474819Y-86758568D02*
X100522438Y-86901425D01*
X100522438Y-86901425D02*
X100570057Y-86949044D01*
X101474819Y-87901425D02*
X101474819Y-87329997D01*
X101474819Y-87615711D02*
X100474819Y-87615711D01*
X100474819Y-87615711D02*
X100617676Y-87520473D01*
X100617676Y-87520473D02*
X100712914Y-87425235D01*
X100712914Y-87425235D02*
X100760533Y-87329997D01*
X100474819Y-88806187D02*
X100474819Y-88329997D01*
X100474819Y-88329997D02*
X100951009Y-88282378D01*
X100951009Y-88282378D02*
X100903390Y-88329997D01*
X100903390Y-88329997D02*
X100855771Y-88425235D01*
X100855771Y-88425235D02*
X100855771Y-88663330D01*
X100855771Y-88663330D02*
X100903390Y-88758568D01*
X100903390Y-88758568D02*
X100951009Y-88806187D01*
X100951009Y-88806187D02*
X101046247Y-88853806D01*
X101046247Y-88853806D02*
X101284342Y-88853806D01*
X101284342Y-88853806D02*
X101379580Y-88806187D01*
X101379580Y-88806187D02*
X101427200Y-88758568D01*
X101427200Y-88758568D02*
X101474819Y-88663330D01*
X101474819Y-88663330D02*
X101474819Y-88425235D01*
X101474819Y-88425235D02*
X101427200Y-88329997D01*
X101427200Y-88329997D02*
X101379580Y-88282378D01*
X97726819Y-145077116D02*
X96726819Y-145077116D01*
X96726819Y-145077116D02*
X96726819Y-145315211D01*
X96726819Y-145315211D02*
X96774438Y-145458068D01*
X96774438Y-145458068D02*
X96869676Y-145553306D01*
X96869676Y-145553306D02*
X96964914Y-145600925D01*
X96964914Y-145600925D02*
X97155390Y-145648544D01*
X97155390Y-145648544D02*
X97298247Y-145648544D01*
X97298247Y-145648544D02*
X97488723Y-145600925D01*
X97488723Y-145600925D02*
X97583961Y-145553306D01*
X97583961Y-145553306D02*
X97679200Y-145458068D01*
X97679200Y-145458068D02*
X97726819Y-145315211D01*
X97726819Y-145315211D02*
X97726819Y-145077116D01*
X97726819Y-146600925D02*
X97726819Y-146029497D01*
X97726819Y-146315211D02*
X96726819Y-146315211D01*
X96726819Y-146315211D02*
X96869676Y-146219973D01*
X96869676Y-146219973D02*
X96964914Y-146124735D01*
X96964914Y-146124735D02*
X97012533Y-146029497D01*
X96726819Y-146934259D02*
X96726819Y-147600925D01*
X96726819Y-147600925D02*
X97726819Y-147172354D01*
X81130157Y-53242221D02*
X81463490Y-52766030D01*
X81701585Y-53242221D02*
X81701585Y-52242221D01*
X81701585Y-52242221D02*
X81320633Y-52242221D01*
X81320633Y-52242221D02*
X81225395Y-52289840D01*
X81225395Y-52289840D02*
X81177776Y-52337459D01*
X81177776Y-52337459D02*
X81130157Y-52432697D01*
X81130157Y-52432697D02*
X81130157Y-52575554D01*
X81130157Y-52575554D02*
X81177776Y-52670792D01*
X81177776Y-52670792D02*
X81225395Y-52718411D01*
X81225395Y-52718411D02*
X81320633Y-52766030D01*
X81320633Y-52766030D02*
X81701585Y-52766030D01*
X80177776Y-53242221D02*
X80749204Y-53242221D01*
X80463490Y-53242221D02*
X80463490Y-52242221D01*
X80463490Y-52242221D02*
X80558728Y-52385078D01*
X80558728Y-52385078D02*
X80653966Y-52480316D01*
X80653966Y-52480316D02*
X80749204Y-52527935D01*
X79844442Y-52242221D02*
X79177776Y-52242221D01*
X79177776Y-52242221D02*
X79606347Y-53242221D01*
X120429580Y-105999044D02*
X120477200Y-105951425D01*
X120477200Y-105951425D02*
X120524819Y-105808568D01*
X120524819Y-105808568D02*
X120524819Y-105713330D01*
X120524819Y-105713330D02*
X120477200Y-105570473D01*
X120477200Y-105570473D02*
X120381961Y-105475235D01*
X120381961Y-105475235D02*
X120286723Y-105427616D01*
X120286723Y-105427616D02*
X120096247Y-105379997D01*
X120096247Y-105379997D02*
X119953390Y-105379997D01*
X119953390Y-105379997D02*
X119762914Y-105427616D01*
X119762914Y-105427616D02*
X119667676Y-105475235D01*
X119667676Y-105475235D02*
X119572438Y-105570473D01*
X119572438Y-105570473D02*
X119524819Y-105713330D01*
X119524819Y-105713330D02*
X119524819Y-105808568D01*
X119524819Y-105808568D02*
X119572438Y-105951425D01*
X119572438Y-105951425D02*
X119620057Y-105999044D01*
X120524819Y-106951425D02*
X120524819Y-106379997D01*
X120524819Y-106665711D02*
X119524819Y-106665711D01*
X119524819Y-106665711D02*
X119667676Y-106570473D01*
X119667676Y-106570473D02*
X119762914Y-106475235D01*
X119762914Y-106475235D02*
X119810533Y-106379997D01*
X120524819Y-107903806D02*
X120524819Y-107332378D01*
X120524819Y-107618092D02*
X119524819Y-107618092D01*
X119524819Y-107618092D02*
X119667676Y-107522854D01*
X119667676Y-107522854D02*
X119762914Y-107427616D01*
X119762914Y-107427616D02*
X119810533Y-107332378D01*
X101379580Y-105999044D02*
X101427200Y-105951425D01*
X101427200Y-105951425D02*
X101474819Y-105808568D01*
X101474819Y-105808568D02*
X101474819Y-105713330D01*
X101474819Y-105713330D02*
X101427200Y-105570473D01*
X101427200Y-105570473D02*
X101331961Y-105475235D01*
X101331961Y-105475235D02*
X101236723Y-105427616D01*
X101236723Y-105427616D02*
X101046247Y-105379997D01*
X101046247Y-105379997D02*
X100903390Y-105379997D01*
X100903390Y-105379997D02*
X100712914Y-105427616D01*
X100712914Y-105427616D02*
X100617676Y-105475235D01*
X100617676Y-105475235D02*
X100522438Y-105570473D01*
X100522438Y-105570473D02*
X100474819Y-105713330D01*
X100474819Y-105713330D02*
X100474819Y-105808568D01*
X100474819Y-105808568D02*
X100522438Y-105951425D01*
X100522438Y-105951425D02*
X100570057Y-105999044D01*
X101474819Y-106951425D02*
X101474819Y-106379997D01*
X101474819Y-106665711D02*
X100474819Y-106665711D01*
X100474819Y-106665711D02*
X100617676Y-106570473D01*
X100617676Y-106570473D02*
X100712914Y-106475235D01*
X100712914Y-106475235D02*
X100760533Y-106379997D01*
X100570057Y-107332378D02*
X100522438Y-107379997D01*
X100522438Y-107379997D02*
X100474819Y-107475235D01*
X100474819Y-107475235D02*
X100474819Y-107713330D01*
X100474819Y-107713330D02*
X100522438Y-107808568D01*
X100522438Y-107808568D02*
X100570057Y-107856187D01*
X100570057Y-107856187D02*
X100665295Y-107903806D01*
X100665295Y-107903806D02*
X100760533Y-107903806D01*
X100760533Y-107903806D02*
X100903390Y-107856187D01*
X100903390Y-107856187D02*
X101474819Y-107284759D01*
X101474819Y-107284759D02*
X101474819Y-107903806D01*
X139479580Y-125049044D02*
X139527200Y-125001425D01*
X139527200Y-125001425D02*
X139574819Y-124858568D01*
X139574819Y-124858568D02*
X139574819Y-124763330D01*
X139574819Y-124763330D02*
X139527200Y-124620473D01*
X139527200Y-124620473D02*
X139431961Y-124525235D01*
X139431961Y-124525235D02*
X139336723Y-124477616D01*
X139336723Y-124477616D02*
X139146247Y-124429997D01*
X139146247Y-124429997D02*
X139003390Y-124429997D01*
X139003390Y-124429997D02*
X138812914Y-124477616D01*
X138812914Y-124477616D02*
X138717676Y-124525235D01*
X138717676Y-124525235D02*
X138622438Y-124620473D01*
X138622438Y-124620473D02*
X138574819Y-124763330D01*
X138574819Y-124763330D02*
X138574819Y-124858568D01*
X138574819Y-124858568D02*
X138622438Y-125001425D01*
X138622438Y-125001425D02*
X138670057Y-125049044D01*
X139574819Y-126001425D02*
X139574819Y-125429997D01*
X139574819Y-125715711D02*
X138574819Y-125715711D01*
X138574819Y-125715711D02*
X138717676Y-125620473D01*
X138717676Y-125620473D02*
X138812914Y-125525235D01*
X138812914Y-125525235D02*
X138860533Y-125429997D01*
X138574819Y-126858568D02*
X138574819Y-126668092D01*
X138574819Y-126668092D02*
X138622438Y-126572854D01*
X138622438Y-126572854D02*
X138670057Y-126525235D01*
X138670057Y-126525235D02*
X138812914Y-126429997D01*
X138812914Y-126429997D02*
X139003390Y-126382378D01*
X139003390Y-126382378D02*
X139384342Y-126382378D01*
X139384342Y-126382378D02*
X139479580Y-126429997D01*
X139479580Y-126429997D02*
X139527200Y-126477616D01*
X139527200Y-126477616D02*
X139574819Y-126572854D01*
X139574819Y-126572854D02*
X139574819Y-126763330D01*
X139574819Y-126763330D02*
X139527200Y-126858568D01*
X139527200Y-126858568D02*
X139479580Y-126906187D01*
X139479580Y-126906187D02*
X139384342Y-126953806D01*
X139384342Y-126953806D02*
X139146247Y-126953806D01*
X139146247Y-126953806D02*
X139051009Y-126906187D01*
X139051009Y-126906187D02*
X139003390Y-126858568D01*
X139003390Y-126858568D02*
X138955771Y-126763330D01*
X138955771Y-126763330D02*
X138955771Y-126572854D01*
X138955771Y-126572854D02*
X139003390Y-126477616D01*
X139003390Y-126477616D02*
X139051009Y-126429997D01*
X139051009Y-126429997D02*
X139146247Y-126382378D01*
X116776819Y-126027116D02*
X115776819Y-126027116D01*
X115776819Y-126027116D02*
X115776819Y-126265211D01*
X115776819Y-126265211D02*
X115824438Y-126408068D01*
X115824438Y-126408068D02*
X115919676Y-126503306D01*
X115919676Y-126503306D02*
X116014914Y-126550925D01*
X116014914Y-126550925D02*
X116205390Y-126598544D01*
X116205390Y-126598544D02*
X116348247Y-126598544D01*
X116348247Y-126598544D02*
X116538723Y-126550925D01*
X116538723Y-126550925D02*
X116633961Y-126503306D01*
X116633961Y-126503306D02*
X116729200Y-126408068D01*
X116729200Y-126408068D02*
X116776819Y-126265211D01*
X116776819Y-126265211D02*
X116776819Y-126027116D01*
X116776819Y-127550925D02*
X116776819Y-126979497D01*
X116776819Y-127265211D02*
X115776819Y-127265211D01*
X115776819Y-127265211D02*
X115919676Y-127169973D01*
X115919676Y-127169973D02*
X116014914Y-127074735D01*
X116014914Y-127074735D02*
X116062533Y-126979497D01*
X116110152Y-128408068D02*
X116776819Y-128408068D01*
X115729200Y-128169973D02*
X116443485Y-127931878D01*
X116443485Y-127931878D02*
X116443485Y-128550925D01*
X116776819Y-145077116D02*
X115776819Y-145077116D01*
X115776819Y-145077116D02*
X115776819Y-145315211D01*
X115776819Y-145315211D02*
X115824438Y-145458068D01*
X115824438Y-145458068D02*
X115919676Y-145553306D01*
X115919676Y-145553306D02*
X116014914Y-145600925D01*
X116014914Y-145600925D02*
X116205390Y-145648544D01*
X116205390Y-145648544D02*
X116348247Y-145648544D01*
X116348247Y-145648544D02*
X116538723Y-145600925D01*
X116538723Y-145600925D02*
X116633961Y-145553306D01*
X116633961Y-145553306D02*
X116729200Y-145458068D01*
X116729200Y-145458068D02*
X116776819Y-145315211D01*
X116776819Y-145315211D02*
X116776819Y-145077116D01*
X116776819Y-146600925D02*
X116776819Y-146029497D01*
X116776819Y-146315211D02*
X115776819Y-146315211D01*
X115776819Y-146315211D02*
X115919676Y-146219973D01*
X115919676Y-146219973D02*
X116014914Y-146124735D01*
X116014914Y-146124735D02*
X116062533Y-146029497D01*
X116205390Y-147172354D02*
X116157771Y-147077116D01*
X116157771Y-147077116D02*
X116110152Y-147029497D01*
X116110152Y-147029497D02*
X116014914Y-146981878D01*
X116014914Y-146981878D02*
X115967295Y-146981878D01*
X115967295Y-146981878D02*
X115872057Y-147029497D01*
X115872057Y-147029497D02*
X115824438Y-147077116D01*
X115824438Y-147077116D02*
X115776819Y-147172354D01*
X115776819Y-147172354D02*
X115776819Y-147362830D01*
X115776819Y-147362830D02*
X115824438Y-147458068D01*
X115824438Y-147458068D02*
X115872057Y-147505687D01*
X115872057Y-147505687D02*
X115967295Y-147553306D01*
X115967295Y-147553306D02*
X116014914Y-147553306D01*
X116014914Y-147553306D02*
X116110152Y-147505687D01*
X116110152Y-147505687D02*
X116157771Y-147458068D01*
X116157771Y-147458068D02*
X116205390Y-147362830D01*
X116205390Y-147362830D02*
X116205390Y-147172354D01*
X116205390Y-147172354D02*
X116253009Y-147077116D01*
X116253009Y-147077116D02*
X116300628Y-147029497D01*
X116300628Y-147029497D02*
X116395866Y-146981878D01*
X116395866Y-146981878D02*
X116586342Y-146981878D01*
X116586342Y-146981878D02*
X116681580Y-147029497D01*
X116681580Y-147029497D02*
X116729200Y-147077116D01*
X116729200Y-147077116D02*
X116776819Y-147172354D01*
X116776819Y-147172354D02*
X116776819Y-147362830D01*
X116776819Y-147362830D02*
X116729200Y-147458068D01*
X116729200Y-147458068D02*
X116681580Y-147505687D01*
X116681580Y-147505687D02*
X116586342Y-147553306D01*
X116586342Y-147553306D02*
X116395866Y-147553306D01*
X116395866Y-147553306D02*
X116300628Y-147505687D01*
X116300628Y-147505687D02*
X116253009Y-147458068D01*
X116253009Y-147458068D02*
X116205390Y-147362830D01*
X127639457Y-111136421D02*
X127972790Y-110660230D01*
X128210885Y-111136421D02*
X128210885Y-110136421D01*
X128210885Y-110136421D02*
X127829933Y-110136421D01*
X127829933Y-110136421D02*
X127734695Y-110184040D01*
X127734695Y-110184040D02*
X127687076Y-110231659D01*
X127687076Y-110231659D02*
X127639457Y-110326897D01*
X127639457Y-110326897D02*
X127639457Y-110469754D01*
X127639457Y-110469754D02*
X127687076Y-110564992D01*
X127687076Y-110564992D02*
X127734695Y-110612611D01*
X127734695Y-110612611D02*
X127829933Y-110660230D01*
X127829933Y-110660230D02*
X128210885Y-110660230D01*
X126687076Y-111136421D02*
X127258504Y-111136421D01*
X126972790Y-111136421D02*
X126972790Y-110136421D01*
X126972790Y-110136421D02*
X127068028Y-110279278D01*
X127068028Y-110279278D02*
X127163266Y-110374516D01*
X127163266Y-110374516D02*
X127258504Y-110422135D01*
X125829933Y-110469754D02*
X125829933Y-111136421D01*
X126068028Y-110088802D02*
X126306123Y-110803087D01*
X126306123Y-110803087D02*
X125687076Y-110803087D01*
X97726819Y-107453307D02*
X96726819Y-107453307D01*
X96726819Y-107453307D02*
X96726819Y-107691402D01*
X96726819Y-107691402D02*
X96774438Y-107834259D01*
X96774438Y-107834259D02*
X96869676Y-107929497D01*
X96869676Y-107929497D02*
X96964914Y-107977116D01*
X96964914Y-107977116D02*
X97155390Y-108024735D01*
X97155390Y-108024735D02*
X97298247Y-108024735D01*
X97298247Y-108024735D02*
X97488723Y-107977116D01*
X97488723Y-107977116D02*
X97583961Y-107929497D01*
X97583961Y-107929497D02*
X97679200Y-107834259D01*
X97679200Y-107834259D02*
X97726819Y-107691402D01*
X97726819Y-107691402D02*
X97726819Y-107453307D01*
X97726819Y-108500926D02*
X97726819Y-108691402D01*
X97726819Y-108691402D02*
X97679200Y-108786640D01*
X97679200Y-108786640D02*
X97631580Y-108834259D01*
X97631580Y-108834259D02*
X97488723Y-108929497D01*
X97488723Y-108929497D02*
X97298247Y-108977116D01*
X97298247Y-108977116D02*
X96917295Y-108977116D01*
X96917295Y-108977116D02*
X96822057Y-108929497D01*
X96822057Y-108929497D02*
X96774438Y-108881878D01*
X96774438Y-108881878D02*
X96726819Y-108786640D01*
X96726819Y-108786640D02*
X96726819Y-108596164D01*
X96726819Y-108596164D02*
X96774438Y-108500926D01*
X96774438Y-108500926D02*
X96822057Y-108453307D01*
X96822057Y-108453307D02*
X96917295Y-108405688D01*
X96917295Y-108405688D02*
X97155390Y-108405688D01*
X97155390Y-108405688D02*
X97250628Y-108453307D01*
X97250628Y-108453307D02*
X97298247Y-108500926D01*
X97298247Y-108500926D02*
X97345866Y-108596164D01*
X97345866Y-108596164D02*
X97345866Y-108786640D01*
X97345866Y-108786640D02*
X97298247Y-108881878D01*
X97298247Y-108881878D02*
X97250628Y-108929497D01*
X97250628Y-108929497D02*
X97155390Y-108977116D01*
X120429580Y-68375235D02*
X120477200Y-68327616D01*
X120477200Y-68327616D02*
X120524819Y-68184759D01*
X120524819Y-68184759D02*
X120524819Y-68089521D01*
X120524819Y-68089521D02*
X120477200Y-67946664D01*
X120477200Y-67946664D02*
X120381961Y-67851426D01*
X120381961Y-67851426D02*
X120286723Y-67803807D01*
X120286723Y-67803807D02*
X120096247Y-67756188D01*
X120096247Y-67756188D02*
X119953390Y-67756188D01*
X119953390Y-67756188D02*
X119762914Y-67803807D01*
X119762914Y-67803807D02*
X119667676Y-67851426D01*
X119667676Y-67851426D02*
X119572438Y-67946664D01*
X119572438Y-67946664D02*
X119524819Y-68089521D01*
X119524819Y-68089521D02*
X119524819Y-68184759D01*
X119524819Y-68184759D02*
X119572438Y-68327616D01*
X119572438Y-68327616D02*
X119620057Y-68375235D01*
X119524819Y-69232378D02*
X119524819Y-69041902D01*
X119524819Y-69041902D02*
X119572438Y-68946664D01*
X119572438Y-68946664D02*
X119620057Y-68899045D01*
X119620057Y-68899045D02*
X119762914Y-68803807D01*
X119762914Y-68803807D02*
X119953390Y-68756188D01*
X119953390Y-68756188D02*
X120334342Y-68756188D01*
X120334342Y-68756188D02*
X120429580Y-68803807D01*
X120429580Y-68803807D02*
X120477200Y-68851426D01*
X120477200Y-68851426D02*
X120524819Y-68946664D01*
X120524819Y-68946664D02*
X120524819Y-69137140D01*
X120524819Y-69137140D02*
X120477200Y-69232378D01*
X120477200Y-69232378D02*
X120429580Y-69279997D01*
X120429580Y-69279997D02*
X120334342Y-69327616D01*
X120334342Y-69327616D02*
X120096247Y-69327616D01*
X120096247Y-69327616D02*
X120001009Y-69279997D01*
X120001009Y-69279997D02*
X119953390Y-69232378D01*
X119953390Y-69232378D02*
X119905771Y-69137140D01*
X119905771Y-69137140D02*
X119905771Y-68946664D01*
X119905771Y-68946664D02*
X119953390Y-68851426D01*
X119953390Y-68851426D02*
X120001009Y-68803807D01*
X120001009Y-68803807D02*
X120096247Y-68756188D01*
X82329580Y-144099044D02*
X82377200Y-144051425D01*
X82377200Y-144051425D02*
X82424819Y-143908568D01*
X82424819Y-143908568D02*
X82424819Y-143813330D01*
X82424819Y-143813330D02*
X82377200Y-143670473D01*
X82377200Y-143670473D02*
X82281961Y-143575235D01*
X82281961Y-143575235D02*
X82186723Y-143527616D01*
X82186723Y-143527616D02*
X81996247Y-143479997D01*
X81996247Y-143479997D02*
X81853390Y-143479997D01*
X81853390Y-143479997D02*
X81662914Y-143527616D01*
X81662914Y-143527616D02*
X81567676Y-143575235D01*
X81567676Y-143575235D02*
X81472438Y-143670473D01*
X81472438Y-143670473D02*
X81424819Y-143813330D01*
X81424819Y-143813330D02*
X81424819Y-143908568D01*
X81424819Y-143908568D02*
X81472438Y-144051425D01*
X81472438Y-144051425D02*
X81520057Y-144099044D01*
X81520057Y-144479997D02*
X81472438Y-144527616D01*
X81472438Y-144527616D02*
X81424819Y-144622854D01*
X81424819Y-144622854D02*
X81424819Y-144860949D01*
X81424819Y-144860949D02*
X81472438Y-144956187D01*
X81472438Y-144956187D02*
X81520057Y-145003806D01*
X81520057Y-145003806D02*
X81615295Y-145051425D01*
X81615295Y-145051425D02*
X81710533Y-145051425D01*
X81710533Y-145051425D02*
X81853390Y-145003806D01*
X81853390Y-145003806D02*
X82424819Y-144432378D01*
X82424819Y-144432378D02*
X82424819Y-145051425D01*
X81424819Y-145670473D02*
X81424819Y-145765711D01*
X81424819Y-145765711D02*
X81472438Y-145860949D01*
X81472438Y-145860949D02*
X81520057Y-145908568D01*
X81520057Y-145908568D02*
X81615295Y-145956187D01*
X81615295Y-145956187D02*
X81805771Y-146003806D01*
X81805771Y-146003806D02*
X82043866Y-146003806D01*
X82043866Y-146003806D02*
X82234342Y-145956187D01*
X82234342Y-145956187D02*
X82329580Y-145908568D01*
X82329580Y-145908568D02*
X82377200Y-145860949D01*
X82377200Y-145860949D02*
X82424819Y-145765711D01*
X82424819Y-145765711D02*
X82424819Y-145670473D01*
X82424819Y-145670473D02*
X82377200Y-145575235D01*
X82377200Y-145575235D02*
X82329580Y-145527616D01*
X82329580Y-145527616D02*
X82234342Y-145479997D01*
X82234342Y-145479997D02*
X82043866Y-145432378D01*
X82043866Y-145432378D02*
X81805771Y-145432378D01*
X81805771Y-145432378D02*
X81615295Y-145479997D01*
X81615295Y-145479997D02*
X81520057Y-145527616D01*
X81520057Y-145527616D02*
X81472438Y-145575235D01*
X81472438Y-145575235D02*
X81424819Y-145670473D01*
X136588819Y-49955116D02*
X135588819Y-49955116D01*
X135588819Y-49955116D02*
X135588819Y-50193211D01*
X135588819Y-50193211D02*
X135636438Y-50336068D01*
X135636438Y-50336068D02*
X135731676Y-50431306D01*
X135731676Y-50431306D02*
X135826914Y-50478925D01*
X135826914Y-50478925D02*
X136017390Y-50526544D01*
X136017390Y-50526544D02*
X136160247Y-50526544D01*
X136160247Y-50526544D02*
X136350723Y-50478925D01*
X136350723Y-50478925D02*
X136445961Y-50431306D01*
X136445961Y-50431306D02*
X136541200Y-50336068D01*
X136541200Y-50336068D02*
X136588819Y-50193211D01*
X136588819Y-50193211D02*
X136588819Y-49955116D01*
X135684057Y-50907497D02*
X135636438Y-50955116D01*
X135636438Y-50955116D02*
X135588819Y-51050354D01*
X135588819Y-51050354D02*
X135588819Y-51288449D01*
X135588819Y-51288449D02*
X135636438Y-51383687D01*
X135636438Y-51383687D02*
X135684057Y-51431306D01*
X135684057Y-51431306D02*
X135779295Y-51478925D01*
X135779295Y-51478925D02*
X135874533Y-51478925D01*
X135874533Y-51478925D02*
X136017390Y-51431306D01*
X136017390Y-51431306D02*
X136588819Y-50859878D01*
X136588819Y-50859878D02*
X136588819Y-51478925D01*
X135684057Y-51859878D02*
X135636438Y-51907497D01*
X135636438Y-51907497D02*
X135588819Y-52002735D01*
X135588819Y-52002735D02*
X135588819Y-52240830D01*
X135588819Y-52240830D02*
X135636438Y-52336068D01*
X135636438Y-52336068D02*
X135684057Y-52383687D01*
X135684057Y-52383687D02*
X135779295Y-52431306D01*
X135779295Y-52431306D02*
X135874533Y-52431306D01*
X135874533Y-52431306D02*
X136017390Y-52383687D01*
X136017390Y-52383687D02*
X136588819Y-51812259D01*
X136588819Y-51812259D02*
X136588819Y-52431306D01*
X130684819Y-39572735D02*
X130208628Y-39239402D01*
X130684819Y-39001307D02*
X129684819Y-39001307D01*
X129684819Y-39001307D02*
X129684819Y-39382259D01*
X129684819Y-39382259D02*
X129732438Y-39477497D01*
X129732438Y-39477497D02*
X129780057Y-39525116D01*
X129780057Y-39525116D02*
X129875295Y-39572735D01*
X129875295Y-39572735D02*
X130018152Y-39572735D01*
X130018152Y-39572735D02*
X130113390Y-39525116D01*
X130113390Y-39525116D02*
X130161009Y-39477497D01*
X130161009Y-39477497D02*
X130208628Y-39382259D01*
X130208628Y-39382259D02*
X130208628Y-39001307D01*
X130684819Y-40048926D02*
X130684819Y-40239402D01*
X130684819Y-40239402D02*
X130637200Y-40334640D01*
X130637200Y-40334640D02*
X130589580Y-40382259D01*
X130589580Y-40382259D02*
X130446723Y-40477497D01*
X130446723Y-40477497D02*
X130256247Y-40525116D01*
X130256247Y-40525116D02*
X129875295Y-40525116D01*
X129875295Y-40525116D02*
X129780057Y-40477497D01*
X129780057Y-40477497D02*
X129732438Y-40429878D01*
X129732438Y-40429878D02*
X129684819Y-40334640D01*
X129684819Y-40334640D02*
X129684819Y-40144164D01*
X129684819Y-40144164D02*
X129732438Y-40048926D01*
X129732438Y-40048926D02*
X129780057Y-40001307D01*
X129780057Y-40001307D02*
X129875295Y-39953688D01*
X129875295Y-39953688D02*
X130113390Y-39953688D01*
X130113390Y-39953688D02*
X130208628Y-40001307D01*
X130208628Y-40001307D02*
X130256247Y-40048926D01*
X130256247Y-40048926D02*
X130303866Y-40144164D01*
X130303866Y-40144164D02*
X130303866Y-40334640D01*
X130303866Y-40334640D02*
X130256247Y-40429878D01*
X130256247Y-40429878D02*
X130208628Y-40477497D01*
X130208628Y-40477497D02*
X130113390Y-40525116D01*
X66273333Y-51137221D02*
X66273333Y-51851506D01*
X66273333Y-51851506D02*
X66320952Y-51994363D01*
X66320952Y-51994363D02*
X66416190Y-52089602D01*
X66416190Y-52089602D02*
X66559047Y-52137221D01*
X66559047Y-52137221D02*
X66654285Y-52137221D01*
X65273333Y-52137221D02*
X65844761Y-52137221D01*
X65559047Y-52137221D02*
X65559047Y-51137221D01*
X65559047Y-51137221D02*
X65654285Y-51280078D01*
X65654285Y-51280078D02*
X65749523Y-51375316D01*
X65749523Y-51375316D02*
X65844761Y-51422935D01*
X127766457Y-92061021D02*
X128099790Y-91584830D01*
X128337885Y-92061021D02*
X128337885Y-91061021D01*
X128337885Y-91061021D02*
X127956933Y-91061021D01*
X127956933Y-91061021D02*
X127861695Y-91108640D01*
X127861695Y-91108640D02*
X127814076Y-91156259D01*
X127814076Y-91156259D02*
X127766457Y-91251497D01*
X127766457Y-91251497D02*
X127766457Y-91394354D01*
X127766457Y-91394354D02*
X127814076Y-91489592D01*
X127814076Y-91489592D02*
X127861695Y-91537211D01*
X127861695Y-91537211D02*
X127956933Y-91584830D01*
X127956933Y-91584830D02*
X128337885Y-91584830D01*
X126814076Y-92061021D02*
X127385504Y-92061021D01*
X127099790Y-92061021D02*
X127099790Y-91061021D01*
X127099790Y-91061021D02*
X127195028Y-91203878D01*
X127195028Y-91203878D02*
X127290266Y-91299116D01*
X127290266Y-91299116D02*
X127385504Y-91346735D01*
X126480742Y-91061021D02*
X125861695Y-91061021D01*
X125861695Y-91061021D02*
X126195028Y-91441973D01*
X126195028Y-91441973D02*
X126052171Y-91441973D01*
X126052171Y-91441973D02*
X125956933Y-91489592D01*
X125956933Y-91489592D02*
X125909314Y-91537211D01*
X125909314Y-91537211D02*
X125861695Y-91632449D01*
X125861695Y-91632449D02*
X125861695Y-91870544D01*
X125861695Y-91870544D02*
X125909314Y-91965782D01*
X125909314Y-91965782D02*
X125956933Y-92013402D01*
X125956933Y-92013402D02*
X126052171Y-92061021D01*
X126052171Y-92061021D02*
X126337885Y-92061021D01*
X126337885Y-92061021D02*
X126433123Y-92013402D01*
X126433123Y-92013402D02*
X126480742Y-91965782D01*
X74390819Y-39826735D02*
X73914628Y-39493402D01*
X74390819Y-39255307D02*
X73390819Y-39255307D01*
X73390819Y-39255307D02*
X73390819Y-39636259D01*
X73390819Y-39636259D02*
X73438438Y-39731497D01*
X73438438Y-39731497D02*
X73486057Y-39779116D01*
X73486057Y-39779116D02*
X73581295Y-39826735D01*
X73581295Y-39826735D02*
X73724152Y-39826735D01*
X73724152Y-39826735D02*
X73819390Y-39779116D01*
X73819390Y-39779116D02*
X73867009Y-39731497D01*
X73867009Y-39731497D02*
X73914628Y-39636259D01*
X73914628Y-39636259D02*
X73914628Y-39255307D01*
X73724152Y-40683878D02*
X74390819Y-40683878D01*
X73343200Y-40445783D02*
X74057485Y-40207688D01*
X74057485Y-40207688D02*
X74057485Y-40826735D01*
X82329580Y-125049044D02*
X82377200Y-125001425D01*
X82377200Y-125001425D02*
X82424819Y-124858568D01*
X82424819Y-124858568D02*
X82424819Y-124763330D01*
X82424819Y-124763330D02*
X82377200Y-124620473D01*
X82377200Y-124620473D02*
X82281961Y-124525235D01*
X82281961Y-124525235D02*
X82186723Y-124477616D01*
X82186723Y-124477616D02*
X81996247Y-124429997D01*
X81996247Y-124429997D02*
X81853390Y-124429997D01*
X81853390Y-124429997D02*
X81662914Y-124477616D01*
X81662914Y-124477616D02*
X81567676Y-124525235D01*
X81567676Y-124525235D02*
X81472438Y-124620473D01*
X81472438Y-124620473D02*
X81424819Y-124763330D01*
X81424819Y-124763330D02*
X81424819Y-124858568D01*
X81424819Y-124858568D02*
X81472438Y-125001425D01*
X81472438Y-125001425D02*
X81520057Y-125049044D01*
X82424819Y-126001425D02*
X82424819Y-125429997D01*
X82424819Y-125715711D02*
X81424819Y-125715711D01*
X81424819Y-125715711D02*
X81567676Y-125620473D01*
X81567676Y-125620473D02*
X81662914Y-125525235D01*
X81662914Y-125525235D02*
X81710533Y-125429997D01*
X82424819Y-126477616D02*
X82424819Y-126668092D01*
X82424819Y-126668092D02*
X82377200Y-126763330D01*
X82377200Y-126763330D02*
X82329580Y-126810949D01*
X82329580Y-126810949D02*
X82186723Y-126906187D01*
X82186723Y-126906187D02*
X81996247Y-126953806D01*
X81996247Y-126953806D02*
X81615295Y-126953806D01*
X81615295Y-126953806D02*
X81520057Y-126906187D01*
X81520057Y-126906187D02*
X81472438Y-126858568D01*
X81472438Y-126858568D02*
X81424819Y-126763330D01*
X81424819Y-126763330D02*
X81424819Y-126572854D01*
X81424819Y-126572854D02*
X81472438Y-126477616D01*
X81472438Y-126477616D02*
X81520057Y-126429997D01*
X81520057Y-126429997D02*
X81615295Y-126382378D01*
X81615295Y-126382378D02*
X81853390Y-126382378D01*
X81853390Y-126382378D02*
X81948628Y-126429997D01*
X81948628Y-126429997D02*
X81996247Y-126477616D01*
X81996247Y-126477616D02*
X82043866Y-126572854D01*
X82043866Y-126572854D02*
X82043866Y-126763330D01*
X82043866Y-126763330D02*
X81996247Y-126858568D01*
X81996247Y-126858568D02*
X81948628Y-126906187D01*
X81948628Y-126906187D02*
X81853390Y-126953806D01*
X101379580Y-144099044D02*
X101427200Y-144051425D01*
X101427200Y-144051425D02*
X101474819Y-143908568D01*
X101474819Y-143908568D02*
X101474819Y-143813330D01*
X101474819Y-143813330D02*
X101427200Y-143670473D01*
X101427200Y-143670473D02*
X101331961Y-143575235D01*
X101331961Y-143575235D02*
X101236723Y-143527616D01*
X101236723Y-143527616D02*
X101046247Y-143479997D01*
X101046247Y-143479997D02*
X100903390Y-143479997D01*
X100903390Y-143479997D02*
X100712914Y-143527616D01*
X100712914Y-143527616D02*
X100617676Y-143575235D01*
X100617676Y-143575235D02*
X100522438Y-143670473D01*
X100522438Y-143670473D02*
X100474819Y-143813330D01*
X100474819Y-143813330D02*
X100474819Y-143908568D01*
X100474819Y-143908568D02*
X100522438Y-144051425D01*
X100522438Y-144051425D02*
X100570057Y-144099044D01*
X100570057Y-144479997D02*
X100522438Y-144527616D01*
X100522438Y-144527616D02*
X100474819Y-144622854D01*
X100474819Y-144622854D02*
X100474819Y-144860949D01*
X100474819Y-144860949D02*
X100522438Y-144956187D01*
X100522438Y-144956187D02*
X100570057Y-145003806D01*
X100570057Y-145003806D02*
X100665295Y-145051425D01*
X100665295Y-145051425D02*
X100760533Y-145051425D01*
X100760533Y-145051425D02*
X100903390Y-145003806D01*
X100903390Y-145003806D02*
X101474819Y-144432378D01*
X101474819Y-144432378D02*
X101474819Y-145051425D01*
X101474819Y-146003806D02*
X101474819Y-145432378D01*
X101474819Y-145718092D02*
X100474819Y-145718092D01*
X100474819Y-145718092D02*
X100617676Y-145622854D01*
X100617676Y-145622854D02*
X100712914Y-145527616D01*
X100712914Y-145527616D02*
X100760533Y-145432378D01*
X116776819Y-88403307D02*
X115776819Y-88403307D01*
X115776819Y-88403307D02*
X115776819Y-88641402D01*
X115776819Y-88641402D02*
X115824438Y-88784259D01*
X115824438Y-88784259D02*
X115919676Y-88879497D01*
X115919676Y-88879497D02*
X116014914Y-88927116D01*
X116014914Y-88927116D02*
X116205390Y-88974735D01*
X116205390Y-88974735D02*
X116348247Y-88974735D01*
X116348247Y-88974735D02*
X116538723Y-88927116D01*
X116538723Y-88927116D02*
X116633961Y-88879497D01*
X116633961Y-88879497D02*
X116729200Y-88784259D01*
X116729200Y-88784259D02*
X116776819Y-88641402D01*
X116776819Y-88641402D02*
X116776819Y-88403307D01*
X115776819Y-89831878D02*
X115776819Y-89641402D01*
X115776819Y-89641402D02*
X115824438Y-89546164D01*
X115824438Y-89546164D02*
X115872057Y-89498545D01*
X115872057Y-89498545D02*
X116014914Y-89403307D01*
X116014914Y-89403307D02*
X116205390Y-89355688D01*
X116205390Y-89355688D02*
X116586342Y-89355688D01*
X116586342Y-89355688D02*
X116681580Y-89403307D01*
X116681580Y-89403307D02*
X116729200Y-89450926D01*
X116729200Y-89450926D02*
X116776819Y-89546164D01*
X116776819Y-89546164D02*
X116776819Y-89736640D01*
X116776819Y-89736640D02*
X116729200Y-89831878D01*
X116729200Y-89831878D02*
X116681580Y-89879497D01*
X116681580Y-89879497D02*
X116586342Y-89927116D01*
X116586342Y-89927116D02*
X116348247Y-89927116D01*
X116348247Y-89927116D02*
X116253009Y-89879497D01*
X116253009Y-89879497D02*
X116205390Y-89831878D01*
X116205390Y-89831878D02*
X116157771Y-89736640D01*
X116157771Y-89736640D02*
X116157771Y-89546164D01*
X116157771Y-89546164D02*
X116205390Y-89450926D01*
X116205390Y-89450926D02*
X116253009Y-89403307D01*
X116253009Y-89403307D02*
X116348247Y-89355688D01*
X135826819Y-88403307D02*
X134826819Y-88403307D01*
X134826819Y-88403307D02*
X134826819Y-88641402D01*
X134826819Y-88641402D02*
X134874438Y-88784259D01*
X134874438Y-88784259D02*
X134969676Y-88879497D01*
X134969676Y-88879497D02*
X135064914Y-88927116D01*
X135064914Y-88927116D02*
X135255390Y-88974735D01*
X135255390Y-88974735D02*
X135398247Y-88974735D01*
X135398247Y-88974735D02*
X135588723Y-88927116D01*
X135588723Y-88927116D02*
X135683961Y-88879497D01*
X135683961Y-88879497D02*
X135779200Y-88784259D01*
X135779200Y-88784259D02*
X135826819Y-88641402D01*
X135826819Y-88641402D02*
X135826819Y-88403307D01*
X134826819Y-89308069D02*
X134826819Y-89974735D01*
X134826819Y-89974735D02*
X135826819Y-89546164D01*
X120429580Y-87425235D02*
X120477200Y-87377616D01*
X120477200Y-87377616D02*
X120524819Y-87234759D01*
X120524819Y-87234759D02*
X120524819Y-87139521D01*
X120524819Y-87139521D02*
X120477200Y-86996664D01*
X120477200Y-86996664D02*
X120381961Y-86901426D01*
X120381961Y-86901426D02*
X120286723Y-86853807D01*
X120286723Y-86853807D02*
X120096247Y-86806188D01*
X120096247Y-86806188D02*
X119953390Y-86806188D01*
X119953390Y-86806188D02*
X119762914Y-86853807D01*
X119762914Y-86853807D02*
X119667676Y-86901426D01*
X119667676Y-86901426D02*
X119572438Y-86996664D01*
X119572438Y-86996664D02*
X119524819Y-87139521D01*
X119524819Y-87139521D02*
X119524819Y-87234759D01*
X119524819Y-87234759D02*
X119572438Y-87377616D01*
X119572438Y-87377616D02*
X119620057Y-87425235D01*
X120524819Y-87901426D02*
X120524819Y-88091902D01*
X120524819Y-88091902D02*
X120477200Y-88187140D01*
X120477200Y-88187140D02*
X120429580Y-88234759D01*
X120429580Y-88234759D02*
X120286723Y-88329997D01*
X120286723Y-88329997D02*
X120096247Y-88377616D01*
X120096247Y-88377616D02*
X119715295Y-88377616D01*
X119715295Y-88377616D02*
X119620057Y-88329997D01*
X119620057Y-88329997D02*
X119572438Y-88282378D01*
X119572438Y-88282378D02*
X119524819Y-88187140D01*
X119524819Y-88187140D02*
X119524819Y-87996664D01*
X119524819Y-87996664D02*
X119572438Y-87901426D01*
X119572438Y-87901426D02*
X119620057Y-87853807D01*
X119620057Y-87853807D02*
X119715295Y-87806188D01*
X119715295Y-87806188D02*
X119953390Y-87806188D01*
X119953390Y-87806188D02*
X120048628Y-87853807D01*
X120048628Y-87853807D02*
X120096247Y-87901426D01*
X120096247Y-87901426D02*
X120143866Y-87996664D01*
X120143866Y-87996664D02*
X120143866Y-88187140D01*
X120143866Y-88187140D02*
X120096247Y-88282378D01*
X120096247Y-88282378D02*
X120048628Y-88329997D01*
X120048628Y-88329997D02*
X119953390Y-88377616D01*
X154876819Y-106977116D02*
X153876819Y-106977116D01*
X153876819Y-106977116D02*
X153876819Y-107215211D01*
X153876819Y-107215211D02*
X153924438Y-107358068D01*
X153924438Y-107358068D02*
X154019676Y-107453306D01*
X154019676Y-107453306D02*
X154114914Y-107500925D01*
X154114914Y-107500925D02*
X154305390Y-107548544D01*
X154305390Y-107548544D02*
X154448247Y-107548544D01*
X154448247Y-107548544D02*
X154638723Y-107500925D01*
X154638723Y-107500925D02*
X154733961Y-107453306D01*
X154733961Y-107453306D02*
X154829200Y-107358068D01*
X154829200Y-107358068D02*
X154876819Y-107215211D01*
X154876819Y-107215211D02*
X154876819Y-106977116D01*
X154876819Y-108500925D02*
X154876819Y-107929497D01*
X154876819Y-108215211D02*
X153876819Y-108215211D01*
X153876819Y-108215211D02*
X154019676Y-108119973D01*
X154019676Y-108119973D02*
X154114914Y-108024735D01*
X154114914Y-108024735D02*
X154162533Y-107929497D01*
X153972057Y-108881878D02*
X153924438Y-108929497D01*
X153924438Y-108929497D02*
X153876819Y-109024735D01*
X153876819Y-109024735D02*
X153876819Y-109262830D01*
X153876819Y-109262830D02*
X153924438Y-109358068D01*
X153924438Y-109358068D02*
X153972057Y-109405687D01*
X153972057Y-109405687D02*
X154067295Y-109453306D01*
X154067295Y-109453306D02*
X154162533Y-109453306D01*
X154162533Y-109453306D02*
X154305390Y-109405687D01*
X154305390Y-109405687D02*
X154876819Y-108834259D01*
X154876819Y-108834259D02*
X154876819Y-109453306D01*
X82329580Y-68375235D02*
X82377200Y-68327616D01*
X82377200Y-68327616D02*
X82424819Y-68184759D01*
X82424819Y-68184759D02*
X82424819Y-68089521D01*
X82424819Y-68089521D02*
X82377200Y-67946664D01*
X82377200Y-67946664D02*
X82281961Y-67851426D01*
X82281961Y-67851426D02*
X82186723Y-67803807D01*
X82186723Y-67803807D02*
X81996247Y-67756188D01*
X81996247Y-67756188D02*
X81853390Y-67756188D01*
X81853390Y-67756188D02*
X81662914Y-67803807D01*
X81662914Y-67803807D02*
X81567676Y-67851426D01*
X81567676Y-67851426D02*
X81472438Y-67946664D01*
X81472438Y-67946664D02*
X81424819Y-68089521D01*
X81424819Y-68089521D02*
X81424819Y-68184759D01*
X81424819Y-68184759D02*
X81472438Y-68327616D01*
X81472438Y-68327616D02*
X81520057Y-68375235D01*
X81424819Y-68708569D02*
X81424819Y-69327616D01*
X81424819Y-69327616D02*
X81805771Y-68994283D01*
X81805771Y-68994283D02*
X81805771Y-69137140D01*
X81805771Y-69137140D02*
X81853390Y-69232378D01*
X81853390Y-69232378D02*
X81901009Y-69279997D01*
X81901009Y-69279997D02*
X81996247Y-69327616D01*
X81996247Y-69327616D02*
X82234342Y-69327616D01*
X82234342Y-69327616D02*
X82329580Y-69279997D01*
X82329580Y-69279997D02*
X82377200Y-69232378D01*
X82377200Y-69232378D02*
X82424819Y-69137140D01*
X82424819Y-69137140D02*
X82424819Y-68851426D01*
X82424819Y-68851426D02*
X82377200Y-68756188D01*
X82377200Y-68756188D02*
X82329580Y-68708569D01*
X132014666Y-50100221D02*
X132347999Y-49624030D01*
X132586094Y-50100221D02*
X132586094Y-49100221D01*
X132586094Y-49100221D02*
X132205142Y-49100221D01*
X132205142Y-49100221D02*
X132109904Y-49147840D01*
X132109904Y-49147840D02*
X132062285Y-49195459D01*
X132062285Y-49195459D02*
X132014666Y-49290697D01*
X132014666Y-49290697D02*
X132014666Y-49433554D01*
X132014666Y-49433554D02*
X132062285Y-49528792D01*
X132062285Y-49528792D02*
X132109904Y-49576411D01*
X132109904Y-49576411D02*
X132205142Y-49624030D01*
X132205142Y-49624030D02*
X132586094Y-49624030D01*
X131633713Y-49195459D02*
X131586094Y-49147840D01*
X131586094Y-49147840D02*
X131490856Y-49100221D01*
X131490856Y-49100221D02*
X131252761Y-49100221D01*
X131252761Y-49100221D02*
X131157523Y-49147840D01*
X131157523Y-49147840D02*
X131109904Y-49195459D01*
X131109904Y-49195459D02*
X131062285Y-49290697D01*
X131062285Y-49290697D02*
X131062285Y-49385935D01*
X131062285Y-49385935D02*
X131109904Y-49528792D01*
X131109904Y-49528792D02*
X131681332Y-50100221D01*
X131681332Y-50100221D02*
X131062285Y-50100221D01*
X97726819Y-88403307D02*
X96726819Y-88403307D01*
X96726819Y-88403307D02*
X96726819Y-88641402D01*
X96726819Y-88641402D02*
X96774438Y-88784259D01*
X96774438Y-88784259D02*
X96869676Y-88879497D01*
X96869676Y-88879497D02*
X96964914Y-88927116D01*
X96964914Y-88927116D02*
X97155390Y-88974735D01*
X97155390Y-88974735D02*
X97298247Y-88974735D01*
X97298247Y-88974735D02*
X97488723Y-88927116D01*
X97488723Y-88927116D02*
X97583961Y-88879497D01*
X97583961Y-88879497D02*
X97679200Y-88784259D01*
X97679200Y-88784259D02*
X97726819Y-88641402D01*
X97726819Y-88641402D02*
X97726819Y-88403307D01*
X96726819Y-89879497D02*
X96726819Y-89403307D01*
X96726819Y-89403307D02*
X97203009Y-89355688D01*
X97203009Y-89355688D02*
X97155390Y-89403307D01*
X97155390Y-89403307D02*
X97107771Y-89498545D01*
X97107771Y-89498545D02*
X97107771Y-89736640D01*
X97107771Y-89736640D02*
X97155390Y-89831878D01*
X97155390Y-89831878D02*
X97203009Y-89879497D01*
X97203009Y-89879497D02*
X97298247Y-89927116D01*
X97298247Y-89927116D02*
X97536342Y-89927116D01*
X97536342Y-89927116D02*
X97631580Y-89879497D01*
X97631580Y-89879497D02*
X97679200Y-89831878D01*
X97679200Y-89831878D02*
X97726819Y-89736640D01*
X97726819Y-89736640D02*
X97726819Y-89498545D01*
X97726819Y-89498545D02*
X97679200Y-89403307D01*
X97679200Y-89403307D02*
X97631580Y-89355688D01*
X82329580Y-86949044D02*
X82377200Y-86901425D01*
X82377200Y-86901425D02*
X82424819Y-86758568D01*
X82424819Y-86758568D02*
X82424819Y-86663330D01*
X82424819Y-86663330D02*
X82377200Y-86520473D01*
X82377200Y-86520473D02*
X82281961Y-86425235D01*
X82281961Y-86425235D02*
X82186723Y-86377616D01*
X82186723Y-86377616D02*
X81996247Y-86329997D01*
X81996247Y-86329997D02*
X81853390Y-86329997D01*
X81853390Y-86329997D02*
X81662914Y-86377616D01*
X81662914Y-86377616D02*
X81567676Y-86425235D01*
X81567676Y-86425235D02*
X81472438Y-86520473D01*
X81472438Y-86520473D02*
X81424819Y-86663330D01*
X81424819Y-86663330D02*
X81424819Y-86758568D01*
X81424819Y-86758568D02*
X81472438Y-86901425D01*
X81472438Y-86901425D02*
X81520057Y-86949044D01*
X82424819Y-87901425D02*
X82424819Y-87329997D01*
X82424819Y-87615711D02*
X81424819Y-87615711D01*
X81424819Y-87615711D02*
X81567676Y-87520473D01*
X81567676Y-87520473D02*
X81662914Y-87425235D01*
X81662914Y-87425235D02*
X81710533Y-87329997D01*
X81758152Y-88758568D02*
X82424819Y-88758568D01*
X81377200Y-88520473D02*
X82091485Y-88282378D01*
X82091485Y-88282378D02*
X82091485Y-88901425D01*
X133637580Y-45192544D02*
X133685200Y-45144925D01*
X133685200Y-45144925D02*
X133732819Y-45002068D01*
X133732819Y-45002068D02*
X133732819Y-44906830D01*
X133732819Y-44906830D02*
X133685200Y-44763973D01*
X133685200Y-44763973D02*
X133589961Y-44668735D01*
X133589961Y-44668735D02*
X133494723Y-44621116D01*
X133494723Y-44621116D02*
X133304247Y-44573497D01*
X133304247Y-44573497D02*
X133161390Y-44573497D01*
X133161390Y-44573497D02*
X132970914Y-44621116D01*
X132970914Y-44621116D02*
X132875676Y-44668735D01*
X132875676Y-44668735D02*
X132780438Y-44763973D01*
X132780438Y-44763973D02*
X132732819Y-44906830D01*
X132732819Y-44906830D02*
X132732819Y-45002068D01*
X132732819Y-45002068D02*
X132780438Y-45144925D01*
X132780438Y-45144925D02*
X132828057Y-45192544D01*
X132828057Y-45573497D02*
X132780438Y-45621116D01*
X132780438Y-45621116D02*
X132732819Y-45716354D01*
X132732819Y-45716354D02*
X132732819Y-45954449D01*
X132732819Y-45954449D02*
X132780438Y-46049687D01*
X132780438Y-46049687D02*
X132828057Y-46097306D01*
X132828057Y-46097306D02*
X132923295Y-46144925D01*
X132923295Y-46144925D02*
X133018533Y-46144925D01*
X133018533Y-46144925D02*
X133161390Y-46097306D01*
X133161390Y-46097306D02*
X133732819Y-45525878D01*
X133732819Y-45525878D02*
X133732819Y-46144925D01*
X132732819Y-47049687D02*
X132732819Y-46573497D01*
X132732819Y-46573497D02*
X133209009Y-46525878D01*
X133209009Y-46525878D02*
X133161390Y-46573497D01*
X133161390Y-46573497D02*
X133113771Y-46668735D01*
X133113771Y-46668735D02*
X133113771Y-46906830D01*
X133113771Y-46906830D02*
X133161390Y-47002068D01*
X133161390Y-47002068D02*
X133209009Y-47049687D01*
X133209009Y-47049687D02*
X133304247Y-47097306D01*
X133304247Y-47097306D02*
X133542342Y-47097306D01*
X133542342Y-47097306D02*
X133637580Y-47049687D01*
X133637580Y-47049687D02*
X133685200Y-47002068D01*
X133685200Y-47002068D02*
X133732819Y-46906830D01*
X133732819Y-46906830D02*
X133732819Y-46668735D01*
X133732819Y-46668735D02*
X133685200Y-46573497D01*
X133685200Y-46573497D02*
X133637580Y-46525878D01*
X97726819Y-69353307D02*
X96726819Y-69353307D01*
X96726819Y-69353307D02*
X96726819Y-69591402D01*
X96726819Y-69591402D02*
X96774438Y-69734259D01*
X96774438Y-69734259D02*
X96869676Y-69829497D01*
X96869676Y-69829497D02*
X96964914Y-69877116D01*
X96964914Y-69877116D02*
X97155390Y-69924735D01*
X97155390Y-69924735D02*
X97298247Y-69924735D01*
X97298247Y-69924735D02*
X97488723Y-69877116D01*
X97488723Y-69877116D02*
X97583961Y-69829497D01*
X97583961Y-69829497D02*
X97679200Y-69734259D01*
X97679200Y-69734259D02*
X97726819Y-69591402D01*
X97726819Y-69591402D02*
X97726819Y-69353307D01*
X97726819Y-70877116D02*
X97726819Y-70305688D01*
X97726819Y-70591402D02*
X96726819Y-70591402D01*
X96726819Y-70591402D02*
X96869676Y-70496164D01*
X96869676Y-70496164D02*
X96964914Y-70400926D01*
X96964914Y-70400926D02*
X97012533Y-70305688D01*
X139479580Y-68375235D02*
X139527200Y-68327616D01*
X139527200Y-68327616D02*
X139574819Y-68184759D01*
X139574819Y-68184759D02*
X139574819Y-68089521D01*
X139574819Y-68089521D02*
X139527200Y-67946664D01*
X139527200Y-67946664D02*
X139431961Y-67851426D01*
X139431961Y-67851426D02*
X139336723Y-67803807D01*
X139336723Y-67803807D02*
X139146247Y-67756188D01*
X139146247Y-67756188D02*
X139003390Y-67756188D01*
X139003390Y-67756188D02*
X138812914Y-67803807D01*
X138812914Y-67803807D02*
X138717676Y-67851426D01*
X138717676Y-67851426D02*
X138622438Y-67946664D01*
X138622438Y-67946664D02*
X138574819Y-68089521D01*
X138574819Y-68089521D02*
X138574819Y-68184759D01*
X138574819Y-68184759D02*
X138622438Y-68327616D01*
X138622438Y-68327616D02*
X138670057Y-68375235D01*
X138574819Y-68708569D02*
X138574819Y-69375235D01*
X138574819Y-69375235D02*
X139574819Y-68946664D01*
X135826819Y-69353307D02*
X134826819Y-69353307D01*
X134826819Y-69353307D02*
X134826819Y-69591402D01*
X134826819Y-69591402D02*
X134874438Y-69734259D01*
X134874438Y-69734259D02*
X134969676Y-69829497D01*
X134969676Y-69829497D02*
X135064914Y-69877116D01*
X135064914Y-69877116D02*
X135255390Y-69924735D01*
X135255390Y-69924735D02*
X135398247Y-69924735D01*
X135398247Y-69924735D02*
X135588723Y-69877116D01*
X135588723Y-69877116D02*
X135683961Y-69829497D01*
X135683961Y-69829497D02*
X135779200Y-69734259D01*
X135779200Y-69734259D02*
X135826819Y-69591402D01*
X135826819Y-69591402D02*
X135826819Y-69353307D01*
X134826819Y-70258069D02*
X134826819Y-70877116D01*
X134826819Y-70877116D02*
X135207771Y-70543783D01*
X135207771Y-70543783D02*
X135207771Y-70686640D01*
X135207771Y-70686640D02*
X135255390Y-70781878D01*
X135255390Y-70781878D02*
X135303009Y-70829497D01*
X135303009Y-70829497D02*
X135398247Y-70877116D01*
X135398247Y-70877116D02*
X135636342Y-70877116D01*
X135636342Y-70877116D02*
X135731580Y-70829497D01*
X135731580Y-70829497D02*
X135779200Y-70781878D01*
X135779200Y-70781878D02*
X135826819Y-70686640D01*
X135826819Y-70686640D02*
X135826819Y-70400926D01*
X135826819Y-70400926D02*
X135779200Y-70305688D01*
X135779200Y-70305688D02*
X135731580Y-70258069D01*
X132014666Y-51624221D02*
X132347999Y-51148030D01*
X132586094Y-51624221D02*
X132586094Y-50624221D01*
X132586094Y-50624221D02*
X132205142Y-50624221D01*
X132205142Y-50624221D02*
X132109904Y-50671840D01*
X132109904Y-50671840D02*
X132062285Y-50719459D01*
X132062285Y-50719459D02*
X132014666Y-50814697D01*
X132014666Y-50814697D02*
X132014666Y-50957554D01*
X132014666Y-50957554D02*
X132062285Y-51052792D01*
X132062285Y-51052792D02*
X132109904Y-51100411D01*
X132109904Y-51100411D02*
X132205142Y-51148030D01*
X132205142Y-51148030D02*
X132586094Y-51148030D01*
X131681332Y-50624221D02*
X131062285Y-50624221D01*
X131062285Y-50624221D02*
X131395618Y-51005173D01*
X131395618Y-51005173D02*
X131252761Y-51005173D01*
X131252761Y-51005173D02*
X131157523Y-51052792D01*
X131157523Y-51052792D02*
X131109904Y-51100411D01*
X131109904Y-51100411D02*
X131062285Y-51195649D01*
X131062285Y-51195649D02*
X131062285Y-51433744D01*
X131062285Y-51433744D02*
X131109904Y-51528982D01*
X131109904Y-51528982D02*
X131157523Y-51576602D01*
X131157523Y-51576602D02*
X131252761Y-51624221D01*
X131252761Y-51624221D02*
X131538475Y-51624221D01*
X131538475Y-51624221D02*
X131633713Y-51576602D01*
X131633713Y-51576602D02*
X131681332Y-51528982D01*
X72866819Y-48462735D02*
X72390628Y-48129402D01*
X72866819Y-47891307D02*
X71866819Y-47891307D01*
X71866819Y-47891307D02*
X71866819Y-48272259D01*
X71866819Y-48272259D02*
X71914438Y-48367497D01*
X71914438Y-48367497D02*
X71962057Y-48415116D01*
X71962057Y-48415116D02*
X72057295Y-48462735D01*
X72057295Y-48462735D02*
X72200152Y-48462735D01*
X72200152Y-48462735D02*
X72295390Y-48415116D01*
X72295390Y-48415116D02*
X72343009Y-48367497D01*
X72343009Y-48367497D02*
X72390628Y-48272259D01*
X72390628Y-48272259D02*
X72390628Y-47891307D01*
X71866819Y-49367497D02*
X71866819Y-48891307D01*
X71866819Y-48891307D02*
X72343009Y-48843688D01*
X72343009Y-48843688D02*
X72295390Y-48891307D01*
X72295390Y-48891307D02*
X72247771Y-48986545D01*
X72247771Y-48986545D02*
X72247771Y-49224640D01*
X72247771Y-49224640D02*
X72295390Y-49319878D01*
X72295390Y-49319878D02*
X72343009Y-49367497D01*
X72343009Y-49367497D02*
X72438247Y-49415116D01*
X72438247Y-49415116D02*
X72676342Y-49415116D01*
X72676342Y-49415116D02*
X72771580Y-49367497D01*
X72771580Y-49367497D02*
X72819200Y-49319878D01*
X72819200Y-49319878D02*
X72866819Y-49224640D01*
X72866819Y-49224640D02*
X72866819Y-48986545D01*
X72866819Y-48986545D02*
X72819200Y-48891307D01*
X72819200Y-48891307D02*
X72771580Y-48843688D01*
X101379580Y-125049044D02*
X101427200Y-125001425D01*
X101427200Y-125001425D02*
X101474819Y-124858568D01*
X101474819Y-124858568D02*
X101474819Y-124763330D01*
X101474819Y-124763330D02*
X101427200Y-124620473D01*
X101427200Y-124620473D02*
X101331961Y-124525235D01*
X101331961Y-124525235D02*
X101236723Y-124477616D01*
X101236723Y-124477616D02*
X101046247Y-124429997D01*
X101046247Y-124429997D02*
X100903390Y-124429997D01*
X100903390Y-124429997D02*
X100712914Y-124477616D01*
X100712914Y-124477616D02*
X100617676Y-124525235D01*
X100617676Y-124525235D02*
X100522438Y-124620473D01*
X100522438Y-124620473D02*
X100474819Y-124763330D01*
X100474819Y-124763330D02*
X100474819Y-124858568D01*
X100474819Y-124858568D02*
X100522438Y-125001425D01*
X100522438Y-125001425D02*
X100570057Y-125049044D01*
X101474819Y-126001425D02*
X101474819Y-125429997D01*
X101474819Y-125715711D02*
X100474819Y-125715711D01*
X100474819Y-125715711D02*
X100617676Y-125620473D01*
X100617676Y-125620473D02*
X100712914Y-125525235D01*
X100712914Y-125525235D02*
X100760533Y-125429997D01*
X100903390Y-126572854D02*
X100855771Y-126477616D01*
X100855771Y-126477616D02*
X100808152Y-126429997D01*
X100808152Y-126429997D02*
X100712914Y-126382378D01*
X100712914Y-126382378D02*
X100665295Y-126382378D01*
X100665295Y-126382378D02*
X100570057Y-126429997D01*
X100570057Y-126429997D02*
X100522438Y-126477616D01*
X100522438Y-126477616D02*
X100474819Y-126572854D01*
X100474819Y-126572854D02*
X100474819Y-126763330D01*
X100474819Y-126763330D02*
X100522438Y-126858568D01*
X100522438Y-126858568D02*
X100570057Y-126906187D01*
X100570057Y-126906187D02*
X100665295Y-126953806D01*
X100665295Y-126953806D02*
X100712914Y-126953806D01*
X100712914Y-126953806D02*
X100808152Y-126906187D01*
X100808152Y-126906187D02*
X100855771Y-126858568D01*
X100855771Y-126858568D02*
X100903390Y-126763330D01*
X100903390Y-126763330D02*
X100903390Y-126572854D01*
X100903390Y-126572854D02*
X100951009Y-126477616D01*
X100951009Y-126477616D02*
X100998628Y-126429997D01*
X100998628Y-126429997D02*
X101093866Y-126382378D01*
X101093866Y-126382378D02*
X101284342Y-126382378D01*
X101284342Y-126382378D02*
X101379580Y-126429997D01*
X101379580Y-126429997D02*
X101427200Y-126477616D01*
X101427200Y-126477616D02*
X101474819Y-126572854D01*
X101474819Y-126572854D02*
X101474819Y-126763330D01*
X101474819Y-126763330D02*
X101427200Y-126858568D01*
X101427200Y-126858568D02*
X101379580Y-126906187D01*
X101379580Y-126906187D02*
X101284342Y-126953806D01*
X101284342Y-126953806D02*
X101093866Y-126953806D01*
X101093866Y-126953806D02*
X100998628Y-126906187D01*
X100998628Y-126906187D02*
X100951009Y-126858568D01*
X100951009Y-126858568D02*
X100903390Y-126763330D01*
X97187904Y-62486021D02*
X97187904Y-63295544D01*
X97187904Y-63295544D02*
X97140285Y-63390782D01*
X97140285Y-63390782D02*
X97092666Y-63438402D01*
X97092666Y-63438402D02*
X96997428Y-63486021D01*
X96997428Y-63486021D02*
X96806952Y-63486021D01*
X96806952Y-63486021D02*
X96711714Y-63438402D01*
X96711714Y-63438402D02*
X96664095Y-63390782D01*
X96664095Y-63390782D02*
X96616476Y-63295544D01*
X96616476Y-63295544D02*
X96616476Y-62486021D01*
X96235523Y-62486021D02*
X95616476Y-62486021D01*
X95616476Y-62486021D02*
X95949809Y-62866973D01*
X95949809Y-62866973D02*
X95806952Y-62866973D01*
X95806952Y-62866973D02*
X95711714Y-62914592D01*
X95711714Y-62914592D02*
X95664095Y-62962211D01*
X95664095Y-62962211D02*
X95616476Y-63057449D01*
X95616476Y-63057449D02*
X95616476Y-63295544D01*
X95616476Y-63295544D02*
X95664095Y-63390782D01*
X95664095Y-63390782D02*
X95711714Y-63438402D01*
X95711714Y-63438402D02*
X95806952Y-63486021D01*
X95806952Y-63486021D02*
X96092666Y-63486021D01*
X96092666Y-63486021D02*
X96187904Y-63438402D01*
X96187904Y-63438402D02*
X96235523Y-63390782D01*
X135826819Y-106977116D02*
X134826819Y-106977116D01*
X134826819Y-106977116D02*
X134826819Y-107215211D01*
X134826819Y-107215211D02*
X134874438Y-107358068D01*
X134874438Y-107358068D02*
X134969676Y-107453306D01*
X134969676Y-107453306D02*
X135064914Y-107500925D01*
X135064914Y-107500925D02*
X135255390Y-107548544D01*
X135255390Y-107548544D02*
X135398247Y-107548544D01*
X135398247Y-107548544D02*
X135588723Y-107500925D01*
X135588723Y-107500925D02*
X135683961Y-107453306D01*
X135683961Y-107453306D02*
X135779200Y-107358068D01*
X135779200Y-107358068D02*
X135826819Y-107215211D01*
X135826819Y-107215211D02*
X135826819Y-106977116D01*
X135826819Y-108500925D02*
X135826819Y-107929497D01*
X135826819Y-108215211D02*
X134826819Y-108215211D01*
X134826819Y-108215211D02*
X134969676Y-108119973D01*
X134969676Y-108119973D02*
X135064914Y-108024735D01*
X135064914Y-108024735D02*
X135112533Y-107929497D01*
X135826819Y-109453306D02*
X135826819Y-108881878D01*
X135826819Y-109167592D02*
X134826819Y-109167592D01*
X134826819Y-109167592D02*
X134969676Y-109072354D01*
X134969676Y-109072354D02*
X135064914Y-108977116D01*
X135064914Y-108977116D02*
X135112533Y-108881878D01*
X154876819Y-126027116D02*
X153876819Y-126027116D01*
X153876819Y-126027116D02*
X153876819Y-126265211D01*
X153876819Y-126265211D02*
X153924438Y-126408068D01*
X153924438Y-126408068D02*
X154019676Y-126503306D01*
X154019676Y-126503306D02*
X154114914Y-126550925D01*
X154114914Y-126550925D02*
X154305390Y-126598544D01*
X154305390Y-126598544D02*
X154448247Y-126598544D01*
X154448247Y-126598544D02*
X154638723Y-126550925D01*
X154638723Y-126550925D02*
X154733961Y-126503306D01*
X154733961Y-126503306D02*
X154829200Y-126408068D01*
X154829200Y-126408068D02*
X154876819Y-126265211D01*
X154876819Y-126265211D02*
X154876819Y-126027116D01*
X154876819Y-127550925D02*
X154876819Y-126979497D01*
X154876819Y-127265211D02*
X153876819Y-127265211D01*
X153876819Y-127265211D02*
X154019676Y-127169973D01*
X154019676Y-127169973D02*
X154114914Y-127074735D01*
X154114914Y-127074735D02*
X154162533Y-126979497D01*
X153876819Y-128408068D02*
X153876819Y-128217592D01*
X153876819Y-128217592D02*
X153924438Y-128122354D01*
X153924438Y-128122354D02*
X153972057Y-128074735D01*
X153972057Y-128074735D02*
X154114914Y-127979497D01*
X154114914Y-127979497D02*
X154305390Y-127931878D01*
X154305390Y-127931878D02*
X154686342Y-127931878D01*
X154686342Y-127931878D02*
X154781580Y-127979497D01*
X154781580Y-127979497D02*
X154829200Y-128027116D01*
X154829200Y-128027116D02*
X154876819Y-128122354D01*
X154876819Y-128122354D02*
X154876819Y-128312830D01*
X154876819Y-128312830D02*
X154829200Y-128408068D01*
X154829200Y-128408068D02*
X154781580Y-128455687D01*
X154781580Y-128455687D02*
X154686342Y-128503306D01*
X154686342Y-128503306D02*
X154448247Y-128503306D01*
X154448247Y-128503306D02*
X154353009Y-128455687D01*
X154353009Y-128455687D02*
X154305390Y-128408068D01*
X154305390Y-128408068D02*
X154257771Y-128312830D01*
X154257771Y-128312830D02*
X154257771Y-128122354D01*
X154257771Y-128122354D02*
X154305390Y-128027116D01*
X154305390Y-128027116D02*
X154353009Y-127979497D01*
X154353009Y-127979497D02*
X154448247Y-127931878D01*
X139479580Y-105999044D02*
X139527200Y-105951425D01*
X139527200Y-105951425D02*
X139574819Y-105808568D01*
X139574819Y-105808568D02*
X139574819Y-105713330D01*
X139574819Y-105713330D02*
X139527200Y-105570473D01*
X139527200Y-105570473D02*
X139431961Y-105475235D01*
X139431961Y-105475235D02*
X139336723Y-105427616D01*
X139336723Y-105427616D02*
X139146247Y-105379997D01*
X139146247Y-105379997D02*
X139003390Y-105379997D01*
X139003390Y-105379997D02*
X138812914Y-105427616D01*
X138812914Y-105427616D02*
X138717676Y-105475235D01*
X138717676Y-105475235D02*
X138622438Y-105570473D01*
X138622438Y-105570473D02*
X138574819Y-105713330D01*
X138574819Y-105713330D02*
X138574819Y-105808568D01*
X138574819Y-105808568D02*
X138622438Y-105951425D01*
X138622438Y-105951425D02*
X138670057Y-105999044D01*
X139574819Y-106951425D02*
X139574819Y-106379997D01*
X139574819Y-106665711D02*
X138574819Y-106665711D01*
X138574819Y-106665711D02*
X138717676Y-106570473D01*
X138717676Y-106570473D02*
X138812914Y-106475235D01*
X138812914Y-106475235D02*
X138860533Y-106379997D01*
X138574819Y-107570473D02*
X138574819Y-107665711D01*
X138574819Y-107665711D02*
X138622438Y-107760949D01*
X138622438Y-107760949D02*
X138670057Y-107808568D01*
X138670057Y-107808568D02*
X138765295Y-107856187D01*
X138765295Y-107856187D02*
X138955771Y-107903806D01*
X138955771Y-107903806D02*
X139193866Y-107903806D01*
X139193866Y-107903806D02*
X139384342Y-107856187D01*
X139384342Y-107856187D02*
X139479580Y-107808568D01*
X139479580Y-107808568D02*
X139527200Y-107760949D01*
X139527200Y-107760949D02*
X139574819Y-107665711D01*
X139574819Y-107665711D02*
X139574819Y-107570473D01*
X139574819Y-107570473D02*
X139527200Y-107475235D01*
X139527200Y-107475235D02*
X139479580Y-107427616D01*
X139479580Y-107427616D02*
X139384342Y-107379997D01*
X139384342Y-107379997D02*
X139193866Y-107332378D01*
X139193866Y-107332378D02*
X138955771Y-107332378D01*
X138955771Y-107332378D02*
X138765295Y-107379997D01*
X138765295Y-107379997D02*
X138670057Y-107427616D01*
X138670057Y-107427616D02*
X138622438Y-107475235D01*
X138622438Y-107475235D02*
X138574819Y-107570473D01*
X101379580Y-68375235D02*
X101427200Y-68327616D01*
X101427200Y-68327616D02*
X101474819Y-68184759D01*
X101474819Y-68184759D02*
X101474819Y-68089521D01*
X101474819Y-68089521D02*
X101427200Y-67946664D01*
X101427200Y-67946664D02*
X101331961Y-67851426D01*
X101331961Y-67851426D02*
X101236723Y-67803807D01*
X101236723Y-67803807D02*
X101046247Y-67756188D01*
X101046247Y-67756188D02*
X100903390Y-67756188D01*
X100903390Y-67756188D02*
X100712914Y-67803807D01*
X100712914Y-67803807D02*
X100617676Y-67851426D01*
X100617676Y-67851426D02*
X100522438Y-67946664D01*
X100522438Y-67946664D02*
X100474819Y-68089521D01*
X100474819Y-68089521D02*
X100474819Y-68184759D01*
X100474819Y-68184759D02*
X100522438Y-68327616D01*
X100522438Y-68327616D02*
X100570057Y-68375235D01*
X100474819Y-69279997D02*
X100474819Y-68803807D01*
X100474819Y-68803807D02*
X100951009Y-68756188D01*
X100951009Y-68756188D02*
X100903390Y-68803807D01*
X100903390Y-68803807D02*
X100855771Y-68899045D01*
X100855771Y-68899045D02*
X100855771Y-69137140D01*
X100855771Y-69137140D02*
X100903390Y-69232378D01*
X100903390Y-69232378D02*
X100951009Y-69279997D01*
X100951009Y-69279997D02*
X101046247Y-69327616D01*
X101046247Y-69327616D02*
X101284342Y-69327616D01*
X101284342Y-69327616D02*
X101379580Y-69279997D01*
X101379580Y-69279997D02*
X101427200Y-69232378D01*
X101427200Y-69232378D02*
X101474819Y-69137140D01*
X101474819Y-69137140D02*
X101474819Y-68899045D01*
X101474819Y-68899045D02*
X101427200Y-68803807D01*
X101427200Y-68803807D02*
X101379580Y-68756188D01*
X106498704Y-44883821D02*
X106498704Y-45693344D01*
X106498704Y-45693344D02*
X106451085Y-45788582D01*
X106451085Y-45788582D02*
X106403466Y-45836202D01*
X106403466Y-45836202D02*
X106308228Y-45883821D01*
X106308228Y-45883821D02*
X106117752Y-45883821D01*
X106117752Y-45883821D02*
X106022514Y-45836202D01*
X106022514Y-45836202D02*
X105974895Y-45788582D01*
X105974895Y-45788582D02*
X105927276Y-45693344D01*
X105927276Y-45693344D02*
X105927276Y-44883821D01*
X104927276Y-45883821D02*
X105498704Y-45883821D01*
X105212990Y-45883821D02*
X105212990Y-44883821D01*
X105212990Y-44883821D02*
X105308228Y-45026678D01*
X105308228Y-45026678D02*
X105403466Y-45121916D01*
X105403466Y-45121916D02*
X105498704Y-45169535D01*
X75819580Y-39826735D02*
X75867200Y-39779116D01*
X75867200Y-39779116D02*
X75914819Y-39636259D01*
X75914819Y-39636259D02*
X75914819Y-39541021D01*
X75914819Y-39541021D02*
X75867200Y-39398164D01*
X75867200Y-39398164D02*
X75771961Y-39302926D01*
X75771961Y-39302926D02*
X75676723Y-39255307D01*
X75676723Y-39255307D02*
X75486247Y-39207688D01*
X75486247Y-39207688D02*
X75343390Y-39207688D01*
X75343390Y-39207688D02*
X75152914Y-39255307D01*
X75152914Y-39255307D02*
X75057676Y-39302926D01*
X75057676Y-39302926D02*
X74962438Y-39398164D01*
X74962438Y-39398164D02*
X74914819Y-39541021D01*
X74914819Y-39541021D02*
X74914819Y-39636259D01*
X74914819Y-39636259D02*
X74962438Y-39779116D01*
X74962438Y-39779116D02*
X75010057Y-39826735D01*
X75248152Y-40683878D02*
X75914819Y-40683878D01*
X74867200Y-40445783D02*
X75581485Y-40207688D01*
X75581485Y-40207688D02*
X75581485Y-40826735D01*
X97726819Y-126027116D02*
X96726819Y-126027116D01*
X96726819Y-126027116D02*
X96726819Y-126265211D01*
X96726819Y-126265211D02*
X96774438Y-126408068D01*
X96774438Y-126408068D02*
X96869676Y-126503306D01*
X96869676Y-126503306D02*
X96964914Y-126550925D01*
X96964914Y-126550925D02*
X97155390Y-126598544D01*
X97155390Y-126598544D02*
X97298247Y-126598544D01*
X97298247Y-126598544D02*
X97488723Y-126550925D01*
X97488723Y-126550925D02*
X97583961Y-126503306D01*
X97583961Y-126503306D02*
X97679200Y-126408068D01*
X97679200Y-126408068D02*
X97726819Y-126265211D01*
X97726819Y-126265211D02*
X97726819Y-126027116D01*
X97726819Y-127550925D02*
X97726819Y-126979497D01*
X97726819Y-127265211D02*
X96726819Y-127265211D01*
X96726819Y-127265211D02*
X96869676Y-127169973D01*
X96869676Y-127169973D02*
X96964914Y-127074735D01*
X96964914Y-127074735D02*
X97012533Y-126979497D01*
X96726819Y-127884259D02*
X96726819Y-128503306D01*
X96726819Y-128503306D02*
X97107771Y-128169973D01*
X97107771Y-128169973D02*
X97107771Y-128312830D01*
X97107771Y-128312830D02*
X97155390Y-128408068D01*
X97155390Y-128408068D02*
X97203009Y-128455687D01*
X97203009Y-128455687D02*
X97298247Y-128503306D01*
X97298247Y-128503306D02*
X97536342Y-128503306D01*
X97536342Y-128503306D02*
X97631580Y-128455687D01*
X97631580Y-128455687D02*
X97679200Y-128408068D01*
X97679200Y-128408068D02*
X97726819Y-128312830D01*
X97726819Y-128312830D02*
X97726819Y-128027116D01*
X97726819Y-128027116D02*
X97679200Y-127931878D01*
X97679200Y-127931878D02*
X97631580Y-127884259D01*
X127824819Y-45195544D02*
X127348628Y-44862211D01*
X127824819Y-44624116D02*
X126824819Y-44624116D01*
X126824819Y-44624116D02*
X126824819Y-45005068D01*
X126824819Y-45005068D02*
X126872438Y-45100306D01*
X126872438Y-45100306D02*
X126920057Y-45147925D01*
X126920057Y-45147925D02*
X127015295Y-45195544D01*
X127015295Y-45195544D02*
X127158152Y-45195544D01*
X127158152Y-45195544D02*
X127253390Y-45147925D01*
X127253390Y-45147925D02*
X127301009Y-45100306D01*
X127301009Y-45100306D02*
X127348628Y-45005068D01*
X127348628Y-45005068D02*
X127348628Y-44624116D01*
X127824819Y-46147925D02*
X127824819Y-45576497D01*
X127824819Y-45862211D02*
X126824819Y-45862211D01*
X126824819Y-45862211D02*
X126967676Y-45766973D01*
X126967676Y-45766973D02*
X127062914Y-45671735D01*
X127062914Y-45671735D02*
X127110533Y-45576497D01*
X126824819Y-46766973D02*
X126824819Y-46862211D01*
X126824819Y-46862211D02*
X126872438Y-46957449D01*
X126872438Y-46957449D02*
X126920057Y-47005068D01*
X126920057Y-47005068D02*
X127015295Y-47052687D01*
X127015295Y-47052687D02*
X127205771Y-47100306D01*
X127205771Y-47100306D02*
X127443866Y-47100306D01*
X127443866Y-47100306D02*
X127634342Y-47052687D01*
X127634342Y-47052687D02*
X127729580Y-47005068D01*
X127729580Y-47005068D02*
X127777200Y-46957449D01*
X127777200Y-46957449D02*
X127824819Y-46862211D01*
X127824819Y-46862211D02*
X127824819Y-46766973D01*
X127824819Y-46766973D02*
X127777200Y-46671735D01*
X127777200Y-46671735D02*
X127729580Y-46624116D01*
X127729580Y-46624116D02*
X127634342Y-46576497D01*
X127634342Y-46576497D02*
X127443866Y-46528878D01*
X127443866Y-46528878D02*
X127205771Y-46528878D01*
X127205771Y-46528878D02*
X127015295Y-46576497D01*
X127015295Y-46576497D02*
X126920057Y-46624116D01*
X126920057Y-46624116D02*
X126872438Y-46671735D01*
X126872438Y-46671735D02*
X126824819Y-46766973D01*
X76073580Y-48462735D02*
X76121200Y-48415116D01*
X76121200Y-48415116D02*
X76168819Y-48272259D01*
X76168819Y-48272259D02*
X76168819Y-48177021D01*
X76168819Y-48177021D02*
X76121200Y-48034164D01*
X76121200Y-48034164D02*
X76025961Y-47938926D01*
X76025961Y-47938926D02*
X75930723Y-47891307D01*
X75930723Y-47891307D02*
X75740247Y-47843688D01*
X75740247Y-47843688D02*
X75597390Y-47843688D01*
X75597390Y-47843688D02*
X75406914Y-47891307D01*
X75406914Y-47891307D02*
X75311676Y-47938926D01*
X75311676Y-47938926D02*
X75216438Y-48034164D01*
X75216438Y-48034164D02*
X75168819Y-48177021D01*
X75168819Y-48177021D02*
X75168819Y-48272259D01*
X75168819Y-48272259D02*
X75216438Y-48415116D01*
X75216438Y-48415116D02*
X75264057Y-48462735D01*
X75264057Y-48843688D02*
X75216438Y-48891307D01*
X75216438Y-48891307D02*
X75168819Y-48986545D01*
X75168819Y-48986545D02*
X75168819Y-49224640D01*
X75168819Y-49224640D02*
X75216438Y-49319878D01*
X75216438Y-49319878D02*
X75264057Y-49367497D01*
X75264057Y-49367497D02*
X75359295Y-49415116D01*
X75359295Y-49415116D02*
X75454533Y-49415116D01*
X75454533Y-49415116D02*
X75597390Y-49367497D01*
X75597390Y-49367497D02*
X76168819Y-48796069D01*
X76168819Y-48796069D02*
X76168819Y-49415116D01*
X73484019Y-73813835D02*
X73007828Y-73480502D01*
X73484019Y-73242407D02*
X72484019Y-73242407D01*
X72484019Y-73242407D02*
X72484019Y-73623359D01*
X72484019Y-73623359D02*
X72531638Y-73718597D01*
X72531638Y-73718597D02*
X72579257Y-73766216D01*
X72579257Y-73766216D02*
X72674495Y-73813835D01*
X72674495Y-73813835D02*
X72817352Y-73813835D01*
X72817352Y-73813835D02*
X72912590Y-73766216D01*
X72912590Y-73766216D02*
X72960209Y-73718597D01*
X72960209Y-73718597D02*
X73007828Y-73623359D01*
X73007828Y-73623359D02*
X73007828Y-73242407D01*
X73484019Y-74766216D02*
X73484019Y-74194788D01*
X73484019Y-74480502D02*
X72484019Y-74480502D01*
X72484019Y-74480502D02*
X72626876Y-74385264D01*
X72626876Y-74385264D02*
X72722114Y-74290026D01*
X72722114Y-74290026D02*
X72769733Y-74194788D01*
X77533819Y-51072716D02*
X76533819Y-51072716D01*
X76533819Y-51072716D02*
X76533819Y-51310811D01*
X76533819Y-51310811D02*
X76581438Y-51453668D01*
X76581438Y-51453668D02*
X76676676Y-51548906D01*
X76676676Y-51548906D02*
X76771914Y-51596525D01*
X76771914Y-51596525D02*
X76962390Y-51644144D01*
X76962390Y-51644144D02*
X77105247Y-51644144D01*
X77105247Y-51644144D02*
X77295723Y-51596525D01*
X77295723Y-51596525D02*
X77390961Y-51548906D01*
X77390961Y-51548906D02*
X77486200Y-51453668D01*
X77486200Y-51453668D02*
X77533819Y-51310811D01*
X77533819Y-51310811D02*
X77533819Y-51072716D01*
X76629057Y-52025097D02*
X76581438Y-52072716D01*
X76581438Y-52072716D02*
X76533819Y-52167954D01*
X76533819Y-52167954D02*
X76533819Y-52406049D01*
X76533819Y-52406049D02*
X76581438Y-52501287D01*
X76581438Y-52501287D02*
X76629057Y-52548906D01*
X76629057Y-52548906D02*
X76724295Y-52596525D01*
X76724295Y-52596525D02*
X76819533Y-52596525D01*
X76819533Y-52596525D02*
X76962390Y-52548906D01*
X76962390Y-52548906D02*
X77533819Y-51977478D01*
X77533819Y-51977478D02*
X77533819Y-52596525D01*
X77533819Y-53548906D02*
X77533819Y-52977478D01*
X77533819Y-53263192D02*
X76533819Y-53263192D01*
X76533819Y-53263192D02*
X76676676Y-53167954D01*
X76676676Y-53167954D02*
X76771914Y-53072716D01*
X76771914Y-53072716D02*
X76819533Y-52977478D01*
X116776819Y-106977116D02*
X115776819Y-106977116D01*
X115776819Y-106977116D02*
X115776819Y-107215211D01*
X115776819Y-107215211D02*
X115824438Y-107358068D01*
X115824438Y-107358068D02*
X115919676Y-107453306D01*
X115919676Y-107453306D02*
X116014914Y-107500925D01*
X116014914Y-107500925D02*
X116205390Y-107548544D01*
X116205390Y-107548544D02*
X116348247Y-107548544D01*
X116348247Y-107548544D02*
X116538723Y-107500925D01*
X116538723Y-107500925D02*
X116633961Y-107453306D01*
X116633961Y-107453306D02*
X116729200Y-107358068D01*
X116729200Y-107358068D02*
X116776819Y-107215211D01*
X116776819Y-107215211D02*
X116776819Y-106977116D01*
X116776819Y-108500925D02*
X116776819Y-107929497D01*
X116776819Y-108215211D02*
X115776819Y-108215211D01*
X115776819Y-108215211D02*
X115919676Y-108119973D01*
X115919676Y-108119973D02*
X116014914Y-108024735D01*
X116014914Y-108024735D02*
X116062533Y-107929497D01*
X115776819Y-109119973D02*
X115776819Y-109215211D01*
X115776819Y-109215211D02*
X115824438Y-109310449D01*
X115824438Y-109310449D02*
X115872057Y-109358068D01*
X115872057Y-109358068D02*
X115967295Y-109405687D01*
X115967295Y-109405687D02*
X116157771Y-109453306D01*
X116157771Y-109453306D02*
X116395866Y-109453306D01*
X116395866Y-109453306D02*
X116586342Y-109405687D01*
X116586342Y-109405687D02*
X116681580Y-109358068D01*
X116681580Y-109358068D02*
X116729200Y-109310449D01*
X116729200Y-109310449D02*
X116776819Y-109215211D01*
X116776819Y-109215211D02*
X116776819Y-109119973D01*
X116776819Y-109119973D02*
X116729200Y-109024735D01*
X116729200Y-109024735D02*
X116681580Y-108977116D01*
X116681580Y-108977116D02*
X116586342Y-108929497D01*
X116586342Y-108929497D02*
X116395866Y-108881878D01*
X116395866Y-108881878D02*
X116157771Y-108881878D01*
X116157771Y-108881878D02*
X115967295Y-108929497D01*
X115967295Y-108929497D02*
X115872057Y-108977116D01*
X115872057Y-108977116D02*
X115824438Y-109024735D01*
X115824438Y-109024735D02*
X115776819Y-109119973D01*
X131728857Y-48830221D02*
X132062190Y-48354030D01*
X132300285Y-48830221D02*
X132300285Y-47830221D01*
X132300285Y-47830221D02*
X131919333Y-47830221D01*
X131919333Y-47830221D02*
X131824095Y-47877840D01*
X131824095Y-47877840D02*
X131776476Y-47925459D01*
X131776476Y-47925459D02*
X131728857Y-48020697D01*
X131728857Y-48020697D02*
X131728857Y-48163554D01*
X131728857Y-48163554D02*
X131776476Y-48258792D01*
X131776476Y-48258792D02*
X131824095Y-48306411D01*
X131824095Y-48306411D02*
X131919333Y-48354030D01*
X131919333Y-48354030D02*
X132300285Y-48354030D01*
X130776476Y-48830221D02*
X131347904Y-48830221D01*
X131062190Y-48830221D02*
X131062190Y-47830221D01*
X131062190Y-47830221D02*
X131157428Y-47973078D01*
X131157428Y-47973078D02*
X131252666Y-48068316D01*
X131252666Y-48068316D02*
X131347904Y-48115935D01*
X129824095Y-48830221D02*
X130395523Y-48830221D01*
X130109809Y-48830221D02*
X130109809Y-47830221D01*
X130109809Y-47830221D02*
X130205047Y-47973078D01*
X130205047Y-47973078D02*
X130300285Y-48068316D01*
X130300285Y-48068316D02*
X130395523Y-48115935D01*
X154876819Y-69353307D02*
X153876819Y-69353307D01*
X153876819Y-69353307D02*
X153876819Y-69591402D01*
X153876819Y-69591402D02*
X153924438Y-69734259D01*
X153924438Y-69734259D02*
X154019676Y-69829497D01*
X154019676Y-69829497D02*
X154114914Y-69877116D01*
X154114914Y-69877116D02*
X154305390Y-69924735D01*
X154305390Y-69924735D02*
X154448247Y-69924735D01*
X154448247Y-69924735D02*
X154638723Y-69877116D01*
X154638723Y-69877116D02*
X154733961Y-69829497D01*
X154733961Y-69829497D02*
X154829200Y-69734259D01*
X154829200Y-69734259D02*
X154876819Y-69591402D01*
X154876819Y-69591402D02*
X154876819Y-69353307D01*
X154210152Y-70781878D02*
X154876819Y-70781878D01*
X153829200Y-70543783D02*
X154543485Y-70305688D01*
X154543485Y-70305688D02*
X154543485Y-70924735D01*
X72866819Y-39826735D02*
X72390628Y-39493402D01*
X72866819Y-39255307D02*
X71866819Y-39255307D01*
X71866819Y-39255307D02*
X71866819Y-39636259D01*
X71866819Y-39636259D02*
X71914438Y-39731497D01*
X71914438Y-39731497D02*
X71962057Y-39779116D01*
X71962057Y-39779116D02*
X72057295Y-39826735D01*
X72057295Y-39826735D02*
X72200152Y-39826735D01*
X72200152Y-39826735D02*
X72295390Y-39779116D01*
X72295390Y-39779116D02*
X72343009Y-39731497D01*
X72343009Y-39731497D02*
X72390628Y-39636259D01*
X72390628Y-39636259D02*
X72390628Y-39255307D01*
X72295390Y-40398164D02*
X72247771Y-40302926D01*
X72247771Y-40302926D02*
X72200152Y-40255307D01*
X72200152Y-40255307D02*
X72104914Y-40207688D01*
X72104914Y-40207688D02*
X72057295Y-40207688D01*
X72057295Y-40207688D02*
X71962057Y-40255307D01*
X71962057Y-40255307D02*
X71914438Y-40302926D01*
X71914438Y-40302926D02*
X71866819Y-40398164D01*
X71866819Y-40398164D02*
X71866819Y-40588640D01*
X71866819Y-40588640D02*
X71914438Y-40683878D01*
X71914438Y-40683878D02*
X71962057Y-40731497D01*
X71962057Y-40731497D02*
X72057295Y-40779116D01*
X72057295Y-40779116D02*
X72104914Y-40779116D01*
X72104914Y-40779116D02*
X72200152Y-40731497D01*
X72200152Y-40731497D02*
X72247771Y-40683878D01*
X72247771Y-40683878D02*
X72295390Y-40588640D01*
X72295390Y-40588640D02*
X72295390Y-40398164D01*
X72295390Y-40398164D02*
X72343009Y-40302926D01*
X72343009Y-40302926D02*
X72390628Y-40255307D01*
X72390628Y-40255307D02*
X72485866Y-40207688D01*
X72485866Y-40207688D02*
X72676342Y-40207688D01*
X72676342Y-40207688D02*
X72771580Y-40255307D01*
X72771580Y-40255307D02*
X72819200Y-40302926D01*
X72819200Y-40302926D02*
X72866819Y-40398164D01*
X72866819Y-40398164D02*
X72866819Y-40588640D01*
X72866819Y-40588640D02*
X72819200Y-40683878D01*
X72819200Y-40683878D02*
X72771580Y-40731497D01*
X72771580Y-40731497D02*
X72676342Y-40779116D01*
X72676342Y-40779116D02*
X72485866Y-40779116D01*
X72485866Y-40779116D02*
X72390628Y-40731497D01*
X72390628Y-40731497D02*
X72343009Y-40683878D01*
X72343009Y-40683878D02*
X72295390Y-40588640D01*
X74644819Y-48462735D02*
X74168628Y-48129402D01*
X74644819Y-47891307D02*
X73644819Y-47891307D01*
X73644819Y-47891307D02*
X73644819Y-48272259D01*
X73644819Y-48272259D02*
X73692438Y-48367497D01*
X73692438Y-48367497D02*
X73740057Y-48415116D01*
X73740057Y-48415116D02*
X73835295Y-48462735D01*
X73835295Y-48462735D02*
X73978152Y-48462735D01*
X73978152Y-48462735D02*
X74073390Y-48415116D01*
X74073390Y-48415116D02*
X74121009Y-48367497D01*
X74121009Y-48367497D02*
X74168628Y-48272259D01*
X74168628Y-48272259D02*
X74168628Y-47891307D01*
X73644819Y-49319878D02*
X73644819Y-49129402D01*
X73644819Y-49129402D02*
X73692438Y-49034164D01*
X73692438Y-49034164D02*
X73740057Y-48986545D01*
X73740057Y-48986545D02*
X73882914Y-48891307D01*
X73882914Y-48891307D02*
X74073390Y-48843688D01*
X74073390Y-48843688D02*
X74454342Y-48843688D01*
X74454342Y-48843688D02*
X74549580Y-48891307D01*
X74549580Y-48891307D02*
X74597200Y-48938926D01*
X74597200Y-48938926D02*
X74644819Y-49034164D01*
X74644819Y-49034164D02*
X74644819Y-49224640D01*
X74644819Y-49224640D02*
X74597200Y-49319878D01*
X74597200Y-49319878D02*
X74549580Y-49367497D01*
X74549580Y-49367497D02*
X74454342Y-49415116D01*
X74454342Y-49415116D02*
X74216247Y-49415116D01*
X74216247Y-49415116D02*
X74121009Y-49367497D01*
X74121009Y-49367497D02*
X74073390Y-49319878D01*
X74073390Y-49319878D02*
X74025771Y-49224640D01*
X74025771Y-49224640D02*
X74025771Y-49034164D01*
X74025771Y-49034164D02*
X74073390Y-48938926D01*
X74073390Y-48938926D02*
X74121009Y-48891307D01*
X74121009Y-48891307D02*
X74216247Y-48843688D01*
X139479580Y-144099044D02*
X139527200Y-144051425D01*
X139527200Y-144051425D02*
X139574819Y-143908568D01*
X139574819Y-143908568D02*
X139574819Y-143813330D01*
X139574819Y-143813330D02*
X139527200Y-143670473D01*
X139527200Y-143670473D02*
X139431961Y-143575235D01*
X139431961Y-143575235D02*
X139336723Y-143527616D01*
X139336723Y-143527616D02*
X139146247Y-143479997D01*
X139146247Y-143479997D02*
X139003390Y-143479997D01*
X139003390Y-143479997D02*
X138812914Y-143527616D01*
X138812914Y-143527616D02*
X138717676Y-143575235D01*
X138717676Y-143575235D02*
X138622438Y-143670473D01*
X138622438Y-143670473D02*
X138574819Y-143813330D01*
X138574819Y-143813330D02*
X138574819Y-143908568D01*
X138574819Y-143908568D02*
X138622438Y-144051425D01*
X138622438Y-144051425D02*
X138670057Y-144099044D01*
X138670057Y-144479997D02*
X138622438Y-144527616D01*
X138622438Y-144527616D02*
X138574819Y-144622854D01*
X138574819Y-144622854D02*
X138574819Y-144860949D01*
X138574819Y-144860949D02*
X138622438Y-144956187D01*
X138622438Y-144956187D02*
X138670057Y-145003806D01*
X138670057Y-145003806D02*
X138765295Y-145051425D01*
X138765295Y-145051425D02*
X138860533Y-145051425D01*
X138860533Y-145051425D02*
X139003390Y-145003806D01*
X139003390Y-145003806D02*
X139574819Y-144432378D01*
X139574819Y-144432378D02*
X139574819Y-145051425D01*
X138574819Y-145384759D02*
X138574819Y-146003806D01*
X138574819Y-146003806D02*
X138955771Y-145670473D01*
X138955771Y-145670473D02*
X138955771Y-145813330D01*
X138955771Y-145813330D02*
X139003390Y-145908568D01*
X139003390Y-145908568D02*
X139051009Y-145956187D01*
X139051009Y-145956187D02*
X139146247Y-146003806D01*
X139146247Y-146003806D02*
X139384342Y-146003806D01*
X139384342Y-146003806D02*
X139479580Y-145956187D01*
X139479580Y-145956187D02*
X139527200Y-145908568D01*
X139527200Y-145908568D02*
X139574819Y-145813330D01*
X139574819Y-145813330D02*
X139574819Y-145527616D01*
X139574819Y-145527616D02*
X139527200Y-145432378D01*
X139527200Y-145432378D02*
X139479580Y-145384759D01*
X128426857Y-148398221D02*
X128760190Y-147922030D01*
X128998285Y-148398221D02*
X128998285Y-147398221D01*
X128998285Y-147398221D02*
X128617333Y-147398221D01*
X128617333Y-147398221D02*
X128522095Y-147445840D01*
X128522095Y-147445840D02*
X128474476Y-147493459D01*
X128474476Y-147493459D02*
X128426857Y-147588697D01*
X128426857Y-147588697D02*
X128426857Y-147731554D01*
X128426857Y-147731554D02*
X128474476Y-147826792D01*
X128474476Y-147826792D02*
X128522095Y-147874411D01*
X128522095Y-147874411D02*
X128617333Y-147922030D01*
X128617333Y-147922030D02*
X128998285Y-147922030D01*
X127474476Y-148398221D02*
X128045904Y-148398221D01*
X127760190Y-148398221D02*
X127760190Y-147398221D01*
X127760190Y-147398221D02*
X127855428Y-147541078D01*
X127855428Y-147541078D02*
X127950666Y-147636316D01*
X127950666Y-147636316D02*
X128045904Y-147683935D01*
X126617333Y-147398221D02*
X126807809Y-147398221D01*
X126807809Y-147398221D02*
X126903047Y-147445840D01*
X126903047Y-147445840D02*
X126950666Y-147493459D01*
X126950666Y-147493459D02*
X127045904Y-147636316D01*
X127045904Y-147636316D02*
X127093523Y-147826792D01*
X127093523Y-147826792D02*
X127093523Y-148207744D01*
X127093523Y-148207744D02*
X127045904Y-148302982D01*
X127045904Y-148302982D02*
X126998285Y-148350602D01*
X126998285Y-148350602D02*
X126903047Y-148398221D01*
X126903047Y-148398221D02*
X126712571Y-148398221D01*
X126712571Y-148398221D02*
X126617333Y-148350602D01*
X126617333Y-148350602D02*
X126569714Y-148302982D01*
X126569714Y-148302982D02*
X126522095Y-148207744D01*
X126522095Y-148207744D02*
X126522095Y-147969649D01*
X126522095Y-147969649D02*
X126569714Y-147874411D01*
X126569714Y-147874411D02*
X126617333Y-147826792D01*
X126617333Y-147826792D02*
X126712571Y-147779173D01*
X126712571Y-147779173D02*
X126903047Y-147779173D01*
X126903047Y-147779173D02*
X126998285Y-147826792D01*
X126998285Y-147826792D02*
X127045904Y-147874411D01*
X127045904Y-147874411D02*
X127093523Y-147969649D01*
X135826819Y-145077116D02*
X134826819Y-145077116D01*
X134826819Y-145077116D02*
X134826819Y-145315211D01*
X134826819Y-145315211D02*
X134874438Y-145458068D01*
X134874438Y-145458068D02*
X134969676Y-145553306D01*
X134969676Y-145553306D02*
X135064914Y-145600925D01*
X135064914Y-145600925D02*
X135255390Y-145648544D01*
X135255390Y-145648544D02*
X135398247Y-145648544D01*
X135398247Y-145648544D02*
X135588723Y-145600925D01*
X135588723Y-145600925D02*
X135683961Y-145553306D01*
X135683961Y-145553306D02*
X135779200Y-145458068D01*
X135779200Y-145458068D02*
X135826819Y-145315211D01*
X135826819Y-145315211D02*
X135826819Y-145077116D01*
X135826819Y-146600925D02*
X135826819Y-146029497D01*
X135826819Y-146315211D02*
X134826819Y-146315211D01*
X134826819Y-146315211D02*
X134969676Y-146219973D01*
X134969676Y-146219973D02*
X135064914Y-146124735D01*
X135064914Y-146124735D02*
X135112533Y-146029497D01*
X135826819Y-147077116D02*
X135826819Y-147267592D01*
X135826819Y-147267592D02*
X135779200Y-147362830D01*
X135779200Y-147362830D02*
X135731580Y-147410449D01*
X135731580Y-147410449D02*
X135588723Y-147505687D01*
X135588723Y-147505687D02*
X135398247Y-147553306D01*
X135398247Y-147553306D02*
X135017295Y-147553306D01*
X135017295Y-147553306D02*
X134922057Y-147505687D01*
X134922057Y-147505687D02*
X134874438Y-147458068D01*
X134874438Y-147458068D02*
X134826819Y-147362830D01*
X134826819Y-147362830D02*
X134826819Y-147172354D01*
X134826819Y-147172354D02*
X134874438Y-147077116D01*
X134874438Y-147077116D02*
X134922057Y-147029497D01*
X134922057Y-147029497D02*
X135017295Y-146981878D01*
X135017295Y-146981878D02*
X135255390Y-146981878D01*
X135255390Y-146981878D02*
X135350628Y-147029497D01*
X135350628Y-147029497D02*
X135398247Y-147077116D01*
X135398247Y-147077116D02*
X135445866Y-147172354D01*
X135445866Y-147172354D02*
X135445866Y-147362830D01*
X135445866Y-147362830D02*
X135398247Y-147458068D01*
X135398247Y-147458068D02*
X135350628Y-147505687D01*
X135350628Y-147505687D02*
X135255390Y-147553306D01*
X65906480Y-77514935D02*
X65954100Y-77467316D01*
X65954100Y-77467316D02*
X66001719Y-77324459D01*
X66001719Y-77324459D02*
X66001719Y-77229221D01*
X66001719Y-77229221D02*
X65954100Y-77086364D01*
X65954100Y-77086364D02*
X65858861Y-76991126D01*
X65858861Y-76991126D02*
X65763623Y-76943507D01*
X65763623Y-76943507D02*
X65573147Y-76895888D01*
X65573147Y-76895888D02*
X65430290Y-76895888D01*
X65430290Y-76895888D02*
X65239814Y-76943507D01*
X65239814Y-76943507D02*
X65144576Y-76991126D01*
X65144576Y-76991126D02*
X65049338Y-77086364D01*
X65049338Y-77086364D02*
X65001719Y-77229221D01*
X65001719Y-77229221D02*
X65001719Y-77324459D01*
X65001719Y-77324459D02*
X65049338Y-77467316D01*
X65049338Y-77467316D02*
X65096957Y-77514935D01*
X66001719Y-78467316D02*
X66001719Y-77895888D01*
X66001719Y-78181602D02*
X65001719Y-78181602D01*
X65001719Y-78181602D02*
X65144576Y-78086364D01*
X65144576Y-78086364D02*
X65239814Y-77991126D01*
X65239814Y-77991126D02*
X65287433Y-77895888D01*
X127690257Y-73112621D02*
X128023590Y-72636430D01*
X128261685Y-73112621D02*
X128261685Y-72112621D01*
X128261685Y-72112621D02*
X127880733Y-72112621D01*
X127880733Y-72112621D02*
X127785495Y-72160240D01*
X127785495Y-72160240D02*
X127737876Y-72207859D01*
X127737876Y-72207859D02*
X127690257Y-72303097D01*
X127690257Y-72303097D02*
X127690257Y-72445954D01*
X127690257Y-72445954D02*
X127737876Y-72541192D01*
X127737876Y-72541192D02*
X127785495Y-72588811D01*
X127785495Y-72588811D02*
X127880733Y-72636430D01*
X127880733Y-72636430D02*
X128261685Y-72636430D01*
X126737876Y-73112621D02*
X127309304Y-73112621D01*
X127023590Y-73112621D02*
X127023590Y-72112621D01*
X127023590Y-72112621D02*
X127118828Y-72255478D01*
X127118828Y-72255478D02*
X127214066Y-72350716D01*
X127214066Y-72350716D02*
X127309304Y-72398335D01*
X126356923Y-72207859D02*
X126309304Y-72160240D01*
X126309304Y-72160240D02*
X126214066Y-72112621D01*
X126214066Y-72112621D02*
X125975971Y-72112621D01*
X125975971Y-72112621D02*
X125880733Y-72160240D01*
X125880733Y-72160240D02*
X125833114Y-72207859D01*
X125833114Y-72207859D02*
X125785495Y-72303097D01*
X125785495Y-72303097D02*
X125785495Y-72398335D01*
X125785495Y-72398335D02*
X125833114Y-72541192D01*
X125833114Y-72541192D02*
X126404542Y-73112621D01*
X126404542Y-73112621D02*
X125785495Y-73112621D01*
X120429580Y-125049044D02*
X120477200Y-125001425D01*
X120477200Y-125001425D02*
X120524819Y-124858568D01*
X120524819Y-124858568D02*
X120524819Y-124763330D01*
X120524819Y-124763330D02*
X120477200Y-124620473D01*
X120477200Y-124620473D02*
X120381961Y-124525235D01*
X120381961Y-124525235D02*
X120286723Y-124477616D01*
X120286723Y-124477616D02*
X120096247Y-124429997D01*
X120096247Y-124429997D02*
X119953390Y-124429997D01*
X119953390Y-124429997D02*
X119762914Y-124477616D01*
X119762914Y-124477616D02*
X119667676Y-124525235D01*
X119667676Y-124525235D02*
X119572438Y-124620473D01*
X119572438Y-124620473D02*
X119524819Y-124763330D01*
X119524819Y-124763330D02*
X119524819Y-124858568D01*
X119524819Y-124858568D02*
X119572438Y-125001425D01*
X119572438Y-125001425D02*
X119620057Y-125049044D01*
X120524819Y-126001425D02*
X120524819Y-125429997D01*
X120524819Y-125715711D02*
X119524819Y-125715711D01*
X119524819Y-125715711D02*
X119667676Y-125620473D01*
X119667676Y-125620473D02*
X119762914Y-125525235D01*
X119762914Y-125525235D02*
X119810533Y-125429997D01*
X119524819Y-126334759D02*
X119524819Y-127001425D01*
X119524819Y-127001425D02*
X120524819Y-126572854D01*
X116776819Y-69353307D02*
X115776819Y-69353307D01*
X115776819Y-69353307D02*
X115776819Y-69591402D01*
X115776819Y-69591402D02*
X115824438Y-69734259D01*
X115824438Y-69734259D02*
X115919676Y-69829497D01*
X115919676Y-69829497D02*
X116014914Y-69877116D01*
X116014914Y-69877116D02*
X116205390Y-69924735D01*
X116205390Y-69924735D02*
X116348247Y-69924735D01*
X116348247Y-69924735D02*
X116538723Y-69877116D01*
X116538723Y-69877116D02*
X116633961Y-69829497D01*
X116633961Y-69829497D02*
X116729200Y-69734259D01*
X116729200Y-69734259D02*
X116776819Y-69591402D01*
X116776819Y-69591402D02*
X116776819Y-69353307D01*
X115872057Y-70305688D02*
X115824438Y-70353307D01*
X115824438Y-70353307D02*
X115776819Y-70448545D01*
X115776819Y-70448545D02*
X115776819Y-70686640D01*
X115776819Y-70686640D02*
X115824438Y-70781878D01*
X115824438Y-70781878D02*
X115872057Y-70829497D01*
X115872057Y-70829497D02*
X115967295Y-70877116D01*
X115967295Y-70877116D02*
X116062533Y-70877116D01*
X116062533Y-70877116D02*
X116205390Y-70829497D01*
X116205390Y-70829497D02*
X116776819Y-70258069D01*
X116776819Y-70258069D02*
X116776819Y-70877116D01*
X129348819Y-39572735D02*
X128872628Y-39239402D01*
X129348819Y-39001307D02*
X128348819Y-39001307D01*
X128348819Y-39001307D02*
X128348819Y-39382259D01*
X128348819Y-39382259D02*
X128396438Y-39477497D01*
X128396438Y-39477497D02*
X128444057Y-39525116D01*
X128444057Y-39525116D02*
X128539295Y-39572735D01*
X128539295Y-39572735D02*
X128682152Y-39572735D01*
X128682152Y-39572735D02*
X128777390Y-39525116D01*
X128777390Y-39525116D02*
X128825009Y-39477497D01*
X128825009Y-39477497D02*
X128872628Y-39382259D01*
X128872628Y-39382259D02*
X128872628Y-39001307D01*
X128348819Y-39906069D02*
X128348819Y-40572735D01*
X128348819Y-40572735D02*
X129348819Y-40144164D01*
D12*
%TO.C,LED14*%
X129190000Y-127237401D02*
X128290000Y-127237401D01*
X129190000Y-126337401D01*
X129190000Y-127237401D01*
G36*
X129190000Y-127237401D02*
G01*
X128290000Y-127237401D01*
X129190000Y-126337401D01*
X129190000Y-127237401D01*
G37*
%TO.C,LED9*%
X91090000Y-108187401D02*
X90190000Y-108187401D01*
X91090000Y-107287401D01*
X91090000Y-108187401D01*
G36*
X91090000Y-108187401D02*
G01*
X90190000Y-108187401D01*
X91090000Y-107287401D01*
X91090000Y-108187401D01*
G37*
%TO.C,LED20*%
X148240000Y-146287401D02*
X147340000Y-146287401D01*
X148240000Y-145387401D01*
X148240000Y-146287401D01*
G36*
X148240000Y-146287401D02*
G01*
X147340000Y-146287401D01*
X148240000Y-145387401D01*
X148240000Y-146287401D01*
G37*
%TO.C,LED3*%
X129190000Y-70087401D02*
X128290000Y-70087401D01*
X129190000Y-69187401D01*
X129190000Y-70087401D01*
G36*
X129190000Y-70087401D02*
G01*
X128290000Y-70087401D01*
X129190000Y-69187401D01*
X129190000Y-70087401D01*
G37*
%TO.C,LED6*%
X129190000Y-89137401D02*
X128290000Y-89137401D01*
X129190000Y-88237401D01*
X129190000Y-89137401D01*
G36*
X129190000Y-89137401D02*
G01*
X128290000Y-89137401D01*
X129190000Y-88237401D01*
X129190000Y-89137401D01*
G37*
%TO.C,LED11*%
X129190000Y-108187401D02*
X128290000Y-108187401D01*
X129190000Y-107287401D01*
X129190000Y-108187401D01*
G36*
X129190000Y-108187401D02*
G01*
X128290000Y-108187401D01*
X129190000Y-107287401D01*
X129190000Y-108187401D01*
G37*
%TO.C,LED5*%
X148240000Y-89137401D02*
X147340000Y-89137401D01*
X148240000Y-88237401D01*
X148240000Y-89137401D01*
G36*
X148240000Y-89137401D02*
G01*
X147340000Y-89137401D01*
X148240000Y-88237401D01*
X148240000Y-89137401D01*
G37*
%TO.C,LED17*%
X91090000Y-146287401D02*
X90190000Y-146287401D01*
X91090000Y-145387401D01*
X91090000Y-146287401D01*
G36*
X91090000Y-146287401D02*
G01*
X90190000Y-146287401D01*
X91090000Y-145387401D01*
X91090000Y-146287401D01*
G37*
%TO.C,LED16*%
X91090000Y-127237401D02*
X90190000Y-127237401D01*
X91090000Y-126337401D01*
X91090000Y-127237401D01*
G36*
X91090000Y-127237401D02*
G01*
X90190000Y-127237401D01*
X91090000Y-126337401D01*
X91090000Y-127237401D01*
G37*
%TO.C,LED13*%
X148240000Y-127237401D02*
X147340000Y-127237401D01*
X148240000Y-126337401D01*
X148240000Y-127237401D01*
G36*
X148240000Y-127237401D02*
G01*
X147340000Y-127237401D01*
X148240000Y-126337401D01*
X148240000Y-127237401D01*
G37*
%TO.C,LED1*%
X91090000Y-70087401D02*
X90190000Y-70087401D01*
X91090000Y-69187401D01*
X91090000Y-70087401D01*
G36*
X91090000Y-70087401D02*
G01*
X90190000Y-70087401D01*
X91090000Y-69187401D01*
X91090000Y-70087401D01*
G37*
%TO.C,LED2*%
X110140000Y-70087401D02*
X109240000Y-70087401D01*
X110140000Y-69187401D01*
X110140000Y-70087401D01*
G36*
X110140000Y-70087401D02*
G01*
X109240000Y-70087401D01*
X110140000Y-69187401D01*
X110140000Y-70087401D01*
G37*
%TO.C,LED4*%
X148240000Y-70087401D02*
X147340000Y-70087401D01*
X148240000Y-69187401D01*
X148240000Y-70087401D01*
G36*
X148240000Y-70087401D02*
G01*
X147340000Y-70087401D01*
X148240000Y-69187401D01*
X148240000Y-70087401D01*
G37*
%TO.C,LED10*%
X110140000Y-108187401D02*
X109240000Y-108187401D01*
X110140000Y-107287401D01*
X110140000Y-108187401D01*
G36*
X110140000Y-108187401D02*
G01*
X109240000Y-108187401D01*
X110140000Y-107287401D01*
X110140000Y-108187401D01*
G37*
%TO.C,LED21*%
X129190000Y-146287401D02*
X128290000Y-146287401D01*
X129190000Y-145387401D01*
X129190000Y-146287401D01*
G36*
X129190000Y-146287401D02*
G01*
X128290000Y-146287401D01*
X129190000Y-145387401D01*
X129190000Y-146287401D01*
G37*
%TO.C,LED8*%
X91090000Y-89137401D02*
X90190000Y-89137401D01*
X91090000Y-88237401D01*
X91090000Y-89137401D01*
G36*
X91090000Y-89137401D02*
G01*
X90190000Y-89137401D01*
X91090000Y-88237401D01*
X91090000Y-89137401D01*
G37*
%TO.C,LED18*%
X110140000Y-146287401D02*
X109240000Y-146287401D01*
X110140000Y-145387401D01*
X110140000Y-146287401D01*
G36*
X110140000Y-146287401D02*
G01*
X109240000Y-146287401D01*
X110140000Y-145387401D01*
X110140000Y-146287401D01*
G37*
%TO.C,LED7*%
X110140000Y-89137401D02*
X109240000Y-89137401D01*
X110140000Y-88237401D01*
X110140000Y-89137401D01*
G36*
X110140000Y-89137401D02*
G01*
X109240000Y-89137401D01*
X110140000Y-88237401D01*
X110140000Y-89137401D01*
G37*
%TO.C,LED12*%
X148240000Y-108187401D02*
X147340000Y-108187401D01*
X148240000Y-107287401D01*
X148240000Y-108187401D01*
G36*
X148240000Y-108187401D02*
G01*
X147340000Y-108187401D01*
X148240000Y-107287401D01*
X148240000Y-108187401D01*
G37*
%TO.C,LED15*%
X110140000Y-127237401D02*
X109240000Y-127237401D01*
X110140000Y-126337401D01*
X110140000Y-127237401D01*
G36*
X110140000Y-127237401D02*
G01*
X109240000Y-127237401D01*
X110140000Y-126337401D01*
X110140000Y-127237401D01*
G37*
D13*
%TO.C,R15*%
X124010300Y-130039026D02*
X124010300Y-129529578D01*
X125055300Y-130039026D02*
X125055300Y-129529578D01*
%TO.C,C8*%
X137180000Y-87445635D02*
X137180000Y-87738169D01*
X138200000Y-87445635D02*
X138200000Y-87738169D01*
%TO.C,D20*%
X141426000Y-146943402D02*
X141426000Y-148943402D01*
X145436000Y-146943402D02*
X141426000Y-146943402D01*
X145436000Y-148943402D02*
X141426000Y-148943402D01*
%TO.C,D15*%
X132372000Y-125591402D02*
X132372000Y-129601402D01*
X132372000Y-129601402D02*
X134372000Y-129601402D01*
X134372000Y-125591402D02*
X134372000Y-129601402D01*
%TO.C,D8*%
X151422000Y-87491402D02*
X151422000Y-91501402D01*
X151422000Y-91501402D02*
X153422000Y-91501402D01*
X153422000Y-87491402D02*
X153422000Y-91501402D01*
%TO.C,C22*%
X131338000Y-42387135D02*
X131338000Y-42679669D01*
X132358000Y-42387135D02*
X132358000Y-42679669D01*
%TO.C,C24*%
X118130000Y-144595635D02*
X118130000Y-144888169D01*
X119150000Y-144595635D02*
X119150000Y-144888169D01*
%TO.C,C13*%
X80030000Y-106495635D02*
X80030000Y-106788169D01*
X81050000Y-106495635D02*
X81050000Y-106788169D01*
%TO.C,U2*%
X67914400Y-77329602D02*
X68364400Y-77329602D01*
X67914400Y-77779602D02*
X67914400Y-77329602D01*
X67914400Y-81099602D02*
X67914400Y-81549602D01*
X67914400Y-81549602D02*
X68364400Y-81549602D01*
X71834400Y-77329602D02*
X71684400Y-77329602D01*
X72134400Y-77569602D02*
X72134400Y-77779602D01*
X72134400Y-81099602D02*
X72134400Y-81549602D01*
X72134400Y-81549602D02*
X71684400Y-81549602D01*
X72134400Y-77329602D02*
X71894400Y-76999602D01*
X72374400Y-76999602D01*
X72134400Y-77329602D01*
G36*
X72134400Y-77329602D02*
G01*
X71894400Y-76999602D01*
X72374400Y-76999602D01*
X72134400Y-77329602D01*
G37*
%TO.C,C15*%
X99080000Y-87445635D02*
X99080000Y-87738169D01*
X100100000Y-87445635D02*
X100100000Y-87738169D01*
%TO.C,D17*%
X94272000Y-144641402D02*
X94272000Y-148651402D01*
X94272000Y-148651402D02*
X96272000Y-148651402D01*
X96272000Y-144641402D02*
X96272000Y-148651402D01*
%TO.C,R17*%
X80232576Y-53694902D02*
X80742024Y-53694902D01*
X80232576Y-54739902D02*
X80742024Y-54739902D01*
%TO.C,C11*%
X118130000Y-106495635D02*
X118130000Y-106788169D01*
X119150000Y-106495635D02*
X119150000Y-106788169D01*
%TO.C,C12*%
X99080000Y-106495635D02*
X99080000Y-106788169D01*
X100100000Y-106495635D02*
X100100000Y-106788169D01*
%TO.C,C16*%
X137180000Y-125545635D02*
X137180000Y-125838169D01*
X138200000Y-125545635D02*
X138200000Y-125838169D01*
%TO.C,D14*%
X113322000Y-125591402D02*
X113322000Y-129601402D01*
X113322000Y-129601402D02*
X115322000Y-129601402D01*
X115322000Y-125591402D02*
X115322000Y-129601402D01*
%TO.C,D18*%
X113322000Y-144641402D02*
X113322000Y-148651402D01*
X113322000Y-148651402D02*
X115322000Y-148651402D01*
X115322000Y-144641402D02*
X115322000Y-148651402D01*
%TO.C,R14*%
X124289700Y-110938226D02*
X124289700Y-110428778D01*
X125334700Y-110938226D02*
X125334700Y-110428778D01*
%TO.C,D9*%
X94272000Y-106541402D02*
X94272000Y-110551402D01*
X94272000Y-110551402D02*
X96272000Y-110551402D01*
X96272000Y-106541402D02*
X96272000Y-110551402D01*
%TO.C,C6*%
X118130000Y-68395635D02*
X118130000Y-68688169D01*
X119150000Y-68395635D02*
X119150000Y-68688169D01*
%TO.C,C20*%
X80030000Y-144595635D02*
X80030000Y-144888169D01*
X81050000Y-144595635D02*
X81050000Y-144888169D01*
%TO.C,D22*%
X133134000Y-49519402D02*
X133134000Y-53529402D01*
X133134000Y-53529402D02*
X135134000Y-53529402D01*
X135134000Y-49519402D02*
X135134000Y-53529402D01*
%TO.C,R9*%
X128277500Y-42278678D02*
X128277500Y-42788126D01*
X129322500Y-42278678D02*
X129322500Y-42788126D01*
D14*
%TO.C,J1*%
X62815800Y-51191141D02*
X62815800Y-54285902D01*
X62815800Y-54285902D02*
X63777060Y-54285902D01*
X67759559Y-49078902D02*
X64120441Y-49078902D01*
X68102940Y-54285902D02*
X69064200Y-54285902D01*
X69064200Y-54285902D02*
X69064200Y-51191141D01*
D13*
%TO.C,R13*%
X124289700Y-91913626D02*
X124289700Y-91404178D01*
X125334700Y-91913626D02*
X125334700Y-91404178D01*
%TO.C,R4*%
X73413500Y-42891626D02*
X73413500Y-42382178D01*
X74458500Y-42891626D02*
X74458500Y-42382178D01*
D15*
%TO.C,G\u002A\u002A\u002A*%
G36*
X71556668Y-94237401D02*
G01*
X71223335Y-94237401D01*
X71223335Y-93930735D01*
X71556668Y-93930735D01*
X71556668Y-94237401D01*
G37*
G36*
X71556668Y-95784066D02*
G01*
X71223335Y-95784066D01*
X71223335Y-94477401D01*
X71556668Y-94477401D01*
X71556668Y-95784066D01*
G37*
G36*
X69316667Y-91557402D02*
G01*
X69716669Y-91557402D01*
X69716669Y-91884066D01*
X69316667Y-91884066D01*
X69316667Y-92864067D01*
X68976668Y-92864067D01*
X68976668Y-91884066D01*
X68436668Y-91884066D01*
X68436668Y-91557402D01*
X68976668Y-91557402D01*
X68976668Y-91137402D01*
X69316667Y-91137402D01*
X69316667Y-91557402D01*
G37*
G36*
X70230002Y-92284725D02*
G01*
X70229996Y-92354988D01*
X70229978Y-92464380D01*
X70229984Y-92561610D01*
X70230056Y-92647425D01*
X70230230Y-92722560D01*
X70230551Y-92787759D01*
X70231058Y-92843757D01*
X70231787Y-92891301D01*
X70232786Y-92931126D01*
X70234088Y-92963973D01*
X70235738Y-92990580D01*
X70237772Y-93011694D01*
X70240235Y-93028047D01*
X70243163Y-93040386D01*
X70246601Y-93049446D01*
X70250585Y-93055971D01*
X70255157Y-93060696D01*
X70260356Y-93064365D01*
X70266224Y-93067719D01*
X70272800Y-93071496D01*
X70272950Y-93071586D01*
X70278428Y-93074508D01*
X70285166Y-93076938D01*
X70294370Y-93078915D01*
X70307246Y-93080487D01*
X70325006Y-93081702D01*
X70348850Y-93082602D01*
X70379993Y-93083238D01*
X70419638Y-93083655D01*
X70468994Y-93083895D01*
X70529267Y-93084009D01*
X70601669Y-93084042D01*
X70910000Y-93084066D01*
X70910000Y-93417402D01*
X70598336Y-93417285D01*
X70560269Y-93417264D01*
X70486793Y-93417120D01*
X70424678Y-93416727D01*
X70372574Y-93415935D01*
X70329131Y-93414603D01*
X70292996Y-93412581D01*
X70262819Y-93409725D01*
X70237253Y-93405888D01*
X70214942Y-93400926D01*
X70194542Y-93394695D01*
X70174700Y-93387045D01*
X70154066Y-93377835D01*
X70131287Y-93366918D01*
X70108952Y-93355614D01*
X70077302Y-93336879D01*
X70049726Y-93315801D01*
X70020716Y-93288471D01*
X70000394Y-93266856D01*
X69966035Y-93222129D01*
X69938633Y-93172599D01*
X69915653Y-93114066D01*
X69900002Y-93067401D01*
X69898145Y-92312400D01*
X69896285Y-91557402D01*
X70230002Y-91557402D01*
X70230002Y-92284725D01*
G37*
G36*
X71343335Y-92013480D02*
G01*
X71343314Y-92099292D01*
X71343203Y-92184087D01*
X71342924Y-92257479D01*
X71342408Y-92320491D01*
X71341583Y-92374143D01*
X71340377Y-92419461D01*
X71338715Y-92457459D01*
X71336525Y-92489166D01*
X71333738Y-92515602D01*
X71330282Y-92537787D01*
X71326079Y-92556744D01*
X71321063Y-92573496D01*
X71315159Y-92589063D01*
X71308292Y-92604468D01*
X71300396Y-92620734D01*
X71276972Y-92662107D01*
X71232017Y-92720043D01*
X71177648Y-92768976D01*
X71114507Y-92808456D01*
X71043230Y-92838030D01*
X70964462Y-92857245D01*
X70956224Y-92858055D01*
X70934435Y-92859132D01*
X70901927Y-92860146D01*
X70860218Y-92861070D01*
X70810820Y-92861871D01*
X70755254Y-92862525D01*
X70695032Y-92863005D01*
X70631669Y-92863284D01*
X70330001Y-92864067D01*
X70330001Y-92531238D01*
X70639520Y-92529318D01*
X70674533Y-92529099D01*
X70741088Y-92528646D01*
X70796066Y-92528172D01*
X70840664Y-92527623D01*
X70876085Y-92526939D01*
X70903529Y-92526066D01*
X70924193Y-92524944D01*
X70939280Y-92523516D01*
X70949990Y-92521725D01*
X70957523Y-92519511D01*
X70963076Y-92516820D01*
X70967855Y-92513592D01*
X70969697Y-92512248D01*
X70977503Y-92506590D01*
X70984229Y-92501094D01*
X70989956Y-92494794D01*
X70994768Y-92486727D01*
X70998740Y-92475930D01*
X71001956Y-92461440D01*
X71004494Y-92442291D01*
X71006432Y-92417517D01*
X71007854Y-92386161D01*
X71008838Y-92347254D01*
X71009465Y-92299833D01*
X71009813Y-92242935D01*
X71009963Y-92175594D01*
X71009996Y-92096850D01*
X71009990Y-92005734D01*
X71010002Y-91557402D01*
X71343335Y-91557402D01*
X71343335Y-92013480D01*
G37*
G36*
X65668526Y-95137899D02*
G01*
X65662373Y-95201871D01*
X65647448Y-95262357D01*
X65622899Y-95323830D01*
X65591504Y-95380455D01*
X65543744Y-95442681D01*
X65486624Y-95496948D01*
X65421569Y-95542134D01*
X65349998Y-95577105D01*
X65273336Y-95600739D01*
X65266301Y-95602143D01*
X65237729Y-95606076D01*
X65203655Y-95608926D01*
X65170001Y-95610156D01*
X65146325Y-95609784D01*
X65066831Y-95600268D01*
X64991039Y-95578593D01*
X64920164Y-95545536D01*
X64855403Y-95501865D01*
X64797971Y-95448357D01*
X64749071Y-95385789D01*
X64709909Y-95314932D01*
X64700015Y-95291604D01*
X64676855Y-95216292D01*
X64666088Y-95140629D01*
X64666298Y-95124885D01*
X64938944Y-95124885D01*
X64949555Y-95177439D01*
X64950068Y-95179113D01*
X64958981Y-95204871D01*
X64969211Y-95224998D01*
X64983710Y-95244243D01*
X65005427Y-95267361D01*
X65033345Y-95293305D01*
X65058572Y-95310978D01*
X65085251Y-95323254D01*
X65109602Y-95330286D01*
X65154353Y-95336376D01*
X65200088Y-95335656D01*
X65240693Y-95327946D01*
X65257595Y-95321667D01*
X65299658Y-95297445D01*
X65337125Y-95264007D01*
X65367086Y-95224281D01*
X65386634Y-95181189D01*
X65393405Y-95151423D01*
X65396084Y-95101203D01*
X65389214Y-95051124D01*
X65373413Y-95004768D01*
X65349308Y-94965720D01*
X65345741Y-94961472D01*
X65306594Y-94925058D01*
X65262317Y-94899453D01*
X65214749Y-94884456D01*
X65165732Y-94879878D01*
X65117111Y-94885524D01*
X65070725Y-94901199D01*
X65028416Y-94926708D01*
X64992026Y-94961856D01*
X64963397Y-95006451D01*
X64954787Y-95025624D01*
X64940612Y-95075199D01*
X64938944Y-95124885D01*
X64666298Y-95124885D01*
X64667087Y-95065728D01*
X64679231Y-94992711D01*
X64701896Y-94922694D01*
X64734458Y-94856793D01*
X64776296Y-94796124D01*
X64826783Y-94741809D01*
X64885298Y-94694961D01*
X64951220Y-94656702D01*
X65023922Y-94628145D01*
X65102783Y-94610412D01*
X65179580Y-94605594D01*
X65256095Y-94613274D01*
X65330216Y-94632834D01*
X65400569Y-94663542D01*
X65465783Y-94704672D01*
X65524481Y-94755492D01*
X65575292Y-94815276D01*
X65616845Y-94883292D01*
X65625248Y-94900368D01*
X65643674Y-94944060D01*
X65656154Y-94986675D01*
X65663879Y-95032947D01*
X65668028Y-95087607D01*
X65668163Y-95101203D01*
X65668526Y-95137899D01*
G37*
G36*
X70990001Y-94804068D02*
G01*
X70630001Y-94804068D01*
X70593023Y-94804092D01*
X70527233Y-94804272D01*
X70466276Y-94804608D01*
X70411364Y-94805085D01*
X70363712Y-94805685D01*
X70324535Y-94806390D01*
X70295048Y-94807188D01*
X70276466Y-94808058D01*
X70270001Y-94808985D01*
X70270046Y-94809108D01*
X70275524Y-94815375D01*
X70289642Y-94830252D01*
X70311674Y-94852998D01*
X70340891Y-94882881D01*
X70376567Y-94919157D01*
X70417976Y-94961091D01*
X70464389Y-95007945D01*
X70515080Y-95058981D01*
X70569323Y-95113464D01*
X70626389Y-95170650D01*
X70633799Y-95178069D01*
X70709282Y-95253822D01*
X70775399Y-95320536D01*
X70832357Y-95378424D01*
X70880354Y-95427696D01*
X70919597Y-95468562D01*
X70950284Y-95501232D01*
X70972622Y-95525919D01*
X70986812Y-95542833D01*
X70993058Y-95552187D01*
X70999847Y-95572764D01*
X71004269Y-95615109D01*
X70997462Y-95657181D01*
X70980575Y-95696685D01*
X70954757Y-95731320D01*
X70921148Y-95758794D01*
X70880903Y-95776806D01*
X70876604Y-95777376D01*
X70859291Y-95778303D01*
X70830155Y-95779188D01*
X70790141Y-95780022D01*
X70740197Y-95780790D01*
X70681271Y-95781483D01*
X70614305Y-95782092D01*
X70540247Y-95782605D01*
X70460048Y-95783013D01*
X70374650Y-95783304D01*
X70285001Y-95783466D01*
X69710000Y-95784066D01*
X69710000Y-95450733D01*
X70439954Y-95450733D01*
X70082285Y-95092401D01*
X70077992Y-95088096D01*
X70020608Y-95030442D01*
X69965858Y-94975161D01*
X69914501Y-94923030D01*
X69867293Y-94874835D01*
X69824996Y-94831356D01*
X69788360Y-94793373D01*
X69758150Y-94761669D01*
X69735116Y-94737024D01*
X69720020Y-94720221D01*
X69713618Y-94712043D01*
X69712871Y-94710522D01*
X69700367Y-94670289D01*
X69699380Y-94628070D01*
X69708989Y-94586463D01*
X69728264Y-94548069D01*
X69756284Y-94515486D01*
X69792125Y-94491321D01*
X69792464Y-94491156D01*
X69797657Y-94488756D01*
X69803240Y-94486653D01*
X69810074Y-94484826D01*
X69819023Y-94483257D01*
X69830948Y-94481928D01*
X69846713Y-94480815D01*
X69867182Y-94479903D01*
X69893216Y-94479168D01*
X69925679Y-94478595D01*
X69965435Y-94478160D01*
X70013348Y-94477845D01*
X70070276Y-94477632D01*
X70137089Y-94477503D01*
X70214645Y-94477434D01*
X70303808Y-94477404D01*
X70405439Y-94477401D01*
X70990001Y-94477401D01*
X70990001Y-94804068D01*
G37*
G36*
X72411716Y-94477419D02*
G01*
X72483173Y-94477491D01*
X72543611Y-94477653D01*
X72594125Y-94477932D01*
X72635813Y-94478364D01*
X72669776Y-94478979D01*
X72697112Y-94479813D01*
X72718919Y-94480896D01*
X72736292Y-94482264D01*
X72750329Y-94483944D01*
X72762131Y-94485975D01*
X72772796Y-94488384D01*
X72783422Y-94491207D01*
X72840416Y-94511010D01*
X72901646Y-94543809D01*
X72953426Y-94586010D01*
X72995747Y-94637607D01*
X72996542Y-94638804D01*
X73029356Y-94699284D01*
X73050254Y-94762254D01*
X73059749Y-94826316D01*
X73058348Y-94890078D01*
X73046561Y-94952145D01*
X73024898Y-95011119D01*
X72993872Y-95065611D01*
X72953987Y-95114223D01*
X72905753Y-95155560D01*
X72849683Y-95188227D01*
X72786287Y-95210832D01*
X72782981Y-95211666D01*
X72769469Y-95214783D01*
X72755399Y-95217330D01*
X72739352Y-95219370D01*
X72719906Y-95220954D01*
X72695642Y-95222139D01*
X72665144Y-95222982D01*
X72626990Y-95223543D01*
X72579764Y-95223870D01*
X72522041Y-95224029D01*
X72452402Y-95224068D01*
X72415811Y-95224080D01*
X72351632Y-95224203D01*
X72298889Y-95224488D01*
X72256316Y-95224980D01*
X72222650Y-95225724D01*
X72196625Y-95226762D01*
X72176972Y-95228139D01*
X72162428Y-95229897D01*
X72151724Y-95232084D01*
X72143597Y-95234739D01*
X72125372Y-95244948D01*
X72104042Y-95267685D01*
X72090299Y-95296710D01*
X72084215Y-95329203D01*
X72085871Y-95362344D01*
X72095345Y-95393310D01*
X72112712Y-95419287D01*
X72138047Y-95437452D01*
X72140648Y-95438601D01*
X72147008Y-95441028D01*
X72154547Y-95443101D01*
X72164279Y-95444847D01*
X72177218Y-95446293D01*
X72194372Y-95447472D01*
X72216758Y-95448408D01*
X72245390Y-95449131D01*
X72281276Y-95449668D01*
X72325430Y-95450049D01*
X72378869Y-95450304D01*
X72442601Y-95450460D01*
X72517640Y-95450544D01*
X72605000Y-95450586D01*
X73043336Y-95450733D01*
X73043336Y-95784741D01*
X72581669Y-95782332D01*
X72518168Y-95782011D01*
X72433913Y-95781573D01*
X72361214Y-95781105D01*
X72299003Y-95780508D01*
X72246218Y-95779692D01*
X72201797Y-95778558D01*
X72164672Y-95777010D01*
X72133781Y-95774958D01*
X72108059Y-95772300D01*
X72086444Y-95768946D01*
X72067865Y-95764800D01*
X72051263Y-95759763D01*
X72035576Y-95753745D01*
X72019733Y-95746650D01*
X72002675Y-95738379D01*
X71983334Y-95728839D01*
X71980001Y-95727186D01*
X71925002Y-95693466D01*
X71874998Y-95651010D01*
X71832761Y-95602527D01*
X71801066Y-95550735D01*
X71782544Y-95508786D01*
X71766125Y-95457363D01*
X71757101Y-95404233D01*
X71754272Y-95344068D01*
X71756333Y-95290119D01*
X71764697Y-95234913D01*
X71780630Y-95181297D01*
X71805344Y-95124066D01*
X71839214Y-95067495D01*
X71885576Y-95013879D01*
X71941064Y-94968324D01*
X72004157Y-94932063D01*
X72073334Y-94906326D01*
X72078905Y-94904883D01*
X72091601Y-94902351D01*
X72107564Y-94900200D01*
X72128057Y-94898382D01*
X72154331Y-94896834D01*
X72187649Y-94895505D01*
X72229268Y-94894338D01*
X72280448Y-94893282D01*
X72342443Y-94892277D01*
X72416516Y-94891269D01*
X72719693Y-94887402D01*
X72726134Y-94869066D01*
X72728114Y-94861944D01*
X72728018Y-94839354D01*
X72719207Y-94820676D01*
X72703274Y-94810017D01*
X72695765Y-94809282D01*
X72675686Y-94808454D01*
X72644570Y-94807668D01*
X72603644Y-94806939D01*
X72554144Y-94806288D01*
X72497297Y-94805724D01*
X72434339Y-94805265D01*
X72366497Y-94804929D01*
X72295001Y-94804731D01*
X71903336Y-94804068D01*
X71903336Y-94477401D01*
X72328142Y-94477401D01*
X72411716Y-94477419D01*
G37*
G36*
X73021835Y-91762401D02*
G01*
X73020002Y-92514066D01*
X73001177Y-92567337D01*
X72991670Y-92592534D01*
X72965477Y-92646888D01*
X72933035Y-92694057D01*
X72891650Y-92738241D01*
X72860396Y-92765064D01*
X72796328Y-92806560D01*
X72724325Y-92837373D01*
X72644462Y-92857461D01*
X72642830Y-92857695D01*
X72627488Y-92858715D01*
X72600521Y-92859618D01*
X72563333Y-92860383D01*
X72517331Y-92860998D01*
X72463922Y-92861445D01*
X72404516Y-92861712D01*
X72340520Y-92861775D01*
X72273335Y-92861625D01*
X71933336Y-92860323D01*
X71880002Y-92842365D01*
X71840303Y-92827092D01*
X71773787Y-92791296D01*
X71716217Y-92745915D01*
X71668079Y-92691369D01*
X71629865Y-92628072D01*
X71618882Y-92605428D01*
X71609309Y-92584461D01*
X71601452Y-92564688D01*
X71595143Y-92544654D01*
X71590208Y-92522910D01*
X71586485Y-92498001D01*
X71583797Y-92468472D01*
X71581979Y-92432877D01*
X71580860Y-92389755D01*
X71580269Y-92337660D01*
X71580041Y-92275137D01*
X71580002Y-92200734D01*
X71580002Y-92189472D01*
X71580026Y-92121951D01*
X71580137Y-92066169D01*
X71580398Y-92020746D01*
X71580875Y-91984293D01*
X71581628Y-91955430D01*
X71582726Y-91932768D01*
X71584232Y-91914927D01*
X71586209Y-91900521D01*
X71588720Y-91888164D01*
X71591831Y-91876476D01*
X71595608Y-91864068D01*
X71605928Y-91833660D01*
X71630195Y-91779252D01*
X71660738Y-91731810D01*
X71699966Y-91687242D01*
X71712584Y-91675134D01*
X71770622Y-91630389D01*
X71836439Y-91595040D01*
X71907491Y-91570524D01*
X71919179Y-91567698D01*
X71932166Y-91565106D01*
X71946656Y-91562988D01*
X71963963Y-91561293D01*
X71985398Y-91559979D01*
X72012284Y-91558995D01*
X72045926Y-91558296D01*
X72087647Y-91557834D01*
X72138755Y-91557561D01*
X72200570Y-91557432D01*
X72274400Y-91557402D01*
X72590000Y-91557402D01*
X72590000Y-91883436D01*
X72288335Y-91885419D01*
X72282218Y-91885458D01*
X72211766Y-91885950D01*
X72153317Y-91886445D01*
X72105638Y-91887003D01*
X72067499Y-91887684D01*
X72037664Y-91888545D01*
X72014900Y-91889640D01*
X71997977Y-91891035D01*
X71985662Y-91892784D01*
X71976722Y-91894944D01*
X71969921Y-91897575D01*
X71964032Y-91900734D01*
X71962412Y-91901712D01*
X71943074Y-91916427D01*
X71927366Y-91932879D01*
X71926628Y-91933878D01*
X71923124Y-91939233D01*
X71920280Y-91945641D01*
X71918015Y-91954473D01*
X71916242Y-91967085D01*
X71914883Y-91984845D01*
X71913857Y-92009121D01*
X71913080Y-92041269D01*
X71912471Y-92082660D01*
X71911949Y-92134656D01*
X71911430Y-92198619D01*
X71911262Y-92220777D01*
X71910842Y-92280696D01*
X71910626Y-92329167D01*
X71910683Y-92367615D01*
X71911073Y-92397462D01*
X71911862Y-92420130D01*
X71913116Y-92437047D01*
X71914901Y-92449629D01*
X71917280Y-92459301D01*
X71920322Y-92467491D01*
X71924087Y-92475618D01*
X71930258Y-92487174D01*
X71945480Y-92505510D01*
X71967383Y-92518404D01*
X71968568Y-92518923D01*
X71975921Y-92521797D01*
X71984309Y-92524164D01*
X71994962Y-92526069D01*
X72009107Y-92527548D01*
X72027974Y-92528640D01*
X72052793Y-92529384D01*
X72084797Y-92529819D01*
X72125216Y-92529987D01*
X72175277Y-92529921D01*
X72236210Y-92529666D01*
X72309245Y-92529258D01*
X72353012Y-92528994D01*
X72418571Y-92528559D01*
X72472679Y-92528097D01*
X72516530Y-92527554D01*
X72551318Y-92526873D01*
X72578234Y-92525997D01*
X72598472Y-92524869D01*
X72613220Y-92523429D01*
X72623672Y-92521626D01*
X72631025Y-92519400D01*
X72636464Y-92516697D01*
X72641186Y-92513454D01*
X72642722Y-92512284D01*
X72659768Y-92496180D01*
X72675002Y-92477469D01*
X72690002Y-92455428D01*
X72690002Y-91010733D01*
X73023665Y-91010733D01*
X73021835Y-91762401D01*
G37*
G36*
X67666727Y-91557645D02*
G01*
X67736354Y-91557828D01*
X67795178Y-91558269D01*
X67844423Y-91559088D01*
X67885319Y-91560396D01*
X67919093Y-91562307D01*
X67946975Y-91564941D01*
X67970192Y-91568406D01*
X67989974Y-91572819D01*
X68007548Y-91578294D01*
X68024144Y-91584948D01*
X68040992Y-91592892D01*
X68059313Y-91602240D01*
X68092337Y-91622169D01*
X68136530Y-91656804D01*
X68177816Y-91697553D01*
X68212916Y-91741083D01*
X68238542Y-91784067D01*
X68246141Y-91800108D01*
X68255864Y-91821441D01*
X68263856Y-91841073D01*
X68270300Y-91860501D01*
X68275379Y-91881237D01*
X68279279Y-91904778D01*
X68282186Y-91932630D01*
X68284283Y-91966296D01*
X68285753Y-92007282D01*
X68286782Y-92057091D01*
X68287556Y-92117223D01*
X68288258Y-92189187D01*
X68288714Y-92243088D01*
X68289077Y-92305719D01*
X68289110Y-92357469D01*
X68288783Y-92399748D01*
X68288063Y-92433966D01*
X68286917Y-92461536D01*
X68285312Y-92483868D01*
X68283215Y-92502372D01*
X68280596Y-92518458D01*
X68275700Y-92541042D01*
X68252267Y-92609958D01*
X68217839Y-92672409D01*
X68173352Y-92727534D01*
X68119736Y-92774466D01*
X68057933Y-92812344D01*
X67988873Y-92840304D01*
X67913492Y-92857482D01*
X67905674Y-92858190D01*
X67883936Y-92859216D01*
X67851446Y-92860185D01*
X67809746Y-92861067D01*
X67760375Y-92861841D01*
X67704878Y-92862480D01*
X67644797Y-92862954D01*
X67581668Y-92863236D01*
X67283336Y-92864067D01*
X67283336Y-92544066D01*
X67619096Y-92544066D01*
X67683728Y-92544030D01*
X67736930Y-92543901D01*
X67779965Y-92543622D01*
X67814102Y-92543136D01*
X67840604Y-92542386D01*
X67860737Y-92541312D01*
X67875770Y-92539857D01*
X67886966Y-92537961D01*
X67895594Y-92535570D01*
X67902917Y-92532624D01*
X67910201Y-92529066D01*
X67918355Y-92524434D01*
X67939520Y-92508354D01*
X67955165Y-92491095D01*
X67970432Y-92468121D01*
X67968551Y-92204427D01*
X67966667Y-91940733D01*
X67950662Y-91918290D01*
X67947410Y-91914138D01*
X67928726Y-91896750D01*
X67907327Y-91883436D01*
X67901363Y-91880958D01*
X67893281Y-91878450D01*
X67882997Y-91876398D01*
X67869275Y-91874757D01*
X67850882Y-91873482D01*
X67826576Y-91872525D01*
X67795121Y-91871838D01*
X67755281Y-91871379D01*
X67705820Y-91871097D01*
X67645499Y-91870944D01*
X67573082Y-91870881D01*
X67522358Y-91870860D01*
X67458881Y-91870875D01*
X67406639Y-91870992D01*
X67364390Y-91871268D01*
X67330886Y-91871757D01*
X67304888Y-91872510D01*
X67285148Y-91873590D01*
X67270424Y-91875042D01*
X67259471Y-91876929D01*
X67251047Y-91879305D01*
X67243904Y-91882221D01*
X67236803Y-91885734D01*
X67225508Y-91891854D01*
X67202975Y-91908303D01*
X67189046Y-91928013D01*
X67181972Y-91954200D01*
X67180001Y-91990074D01*
X67180016Y-91996656D01*
X67180781Y-92021844D01*
X67183502Y-92039025D01*
X67189280Y-92052594D01*
X67199213Y-92066961D01*
X67201742Y-92070276D01*
X67209203Y-92079651D01*
X67216775Y-92087457D01*
X67225664Y-92093832D01*
X67237070Y-92098920D01*
X67252190Y-92102871D01*
X67272233Y-92105823D01*
X67298399Y-92107926D01*
X67331888Y-92109324D01*
X67373903Y-92110158D01*
X67425644Y-92110575D01*
X67488317Y-92110719D01*
X67563122Y-92110734D01*
X67863335Y-92110734D01*
X67863335Y-92430735D01*
X67570484Y-92430735D01*
X67542527Y-92430720D01*
X67465703Y-92430504D01*
X67400480Y-92429958D01*
X67345547Y-92428998D01*
X67299602Y-92427546D01*
X67261337Y-92425518D01*
X67229450Y-92422833D01*
X67202633Y-92419413D01*
X67179581Y-92415174D01*
X67158989Y-92410032D01*
X67139552Y-92403912D01*
X67120589Y-92396778D01*
X67059290Y-92364867D01*
X67003646Y-92322198D01*
X66955223Y-92270364D01*
X66915587Y-92210964D01*
X66886301Y-92145597D01*
X66871247Y-92093832D01*
X66859628Y-92017890D01*
X66860408Y-91943430D01*
X66873347Y-91871607D01*
X66898202Y-91803573D01*
X66934736Y-91740474D01*
X66982706Y-91683462D01*
X67002716Y-91664532D01*
X67056239Y-91623924D01*
X67115537Y-91593147D01*
X67183529Y-91570563D01*
X67189220Y-91569123D01*
X67201160Y-91566459D01*
X67214123Y-91564239D01*
X67229342Y-91562424D01*
X67248047Y-91560972D01*
X67271468Y-91559841D01*
X67300841Y-91558998D01*
X67337390Y-91558395D01*
X67382351Y-91557996D01*
X67436954Y-91557759D01*
X67502426Y-91557645D01*
X67580000Y-91557612D01*
X67585061Y-91557612D01*
X67666727Y-91557645D01*
G37*
G36*
X68900060Y-94477647D02*
G01*
X68969687Y-94477827D01*
X69028511Y-94478268D01*
X69077756Y-94479087D01*
X69118652Y-94480395D01*
X69152426Y-94482309D01*
X69180308Y-94484940D01*
X69203525Y-94488405D01*
X69223307Y-94492818D01*
X69240884Y-94498296D01*
X69257480Y-94504947D01*
X69274325Y-94512891D01*
X69292646Y-94522239D01*
X69325670Y-94542171D01*
X69369863Y-94576806D01*
X69411152Y-94617552D01*
X69446249Y-94661085D01*
X69471875Y-94704066D01*
X69479474Y-94720110D01*
X69489197Y-94741443D01*
X69497189Y-94761072D01*
X69503633Y-94780503D01*
X69508712Y-94801236D01*
X69512612Y-94824777D01*
X69515519Y-94852629D01*
X69517616Y-94886298D01*
X69519086Y-94927284D01*
X69520115Y-94977090D01*
X69520889Y-95037225D01*
X69521591Y-95109186D01*
X69522131Y-95177766D01*
X69522338Y-95244993D01*
X69521984Y-95301489D01*
X69520949Y-95348634D01*
X69519110Y-95387820D01*
X69516353Y-95420430D01*
X69512546Y-95447850D01*
X69507578Y-95471463D01*
X69501320Y-95492658D01*
X69493655Y-95512821D01*
X69484460Y-95533338D01*
X69459662Y-95578932D01*
X69415148Y-95638356D01*
X69361544Y-95688258D01*
X69299345Y-95728281D01*
X69229043Y-95758062D01*
X69151130Y-95777247D01*
X69142889Y-95778054D01*
X69121100Y-95779134D01*
X69088592Y-95780148D01*
X69046883Y-95781069D01*
X68997488Y-95781870D01*
X68941922Y-95782524D01*
X68881697Y-95783004D01*
X68818334Y-95783283D01*
X68516669Y-95784066D01*
X68516669Y-95464068D01*
X68815256Y-95464068D01*
X68852429Y-95464065D01*
X68917061Y-95464029D01*
X68970263Y-95463900D01*
X69013298Y-95463624D01*
X69047435Y-95463138D01*
X69073937Y-95462385D01*
X69094070Y-95461311D01*
X69109103Y-95459856D01*
X69120302Y-95457963D01*
X69128927Y-95455572D01*
X69136250Y-95452626D01*
X69143534Y-95449068D01*
X69151688Y-95444433D01*
X69172853Y-95428353D01*
X69188498Y-95411094D01*
X69203768Y-95388120D01*
X69201884Y-95124429D01*
X69200000Y-94860735D01*
X69183995Y-94838289D01*
X69180743Y-94834137D01*
X69162059Y-94816749D01*
X69140660Y-94803438D01*
X69134696Y-94800957D01*
X69126614Y-94798449D01*
X69116330Y-94796397D01*
X69102608Y-94794759D01*
X69084215Y-94793484D01*
X69059909Y-94792524D01*
X69028454Y-94791840D01*
X68988614Y-94791378D01*
X68939153Y-94791096D01*
X68878832Y-94790946D01*
X68806415Y-94790880D01*
X68755691Y-94790859D01*
X68692214Y-94790874D01*
X68639972Y-94790994D01*
X68597723Y-94791267D01*
X68564219Y-94791756D01*
X68538221Y-94792512D01*
X68518481Y-94793589D01*
X68503757Y-94795044D01*
X68492804Y-94796931D01*
X68484380Y-94799304D01*
X68477240Y-94802220D01*
X68470139Y-94805733D01*
X68458841Y-94811856D01*
X68436308Y-94828302D01*
X68422379Y-94848012D01*
X68415305Y-94874199D01*
X68413334Y-94910076D01*
X68413349Y-94916655D01*
X68414114Y-94941843D01*
X68416835Y-94959024D01*
X68422613Y-94972596D01*
X68432546Y-94986960D01*
X68435075Y-94990275D01*
X68442536Y-94999653D01*
X68450108Y-95007456D01*
X68458997Y-95013831D01*
X68470403Y-95018919D01*
X68485526Y-95022870D01*
X68505569Y-95025825D01*
X68531732Y-95027925D01*
X68565221Y-95029323D01*
X68607236Y-95030157D01*
X68658980Y-95030574D01*
X68721650Y-95030718D01*
X68796455Y-95030733D01*
X69096668Y-95030733D01*
X69096668Y-95350734D01*
X68803817Y-95350734D01*
X68775860Y-95350722D01*
X68699036Y-95350506D01*
X68633813Y-95349957D01*
X68578880Y-95349000D01*
X68532935Y-95347545D01*
X68494670Y-95345517D01*
X68462783Y-95342835D01*
X68435966Y-95339412D01*
X68412914Y-95335173D01*
X68392322Y-95330034D01*
X68372885Y-95323914D01*
X68353922Y-95316777D01*
X68292623Y-95284869D01*
X68236979Y-95242197D01*
X68188556Y-95190363D01*
X68148920Y-95130966D01*
X68119634Y-95065599D01*
X68104580Y-95013834D01*
X68092961Y-94937889D01*
X68093741Y-94863432D01*
X68106680Y-94791609D01*
X68131535Y-94723572D01*
X68168069Y-94660473D01*
X68216039Y-94603461D01*
X68236049Y-94584534D01*
X68289572Y-94543923D01*
X68348870Y-94513149D01*
X68416862Y-94490562D01*
X68422556Y-94489122D01*
X68434493Y-94486458D01*
X68447456Y-94484238D01*
X68462675Y-94482423D01*
X68481380Y-94480971D01*
X68504804Y-94479843D01*
X68534174Y-94478997D01*
X68570723Y-94478394D01*
X68615684Y-94477995D01*
X68670287Y-94477758D01*
X68735759Y-94477644D01*
X68813336Y-94477614D01*
X68818397Y-94477614D01*
X68900060Y-94477647D01*
G37*
G36*
X66810011Y-94652400D02*
G01*
X66810020Y-94740807D01*
X66810050Y-94845165D01*
X66810122Y-94937535D01*
X66810239Y-95018670D01*
X66810419Y-95089332D01*
X66810674Y-95150280D01*
X66811010Y-95202276D01*
X66811445Y-95246079D01*
X66811988Y-95282448D01*
X66812654Y-95312139D01*
X66813449Y-95335920D01*
X66814391Y-95354541D01*
X66815489Y-95368770D01*
X66816752Y-95379363D01*
X66818198Y-95387082D01*
X66819836Y-95392683D01*
X66821678Y-95396928D01*
X66822350Y-95398212D01*
X66836000Y-95417796D01*
X66852158Y-95433594D01*
X66856250Y-95436417D01*
X66861407Y-95439093D01*
X66868283Y-95441295D01*
X66878036Y-95443071D01*
X66891833Y-95444463D01*
X66910829Y-95445519D01*
X66936191Y-95446287D01*
X66969080Y-95446812D01*
X67010654Y-95447139D01*
X67062077Y-95447316D01*
X67124510Y-95447388D01*
X67199117Y-95447400D01*
X67206335Y-95447400D01*
X67282379Y-95447409D01*
X67346330Y-95447337D01*
X67399322Y-95447046D01*
X67442495Y-95446401D01*
X67476986Y-95445261D01*
X67503932Y-95443494D01*
X67524476Y-95440962D01*
X67539752Y-95437527D01*
X67550897Y-95433051D01*
X67559054Y-95427402D01*
X67565357Y-95420442D01*
X67570949Y-95412033D01*
X67576961Y-95402037D01*
X67577126Y-95401767D01*
X67580429Y-95395659D01*
X67583111Y-95388429D01*
X67585241Y-95378721D01*
X67586876Y-95365179D01*
X67588082Y-95346444D01*
X67588925Y-95321160D01*
X67589471Y-95287971D01*
X67589780Y-95245521D01*
X67589921Y-95192448D01*
X67589951Y-95127402D01*
X67589951Y-95123676D01*
X67589915Y-95059296D01*
X67589771Y-95006817D01*
X67589450Y-94964889D01*
X67588892Y-94932150D01*
X67588031Y-94907244D01*
X67586804Y-94888815D01*
X67585145Y-94875507D01*
X67582991Y-94865961D01*
X67580276Y-94858818D01*
X67576937Y-94852725D01*
X67574138Y-94848129D01*
X67568030Y-94838700D01*
X67561505Y-94830849D01*
X67553390Y-94824423D01*
X67542506Y-94819269D01*
X67527686Y-94815234D01*
X67507751Y-94812165D01*
X67481528Y-94809906D01*
X67447844Y-94808307D01*
X67405523Y-94807212D01*
X67353392Y-94806468D01*
X67290275Y-94805922D01*
X67215002Y-94805421D01*
X66910001Y-94803441D01*
X66910001Y-94477401D01*
X67225601Y-94477401D01*
X67296653Y-94477428D01*
X67358894Y-94477551D01*
X67410389Y-94477812D01*
X67452461Y-94478265D01*
X67486424Y-94478949D01*
X67513604Y-94479918D01*
X67535318Y-94481220D01*
X67552889Y-94482900D01*
X67567634Y-94485006D01*
X67580876Y-94487586D01*
X67593935Y-94490685D01*
X67635053Y-94503021D01*
X67703456Y-94533384D01*
X67764305Y-94573518D01*
X67816628Y-94622448D01*
X67859456Y-94679196D01*
X67891817Y-94742775D01*
X67912739Y-94812213D01*
X67913846Y-94817868D01*
X67916465Y-94834653D01*
X67918574Y-94854768D01*
X67920227Y-94879647D01*
X67921469Y-94910715D01*
X67922348Y-94949400D01*
X67922912Y-94997133D01*
X67923209Y-95055342D01*
X67923287Y-95125452D01*
X67923254Y-95176587D01*
X67923101Y-95234796D01*
X67922762Y-95282316D01*
X67922177Y-95320662D01*
X67921283Y-95351355D01*
X67920011Y-95375907D01*
X67918301Y-95395836D01*
X67916090Y-95412657D01*
X67913312Y-95427891D01*
X67909901Y-95443047D01*
X67909352Y-95445309D01*
X67885331Y-95518719D01*
X67851260Y-95584965D01*
X67807934Y-95642988D01*
X67756139Y-95691720D01*
X67696667Y-95730099D01*
X67685882Y-95735616D01*
X67642625Y-95754984D01*
X67600751Y-95768214D01*
X67553336Y-95777607D01*
X67552037Y-95777781D01*
X67536803Y-95778762D01*
X67509899Y-95779614D01*
X67472753Y-95780325D01*
X67426790Y-95780880D01*
X67373441Y-95781264D01*
X67314131Y-95781468D01*
X67250285Y-95781471D01*
X67183334Y-95781264D01*
X67165637Y-95781183D01*
X67089107Y-95780811D01*
X67024316Y-95780367D01*
X66969947Y-95779704D01*
X66924689Y-95778681D01*
X66887219Y-95777148D01*
X66856226Y-95774967D01*
X66830390Y-95771991D01*
X66808400Y-95768073D01*
X66788933Y-95763072D01*
X66770675Y-95756841D01*
X66752312Y-95749239D01*
X66732527Y-95740119D01*
X66710000Y-95729334D01*
X66702614Y-95725683D01*
X66648488Y-95692005D01*
X66599174Y-95649465D01*
X66557513Y-95600856D01*
X66526340Y-95548962D01*
X66525788Y-95547798D01*
X66518876Y-95533587D01*
X66512702Y-95521035D01*
X66507224Y-95509350D01*
X66502400Y-95497746D01*
X66498182Y-95485431D01*
X66494531Y-95471619D01*
X66491399Y-95455518D01*
X66488747Y-95436342D01*
X66486530Y-95413299D01*
X66484703Y-95385603D01*
X66483224Y-95352462D01*
X66482048Y-95313090D01*
X66481133Y-95266695D01*
X66480437Y-95212491D01*
X66479912Y-95149689D01*
X66479516Y-95077497D01*
X66479210Y-94995126D01*
X66478943Y-94901793D01*
X66478679Y-94796700D01*
X66478370Y-94679067D01*
X66476282Y-93930735D01*
X66810002Y-93930735D01*
X66810011Y-94652400D01*
G37*
G36*
X67397966Y-98995626D02*
G01*
X67380413Y-99097845D01*
X67350833Y-99198309D01*
X67309199Y-99296085D01*
X67255481Y-99390231D01*
X67189646Y-99479814D01*
X67160582Y-99513192D01*
X67083974Y-99587043D01*
X66998900Y-99651039D01*
X66906161Y-99704754D01*
X66806561Y-99747753D01*
X66700907Y-99779607D01*
X66590000Y-99799893D01*
X66583094Y-99800601D01*
X66554504Y-99801816D01*
X66517316Y-99801735D01*
X66475022Y-99800520D01*
X66431126Y-99798333D01*
X66389123Y-99795339D01*
X66352514Y-99791700D01*
X66324797Y-99787575D01*
X66288056Y-99779613D01*
X66186125Y-99748797D01*
X66090092Y-99706896D01*
X66000569Y-99654780D01*
X65918180Y-99593328D01*
X65843540Y-99523407D01*
X65777270Y-99445893D01*
X65719988Y-99361659D01*
X65672312Y-99271581D01*
X65634863Y-99176529D01*
X65608259Y-99077379D01*
X65593118Y-98975004D01*
X65591673Y-98925558D01*
X65864501Y-98925558D01*
X65869199Y-98984928D01*
X65880560Y-99043095D01*
X65899391Y-99105816D01*
X65913869Y-99144450D01*
X65948141Y-99214353D01*
X65991746Y-99278781D01*
X66046667Y-99340905D01*
X66070151Y-99363651D01*
X66141041Y-99420813D01*
X66217268Y-99465852D01*
X66299408Y-99499077D01*
X66388031Y-99520785D01*
X66457703Y-99529122D01*
X66548021Y-99528564D01*
X66636149Y-99515250D01*
X66721085Y-99489504D01*
X66801818Y-99451647D01*
X66877349Y-99402006D01*
X66946667Y-99340905D01*
X66976115Y-99309426D01*
X67025039Y-99246528D01*
X67063652Y-99179715D01*
X67093943Y-99105816D01*
X67111745Y-99047142D01*
X67123586Y-98988846D01*
X67128710Y-98929740D01*
X67127924Y-98864067D01*
X67124579Y-98821521D01*
X67108616Y-98732637D01*
X67080641Y-98649261D01*
X67040480Y-98571021D01*
X66987956Y-98497539D01*
X66922892Y-98428443D01*
X66914402Y-98420610D01*
X66899984Y-98407749D01*
X66887540Y-98396565D01*
X66876929Y-98386056D01*
X66867998Y-98375223D01*
X66860603Y-98363067D01*
X66854594Y-98348583D01*
X66849821Y-98330772D01*
X66846140Y-98308638D01*
X66843401Y-98281176D01*
X66841454Y-98247384D01*
X66840155Y-98206266D01*
X66839351Y-98156817D01*
X66838901Y-98098041D01*
X66838649Y-98028936D01*
X66838454Y-97948500D01*
X66838163Y-97855734D01*
X66836324Y-97384068D01*
X66157013Y-97384068D01*
X66155174Y-97855734D01*
X66155000Y-97906464D01*
X66154778Y-97992573D01*
X66154571Y-98066886D01*
X66154232Y-98130396D01*
X66153614Y-98184105D01*
X66152564Y-98229018D01*
X66150941Y-98266131D01*
X66148595Y-98296443D01*
X66145373Y-98320962D01*
X66141134Y-98340681D01*
X66135725Y-98356605D01*
X66128999Y-98369730D01*
X66120809Y-98381064D01*
X66111005Y-98391600D01*
X66099443Y-98402340D01*
X66085973Y-98414289D01*
X66070445Y-98428443D01*
X66039149Y-98459493D01*
X65979839Y-98530545D01*
X65932985Y-98606157D01*
X65898413Y-98686695D01*
X65875949Y-98772540D01*
X65865413Y-98864067D01*
X65864501Y-98925558D01*
X65591673Y-98925558D01*
X65590058Y-98870274D01*
X65599700Y-98764068D01*
X65601272Y-98754096D01*
X65625302Y-98647950D01*
X65661896Y-98545464D01*
X65710580Y-98447589D01*
X65770880Y-98355294D01*
X65842328Y-98269536D01*
X65883335Y-98225700D01*
X65883335Y-97721286D01*
X65883338Y-97665219D01*
X65883365Y-97578453D01*
X65883440Y-97503549D01*
X65883584Y-97439577D01*
X65883824Y-97385607D01*
X65884181Y-97340706D01*
X65884679Y-97303944D01*
X65885339Y-97274388D01*
X65886188Y-97251111D01*
X65887244Y-97233180D01*
X65888531Y-97219662D01*
X65890076Y-97209627D01*
X65891900Y-97202145D01*
X65894024Y-97196283D01*
X65896475Y-97191114D01*
X65898170Y-97187919D01*
X65921480Y-97157280D01*
X65952599Y-97132776D01*
X65987093Y-97117989D01*
X65987861Y-97117818D01*
X66001715Y-97116405D01*
X66027428Y-97115145D01*
X66063668Y-97114032D01*
X66109115Y-97113066D01*
X66162437Y-97112253D01*
X66222314Y-97111590D01*
X66287417Y-97111074D01*
X66356423Y-97110708D01*
X66428003Y-97110492D01*
X66500834Y-97110426D01*
X66573590Y-97110510D01*
X66644945Y-97110741D01*
X66713570Y-97111125D01*
X66778145Y-97111656D01*
X66837341Y-97112337D01*
X66889832Y-97113168D01*
X66934295Y-97114149D01*
X66969401Y-97115280D01*
X66993827Y-97116561D01*
X67006244Y-97117989D01*
X67009646Y-97118907D01*
X67044005Y-97134804D01*
X67074557Y-97160067D01*
X67096862Y-97191114D01*
X67098323Y-97194078D01*
X67100582Y-97199535D01*
X67102529Y-97206222D01*
X67104188Y-97215069D01*
X67105580Y-97227009D01*
X67106732Y-97242972D01*
X67107665Y-97263888D01*
X67108400Y-97290690D01*
X67108964Y-97324305D01*
X67109378Y-97365672D01*
X67109663Y-97415712D01*
X67109846Y-97475364D01*
X67109948Y-97545558D01*
X67109993Y-97627221D01*
X67110002Y-97721286D01*
X67110002Y-98225700D01*
X67151006Y-98269536D01*
X67186670Y-98309796D01*
X67252451Y-98398026D01*
X67306418Y-98491068D01*
X67348538Y-98587983D01*
X67378781Y-98687835D01*
X67397123Y-98789682D01*
X67403528Y-98892594D01*
X67401524Y-98929740D01*
X67397966Y-98995626D01*
G37*
G36*
X67403222Y-87964416D02*
G01*
X67393637Y-88070733D01*
X67392065Y-88080705D01*
X67368035Y-88186851D01*
X67331441Y-88289337D01*
X67282757Y-88387212D01*
X67222457Y-88479507D01*
X67151006Y-88565265D01*
X67110002Y-88609101D01*
X67110002Y-89113515D01*
X67109999Y-89176197D01*
X67109972Y-89262057D01*
X67109894Y-89336121D01*
X67109747Y-89399322D01*
X67109504Y-89452590D01*
X67109141Y-89496861D01*
X67108637Y-89533062D01*
X67107968Y-89562129D01*
X67107110Y-89584989D01*
X67106039Y-89602578D01*
X67104731Y-89615823D01*
X67103168Y-89625660D01*
X67101320Y-89633022D01*
X67099166Y-89638836D01*
X67096685Y-89644035D01*
X67076843Y-89672271D01*
X67046483Y-89698344D01*
X67011812Y-89715222D01*
X67009841Y-89715663D01*
X66994778Y-89717136D01*
X66968063Y-89718471D01*
X66931004Y-89719668D01*
X66884912Y-89720724D01*
X66831095Y-89721636D01*
X66770861Y-89722404D01*
X66705521Y-89723025D01*
X66636386Y-89723499D01*
X66564761Y-89723820D01*
X66491957Y-89723988D01*
X66419282Y-89724000D01*
X66348050Y-89723859D01*
X66279563Y-89723556D01*
X66215135Y-89723091D01*
X66156074Y-89722464D01*
X66103688Y-89721672D01*
X66059288Y-89720712D01*
X66024182Y-89719584D01*
X65999681Y-89718285D01*
X65987093Y-89716812D01*
X65983688Y-89715894D01*
X65949329Y-89699997D01*
X65918780Y-89674734D01*
X65896475Y-89643687D01*
X65895014Y-89640723D01*
X65892755Y-89635266D01*
X65890808Y-89628579D01*
X65889149Y-89619732D01*
X65887754Y-89607792D01*
X65886605Y-89591829D01*
X65885672Y-89570913D01*
X65884937Y-89544111D01*
X65884373Y-89510496D01*
X65883959Y-89469129D01*
X65883674Y-89419089D01*
X65883491Y-89359437D01*
X65883389Y-89289243D01*
X65883344Y-89207580D01*
X65883335Y-89113515D01*
X65883335Y-88609101D01*
X65842328Y-88565265D01*
X65777492Y-88488303D01*
X65717015Y-88398066D01*
X65668046Y-88302924D01*
X65630768Y-88203876D01*
X65605367Y-88101924D01*
X65592020Y-87998061D01*
X65591037Y-87905061D01*
X65864627Y-87905061D01*
X65865413Y-87970734D01*
X65868758Y-88013280D01*
X65884721Y-88102164D01*
X65912696Y-88185540D01*
X65952857Y-88263780D01*
X66005381Y-88337262D01*
X66070445Y-88406358D01*
X66078932Y-88414191D01*
X66093353Y-88427052D01*
X66105797Y-88438236D01*
X66116408Y-88448745D01*
X66125339Y-88459578D01*
X66132734Y-88471734D01*
X66138743Y-88486218D01*
X66143516Y-88504029D01*
X66147197Y-88526163D01*
X66149936Y-88553625D01*
X66151883Y-88587417D01*
X66153182Y-88628535D01*
X66153983Y-88677984D01*
X66154436Y-88736760D01*
X66154688Y-88805865D01*
X66154883Y-88886301D01*
X66155174Y-88979067D01*
X66157013Y-89450733D01*
X66836324Y-89450733D01*
X66838163Y-88979067D01*
X66838337Y-88928337D01*
X66838559Y-88842228D01*
X66838766Y-88767915D01*
X66839105Y-88704405D01*
X66839723Y-88650696D01*
X66840770Y-88605783D01*
X66842396Y-88568670D01*
X66844742Y-88538358D01*
X66847964Y-88513839D01*
X66852203Y-88494120D01*
X66857612Y-88478196D01*
X66864338Y-88465071D01*
X66872528Y-88453737D01*
X66882329Y-88443201D01*
X66893894Y-88432461D01*
X66907364Y-88420512D01*
X66922892Y-88406358D01*
X66954185Y-88375308D01*
X67013498Y-88304256D01*
X67060352Y-88228644D01*
X67094924Y-88148106D01*
X67117388Y-88062261D01*
X67127924Y-87970734D01*
X67128833Y-87909243D01*
X67124138Y-87849873D01*
X67112777Y-87791706D01*
X67093943Y-87728985D01*
X67079468Y-87690351D01*
X67045196Y-87620448D01*
X67001591Y-87556020D01*
X66946667Y-87493896D01*
X66941084Y-87488307D01*
X66871325Y-87428268D01*
X66795608Y-87379779D01*
X66714983Y-87343068D01*
X66630491Y-87318369D01*
X66543173Y-87305913D01*
X66454076Y-87305931D01*
X66364238Y-87318660D01*
X66274709Y-87344328D01*
X66262433Y-87348924D01*
X66185948Y-87385296D01*
X66114344Y-87433410D01*
X66046667Y-87493896D01*
X66017222Y-87525375D01*
X65968298Y-87588273D01*
X65929682Y-87655086D01*
X65899391Y-87728985D01*
X65881592Y-87787659D01*
X65869748Y-87845955D01*
X65864627Y-87905061D01*
X65591037Y-87905061D01*
X65590913Y-87893292D01*
X65602229Y-87788613D01*
X65626151Y-87685026D01*
X65662859Y-87583530D01*
X65671868Y-87563295D01*
X65723495Y-87466482D01*
X65785436Y-87377559D01*
X65856878Y-87297177D01*
X65937020Y-87225987D01*
X66025049Y-87164640D01*
X66120161Y-87113793D01*
X66221546Y-87074094D01*
X66328394Y-87046200D01*
X66352664Y-87042213D01*
X66401075Y-87037371D01*
X66456251Y-87034734D01*
X66514208Y-87034296D01*
X66570965Y-87036063D01*
X66622538Y-87040029D01*
X66664943Y-87046200D01*
X66704018Y-87055302D01*
X66755657Y-87070143D01*
X66808703Y-87087876D01*
X66858290Y-87106857D01*
X66899561Y-87125442D01*
X66975872Y-87168522D01*
X67062731Y-87230631D01*
X67140965Y-87301656D01*
X67210055Y-87380598D01*
X67269476Y-87466455D01*
X67318703Y-87558225D01*
X67357217Y-87654909D01*
X67384490Y-87755502D01*
X67400000Y-87859005D01*
X67401536Y-87909243D01*
X67403222Y-87964416D01*
G37*
G36*
X69951299Y-98995626D02*
G01*
X69933746Y-99097845D01*
X69904166Y-99198309D01*
X69862532Y-99296085D01*
X69808814Y-99390231D01*
X69742979Y-99479814D01*
X69713915Y-99513192D01*
X69637307Y-99587043D01*
X69552233Y-99651039D01*
X69459494Y-99704754D01*
X69359894Y-99747753D01*
X69254240Y-99779607D01*
X69143336Y-99799893D01*
X69136427Y-99800601D01*
X69107837Y-99801816D01*
X69070649Y-99801735D01*
X69028355Y-99800520D01*
X68984459Y-99798333D01*
X68942456Y-99795339D01*
X68905847Y-99791700D01*
X68878130Y-99787575D01*
X68841389Y-99779613D01*
X68739461Y-99748797D01*
X68643425Y-99706896D01*
X68553902Y-99654780D01*
X68471513Y-99593328D01*
X68396873Y-99523407D01*
X68330603Y-99445893D01*
X68273321Y-99361659D01*
X68225645Y-99271581D01*
X68188196Y-99176529D01*
X68161592Y-99077379D01*
X68146451Y-98975004D01*
X68145006Y-98925558D01*
X68417834Y-98925558D01*
X68422532Y-98984928D01*
X68433893Y-99043095D01*
X68452724Y-99105816D01*
X68467202Y-99144450D01*
X68501474Y-99214353D01*
X68545079Y-99278781D01*
X68600000Y-99340905D01*
X68623484Y-99363651D01*
X68694374Y-99420813D01*
X68770601Y-99465852D01*
X68852741Y-99499077D01*
X68941364Y-99520785D01*
X69011036Y-99529122D01*
X69101354Y-99528564D01*
X69189482Y-99515250D01*
X69274418Y-99489504D01*
X69355154Y-99451647D01*
X69430682Y-99402006D01*
X69500000Y-99340905D01*
X69529448Y-99309426D01*
X69578372Y-99246528D01*
X69616988Y-99179715D01*
X69647279Y-99105816D01*
X69665078Y-99047142D01*
X69676919Y-98988846D01*
X69682043Y-98929740D01*
X69681257Y-98864067D01*
X69677912Y-98821521D01*
X69661949Y-98732637D01*
X69633974Y-98649261D01*
X69593813Y-98571021D01*
X69541289Y-98497539D01*
X69476225Y-98428443D01*
X69467735Y-98420610D01*
X69453317Y-98407749D01*
X69440873Y-98396565D01*
X69430262Y-98386056D01*
X69421331Y-98375223D01*
X69413936Y-98363067D01*
X69407927Y-98348583D01*
X69403154Y-98330772D01*
X69399473Y-98308638D01*
X69396734Y-98281176D01*
X69394787Y-98247384D01*
X69393488Y-98206266D01*
X69392684Y-98156817D01*
X69392234Y-98098041D01*
X69391982Y-98028936D01*
X69391787Y-97948500D01*
X69391496Y-97855734D01*
X69389657Y-97384068D01*
X68710346Y-97384068D01*
X68708507Y-97855734D01*
X68708333Y-97906464D01*
X68708111Y-97992573D01*
X68707904Y-98066886D01*
X68707565Y-98130396D01*
X68706947Y-98184105D01*
X68705900Y-98229018D01*
X68704274Y-98266131D01*
X68701928Y-98296443D01*
X68698706Y-98320962D01*
X68694467Y-98340681D01*
X68689058Y-98356605D01*
X68682332Y-98369730D01*
X68674142Y-98381064D01*
X68664338Y-98391600D01*
X68652776Y-98402340D01*
X68639306Y-98414289D01*
X68623778Y-98428443D01*
X68592485Y-98459493D01*
X68533172Y-98530545D01*
X68486318Y-98606157D01*
X68451746Y-98686695D01*
X68429282Y-98772540D01*
X68418746Y-98864067D01*
X68417834Y-98925558D01*
X68145006Y-98925558D01*
X68143391Y-98870274D01*
X68153033Y-98764068D01*
X68154605Y-98754096D01*
X68178635Y-98647950D01*
X68215229Y-98545464D01*
X68263913Y-98447589D01*
X68324213Y-98355294D01*
X68395664Y-98269536D01*
X68436668Y-98225700D01*
X68436668Y-97721286D01*
X68436671Y-97665219D01*
X68436698Y-97578453D01*
X68436773Y-97503549D01*
X68436917Y-97439577D01*
X68437157Y-97385607D01*
X68437514Y-97340706D01*
X68438012Y-97303944D01*
X68438672Y-97274388D01*
X68439521Y-97251111D01*
X68440577Y-97233180D01*
X68441864Y-97219662D01*
X68443409Y-97209627D01*
X68445233Y-97202145D01*
X68447357Y-97196283D01*
X68449808Y-97191114D01*
X68451503Y-97187919D01*
X68474813Y-97157280D01*
X68505932Y-97132776D01*
X68540426Y-97117989D01*
X68541194Y-97117818D01*
X68555048Y-97116405D01*
X68580761Y-97115145D01*
X68617001Y-97114032D01*
X68662448Y-97113066D01*
X68715770Y-97112253D01*
X68775647Y-97111590D01*
X68840753Y-97111074D01*
X68909756Y-97110708D01*
X68981339Y-97110492D01*
X69054170Y-97110426D01*
X69126923Y-97110510D01*
X69198278Y-97110741D01*
X69266903Y-97111125D01*
X69331478Y-97111656D01*
X69390674Y-97112337D01*
X69443165Y-97113168D01*
X69487628Y-97114149D01*
X69522734Y-97115280D01*
X69547160Y-97116561D01*
X69559577Y-97117989D01*
X69562979Y-97118907D01*
X69597341Y-97134804D01*
X69627890Y-97160067D01*
X69650195Y-97191114D01*
X69651656Y-97194078D01*
X69653915Y-97199535D01*
X69655862Y-97206222D01*
X69657521Y-97215069D01*
X69658913Y-97227009D01*
X69660065Y-97242972D01*
X69660998Y-97263888D01*
X69661733Y-97290690D01*
X69662297Y-97324305D01*
X69662711Y-97365672D01*
X69662996Y-97415712D01*
X69663179Y-97475364D01*
X69663281Y-97545558D01*
X69663326Y-97627221D01*
X69663335Y-97721286D01*
X69663335Y-98225700D01*
X69704339Y-98269536D01*
X69740003Y-98309796D01*
X69805784Y-98398026D01*
X69859751Y-98491068D01*
X69901871Y-98587983D01*
X69932114Y-98687835D01*
X69950456Y-98789682D01*
X69956861Y-98892594D01*
X69954857Y-98929740D01*
X69951299Y-98995626D01*
G37*
G36*
X69956555Y-87964416D02*
G01*
X69946970Y-88070733D01*
X69945398Y-88080705D01*
X69921368Y-88186851D01*
X69884774Y-88289337D01*
X69836090Y-88387212D01*
X69775790Y-88479507D01*
X69704339Y-88565265D01*
X69663335Y-88609101D01*
X69663335Y-89113515D01*
X69663332Y-89176197D01*
X69663305Y-89262057D01*
X69663227Y-89336121D01*
X69663080Y-89399322D01*
X69662837Y-89452590D01*
X69662474Y-89496861D01*
X69661970Y-89533062D01*
X69661301Y-89562129D01*
X69660443Y-89584989D01*
X69659372Y-89602578D01*
X69658064Y-89615823D01*
X69656501Y-89625660D01*
X69654653Y-89633022D01*
X69652499Y-89638836D01*
X69650018Y-89644035D01*
X69630176Y-89672271D01*
X69599816Y-89698344D01*
X69565145Y-89715222D01*
X69563177Y-89715663D01*
X69548111Y-89717136D01*
X69521396Y-89718471D01*
X69484337Y-89719668D01*
X69438245Y-89720724D01*
X69384428Y-89721636D01*
X69324194Y-89722404D01*
X69258857Y-89723025D01*
X69189719Y-89723499D01*
X69118094Y-89723820D01*
X69045290Y-89723988D01*
X68972618Y-89724000D01*
X68901383Y-89723859D01*
X68832896Y-89723556D01*
X68768468Y-89723091D01*
X68709407Y-89722464D01*
X68657021Y-89721672D01*
X68612621Y-89720712D01*
X68577518Y-89719584D01*
X68553014Y-89718285D01*
X68540426Y-89716812D01*
X68537024Y-89715894D01*
X68502662Y-89699997D01*
X68472113Y-89674734D01*
X68449808Y-89643687D01*
X68448347Y-89640723D01*
X68446088Y-89635266D01*
X68444141Y-89628579D01*
X68442482Y-89619732D01*
X68441090Y-89607792D01*
X68439938Y-89591829D01*
X68439005Y-89570913D01*
X68438270Y-89544111D01*
X68437706Y-89510496D01*
X68437292Y-89469129D01*
X68437007Y-89419089D01*
X68436824Y-89359437D01*
X68436722Y-89289243D01*
X68436677Y-89207580D01*
X68436668Y-89113515D01*
X68436668Y-88609101D01*
X68395664Y-88565265D01*
X68330825Y-88488303D01*
X68270348Y-88398066D01*
X68221379Y-88302924D01*
X68184104Y-88203876D01*
X68158700Y-88101924D01*
X68145353Y-87998061D01*
X68144373Y-87905061D01*
X68417960Y-87905061D01*
X68418746Y-87970734D01*
X68422091Y-88013280D01*
X68438054Y-88102164D01*
X68466029Y-88185540D01*
X68506190Y-88263780D01*
X68558714Y-88337262D01*
X68623778Y-88406358D01*
X68632268Y-88414191D01*
X68646686Y-88427052D01*
X68659130Y-88438236D01*
X68669741Y-88448745D01*
X68678672Y-88459578D01*
X68686067Y-88471734D01*
X68692076Y-88486218D01*
X68696849Y-88504029D01*
X68700530Y-88526163D01*
X68703269Y-88553625D01*
X68705216Y-88587417D01*
X68706515Y-88628535D01*
X68707319Y-88677984D01*
X68707769Y-88736760D01*
X68708021Y-88805865D01*
X68708216Y-88886301D01*
X68708507Y-88979067D01*
X68710346Y-89450733D01*
X69389657Y-89450733D01*
X69391496Y-88979067D01*
X69391670Y-88928337D01*
X69391892Y-88842228D01*
X69392099Y-88767915D01*
X69392438Y-88704405D01*
X69393056Y-88650696D01*
X69394103Y-88605783D01*
X69395729Y-88568670D01*
X69398075Y-88538358D01*
X69401297Y-88513839D01*
X69405536Y-88494120D01*
X69410945Y-88478196D01*
X69417671Y-88465071D01*
X69425861Y-88453737D01*
X69435665Y-88443201D01*
X69447227Y-88432461D01*
X69460697Y-88420512D01*
X69476225Y-88406358D01*
X69507518Y-88375308D01*
X69566831Y-88304256D01*
X69613685Y-88228644D01*
X69648257Y-88148106D01*
X69670721Y-88062261D01*
X69681257Y-87970734D01*
X69682169Y-87909243D01*
X69677471Y-87849873D01*
X69666110Y-87791706D01*
X69647279Y-87728985D01*
X69632801Y-87690351D01*
X69598529Y-87620448D01*
X69554924Y-87556020D01*
X69500000Y-87493896D01*
X69494417Y-87488307D01*
X69424658Y-87428268D01*
X69348941Y-87379779D01*
X69268316Y-87343068D01*
X69183824Y-87318369D01*
X69096506Y-87305913D01*
X69007409Y-87305931D01*
X68917571Y-87318660D01*
X68828042Y-87344328D01*
X68815766Y-87348924D01*
X68739281Y-87385296D01*
X68667677Y-87433410D01*
X68600000Y-87493896D01*
X68570555Y-87525375D01*
X68521631Y-87588273D01*
X68483015Y-87655086D01*
X68452724Y-87728985D01*
X68434925Y-87787659D01*
X68423084Y-87845955D01*
X68417960Y-87905061D01*
X68144373Y-87905061D01*
X68144249Y-87893292D01*
X68155565Y-87788613D01*
X68179484Y-87685026D01*
X68216192Y-87583530D01*
X68225201Y-87563295D01*
X68276828Y-87466482D01*
X68338769Y-87377559D01*
X68410211Y-87297177D01*
X68490353Y-87225987D01*
X68578385Y-87164640D01*
X68673494Y-87113793D01*
X68774879Y-87074094D01*
X68881727Y-87046200D01*
X68905997Y-87042213D01*
X68954408Y-87037371D01*
X69009584Y-87034734D01*
X69067544Y-87034296D01*
X69124298Y-87036063D01*
X69175871Y-87040029D01*
X69218276Y-87046200D01*
X69257351Y-87055302D01*
X69308993Y-87070143D01*
X69362036Y-87087876D01*
X69411623Y-87106857D01*
X69452897Y-87125442D01*
X69529205Y-87168522D01*
X69616064Y-87230631D01*
X69694298Y-87301656D01*
X69763388Y-87380598D01*
X69822809Y-87466455D01*
X69872036Y-87558225D01*
X69910550Y-87654909D01*
X69937823Y-87755502D01*
X69953333Y-87859005D01*
X69954869Y-87909243D01*
X69956555Y-87964416D01*
G37*
G36*
X72504635Y-98995626D02*
G01*
X72487079Y-99097845D01*
X72457499Y-99198309D01*
X72415865Y-99296085D01*
X72362147Y-99390231D01*
X72296312Y-99479814D01*
X72267248Y-99513192D01*
X72190640Y-99587043D01*
X72105566Y-99651039D01*
X72012827Y-99704754D01*
X71913230Y-99747753D01*
X71807573Y-99779607D01*
X71696669Y-99799893D01*
X71689760Y-99800601D01*
X71661170Y-99801816D01*
X71623982Y-99801735D01*
X71581688Y-99800520D01*
X71537792Y-99798333D01*
X71495789Y-99795339D01*
X71459180Y-99791700D01*
X71431463Y-99787575D01*
X71394722Y-99779613D01*
X71292794Y-99748797D01*
X71196758Y-99706896D01*
X71107235Y-99654780D01*
X71024846Y-99593328D01*
X70950206Y-99523407D01*
X70883936Y-99445893D01*
X70826654Y-99361659D01*
X70778978Y-99271581D01*
X70741529Y-99176529D01*
X70714925Y-99077379D01*
X70699784Y-98975004D01*
X70698339Y-98925558D01*
X70971170Y-98925558D01*
X70975865Y-98984928D01*
X70987226Y-99043095D01*
X71006060Y-99105816D01*
X71020535Y-99144450D01*
X71054807Y-99214353D01*
X71098412Y-99278781D01*
X71153336Y-99340905D01*
X71176817Y-99363651D01*
X71247710Y-99420813D01*
X71323934Y-99465852D01*
X71406074Y-99499077D01*
X71494700Y-99520785D01*
X71564369Y-99529122D01*
X71654687Y-99528564D01*
X71742815Y-99515250D01*
X71827751Y-99489504D01*
X71908487Y-99451647D01*
X71984015Y-99402006D01*
X72053336Y-99340905D01*
X72082781Y-99309426D01*
X72131705Y-99246528D01*
X72170321Y-99179715D01*
X72200612Y-99105816D01*
X72218411Y-99047142D01*
X72230255Y-98988846D01*
X72235376Y-98929740D01*
X72234590Y-98864067D01*
X72231245Y-98821521D01*
X72215282Y-98732637D01*
X72187307Y-98649261D01*
X72147146Y-98571021D01*
X72094622Y-98497539D01*
X72029558Y-98428443D01*
X72021071Y-98420610D01*
X72006650Y-98407749D01*
X71994206Y-98396565D01*
X71983595Y-98386056D01*
X71974664Y-98375223D01*
X71967269Y-98363067D01*
X71961260Y-98348583D01*
X71956487Y-98330772D01*
X71952806Y-98308638D01*
X71950067Y-98281176D01*
X71948120Y-98247384D01*
X71946821Y-98206266D01*
X71946020Y-98156817D01*
X71945567Y-98098041D01*
X71945315Y-98028936D01*
X71945120Y-97948500D01*
X71944829Y-97855734D01*
X71942990Y-97384068D01*
X71263679Y-97384068D01*
X71261840Y-97855734D01*
X71261666Y-97906464D01*
X71261444Y-97992573D01*
X71261237Y-98066886D01*
X71260898Y-98130396D01*
X71260280Y-98184105D01*
X71259233Y-98229018D01*
X71257607Y-98266131D01*
X71255261Y-98296443D01*
X71252039Y-98320962D01*
X71247800Y-98340681D01*
X71242391Y-98356605D01*
X71235665Y-98369730D01*
X71227475Y-98381064D01*
X71217674Y-98391600D01*
X71206109Y-98402340D01*
X71192639Y-98414289D01*
X71177111Y-98428443D01*
X71145818Y-98459493D01*
X71086505Y-98530545D01*
X71039651Y-98606157D01*
X71005079Y-98686695D01*
X70982615Y-98772540D01*
X70972079Y-98864067D01*
X70971170Y-98925558D01*
X70698339Y-98925558D01*
X70696724Y-98870274D01*
X70706366Y-98764068D01*
X70707938Y-98754096D01*
X70731968Y-98647950D01*
X70768562Y-98545464D01*
X70817246Y-98447589D01*
X70877546Y-98355294D01*
X70948997Y-98269536D01*
X70990001Y-98225700D01*
X70990001Y-97721286D01*
X70990004Y-97665219D01*
X70990031Y-97578453D01*
X70990106Y-97503549D01*
X70990253Y-97439577D01*
X70990490Y-97385607D01*
X70990847Y-97340706D01*
X70991345Y-97303944D01*
X70992005Y-97274388D01*
X70992854Y-97251111D01*
X70993910Y-97233180D01*
X70995200Y-97219662D01*
X70996742Y-97209627D01*
X70998566Y-97202145D01*
X71000690Y-97196283D01*
X71003141Y-97191114D01*
X71004836Y-97187919D01*
X71028146Y-97157280D01*
X71059265Y-97132776D01*
X71093759Y-97117989D01*
X71094527Y-97117818D01*
X71108384Y-97116405D01*
X71134094Y-97115145D01*
X71170334Y-97114032D01*
X71215781Y-97113066D01*
X71269106Y-97112253D01*
X71328980Y-97111590D01*
X71394086Y-97111074D01*
X71463089Y-97110708D01*
X71534672Y-97110492D01*
X71607503Y-97110426D01*
X71680256Y-97110510D01*
X71751611Y-97110741D01*
X71820239Y-97111125D01*
X71884811Y-97111656D01*
X71944007Y-97112337D01*
X71996498Y-97113168D01*
X72040961Y-97114149D01*
X72076067Y-97115280D01*
X72100493Y-97116561D01*
X72112910Y-97117989D01*
X72116315Y-97118907D01*
X72150674Y-97134804D01*
X72181223Y-97160067D01*
X72203528Y-97191114D01*
X72204989Y-97194078D01*
X72207248Y-97199535D01*
X72209195Y-97206222D01*
X72210854Y-97215069D01*
X72212249Y-97227009D01*
X72213398Y-97242972D01*
X72214331Y-97263888D01*
X72215066Y-97290690D01*
X72215630Y-97324305D01*
X72216044Y-97365672D01*
X72216329Y-97415712D01*
X72216512Y-97475364D01*
X72216614Y-97545558D01*
X72216659Y-97627221D01*
X72216668Y-97721286D01*
X72216668Y-98225700D01*
X72257675Y-98269536D01*
X72293339Y-98309796D01*
X72359117Y-98398026D01*
X72413084Y-98491068D01*
X72455204Y-98587983D01*
X72485450Y-98687835D01*
X72503789Y-98789682D01*
X72510194Y-98892594D01*
X72508190Y-98929740D01*
X72504635Y-98995626D01*
G37*
G36*
X72509891Y-87964416D02*
G01*
X72500303Y-88070733D01*
X72498731Y-88080705D01*
X72474701Y-88186851D01*
X72438107Y-88289337D01*
X72389423Y-88387212D01*
X72329123Y-88479507D01*
X72257675Y-88565265D01*
X72216668Y-88609101D01*
X72216668Y-89113515D01*
X72216665Y-89176197D01*
X72216638Y-89262057D01*
X72216560Y-89336121D01*
X72216413Y-89399322D01*
X72216170Y-89452590D01*
X72215807Y-89496861D01*
X72215303Y-89533062D01*
X72214634Y-89562129D01*
X72213776Y-89584989D01*
X72212705Y-89602578D01*
X72211400Y-89615823D01*
X72209834Y-89625660D01*
X72207986Y-89633022D01*
X72205832Y-89638836D01*
X72203351Y-89644035D01*
X72183509Y-89672271D01*
X72153149Y-89698344D01*
X72118478Y-89715222D01*
X72116510Y-89715663D01*
X72101447Y-89717136D01*
X72074729Y-89718471D01*
X72037670Y-89719668D01*
X71991578Y-89720724D01*
X71937761Y-89721636D01*
X71877527Y-89722404D01*
X71812190Y-89723025D01*
X71743052Y-89723499D01*
X71671427Y-89723820D01*
X71598623Y-89723988D01*
X71525951Y-89724000D01*
X71454716Y-89723859D01*
X71386229Y-89723556D01*
X71321801Y-89723091D01*
X71262740Y-89722464D01*
X71210357Y-89721672D01*
X71165957Y-89720712D01*
X71130851Y-89719584D01*
X71106347Y-89718285D01*
X71093759Y-89716812D01*
X71090357Y-89715894D01*
X71055998Y-89699997D01*
X71025446Y-89674734D01*
X71003141Y-89643687D01*
X71001680Y-89640723D01*
X70999421Y-89635266D01*
X70997474Y-89628579D01*
X70995815Y-89619732D01*
X70994423Y-89607792D01*
X70993271Y-89591829D01*
X70992338Y-89570913D01*
X70991603Y-89544111D01*
X70991039Y-89510496D01*
X70990625Y-89469129D01*
X70990340Y-89419089D01*
X70990157Y-89359437D01*
X70990055Y-89289243D01*
X70990010Y-89207580D01*
X70990001Y-89113515D01*
X70990001Y-88609101D01*
X70948997Y-88565265D01*
X70884158Y-88488303D01*
X70823681Y-88398066D01*
X70774712Y-88302924D01*
X70737437Y-88203876D01*
X70712033Y-88101924D01*
X70698686Y-87998061D01*
X70697706Y-87905061D01*
X70971293Y-87905061D01*
X70972079Y-87970734D01*
X70975424Y-88013280D01*
X70991387Y-88102164D01*
X71019362Y-88185540D01*
X71059523Y-88263780D01*
X71112047Y-88337262D01*
X71177111Y-88406358D01*
X71185601Y-88414191D01*
X71200019Y-88427052D01*
X71212463Y-88438236D01*
X71223074Y-88448745D01*
X71232005Y-88459578D01*
X71239400Y-88471734D01*
X71245409Y-88486218D01*
X71250182Y-88504029D01*
X71253863Y-88526163D01*
X71256602Y-88553625D01*
X71258549Y-88587417D01*
X71259848Y-88628535D01*
X71260652Y-88677984D01*
X71261102Y-88736760D01*
X71261354Y-88805865D01*
X71261549Y-88886301D01*
X71261840Y-88979067D01*
X71263679Y-89450733D01*
X71942990Y-89450733D01*
X71944829Y-88979067D01*
X71945003Y-88928337D01*
X71945225Y-88842228D01*
X71945432Y-88767915D01*
X71945771Y-88704405D01*
X71946389Y-88650696D01*
X71947439Y-88605783D01*
X71949062Y-88568670D01*
X71951408Y-88538358D01*
X71954630Y-88513839D01*
X71958869Y-88494120D01*
X71964278Y-88478196D01*
X71971004Y-88465071D01*
X71979194Y-88453737D01*
X71988998Y-88443201D01*
X72000560Y-88432461D01*
X72014030Y-88420512D01*
X72029558Y-88406358D01*
X72060854Y-88375308D01*
X72120164Y-88304256D01*
X72167018Y-88228644D01*
X72201590Y-88148106D01*
X72224054Y-88062261D01*
X72234590Y-87970734D01*
X72235502Y-87909243D01*
X72230804Y-87849873D01*
X72219443Y-87791706D01*
X72200612Y-87728985D01*
X72186134Y-87690351D01*
X72151862Y-87620448D01*
X72108257Y-87556020D01*
X72053336Y-87493896D01*
X72047753Y-87488307D01*
X71977991Y-87428268D01*
X71902274Y-87379779D01*
X71821649Y-87343068D01*
X71737157Y-87318369D01*
X71649839Y-87305913D01*
X71560742Y-87305931D01*
X71470904Y-87318660D01*
X71381375Y-87344328D01*
X71369099Y-87348924D01*
X71292614Y-87385296D01*
X71221010Y-87433410D01*
X71153336Y-87493896D01*
X71123888Y-87525375D01*
X71074964Y-87588273D01*
X71036351Y-87655086D01*
X71006060Y-87728985D01*
X70988258Y-87787659D01*
X70976417Y-87845955D01*
X70971293Y-87905061D01*
X70697706Y-87905061D01*
X70697582Y-87893292D01*
X70708898Y-87788613D01*
X70732817Y-87685026D01*
X70769528Y-87583530D01*
X70778537Y-87563295D01*
X70830161Y-87466482D01*
X70892102Y-87377559D01*
X70963547Y-87297177D01*
X71043686Y-87225987D01*
X71131718Y-87164640D01*
X71226827Y-87113793D01*
X71328212Y-87074094D01*
X71435060Y-87046200D01*
X71459330Y-87042213D01*
X71507741Y-87037371D01*
X71562917Y-87034734D01*
X71620877Y-87034296D01*
X71677631Y-87036063D01*
X71729204Y-87040029D01*
X71771609Y-87046200D01*
X71810684Y-87055302D01*
X71862326Y-87070143D01*
X71915369Y-87087876D01*
X71964956Y-87106857D01*
X72006230Y-87125442D01*
X72082538Y-87168522D01*
X72169397Y-87230631D01*
X72247631Y-87301656D01*
X72316721Y-87380598D01*
X72376142Y-87466455D01*
X72425369Y-87558225D01*
X72463883Y-87654909D01*
X72491156Y-87755502D01*
X72506666Y-87859005D01*
X72508202Y-87909243D01*
X72509891Y-87964416D01*
G37*
G36*
X74320001Y-96014067D02*
G01*
X74304926Y-96073248D01*
X74287040Y-96131700D01*
X74251373Y-96212919D01*
X74205533Y-96287421D01*
X74150525Y-96354315D01*
X74087363Y-96412707D01*
X74017052Y-96461703D01*
X73940606Y-96500412D01*
X73859030Y-96527940D01*
X73773335Y-96543396D01*
X73771532Y-96543516D01*
X73757102Y-96543906D01*
X73729877Y-96544281D01*
X73690280Y-96544647D01*
X73638719Y-96545001D01*
X73575611Y-96545340D01*
X73501370Y-96545670D01*
X73416413Y-96545988D01*
X73321151Y-96546291D01*
X73216001Y-96546585D01*
X73101374Y-96546864D01*
X72977693Y-96547134D01*
X72845363Y-96547392D01*
X72704804Y-96547635D01*
X72556430Y-96547869D01*
X72400655Y-96548088D01*
X72237896Y-96548298D01*
X72068564Y-96548493D01*
X71893076Y-96548679D01*
X71711843Y-96548850D01*
X71525285Y-96549009D01*
X71333813Y-96549159D01*
X71137844Y-96549294D01*
X70937789Y-96549417D01*
X70734068Y-96549528D01*
X70527092Y-96549627D01*
X70317275Y-96549714D01*
X70105034Y-96549786D01*
X69890780Y-96549849D01*
X69674933Y-96549900D01*
X69457904Y-96549936D01*
X69240110Y-96549960D01*
X69021962Y-96549975D01*
X68803877Y-96549975D01*
X68586272Y-96549963D01*
X68369558Y-96549936D01*
X68154149Y-96549900D01*
X67940462Y-96549852D01*
X67728911Y-96549789D01*
X67519913Y-96549714D01*
X67313879Y-96549627D01*
X67111223Y-96549528D01*
X66912365Y-96549417D01*
X66717713Y-96549291D01*
X66527687Y-96549153D01*
X66342698Y-96549006D01*
X66163163Y-96548844D01*
X65989496Y-96548667D01*
X65822111Y-96548481D01*
X65661425Y-96548280D01*
X65507849Y-96548067D01*
X65361800Y-96547842D01*
X65223692Y-96547605D01*
X65093939Y-96547353D01*
X64972958Y-96547089D01*
X64861160Y-96546813D01*
X64758962Y-96546525D01*
X64666778Y-96546225D01*
X64585025Y-96545910D01*
X64514114Y-96545583D01*
X64454462Y-96545241D01*
X64406480Y-96544890D01*
X64370588Y-96544524D01*
X64347200Y-96544146D01*
X64336727Y-96543753D01*
X64280558Y-96535500D01*
X64193993Y-96512418D01*
X64113092Y-96477918D01*
X64038719Y-96432753D01*
X63971744Y-96377676D01*
X63913025Y-96313434D01*
X63863432Y-96240783D01*
X63823829Y-96160470D01*
X63795077Y-96073248D01*
X63780002Y-96014067D01*
X63780002Y-95994066D01*
X64053335Y-95994066D01*
X64068914Y-96039174D01*
X64091813Y-96091944D01*
X64128920Y-96148011D01*
X64175867Y-96195435D01*
X64232003Y-96233571D01*
X64296668Y-96261777D01*
X64297718Y-96262113D01*
X64300580Y-96262887D01*
X64304216Y-96263622D01*
X64308917Y-96264327D01*
X64314974Y-96265002D01*
X64322678Y-96265641D01*
X64332326Y-96266253D01*
X64344206Y-96266835D01*
X64358612Y-96267387D01*
X64375835Y-96267912D01*
X64396169Y-96268407D01*
X64419905Y-96268878D01*
X64447331Y-96269325D01*
X64478747Y-96269745D01*
X64514438Y-96270141D01*
X64554701Y-96270513D01*
X64599824Y-96270864D01*
X64650104Y-96271194D01*
X64705829Y-96271503D01*
X64767293Y-96271791D01*
X64834787Y-96272061D01*
X64908605Y-96272313D01*
X64989038Y-96272547D01*
X65076377Y-96272763D01*
X65170916Y-96272964D01*
X65272946Y-96273150D01*
X65382758Y-96273321D01*
X65500646Y-96273480D01*
X65626901Y-96273627D01*
X65761817Y-96273762D01*
X65905685Y-96273885D01*
X66058796Y-96273996D01*
X66221441Y-96274101D01*
X66393917Y-96274197D01*
X66576512Y-96274284D01*
X66769520Y-96274365D01*
X66973232Y-96274437D01*
X67187939Y-96274506D01*
X67413935Y-96274572D01*
X67651514Y-96274632D01*
X67900964Y-96274689D01*
X68162579Y-96274746D01*
X68436650Y-96274800D01*
X68723471Y-96274854D01*
X69023336Y-96274911D01*
X69220577Y-96274941D01*
X69467948Y-96274965D01*
X69711854Y-96274977D01*
X69951959Y-96274971D01*
X70187918Y-96274953D01*
X70419392Y-96274920D01*
X70646042Y-96274875D01*
X70867526Y-96274815D01*
X71083508Y-96274740D01*
X71293640Y-96274656D01*
X71497589Y-96274557D01*
X71695010Y-96274446D01*
X71885564Y-96274323D01*
X72068912Y-96274191D01*
X72244712Y-96274047D01*
X72412625Y-96273891D01*
X72572309Y-96273723D01*
X72723425Y-96273546D01*
X72865631Y-96273360D01*
X72998588Y-96273165D01*
X73121957Y-96272961D01*
X73235393Y-96272745D01*
X73338563Y-96272523D01*
X73431119Y-96272292D01*
X73512725Y-96272052D01*
X73583039Y-96271806D01*
X73641725Y-96271554D01*
X73688435Y-96271293D01*
X73722836Y-96271023D01*
X73744580Y-96270750D01*
X73753334Y-96270471D01*
X73803866Y-96259833D01*
X73863680Y-96235878D01*
X73917131Y-96201357D01*
X73963058Y-96157431D01*
X74000303Y-96105246D01*
X74027708Y-96045963D01*
X74044115Y-95980734D01*
X74044184Y-95980179D01*
X74044703Y-95968416D01*
X74045192Y-95943645D01*
X74045654Y-95906157D01*
X74046086Y-95856243D01*
X74046488Y-95794194D01*
X74046860Y-95720295D01*
X74047202Y-95634843D01*
X74047514Y-95538123D01*
X74047793Y-95430426D01*
X74048039Y-95312043D01*
X74048252Y-95183262D01*
X74048435Y-95044374D01*
X74048582Y-94895670D01*
X74048696Y-94737438D01*
X74048774Y-94569969D01*
X74048819Y-94393551D01*
X74048825Y-94208475D01*
X74048798Y-94015035D01*
X74048735Y-93813513D01*
X74048633Y-93604206D01*
X74048495Y-93387402D01*
X74046668Y-90834066D01*
X74028851Y-90788205D01*
X74005793Y-90738690D01*
X73967477Y-90682320D01*
X73920200Y-90635718D01*
X73864271Y-90599172D01*
X73800002Y-90572979D01*
X73798775Y-90572619D01*
X73795670Y-90571854D01*
X73791773Y-90571122D01*
X73786790Y-90570423D01*
X73780433Y-90569754D01*
X73772411Y-90569118D01*
X73762427Y-90568512D01*
X73750193Y-90567939D01*
X73735418Y-90567390D01*
X73717808Y-90566874D01*
X73697072Y-90566382D01*
X73672922Y-90565917D01*
X73645061Y-90565482D01*
X73613198Y-90565068D01*
X73577045Y-90564681D01*
X73536308Y-90564315D01*
X73490696Y-90563976D01*
X73439915Y-90563655D01*
X73383677Y-90563358D01*
X73321688Y-90563082D01*
X73253657Y-90562827D01*
X73179290Y-90562590D01*
X73098302Y-90562371D01*
X73010393Y-90562170D01*
X72915278Y-90561987D01*
X72812660Y-90561819D01*
X72702254Y-90561666D01*
X72583763Y-90561531D01*
X72456896Y-90561408D01*
X72321362Y-90561297D01*
X72176870Y-90561201D01*
X72023126Y-90561114D01*
X71859842Y-90561039D01*
X71686724Y-90560976D01*
X71503481Y-90560922D01*
X71309819Y-90560877D01*
X71105453Y-90560838D01*
X70890083Y-90560808D01*
X70663424Y-90560784D01*
X70425179Y-90560766D01*
X70175060Y-90560751D01*
X69912776Y-90560742D01*
X69638030Y-90560736D01*
X69350537Y-90560736D01*
X69050000Y-90560733D01*
X68911823Y-90560733D01*
X68617250Y-90560736D01*
X68335586Y-90560739D01*
X68066537Y-90560745D01*
X67809815Y-90560757D01*
X67565129Y-90560772D01*
X67332182Y-90560793D01*
X67110689Y-90560820D01*
X66900356Y-90560853D01*
X66700886Y-90560895D01*
X66511997Y-90560946D01*
X66333389Y-90561003D01*
X66164774Y-90561072D01*
X66005861Y-90561153D01*
X65856359Y-90561243D01*
X65715971Y-90561345D01*
X65584412Y-90561462D01*
X65461385Y-90561591D01*
X65346605Y-90561735D01*
X65239772Y-90561894D01*
X65140598Y-90562068D01*
X65048795Y-90562260D01*
X64964066Y-90562467D01*
X64886123Y-90562695D01*
X64814672Y-90562941D01*
X64749422Y-90563205D01*
X64690082Y-90563493D01*
X64636358Y-90563799D01*
X64587962Y-90564126D01*
X64544600Y-90564480D01*
X64505981Y-90564852D01*
X64471814Y-90565251D01*
X64441805Y-90565677D01*
X64415666Y-90566127D01*
X64393103Y-90566601D01*
X64373825Y-90567105D01*
X64357538Y-90567636D01*
X64343954Y-90568194D01*
X64332779Y-90568785D01*
X64323722Y-90569403D01*
X64316492Y-90570054D01*
X64310795Y-90570735D01*
X64306343Y-90571449D01*
X64302842Y-90572196D01*
X64300001Y-90572979D01*
X64240985Y-90596658D01*
X64184216Y-90632562D01*
X64136051Y-90678237D01*
X64097333Y-90732864D01*
X64068914Y-90795627D01*
X64053335Y-90840735D01*
X64053335Y-95994066D01*
X63780002Y-95994066D01*
X63780002Y-90820734D01*
X63795077Y-90761553D01*
X63811589Y-90706674D01*
X63847172Y-90623649D01*
X63893075Y-90548001D01*
X63948431Y-90480477D01*
X64012373Y-90421833D01*
X64084040Y-90372816D01*
X64162562Y-90334179D01*
X64247081Y-90306672D01*
X64336727Y-90291048D01*
X64337450Y-90290985D01*
X64350275Y-90290538D01*
X64375961Y-90290103D01*
X64414091Y-90289683D01*
X64464251Y-90289278D01*
X64526027Y-90288888D01*
X64599002Y-90288510D01*
X64682756Y-90288147D01*
X64776878Y-90287799D01*
X64880951Y-90287463D01*
X64994561Y-90287145D01*
X65117288Y-90286839D01*
X65248718Y-90286548D01*
X65388437Y-90286269D01*
X65536028Y-90286008D01*
X65691074Y-90285759D01*
X65853161Y-90285525D01*
X66021872Y-90285303D01*
X66196793Y-90285099D01*
X66377504Y-90284907D01*
X66563594Y-90284730D01*
X66754646Y-90284565D01*
X66950243Y-90284418D01*
X67149971Y-90284283D01*
X67353413Y-90284163D01*
X67560152Y-90284058D01*
X67769774Y-90283965D01*
X67981862Y-90283887D01*
X68195999Y-90283824D01*
X68411774Y-90283776D01*
X68628767Y-90283740D01*
X68846564Y-90283719D01*
X69064748Y-90283713D01*
X69282905Y-90283722D01*
X69500618Y-90283746D01*
X69717470Y-90283782D01*
X69933047Y-90283833D01*
X70146935Y-90283896D01*
X70358714Y-90283977D01*
X70567970Y-90284070D01*
X70774286Y-90284178D01*
X70977251Y-90284301D01*
X71176445Y-90284436D01*
X71371451Y-90284589D01*
X71561855Y-90284754D01*
X71747243Y-90284931D01*
X71927198Y-90285126D01*
X72101303Y-90285333D01*
X72269144Y-90285555D01*
X72430304Y-90285792D01*
X72584366Y-90286041D01*
X72730919Y-90286308D01*
X72869540Y-90286587D01*
X72999821Y-90286878D01*
X73121339Y-90287187D01*
X73233683Y-90287508D01*
X73336436Y-90287844D01*
X73429181Y-90288195D01*
X73511504Y-90288561D01*
X73582988Y-90288939D01*
X73643219Y-90289332D01*
X73691777Y-90289740D01*
X73728251Y-90290160D01*
X73752224Y-90290598D01*
X73763276Y-90291048D01*
X73819445Y-90299301D01*
X73906010Y-90322383D01*
X73986911Y-90356883D01*
X74061284Y-90402048D01*
X74128259Y-90457125D01*
X74186978Y-90521367D01*
X74236571Y-90594018D01*
X74276174Y-90674331D01*
X74304926Y-90761553D01*
X74320001Y-90820734D01*
X74320001Y-94208475D01*
X74320001Y-96014067D01*
G37*
D13*
%TO.C,C19*%
X80030000Y-125545635D02*
X80030000Y-125838169D01*
X81050000Y-125545635D02*
X81050000Y-125838169D01*
%TO.C,C21*%
X99080000Y-144595635D02*
X99080000Y-144888169D01*
X100100000Y-144595635D02*
X100100000Y-144888169D01*
%TO.C,D6*%
X113322000Y-87491402D02*
X113322000Y-91501402D01*
X113322000Y-91501402D02*
X115322000Y-91501402D01*
X115322000Y-87491402D02*
X115322000Y-91501402D01*
%TO.C,D7*%
X132372000Y-87491402D02*
X132372000Y-91501402D01*
X132372000Y-91501402D02*
X134372000Y-91501402D01*
X134372000Y-87491402D02*
X134372000Y-91501402D01*
%TO.C,C9*%
X118130000Y-87445635D02*
X118130000Y-87738169D01*
X119150000Y-87445635D02*
X119150000Y-87738169D01*
%TO.C,D12*%
X151422000Y-106541402D02*
X151422000Y-110551402D01*
X151422000Y-110551402D02*
X153422000Y-110551402D01*
X153422000Y-106541402D02*
X153422000Y-110551402D01*
%TO.C,C3*%
X80030000Y-68395635D02*
X80030000Y-68688169D01*
X81050000Y-68395635D02*
X81050000Y-68688169D01*
%TO.C,R2*%
X129412224Y-49122902D02*
X128902776Y-49122902D01*
X129412224Y-50167902D02*
X128902776Y-50167902D01*
%TO.C,D5*%
X94272000Y-87491402D02*
X94272000Y-91501402D01*
X94272000Y-91501402D02*
X96272000Y-91501402D01*
X96272000Y-87491402D02*
X96272000Y-91501402D01*
%TO.C,C14*%
X80030000Y-87445635D02*
X80030000Y-87738169D01*
X81050000Y-87445635D02*
X81050000Y-87738169D01*
%TO.C,C25*%
X131338000Y-45689135D02*
X131338000Y-45981669D01*
X132358000Y-45689135D02*
X132358000Y-45981669D01*
%TO.C,D1*%
X94272000Y-68441402D02*
X94272000Y-72451402D01*
X94272000Y-72451402D02*
X96272000Y-72451402D01*
X96272000Y-68441402D02*
X96272000Y-72451402D01*
%TO.C,C7*%
X137180000Y-68395635D02*
X137180000Y-68688169D01*
X138200000Y-68395635D02*
X138200000Y-68688169D01*
%TO.C,D3*%
X132372000Y-68441402D02*
X132372000Y-72451402D01*
X132372000Y-72451402D02*
X134372000Y-72451402D01*
X134372000Y-68441402D02*
X134372000Y-72451402D01*
%TO.C,R3*%
X129412224Y-50646902D02*
X128902776Y-50646902D01*
X129412224Y-51691902D02*
X128902776Y-51691902D01*
%TO.C,R5*%
X71889500Y-46193626D02*
X71889500Y-45684178D01*
X72934500Y-46193626D02*
X72934500Y-45684178D01*
%TO.C,C18*%
X99080000Y-125545635D02*
X99080000Y-125838169D01*
X100100000Y-125545635D02*
X100100000Y-125838169D01*
%TO.C,U3*%
X95569700Y-58971802D02*
X96369700Y-58971802D01*
X95569700Y-62091802D02*
X96369700Y-62091802D01*
X97169700Y-58971802D02*
X96369700Y-58971802D01*
X97169700Y-62091802D02*
X96369700Y-62091802D01*
X97669700Y-59021802D02*
X97429700Y-58691802D01*
X97909700Y-58691802D01*
X97669700Y-59021802D01*
G36*
X97669700Y-59021802D02*
G01*
X97429700Y-58691802D01*
X97909700Y-58691802D01*
X97669700Y-59021802D01*
G37*
%TO.C,D11*%
X132372000Y-106541402D02*
X132372000Y-110551402D01*
X132372000Y-110551402D02*
X134372000Y-110551402D01*
X134372000Y-106541402D02*
X134372000Y-110551402D01*
%TO.C,D16*%
X151422000Y-125591402D02*
X151422000Y-129601402D01*
X151422000Y-129601402D02*
X153422000Y-129601402D01*
X153422000Y-125591402D02*
X153422000Y-129601402D01*
%TO.C,C10*%
X137180000Y-106495635D02*
X137180000Y-106788169D01*
X138200000Y-106495635D02*
X138200000Y-106788169D01*
%TO.C,C5*%
X99080000Y-68395635D02*
X99080000Y-68688169D01*
X100100000Y-68395635D02*
X100100000Y-68688169D01*
%TO.C,U1*%
X114857500Y-34827402D02*
X97057500Y-34827402D01*
X97057500Y-55827402D01*
X114857500Y-55827402D01*
X114857500Y-34827402D01*
%TO.C,C4*%
X74950000Y-42490635D02*
X74950000Y-42783169D01*
X75970000Y-42490635D02*
X75970000Y-42783169D01*
%TO.C,D13*%
X94272000Y-125591402D02*
X94272000Y-129601402D01*
X94272000Y-129601402D02*
X96272000Y-129601402D01*
X96272000Y-125591402D02*
X96272000Y-129601402D01*
%TO.C,R10*%
X128277500Y-46093126D02*
X128277500Y-45583678D01*
X129322500Y-46093126D02*
X129322500Y-45583678D01*
%TO.C,C2*%
X74950000Y-45792635D02*
X74950000Y-46085169D01*
X75970000Y-45792635D02*
X75970000Y-46085169D01*
%TO.C,R1*%
X71076700Y-73725778D02*
X71076700Y-74235226D01*
X72121700Y-73725778D02*
X72121700Y-74235226D01*
%TO.C,D21*%
X74079000Y-50637002D02*
X74079000Y-54647002D01*
X74079000Y-54647002D02*
X76079000Y-54647002D01*
X76079000Y-50637002D02*
X76079000Y-54647002D01*
%TO.C,D10*%
X113322000Y-106541402D02*
X113322000Y-110551402D01*
X113322000Y-110551402D02*
X115322000Y-110551402D01*
X115322000Y-106541402D02*
X115322000Y-110551402D01*
%TO.C,R11*%
X129801500Y-46093126D02*
X129801500Y-45583678D01*
X130846500Y-46093126D02*
X130846500Y-45583678D01*
%TO.C,D4*%
X151422000Y-68441402D02*
X151422000Y-72451402D01*
X151422000Y-72451402D02*
X153422000Y-72451402D01*
X153422000Y-68441402D02*
X153422000Y-72451402D01*
%TO.C,R8*%
X71889500Y-42382178D02*
X71889500Y-42891626D01*
X72934500Y-42382178D02*
X72934500Y-42891626D01*
%TO.C,R6*%
X73413500Y-46193626D02*
X73413500Y-45684178D01*
X74458500Y-46193626D02*
X74458500Y-45684178D01*
%TO.C,C23*%
X137180000Y-144595635D02*
X137180000Y-144888169D01*
X138200000Y-144595635D02*
X138200000Y-144888169D01*
%TO.C,R16*%
X124279976Y-147391702D02*
X124789424Y-147391702D01*
X124279976Y-148436702D02*
X124789424Y-148436702D01*
%TO.C,D19*%
X132372000Y-144641402D02*
X132372000Y-148651402D01*
X132372000Y-148651402D02*
X134372000Y-148651402D01*
X134372000Y-144641402D02*
X134372000Y-148651402D01*
%TO.C,C1*%
X63258900Y-77727369D02*
X63258900Y-77434835D01*
X64278900Y-77727369D02*
X64278900Y-77434835D01*
%TO.C,R12*%
X124238900Y-72889026D02*
X124238900Y-72379578D01*
X125283900Y-72889026D02*
X125283900Y-72379578D01*
%TO.C,C17*%
X118130000Y-125545635D02*
X118130000Y-125838169D01*
X119150000Y-125545635D02*
X119150000Y-125838169D01*
%TO.C,D2*%
X113322000Y-68441402D02*
X113322000Y-72451402D01*
X113322000Y-72451402D02*
X115322000Y-72451402D01*
X115322000Y-68441402D02*
X115322000Y-72451402D01*
%TO.C,R7*%
X129801500Y-42788126D02*
X129801500Y-42278678D01*
X130846500Y-42788126D02*
X130846500Y-42278678D01*
%TD*%
M02*
