M48
; DRILL file {KiCad 8.0.0} date 2024-11-26T10:45:55-0500
; FORMAT={-:-/ absolute / inch / decimal}
; #@! TF.CreationDate,2024-11-26T10:45:55-05:00
; #@! TF.GenerationSoftware,Kicad,Pcbnew,8.0.0
; #@! TF.FileFunction,Plated,1,2,PTH
FMAT,2
INCH
; #@! TA.AperFunction,Plated,PTH,ViaDrill
T1C0.0118
; #@! TA.AperFunction,Plated,PTH,ComponentDrill
T2C0.0394
; #@! TA.AperFunction,Plated,PTH,ComponentDrill
T3C0.0472
; #@! TA.AperFunction,Plated,PTH,ComponentDrill
T4C0.0591
; #@! TA.AperFunction,Plated,PTH,ComponentDrill
T5C0.0669
%
G90
G05
T1
X2.6089Y-3.0425
X2.6469Y-2.7245
X2.6629Y-2.9105
X2.6969Y-2.7155
X2.6979Y-2.9795
X2.7569Y-3.1275
X2.7806Y-3.2483
X2.8306Y-3.2783
X2.8929Y-3.1995
X2.8989Y-1.4745
X2.9809Y-3.6245
X2.9809Y-3.656
X2.9809Y-3.6875
X3.2209Y-5.7245
X3.2309Y-4.2245
X3.2309Y-5.655
X3.2709Y-3.6045
X3.2709Y-3.8045
X3.3185Y-2.655
X3.3185Y-3.405
X3.3185Y-4.905
X3.3209Y-4.1545
X3.3309Y-2.1345
X3.4009Y-3.8745
X3.4429Y-1.4341
X3.4609Y-4.4045
X3.5809Y-2.9045
X3.6109Y-2.3845
X3.6109Y-2.6745
X3.6209Y-5.6945
X3.6309Y-1.5545
X3.6309Y-1.6985
X3.6309Y-4.1945
X3.6509Y-2.1045
X3.6609Y-4.9345
X3.6709Y-3.4445
X3.6809Y-5.0645
X3.7009Y-3.5745
X3.7439Y-1.4835
X3.8309Y-2.5845
X3.8309Y-4.9445
X3.8509Y-2.7645
X3.9709Y-4.155
X3.9709Y-4.2245
X3.9709Y-5.7245
X3.9809Y-2.655
X3.9909Y-5.655
X3.9959Y-2.0865
X4.0209Y-3.2845
X4.0209Y-3.3745
X4.0209Y-3.6245
X4.0209Y-3.7945
X4.0209Y-4.1145
X4.0209Y-4.2945
X4.0209Y-4.7845
X4.0209Y-4.8745
X4.0609Y-4.905
X4.0685Y-2.655
X4.0685Y-3.405
X4.0709Y-4.1545
X4.0879Y-2.1809
X4.1189Y-1.5245
X4.2929Y-1.9985
X4.3109Y-5.0245
X4.3309Y-3.5245
X4.3809Y-4.2045
X4.3809Y-5.6845
X4.4009Y-2.7045
X4.4809Y-2.9145
X4.5909Y-2.7745
X4.5909Y-3.4645
X4.6209Y-4.2645
X4.7169Y-2.0585
X4.7209Y-2.9045
X4.7309Y-2.655
X4.7309Y-2.7145
X4.7309Y-4.155
X4.7309Y-4.9645
X4.7309Y-5.7345
X4.7409Y-5.655
X4.7709Y-2.6245
X4.7709Y-2.7845
X4.7709Y-3.2845
X4.7709Y-3.3745
X4.7709Y-3.6045
X4.7709Y-3.8045
X4.7709Y-4.1245
X4.7709Y-4.2945
X4.7709Y-4.7845
X4.7709Y-4.8745
X4.8185Y-2.655
X4.8185Y-3.405
X4.8185Y-4.155
X4.8185Y-4.905
X4.8209Y-5.1545
X4.8339Y-1.8975
X4.8709Y-2.2282
X4.9409Y-1.8345
X4.9499Y-1.5845
X4.9809Y-1.7715
X5.0309Y-2.5445
X5.0609Y-3.5245
X5.0609Y-5.0245
X5.0739Y-1.5825
X5.1119Y-1.8975
X5.1209Y-4.2145
X5.1309Y-2.6945
X5.1309Y-5.7045
X5.1709Y-3.6875
X5.2909Y-3.3345
X5.3309Y-2.2745
X5.3589Y-5.7795
X5.3609Y-2.7745
X5.4609Y-3.7845
X5.4709Y-4.2745
X5.4709Y-4.5245
X5.4809Y-3.405
X5.4809Y-4.155
X5.4809Y-4.905
X5.4909Y-2.655
X5.4909Y-3.4645
X5.4909Y-3.6875
X5.4909Y-5.655
X5.5685Y-2.7745
X5.5685Y-2.9345
X5.5685Y-4.2745
X5.5685Y-4.4445
X5.5709Y-4.0445
X5.6609Y-2.3545
X5.6809Y-4.4045
X5.8709Y-2.6745
X5.8709Y-4.2245
X5.9909Y-2.3545
T2
X3.1309Y-1.6577
X3.1309Y-1.7561
X3.1309Y-1.8545
X3.7017Y-1.6577
X3.7017Y-1.8545
X5.3909Y-1.6477
X5.3909Y-1.7461
X5.3909Y-1.8445
X5.9617Y-1.6477
X5.9617Y-1.8445
T3
X2.602Y-2.5377
X2.7398Y-2.5377
X2.7398Y-5.4314
T4
X3.2709Y-2.3845
X3.2709Y-3.1345
X3.2709Y-3.8845
X3.2709Y-4.6345
X3.2709Y-5.3845
X3.5209Y-2.2845
X3.5209Y-3.0345
X3.5209Y-3.7845
X3.5209Y-4.5345
X3.5209Y-5.2845
X4.0209Y-2.3845
X4.0209Y-3.1345
X4.0209Y-3.8845
X4.0209Y-4.6345
X4.0209Y-5.3845
X4.2709Y-2.2845
X4.2709Y-3.0345
X4.2709Y-3.7845
X4.2709Y-4.5345
X4.2709Y-5.2845
X4.7709Y-2.3845
X4.7709Y-3.1345
X4.7709Y-3.8845
X4.7709Y-4.6345
X4.7709Y-5.3845
X5.0209Y-2.2845
X5.0209Y-3.0345
X5.0209Y-3.7845
X5.0209Y-4.5345
X5.0209Y-5.2845
X5.5209Y-2.3845
X5.5209Y-3.1345
X5.5209Y-3.8845
X5.5209Y-4.6345
X5.5209Y-5.3845
X5.7709Y-2.2845
X5.7709Y-3.0345
X5.7709Y-3.7845
X5.7709Y-4.5345
X5.7709Y-5.2845
T5
X2.5035Y-2.7011
X2.5035Y-5.268
X2.8382Y-2.7483
X2.8382Y-5.2208
T4
G00X3.4006Y-1.5356
M15
G01X3.4517Y-1.5356
M16
G05
G00X3.4006Y-1.9766
M15
G01X3.4517Y-1.9766
M16
G05
G00X5.6606Y-1.5256
M15
G01X5.7117Y-1.5256
M16
G05
G00X5.6606Y-1.9666
M15
G01X5.7117Y-1.9666
M16
G05
M30
