%TF.GenerationSoftware,KiCad,Pcbnew,8.0.0*%
%TF.CreationDate,2024-11-26T10:36:05-05:00*%
%TF.ProjectId,macropad,6d616372-6f70-4616-942e-6b696361645f,v1.0*%
%TF.SameCoordinates,Original*%
%TF.FileFunction,Soldermask,Bot*%
%TF.FilePolarity,Negative*%
%FSLAX46Y46*%
G04 Gerber Fmt 4.6, Leading zero omitted, Abs format (unit mm)*
G04 Created by KiCad (PCBNEW 8.0.0) date 2024-11-26 10:36:05*
%MOMM*%
%LPD*%
G01*
G04 APERTURE LIST*
G04 Aperture macros list*
%AMRoundRect*
0 Rectangle with rounded corners*
0 $1 Rounding radius*
0 $2 $3 $4 $5 $6 $7 $8 $9 X,Y pos of 4 corners*
0 Add a 4 corners polygon primitive as box body*
4,1,4,$2,$3,$4,$5,$6,$7,$8,$9,$2,$3,0*
0 Add four circle primitives for the rounded corners*
1,1,$1+$1,$2,$3*
1,1,$1+$1,$4,$5*
1,1,$1+$1,$6,$7*
1,1,$1+$1,$8,$9*
0 Add four rect primitives between the rounded corners*
20,1,$1+$1,$2,$3,$4,$5,0*
20,1,$1+$1,$4,$5,$6,$7,0*
20,1,$1+$1,$6,$7,$8,$9,0*
20,1,$1+$1,$8,$9,$2,$3,0*%
G04 Aperture macros list end*
%ADD10RoundRect,0.082000X-0.718000X0.328000X-0.718000X-0.328000X0.718000X-0.328000X0.718000X0.328000X0*%
%ADD11C,1.700000*%
%ADD12C,4.000000*%
%ADD13C,2.200000*%
%ADD14R,2.000000X2.000000*%
%ADD15C,2.000000*%
%ADD16R,3.200000X2.000000*%
%ADD17C,3.000000*%
%ADD18C,2.500000*%
%ADD19RoundRect,0.237500X-0.237500X0.250000X-0.237500X-0.250000X0.237500X-0.250000X0.237500X0.250000X0*%
%ADD20RoundRect,0.237500X0.237500X-0.300000X0.237500X0.300000X-0.237500X0.300000X-0.237500X-0.300000X0*%
%ADD21RoundRect,0.225000X-0.225000X-0.375000X0.225000X-0.375000X0.225000X0.375000X-0.225000X0.375000X0*%
%ADD22RoundRect,0.225000X0.375000X-0.225000X0.375000X0.225000X-0.375000X0.225000X-0.375000X-0.225000X0*%
%ADD23RoundRect,0.075000X0.362500X0.075000X-0.362500X0.075000X-0.362500X-0.075000X0.362500X-0.075000X0*%
%ADD24RoundRect,0.075000X0.075000X0.362500X-0.075000X0.362500X-0.075000X-0.362500X0.075000X-0.362500X0*%
%ADD25R,2.450000X2.450000*%
%ADD26RoundRect,0.237500X0.250000X0.237500X-0.250000X0.237500X-0.250000X-0.237500X0.250000X-0.237500X0*%
%ADD27RoundRect,0.237500X0.237500X-0.250000X0.237500X0.250000X-0.237500X0.250000X-0.237500X-0.250000X0*%
%ADD28R,0.660400X1.549400*%
%ADD29R,1.295400X1.905000*%
%ADD30RoundRect,0.237500X-0.250000X-0.237500X0.250000X-0.237500X0.250000X0.237500X-0.250000X0.237500X0*%
%ADD31RoundRect,0.150000X0.512500X0.150000X-0.512500X0.150000X-0.512500X-0.150000X0.512500X-0.150000X0*%
%ADD32RoundRect,0.500000X0.875000X0.500000X-0.875000X0.500000X-0.875000X-0.500000X0.875000X-0.500000X0*%
%ADD33RoundRect,0.237500X-0.237500X0.300000X-0.237500X-0.300000X0.237500X-0.300000X0.237500X0.300000X0*%
G04 APERTURE END LIST*
D10*
%TO.C,LED14*%
X122390000Y-124587401D03*
X122390000Y-126087401D03*
X127590000Y-126087401D03*
X127590000Y-124587401D03*
%TD*%
D11*
%TO.C,SW13*%
X81810000Y-120257402D03*
D12*
X86890000Y-120257402D03*
D11*
X91970000Y-120257402D03*
D13*
X89430000Y-115177402D03*
X83080000Y-117717402D03*
%TD*%
D10*
%TO.C,LED9*%
X84290000Y-105537401D03*
X84290000Y-107037401D03*
X89490000Y-107037401D03*
X89490000Y-105537401D03*
%TD*%
D14*
%TO.C,SW21*%
X79524000Y-42105402D03*
D15*
X79524000Y-47105402D03*
X79524000Y-44605402D03*
D16*
X87024000Y-39005402D03*
X87024000Y-50205402D03*
D15*
X94024000Y-47105402D03*
X94024000Y-42105402D03*
%TD*%
D11*
%TO.C,SW12*%
X138960000Y-101207402D03*
D12*
X144040000Y-101207402D03*
D11*
X149120000Y-101207402D03*
D13*
X146580000Y-96127402D03*
X140230000Y-98667402D03*
%TD*%
D10*
%TO.C,LED20*%
X141440000Y-143637401D03*
X141440000Y-145137401D03*
X146640000Y-145137401D03*
X146640000Y-143637401D03*
%TD*%
D11*
%TO.C,SW4*%
X138960000Y-63107402D03*
D12*
X144040000Y-63107402D03*
D11*
X149120000Y-63107402D03*
D13*
X146580000Y-58027402D03*
X140230000Y-60567402D03*
%TD*%
D11*
%TO.C,SW15*%
X119910000Y-120257402D03*
D12*
X124990000Y-120257402D03*
D11*
X130070000Y-120257402D03*
D13*
X127530000Y-115177402D03*
X121180000Y-117717402D03*
%TD*%
%TO.C,H2*%
X152940000Y-36682402D03*
%TD*%
D11*
%TO.C,SW18*%
X100860000Y-139307402D03*
D12*
X105940000Y-139307402D03*
D11*
X111020000Y-139307402D03*
D13*
X108480000Y-134227402D03*
X102130000Y-136767402D03*
%TD*%
D10*
%TO.C,LED3*%
X122390000Y-67437401D03*
X122390000Y-68937401D03*
X127590000Y-68937401D03*
X127590000Y-67437401D03*
%TD*%
D11*
%TO.C,SW14*%
X100860000Y-120257402D03*
D12*
X105940000Y-120257402D03*
D11*
X111020000Y-120257402D03*
D13*
X108480000Y-115177402D03*
X102130000Y-117717402D03*
%TD*%
D10*
%TO.C,LED6*%
X122390000Y-86487401D03*
X122390000Y-87987401D03*
X127590000Y-87987401D03*
X127590000Y-86487401D03*
%TD*%
%TO.C,LED11*%
X122390000Y-105537401D03*
X122390000Y-107037401D03*
X127590000Y-107037401D03*
X127590000Y-105537401D03*
%TD*%
D11*
%TO.C,SW2*%
X100860000Y-63107402D03*
D12*
X105940000Y-63107402D03*
D11*
X111020000Y-63107402D03*
D13*
X108480000Y-58027402D03*
X102130000Y-60567402D03*
%TD*%
D10*
%TO.C,LED5*%
X141440000Y-86487401D03*
X141440000Y-87987401D03*
X146640000Y-87987401D03*
X146640000Y-86487401D03*
%TD*%
D14*
%TO.C,SW22*%
X136928000Y-41851402D03*
D15*
X136928000Y-46851402D03*
X136928000Y-44351402D03*
D16*
X144428000Y-38751402D03*
X144428000Y-49951402D03*
D15*
X151428000Y-46851402D03*
X151428000Y-41851402D03*
%TD*%
D11*
%TO.C,SW6*%
X100860000Y-82157402D03*
D12*
X105940000Y-82157402D03*
D11*
X111020000Y-82157402D03*
D13*
X108480000Y-77077402D03*
X102130000Y-79617402D03*
%TD*%
D11*
%TO.C,SW7*%
X119910000Y-82157402D03*
D12*
X124990000Y-82157402D03*
D11*
X130070000Y-82157402D03*
D13*
X127530000Y-77077402D03*
X121180000Y-79617402D03*
%TD*%
D10*
%TO.C,LED17*%
X84290000Y-143637401D03*
X84290000Y-145137401D03*
X89490000Y-145137401D03*
X89490000Y-143637401D03*
%TD*%
%TO.C,LED16*%
X84290000Y-124587401D03*
X84290000Y-126087401D03*
X89490000Y-126087401D03*
X89490000Y-124587401D03*
%TD*%
%TO.C,LED13*%
X141440000Y-124587401D03*
X141440000Y-126087401D03*
X146640000Y-126087401D03*
X146640000Y-124587401D03*
%TD*%
%TO.C,LED1*%
X84290000Y-67437401D03*
X84290000Y-68937401D03*
X89490000Y-68937401D03*
X89490000Y-67437401D03*
%TD*%
%TO.C,LED2*%
X103340000Y-67437401D03*
X103340000Y-68937401D03*
X108540000Y-68937401D03*
X108540000Y-67437401D03*
%TD*%
D11*
%TO.C,SW11*%
X119910000Y-101207402D03*
D12*
X124990000Y-101207402D03*
D11*
X130070000Y-101207402D03*
D13*
X127530000Y-96127402D03*
X121180000Y-98667402D03*
%TD*%
D10*
%TO.C,LED4*%
X141440000Y-67437401D03*
X141440000Y-68937401D03*
X146640000Y-68937401D03*
X146640000Y-67437401D03*
%TD*%
D13*
%TO.C,H1*%
X58940000Y-36682400D03*
%TD*%
D10*
%TO.C,LED10*%
X103340000Y-105537401D03*
X103340000Y-107037401D03*
X108540000Y-107037401D03*
X108540000Y-105537401D03*
%TD*%
D11*
%TO.C,SW3*%
X119910000Y-63107402D03*
D12*
X124990000Y-63107402D03*
D11*
X130070000Y-63107402D03*
D13*
X127530000Y-58027402D03*
X121180000Y-60567402D03*
%TD*%
D10*
%TO.C,LED21*%
X122390000Y-143637401D03*
X122390000Y-145137401D03*
X127590000Y-145137401D03*
X127590000Y-143637401D03*
%TD*%
D11*
%TO.C,SW5*%
X81810000Y-82157402D03*
D12*
X86890000Y-82157402D03*
D11*
X91970000Y-82157402D03*
D13*
X89430000Y-77077402D03*
X83080000Y-79617402D03*
%TD*%
D11*
%TO.C,SW16*%
X138960000Y-120257402D03*
D12*
X144040000Y-120257402D03*
D11*
X149120000Y-120257402D03*
D13*
X146580000Y-115177402D03*
X140230000Y-117717402D03*
%TD*%
D11*
%TO.C,SW17*%
X81810000Y-139307402D03*
D12*
X86890000Y-139307402D03*
D11*
X91970000Y-139307402D03*
D13*
X89430000Y-134227402D03*
X83080000Y-136767402D03*
%TD*%
D17*
%TO.C,RV1*%
X63590000Y-68607402D03*
X72090000Y-69807402D03*
X72090000Y-132607402D03*
X63590000Y-133807402D03*
D18*
X69590000Y-64457402D03*
X66090000Y-64457402D03*
X69590000Y-137957402D03*
%TD*%
D13*
%TO.C,H3*%
X58940000Y-146682400D03*
%TD*%
D11*
%TO.C,SW1*%
X81810000Y-63107402D03*
D12*
X86890000Y-63107402D03*
D11*
X91970000Y-63107402D03*
D13*
X89430000Y-58027402D03*
X83080000Y-60567402D03*
%TD*%
D11*
%TO.C,SW10*%
X100860000Y-101207402D03*
D12*
X105940000Y-101207402D03*
D11*
X111020000Y-101207402D03*
D13*
X108480000Y-96127402D03*
X102130000Y-98667402D03*
%TD*%
D10*
%TO.C,LED8*%
X84290000Y-86487401D03*
X84290000Y-87987401D03*
X89490000Y-87987401D03*
X89490000Y-86487401D03*
%TD*%
D11*
%TO.C,SW8*%
X138960000Y-82157402D03*
D12*
X144040000Y-82157402D03*
D11*
X149120000Y-82157402D03*
D13*
X146580000Y-77077402D03*
X140230000Y-79617402D03*
%TD*%
D10*
%TO.C,LED18*%
X103340000Y-143637401D03*
X103340000Y-145137401D03*
X108540000Y-145137401D03*
X108540000Y-143637401D03*
%TD*%
%TO.C,LED7*%
X103340000Y-86487401D03*
X103340000Y-87987401D03*
X108540000Y-87987401D03*
X108540000Y-86487401D03*
%TD*%
%TO.C,LED12*%
X141440000Y-105537401D03*
X141440000Y-107037401D03*
X146640000Y-107037401D03*
X146640000Y-105537401D03*
%TD*%
D11*
%TO.C,SW20*%
X138960000Y-139307402D03*
D12*
X144040000Y-139307402D03*
D11*
X149120000Y-139307402D03*
D13*
X146580000Y-134227402D03*
X140230000Y-136767402D03*
%TD*%
%TO.C,H4*%
X152940000Y-146682400D03*
%TD*%
D11*
%TO.C,SW19*%
X119910000Y-139307402D03*
D12*
X124990000Y-139307402D03*
D11*
X130070000Y-139307402D03*
D13*
X127530000Y-134227402D03*
X121180000Y-136767402D03*
%TD*%
D10*
%TO.C,LED15*%
X103340000Y-124587401D03*
X103340000Y-126087401D03*
X108540000Y-126087401D03*
X108540000Y-124587401D03*
%TD*%
D11*
%TO.C,SW9*%
X81810000Y-101207402D03*
D12*
X86890000Y-101207402D03*
D11*
X91970000Y-101207402D03*
D13*
X89430000Y-96127402D03*
X83080000Y-98667402D03*
%TD*%
D19*
%TO.C,R15*%
X124532800Y-128871802D03*
X124532800Y-130696802D03*
%TD*%
D20*
%TO.C,C8*%
X137690000Y-88454402D03*
X137690000Y-86729402D03*
%TD*%
D21*
%TO.C,D20*%
X142136000Y-147943402D03*
X145436000Y-147943402D03*
%TD*%
D22*
%TO.C,D15*%
X133372000Y-128891402D03*
X133372000Y-125591402D03*
%TD*%
%TO.C,D8*%
X152422000Y-90791402D03*
X152422000Y-87491402D03*
%TD*%
D20*
%TO.C,C22*%
X131848000Y-43395902D03*
X131848000Y-41670902D03*
%TD*%
%TO.C,C24*%
X118640000Y-145604402D03*
X118640000Y-143879402D03*
%TD*%
%TO.C,C13*%
X80540000Y-107504402D03*
X80540000Y-105779402D03*
%TD*%
D23*
%TO.C,U2*%
X71961900Y-78189602D03*
X71961900Y-78689602D03*
X71961900Y-79189602D03*
X71961900Y-79689602D03*
X71961900Y-80189602D03*
X71961900Y-80689602D03*
D24*
X71274400Y-81377102D03*
X70774400Y-81377102D03*
X70274400Y-81377102D03*
X69774400Y-81377102D03*
X69274400Y-81377102D03*
X68774400Y-81377102D03*
D23*
X68086900Y-80689602D03*
X68086900Y-80189602D03*
X68086900Y-79689602D03*
X68086900Y-79189602D03*
X68086900Y-78689602D03*
X68086900Y-78189602D03*
D24*
X68774400Y-77502102D03*
X69274400Y-77502102D03*
X69774400Y-77502102D03*
X70274400Y-77502102D03*
X70774400Y-77502102D03*
X71274400Y-77502102D03*
D25*
X70024400Y-79439602D03*
%TD*%
D20*
%TO.C,C15*%
X99590000Y-88454402D03*
X99590000Y-86729402D03*
%TD*%
D22*
%TO.C,D17*%
X95272000Y-147941402D03*
X95272000Y-144641402D03*
%TD*%
D26*
%TO.C,R17*%
X81399800Y-54217402D03*
X79574800Y-54217402D03*
%TD*%
D20*
%TO.C,C11*%
X118640000Y-107504402D03*
X118640000Y-105779402D03*
%TD*%
%TO.C,C12*%
X99590000Y-107504402D03*
X99590000Y-105779402D03*
%TD*%
%TO.C,C16*%
X137690000Y-126554402D03*
X137690000Y-124829402D03*
%TD*%
D22*
%TO.C,D14*%
X114322000Y-128891402D03*
X114322000Y-125591402D03*
%TD*%
%TO.C,D18*%
X114322000Y-147941402D03*
X114322000Y-144641402D03*
%TD*%
D19*
%TO.C,R14*%
X124812200Y-109771002D03*
X124812200Y-111596002D03*
%TD*%
D22*
%TO.C,D9*%
X95272000Y-109841402D03*
X95272000Y-106541402D03*
%TD*%
D20*
%TO.C,C6*%
X118640000Y-69404402D03*
X118640000Y-67679402D03*
%TD*%
%TO.C,C20*%
X80540000Y-145604402D03*
X80540000Y-143879402D03*
%TD*%
D22*
%TO.C,D22*%
X134134000Y-52819402D03*
X134134000Y-49519402D03*
%TD*%
D27*
%TO.C,R9*%
X128800000Y-43445902D03*
X128800000Y-41620902D03*
%TD*%
D28*
%TO.C,J1*%
X64440000Y-53780902D03*
X65440001Y-53780902D03*
X66439999Y-53780902D03*
X67440000Y-53780902D03*
D29*
X68739999Y-49905901D03*
X63140001Y-49905901D03*
%TD*%
D19*
%TO.C,R13*%
X124812200Y-90746402D03*
X124812200Y-92571402D03*
%TD*%
%TO.C,R4*%
X73936000Y-41724402D03*
X73936000Y-43549402D03*
%TD*%
D20*
%TO.C,C19*%
X80540000Y-126554402D03*
X80540000Y-124829402D03*
%TD*%
%TO.C,C21*%
X99590000Y-145604402D03*
X99590000Y-143879402D03*
%TD*%
D22*
%TO.C,D6*%
X114322000Y-90791402D03*
X114322000Y-87491402D03*
%TD*%
%TO.C,D7*%
X133372000Y-90791402D03*
X133372000Y-87491402D03*
%TD*%
D20*
%TO.C,C9*%
X118640000Y-88454402D03*
X118640000Y-86729402D03*
%TD*%
D22*
%TO.C,D12*%
X152422000Y-109841402D03*
X152422000Y-106541402D03*
%TD*%
D20*
%TO.C,C3*%
X80540000Y-69404402D03*
X80540000Y-67679402D03*
%TD*%
D30*
%TO.C,R2*%
X128245000Y-49645402D03*
X130070000Y-49645402D03*
%TD*%
D22*
%TO.C,D5*%
X95272000Y-90791402D03*
X95272000Y-87491402D03*
%TD*%
D20*
%TO.C,C14*%
X80540000Y-88454402D03*
X80540000Y-86729402D03*
%TD*%
%TO.C,C25*%
X131848000Y-46697902D03*
X131848000Y-44972902D03*
%TD*%
D22*
%TO.C,D1*%
X95272000Y-71741402D03*
X95272000Y-68441402D03*
%TD*%
D20*
%TO.C,C7*%
X137690000Y-69404402D03*
X137690000Y-67679402D03*
%TD*%
D22*
%TO.C,D3*%
X133372000Y-71741402D03*
X133372000Y-68441402D03*
%TD*%
D30*
%TO.C,R3*%
X128245000Y-51169402D03*
X130070000Y-51169402D03*
%TD*%
D19*
%TO.C,R5*%
X72412000Y-45026402D03*
X72412000Y-46851402D03*
%TD*%
D20*
%TO.C,C18*%
X99590000Y-126554402D03*
X99590000Y-124829402D03*
%TD*%
D31*
%TO.C,U3*%
X97507200Y-59581802D03*
X97507200Y-60531802D03*
X97507200Y-61481802D03*
X95232200Y-61481802D03*
X95232200Y-59581802D03*
%TD*%
D22*
%TO.C,D11*%
X133372000Y-109841402D03*
X133372000Y-106541402D03*
%TD*%
%TO.C,D16*%
X152422000Y-128891402D03*
X152422000Y-125591402D03*
%TD*%
D20*
%TO.C,C10*%
X137690000Y-107504402D03*
X137690000Y-105779402D03*
%TD*%
%TO.C,C5*%
X99590000Y-69404402D03*
X99590000Y-67679402D03*
%TD*%
D32*
%TO.C,U1*%
X114022500Y-37707402D03*
X114022500Y-40247402D03*
X114022500Y-42787402D03*
X114022500Y-45327402D03*
X114022500Y-47867402D03*
X114022500Y-50407402D03*
X114022500Y-52947402D03*
X97857500Y-52947402D03*
X97857500Y-50407402D03*
X97857500Y-47867402D03*
X97857500Y-45327402D03*
X97857500Y-42787402D03*
X97857500Y-40247402D03*
X97857500Y-37707402D03*
%TD*%
D20*
%TO.C,C4*%
X75460000Y-43499402D03*
X75460000Y-41774402D03*
%TD*%
D22*
%TO.C,D13*%
X95272000Y-128891402D03*
X95272000Y-125591402D03*
%TD*%
D19*
%TO.C,R10*%
X128800000Y-44925902D03*
X128800000Y-46750902D03*
%TD*%
D20*
%TO.C,C2*%
X75460000Y-46801402D03*
X75460000Y-45076402D03*
%TD*%
D27*
%TO.C,R1*%
X71599200Y-74893002D03*
X71599200Y-73068002D03*
%TD*%
D22*
%TO.C,D21*%
X75079000Y-53937002D03*
X75079000Y-50637002D03*
%TD*%
%TO.C,D10*%
X114322000Y-109841402D03*
X114322000Y-106541402D03*
%TD*%
D19*
%TO.C,R11*%
X130324000Y-44925902D03*
X130324000Y-46750902D03*
%TD*%
D22*
%TO.C,D4*%
X152422000Y-71741402D03*
X152422000Y-68441402D03*
%TD*%
D27*
%TO.C,R8*%
X72412000Y-43549402D03*
X72412000Y-41724402D03*
%TD*%
D19*
%TO.C,R6*%
X73936000Y-45026402D03*
X73936000Y-46851402D03*
%TD*%
D20*
%TO.C,C23*%
X137690000Y-145604402D03*
X137690000Y-143879402D03*
%TD*%
D26*
%TO.C,R16*%
X125447200Y-147914202D03*
X123622200Y-147914202D03*
%TD*%
D22*
%TO.C,D19*%
X133372000Y-147941402D03*
X133372000Y-144641402D03*
%TD*%
D33*
%TO.C,C1*%
X63768900Y-76718602D03*
X63768900Y-78443602D03*
%TD*%
D19*
%TO.C,R12*%
X124761400Y-71721802D03*
X124761400Y-73546802D03*
%TD*%
D20*
%TO.C,C17*%
X118640000Y-126554402D03*
X118640000Y-124829402D03*
%TD*%
D22*
%TO.C,D2*%
X114322000Y-71741402D03*
X114322000Y-68441402D03*
%TD*%
D19*
%TO.C,R7*%
X130324000Y-41620902D03*
X130324000Y-43445902D03*
%TD*%
M02*
