M48
; DRILL file {KiCad 8.0.0} date 2024-11-26T10:45:55-0500
; FORMAT={-:-/ absolute / inch / decimal}
; #@! TF.CreationDate,2024-11-26T10:45:55-05:00
; #@! TF.GenerationSoftware,Kicad,Pcbnew,8.0.0
; #@! TF.FileFunction,NonPlated,1,2,NPTH
FMAT,2
INCH
; #@! TA.AperFunction,NonPlated,NPTH,ComponentDrill
T1C0.0669
; #@! TA.AperFunction,NonPlated,NPTH,ComponentDrill
T2C0.0866
; #@! TA.AperFunction,NonPlated,NPTH,ComponentDrill
T3C0.1575
%
G90
G05
T1
X3.2209Y-2.4845
X3.2209Y-3.2345
X3.2209Y-3.9845
X3.2209Y-4.7345
X3.2209Y-5.4845
X3.6209Y-2.4845
X3.6209Y-3.2345
X3.6209Y-3.9845
X3.6209Y-4.7345
X3.6209Y-5.4845
X3.9709Y-2.4845
X3.9709Y-3.2345
X3.9709Y-3.9845
X3.9709Y-4.7345
X3.9709Y-5.4845
X4.3709Y-2.4845
X4.3709Y-3.2345
X4.3709Y-3.9845
X4.3709Y-4.7345
X4.3709Y-5.4845
X4.7209Y-2.4845
X4.7209Y-3.2345
X4.7209Y-3.9845
X4.7209Y-4.7345
X4.7209Y-5.4845
X5.1209Y-2.4845
X5.1209Y-3.2345
X5.1209Y-3.9845
X5.1209Y-4.7345
X5.1209Y-5.4845
X5.4709Y-2.4845
X5.4709Y-3.2345
X5.4709Y-3.9845
X5.4709Y-4.7345
X5.4709Y-5.4845
X5.8709Y-2.4845
X5.8709Y-3.2345
X5.8709Y-3.9845
X5.8709Y-4.7345
X5.8709Y-5.4845
T2
X2.3205Y-1.4442
X2.3205Y-5.7749
X6.0213Y-1.4442
X6.0213Y-5.7749
T3
X3.4209Y-2.4845
X3.4209Y-3.2345
X3.4209Y-3.9845
X3.4209Y-4.7345
X3.4209Y-5.4845
X4.1709Y-2.4845
X4.1709Y-3.2345
X4.1709Y-3.9845
X4.1709Y-4.7345
X4.1709Y-5.4845
X4.9209Y-2.4845
X4.9209Y-3.2345
X4.9209Y-3.9845
X4.9209Y-4.7345
X4.9209Y-5.4845
X5.6709Y-2.4845
X5.6709Y-3.2345
X5.6709Y-3.9845
X5.6709Y-4.7345
X5.6709Y-5.4845
M30
