%TF.GenerationSoftware,KiCad,Pcbnew,8.0.0*%
%TF.CreationDate,2024-11-26T10:36:05-05:00*%
%TF.ProjectId,macropad,6d616372-6f70-4616-942e-6b696361645f,v1.0*%
%TF.SameCoordinates,Original*%
%TF.FileFunction,Soldermask,Top*%
%TF.FilePolarity,Negative*%
%FSLAX46Y46*%
G04 Gerber Fmt 4.6, Leading zero omitted, Abs format (unit mm)*
G04 Created by KiCad (PCBNEW 8.0.0) date 2024-11-26 10:36:05*
%MOMM*%
%LPD*%
G01*
G04 APERTURE LIST*
%ADD10C,1.700000*%
%ADD11C,4.000000*%
%ADD12C,2.200000*%
%ADD13R,2.000000X2.000000*%
%ADD14C,2.000000*%
%ADD15R,3.200000X2.000000*%
%ADD16C,3.000000*%
%ADD17C,2.500000*%
G04 APERTURE END LIST*
D10*
%TO.C,SW13*%
X81810000Y-120257402D03*
D11*
X86890000Y-120257402D03*
D10*
X91970000Y-120257402D03*
D12*
X89430000Y-115177402D03*
X83080000Y-117717402D03*
%TD*%
D13*
%TO.C,SW21*%
X79524000Y-42105402D03*
D14*
X79524000Y-47105402D03*
X79524000Y-44605402D03*
D15*
X87024000Y-39005402D03*
X87024000Y-50205402D03*
D14*
X94024000Y-47105402D03*
X94024000Y-42105402D03*
%TD*%
D10*
%TO.C,SW12*%
X138960000Y-101207402D03*
D11*
X144040000Y-101207402D03*
D10*
X149120000Y-101207402D03*
D12*
X146580000Y-96127402D03*
X140230000Y-98667402D03*
%TD*%
D10*
%TO.C,SW4*%
X138960000Y-63107402D03*
D11*
X144040000Y-63107402D03*
D10*
X149120000Y-63107402D03*
D12*
X146580000Y-58027402D03*
X140230000Y-60567402D03*
%TD*%
D10*
%TO.C,SW15*%
X119910000Y-120257402D03*
D11*
X124990000Y-120257402D03*
D10*
X130070000Y-120257402D03*
D12*
X127530000Y-115177402D03*
X121180000Y-117717402D03*
%TD*%
%TO.C,H2*%
X152940000Y-36682402D03*
%TD*%
D10*
%TO.C,SW18*%
X100860000Y-139307402D03*
D11*
X105940000Y-139307402D03*
D10*
X111020000Y-139307402D03*
D12*
X108480000Y-134227402D03*
X102130000Y-136767402D03*
%TD*%
D10*
%TO.C,SW14*%
X100860000Y-120257402D03*
D11*
X105940000Y-120257402D03*
D10*
X111020000Y-120257402D03*
D12*
X108480000Y-115177402D03*
X102130000Y-117717402D03*
%TD*%
D10*
%TO.C,SW2*%
X100860000Y-63107402D03*
D11*
X105940000Y-63107402D03*
D10*
X111020000Y-63107402D03*
D12*
X108480000Y-58027402D03*
X102130000Y-60567402D03*
%TD*%
D13*
%TO.C,SW22*%
X136928000Y-41851402D03*
D14*
X136928000Y-46851402D03*
X136928000Y-44351402D03*
D15*
X144428000Y-38751402D03*
X144428000Y-49951402D03*
D14*
X151428000Y-46851402D03*
X151428000Y-41851402D03*
%TD*%
D10*
%TO.C,SW6*%
X100860000Y-82157402D03*
D11*
X105940000Y-82157402D03*
D10*
X111020000Y-82157402D03*
D12*
X108480000Y-77077402D03*
X102130000Y-79617402D03*
%TD*%
D10*
%TO.C,SW7*%
X119910000Y-82157402D03*
D11*
X124990000Y-82157402D03*
D10*
X130070000Y-82157402D03*
D12*
X127530000Y-77077402D03*
X121180000Y-79617402D03*
%TD*%
D10*
%TO.C,SW11*%
X119910000Y-101207402D03*
D11*
X124990000Y-101207402D03*
D10*
X130070000Y-101207402D03*
D12*
X127530000Y-96127402D03*
X121180000Y-98667402D03*
%TD*%
%TO.C,H1*%
X58940000Y-36682400D03*
%TD*%
D10*
%TO.C,SW3*%
X119910000Y-63107402D03*
D11*
X124990000Y-63107402D03*
D10*
X130070000Y-63107402D03*
D12*
X127530000Y-58027402D03*
X121180000Y-60567402D03*
%TD*%
D10*
%TO.C,SW5*%
X81810000Y-82157402D03*
D11*
X86890000Y-82157402D03*
D10*
X91970000Y-82157402D03*
D12*
X89430000Y-77077402D03*
X83080000Y-79617402D03*
%TD*%
D10*
%TO.C,SW16*%
X138960000Y-120257402D03*
D11*
X144040000Y-120257402D03*
D10*
X149120000Y-120257402D03*
D12*
X146580000Y-115177402D03*
X140230000Y-117717402D03*
%TD*%
D10*
%TO.C,SW17*%
X81810000Y-139307402D03*
D11*
X86890000Y-139307402D03*
D10*
X91970000Y-139307402D03*
D12*
X89430000Y-134227402D03*
X83080000Y-136767402D03*
%TD*%
D16*
%TO.C,RV1*%
X63590000Y-68607402D03*
X72090000Y-69807402D03*
X72090000Y-132607402D03*
X63590000Y-133807402D03*
D17*
X69590000Y-64457402D03*
X66090000Y-64457402D03*
X69590000Y-137957402D03*
%TD*%
D12*
%TO.C,H3*%
X58940000Y-146682400D03*
%TD*%
D10*
%TO.C,SW1*%
X81810000Y-63107402D03*
D11*
X86890000Y-63107402D03*
D10*
X91970000Y-63107402D03*
D12*
X89430000Y-58027402D03*
X83080000Y-60567402D03*
%TD*%
D10*
%TO.C,SW10*%
X100860000Y-101207402D03*
D11*
X105940000Y-101207402D03*
D10*
X111020000Y-101207402D03*
D12*
X108480000Y-96127402D03*
X102130000Y-98667402D03*
%TD*%
D10*
%TO.C,SW8*%
X138960000Y-82157402D03*
D11*
X144040000Y-82157402D03*
D10*
X149120000Y-82157402D03*
D12*
X146580000Y-77077402D03*
X140230000Y-79617402D03*
%TD*%
D10*
%TO.C,SW20*%
X138960000Y-139307402D03*
D11*
X144040000Y-139307402D03*
D10*
X149120000Y-139307402D03*
D12*
X146580000Y-134227402D03*
X140230000Y-136767402D03*
%TD*%
%TO.C,H4*%
X152940000Y-146682400D03*
%TD*%
D10*
%TO.C,SW19*%
X119910000Y-139307402D03*
D11*
X124990000Y-139307402D03*
D10*
X130070000Y-139307402D03*
D12*
X127530000Y-134227402D03*
X121180000Y-136767402D03*
%TD*%
D10*
%TO.C,SW9*%
X81810000Y-101207402D03*
D11*
X86890000Y-101207402D03*
D10*
X91970000Y-101207402D03*
D12*
X89430000Y-96127402D03*
X83080000Y-98667402D03*
%TD*%
M02*
