%TF.GenerationSoftware,KiCad,Pcbnew,8.0.5*%
%TF.CreationDate,2024-11-15T15:43:04-05:00*%
%TF.ProjectId,bytesized_macropad,62797465-7369-47a6-9564-5f6d6163726f,rev?*%
%TF.SameCoordinates,Original*%
%TF.FileFunction,Drillmap*%
%TF.FilePolarity,Positive*%
%FSLAX45Y45*%
G04 Gerber Fmt 4.5, Leading zero omitted, Abs format (unit mm)*
G04 Created by KiCad (PCBNEW 8.0.5) date 2024-11-15 15:43:04*
%MOMM*%
%LPD*%
G01*
G04 APERTURE LIST*
%ADD10C,0.200000*%
%ADD11C,0.100000*%
%ADD12C,0.120000*%
%ADD13C,0.150000*%
%ADD14C,0.170000*%
G04 APERTURE END LIST*
D10*
X18212835Y-3075251D02*
X18232535Y-3076717D01*
X18252068Y-3079143D01*
X18271401Y-3082517D01*
X18290500Y-3086823D01*
X18309334Y-3092050D01*
X18327870Y-3098183D01*
X18346074Y-3105208D01*
X18363913Y-3113112D01*
X18381356Y-3121882D01*
X18398370Y-3131504D01*
X18414921Y-3141965D01*
X18430976Y-3153249D01*
X18446503Y-3165346D01*
X18461470Y-3178239D01*
X18475843Y-3191917D01*
X18489521Y-3206290D01*
X18502414Y-3221257D01*
X18514511Y-3236784D01*
X18525796Y-3252840D01*
X18536256Y-3269390D01*
X18545878Y-3286404D01*
X18554648Y-3303846D01*
X18562552Y-3321686D01*
X18569577Y-3339890D01*
X18575710Y-3358426D01*
X18580936Y-3377260D01*
X18585243Y-3396359D01*
X18588616Y-3415692D01*
X18591043Y-3435225D01*
X18592508Y-3454925D01*
X18593000Y-3474760D01*
X18593000Y-14274760D01*
X18592508Y-14294595D01*
X18591043Y-14314295D01*
X18588616Y-14333828D01*
X18585243Y-14353161D01*
X18580936Y-14372260D01*
X18575710Y-14391094D01*
X18569577Y-14409629D01*
X18562552Y-14427833D01*
X18554648Y-14445673D01*
X18545878Y-14463116D01*
X18536256Y-14480130D01*
X18525796Y-14496680D01*
X18514511Y-14512736D01*
X18502414Y-14528263D01*
X18489521Y-14543230D01*
X18475843Y-14557603D01*
X18461470Y-14571281D01*
X18446503Y-14584175D01*
X18430976Y-14596271D01*
X18414921Y-14607556D01*
X18398370Y-14618016D01*
X18381356Y-14627638D01*
X18363913Y-14636408D01*
X18346074Y-14644312D01*
X18327870Y-14651338D01*
X18309334Y-14657470D01*
X18290500Y-14662697D01*
X18271401Y-14667003D01*
X18252068Y-14670377D01*
X18232535Y-14672803D01*
X18212835Y-14674269D01*
X18193000Y-14674760D01*
X9493000Y-14674760D01*
X9473165Y-14674269D01*
X9453465Y-14672803D01*
X9433932Y-14670377D01*
X9414599Y-14667003D01*
X9395500Y-14662697D01*
X9376666Y-14657470D01*
X9358131Y-14651338D01*
X9339927Y-14644312D01*
X9322087Y-14636408D01*
X9304644Y-14627638D01*
X9287631Y-14618016D01*
X9271080Y-14607556D01*
X9255024Y-14596271D01*
X9239497Y-14584175D01*
X9224530Y-14571281D01*
X9210157Y-14557603D01*
X9196480Y-14543230D01*
X9183586Y-14528263D01*
X9171490Y-14512736D01*
X9160205Y-14496680D01*
X9149745Y-14480130D01*
X9140123Y-14463116D01*
X9131353Y-14445673D01*
X9123448Y-14427833D01*
X9116423Y-14409629D01*
X9110290Y-14391094D01*
X9105064Y-14372260D01*
X9100757Y-14353161D01*
X9097384Y-14333828D01*
X9094957Y-14314295D01*
X9093492Y-14294595D01*
X9093000Y-14274760D01*
X9093000Y-3474760D01*
X9093492Y-3454925D01*
X9094957Y-3435225D01*
X9097384Y-3415692D01*
X9100757Y-3396359D01*
X9105064Y-3377260D01*
X9110290Y-3358426D01*
X9116423Y-3339890D01*
X9123448Y-3321686D01*
X9131353Y-3303846D01*
X9140123Y-3286404D01*
X9149745Y-3269390D01*
X9160205Y-3252840D01*
X9171490Y-3236784D01*
X9183586Y-3221257D01*
X9196480Y-3206290D01*
X9210157Y-3191917D01*
X9224530Y-3178239D01*
X9239497Y-3165346D01*
X9255024Y-3153249D01*
X9271080Y-3141965D01*
X9287631Y-3131504D01*
X9304644Y-3121882D01*
X9322087Y-3113112D01*
X9339927Y-3105208D01*
X9358131Y-3098183D01*
X9376666Y-3092050D01*
X9395500Y-3086823D01*
X9414599Y-3082517D01*
X9433932Y-3079143D01*
X9453465Y-3076717D01*
X9473165Y-3075251D01*
X9493000Y-3074760D01*
X18193000Y-3074760D01*
X18212835Y-3075251D01*
D11*
X15324000Y-12262284D02*
X15324000Y-12121716D01*
X15414555Y-12042000D02*
X15573445Y-12042000D01*
X15573445Y-12342000D02*
X15414555Y-12342000D01*
X15664000Y-12121716D02*
X15664000Y-12262284D01*
X15319052Y-12100028D02*
G75*
G02*
X15324000Y-12121716I-45051J-21688D01*
G01*
X15319052Y-12100028D02*
G75*
G02*
X15389329Y-12035170I45052J21688D01*
G01*
X15324000Y-12262284D02*
G75*
G02*
X15319052Y-12283972I-49999J0D01*
G01*
X15389329Y-12348830D02*
G75*
G02*
X15319052Y-12283972I-25226J43170D01*
G01*
X15389329Y-12348830D02*
G75*
G02*
X15414555Y-12342000I25226J-43171D01*
G01*
X15414555Y-12042000D02*
G75*
G02*
X15389329Y-12035170I0J50001D01*
G01*
X15573445Y-12342000D02*
G75*
G02*
X15598671Y-12348830I0J-50001D01*
G01*
X15598671Y-12035170D02*
G75*
G02*
X15573445Y-12042000I-25226J43171D01*
G01*
X15598671Y-12035170D02*
G75*
G02*
X15668948Y-12100028I25226J-43170D01*
G01*
X15664000Y-12121716D02*
G75*
G02*
X15668948Y-12100028I49994J2D01*
G01*
X15668948Y-12283972D02*
G75*
G02*
X15598671Y-12348830I-45051J-21688D01*
G01*
X15668948Y-12283972D02*
G75*
G02*
X15664001Y-12262284I44992J21672D01*
G01*
X11514000Y-10357284D02*
X11514000Y-10216716D01*
X11604555Y-10137000D02*
X11763445Y-10137000D01*
X11763445Y-10437000D02*
X11604555Y-10437000D01*
X11854000Y-10216716D02*
X11854000Y-10357284D01*
X11509052Y-10195028D02*
G75*
G02*
X11514000Y-10216716I-45051J-21688D01*
G01*
X11509052Y-10195028D02*
G75*
G02*
X11579329Y-10130170I45052J21688D01*
G01*
X11514000Y-10357284D02*
G75*
G02*
X11509052Y-10378972I-49999J0D01*
G01*
X11579329Y-10443830D02*
G75*
G02*
X11509052Y-10378972I-25226J43170D01*
G01*
X11579329Y-10443830D02*
G75*
G02*
X11604555Y-10437000I25226J-43171D01*
G01*
X11604555Y-10137000D02*
G75*
G02*
X11579329Y-10130170I0J50001D01*
G01*
X11763445Y-10437000D02*
G75*
G02*
X11788671Y-10443830I0J-50001D01*
G01*
X11788671Y-10130170D02*
G75*
G02*
X11763445Y-10137000I-25226J43171D01*
G01*
X11788671Y-10130170D02*
G75*
G02*
X11858948Y-10195028I25226J-43170D01*
G01*
X11854000Y-10216716D02*
G75*
G02*
X11858948Y-10195028I49994J2D01*
G01*
X11858948Y-10378972D02*
G75*
G02*
X11788671Y-10443830I-45051J-21688D01*
G01*
X11858948Y-10378972D02*
G75*
G02*
X11854001Y-10357284I44992J21672D01*
G01*
X17229000Y-14167284D02*
X17229000Y-14026716D01*
X17319555Y-13947000D02*
X17478445Y-13947000D01*
X17478445Y-14247000D02*
X17319555Y-14247000D01*
X17569000Y-14026716D02*
X17569000Y-14167284D01*
X17224052Y-14005028D02*
G75*
G02*
X17229000Y-14026716I-45051J-21688D01*
G01*
X17224052Y-14005028D02*
G75*
G02*
X17294329Y-13940170I45052J21688D01*
G01*
X17229000Y-14167284D02*
G75*
G02*
X17224052Y-14188972I-49999J0D01*
G01*
X17294329Y-14253830D02*
G75*
G02*
X17224052Y-14188972I-25226J43170D01*
G01*
X17294329Y-14253830D02*
G75*
G02*
X17319555Y-14247000I25226J-43171D01*
G01*
X17319555Y-13947000D02*
G75*
G02*
X17294329Y-13940170I0J50001D01*
G01*
X17478445Y-14247000D02*
G75*
G02*
X17503671Y-14253830I0J-50001D01*
G01*
X17503671Y-13940170D02*
G75*
G02*
X17478445Y-13947000I-25226J43171D01*
G01*
X17503671Y-13940170D02*
G75*
G02*
X17573948Y-14005028I25226J-43170D01*
G01*
X17569000Y-14026716D02*
G75*
G02*
X17573948Y-14005028I49994J2D01*
G01*
X17573948Y-14188972D02*
G75*
G02*
X17503671Y-14253830I-45051J-21688D01*
G01*
X17573948Y-14188972D02*
G75*
G02*
X17569001Y-14167284I44992J21672D01*
G01*
X15324000Y-6547284D02*
X15324000Y-6406716D01*
X15414555Y-6327000D02*
X15573445Y-6327000D01*
X15573445Y-6627000D02*
X15414555Y-6627000D01*
X15664000Y-6406716D02*
X15664000Y-6547284D01*
X15319052Y-6385028D02*
G75*
G02*
X15324000Y-6406716I-45051J-21688D01*
G01*
X15319052Y-6385028D02*
G75*
G02*
X15389329Y-6320170I45052J21688D01*
G01*
X15324000Y-6547284D02*
G75*
G02*
X15319052Y-6568972I-49999J0D01*
G01*
X15389329Y-6633830D02*
G75*
G02*
X15319052Y-6568972I-25226J43170D01*
G01*
X15389329Y-6633830D02*
G75*
G02*
X15414555Y-6627000I25226J-43171D01*
G01*
X15414555Y-6327000D02*
G75*
G02*
X15389329Y-6320170I0J50001D01*
G01*
X15573445Y-6627000D02*
G75*
G02*
X15598671Y-6633830I0J-50001D01*
G01*
X15598671Y-6320170D02*
G75*
G02*
X15573445Y-6327000I-25226J43171D01*
G01*
X15598671Y-6320170D02*
G75*
G02*
X15668948Y-6385028I25226J-43170D01*
G01*
X15664000Y-6406716D02*
G75*
G02*
X15668948Y-6385028I49994J2D01*
G01*
X15668948Y-6568972D02*
G75*
G02*
X15598671Y-6633830I-45051J-21688D01*
G01*
X15668948Y-6568972D02*
G75*
G02*
X15664001Y-6547284I44992J21672D01*
G01*
X15324000Y-8452284D02*
X15324000Y-8311716D01*
X15414555Y-8232000D02*
X15573445Y-8232000D01*
X15573445Y-8532000D02*
X15414555Y-8532000D01*
X15664000Y-8311716D02*
X15664000Y-8452284D01*
X15319052Y-8290028D02*
G75*
G02*
X15324000Y-8311716I-45051J-21688D01*
G01*
X15319052Y-8290028D02*
G75*
G02*
X15389329Y-8225170I45052J21688D01*
G01*
X15324000Y-8452284D02*
G75*
G02*
X15319052Y-8473972I-49999J0D01*
G01*
X15389329Y-8538830D02*
G75*
G02*
X15319052Y-8473972I-25226J43170D01*
G01*
X15389329Y-8538830D02*
G75*
G02*
X15414555Y-8532000I25226J-43171D01*
G01*
X15414555Y-8232000D02*
G75*
G02*
X15389329Y-8225170I0J50001D01*
G01*
X15573445Y-8532000D02*
G75*
G02*
X15598671Y-8538830I0J-50001D01*
G01*
X15598671Y-8225170D02*
G75*
G02*
X15573445Y-8232000I-25226J43171D01*
G01*
X15598671Y-8225170D02*
G75*
G02*
X15668948Y-8290028I25226J-43170D01*
G01*
X15664000Y-8311716D02*
G75*
G02*
X15668948Y-8290028I49994J2D01*
G01*
X15668948Y-8473972D02*
G75*
G02*
X15598671Y-8538830I-45051J-21688D01*
G01*
X15668948Y-8473972D02*
G75*
G02*
X15664001Y-8452284I44992J21672D01*
G01*
X15324000Y-10357284D02*
X15324000Y-10216716D01*
X15414555Y-10137000D02*
X15573445Y-10137000D01*
X15573445Y-10437000D02*
X15414555Y-10437000D01*
X15664000Y-10216716D02*
X15664000Y-10357284D01*
X15319052Y-10195028D02*
G75*
G02*
X15324000Y-10216716I-45051J-21688D01*
G01*
X15319052Y-10195028D02*
G75*
G02*
X15389329Y-10130170I45052J21688D01*
G01*
X15324000Y-10357284D02*
G75*
G02*
X15319052Y-10378972I-49999J0D01*
G01*
X15389329Y-10443830D02*
G75*
G02*
X15319052Y-10378972I-25226J43170D01*
G01*
X15389329Y-10443830D02*
G75*
G02*
X15414555Y-10437000I25226J-43171D01*
G01*
X15414555Y-10137000D02*
G75*
G02*
X15389329Y-10130170I0J50001D01*
G01*
X15573445Y-10437000D02*
G75*
G02*
X15598671Y-10443830I0J-50001D01*
G01*
X15598671Y-10130170D02*
G75*
G02*
X15573445Y-10137000I-25226J43171D01*
G01*
X15598671Y-10130170D02*
G75*
G02*
X15668948Y-10195028I25226J-43170D01*
G01*
X15664000Y-10216716D02*
G75*
G02*
X15668948Y-10195028I49994J2D01*
G01*
X15668948Y-10378972D02*
G75*
G02*
X15598671Y-10443830I-45051J-21688D01*
G01*
X15668948Y-10378972D02*
G75*
G02*
X15664001Y-10357284I44992J21672D01*
G01*
X17229000Y-8452284D02*
X17229000Y-8311716D01*
X17319555Y-8232000D02*
X17478445Y-8232000D01*
X17478445Y-8532000D02*
X17319555Y-8532000D01*
X17569000Y-8311716D02*
X17569000Y-8452284D01*
X17224052Y-8290028D02*
G75*
G02*
X17229000Y-8311716I-45051J-21688D01*
G01*
X17224052Y-8290028D02*
G75*
G02*
X17294329Y-8225170I45052J21688D01*
G01*
X17229000Y-8452284D02*
G75*
G02*
X17224052Y-8473972I-49999J0D01*
G01*
X17294329Y-8538830D02*
G75*
G02*
X17224052Y-8473972I-25226J43170D01*
G01*
X17294329Y-8538830D02*
G75*
G02*
X17319555Y-8532000I25226J-43171D01*
G01*
X17319555Y-8232000D02*
G75*
G02*
X17294329Y-8225170I0J50001D01*
G01*
X17478445Y-8532000D02*
G75*
G02*
X17503671Y-8538830I0J-50001D01*
G01*
X17503671Y-8225170D02*
G75*
G02*
X17478445Y-8232000I-25226J43171D01*
G01*
X17503671Y-8225170D02*
G75*
G02*
X17573948Y-8290028I25226J-43170D01*
G01*
X17569000Y-8311716D02*
G75*
G02*
X17573948Y-8290028I49994J2D01*
G01*
X17573948Y-8473972D02*
G75*
G02*
X17503671Y-8538830I-45051J-21688D01*
G01*
X17573948Y-8473972D02*
G75*
G02*
X17569001Y-8452284I44992J21672D01*
G01*
X11514000Y-14167284D02*
X11514000Y-14026716D01*
X11604555Y-13947000D02*
X11763445Y-13947000D01*
X11763445Y-14247000D02*
X11604555Y-14247000D01*
X11854000Y-14026716D02*
X11854000Y-14167284D01*
X11509052Y-14005028D02*
G75*
G02*
X11514000Y-14026716I-45051J-21688D01*
G01*
X11509052Y-14005028D02*
G75*
G02*
X11579329Y-13940170I45052J21688D01*
G01*
X11514000Y-14167284D02*
G75*
G02*
X11509052Y-14188972I-49999J0D01*
G01*
X11579329Y-14253830D02*
G75*
G02*
X11509052Y-14188972I-25226J43170D01*
G01*
X11579329Y-14253830D02*
G75*
G02*
X11604555Y-14247000I25226J-43171D01*
G01*
X11604555Y-13947000D02*
G75*
G02*
X11579329Y-13940170I0J50001D01*
G01*
X11763445Y-14247000D02*
G75*
G02*
X11788671Y-14253830I0J-50001D01*
G01*
X11788671Y-13940170D02*
G75*
G02*
X11763445Y-13947000I-25226J43171D01*
G01*
X11788671Y-13940170D02*
G75*
G02*
X11858948Y-14005028I25226J-43170D01*
G01*
X11854000Y-14026716D02*
G75*
G02*
X11858948Y-14005028I49994J2D01*
G01*
X11858948Y-14188972D02*
G75*
G02*
X11788671Y-14253830I-45051J-21688D01*
G01*
X11858948Y-14188972D02*
G75*
G02*
X11854001Y-14167284I44992J21672D01*
G01*
X11514000Y-12262284D02*
X11514000Y-12121716D01*
X11604555Y-12042000D02*
X11763445Y-12042000D01*
X11763445Y-12342000D02*
X11604555Y-12342000D01*
X11854000Y-12121716D02*
X11854000Y-12262284D01*
X11509052Y-12100028D02*
G75*
G02*
X11514000Y-12121716I-45051J-21688D01*
G01*
X11509052Y-12100028D02*
G75*
G02*
X11579329Y-12035170I45052J21688D01*
G01*
X11514000Y-12262284D02*
G75*
G02*
X11509052Y-12283972I-49999J0D01*
G01*
X11579329Y-12348830D02*
G75*
G02*
X11509052Y-12283972I-25226J43170D01*
G01*
X11579329Y-12348830D02*
G75*
G02*
X11604555Y-12342000I25226J-43171D01*
G01*
X11604555Y-12042000D02*
G75*
G02*
X11579329Y-12035170I0J50001D01*
G01*
X11763445Y-12342000D02*
G75*
G02*
X11788671Y-12348830I0J-50001D01*
G01*
X11788671Y-12035170D02*
G75*
G02*
X11763445Y-12042000I-25226J43171D01*
G01*
X11788671Y-12035170D02*
G75*
G02*
X11858948Y-12100028I25226J-43170D01*
G01*
X11854000Y-12121716D02*
G75*
G02*
X11858948Y-12100028I49994J2D01*
G01*
X11858948Y-12283972D02*
G75*
G02*
X11788671Y-12348830I-45051J-21688D01*
G01*
X11858948Y-12283972D02*
G75*
G02*
X11854001Y-12262284I44992J21672D01*
G01*
X17229000Y-12262284D02*
X17229000Y-12121716D01*
X17319555Y-12042000D02*
X17478445Y-12042000D01*
X17478445Y-12342000D02*
X17319555Y-12342000D01*
X17569000Y-12121716D02*
X17569000Y-12262284D01*
X17224052Y-12100028D02*
G75*
G02*
X17229000Y-12121716I-45051J-21688D01*
G01*
X17224052Y-12100028D02*
G75*
G02*
X17294329Y-12035170I45052J21688D01*
G01*
X17229000Y-12262284D02*
G75*
G02*
X17224052Y-12283972I-49999J0D01*
G01*
X17294329Y-12348830D02*
G75*
G02*
X17224052Y-12283972I-25226J43170D01*
G01*
X17294329Y-12348830D02*
G75*
G02*
X17319555Y-12342000I25226J-43171D01*
G01*
X17319555Y-12042000D02*
G75*
G02*
X17294329Y-12035170I0J50001D01*
G01*
X17478445Y-12342000D02*
G75*
G02*
X17503671Y-12348830I0J-50001D01*
G01*
X17503671Y-12035170D02*
G75*
G02*
X17478445Y-12042000I-25226J43171D01*
G01*
X17503671Y-12035170D02*
G75*
G02*
X17573948Y-12100028I25226J-43170D01*
G01*
X17569000Y-12121716D02*
G75*
G02*
X17573948Y-12100028I49994J2D01*
G01*
X17573948Y-12283972D02*
G75*
G02*
X17503671Y-12348830I-45051J-21688D01*
G01*
X17573948Y-12283972D02*
G75*
G02*
X17569001Y-12262284I44992J21672D01*
G01*
X11514000Y-6547284D02*
X11514000Y-6406716D01*
X11604555Y-6327000D02*
X11763445Y-6327000D01*
X11763445Y-6627000D02*
X11604555Y-6627000D01*
X11854000Y-6406716D02*
X11854000Y-6547284D01*
X11509052Y-6385028D02*
G75*
G02*
X11514000Y-6406716I-45051J-21688D01*
G01*
X11509052Y-6385028D02*
G75*
G02*
X11579329Y-6320170I45052J21688D01*
G01*
X11514000Y-6547284D02*
G75*
G02*
X11509052Y-6568972I-49999J0D01*
G01*
X11579329Y-6633830D02*
G75*
G02*
X11509052Y-6568972I-25226J43170D01*
G01*
X11579329Y-6633830D02*
G75*
G02*
X11604555Y-6627000I25226J-43171D01*
G01*
X11604555Y-6327000D02*
G75*
G02*
X11579329Y-6320170I0J50001D01*
G01*
X11763445Y-6627000D02*
G75*
G02*
X11788671Y-6633830I0J-50001D01*
G01*
X11788671Y-6320170D02*
G75*
G02*
X11763445Y-6327000I-25226J43171D01*
G01*
X11788671Y-6320170D02*
G75*
G02*
X11858948Y-6385028I25226J-43170D01*
G01*
X11854000Y-6406716D02*
G75*
G02*
X11858948Y-6385028I49994J2D01*
G01*
X11858948Y-6568972D02*
G75*
G02*
X11788671Y-6633830I-45051J-21688D01*
G01*
X11858948Y-6568972D02*
G75*
G02*
X11854001Y-6547284I44992J21672D01*
G01*
X13419000Y-6547284D02*
X13419000Y-6406716D01*
X13509555Y-6327000D02*
X13668445Y-6327000D01*
X13668445Y-6627000D02*
X13509555Y-6627000D01*
X13759000Y-6406716D02*
X13759000Y-6547284D01*
X13414052Y-6385028D02*
G75*
G02*
X13419000Y-6406716I-45051J-21688D01*
G01*
X13414052Y-6385028D02*
G75*
G02*
X13484329Y-6320170I45052J21688D01*
G01*
X13419000Y-6547284D02*
G75*
G02*
X13414052Y-6568972I-49999J0D01*
G01*
X13484329Y-6633830D02*
G75*
G02*
X13414052Y-6568972I-25226J43170D01*
G01*
X13484329Y-6633830D02*
G75*
G02*
X13509555Y-6627000I25226J-43171D01*
G01*
X13509555Y-6327000D02*
G75*
G02*
X13484329Y-6320170I0J50001D01*
G01*
X13668445Y-6627000D02*
G75*
G02*
X13693671Y-6633830I0J-50001D01*
G01*
X13693671Y-6320170D02*
G75*
G02*
X13668445Y-6327000I-25226J43171D01*
G01*
X13693671Y-6320170D02*
G75*
G02*
X13763948Y-6385028I25226J-43170D01*
G01*
X13759000Y-6406716D02*
G75*
G02*
X13763948Y-6385028I49994J2D01*
G01*
X13763948Y-6568972D02*
G75*
G02*
X13693671Y-6633830I-45051J-21688D01*
G01*
X13763948Y-6568972D02*
G75*
G02*
X13759001Y-6547284I44992J21672D01*
G01*
X17229000Y-6547284D02*
X17229000Y-6406716D01*
X17319555Y-6327000D02*
X17478445Y-6327000D01*
X17478445Y-6627000D02*
X17319555Y-6627000D01*
X17569000Y-6406716D02*
X17569000Y-6547284D01*
X17224052Y-6385028D02*
G75*
G02*
X17229000Y-6406716I-45051J-21688D01*
G01*
X17224052Y-6385028D02*
G75*
G02*
X17294329Y-6320170I45052J21688D01*
G01*
X17229000Y-6547284D02*
G75*
G02*
X17224052Y-6568972I-49999J0D01*
G01*
X17294329Y-6633830D02*
G75*
G02*
X17224052Y-6568972I-25226J43170D01*
G01*
X17294329Y-6633830D02*
G75*
G02*
X17319555Y-6627000I25226J-43171D01*
G01*
X17319555Y-6327000D02*
G75*
G02*
X17294329Y-6320170I0J50001D01*
G01*
X17478445Y-6627000D02*
G75*
G02*
X17503671Y-6633830I0J-50001D01*
G01*
X17503671Y-6320170D02*
G75*
G02*
X17478445Y-6327000I-25226J43171D01*
G01*
X17503671Y-6320170D02*
G75*
G02*
X17573948Y-6385028I25226J-43170D01*
G01*
X17569000Y-6406716D02*
G75*
G02*
X17573948Y-6385028I49994J2D01*
G01*
X17573948Y-6568972D02*
G75*
G02*
X17503671Y-6633830I-45051J-21688D01*
G01*
X17573948Y-6568972D02*
G75*
G02*
X17569001Y-6547284I44992J21672D01*
G01*
X13419000Y-10357284D02*
X13419000Y-10216716D01*
X13509555Y-10137000D02*
X13668445Y-10137000D01*
X13668445Y-10437000D02*
X13509555Y-10437000D01*
X13759000Y-10216716D02*
X13759000Y-10357284D01*
X13414052Y-10195028D02*
G75*
G02*
X13419000Y-10216716I-45051J-21688D01*
G01*
X13414052Y-10195028D02*
G75*
G02*
X13484329Y-10130170I45052J21688D01*
G01*
X13419000Y-10357284D02*
G75*
G02*
X13414052Y-10378972I-49999J0D01*
G01*
X13484329Y-10443830D02*
G75*
G02*
X13414052Y-10378972I-25226J43170D01*
G01*
X13484329Y-10443830D02*
G75*
G02*
X13509555Y-10437000I25226J-43171D01*
G01*
X13509555Y-10137000D02*
G75*
G02*
X13484329Y-10130170I0J50001D01*
G01*
X13668445Y-10437000D02*
G75*
G02*
X13693671Y-10443830I0J-50001D01*
G01*
X13693671Y-10130170D02*
G75*
G02*
X13668445Y-10137000I-25226J43171D01*
G01*
X13693671Y-10130170D02*
G75*
G02*
X13763948Y-10195028I25226J-43170D01*
G01*
X13759000Y-10216716D02*
G75*
G02*
X13763948Y-10195028I49994J2D01*
G01*
X13763948Y-10378972D02*
G75*
G02*
X13693671Y-10443830I-45051J-21688D01*
G01*
X13763948Y-10378972D02*
G75*
G02*
X13759001Y-10357284I44992J21672D01*
G01*
X15324000Y-14167284D02*
X15324000Y-14026716D01*
X15414555Y-13947000D02*
X15573445Y-13947000D01*
X15573445Y-14247000D02*
X15414555Y-14247000D01*
X15664000Y-14026716D02*
X15664000Y-14167284D01*
X15319052Y-14005028D02*
G75*
G02*
X15324000Y-14026716I-45051J-21688D01*
G01*
X15319052Y-14005028D02*
G75*
G02*
X15389329Y-13940170I45052J21688D01*
G01*
X15324000Y-14167284D02*
G75*
G02*
X15319052Y-14188972I-49999J0D01*
G01*
X15389329Y-14253830D02*
G75*
G02*
X15319052Y-14188972I-25226J43170D01*
G01*
X15389329Y-14253830D02*
G75*
G02*
X15414555Y-14247000I25226J-43171D01*
G01*
X15414555Y-13947000D02*
G75*
G02*
X15389329Y-13940170I0J50001D01*
G01*
X15573445Y-14247000D02*
G75*
G02*
X15598671Y-14253830I0J-50001D01*
G01*
X15598671Y-13940170D02*
G75*
G02*
X15573445Y-13947000I-25226J43171D01*
G01*
X15598671Y-13940170D02*
G75*
G02*
X15668948Y-14005028I25226J-43170D01*
G01*
X15664000Y-14026716D02*
G75*
G02*
X15668948Y-14005028I49994J2D01*
G01*
X15668948Y-14188972D02*
G75*
G02*
X15598671Y-14253830I-45051J-21688D01*
G01*
X15668948Y-14188972D02*
G75*
G02*
X15664001Y-14167284I44992J21672D01*
G01*
X11514000Y-8452284D02*
X11514000Y-8311716D01*
X11604555Y-8232000D02*
X11763445Y-8232000D01*
X11763445Y-8532000D02*
X11604555Y-8532000D01*
X11854000Y-8311716D02*
X11854000Y-8452284D01*
X11509052Y-8290028D02*
G75*
G02*
X11514000Y-8311716I-45051J-21688D01*
G01*
X11509052Y-8290028D02*
G75*
G02*
X11579329Y-8225170I45052J21688D01*
G01*
X11514000Y-8452284D02*
G75*
G02*
X11509052Y-8473972I-49999J0D01*
G01*
X11579329Y-8538830D02*
G75*
G02*
X11509052Y-8473972I-25226J43170D01*
G01*
X11579329Y-8538830D02*
G75*
G02*
X11604555Y-8532000I25226J-43171D01*
G01*
X11604555Y-8232000D02*
G75*
G02*
X11579329Y-8225170I0J50001D01*
G01*
X11763445Y-8532000D02*
G75*
G02*
X11788671Y-8538830I0J-50001D01*
G01*
X11788671Y-8225170D02*
G75*
G02*
X11763445Y-8232000I-25226J43171D01*
G01*
X11788671Y-8225170D02*
G75*
G02*
X11858948Y-8290028I25226J-43170D01*
G01*
X11854000Y-8311716D02*
G75*
G02*
X11858948Y-8290028I49994J2D01*
G01*
X11858948Y-8473972D02*
G75*
G02*
X11788671Y-8538830I-45051J-21688D01*
G01*
X11858948Y-8473972D02*
G75*
G02*
X11854001Y-8452284I44992J21672D01*
G01*
X13419000Y-14167284D02*
X13419000Y-14026716D01*
X13509555Y-13947000D02*
X13668445Y-13947000D01*
X13668445Y-14247000D02*
X13509555Y-14247000D01*
X13759000Y-14026716D02*
X13759000Y-14167284D01*
X13414052Y-14005028D02*
G75*
G02*
X13419000Y-14026716I-45051J-21688D01*
G01*
X13414052Y-14005028D02*
G75*
G02*
X13484329Y-13940170I45052J21688D01*
G01*
X13419000Y-14167284D02*
G75*
G02*
X13414052Y-14188972I-49999J0D01*
G01*
X13484329Y-14253830D02*
G75*
G02*
X13414052Y-14188972I-25226J43170D01*
G01*
X13484329Y-14253830D02*
G75*
G02*
X13509555Y-14247000I25226J-43171D01*
G01*
X13509555Y-13947000D02*
G75*
G02*
X13484329Y-13940170I0J50001D01*
G01*
X13668445Y-14247000D02*
G75*
G02*
X13693671Y-14253830I0J-50001D01*
G01*
X13693671Y-13940170D02*
G75*
G02*
X13668445Y-13947000I-25226J43171D01*
G01*
X13693671Y-13940170D02*
G75*
G02*
X13763948Y-14005028I25226J-43170D01*
G01*
X13759000Y-14026716D02*
G75*
G02*
X13763948Y-14005028I49994J2D01*
G01*
X13763948Y-14188972D02*
G75*
G02*
X13693671Y-14253830I-45051J-21688D01*
G01*
X13763948Y-14188972D02*
G75*
G02*
X13759001Y-14167284I44992J21672D01*
G01*
X13419000Y-8452284D02*
X13419000Y-8311716D01*
X13509555Y-8232000D02*
X13668445Y-8232000D01*
X13668445Y-8532000D02*
X13509555Y-8532000D01*
X13759000Y-8311716D02*
X13759000Y-8452284D01*
X13414052Y-8290028D02*
G75*
G02*
X13419000Y-8311716I-45051J-21688D01*
G01*
X13414052Y-8290028D02*
G75*
G02*
X13484329Y-8225170I45052J21688D01*
G01*
X13419000Y-8452284D02*
G75*
G02*
X13414052Y-8473972I-49999J0D01*
G01*
X13484329Y-8538830D02*
G75*
G02*
X13414052Y-8473972I-25226J43170D01*
G01*
X13484329Y-8538830D02*
G75*
G02*
X13509555Y-8532000I25226J-43171D01*
G01*
X13509555Y-8232000D02*
G75*
G02*
X13484329Y-8225170I0J50001D01*
G01*
X13668445Y-8532000D02*
G75*
G02*
X13693671Y-8538830I0J-50001D01*
G01*
X13693671Y-8225170D02*
G75*
G02*
X13668445Y-8232000I-25226J43171D01*
G01*
X13693671Y-8225170D02*
G75*
G02*
X13763948Y-8290028I25226J-43170D01*
G01*
X13759000Y-8311716D02*
G75*
G02*
X13763948Y-8290028I49994J2D01*
G01*
X13763948Y-8473972D02*
G75*
G02*
X13693671Y-8538830I-45051J-21688D01*
G01*
X13763948Y-8473972D02*
G75*
G02*
X13759001Y-8452284I44992J21672D01*
G01*
X17229000Y-10357284D02*
X17229000Y-10216716D01*
X17319555Y-10137000D02*
X17478445Y-10137000D01*
X17478445Y-10437000D02*
X17319555Y-10437000D01*
X17569000Y-10216716D02*
X17569000Y-10357284D01*
X17224052Y-10195028D02*
G75*
G02*
X17229000Y-10216716I-45051J-21688D01*
G01*
X17224052Y-10195028D02*
G75*
G02*
X17294329Y-10130170I45052J21688D01*
G01*
X17229000Y-10357284D02*
G75*
G02*
X17224052Y-10378972I-49999J0D01*
G01*
X17294329Y-10443830D02*
G75*
G02*
X17224052Y-10378972I-25226J43170D01*
G01*
X17294329Y-10443830D02*
G75*
G02*
X17319555Y-10437000I25226J-43171D01*
G01*
X17319555Y-10137000D02*
G75*
G02*
X17294329Y-10130170I0J50001D01*
G01*
X17478445Y-10437000D02*
G75*
G02*
X17503671Y-10443830I0J-50001D01*
G01*
X17503671Y-10130170D02*
G75*
G02*
X17478445Y-10137000I-25226J43171D01*
G01*
X17503671Y-10130170D02*
G75*
G02*
X17573948Y-10195028I25226J-43170D01*
G01*
X17569000Y-10216716D02*
G75*
G02*
X17573948Y-10195028I49994J2D01*
G01*
X17573948Y-10378972D02*
G75*
G02*
X17503671Y-10443830I-45051J-21688D01*
G01*
X17573948Y-10378972D02*
G75*
G02*
X17569001Y-10357284I44992J21672D01*
G01*
X13419000Y-12262284D02*
X13419000Y-12121716D01*
X13509555Y-12042000D02*
X13668445Y-12042000D01*
X13668445Y-12342000D02*
X13509555Y-12342000D01*
X13759000Y-12121716D02*
X13759000Y-12262284D01*
X13414052Y-12100028D02*
G75*
G02*
X13419000Y-12121716I-45051J-21688D01*
G01*
X13414052Y-12100028D02*
G75*
G02*
X13484329Y-12035170I45052J21688D01*
G01*
X13419000Y-12262284D02*
G75*
G02*
X13414052Y-12283972I-49999J0D01*
G01*
X13484329Y-12348830D02*
G75*
G02*
X13414052Y-12283972I-25226J43170D01*
G01*
X13484329Y-12348830D02*
G75*
G02*
X13509555Y-12342000I25226J-43171D01*
G01*
X13509555Y-12042000D02*
G75*
G02*
X13484329Y-12035170I0J50001D01*
G01*
X13668445Y-12342000D02*
G75*
G02*
X13693671Y-12348830I0J-50001D01*
G01*
X13693671Y-12035170D02*
G75*
G02*
X13668445Y-12042000I-25226J43171D01*
G01*
X13693671Y-12035170D02*
G75*
G02*
X13763948Y-12100028I25226J-43170D01*
G01*
X13759000Y-12121716D02*
G75*
G02*
X13763948Y-12100028I49994J2D01*
G01*
X13763948Y-12283972D02*
G75*
G02*
X13693671Y-12348830I-45051J-21688D01*
G01*
X13763948Y-12283972D02*
G75*
G02*
X13759001Y-12262284I44992J21672D01*
G01*
D10*
D11*
X9560800Y-7224000D02*
X9590800Y-7254000D01*
X9590800Y-7224000D02*
X9560800Y-7254000D01*
X9683990Y-6482320D02*
X9713990Y-6512320D01*
X9713990Y-6482320D02*
X9683990Y-6512320D01*
X9700500Y-6936980D02*
X9730500Y-6966980D01*
X9730500Y-6936980D02*
X9700500Y-6966980D01*
X9741140Y-6807440D02*
X9771140Y-6837440D01*
X9771140Y-6807440D02*
X9741140Y-6837440D01*
X9779240Y-6469620D02*
X9809240Y-6499620D01*
X9809240Y-6469620D02*
X9779240Y-6499620D01*
X9983150Y-7222000D02*
X10013150Y-7252000D01*
X10013150Y-7222000D02*
X9983150Y-7252000D01*
X10043400Y-7528800D02*
X10073400Y-7558800D01*
X10073400Y-7528800D02*
X10043400Y-7558800D01*
X10170400Y-7605000D02*
X10200400Y-7635000D01*
X10200400Y-7605000D02*
X10170400Y-7635000D01*
X10424400Y-7357000D02*
X10454400Y-7387000D01*
X10454400Y-7357000D02*
X10424400Y-7387000D01*
X10551400Y-8849600D02*
X10581400Y-8879600D01*
X10581400Y-8849600D02*
X10551400Y-8879600D01*
X10551400Y-8929600D02*
X10581400Y-8959600D01*
X10581400Y-8929600D02*
X10551400Y-8959600D01*
X10551400Y-9009601D02*
X10581400Y-9039601D01*
X10581400Y-9009601D02*
X10551400Y-9039601D01*
X11161000Y-14183600D02*
X11191000Y-14213600D01*
X11191000Y-14183600D02*
X11161000Y-14213600D01*
X11186400Y-10373600D02*
X11216400Y-10403600D01*
X11216400Y-10373600D02*
X11186400Y-10403600D01*
X11186400Y-14007000D02*
X11216400Y-14037000D01*
X11216400Y-14007000D02*
X11186400Y-14037000D01*
X11288000Y-8798800D02*
X11318000Y-8828800D01*
X11318000Y-8798800D02*
X11288000Y-8828800D01*
X11288000Y-9306800D02*
X11318000Y-9336800D01*
X11318000Y-9306800D02*
X11288000Y-9336800D01*
X11409000Y-6387000D02*
X11439000Y-6417000D01*
X11439000Y-6387000D02*
X11409000Y-6417000D01*
X11409000Y-8292000D02*
X11439000Y-8322000D01*
X11439000Y-8292000D02*
X11409000Y-8322000D01*
X11409000Y-12102000D02*
X11439000Y-12132000D01*
X11439000Y-12102000D02*
X11409000Y-12132000D01*
X11415000Y-10195800D02*
X11445000Y-10225800D01*
X11445000Y-10195800D02*
X11415000Y-10225800D01*
X11440400Y-5065000D02*
X11470400Y-5095000D01*
X11470400Y-5065000D02*
X11440400Y-5095000D01*
X11618200Y-9484600D02*
X11648200Y-9514600D01*
X11648200Y-9484600D02*
X11618200Y-9514600D01*
X11770600Y-10830800D02*
X11800600Y-10860800D01*
X11800600Y-10830800D02*
X11770600Y-10860800D01*
X12075400Y-7020800D02*
X12105400Y-7050800D01*
X12105400Y-7020800D02*
X12075400Y-7050800D01*
X12151600Y-5700000D02*
X12181600Y-5730000D01*
X12181600Y-5700000D02*
X12151600Y-5730000D01*
X12151600Y-6436600D02*
X12181600Y-6466600D01*
X12181600Y-6436600D02*
X12151600Y-6466600D01*
X12177000Y-14107400D02*
X12207000Y-14137400D01*
X12207000Y-14107400D02*
X12177000Y-14137400D01*
X12202400Y-3591800D02*
X12232400Y-3621800D01*
X12232400Y-3591800D02*
X12202400Y-3621800D01*
X12202400Y-4734800D02*
X12232400Y-4764800D01*
X12232400Y-4734800D02*
X12202400Y-4764800D01*
X12202400Y-10297400D02*
X12232400Y-10327400D01*
X12232400Y-10297400D02*
X12202400Y-10327400D01*
X12253200Y-4988800D02*
X12283200Y-5018800D01*
X12283200Y-4988800D02*
X12253200Y-5018800D01*
X12278600Y-12177000D02*
X12308600Y-12207000D01*
X12308600Y-12177000D02*
X12278600Y-12207000D01*
X12304000Y-8392400D02*
X12334000Y-8422400D01*
X12334000Y-8392400D02*
X12304000Y-8422400D01*
X12329400Y-12507200D02*
X12359400Y-12537200D01*
X12359400Y-12507200D02*
X12329400Y-12537200D01*
X12380200Y-8722600D02*
X12410200Y-8752600D01*
X12410200Y-8722600D02*
X12380200Y-8752600D01*
X12710400Y-6208000D02*
X12740400Y-6238000D01*
X12740400Y-6208000D02*
X12710400Y-6238000D01*
X12710400Y-12202400D02*
X12740400Y-12232400D01*
X12740400Y-12202400D02*
X12710400Y-12232400D01*
X12761200Y-6665200D02*
X12791200Y-6695200D01*
X12791200Y-6665200D02*
X12761200Y-6695200D01*
X12913600Y-4176000D02*
X12943600Y-4206000D01*
X12943600Y-4176000D02*
X12913600Y-4206000D01*
X12914700Y-4886100D02*
X12944700Y-4916100D01*
X12944700Y-4886100D02*
X12914700Y-4916100D01*
X13066000Y-10197000D02*
X13096000Y-10227000D01*
X13096000Y-10197000D02*
X13066000Y-10227000D01*
X13066000Y-10373600D02*
X13096000Y-10403600D01*
X13096000Y-10373600D02*
X13066000Y-10403600D01*
X13066000Y-14183600D02*
X13096000Y-14213600D01*
X13096000Y-14183600D02*
X13066000Y-14213600D01*
X13091400Y-6387000D02*
X13121400Y-6417000D01*
X13121400Y-6387000D02*
X13091400Y-6417000D01*
X13116800Y-14007000D02*
X13146800Y-14037000D01*
X13146800Y-14007000D02*
X13116800Y-14037000D01*
X13193000Y-7986000D02*
X13223000Y-8016000D01*
X13223000Y-7986000D02*
X13193000Y-8016000D01*
X13193000Y-8214600D02*
X13223000Y-8244600D01*
X13223000Y-8214600D02*
X13193000Y-8244600D01*
X13193000Y-8849600D02*
X13223000Y-8879600D01*
X13223000Y-8849600D02*
X13193000Y-8879600D01*
X13193000Y-9281400D02*
X13223000Y-9311400D01*
X13223000Y-9281400D02*
X13193000Y-9311400D01*
X13193000Y-10094200D02*
X13223000Y-10124200D01*
X13223000Y-10094200D02*
X13193000Y-10124200D01*
X13193000Y-10551400D02*
X13223000Y-10581400D01*
X13223000Y-10551400D02*
X13193000Y-10581400D01*
X13193000Y-11796000D02*
X13223000Y-11826000D01*
X13223000Y-11796000D02*
X13193000Y-11826000D01*
X13193000Y-12024600D02*
X13223000Y-12054600D01*
X13223000Y-12024600D02*
X13193000Y-12054600D01*
X13206800Y-5178200D02*
X13236800Y-5208200D01*
X13236800Y-5178200D02*
X13206800Y-5208200D01*
X13294600Y-12102000D02*
X13324600Y-12132000D01*
X13324600Y-12102000D02*
X13294600Y-12132000D01*
X13314000Y-6387000D02*
X13344000Y-6417000D01*
X13344000Y-6387000D02*
X13314000Y-6417000D01*
X13314000Y-8292000D02*
X13344000Y-8322000D01*
X13344000Y-8292000D02*
X13314000Y-8322000D01*
X13320000Y-10195800D02*
X13350000Y-10225800D01*
X13350000Y-10195800D02*
X13320000Y-10225800D01*
X13396200Y-3414000D02*
X13426200Y-3444000D01*
X13426200Y-3414000D02*
X13396200Y-3444000D01*
X13929600Y-12405600D02*
X13959600Y-12435600D01*
X13959600Y-12405600D02*
X13929600Y-12435600D01*
X13980400Y-8595600D02*
X14010400Y-8625600D01*
X14010400Y-8595600D02*
X13980400Y-8625600D01*
X14107400Y-10322800D02*
X14137400Y-10352800D01*
X14137400Y-10322800D02*
X14107400Y-10352800D01*
X14107400Y-14082000D02*
X14137400Y-14112000D01*
X14137400Y-14082000D02*
X14107400Y-14112000D01*
X14158200Y-6512800D02*
X14188200Y-6542800D01*
X14188200Y-6512800D02*
X14158200Y-6542800D01*
X14310600Y-5141200D02*
X14340600Y-5171200D01*
X14340600Y-5141200D02*
X14310600Y-5171200D01*
X14361400Y-7046200D02*
X14391400Y-7076200D01*
X14391400Y-7046200D02*
X14361400Y-7076200D01*
X14463000Y-5065000D02*
X14493000Y-5095000D01*
X14493000Y-5065000D02*
X14463000Y-5095000D01*
X14640800Y-6690600D02*
X14670800Y-6720600D01*
X14670800Y-6690600D02*
X14640800Y-6720600D01*
X14640800Y-8443200D02*
X14670800Y-8473200D01*
X14670800Y-8443200D02*
X14640800Y-8473200D01*
X14717000Y-10475200D02*
X14747000Y-10505200D01*
X14747000Y-10475200D02*
X14717000Y-10505200D01*
X14971000Y-3515600D02*
X15001000Y-3545600D01*
X15001000Y-3515600D02*
X14971000Y-3545600D01*
X14971000Y-7020800D02*
X15001000Y-7050800D01*
X15001000Y-7020800D02*
X14971000Y-7050800D01*
X14996400Y-6387000D02*
X15026400Y-6417000D01*
X15026400Y-6387000D02*
X14996400Y-6417000D01*
X14996400Y-6538200D02*
X15026400Y-6568200D01*
X15026400Y-6538200D02*
X14996400Y-6568200D01*
X14996400Y-10197000D02*
X15026400Y-10227000D01*
X15026400Y-10197000D02*
X14996400Y-10227000D01*
X14996400Y-12253200D02*
X15026400Y-12283200D01*
X15026400Y-12253200D02*
X14996400Y-12283200D01*
X14996400Y-14209000D02*
X15026400Y-14239000D01*
X15026400Y-14209000D02*
X14996400Y-14239000D01*
X15021800Y-4938000D02*
X15051800Y-4968000D01*
X15051800Y-4938000D02*
X15021800Y-4968000D01*
X15021800Y-14007000D02*
X15051800Y-14037000D01*
X15051800Y-14007000D02*
X15021800Y-14037000D01*
X15098000Y-6309600D02*
X15128000Y-6339600D01*
X15128000Y-6309600D02*
X15098000Y-6339600D01*
X15098000Y-6716000D02*
X15128000Y-6746000D01*
X15128000Y-6716000D02*
X15098000Y-6746000D01*
X15098000Y-7986000D02*
X15128000Y-8016000D01*
X15128000Y-7986000D02*
X15098000Y-8016000D01*
X15098000Y-8214600D02*
X15128000Y-8244600D01*
X15128000Y-8214600D02*
X15098000Y-8244600D01*
X15098000Y-8798800D02*
X15128000Y-8828800D01*
X15128000Y-8798800D02*
X15098000Y-8828800D01*
X15098000Y-9306800D02*
X15128000Y-9336800D01*
X15128000Y-9306800D02*
X15098000Y-9336800D01*
X15098000Y-10119600D02*
X15128000Y-10149600D01*
X15128000Y-10119600D02*
X15098000Y-10149600D01*
X15098000Y-10551400D02*
X15128000Y-10581400D01*
X15128000Y-10551400D02*
X15098000Y-10581400D01*
X15098000Y-11796000D02*
X15128000Y-11826000D01*
X15128000Y-11796000D02*
X15098000Y-11826000D01*
X15098000Y-12024600D02*
X15128000Y-12054600D01*
X15128000Y-12024600D02*
X15098000Y-12054600D01*
X15219000Y-6387000D02*
X15249000Y-6417000D01*
X15249000Y-6387000D02*
X15219000Y-6417000D01*
X15219000Y-8292000D02*
X15249000Y-8322000D01*
X15249000Y-8292000D02*
X15219000Y-8322000D01*
X15219000Y-10197000D02*
X15249000Y-10227000D01*
X15249000Y-10197000D02*
X15219000Y-10227000D01*
X15219000Y-12102000D02*
X15249000Y-12132000D01*
X15249000Y-12102000D02*
X15219000Y-12132000D01*
X15225000Y-12735800D02*
X15255000Y-12765800D01*
X15255000Y-12735800D02*
X15225000Y-12765800D01*
X15352000Y-5302800D02*
X15382000Y-5332800D01*
X15382000Y-5302800D02*
X15352000Y-5332800D01*
X15529800Y-4303000D02*
X15559800Y-4333000D01*
X15559800Y-4303000D02*
X15529800Y-4333000D01*
X15578060Y-3642600D02*
X15608060Y-3672600D01*
X15608060Y-3642600D02*
X15578060Y-3672600D01*
X15631400Y-4142980D02*
X15661400Y-4172980D01*
X15661400Y-4142980D02*
X15631400Y-4172980D01*
X15758400Y-6106400D02*
X15788400Y-6136400D01*
X15788400Y-6106400D02*
X15758400Y-6136400D01*
X15834600Y-8595600D02*
X15864600Y-8625600D01*
X15864600Y-8595600D02*
X15834600Y-8625600D01*
X15834600Y-12405600D02*
X15864600Y-12435600D01*
X15864600Y-12405600D02*
X15834600Y-12435600D01*
X15867620Y-3662920D02*
X15897620Y-3692920D01*
X15897620Y-3662920D02*
X15867620Y-3692920D01*
X15964140Y-4442700D02*
X15994140Y-4472700D01*
X15994140Y-4442700D02*
X15964140Y-4472700D01*
X15987000Y-10348200D02*
X16017000Y-10378200D01*
X16017000Y-10348200D02*
X15987000Y-10378200D01*
X16012400Y-6487400D02*
X16042400Y-6517400D01*
X16042400Y-6487400D02*
X16012400Y-6517400D01*
X16012400Y-14132800D02*
X16042400Y-14162800D01*
X16042400Y-14132800D02*
X16012400Y-14162800D01*
X16114000Y-9009601D02*
X16144000Y-9039601D01*
X16144000Y-9009601D02*
X16114000Y-9039601D01*
X16418800Y-8113000D02*
X16448800Y-8143000D01*
X16448800Y-8113000D02*
X16418800Y-8143000D01*
X16520400Y-5420600D02*
X16550400Y-5450600D01*
X16550400Y-5420600D02*
X16520400Y-5450600D01*
X16596600Y-6690600D02*
X16626600Y-6720600D01*
X16626600Y-6690600D02*
X16596600Y-6720600D01*
X16850600Y-9256000D02*
X16880600Y-9286000D01*
X16880600Y-9256000D02*
X16850600Y-9286000D01*
X16876000Y-10500600D02*
X16906000Y-10530600D01*
X16906000Y-10500600D02*
X16876000Y-10530600D01*
X16876000Y-11135600D02*
X16906000Y-11165600D01*
X16906000Y-11135600D02*
X16876000Y-11165600D01*
X16901400Y-8292000D02*
X16931400Y-8322000D01*
X16931400Y-8292000D02*
X16901400Y-8322000D01*
X16901400Y-10197000D02*
X16931400Y-10227000D01*
X16931400Y-10197000D02*
X16901400Y-10227000D01*
X16901400Y-12102000D02*
X16931400Y-12132000D01*
X16931400Y-12102000D02*
X16901400Y-12132000D01*
X16926800Y-6387000D02*
X16956800Y-6417000D01*
X16956800Y-6387000D02*
X16926800Y-6417000D01*
X16926800Y-8443200D02*
X16956800Y-8473200D01*
X16956800Y-8443200D02*
X16926800Y-8473200D01*
X16926800Y-9009601D02*
X16956800Y-9039601D01*
X16956800Y-9009601D02*
X16926800Y-9039601D01*
X16926800Y-14007000D02*
X16956800Y-14037000D01*
X16956800Y-14007000D02*
X16926800Y-14037000D01*
X17124000Y-6690600D02*
X17154000Y-6720600D01*
X17154000Y-6690600D02*
X17124000Y-6720600D01*
X17124000Y-7097000D02*
X17154000Y-7127000D01*
X17154000Y-7097000D02*
X17124000Y-7127000D01*
X17124000Y-10500600D02*
X17154000Y-10530600D01*
X17154000Y-10500600D02*
X17124000Y-10530600D01*
X17124000Y-10932400D02*
X17154000Y-10962400D01*
X17154000Y-10932400D02*
X17124000Y-10962400D01*
X17130000Y-9916400D02*
X17160000Y-9946400D01*
X17160000Y-9916400D02*
X17130000Y-9946400D01*
X17358600Y-5623800D02*
X17388600Y-5653800D01*
X17388600Y-5623800D02*
X17358600Y-5653800D01*
X17409400Y-10830800D02*
X17439400Y-10860800D01*
X17439400Y-10830800D02*
X17409400Y-10860800D01*
X17892000Y-6436600D02*
X17922000Y-6466600D01*
X17922000Y-6436600D02*
X17892000Y-6466600D01*
X17892000Y-10373600D02*
X17922000Y-10403600D01*
X17922000Y-10373600D02*
X17892000Y-10403600D01*
X18196800Y-5623800D02*
X18226800Y-5653800D01*
X18226800Y-5623800D02*
X18196800Y-5653800D01*
X10997400Y-3868800D02*
G75*
G02*
X10897400Y-3868800I-50000J0D01*
G01*
X10897400Y-3868800D02*
G75*
G02*
X10997400Y-3868800I50000J0D01*
G01*
X10997400Y-4118800D02*
G75*
G02*
X10897400Y-4118800I-50000J0D01*
G01*
X10897400Y-4118800D02*
G75*
G02*
X10997400Y-4118800I50000J0D01*
G01*
X10997400Y-4368800D02*
G75*
G02*
X10897400Y-4368800I-50000J0D01*
G01*
X10897400Y-4368800D02*
G75*
G02*
X10997400Y-4368800I50000J0D01*
G01*
X12447400Y-3868800D02*
G75*
G02*
X12347400Y-3868800I-50000J0D01*
G01*
X12347400Y-3868800D02*
G75*
G02*
X12447400Y-3868800I50000J0D01*
G01*
X12447400Y-4368800D02*
G75*
G02*
X12347400Y-4368800I-50000J0D01*
G01*
X12347400Y-4368800D02*
G75*
G02*
X12447400Y-4368800I50000J0D01*
G01*
X16737800Y-3843400D02*
G75*
G02*
X16637800Y-3843400I-50000J0D01*
G01*
X16637800Y-3843400D02*
G75*
G02*
X16737800Y-3843400I50000J0D01*
G01*
X16737800Y-4093400D02*
G75*
G02*
X16637800Y-4093400I-50000J0D01*
G01*
X16637800Y-4093400D02*
G75*
G02*
X16737800Y-4093400I50000J0D01*
G01*
X16737800Y-4343400D02*
G75*
G02*
X16637800Y-4343400I-50000J0D01*
G01*
X16637800Y-4343400D02*
G75*
G02*
X16737800Y-4343400I50000J0D01*
G01*
X18187800Y-3843400D02*
G75*
G02*
X18087800Y-3843400I-50000J0D01*
G01*
X18087800Y-3843400D02*
G75*
G02*
X18187800Y-3843400I50000J0D01*
G01*
X18187800Y-4343400D02*
G75*
G02*
X18087800Y-4343400I-50000J0D01*
G01*
X18087800Y-4343400D02*
G75*
G02*
X18187800Y-4343400I50000J0D01*
G01*
D12*
X9731000Y-6044000D02*
X9731000Y-6164000D01*
X9671000Y-6104000D02*
X9791000Y-6104000D01*
X10081000Y-6044000D02*
X10081000Y-6164000D01*
X10021000Y-6104000D02*
X10141000Y-6104000D01*
X10081000Y-13394000D02*
X10081000Y-13514000D01*
X10021000Y-13454000D02*
X10141000Y-13454000D01*
D13*
X11356033Y-5768033D02*
X11356033Y-5661966D01*
X11249966Y-5661966D01*
X11249966Y-5768033D01*
X11356033Y-5768033D01*
X11356033Y-7673033D02*
X11356033Y-7566966D01*
X11249966Y-7566966D01*
X11249966Y-7673033D01*
X11356033Y-7673033D01*
X11356033Y-9578034D02*
X11356033Y-9471967D01*
X11249966Y-9471967D01*
X11249966Y-9578034D01*
X11356033Y-9578034D01*
X11356033Y-11483033D02*
X11356033Y-11376966D01*
X11249966Y-11376966D01*
X11249966Y-11483033D01*
X11356033Y-11483033D01*
X11356033Y-13388033D02*
X11356033Y-13281966D01*
X11249966Y-13281966D01*
X11249966Y-13388033D01*
X11356033Y-13388033D01*
X11750433Y-3611833D02*
X11750433Y-3505766D01*
X11644366Y-3505766D01*
X11644366Y-3611833D01*
X11750433Y-3611833D01*
D11*
X11632400Y-3633800D02*
X11762400Y-3633800D01*
X11762400Y-3483800D02*
G75*
G02*
X11762400Y-3633800I0J-75000D01*
G01*
X11762400Y-3483800D02*
X11632400Y-3483800D01*
X11632400Y-3483800D02*
G75*
G03*
X11632400Y-3633800I0J-75000D01*
G01*
D13*
X11750433Y-4731834D02*
X11750433Y-4625767D01*
X11644366Y-4625767D01*
X11644366Y-4731834D01*
X11750433Y-4731834D01*
D11*
X11632400Y-4753800D02*
X11762400Y-4753800D01*
X11762400Y-4603800D02*
G75*
G02*
X11762400Y-4753800I0J-75000D01*
G01*
X11762400Y-4603800D02*
X11632400Y-4603800D01*
X11632400Y-4603800D02*
G75*
G03*
X11632400Y-4753800I0J-75000D01*
G01*
D13*
X11991033Y-5514034D02*
X11991033Y-5407967D01*
X11884966Y-5407967D01*
X11884966Y-5514034D01*
X11991033Y-5514034D01*
X11991033Y-7419033D02*
X11991033Y-7312966D01*
X11884966Y-7312966D01*
X11884966Y-7419033D01*
X11991033Y-7419033D01*
X11991033Y-9324034D02*
X11991033Y-9217967D01*
X11884966Y-9217967D01*
X11884966Y-9324034D01*
X11991033Y-9324034D01*
X11991033Y-11229033D02*
X11991033Y-11122967D01*
X11884966Y-11122967D01*
X11884966Y-11229033D01*
X11991033Y-11229033D01*
X11991033Y-13134033D02*
X11991033Y-13027966D01*
X11884966Y-13027966D01*
X11884966Y-13134033D01*
X11991033Y-13134033D01*
X13261033Y-5768033D02*
X13261033Y-5661966D01*
X13154966Y-5661966D01*
X13154966Y-5768033D01*
X13261033Y-5768033D01*
X13261033Y-7673033D02*
X13261033Y-7566966D01*
X13154966Y-7566966D01*
X13154966Y-7673033D01*
X13261033Y-7673033D01*
X13261033Y-9578034D02*
X13261033Y-9471967D01*
X13154966Y-9471967D01*
X13154966Y-9578034D01*
X13261033Y-9578034D01*
X13261033Y-11483033D02*
X13261033Y-11376966D01*
X13154966Y-11376966D01*
X13154966Y-11483033D01*
X13261033Y-11483033D01*
X13261033Y-13388033D02*
X13261033Y-13281966D01*
X13154966Y-13281966D01*
X13154966Y-13388033D01*
X13261033Y-13388033D01*
X13896033Y-5514034D02*
X13896033Y-5407967D01*
X13789966Y-5407967D01*
X13789966Y-5514034D01*
X13896033Y-5514034D01*
X13896033Y-7419033D02*
X13896033Y-7312966D01*
X13789966Y-7312966D01*
X13789966Y-7419033D01*
X13896033Y-7419033D01*
X13896033Y-9324034D02*
X13896033Y-9217967D01*
X13789966Y-9217967D01*
X13789966Y-9324034D01*
X13896033Y-9324034D01*
X13896033Y-11229033D02*
X13896033Y-11122967D01*
X13789966Y-11122967D01*
X13789966Y-11229033D01*
X13896033Y-11229033D01*
X13896033Y-13134033D02*
X13896033Y-13027966D01*
X13789966Y-13027966D01*
X13789966Y-13134033D01*
X13896033Y-13134033D01*
X15166033Y-5768033D02*
X15166033Y-5661966D01*
X15059966Y-5661966D01*
X15059966Y-5768033D01*
X15166033Y-5768033D01*
X15166033Y-7673033D02*
X15166033Y-7566966D01*
X15059966Y-7566966D01*
X15059966Y-7673033D01*
X15166033Y-7673033D01*
X15166033Y-9578034D02*
X15166033Y-9471967D01*
X15059966Y-9471967D01*
X15059966Y-9578034D01*
X15166033Y-9578034D01*
X15166033Y-11483033D02*
X15166033Y-11376966D01*
X15059966Y-11376966D01*
X15059966Y-11483033D01*
X15166033Y-11483033D01*
X15166033Y-13388033D02*
X15166033Y-13281966D01*
X15059966Y-13281966D01*
X15059966Y-13388033D01*
X15166033Y-13388033D01*
X15801033Y-5514034D02*
X15801033Y-5407967D01*
X15694966Y-5407967D01*
X15694966Y-5514034D01*
X15801033Y-5514034D01*
X15801033Y-7419033D02*
X15801033Y-7312966D01*
X15694966Y-7312966D01*
X15694966Y-7419033D01*
X15801033Y-7419033D01*
X15801033Y-9324034D02*
X15801033Y-9217967D01*
X15694966Y-9217967D01*
X15694966Y-9324034D01*
X15801033Y-9324034D01*
X15801033Y-11229033D02*
X15801033Y-11122967D01*
X15694966Y-11122967D01*
X15694966Y-11229033D01*
X15801033Y-11229033D01*
X15801033Y-13134033D02*
X15801033Y-13027966D01*
X15694966Y-13027966D01*
X15694966Y-13134033D01*
X15801033Y-13134033D01*
X17071034Y-5768033D02*
X17071034Y-5661966D01*
X16964967Y-5661966D01*
X16964967Y-5768033D01*
X17071034Y-5768033D01*
X17071034Y-7673033D02*
X17071034Y-7566966D01*
X16964967Y-7566966D01*
X16964967Y-7673033D01*
X17071034Y-7673033D01*
X17071034Y-9578034D02*
X17071034Y-9471967D01*
X16964967Y-9471967D01*
X16964967Y-9578034D01*
X17071034Y-9578034D01*
X17071034Y-11483033D02*
X17071034Y-11376966D01*
X16964967Y-11376966D01*
X16964967Y-11483033D01*
X17071034Y-11483033D01*
X17071034Y-13388033D02*
X17071034Y-13281966D01*
X16964967Y-13281966D01*
X16964967Y-13388033D01*
X17071034Y-13388033D01*
X17490834Y-3586433D02*
X17490834Y-3480366D01*
X17384767Y-3480366D01*
X17384767Y-3586433D01*
X17490834Y-3586433D01*
D11*
X17372800Y-3608400D02*
X17502800Y-3608400D01*
X17502800Y-3458400D02*
G75*
G02*
X17502800Y-3608400I0J-75000D01*
G01*
X17502800Y-3458400D02*
X17372800Y-3458400D01*
X17372800Y-3458400D02*
G75*
G03*
X17372800Y-3608400I0J-75000D01*
G01*
D13*
X17490834Y-4706434D02*
X17490834Y-4600367D01*
X17384767Y-4600367D01*
X17384767Y-4706434D01*
X17490834Y-4706434D01*
D11*
X17372800Y-4728400D02*
X17502800Y-4728400D01*
X17502800Y-4578400D02*
G75*
G02*
X17502800Y-4728400I0J-75000D01*
G01*
X17502800Y-4578400D02*
X17372800Y-4578400D01*
X17372800Y-4578400D02*
G75*
G03*
X17372800Y-4728400I0J-75000D01*
G01*
D13*
X17706034Y-5514034D02*
X17706034Y-5407967D01*
X17599967Y-5407967D01*
X17599967Y-5514034D01*
X17706034Y-5514034D01*
X17706034Y-7419033D02*
X17706034Y-7312966D01*
X17599967Y-7312966D01*
X17599967Y-7419033D01*
X17706034Y-7419033D01*
X17706034Y-9324034D02*
X17706034Y-9217967D01*
X17599967Y-9217967D01*
X17599967Y-9324034D01*
X17706034Y-9324034D01*
X17706034Y-11229033D02*
X17706034Y-11122967D01*
X17599967Y-11122967D01*
X17599967Y-11229033D01*
X17706034Y-11229033D01*
X17706034Y-13134033D02*
X17706034Y-13027966D01*
X17599967Y-13027966D01*
X17599967Y-13134033D01*
X17706034Y-13134033D01*
D14*
X9481000Y-6604000D02*
X9566000Y-6519000D01*
X9481000Y-6434000D01*
X9396000Y-6519000D01*
X9481000Y-6604000D01*
X9481000Y-13124000D02*
X9566000Y-13039000D01*
X9481000Y-12954000D01*
X9396000Y-13039000D01*
X9481000Y-13124000D01*
X10331000Y-6724000D02*
X10416000Y-6639000D01*
X10331000Y-6554000D01*
X10246000Y-6639000D01*
X10331000Y-6724000D01*
X10331000Y-13004000D02*
X10416000Y-12919000D01*
X10331000Y-12834000D01*
X10246000Y-12919000D01*
X10331000Y-13004000D01*
D10*
X9343777Y-14996244D02*
X9343777Y-14796244D01*
X9343777Y-14796244D02*
X9391396Y-14796244D01*
X9391396Y-14796244D02*
X9419967Y-14805768D01*
X9419967Y-14805768D02*
X9439015Y-14824815D01*
X9439015Y-14824815D02*
X9448539Y-14843863D01*
X9448539Y-14843863D02*
X9458063Y-14881958D01*
X9458063Y-14881958D02*
X9458063Y-14910530D01*
X9458063Y-14910530D02*
X9448539Y-14948625D01*
X9448539Y-14948625D02*
X9439015Y-14967672D01*
X9439015Y-14967672D02*
X9419967Y-14986720D01*
X9419967Y-14986720D02*
X9391396Y-14996244D01*
X9391396Y-14996244D02*
X9343777Y-14996244D01*
X9543777Y-14996244D02*
X9543777Y-14862911D01*
X9543777Y-14901006D02*
X9553301Y-14881958D01*
X9553301Y-14881958D02*
X9562824Y-14872434D01*
X9562824Y-14872434D02*
X9581872Y-14862911D01*
X9581872Y-14862911D02*
X9600920Y-14862911D01*
X9667586Y-14996244D02*
X9667586Y-14862911D01*
X9667586Y-14796244D02*
X9658063Y-14805768D01*
X9658063Y-14805768D02*
X9667586Y-14815292D01*
X9667586Y-14815292D02*
X9677110Y-14805768D01*
X9677110Y-14805768D02*
X9667586Y-14796244D01*
X9667586Y-14796244D02*
X9667586Y-14815292D01*
X9791396Y-14996244D02*
X9772348Y-14986720D01*
X9772348Y-14986720D02*
X9762824Y-14967672D01*
X9762824Y-14967672D02*
X9762824Y-14796244D01*
X9896158Y-14996244D02*
X9877110Y-14986720D01*
X9877110Y-14986720D02*
X9867586Y-14967672D01*
X9867586Y-14967672D02*
X9867586Y-14796244D01*
X10124729Y-14996244D02*
X10124729Y-14796244D01*
X10124729Y-14796244D02*
X10191396Y-14939101D01*
X10191396Y-14939101D02*
X10258063Y-14796244D01*
X10258063Y-14796244D02*
X10258063Y-14996244D01*
X10439015Y-14996244D02*
X10439015Y-14891482D01*
X10439015Y-14891482D02*
X10429491Y-14872434D01*
X10429491Y-14872434D02*
X10410444Y-14862911D01*
X10410444Y-14862911D02*
X10372348Y-14862911D01*
X10372348Y-14862911D02*
X10353301Y-14872434D01*
X10439015Y-14986720D02*
X10419967Y-14996244D01*
X10419967Y-14996244D02*
X10372348Y-14996244D01*
X10372348Y-14996244D02*
X10353301Y-14986720D01*
X10353301Y-14986720D02*
X10343777Y-14967672D01*
X10343777Y-14967672D02*
X10343777Y-14948625D01*
X10343777Y-14948625D02*
X10353301Y-14929577D01*
X10353301Y-14929577D02*
X10372348Y-14920053D01*
X10372348Y-14920053D02*
X10419967Y-14920053D01*
X10419967Y-14920053D02*
X10439015Y-14910530D01*
X10534253Y-14862911D02*
X10534253Y-15062911D01*
X10534253Y-14872434D02*
X10553301Y-14862911D01*
X10553301Y-14862911D02*
X10591396Y-14862911D01*
X10591396Y-14862911D02*
X10610444Y-14872434D01*
X10610444Y-14872434D02*
X10619967Y-14881958D01*
X10619967Y-14881958D02*
X10629491Y-14901006D01*
X10629491Y-14901006D02*
X10629491Y-14958149D01*
X10629491Y-14958149D02*
X10619967Y-14977196D01*
X10619967Y-14977196D02*
X10610444Y-14986720D01*
X10610444Y-14986720D02*
X10591396Y-14996244D01*
X10591396Y-14996244D02*
X10553301Y-14996244D01*
X10553301Y-14996244D02*
X10534253Y-14986720D01*
X10715205Y-14977196D02*
X10724729Y-14986720D01*
X10724729Y-14986720D02*
X10715205Y-14996244D01*
X10715205Y-14996244D02*
X10705682Y-14986720D01*
X10705682Y-14986720D02*
X10715205Y-14977196D01*
X10715205Y-14977196D02*
X10715205Y-14996244D01*
X10715205Y-14872434D02*
X10724729Y-14881958D01*
X10724729Y-14881958D02*
X10715205Y-14891482D01*
X10715205Y-14891482D02*
X10705682Y-14881958D01*
X10705682Y-14881958D02*
X10715205Y-14872434D01*
X10715205Y-14872434D02*
X10715205Y-14891482D01*
D11*
X9053000Y-15309760D02*
X9083000Y-15339760D01*
X9083000Y-15309760D02*
X9053000Y-15339760D01*
D10*
X9381872Y-15216244D02*
X9400920Y-15216244D01*
X9400920Y-15216244D02*
X9419967Y-15225768D01*
X9419967Y-15225768D02*
X9429491Y-15235292D01*
X9429491Y-15235292D02*
X9439015Y-15254339D01*
X9439015Y-15254339D02*
X9448539Y-15292434D01*
X9448539Y-15292434D02*
X9448539Y-15340053D01*
X9448539Y-15340053D02*
X9439015Y-15378149D01*
X9439015Y-15378149D02*
X9429491Y-15397196D01*
X9429491Y-15397196D02*
X9419967Y-15406720D01*
X9419967Y-15406720D02*
X9400920Y-15416244D01*
X9400920Y-15416244D02*
X9381872Y-15416244D01*
X9381872Y-15416244D02*
X9362824Y-15406720D01*
X9362824Y-15406720D02*
X9353301Y-15397196D01*
X9353301Y-15397196D02*
X9343777Y-15378149D01*
X9343777Y-15378149D02*
X9334253Y-15340053D01*
X9334253Y-15340053D02*
X9334253Y-15292434D01*
X9334253Y-15292434D02*
X9343777Y-15254339D01*
X9343777Y-15254339D02*
X9353301Y-15235292D01*
X9353301Y-15235292D02*
X9362824Y-15225768D01*
X9362824Y-15225768D02*
X9381872Y-15216244D01*
X9534253Y-15397196D02*
X9543777Y-15406720D01*
X9543777Y-15406720D02*
X9534253Y-15416244D01*
X9534253Y-15416244D02*
X9524729Y-15406720D01*
X9524729Y-15406720D02*
X9534253Y-15397196D01*
X9534253Y-15397196D02*
X9534253Y-15416244D01*
X9610444Y-15216244D02*
X9734253Y-15216244D01*
X9734253Y-15216244D02*
X9667586Y-15292434D01*
X9667586Y-15292434D02*
X9696158Y-15292434D01*
X9696158Y-15292434D02*
X9715205Y-15301958D01*
X9715205Y-15301958D02*
X9724729Y-15311482D01*
X9724729Y-15311482D02*
X9734253Y-15330530D01*
X9734253Y-15330530D02*
X9734253Y-15378149D01*
X9734253Y-15378149D02*
X9724729Y-15397196D01*
X9724729Y-15397196D02*
X9715205Y-15406720D01*
X9715205Y-15406720D02*
X9696158Y-15416244D01*
X9696158Y-15416244D02*
X9639015Y-15416244D01*
X9639015Y-15416244D02*
X9619967Y-15406720D01*
X9619967Y-15406720D02*
X9610444Y-15397196D01*
X9858063Y-15216244D02*
X9877110Y-15216244D01*
X9877110Y-15216244D02*
X9896158Y-15225768D01*
X9896158Y-15225768D02*
X9905682Y-15235292D01*
X9905682Y-15235292D02*
X9915205Y-15254339D01*
X9915205Y-15254339D02*
X9924729Y-15292434D01*
X9924729Y-15292434D02*
X9924729Y-15340053D01*
X9924729Y-15340053D02*
X9915205Y-15378149D01*
X9915205Y-15378149D02*
X9905682Y-15397196D01*
X9905682Y-15397196D02*
X9896158Y-15406720D01*
X9896158Y-15406720D02*
X9877110Y-15416244D01*
X9877110Y-15416244D02*
X9858063Y-15416244D01*
X9858063Y-15416244D02*
X9839015Y-15406720D01*
X9839015Y-15406720D02*
X9829491Y-15397196D01*
X9829491Y-15397196D02*
X9819967Y-15378149D01*
X9819967Y-15378149D02*
X9810444Y-15340053D01*
X9810444Y-15340053D02*
X9810444Y-15292434D01*
X9810444Y-15292434D02*
X9819967Y-15254339D01*
X9819967Y-15254339D02*
X9829491Y-15235292D01*
X9829491Y-15235292D02*
X9839015Y-15225768D01*
X9839015Y-15225768D02*
X9858063Y-15216244D01*
X10048539Y-15216244D02*
X10067586Y-15216244D01*
X10067586Y-15216244D02*
X10086634Y-15225768D01*
X10086634Y-15225768D02*
X10096158Y-15235292D01*
X10096158Y-15235292D02*
X10105682Y-15254339D01*
X10105682Y-15254339D02*
X10115205Y-15292434D01*
X10115205Y-15292434D02*
X10115205Y-15340053D01*
X10115205Y-15340053D02*
X10105682Y-15378149D01*
X10105682Y-15378149D02*
X10096158Y-15397196D01*
X10096158Y-15397196D02*
X10086634Y-15406720D01*
X10086634Y-15406720D02*
X10067586Y-15416244D01*
X10067586Y-15416244D02*
X10048539Y-15416244D01*
X10048539Y-15416244D02*
X10029491Y-15406720D01*
X10029491Y-15406720D02*
X10019967Y-15397196D01*
X10019967Y-15397196D02*
X10010444Y-15378149D01*
X10010444Y-15378149D02*
X10000920Y-15340053D01*
X10000920Y-15340053D02*
X10000920Y-15292434D01*
X10000920Y-15292434D02*
X10010444Y-15254339D01*
X10010444Y-15254339D02*
X10019967Y-15235292D01*
X10019967Y-15235292D02*
X10029491Y-15225768D01*
X10029491Y-15225768D02*
X10048539Y-15216244D01*
X10200920Y-15416244D02*
X10200920Y-15282911D01*
X10200920Y-15301958D02*
X10210444Y-15292434D01*
X10210444Y-15292434D02*
X10229491Y-15282911D01*
X10229491Y-15282911D02*
X10258063Y-15282911D01*
X10258063Y-15282911D02*
X10277110Y-15292434D01*
X10277110Y-15292434D02*
X10286634Y-15311482D01*
X10286634Y-15311482D02*
X10286634Y-15416244D01*
X10286634Y-15311482D02*
X10296158Y-15292434D01*
X10296158Y-15292434D02*
X10315205Y-15282911D01*
X10315205Y-15282911D02*
X10343777Y-15282911D01*
X10343777Y-15282911D02*
X10362825Y-15292434D01*
X10362825Y-15292434D02*
X10372348Y-15311482D01*
X10372348Y-15311482D02*
X10372348Y-15416244D01*
X10467586Y-15416244D02*
X10467586Y-15282911D01*
X10467586Y-15301958D02*
X10477110Y-15292434D01*
X10477110Y-15292434D02*
X10496158Y-15282911D01*
X10496158Y-15282911D02*
X10524729Y-15282911D01*
X10524729Y-15282911D02*
X10543777Y-15292434D01*
X10543777Y-15292434D02*
X10553301Y-15311482D01*
X10553301Y-15311482D02*
X10553301Y-15416244D01*
X10553301Y-15311482D02*
X10562825Y-15292434D01*
X10562825Y-15292434D02*
X10581872Y-15282911D01*
X10581872Y-15282911D02*
X10610444Y-15282911D01*
X10610444Y-15282911D02*
X10629491Y-15292434D01*
X10629491Y-15292434D02*
X10639015Y-15311482D01*
X10639015Y-15311482D02*
X10639015Y-15416244D01*
X11029491Y-15206720D02*
X10858063Y-15463863D01*
X11286634Y-15216244D02*
X11305682Y-15216244D01*
X11305682Y-15216244D02*
X11324729Y-15225768D01*
X11324729Y-15225768D02*
X11334253Y-15235292D01*
X11334253Y-15235292D02*
X11343777Y-15254339D01*
X11343777Y-15254339D02*
X11353301Y-15292434D01*
X11353301Y-15292434D02*
X11353301Y-15340053D01*
X11353301Y-15340053D02*
X11343777Y-15378149D01*
X11343777Y-15378149D02*
X11334253Y-15397196D01*
X11334253Y-15397196D02*
X11324729Y-15406720D01*
X11324729Y-15406720D02*
X11305682Y-15416244D01*
X11305682Y-15416244D02*
X11286634Y-15416244D01*
X11286634Y-15416244D02*
X11267586Y-15406720D01*
X11267586Y-15406720D02*
X11258063Y-15397196D01*
X11258063Y-15397196D02*
X11248539Y-15378149D01*
X11248539Y-15378149D02*
X11239015Y-15340053D01*
X11239015Y-15340053D02*
X11239015Y-15292434D01*
X11239015Y-15292434D02*
X11248539Y-15254339D01*
X11248539Y-15254339D02*
X11258063Y-15235292D01*
X11258063Y-15235292D02*
X11267586Y-15225768D01*
X11267586Y-15225768D02*
X11286634Y-15216244D01*
X11439015Y-15397196D02*
X11448539Y-15406720D01*
X11448539Y-15406720D02*
X11439015Y-15416244D01*
X11439015Y-15416244D02*
X11429491Y-15406720D01*
X11429491Y-15406720D02*
X11439015Y-15397196D01*
X11439015Y-15397196D02*
X11439015Y-15416244D01*
X11572348Y-15216244D02*
X11591396Y-15216244D01*
X11591396Y-15216244D02*
X11610444Y-15225768D01*
X11610444Y-15225768D02*
X11619967Y-15235292D01*
X11619967Y-15235292D02*
X11629491Y-15254339D01*
X11629491Y-15254339D02*
X11639015Y-15292434D01*
X11639015Y-15292434D02*
X11639015Y-15340053D01*
X11639015Y-15340053D02*
X11629491Y-15378149D01*
X11629491Y-15378149D02*
X11619967Y-15397196D01*
X11619967Y-15397196D02*
X11610444Y-15406720D01*
X11610444Y-15406720D02*
X11591396Y-15416244D01*
X11591396Y-15416244D02*
X11572348Y-15416244D01*
X11572348Y-15416244D02*
X11553301Y-15406720D01*
X11553301Y-15406720D02*
X11543777Y-15397196D01*
X11543777Y-15397196D02*
X11534253Y-15378149D01*
X11534253Y-15378149D02*
X11524729Y-15340053D01*
X11524729Y-15340053D02*
X11524729Y-15292434D01*
X11524729Y-15292434D02*
X11534253Y-15254339D01*
X11534253Y-15254339D02*
X11543777Y-15235292D01*
X11543777Y-15235292D02*
X11553301Y-15225768D01*
X11553301Y-15225768D02*
X11572348Y-15216244D01*
X11829491Y-15416244D02*
X11715206Y-15416244D01*
X11772348Y-15416244D02*
X11772348Y-15216244D01*
X11772348Y-15216244D02*
X11753301Y-15244815D01*
X11753301Y-15244815D02*
X11734253Y-15263863D01*
X11734253Y-15263863D02*
X11715206Y-15273387D01*
X12019967Y-15416244D02*
X11905682Y-15416244D01*
X11962825Y-15416244D02*
X11962825Y-15216244D01*
X11962825Y-15216244D02*
X11943777Y-15244815D01*
X11943777Y-15244815D02*
X11924729Y-15263863D01*
X11924729Y-15263863D02*
X11905682Y-15273387D01*
X12134253Y-15301958D02*
X12115206Y-15292434D01*
X12115206Y-15292434D02*
X12105682Y-15282911D01*
X12105682Y-15282911D02*
X12096158Y-15263863D01*
X12096158Y-15263863D02*
X12096158Y-15254339D01*
X12096158Y-15254339D02*
X12105682Y-15235292D01*
X12105682Y-15235292D02*
X12115206Y-15225768D01*
X12115206Y-15225768D02*
X12134253Y-15216244D01*
X12134253Y-15216244D02*
X12172348Y-15216244D01*
X12172348Y-15216244D02*
X12191396Y-15225768D01*
X12191396Y-15225768D02*
X12200920Y-15235292D01*
X12200920Y-15235292D02*
X12210444Y-15254339D01*
X12210444Y-15254339D02*
X12210444Y-15263863D01*
X12210444Y-15263863D02*
X12200920Y-15282911D01*
X12200920Y-15282911D02*
X12191396Y-15292434D01*
X12191396Y-15292434D02*
X12172348Y-15301958D01*
X12172348Y-15301958D02*
X12134253Y-15301958D01*
X12134253Y-15301958D02*
X12115206Y-15311482D01*
X12115206Y-15311482D02*
X12105682Y-15321006D01*
X12105682Y-15321006D02*
X12096158Y-15340053D01*
X12096158Y-15340053D02*
X12096158Y-15378149D01*
X12096158Y-15378149D02*
X12105682Y-15397196D01*
X12105682Y-15397196D02*
X12115206Y-15406720D01*
X12115206Y-15406720D02*
X12134253Y-15416244D01*
X12134253Y-15416244D02*
X12172348Y-15416244D01*
X12172348Y-15416244D02*
X12191396Y-15406720D01*
X12191396Y-15406720D02*
X12200920Y-15397196D01*
X12200920Y-15397196D02*
X12210444Y-15378149D01*
X12210444Y-15378149D02*
X12210444Y-15340053D01*
X12210444Y-15340053D02*
X12200920Y-15321006D01*
X12200920Y-15321006D02*
X12191396Y-15311482D01*
X12191396Y-15311482D02*
X12172348Y-15301958D01*
X12286634Y-15216244D02*
X12286634Y-15254339D01*
X12362825Y-15216244D02*
X12362825Y-15254339D01*
X12658063Y-15492434D02*
X12648539Y-15482911D01*
X12648539Y-15482911D02*
X12629491Y-15454339D01*
X12629491Y-15454339D02*
X12619968Y-15435292D01*
X12619968Y-15435292D02*
X12610444Y-15406720D01*
X12610444Y-15406720D02*
X12600920Y-15359101D01*
X12600920Y-15359101D02*
X12600920Y-15321006D01*
X12600920Y-15321006D02*
X12610444Y-15273387D01*
X12610444Y-15273387D02*
X12619968Y-15244815D01*
X12619968Y-15244815D02*
X12629491Y-15225768D01*
X12629491Y-15225768D02*
X12648539Y-15197196D01*
X12648539Y-15197196D02*
X12658063Y-15187672D01*
X12839015Y-15416244D02*
X12724729Y-15416244D01*
X12781872Y-15416244D02*
X12781872Y-15216244D01*
X12781872Y-15216244D02*
X12762825Y-15244815D01*
X12762825Y-15244815D02*
X12743777Y-15263863D01*
X12743777Y-15263863D02*
X12724729Y-15273387D01*
X12905682Y-15216244D02*
X13029491Y-15216244D01*
X13029491Y-15216244D02*
X12962825Y-15292434D01*
X12962825Y-15292434D02*
X12991396Y-15292434D01*
X12991396Y-15292434D02*
X13010444Y-15301958D01*
X13010444Y-15301958D02*
X13019968Y-15311482D01*
X13019968Y-15311482D02*
X13029491Y-15330530D01*
X13029491Y-15330530D02*
X13029491Y-15378149D01*
X13029491Y-15378149D02*
X13019968Y-15397196D01*
X13019968Y-15397196D02*
X13010444Y-15406720D01*
X13010444Y-15406720D02*
X12991396Y-15416244D01*
X12991396Y-15416244D02*
X12934253Y-15416244D01*
X12934253Y-15416244D02*
X12915206Y-15406720D01*
X12915206Y-15406720D02*
X12905682Y-15397196D01*
X13219968Y-15416244D02*
X13105682Y-15416244D01*
X13162825Y-15416244D02*
X13162825Y-15216244D01*
X13162825Y-15216244D02*
X13143777Y-15244815D01*
X13143777Y-15244815D02*
X13124729Y-15263863D01*
X13124729Y-15263863D02*
X13105682Y-15273387D01*
X13458063Y-15416244D02*
X13458063Y-15216244D01*
X13543777Y-15416244D02*
X13543777Y-15311482D01*
X13543777Y-15311482D02*
X13534253Y-15292434D01*
X13534253Y-15292434D02*
X13515206Y-15282911D01*
X13515206Y-15282911D02*
X13486634Y-15282911D01*
X13486634Y-15282911D02*
X13467587Y-15292434D01*
X13467587Y-15292434D02*
X13458063Y-15301958D01*
X13667587Y-15416244D02*
X13648539Y-15406720D01*
X13648539Y-15406720D02*
X13639015Y-15397196D01*
X13639015Y-15397196D02*
X13629491Y-15378149D01*
X13629491Y-15378149D02*
X13629491Y-15321006D01*
X13629491Y-15321006D02*
X13639015Y-15301958D01*
X13639015Y-15301958D02*
X13648539Y-15292434D01*
X13648539Y-15292434D02*
X13667587Y-15282911D01*
X13667587Y-15282911D02*
X13696158Y-15282911D01*
X13696158Y-15282911D02*
X13715206Y-15292434D01*
X13715206Y-15292434D02*
X13724730Y-15301958D01*
X13724730Y-15301958D02*
X13734253Y-15321006D01*
X13734253Y-15321006D02*
X13734253Y-15378149D01*
X13734253Y-15378149D02*
X13724730Y-15397196D01*
X13724730Y-15397196D02*
X13715206Y-15406720D01*
X13715206Y-15406720D02*
X13696158Y-15416244D01*
X13696158Y-15416244D02*
X13667587Y-15416244D01*
X13848539Y-15416244D02*
X13829491Y-15406720D01*
X13829491Y-15406720D02*
X13819968Y-15387672D01*
X13819968Y-15387672D02*
X13819968Y-15216244D01*
X14000920Y-15406720D02*
X13981872Y-15416244D01*
X13981872Y-15416244D02*
X13943777Y-15416244D01*
X13943777Y-15416244D02*
X13924730Y-15406720D01*
X13924730Y-15406720D02*
X13915206Y-15387672D01*
X13915206Y-15387672D02*
X13915206Y-15311482D01*
X13915206Y-15311482D02*
X13924730Y-15292434D01*
X13924730Y-15292434D02*
X13943777Y-15282911D01*
X13943777Y-15282911D02*
X13981872Y-15282911D01*
X13981872Y-15282911D02*
X14000920Y-15292434D01*
X14000920Y-15292434D02*
X14010444Y-15311482D01*
X14010444Y-15311482D02*
X14010444Y-15330530D01*
X14010444Y-15330530D02*
X13915206Y-15349577D01*
X14086634Y-15406720D02*
X14105682Y-15416244D01*
X14105682Y-15416244D02*
X14143777Y-15416244D01*
X14143777Y-15416244D02*
X14162825Y-15406720D01*
X14162825Y-15406720D02*
X14172349Y-15387672D01*
X14172349Y-15387672D02*
X14172349Y-15378149D01*
X14172349Y-15378149D02*
X14162825Y-15359101D01*
X14162825Y-15359101D02*
X14143777Y-15349577D01*
X14143777Y-15349577D02*
X14115206Y-15349577D01*
X14115206Y-15349577D02*
X14096158Y-15340053D01*
X14096158Y-15340053D02*
X14086634Y-15321006D01*
X14086634Y-15321006D02*
X14086634Y-15311482D01*
X14086634Y-15311482D02*
X14096158Y-15292434D01*
X14096158Y-15292434D02*
X14115206Y-15282911D01*
X14115206Y-15282911D02*
X14143777Y-15282911D01*
X14143777Y-15282911D02*
X14162825Y-15292434D01*
X14239015Y-15492434D02*
X14248539Y-15482911D01*
X14248539Y-15482911D02*
X14267587Y-15454339D01*
X14267587Y-15454339D02*
X14277111Y-15435292D01*
X14277111Y-15435292D02*
X14286634Y-15406720D01*
X14286634Y-15406720D02*
X14296158Y-15359101D01*
X14296158Y-15359101D02*
X14296158Y-15321006D01*
X14296158Y-15321006D02*
X14286634Y-15273387D01*
X14286634Y-15273387D02*
X14277111Y-15244815D01*
X14277111Y-15244815D02*
X14267587Y-15225768D01*
X14267587Y-15225768D02*
X14248539Y-15197196D01*
X14248539Y-15197196D02*
X14239015Y-15187672D01*
D11*
X9083000Y-15588760D02*
G75*
G02*
X8983000Y-15588760I-50000J0D01*
G01*
X8983000Y-15588760D02*
G75*
G02*
X9083000Y-15588760I50000J0D01*
G01*
D10*
X9448539Y-15680244D02*
X9334253Y-15680244D01*
X9391396Y-15680244D02*
X9391396Y-15480244D01*
X9391396Y-15480244D02*
X9372348Y-15508815D01*
X9372348Y-15508815D02*
X9353301Y-15527863D01*
X9353301Y-15527863D02*
X9334253Y-15537387D01*
X9534253Y-15661196D02*
X9543777Y-15670720D01*
X9543777Y-15670720D02*
X9534253Y-15680244D01*
X9534253Y-15680244D02*
X9524729Y-15670720D01*
X9524729Y-15670720D02*
X9534253Y-15661196D01*
X9534253Y-15661196D02*
X9534253Y-15680244D01*
X9667586Y-15480244D02*
X9686634Y-15480244D01*
X9686634Y-15480244D02*
X9705682Y-15489768D01*
X9705682Y-15489768D02*
X9715205Y-15499292D01*
X9715205Y-15499292D02*
X9724729Y-15518339D01*
X9724729Y-15518339D02*
X9734253Y-15556434D01*
X9734253Y-15556434D02*
X9734253Y-15604053D01*
X9734253Y-15604053D02*
X9724729Y-15642149D01*
X9724729Y-15642149D02*
X9715205Y-15661196D01*
X9715205Y-15661196D02*
X9705682Y-15670720D01*
X9705682Y-15670720D02*
X9686634Y-15680244D01*
X9686634Y-15680244D02*
X9667586Y-15680244D01*
X9667586Y-15680244D02*
X9648539Y-15670720D01*
X9648539Y-15670720D02*
X9639015Y-15661196D01*
X9639015Y-15661196D02*
X9629491Y-15642149D01*
X9629491Y-15642149D02*
X9619967Y-15604053D01*
X9619967Y-15604053D02*
X9619967Y-15556434D01*
X9619967Y-15556434D02*
X9629491Y-15518339D01*
X9629491Y-15518339D02*
X9639015Y-15499292D01*
X9639015Y-15499292D02*
X9648539Y-15489768D01*
X9648539Y-15489768D02*
X9667586Y-15480244D01*
X9858063Y-15480244D02*
X9877110Y-15480244D01*
X9877110Y-15480244D02*
X9896158Y-15489768D01*
X9896158Y-15489768D02*
X9905682Y-15499292D01*
X9905682Y-15499292D02*
X9915205Y-15518339D01*
X9915205Y-15518339D02*
X9924729Y-15556434D01*
X9924729Y-15556434D02*
X9924729Y-15604053D01*
X9924729Y-15604053D02*
X9915205Y-15642149D01*
X9915205Y-15642149D02*
X9905682Y-15661196D01*
X9905682Y-15661196D02*
X9896158Y-15670720D01*
X9896158Y-15670720D02*
X9877110Y-15680244D01*
X9877110Y-15680244D02*
X9858063Y-15680244D01*
X9858063Y-15680244D02*
X9839015Y-15670720D01*
X9839015Y-15670720D02*
X9829491Y-15661196D01*
X9829491Y-15661196D02*
X9819967Y-15642149D01*
X9819967Y-15642149D02*
X9810444Y-15604053D01*
X9810444Y-15604053D02*
X9810444Y-15556434D01*
X9810444Y-15556434D02*
X9819967Y-15518339D01*
X9819967Y-15518339D02*
X9829491Y-15499292D01*
X9829491Y-15499292D02*
X9839015Y-15489768D01*
X9839015Y-15489768D02*
X9858063Y-15480244D01*
X10048539Y-15480244D02*
X10067586Y-15480244D01*
X10067586Y-15480244D02*
X10086634Y-15489768D01*
X10086634Y-15489768D02*
X10096158Y-15499292D01*
X10096158Y-15499292D02*
X10105682Y-15518339D01*
X10105682Y-15518339D02*
X10115205Y-15556434D01*
X10115205Y-15556434D02*
X10115205Y-15604053D01*
X10115205Y-15604053D02*
X10105682Y-15642149D01*
X10105682Y-15642149D02*
X10096158Y-15661196D01*
X10096158Y-15661196D02*
X10086634Y-15670720D01*
X10086634Y-15670720D02*
X10067586Y-15680244D01*
X10067586Y-15680244D02*
X10048539Y-15680244D01*
X10048539Y-15680244D02*
X10029491Y-15670720D01*
X10029491Y-15670720D02*
X10019967Y-15661196D01*
X10019967Y-15661196D02*
X10010444Y-15642149D01*
X10010444Y-15642149D02*
X10000920Y-15604053D01*
X10000920Y-15604053D02*
X10000920Y-15556434D01*
X10000920Y-15556434D02*
X10010444Y-15518339D01*
X10010444Y-15518339D02*
X10019967Y-15499292D01*
X10019967Y-15499292D02*
X10029491Y-15489768D01*
X10029491Y-15489768D02*
X10048539Y-15480244D01*
X10200920Y-15680244D02*
X10200920Y-15546911D01*
X10200920Y-15565958D02*
X10210444Y-15556434D01*
X10210444Y-15556434D02*
X10229491Y-15546911D01*
X10229491Y-15546911D02*
X10258063Y-15546911D01*
X10258063Y-15546911D02*
X10277110Y-15556434D01*
X10277110Y-15556434D02*
X10286634Y-15575482D01*
X10286634Y-15575482D02*
X10286634Y-15680244D01*
X10286634Y-15575482D02*
X10296158Y-15556434D01*
X10296158Y-15556434D02*
X10315205Y-15546911D01*
X10315205Y-15546911D02*
X10343777Y-15546911D01*
X10343777Y-15546911D02*
X10362825Y-15556434D01*
X10362825Y-15556434D02*
X10372348Y-15575482D01*
X10372348Y-15575482D02*
X10372348Y-15680244D01*
X10467586Y-15680244D02*
X10467586Y-15546911D01*
X10467586Y-15565958D02*
X10477110Y-15556434D01*
X10477110Y-15556434D02*
X10496158Y-15546911D01*
X10496158Y-15546911D02*
X10524729Y-15546911D01*
X10524729Y-15546911D02*
X10543777Y-15556434D01*
X10543777Y-15556434D02*
X10553301Y-15575482D01*
X10553301Y-15575482D02*
X10553301Y-15680244D01*
X10553301Y-15575482D02*
X10562825Y-15556434D01*
X10562825Y-15556434D02*
X10581872Y-15546911D01*
X10581872Y-15546911D02*
X10610444Y-15546911D01*
X10610444Y-15546911D02*
X10629491Y-15556434D01*
X10629491Y-15556434D02*
X10639015Y-15575482D01*
X10639015Y-15575482D02*
X10639015Y-15680244D01*
X11029491Y-15470720D02*
X10858063Y-15727863D01*
X11286634Y-15480244D02*
X11305682Y-15480244D01*
X11305682Y-15480244D02*
X11324729Y-15489768D01*
X11324729Y-15489768D02*
X11334253Y-15499292D01*
X11334253Y-15499292D02*
X11343777Y-15518339D01*
X11343777Y-15518339D02*
X11353301Y-15556434D01*
X11353301Y-15556434D02*
X11353301Y-15604053D01*
X11353301Y-15604053D02*
X11343777Y-15642149D01*
X11343777Y-15642149D02*
X11334253Y-15661196D01*
X11334253Y-15661196D02*
X11324729Y-15670720D01*
X11324729Y-15670720D02*
X11305682Y-15680244D01*
X11305682Y-15680244D02*
X11286634Y-15680244D01*
X11286634Y-15680244D02*
X11267586Y-15670720D01*
X11267586Y-15670720D02*
X11258063Y-15661196D01*
X11258063Y-15661196D02*
X11248539Y-15642149D01*
X11248539Y-15642149D02*
X11239015Y-15604053D01*
X11239015Y-15604053D02*
X11239015Y-15556434D01*
X11239015Y-15556434D02*
X11248539Y-15518339D01*
X11248539Y-15518339D02*
X11258063Y-15499292D01*
X11258063Y-15499292D02*
X11267586Y-15489768D01*
X11267586Y-15489768D02*
X11286634Y-15480244D01*
X11439015Y-15661196D02*
X11448539Y-15670720D01*
X11448539Y-15670720D02*
X11439015Y-15680244D01*
X11439015Y-15680244D02*
X11429491Y-15670720D01*
X11429491Y-15670720D02*
X11439015Y-15661196D01*
X11439015Y-15661196D02*
X11439015Y-15680244D01*
X11572348Y-15480244D02*
X11591396Y-15480244D01*
X11591396Y-15480244D02*
X11610444Y-15489768D01*
X11610444Y-15489768D02*
X11619967Y-15499292D01*
X11619967Y-15499292D02*
X11629491Y-15518339D01*
X11629491Y-15518339D02*
X11639015Y-15556434D01*
X11639015Y-15556434D02*
X11639015Y-15604053D01*
X11639015Y-15604053D02*
X11629491Y-15642149D01*
X11629491Y-15642149D02*
X11619967Y-15661196D01*
X11619967Y-15661196D02*
X11610444Y-15670720D01*
X11610444Y-15670720D02*
X11591396Y-15680244D01*
X11591396Y-15680244D02*
X11572348Y-15680244D01*
X11572348Y-15680244D02*
X11553301Y-15670720D01*
X11553301Y-15670720D02*
X11543777Y-15661196D01*
X11543777Y-15661196D02*
X11534253Y-15642149D01*
X11534253Y-15642149D02*
X11524729Y-15604053D01*
X11524729Y-15604053D02*
X11524729Y-15556434D01*
X11524729Y-15556434D02*
X11534253Y-15518339D01*
X11534253Y-15518339D02*
X11543777Y-15499292D01*
X11543777Y-15499292D02*
X11553301Y-15489768D01*
X11553301Y-15489768D02*
X11572348Y-15480244D01*
X11705682Y-15480244D02*
X11829491Y-15480244D01*
X11829491Y-15480244D02*
X11762825Y-15556434D01*
X11762825Y-15556434D02*
X11791396Y-15556434D01*
X11791396Y-15556434D02*
X11810444Y-15565958D01*
X11810444Y-15565958D02*
X11819967Y-15575482D01*
X11819967Y-15575482D02*
X11829491Y-15594530D01*
X11829491Y-15594530D02*
X11829491Y-15642149D01*
X11829491Y-15642149D02*
X11819967Y-15661196D01*
X11819967Y-15661196D02*
X11810444Y-15670720D01*
X11810444Y-15670720D02*
X11791396Y-15680244D01*
X11791396Y-15680244D02*
X11734253Y-15680244D01*
X11734253Y-15680244D02*
X11715206Y-15670720D01*
X11715206Y-15670720D02*
X11705682Y-15661196D01*
X11924729Y-15680244D02*
X11962825Y-15680244D01*
X11962825Y-15680244D02*
X11981872Y-15670720D01*
X11981872Y-15670720D02*
X11991396Y-15661196D01*
X11991396Y-15661196D02*
X12010444Y-15632625D01*
X12010444Y-15632625D02*
X12019967Y-15594530D01*
X12019967Y-15594530D02*
X12019967Y-15518339D01*
X12019967Y-15518339D02*
X12010444Y-15499292D01*
X12010444Y-15499292D02*
X12000920Y-15489768D01*
X12000920Y-15489768D02*
X11981872Y-15480244D01*
X11981872Y-15480244D02*
X11943777Y-15480244D01*
X11943777Y-15480244D02*
X11924729Y-15489768D01*
X11924729Y-15489768D02*
X11915206Y-15499292D01*
X11915206Y-15499292D02*
X11905682Y-15518339D01*
X11905682Y-15518339D02*
X11905682Y-15565958D01*
X11905682Y-15565958D02*
X11915206Y-15585006D01*
X11915206Y-15585006D02*
X11924729Y-15594530D01*
X11924729Y-15594530D02*
X11943777Y-15604053D01*
X11943777Y-15604053D02*
X11981872Y-15604053D01*
X11981872Y-15604053D02*
X12000920Y-15594530D01*
X12000920Y-15594530D02*
X12010444Y-15585006D01*
X12010444Y-15585006D02*
X12019967Y-15565958D01*
X12191396Y-15546911D02*
X12191396Y-15680244D01*
X12143777Y-15470720D02*
X12096158Y-15613577D01*
X12096158Y-15613577D02*
X12219967Y-15613577D01*
X12286634Y-15480244D02*
X12286634Y-15518339D01*
X12362825Y-15480244D02*
X12362825Y-15518339D01*
X12658063Y-15756434D02*
X12648539Y-15746911D01*
X12648539Y-15746911D02*
X12629491Y-15718339D01*
X12629491Y-15718339D02*
X12619968Y-15699292D01*
X12619968Y-15699292D02*
X12610444Y-15670720D01*
X12610444Y-15670720D02*
X12600920Y-15623101D01*
X12600920Y-15623101D02*
X12600920Y-15585006D01*
X12600920Y-15585006D02*
X12610444Y-15537387D01*
X12610444Y-15537387D02*
X12619968Y-15508815D01*
X12619968Y-15508815D02*
X12629491Y-15489768D01*
X12629491Y-15489768D02*
X12648539Y-15461196D01*
X12648539Y-15461196D02*
X12658063Y-15451672D01*
X12839015Y-15680244D02*
X12724729Y-15680244D01*
X12781872Y-15680244D02*
X12781872Y-15480244D01*
X12781872Y-15480244D02*
X12762825Y-15508815D01*
X12762825Y-15508815D02*
X12743777Y-15527863D01*
X12743777Y-15527863D02*
X12724729Y-15537387D01*
X12962825Y-15480244D02*
X12981872Y-15480244D01*
X12981872Y-15480244D02*
X13000920Y-15489768D01*
X13000920Y-15489768D02*
X13010444Y-15499292D01*
X13010444Y-15499292D02*
X13019968Y-15518339D01*
X13019968Y-15518339D02*
X13029491Y-15556434D01*
X13029491Y-15556434D02*
X13029491Y-15604053D01*
X13029491Y-15604053D02*
X13019968Y-15642149D01*
X13019968Y-15642149D02*
X13010444Y-15661196D01*
X13010444Y-15661196D02*
X13000920Y-15670720D01*
X13000920Y-15670720D02*
X12981872Y-15680244D01*
X12981872Y-15680244D02*
X12962825Y-15680244D01*
X12962825Y-15680244D02*
X12943777Y-15670720D01*
X12943777Y-15670720D02*
X12934253Y-15661196D01*
X12934253Y-15661196D02*
X12924729Y-15642149D01*
X12924729Y-15642149D02*
X12915206Y-15604053D01*
X12915206Y-15604053D02*
X12915206Y-15556434D01*
X12915206Y-15556434D02*
X12924729Y-15518339D01*
X12924729Y-15518339D02*
X12934253Y-15499292D01*
X12934253Y-15499292D02*
X12943777Y-15489768D01*
X12943777Y-15489768D02*
X12962825Y-15480244D01*
X13267587Y-15680244D02*
X13267587Y-15480244D01*
X13353301Y-15680244D02*
X13353301Y-15575482D01*
X13353301Y-15575482D02*
X13343777Y-15556434D01*
X13343777Y-15556434D02*
X13324730Y-15546911D01*
X13324730Y-15546911D02*
X13296158Y-15546911D01*
X13296158Y-15546911D02*
X13277110Y-15556434D01*
X13277110Y-15556434D02*
X13267587Y-15565958D01*
X13477110Y-15680244D02*
X13458063Y-15670720D01*
X13458063Y-15670720D02*
X13448539Y-15661196D01*
X13448539Y-15661196D02*
X13439015Y-15642149D01*
X13439015Y-15642149D02*
X13439015Y-15585006D01*
X13439015Y-15585006D02*
X13448539Y-15565958D01*
X13448539Y-15565958D02*
X13458063Y-15556434D01*
X13458063Y-15556434D02*
X13477110Y-15546911D01*
X13477110Y-15546911D02*
X13505682Y-15546911D01*
X13505682Y-15546911D02*
X13524730Y-15556434D01*
X13524730Y-15556434D02*
X13534253Y-15565958D01*
X13534253Y-15565958D02*
X13543777Y-15585006D01*
X13543777Y-15585006D02*
X13543777Y-15642149D01*
X13543777Y-15642149D02*
X13534253Y-15661196D01*
X13534253Y-15661196D02*
X13524730Y-15670720D01*
X13524730Y-15670720D02*
X13505682Y-15680244D01*
X13505682Y-15680244D02*
X13477110Y-15680244D01*
X13658063Y-15680244D02*
X13639015Y-15670720D01*
X13639015Y-15670720D02*
X13629491Y-15651672D01*
X13629491Y-15651672D02*
X13629491Y-15480244D01*
X13810444Y-15670720D02*
X13791396Y-15680244D01*
X13791396Y-15680244D02*
X13753301Y-15680244D01*
X13753301Y-15680244D02*
X13734253Y-15670720D01*
X13734253Y-15670720D02*
X13724730Y-15651672D01*
X13724730Y-15651672D02*
X13724730Y-15575482D01*
X13724730Y-15575482D02*
X13734253Y-15556434D01*
X13734253Y-15556434D02*
X13753301Y-15546911D01*
X13753301Y-15546911D02*
X13791396Y-15546911D01*
X13791396Y-15546911D02*
X13810444Y-15556434D01*
X13810444Y-15556434D02*
X13819968Y-15575482D01*
X13819968Y-15575482D02*
X13819968Y-15594530D01*
X13819968Y-15594530D02*
X13724730Y-15613577D01*
X13896158Y-15670720D02*
X13915206Y-15680244D01*
X13915206Y-15680244D02*
X13953301Y-15680244D01*
X13953301Y-15680244D02*
X13972349Y-15670720D01*
X13972349Y-15670720D02*
X13981872Y-15651672D01*
X13981872Y-15651672D02*
X13981872Y-15642149D01*
X13981872Y-15642149D02*
X13972349Y-15623101D01*
X13972349Y-15623101D02*
X13953301Y-15613577D01*
X13953301Y-15613577D02*
X13924730Y-15613577D01*
X13924730Y-15613577D02*
X13905682Y-15604053D01*
X13905682Y-15604053D02*
X13896158Y-15585006D01*
X13896158Y-15585006D02*
X13896158Y-15575482D01*
X13896158Y-15575482D02*
X13905682Y-15556434D01*
X13905682Y-15556434D02*
X13924730Y-15546911D01*
X13924730Y-15546911D02*
X13953301Y-15546911D01*
X13953301Y-15546911D02*
X13972349Y-15556434D01*
X14048539Y-15756434D02*
X14058063Y-15746911D01*
X14058063Y-15746911D02*
X14077111Y-15718339D01*
X14077111Y-15718339D02*
X14086634Y-15699292D01*
X14086634Y-15699292D02*
X14096158Y-15670720D01*
X14096158Y-15670720D02*
X14105682Y-15623101D01*
X14105682Y-15623101D02*
X14105682Y-15585006D01*
X14105682Y-15585006D02*
X14096158Y-15537387D01*
X14096158Y-15537387D02*
X14086634Y-15508815D01*
X14086634Y-15508815D02*
X14077111Y-15489768D01*
X14077111Y-15489768D02*
X14058063Y-15461196D01*
X14058063Y-15461196D02*
X14048539Y-15451672D01*
D12*
X9023000Y-15792760D02*
X9023000Y-15912760D01*
X8963000Y-15852760D02*
X9083000Y-15852760D01*
D10*
X9448539Y-15944244D02*
X9334253Y-15944244D01*
X9391396Y-15944244D02*
X9391396Y-15744244D01*
X9391396Y-15744244D02*
X9372348Y-15772815D01*
X9372348Y-15772815D02*
X9353301Y-15791863D01*
X9353301Y-15791863D02*
X9334253Y-15801387D01*
X9534253Y-15925196D02*
X9543777Y-15934720D01*
X9543777Y-15934720D02*
X9534253Y-15944244D01*
X9534253Y-15944244D02*
X9524729Y-15934720D01*
X9524729Y-15934720D02*
X9534253Y-15925196D01*
X9534253Y-15925196D02*
X9534253Y-15944244D01*
X9619967Y-15763292D02*
X9629491Y-15753768D01*
X9629491Y-15753768D02*
X9648539Y-15744244D01*
X9648539Y-15744244D02*
X9696158Y-15744244D01*
X9696158Y-15744244D02*
X9715205Y-15753768D01*
X9715205Y-15753768D02*
X9724729Y-15763292D01*
X9724729Y-15763292D02*
X9734253Y-15782339D01*
X9734253Y-15782339D02*
X9734253Y-15801387D01*
X9734253Y-15801387D02*
X9724729Y-15829958D01*
X9724729Y-15829958D02*
X9610444Y-15944244D01*
X9610444Y-15944244D02*
X9734253Y-15944244D01*
X9858063Y-15744244D02*
X9877110Y-15744244D01*
X9877110Y-15744244D02*
X9896158Y-15753768D01*
X9896158Y-15753768D02*
X9905682Y-15763292D01*
X9905682Y-15763292D02*
X9915205Y-15782339D01*
X9915205Y-15782339D02*
X9924729Y-15820434D01*
X9924729Y-15820434D02*
X9924729Y-15868053D01*
X9924729Y-15868053D02*
X9915205Y-15906149D01*
X9915205Y-15906149D02*
X9905682Y-15925196D01*
X9905682Y-15925196D02*
X9896158Y-15934720D01*
X9896158Y-15934720D02*
X9877110Y-15944244D01*
X9877110Y-15944244D02*
X9858063Y-15944244D01*
X9858063Y-15944244D02*
X9839015Y-15934720D01*
X9839015Y-15934720D02*
X9829491Y-15925196D01*
X9829491Y-15925196D02*
X9819967Y-15906149D01*
X9819967Y-15906149D02*
X9810444Y-15868053D01*
X9810444Y-15868053D02*
X9810444Y-15820434D01*
X9810444Y-15820434D02*
X9819967Y-15782339D01*
X9819967Y-15782339D02*
X9829491Y-15763292D01*
X9829491Y-15763292D02*
X9839015Y-15753768D01*
X9839015Y-15753768D02*
X9858063Y-15744244D01*
X10048539Y-15744244D02*
X10067586Y-15744244D01*
X10067586Y-15744244D02*
X10086634Y-15753768D01*
X10086634Y-15753768D02*
X10096158Y-15763292D01*
X10096158Y-15763292D02*
X10105682Y-15782339D01*
X10105682Y-15782339D02*
X10115205Y-15820434D01*
X10115205Y-15820434D02*
X10115205Y-15868053D01*
X10115205Y-15868053D02*
X10105682Y-15906149D01*
X10105682Y-15906149D02*
X10096158Y-15925196D01*
X10096158Y-15925196D02*
X10086634Y-15934720D01*
X10086634Y-15934720D02*
X10067586Y-15944244D01*
X10067586Y-15944244D02*
X10048539Y-15944244D01*
X10048539Y-15944244D02*
X10029491Y-15934720D01*
X10029491Y-15934720D02*
X10019967Y-15925196D01*
X10019967Y-15925196D02*
X10010444Y-15906149D01*
X10010444Y-15906149D02*
X10000920Y-15868053D01*
X10000920Y-15868053D02*
X10000920Y-15820434D01*
X10000920Y-15820434D02*
X10010444Y-15782339D01*
X10010444Y-15782339D02*
X10019967Y-15763292D01*
X10019967Y-15763292D02*
X10029491Y-15753768D01*
X10029491Y-15753768D02*
X10048539Y-15744244D01*
X10200920Y-15944244D02*
X10200920Y-15810911D01*
X10200920Y-15829958D02*
X10210444Y-15820434D01*
X10210444Y-15820434D02*
X10229491Y-15810911D01*
X10229491Y-15810911D02*
X10258063Y-15810911D01*
X10258063Y-15810911D02*
X10277110Y-15820434D01*
X10277110Y-15820434D02*
X10286634Y-15839482D01*
X10286634Y-15839482D02*
X10286634Y-15944244D01*
X10286634Y-15839482D02*
X10296158Y-15820434D01*
X10296158Y-15820434D02*
X10315205Y-15810911D01*
X10315205Y-15810911D02*
X10343777Y-15810911D01*
X10343777Y-15810911D02*
X10362825Y-15820434D01*
X10362825Y-15820434D02*
X10372348Y-15839482D01*
X10372348Y-15839482D02*
X10372348Y-15944244D01*
X10467586Y-15944244D02*
X10467586Y-15810911D01*
X10467586Y-15829958D02*
X10477110Y-15820434D01*
X10477110Y-15820434D02*
X10496158Y-15810911D01*
X10496158Y-15810911D02*
X10524729Y-15810911D01*
X10524729Y-15810911D02*
X10543777Y-15820434D01*
X10543777Y-15820434D02*
X10553301Y-15839482D01*
X10553301Y-15839482D02*
X10553301Y-15944244D01*
X10553301Y-15839482D02*
X10562825Y-15820434D01*
X10562825Y-15820434D02*
X10581872Y-15810911D01*
X10581872Y-15810911D02*
X10610444Y-15810911D01*
X10610444Y-15810911D02*
X10629491Y-15820434D01*
X10629491Y-15820434D02*
X10639015Y-15839482D01*
X10639015Y-15839482D02*
X10639015Y-15944244D01*
X11029491Y-15734720D02*
X10858063Y-15991863D01*
X11286634Y-15744244D02*
X11305682Y-15744244D01*
X11305682Y-15744244D02*
X11324729Y-15753768D01*
X11324729Y-15753768D02*
X11334253Y-15763292D01*
X11334253Y-15763292D02*
X11343777Y-15782339D01*
X11343777Y-15782339D02*
X11353301Y-15820434D01*
X11353301Y-15820434D02*
X11353301Y-15868053D01*
X11353301Y-15868053D02*
X11343777Y-15906149D01*
X11343777Y-15906149D02*
X11334253Y-15925196D01*
X11334253Y-15925196D02*
X11324729Y-15934720D01*
X11324729Y-15934720D02*
X11305682Y-15944244D01*
X11305682Y-15944244D02*
X11286634Y-15944244D01*
X11286634Y-15944244D02*
X11267586Y-15934720D01*
X11267586Y-15934720D02*
X11258063Y-15925196D01*
X11258063Y-15925196D02*
X11248539Y-15906149D01*
X11248539Y-15906149D02*
X11239015Y-15868053D01*
X11239015Y-15868053D02*
X11239015Y-15820434D01*
X11239015Y-15820434D02*
X11248539Y-15782339D01*
X11248539Y-15782339D02*
X11258063Y-15763292D01*
X11258063Y-15763292D02*
X11267586Y-15753768D01*
X11267586Y-15753768D02*
X11286634Y-15744244D01*
X11439015Y-15925196D02*
X11448539Y-15934720D01*
X11448539Y-15934720D02*
X11439015Y-15944244D01*
X11439015Y-15944244D02*
X11429491Y-15934720D01*
X11429491Y-15934720D02*
X11439015Y-15925196D01*
X11439015Y-15925196D02*
X11439015Y-15944244D01*
X11572348Y-15744244D02*
X11591396Y-15744244D01*
X11591396Y-15744244D02*
X11610444Y-15753768D01*
X11610444Y-15753768D02*
X11619967Y-15763292D01*
X11619967Y-15763292D02*
X11629491Y-15782339D01*
X11629491Y-15782339D02*
X11639015Y-15820434D01*
X11639015Y-15820434D02*
X11639015Y-15868053D01*
X11639015Y-15868053D02*
X11629491Y-15906149D01*
X11629491Y-15906149D02*
X11619967Y-15925196D01*
X11619967Y-15925196D02*
X11610444Y-15934720D01*
X11610444Y-15934720D02*
X11591396Y-15944244D01*
X11591396Y-15944244D02*
X11572348Y-15944244D01*
X11572348Y-15944244D02*
X11553301Y-15934720D01*
X11553301Y-15934720D02*
X11543777Y-15925196D01*
X11543777Y-15925196D02*
X11534253Y-15906149D01*
X11534253Y-15906149D02*
X11524729Y-15868053D01*
X11524729Y-15868053D02*
X11524729Y-15820434D01*
X11524729Y-15820434D02*
X11534253Y-15782339D01*
X11534253Y-15782339D02*
X11543777Y-15763292D01*
X11543777Y-15763292D02*
X11553301Y-15753768D01*
X11553301Y-15753768D02*
X11572348Y-15744244D01*
X11810444Y-15810911D02*
X11810444Y-15944244D01*
X11762825Y-15734720D02*
X11715206Y-15877577D01*
X11715206Y-15877577D02*
X11839015Y-15877577D01*
X11896158Y-15744244D02*
X12029491Y-15744244D01*
X12029491Y-15744244D02*
X11943777Y-15944244D01*
X12096158Y-15763292D02*
X12105682Y-15753768D01*
X12105682Y-15753768D02*
X12124729Y-15744244D01*
X12124729Y-15744244D02*
X12172348Y-15744244D01*
X12172348Y-15744244D02*
X12191396Y-15753768D01*
X12191396Y-15753768D02*
X12200920Y-15763292D01*
X12200920Y-15763292D02*
X12210444Y-15782339D01*
X12210444Y-15782339D02*
X12210444Y-15801387D01*
X12210444Y-15801387D02*
X12200920Y-15829958D01*
X12200920Y-15829958D02*
X12086634Y-15944244D01*
X12086634Y-15944244D02*
X12210444Y-15944244D01*
X12286634Y-15744244D02*
X12286634Y-15782339D01*
X12362825Y-15744244D02*
X12362825Y-15782339D01*
X12658063Y-16020434D02*
X12648539Y-16010911D01*
X12648539Y-16010911D02*
X12629491Y-15982339D01*
X12629491Y-15982339D02*
X12619968Y-15963292D01*
X12619968Y-15963292D02*
X12610444Y-15934720D01*
X12610444Y-15934720D02*
X12600920Y-15887101D01*
X12600920Y-15887101D02*
X12600920Y-15849006D01*
X12600920Y-15849006D02*
X12610444Y-15801387D01*
X12610444Y-15801387D02*
X12619968Y-15772815D01*
X12619968Y-15772815D02*
X12629491Y-15753768D01*
X12629491Y-15753768D02*
X12648539Y-15725196D01*
X12648539Y-15725196D02*
X12658063Y-15715672D01*
X12715206Y-15744244D02*
X12839015Y-15744244D01*
X12839015Y-15744244D02*
X12772348Y-15820434D01*
X12772348Y-15820434D02*
X12800920Y-15820434D01*
X12800920Y-15820434D02*
X12819968Y-15829958D01*
X12819968Y-15829958D02*
X12829491Y-15839482D01*
X12829491Y-15839482D02*
X12839015Y-15858530D01*
X12839015Y-15858530D02*
X12839015Y-15906149D01*
X12839015Y-15906149D02*
X12829491Y-15925196D01*
X12829491Y-15925196D02*
X12819968Y-15934720D01*
X12819968Y-15934720D02*
X12800920Y-15944244D01*
X12800920Y-15944244D02*
X12743777Y-15944244D01*
X12743777Y-15944244D02*
X12724729Y-15934720D01*
X12724729Y-15934720D02*
X12715206Y-15925196D01*
X13077110Y-15944244D02*
X13077110Y-15744244D01*
X13162825Y-15944244D02*
X13162825Y-15839482D01*
X13162825Y-15839482D02*
X13153301Y-15820434D01*
X13153301Y-15820434D02*
X13134253Y-15810911D01*
X13134253Y-15810911D02*
X13105682Y-15810911D01*
X13105682Y-15810911D02*
X13086634Y-15820434D01*
X13086634Y-15820434D02*
X13077110Y-15829958D01*
X13286634Y-15944244D02*
X13267587Y-15934720D01*
X13267587Y-15934720D02*
X13258063Y-15925196D01*
X13258063Y-15925196D02*
X13248539Y-15906149D01*
X13248539Y-15906149D02*
X13248539Y-15849006D01*
X13248539Y-15849006D02*
X13258063Y-15829958D01*
X13258063Y-15829958D02*
X13267587Y-15820434D01*
X13267587Y-15820434D02*
X13286634Y-15810911D01*
X13286634Y-15810911D02*
X13315206Y-15810911D01*
X13315206Y-15810911D02*
X13334253Y-15820434D01*
X13334253Y-15820434D02*
X13343777Y-15829958D01*
X13343777Y-15829958D02*
X13353301Y-15849006D01*
X13353301Y-15849006D02*
X13353301Y-15906149D01*
X13353301Y-15906149D02*
X13343777Y-15925196D01*
X13343777Y-15925196D02*
X13334253Y-15934720D01*
X13334253Y-15934720D02*
X13315206Y-15944244D01*
X13315206Y-15944244D02*
X13286634Y-15944244D01*
X13467587Y-15944244D02*
X13448539Y-15934720D01*
X13448539Y-15934720D02*
X13439015Y-15915672D01*
X13439015Y-15915672D02*
X13439015Y-15744244D01*
X13619968Y-15934720D02*
X13600920Y-15944244D01*
X13600920Y-15944244D02*
X13562825Y-15944244D01*
X13562825Y-15944244D02*
X13543777Y-15934720D01*
X13543777Y-15934720D02*
X13534253Y-15915672D01*
X13534253Y-15915672D02*
X13534253Y-15839482D01*
X13534253Y-15839482D02*
X13543777Y-15820434D01*
X13543777Y-15820434D02*
X13562825Y-15810911D01*
X13562825Y-15810911D02*
X13600920Y-15810911D01*
X13600920Y-15810911D02*
X13619968Y-15820434D01*
X13619968Y-15820434D02*
X13629491Y-15839482D01*
X13629491Y-15839482D02*
X13629491Y-15858530D01*
X13629491Y-15858530D02*
X13534253Y-15877577D01*
X13705682Y-15934720D02*
X13724730Y-15944244D01*
X13724730Y-15944244D02*
X13762825Y-15944244D01*
X13762825Y-15944244D02*
X13781872Y-15934720D01*
X13781872Y-15934720D02*
X13791396Y-15915672D01*
X13791396Y-15915672D02*
X13791396Y-15906149D01*
X13791396Y-15906149D02*
X13781872Y-15887101D01*
X13781872Y-15887101D02*
X13762825Y-15877577D01*
X13762825Y-15877577D02*
X13734253Y-15877577D01*
X13734253Y-15877577D02*
X13715206Y-15868053D01*
X13715206Y-15868053D02*
X13705682Y-15849006D01*
X13705682Y-15849006D02*
X13705682Y-15839482D01*
X13705682Y-15839482D02*
X13715206Y-15820434D01*
X13715206Y-15820434D02*
X13734253Y-15810911D01*
X13734253Y-15810911D02*
X13762825Y-15810911D01*
X13762825Y-15810911D02*
X13781872Y-15820434D01*
X13858063Y-16020434D02*
X13867587Y-16010911D01*
X13867587Y-16010911D02*
X13886634Y-15982339D01*
X13886634Y-15982339D02*
X13896158Y-15963292D01*
X13896158Y-15963292D02*
X13905682Y-15934720D01*
X13905682Y-15934720D02*
X13915206Y-15887101D01*
X13915206Y-15887101D02*
X13915206Y-15849006D01*
X13915206Y-15849006D02*
X13905682Y-15801387D01*
X13905682Y-15801387D02*
X13896158Y-15772815D01*
X13896158Y-15772815D02*
X13886634Y-15753768D01*
X13886634Y-15753768D02*
X13867587Y-15725196D01*
X13867587Y-15725196D02*
X13858063Y-15715672D01*
D13*
X9061034Y-16169794D02*
X9061034Y-16063727D01*
X8954967Y-16063727D01*
X8954967Y-16169794D01*
X9061034Y-16169794D01*
D10*
X9448539Y-16208244D02*
X9334253Y-16208244D01*
X9391396Y-16208244D02*
X9391396Y-16008244D01*
X9391396Y-16008244D02*
X9372348Y-16036815D01*
X9372348Y-16036815D02*
X9353301Y-16055863D01*
X9353301Y-16055863D02*
X9334253Y-16065387D01*
X9534253Y-16189196D02*
X9543777Y-16198720D01*
X9543777Y-16198720D02*
X9534253Y-16208244D01*
X9534253Y-16208244D02*
X9524729Y-16198720D01*
X9524729Y-16198720D02*
X9534253Y-16189196D01*
X9534253Y-16189196D02*
X9534253Y-16208244D01*
X9724729Y-16008244D02*
X9629491Y-16008244D01*
X9629491Y-16008244D02*
X9619967Y-16103482D01*
X9619967Y-16103482D02*
X9629491Y-16093958D01*
X9629491Y-16093958D02*
X9648539Y-16084434D01*
X9648539Y-16084434D02*
X9696158Y-16084434D01*
X9696158Y-16084434D02*
X9715205Y-16093958D01*
X9715205Y-16093958D02*
X9724729Y-16103482D01*
X9724729Y-16103482D02*
X9734253Y-16122530D01*
X9734253Y-16122530D02*
X9734253Y-16170149D01*
X9734253Y-16170149D02*
X9724729Y-16189196D01*
X9724729Y-16189196D02*
X9715205Y-16198720D01*
X9715205Y-16198720D02*
X9696158Y-16208244D01*
X9696158Y-16208244D02*
X9648539Y-16208244D01*
X9648539Y-16208244D02*
X9629491Y-16198720D01*
X9629491Y-16198720D02*
X9619967Y-16189196D01*
X9858063Y-16008244D02*
X9877110Y-16008244D01*
X9877110Y-16008244D02*
X9896158Y-16017768D01*
X9896158Y-16017768D02*
X9905682Y-16027292D01*
X9905682Y-16027292D02*
X9915205Y-16046339D01*
X9915205Y-16046339D02*
X9924729Y-16084434D01*
X9924729Y-16084434D02*
X9924729Y-16132053D01*
X9924729Y-16132053D02*
X9915205Y-16170149D01*
X9915205Y-16170149D02*
X9905682Y-16189196D01*
X9905682Y-16189196D02*
X9896158Y-16198720D01*
X9896158Y-16198720D02*
X9877110Y-16208244D01*
X9877110Y-16208244D02*
X9858063Y-16208244D01*
X9858063Y-16208244D02*
X9839015Y-16198720D01*
X9839015Y-16198720D02*
X9829491Y-16189196D01*
X9829491Y-16189196D02*
X9819967Y-16170149D01*
X9819967Y-16170149D02*
X9810444Y-16132053D01*
X9810444Y-16132053D02*
X9810444Y-16084434D01*
X9810444Y-16084434D02*
X9819967Y-16046339D01*
X9819967Y-16046339D02*
X9829491Y-16027292D01*
X9829491Y-16027292D02*
X9839015Y-16017768D01*
X9839015Y-16017768D02*
X9858063Y-16008244D01*
X10048539Y-16008244D02*
X10067586Y-16008244D01*
X10067586Y-16008244D02*
X10086634Y-16017768D01*
X10086634Y-16017768D02*
X10096158Y-16027292D01*
X10096158Y-16027292D02*
X10105682Y-16046339D01*
X10105682Y-16046339D02*
X10115205Y-16084434D01*
X10115205Y-16084434D02*
X10115205Y-16132053D01*
X10115205Y-16132053D02*
X10105682Y-16170149D01*
X10105682Y-16170149D02*
X10096158Y-16189196D01*
X10096158Y-16189196D02*
X10086634Y-16198720D01*
X10086634Y-16198720D02*
X10067586Y-16208244D01*
X10067586Y-16208244D02*
X10048539Y-16208244D01*
X10048539Y-16208244D02*
X10029491Y-16198720D01*
X10029491Y-16198720D02*
X10019967Y-16189196D01*
X10019967Y-16189196D02*
X10010444Y-16170149D01*
X10010444Y-16170149D02*
X10000920Y-16132053D01*
X10000920Y-16132053D02*
X10000920Y-16084434D01*
X10000920Y-16084434D02*
X10010444Y-16046339D01*
X10010444Y-16046339D02*
X10019967Y-16027292D01*
X10019967Y-16027292D02*
X10029491Y-16017768D01*
X10029491Y-16017768D02*
X10048539Y-16008244D01*
X10200920Y-16208244D02*
X10200920Y-16074911D01*
X10200920Y-16093958D02*
X10210444Y-16084434D01*
X10210444Y-16084434D02*
X10229491Y-16074911D01*
X10229491Y-16074911D02*
X10258063Y-16074911D01*
X10258063Y-16074911D02*
X10277110Y-16084434D01*
X10277110Y-16084434D02*
X10286634Y-16103482D01*
X10286634Y-16103482D02*
X10286634Y-16208244D01*
X10286634Y-16103482D02*
X10296158Y-16084434D01*
X10296158Y-16084434D02*
X10315205Y-16074911D01*
X10315205Y-16074911D02*
X10343777Y-16074911D01*
X10343777Y-16074911D02*
X10362825Y-16084434D01*
X10362825Y-16084434D02*
X10372348Y-16103482D01*
X10372348Y-16103482D02*
X10372348Y-16208244D01*
X10467586Y-16208244D02*
X10467586Y-16074911D01*
X10467586Y-16093958D02*
X10477110Y-16084434D01*
X10477110Y-16084434D02*
X10496158Y-16074911D01*
X10496158Y-16074911D02*
X10524729Y-16074911D01*
X10524729Y-16074911D02*
X10543777Y-16084434D01*
X10543777Y-16084434D02*
X10553301Y-16103482D01*
X10553301Y-16103482D02*
X10553301Y-16208244D01*
X10553301Y-16103482D02*
X10562825Y-16084434D01*
X10562825Y-16084434D02*
X10581872Y-16074911D01*
X10581872Y-16074911D02*
X10610444Y-16074911D01*
X10610444Y-16074911D02*
X10629491Y-16084434D01*
X10629491Y-16084434D02*
X10639015Y-16103482D01*
X10639015Y-16103482D02*
X10639015Y-16208244D01*
X11029491Y-15998720D02*
X10858063Y-16255863D01*
X11286634Y-16008244D02*
X11305682Y-16008244D01*
X11305682Y-16008244D02*
X11324729Y-16017768D01*
X11324729Y-16017768D02*
X11334253Y-16027292D01*
X11334253Y-16027292D02*
X11343777Y-16046339D01*
X11343777Y-16046339D02*
X11353301Y-16084434D01*
X11353301Y-16084434D02*
X11353301Y-16132053D01*
X11353301Y-16132053D02*
X11343777Y-16170149D01*
X11343777Y-16170149D02*
X11334253Y-16189196D01*
X11334253Y-16189196D02*
X11324729Y-16198720D01*
X11324729Y-16198720D02*
X11305682Y-16208244D01*
X11305682Y-16208244D02*
X11286634Y-16208244D01*
X11286634Y-16208244D02*
X11267586Y-16198720D01*
X11267586Y-16198720D02*
X11258063Y-16189196D01*
X11258063Y-16189196D02*
X11248539Y-16170149D01*
X11248539Y-16170149D02*
X11239015Y-16132053D01*
X11239015Y-16132053D02*
X11239015Y-16084434D01*
X11239015Y-16084434D02*
X11248539Y-16046339D01*
X11248539Y-16046339D02*
X11258063Y-16027292D01*
X11258063Y-16027292D02*
X11267586Y-16017768D01*
X11267586Y-16017768D02*
X11286634Y-16008244D01*
X11439015Y-16189196D02*
X11448539Y-16198720D01*
X11448539Y-16198720D02*
X11439015Y-16208244D01*
X11439015Y-16208244D02*
X11429491Y-16198720D01*
X11429491Y-16198720D02*
X11439015Y-16189196D01*
X11439015Y-16189196D02*
X11439015Y-16208244D01*
X11572348Y-16008244D02*
X11591396Y-16008244D01*
X11591396Y-16008244D02*
X11610444Y-16017768D01*
X11610444Y-16017768D02*
X11619967Y-16027292D01*
X11619967Y-16027292D02*
X11629491Y-16046339D01*
X11629491Y-16046339D02*
X11639015Y-16084434D01*
X11639015Y-16084434D02*
X11639015Y-16132053D01*
X11639015Y-16132053D02*
X11629491Y-16170149D01*
X11629491Y-16170149D02*
X11619967Y-16189196D01*
X11619967Y-16189196D02*
X11610444Y-16198720D01*
X11610444Y-16198720D02*
X11591396Y-16208244D01*
X11591396Y-16208244D02*
X11572348Y-16208244D01*
X11572348Y-16208244D02*
X11553301Y-16198720D01*
X11553301Y-16198720D02*
X11543777Y-16189196D01*
X11543777Y-16189196D02*
X11534253Y-16170149D01*
X11534253Y-16170149D02*
X11524729Y-16132053D01*
X11524729Y-16132053D02*
X11524729Y-16084434D01*
X11524729Y-16084434D02*
X11534253Y-16046339D01*
X11534253Y-16046339D02*
X11543777Y-16027292D01*
X11543777Y-16027292D02*
X11553301Y-16017768D01*
X11553301Y-16017768D02*
X11572348Y-16008244D01*
X11819967Y-16008244D02*
X11724729Y-16008244D01*
X11724729Y-16008244D02*
X11715206Y-16103482D01*
X11715206Y-16103482D02*
X11724729Y-16093958D01*
X11724729Y-16093958D02*
X11743777Y-16084434D01*
X11743777Y-16084434D02*
X11791396Y-16084434D01*
X11791396Y-16084434D02*
X11810444Y-16093958D01*
X11810444Y-16093958D02*
X11819967Y-16103482D01*
X11819967Y-16103482D02*
X11829491Y-16122530D01*
X11829491Y-16122530D02*
X11829491Y-16170149D01*
X11829491Y-16170149D02*
X11819967Y-16189196D01*
X11819967Y-16189196D02*
X11810444Y-16198720D01*
X11810444Y-16198720D02*
X11791396Y-16208244D01*
X11791396Y-16208244D02*
X11743777Y-16208244D01*
X11743777Y-16208244D02*
X11724729Y-16198720D01*
X11724729Y-16198720D02*
X11715206Y-16189196D01*
X11924729Y-16208244D02*
X11962825Y-16208244D01*
X11962825Y-16208244D02*
X11981872Y-16198720D01*
X11981872Y-16198720D02*
X11991396Y-16189196D01*
X11991396Y-16189196D02*
X12010444Y-16160625D01*
X12010444Y-16160625D02*
X12019967Y-16122530D01*
X12019967Y-16122530D02*
X12019967Y-16046339D01*
X12019967Y-16046339D02*
X12010444Y-16027292D01*
X12010444Y-16027292D02*
X12000920Y-16017768D01*
X12000920Y-16017768D02*
X11981872Y-16008244D01*
X11981872Y-16008244D02*
X11943777Y-16008244D01*
X11943777Y-16008244D02*
X11924729Y-16017768D01*
X11924729Y-16017768D02*
X11915206Y-16027292D01*
X11915206Y-16027292D02*
X11905682Y-16046339D01*
X11905682Y-16046339D02*
X11905682Y-16093958D01*
X11905682Y-16093958D02*
X11915206Y-16113006D01*
X11915206Y-16113006D02*
X11924729Y-16122530D01*
X11924729Y-16122530D02*
X11943777Y-16132053D01*
X11943777Y-16132053D02*
X11981872Y-16132053D01*
X11981872Y-16132053D02*
X12000920Y-16122530D01*
X12000920Y-16122530D02*
X12010444Y-16113006D01*
X12010444Y-16113006D02*
X12019967Y-16093958D01*
X12210444Y-16208244D02*
X12096158Y-16208244D01*
X12153301Y-16208244D02*
X12153301Y-16008244D01*
X12153301Y-16008244D02*
X12134253Y-16036815D01*
X12134253Y-16036815D02*
X12115206Y-16055863D01*
X12115206Y-16055863D02*
X12096158Y-16065387D01*
X12286634Y-16008244D02*
X12286634Y-16046339D01*
X12362825Y-16008244D02*
X12362825Y-16046339D01*
X12658063Y-16284434D02*
X12648539Y-16274911D01*
X12648539Y-16274911D02*
X12629491Y-16246339D01*
X12629491Y-16246339D02*
X12619968Y-16227292D01*
X12619968Y-16227292D02*
X12610444Y-16198720D01*
X12610444Y-16198720D02*
X12600920Y-16151101D01*
X12600920Y-16151101D02*
X12600920Y-16113006D01*
X12600920Y-16113006D02*
X12610444Y-16065387D01*
X12610444Y-16065387D02*
X12619968Y-16036815D01*
X12619968Y-16036815D02*
X12629491Y-16017768D01*
X12629491Y-16017768D02*
X12648539Y-15989196D01*
X12648539Y-15989196D02*
X12658063Y-15979672D01*
X12819968Y-16074911D02*
X12819968Y-16208244D01*
X12772348Y-15998720D02*
X12724729Y-16141577D01*
X12724729Y-16141577D02*
X12848539Y-16141577D01*
X12962825Y-16008244D02*
X12981872Y-16008244D01*
X12981872Y-16008244D02*
X13000920Y-16017768D01*
X13000920Y-16017768D02*
X13010444Y-16027292D01*
X13010444Y-16027292D02*
X13019968Y-16046339D01*
X13019968Y-16046339D02*
X13029491Y-16084434D01*
X13029491Y-16084434D02*
X13029491Y-16132053D01*
X13029491Y-16132053D02*
X13019968Y-16170149D01*
X13019968Y-16170149D02*
X13010444Y-16189196D01*
X13010444Y-16189196D02*
X13000920Y-16198720D01*
X13000920Y-16198720D02*
X12981872Y-16208244D01*
X12981872Y-16208244D02*
X12962825Y-16208244D01*
X12962825Y-16208244D02*
X12943777Y-16198720D01*
X12943777Y-16198720D02*
X12934253Y-16189196D01*
X12934253Y-16189196D02*
X12924729Y-16170149D01*
X12924729Y-16170149D02*
X12915206Y-16132053D01*
X12915206Y-16132053D02*
X12915206Y-16084434D01*
X12915206Y-16084434D02*
X12924729Y-16046339D01*
X12924729Y-16046339D02*
X12934253Y-16027292D01*
X12934253Y-16027292D02*
X12943777Y-16017768D01*
X12943777Y-16017768D02*
X12962825Y-16008244D01*
X13267587Y-16208244D02*
X13267587Y-16008244D01*
X13353301Y-16208244D02*
X13353301Y-16103482D01*
X13353301Y-16103482D02*
X13343777Y-16084434D01*
X13343777Y-16084434D02*
X13324730Y-16074911D01*
X13324730Y-16074911D02*
X13296158Y-16074911D01*
X13296158Y-16074911D02*
X13277110Y-16084434D01*
X13277110Y-16084434D02*
X13267587Y-16093958D01*
X13477110Y-16208244D02*
X13458063Y-16198720D01*
X13458063Y-16198720D02*
X13448539Y-16189196D01*
X13448539Y-16189196D02*
X13439015Y-16170149D01*
X13439015Y-16170149D02*
X13439015Y-16113006D01*
X13439015Y-16113006D02*
X13448539Y-16093958D01*
X13448539Y-16093958D02*
X13458063Y-16084434D01*
X13458063Y-16084434D02*
X13477110Y-16074911D01*
X13477110Y-16074911D02*
X13505682Y-16074911D01*
X13505682Y-16074911D02*
X13524730Y-16084434D01*
X13524730Y-16084434D02*
X13534253Y-16093958D01*
X13534253Y-16093958D02*
X13543777Y-16113006D01*
X13543777Y-16113006D02*
X13543777Y-16170149D01*
X13543777Y-16170149D02*
X13534253Y-16189196D01*
X13534253Y-16189196D02*
X13524730Y-16198720D01*
X13524730Y-16198720D02*
X13505682Y-16208244D01*
X13505682Y-16208244D02*
X13477110Y-16208244D01*
X13658063Y-16208244D02*
X13639015Y-16198720D01*
X13639015Y-16198720D02*
X13629491Y-16179672D01*
X13629491Y-16179672D02*
X13629491Y-16008244D01*
X13810444Y-16198720D02*
X13791396Y-16208244D01*
X13791396Y-16208244D02*
X13753301Y-16208244D01*
X13753301Y-16208244D02*
X13734253Y-16198720D01*
X13734253Y-16198720D02*
X13724730Y-16179672D01*
X13724730Y-16179672D02*
X13724730Y-16103482D01*
X13724730Y-16103482D02*
X13734253Y-16084434D01*
X13734253Y-16084434D02*
X13753301Y-16074911D01*
X13753301Y-16074911D02*
X13791396Y-16074911D01*
X13791396Y-16074911D02*
X13810444Y-16084434D01*
X13810444Y-16084434D02*
X13819968Y-16103482D01*
X13819968Y-16103482D02*
X13819968Y-16122530D01*
X13819968Y-16122530D02*
X13724730Y-16141577D01*
X13896158Y-16198720D02*
X13915206Y-16208244D01*
X13915206Y-16208244D02*
X13953301Y-16208244D01*
X13953301Y-16208244D02*
X13972349Y-16198720D01*
X13972349Y-16198720D02*
X13981872Y-16179672D01*
X13981872Y-16179672D02*
X13981872Y-16170149D01*
X13981872Y-16170149D02*
X13972349Y-16151101D01*
X13972349Y-16151101D02*
X13953301Y-16141577D01*
X13953301Y-16141577D02*
X13924730Y-16141577D01*
X13924730Y-16141577D02*
X13905682Y-16132053D01*
X13905682Y-16132053D02*
X13896158Y-16113006D01*
X13896158Y-16113006D02*
X13896158Y-16103482D01*
X13896158Y-16103482D02*
X13905682Y-16084434D01*
X13905682Y-16084434D02*
X13924730Y-16074911D01*
X13924730Y-16074911D02*
X13953301Y-16074911D01*
X13953301Y-16074911D02*
X13972349Y-16084434D01*
X14219968Y-16132053D02*
X14372349Y-16132053D01*
X14296158Y-16208244D02*
X14296158Y-16055863D01*
X14705682Y-16074911D02*
X14705682Y-16208244D01*
X14658063Y-15998720D02*
X14610444Y-16141577D01*
X14610444Y-16141577D02*
X14734253Y-16141577D01*
X14953301Y-16198720D02*
X14972349Y-16208244D01*
X14972349Y-16208244D02*
X15010444Y-16208244D01*
X15010444Y-16208244D02*
X15029492Y-16198720D01*
X15029492Y-16198720D02*
X15039015Y-16179672D01*
X15039015Y-16179672D02*
X15039015Y-16170149D01*
X15039015Y-16170149D02*
X15029492Y-16151101D01*
X15029492Y-16151101D02*
X15010444Y-16141577D01*
X15010444Y-16141577D02*
X14981873Y-16141577D01*
X14981873Y-16141577D02*
X14962825Y-16132053D01*
X14962825Y-16132053D02*
X14953301Y-16113006D01*
X14953301Y-16113006D02*
X14953301Y-16103482D01*
X14953301Y-16103482D02*
X14962825Y-16084434D01*
X14962825Y-16084434D02*
X14981873Y-16074911D01*
X14981873Y-16074911D02*
X15010444Y-16074911D01*
X15010444Y-16074911D02*
X15029492Y-16084434D01*
X15153301Y-16208244D02*
X15134254Y-16198720D01*
X15134254Y-16198720D02*
X15124730Y-16179672D01*
X15124730Y-16179672D02*
X15124730Y-16008244D01*
X15258063Y-16208244D02*
X15239015Y-16198720D01*
X15239015Y-16198720D02*
X15229492Y-16189196D01*
X15229492Y-16189196D02*
X15219968Y-16170149D01*
X15219968Y-16170149D02*
X15219968Y-16113006D01*
X15219968Y-16113006D02*
X15229492Y-16093958D01*
X15229492Y-16093958D02*
X15239015Y-16084434D01*
X15239015Y-16084434D02*
X15258063Y-16074911D01*
X15258063Y-16074911D02*
X15286635Y-16074911D01*
X15286635Y-16074911D02*
X15305682Y-16084434D01*
X15305682Y-16084434D02*
X15315206Y-16093958D01*
X15315206Y-16093958D02*
X15324730Y-16113006D01*
X15324730Y-16113006D02*
X15324730Y-16170149D01*
X15324730Y-16170149D02*
X15315206Y-16189196D01*
X15315206Y-16189196D02*
X15305682Y-16198720D01*
X15305682Y-16198720D02*
X15286635Y-16208244D01*
X15286635Y-16208244D02*
X15258063Y-16208244D01*
X15381873Y-16074911D02*
X15458063Y-16074911D01*
X15410444Y-16008244D02*
X15410444Y-16179672D01*
X15410444Y-16179672D02*
X15419968Y-16198720D01*
X15419968Y-16198720D02*
X15439015Y-16208244D01*
X15439015Y-16208244D02*
X15458063Y-16208244D01*
X15515206Y-16198720D02*
X15534254Y-16208244D01*
X15534254Y-16208244D02*
X15572349Y-16208244D01*
X15572349Y-16208244D02*
X15591396Y-16198720D01*
X15591396Y-16198720D02*
X15600920Y-16179672D01*
X15600920Y-16179672D02*
X15600920Y-16170149D01*
X15600920Y-16170149D02*
X15591396Y-16151101D01*
X15591396Y-16151101D02*
X15572349Y-16141577D01*
X15572349Y-16141577D02*
X15543777Y-16141577D01*
X15543777Y-16141577D02*
X15524730Y-16132053D01*
X15524730Y-16132053D02*
X15515206Y-16113006D01*
X15515206Y-16113006D02*
X15515206Y-16103482D01*
X15515206Y-16103482D02*
X15524730Y-16084434D01*
X15524730Y-16084434D02*
X15543777Y-16074911D01*
X15543777Y-16074911D02*
X15572349Y-16074911D01*
X15572349Y-16074911D02*
X15591396Y-16084434D01*
X15667587Y-16284434D02*
X15677111Y-16274911D01*
X15677111Y-16274911D02*
X15696158Y-16246339D01*
X15696158Y-16246339D02*
X15705682Y-16227292D01*
X15705682Y-16227292D02*
X15715206Y-16198720D01*
X15715206Y-16198720D02*
X15724730Y-16151101D01*
X15724730Y-16151101D02*
X15724730Y-16113006D01*
X15724730Y-16113006D02*
X15715206Y-16065387D01*
X15715206Y-16065387D02*
X15705682Y-16036815D01*
X15705682Y-16036815D02*
X15696158Y-16017768D01*
X15696158Y-16017768D02*
X15677111Y-15989196D01*
X15677111Y-15989196D02*
X15667587Y-15979672D01*
D14*
X8998000Y-16471760D02*
X9083000Y-16386760D01*
X8998000Y-16301760D01*
X8913000Y-16386760D01*
X8998000Y-16471760D01*
D10*
X9448539Y-16478244D02*
X9334253Y-16478244D01*
X9391396Y-16478244D02*
X9391396Y-16278244D01*
X9391396Y-16278244D02*
X9372348Y-16306815D01*
X9372348Y-16306815D02*
X9353301Y-16325863D01*
X9353301Y-16325863D02*
X9334253Y-16335387D01*
X9534253Y-16459196D02*
X9543777Y-16468720D01*
X9543777Y-16468720D02*
X9534253Y-16478244D01*
X9534253Y-16478244D02*
X9524729Y-16468720D01*
X9524729Y-16468720D02*
X9534253Y-16459196D01*
X9534253Y-16459196D02*
X9534253Y-16478244D01*
X9610444Y-16278244D02*
X9743777Y-16278244D01*
X9743777Y-16278244D02*
X9658063Y-16478244D01*
X9858063Y-16278244D02*
X9877110Y-16278244D01*
X9877110Y-16278244D02*
X9896158Y-16287768D01*
X9896158Y-16287768D02*
X9905682Y-16297292D01*
X9905682Y-16297292D02*
X9915205Y-16316339D01*
X9915205Y-16316339D02*
X9924729Y-16354434D01*
X9924729Y-16354434D02*
X9924729Y-16402053D01*
X9924729Y-16402053D02*
X9915205Y-16440149D01*
X9915205Y-16440149D02*
X9905682Y-16459196D01*
X9905682Y-16459196D02*
X9896158Y-16468720D01*
X9896158Y-16468720D02*
X9877110Y-16478244D01*
X9877110Y-16478244D02*
X9858063Y-16478244D01*
X9858063Y-16478244D02*
X9839015Y-16468720D01*
X9839015Y-16468720D02*
X9829491Y-16459196D01*
X9829491Y-16459196D02*
X9819967Y-16440149D01*
X9819967Y-16440149D02*
X9810444Y-16402053D01*
X9810444Y-16402053D02*
X9810444Y-16354434D01*
X9810444Y-16354434D02*
X9819967Y-16316339D01*
X9819967Y-16316339D02*
X9829491Y-16297292D01*
X9829491Y-16297292D02*
X9839015Y-16287768D01*
X9839015Y-16287768D02*
X9858063Y-16278244D01*
X10048539Y-16278244D02*
X10067586Y-16278244D01*
X10067586Y-16278244D02*
X10086634Y-16287768D01*
X10086634Y-16287768D02*
X10096158Y-16297292D01*
X10096158Y-16297292D02*
X10105682Y-16316339D01*
X10105682Y-16316339D02*
X10115205Y-16354434D01*
X10115205Y-16354434D02*
X10115205Y-16402053D01*
X10115205Y-16402053D02*
X10105682Y-16440149D01*
X10105682Y-16440149D02*
X10096158Y-16459196D01*
X10096158Y-16459196D02*
X10086634Y-16468720D01*
X10086634Y-16468720D02*
X10067586Y-16478244D01*
X10067586Y-16478244D02*
X10048539Y-16478244D01*
X10048539Y-16478244D02*
X10029491Y-16468720D01*
X10029491Y-16468720D02*
X10019967Y-16459196D01*
X10019967Y-16459196D02*
X10010444Y-16440149D01*
X10010444Y-16440149D02*
X10000920Y-16402053D01*
X10000920Y-16402053D02*
X10000920Y-16354434D01*
X10000920Y-16354434D02*
X10010444Y-16316339D01*
X10010444Y-16316339D02*
X10019967Y-16297292D01*
X10019967Y-16297292D02*
X10029491Y-16287768D01*
X10029491Y-16287768D02*
X10048539Y-16278244D01*
X10200920Y-16478244D02*
X10200920Y-16344911D01*
X10200920Y-16363958D02*
X10210444Y-16354434D01*
X10210444Y-16354434D02*
X10229491Y-16344911D01*
X10229491Y-16344911D02*
X10258063Y-16344911D01*
X10258063Y-16344911D02*
X10277110Y-16354434D01*
X10277110Y-16354434D02*
X10286634Y-16373482D01*
X10286634Y-16373482D02*
X10286634Y-16478244D01*
X10286634Y-16373482D02*
X10296158Y-16354434D01*
X10296158Y-16354434D02*
X10315205Y-16344911D01*
X10315205Y-16344911D02*
X10343777Y-16344911D01*
X10343777Y-16344911D02*
X10362825Y-16354434D01*
X10362825Y-16354434D02*
X10372348Y-16373482D01*
X10372348Y-16373482D02*
X10372348Y-16478244D01*
X10467586Y-16478244D02*
X10467586Y-16344911D01*
X10467586Y-16363958D02*
X10477110Y-16354434D01*
X10477110Y-16354434D02*
X10496158Y-16344911D01*
X10496158Y-16344911D02*
X10524729Y-16344911D01*
X10524729Y-16344911D02*
X10543777Y-16354434D01*
X10543777Y-16354434D02*
X10553301Y-16373482D01*
X10553301Y-16373482D02*
X10553301Y-16478244D01*
X10553301Y-16373482D02*
X10562825Y-16354434D01*
X10562825Y-16354434D02*
X10581872Y-16344911D01*
X10581872Y-16344911D02*
X10610444Y-16344911D01*
X10610444Y-16344911D02*
X10629491Y-16354434D01*
X10629491Y-16354434D02*
X10639015Y-16373482D01*
X10639015Y-16373482D02*
X10639015Y-16478244D01*
X11029491Y-16268720D02*
X10858063Y-16525863D01*
X11286634Y-16278244D02*
X11305682Y-16278244D01*
X11305682Y-16278244D02*
X11324729Y-16287768D01*
X11324729Y-16287768D02*
X11334253Y-16297292D01*
X11334253Y-16297292D02*
X11343777Y-16316339D01*
X11343777Y-16316339D02*
X11353301Y-16354434D01*
X11353301Y-16354434D02*
X11353301Y-16402053D01*
X11353301Y-16402053D02*
X11343777Y-16440149D01*
X11343777Y-16440149D02*
X11334253Y-16459196D01*
X11334253Y-16459196D02*
X11324729Y-16468720D01*
X11324729Y-16468720D02*
X11305682Y-16478244D01*
X11305682Y-16478244D02*
X11286634Y-16478244D01*
X11286634Y-16478244D02*
X11267586Y-16468720D01*
X11267586Y-16468720D02*
X11258063Y-16459196D01*
X11258063Y-16459196D02*
X11248539Y-16440149D01*
X11248539Y-16440149D02*
X11239015Y-16402053D01*
X11239015Y-16402053D02*
X11239015Y-16354434D01*
X11239015Y-16354434D02*
X11248539Y-16316339D01*
X11248539Y-16316339D02*
X11258063Y-16297292D01*
X11258063Y-16297292D02*
X11267586Y-16287768D01*
X11267586Y-16287768D02*
X11286634Y-16278244D01*
X11439015Y-16459196D02*
X11448539Y-16468720D01*
X11448539Y-16468720D02*
X11439015Y-16478244D01*
X11439015Y-16478244D02*
X11429491Y-16468720D01*
X11429491Y-16468720D02*
X11439015Y-16459196D01*
X11439015Y-16459196D02*
X11439015Y-16478244D01*
X11572348Y-16278244D02*
X11591396Y-16278244D01*
X11591396Y-16278244D02*
X11610444Y-16287768D01*
X11610444Y-16287768D02*
X11619967Y-16297292D01*
X11619967Y-16297292D02*
X11629491Y-16316339D01*
X11629491Y-16316339D02*
X11639015Y-16354434D01*
X11639015Y-16354434D02*
X11639015Y-16402053D01*
X11639015Y-16402053D02*
X11629491Y-16440149D01*
X11629491Y-16440149D02*
X11619967Y-16459196D01*
X11619967Y-16459196D02*
X11610444Y-16468720D01*
X11610444Y-16468720D02*
X11591396Y-16478244D01*
X11591396Y-16478244D02*
X11572348Y-16478244D01*
X11572348Y-16478244D02*
X11553301Y-16468720D01*
X11553301Y-16468720D02*
X11543777Y-16459196D01*
X11543777Y-16459196D02*
X11534253Y-16440149D01*
X11534253Y-16440149D02*
X11524729Y-16402053D01*
X11524729Y-16402053D02*
X11524729Y-16354434D01*
X11524729Y-16354434D02*
X11534253Y-16316339D01*
X11534253Y-16316339D02*
X11543777Y-16297292D01*
X11543777Y-16297292D02*
X11553301Y-16287768D01*
X11553301Y-16287768D02*
X11572348Y-16278244D01*
X11810444Y-16278244D02*
X11772348Y-16278244D01*
X11772348Y-16278244D02*
X11753301Y-16287768D01*
X11753301Y-16287768D02*
X11743777Y-16297292D01*
X11743777Y-16297292D02*
X11724729Y-16325863D01*
X11724729Y-16325863D02*
X11715206Y-16363958D01*
X11715206Y-16363958D02*
X11715206Y-16440149D01*
X11715206Y-16440149D02*
X11724729Y-16459196D01*
X11724729Y-16459196D02*
X11734253Y-16468720D01*
X11734253Y-16468720D02*
X11753301Y-16478244D01*
X11753301Y-16478244D02*
X11791396Y-16478244D01*
X11791396Y-16478244D02*
X11810444Y-16468720D01*
X11810444Y-16468720D02*
X11819967Y-16459196D01*
X11819967Y-16459196D02*
X11829491Y-16440149D01*
X11829491Y-16440149D02*
X11829491Y-16392530D01*
X11829491Y-16392530D02*
X11819967Y-16373482D01*
X11819967Y-16373482D02*
X11810444Y-16363958D01*
X11810444Y-16363958D02*
X11791396Y-16354434D01*
X11791396Y-16354434D02*
X11753301Y-16354434D01*
X11753301Y-16354434D02*
X11734253Y-16363958D01*
X11734253Y-16363958D02*
X11724729Y-16373482D01*
X11724729Y-16373482D02*
X11715206Y-16392530D01*
X12000920Y-16278244D02*
X11962825Y-16278244D01*
X11962825Y-16278244D02*
X11943777Y-16287768D01*
X11943777Y-16287768D02*
X11934253Y-16297292D01*
X11934253Y-16297292D02*
X11915206Y-16325863D01*
X11915206Y-16325863D02*
X11905682Y-16363958D01*
X11905682Y-16363958D02*
X11905682Y-16440149D01*
X11905682Y-16440149D02*
X11915206Y-16459196D01*
X11915206Y-16459196D02*
X11924729Y-16468720D01*
X11924729Y-16468720D02*
X11943777Y-16478244D01*
X11943777Y-16478244D02*
X11981872Y-16478244D01*
X11981872Y-16478244D02*
X12000920Y-16468720D01*
X12000920Y-16468720D02*
X12010444Y-16459196D01*
X12010444Y-16459196D02*
X12019967Y-16440149D01*
X12019967Y-16440149D02*
X12019967Y-16392530D01*
X12019967Y-16392530D02*
X12010444Y-16373482D01*
X12010444Y-16373482D02*
X12000920Y-16363958D01*
X12000920Y-16363958D02*
X11981872Y-16354434D01*
X11981872Y-16354434D02*
X11943777Y-16354434D01*
X11943777Y-16354434D02*
X11924729Y-16363958D01*
X11924729Y-16363958D02*
X11915206Y-16373482D01*
X11915206Y-16373482D02*
X11905682Y-16392530D01*
X12115206Y-16478244D02*
X12153301Y-16478244D01*
X12153301Y-16478244D02*
X12172348Y-16468720D01*
X12172348Y-16468720D02*
X12181872Y-16459196D01*
X12181872Y-16459196D02*
X12200920Y-16430625D01*
X12200920Y-16430625D02*
X12210444Y-16392530D01*
X12210444Y-16392530D02*
X12210444Y-16316339D01*
X12210444Y-16316339D02*
X12200920Y-16297292D01*
X12200920Y-16297292D02*
X12191396Y-16287768D01*
X12191396Y-16287768D02*
X12172348Y-16278244D01*
X12172348Y-16278244D02*
X12134253Y-16278244D01*
X12134253Y-16278244D02*
X12115206Y-16287768D01*
X12115206Y-16287768D02*
X12105682Y-16297292D01*
X12105682Y-16297292D02*
X12096158Y-16316339D01*
X12096158Y-16316339D02*
X12096158Y-16363958D01*
X12096158Y-16363958D02*
X12105682Y-16383006D01*
X12105682Y-16383006D02*
X12115206Y-16392530D01*
X12115206Y-16392530D02*
X12134253Y-16402053D01*
X12134253Y-16402053D02*
X12172348Y-16402053D01*
X12172348Y-16402053D02*
X12191396Y-16392530D01*
X12191396Y-16392530D02*
X12200920Y-16383006D01*
X12200920Y-16383006D02*
X12210444Y-16363958D01*
X12286634Y-16278244D02*
X12286634Y-16316339D01*
X12362825Y-16278244D02*
X12362825Y-16316339D01*
X12658063Y-16554434D02*
X12648539Y-16544911D01*
X12648539Y-16544911D02*
X12629491Y-16516339D01*
X12629491Y-16516339D02*
X12619968Y-16497292D01*
X12619968Y-16497292D02*
X12610444Y-16468720D01*
X12610444Y-16468720D02*
X12600920Y-16421101D01*
X12600920Y-16421101D02*
X12600920Y-16383006D01*
X12600920Y-16383006D02*
X12610444Y-16335387D01*
X12610444Y-16335387D02*
X12619968Y-16306815D01*
X12619968Y-16306815D02*
X12629491Y-16287768D01*
X12629491Y-16287768D02*
X12648539Y-16259196D01*
X12648539Y-16259196D02*
X12658063Y-16249672D01*
X12819968Y-16344911D02*
X12819968Y-16478244D01*
X12772348Y-16268720D02*
X12724729Y-16411577D01*
X12724729Y-16411577D02*
X12848539Y-16411577D01*
X13077110Y-16478244D02*
X13077110Y-16278244D01*
X13162825Y-16478244D02*
X13162825Y-16373482D01*
X13162825Y-16373482D02*
X13153301Y-16354434D01*
X13153301Y-16354434D02*
X13134253Y-16344911D01*
X13134253Y-16344911D02*
X13105682Y-16344911D01*
X13105682Y-16344911D02*
X13086634Y-16354434D01*
X13086634Y-16354434D02*
X13077110Y-16363958D01*
X13286634Y-16478244D02*
X13267587Y-16468720D01*
X13267587Y-16468720D02*
X13258063Y-16459196D01*
X13258063Y-16459196D02*
X13248539Y-16440149D01*
X13248539Y-16440149D02*
X13248539Y-16383006D01*
X13248539Y-16383006D02*
X13258063Y-16363958D01*
X13258063Y-16363958D02*
X13267587Y-16354434D01*
X13267587Y-16354434D02*
X13286634Y-16344911D01*
X13286634Y-16344911D02*
X13315206Y-16344911D01*
X13315206Y-16344911D02*
X13334253Y-16354434D01*
X13334253Y-16354434D02*
X13343777Y-16363958D01*
X13343777Y-16363958D02*
X13353301Y-16383006D01*
X13353301Y-16383006D02*
X13353301Y-16440149D01*
X13353301Y-16440149D02*
X13343777Y-16459196D01*
X13343777Y-16459196D02*
X13334253Y-16468720D01*
X13334253Y-16468720D02*
X13315206Y-16478244D01*
X13315206Y-16478244D02*
X13286634Y-16478244D01*
X13467587Y-16478244D02*
X13448539Y-16468720D01*
X13448539Y-16468720D02*
X13439015Y-16449672D01*
X13439015Y-16449672D02*
X13439015Y-16278244D01*
X13619968Y-16468720D02*
X13600920Y-16478244D01*
X13600920Y-16478244D02*
X13562825Y-16478244D01*
X13562825Y-16478244D02*
X13543777Y-16468720D01*
X13543777Y-16468720D02*
X13534253Y-16449672D01*
X13534253Y-16449672D02*
X13534253Y-16373482D01*
X13534253Y-16373482D02*
X13543777Y-16354434D01*
X13543777Y-16354434D02*
X13562825Y-16344911D01*
X13562825Y-16344911D02*
X13600920Y-16344911D01*
X13600920Y-16344911D02*
X13619968Y-16354434D01*
X13619968Y-16354434D02*
X13629491Y-16373482D01*
X13629491Y-16373482D02*
X13629491Y-16392530D01*
X13629491Y-16392530D02*
X13534253Y-16411577D01*
X13705682Y-16468720D02*
X13724730Y-16478244D01*
X13724730Y-16478244D02*
X13762825Y-16478244D01*
X13762825Y-16478244D02*
X13781872Y-16468720D01*
X13781872Y-16468720D02*
X13791396Y-16449672D01*
X13791396Y-16449672D02*
X13791396Y-16440149D01*
X13791396Y-16440149D02*
X13781872Y-16421101D01*
X13781872Y-16421101D02*
X13762825Y-16411577D01*
X13762825Y-16411577D02*
X13734253Y-16411577D01*
X13734253Y-16411577D02*
X13715206Y-16402053D01*
X13715206Y-16402053D02*
X13705682Y-16383006D01*
X13705682Y-16383006D02*
X13705682Y-16373482D01*
X13705682Y-16373482D02*
X13715206Y-16354434D01*
X13715206Y-16354434D02*
X13734253Y-16344911D01*
X13734253Y-16344911D02*
X13762825Y-16344911D01*
X13762825Y-16344911D02*
X13781872Y-16354434D01*
X13858063Y-16554434D02*
X13867587Y-16544911D01*
X13867587Y-16544911D02*
X13886634Y-16516339D01*
X13886634Y-16516339D02*
X13896158Y-16497292D01*
X13896158Y-16497292D02*
X13905682Y-16468720D01*
X13905682Y-16468720D02*
X13915206Y-16421101D01*
X13915206Y-16421101D02*
X13915206Y-16383006D01*
X13915206Y-16383006D02*
X13905682Y-16335387D01*
X13905682Y-16335387D02*
X13896158Y-16306815D01*
X13896158Y-16306815D02*
X13886634Y-16287768D01*
X13886634Y-16287768D02*
X13867587Y-16259196D01*
X13867587Y-16259196D02*
X13858063Y-16249672D01*
M02*
