%TF.GenerationSoftware,KiCad,Pcbnew,8.0.5*%
%TF.CreationDate,2024-11-15T15:43:01-05:00*%
%TF.ProjectId,bytesized_macropad,62797465-7369-47a6-9564-5f6d6163726f,rev?*%
%TF.SameCoordinates,Original*%
%TF.FileFunction,Legend,Top*%
%TF.FilePolarity,Positive*%
%FSLAX46Y46*%
G04 Gerber Fmt 4.6, Leading zero omitted, Abs format (unit mm)*
G04 Created by KiCad (PCBNEW 8.0.5) date 2024-11-15 15:43:01*
%MOMM*%
%LPD*%
G01*
G04 APERTURE LIST*
%ADD10C,0.150000*%
%ADD11C,0.100000*%
%ADD12C,0.120000*%
%ADD13C,0.200000*%
G04 APERTURE END LIST*
D10*
X115030476Y-109373200D02*
X115173333Y-109420819D01*
X115173333Y-109420819D02*
X115411428Y-109420819D01*
X115411428Y-109420819D02*
X115506666Y-109373200D01*
X115506666Y-109373200D02*
X115554285Y-109325580D01*
X115554285Y-109325580D02*
X115601904Y-109230342D01*
X115601904Y-109230342D02*
X115601904Y-109135104D01*
X115601904Y-109135104D02*
X115554285Y-109039866D01*
X115554285Y-109039866D02*
X115506666Y-108992247D01*
X115506666Y-108992247D02*
X115411428Y-108944628D01*
X115411428Y-108944628D02*
X115220952Y-108897009D01*
X115220952Y-108897009D02*
X115125714Y-108849390D01*
X115125714Y-108849390D02*
X115078095Y-108801771D01*
X115078095Y-108801771D02*
X115030476Y-108706533D01*
X115030476Y-108706533D02*
X115030476Y-108611295D01*
X115030476Y-108611295D02*
X115078095Y-108516057D01*
X115078095Y-108516057D02*
X115125714Y-108468438D01*
X115125714Y-108468438D02*
X115220952Y-108420819D01*
X115220952Y-108420819D02*
X115459047Y-108420819D01*
X115459047Y-108420819D02*
X115601904Y-108468438D01*
X115935238Y-108420819D02*
X116173333Y-109420819D01*
X116173333Y-109420819D02*
X116363809Y-108706533D01*
X116363809Y-108706533D02*
X116554285Y-109420819D01*
X116554285Y-109420819D02*
X116792381Y-108420819D01*
X117697142Y-109420819D02*
X117125714Y-109420819D01*
X117411428Y-109420819D02*
X117411428Y-108420819D01*
X117411428Y-108420819D02*
X117316190Y-108563676D01*
X117316190Y-108563676D02*
X117220952Y-108658914D01*
X117220952Y-108658914D02*
X117125714Y-108706533D01*
X118030476Y-108420819D02*
X118649523Y-108420819D01*
X118649523Y-108420819D02*
X118316190Y-108801771D01*
X118316190Y-108801771D02*
X118459047Y-108801771D01*
X118459047Y-108801771D02*
X118554285Y-108849390D01*
X118554285Y-108849390D02*
X118601904Y-108897009D01*
X118601904Y-108897009D02*
X118649523Y-108992247D01*
X118649523Y-108992247D02*
X118649523Y-109230342D01*
X118649523Y-109230342D02*
X118601904Y-109325580D01*
X118601904Y-109325580D02*
X118554285Y-109373200D01*
X118554285Y-109373200D02*
X118459047Y-109420819D01*
X118459047Y-109420819D02*
X118173333Y-109420819D01*
X118173333Y-109420819D02*
X118078095Y-109373200D01*
X118078095Y-109373200D02*
X118030476Y-109325580D01*
X110464476Y-34395200D02*
X110607333Y-34442819D01*
X110607333Y-34442819D02*
X110845428Y-34442819D01*
X110845428Y-34442819D02*
X110940666Y-34395200D01*
X110940666Y-34395200D02*
X110988285Y-34347580D01*
X110988285Y-34347580D02*
X111035904Y-34252342D01*
X111035904Y-34252342D02*
X111035904Y-34157104D01*
X111035904Y-34157104D02*
X110988285Y-34061866D01*
X110988285Y-34061866D02*
X110940666Y-34014247D01*
X110940666Y-34014247D02*
X110845428Y-33966628D01*
X110845428Y-33966628D02*
X110654952Y-33919009D01*
X110654952Y-33919009D02*
X110559714Y-33871390D01*
X110559714Y-33871390D02*
X110512095Y-33823771D01*
X110512095Y-33823771D02*
X110464476Y-33728533D01*
X110464476Y-33728533D02*
X110464476Y-33633295D01*
X110464476Y-33633295D02*
X110512095Y-33538057D01*
X110512095Y-33538057D02*
X110559714Y-33490438D01*
X110559714Y-33490438D02*
X110654952Y-33442819D01*
X110654952Y-33442819D02*
X110893047Y-33442819D01*
X110893047Y-33442819D02*
X111035904Y-33490438D01*
X111369238Y-33442819D02*
X111607333Y-34442819D01*
X111607333Y-34442819D02*
X111797809Y-33728533D01*
X111797809Y-33728533D02*
X111988285Y-34442819D01*
X111988285Y-34442819D02*
X112226381Y-33442819D01*
X112559714Y-33538057D02*
X112607333Y-33490438D01*
X112607333Y-33490438D02*
X112702571Y-33442819D01*
X112702571Y-33442819D02*
X112940666Y-33442819D01*
X112940666Y-33442819D02*
X113035904Y-33490438D01*
X113035904Y-33490438D02*
X113083523Y-33538057D01*
X113083523Y-33538057D02*
X113131142Y-33633295D01*
X113131142Y-33633295D02*
X113131142Y-33728533D01*
X113131142Y-33728533D02*
X113083523Y-33871390D01*
X113083523Y-33871390D02*
X112512095Y-34442819D01*
X112512095Y-34442819D02*
X113131142Y-34442819D01*
X114083523Y-34442819D02*
X113512095Y-34442819D01*
X113797809Y-34442819D02*
X113797809Y-33442819D01*
X113797809Y-33442819D02*
X113702571Y-33585676D01*
X113702571Y-33585676D02*
X113607333Y-33680914D01*
X113607333Y-33680914D02*
X113512095Y-33728533D01*
X172180476Y-90323200D02*
X172323333Y-90370819D01*
X172323333Y-90370819D02*
X172561428Y-90370819D01*
X172561428Y-90370819D02*
X172656666Y-90323200D01*
X172656666Y-90323200D02*
X172704285Y-90275580D01*
X172704285Y-90275580D02*
X172751904Y-90180342D01*
X172751904Y-90180342D02*
X172751904Y-90085104D01*
X172751904Y-90085104D02*
X172704285Y-89989866D01*
X172704285Y-89989866D02*
X172656666Y-89942247D01*
X172656666Y-89942247D02*
X172561428Y-89894628D01*
X172561428Y-89894628D02*
X172370952Y-89847009D01*
X172370952Y-89847009D02*
X172275714Y-89799390D01*
X172275714Y-89799390D02*
X172228095Y-89751771D01*
X172228095Y-89751771D02*
X172180476Y-89656533D01*
X172180476Y-89656533D02*
X172180476Y-89561295D01*
X172180476Y-89561295D02*
X172228095Y-89466057D01*
X172228095Y-89466057D02*
X172275714Y-89418438D01*
X172275714Y-89418438D02*
X172370952Y-89370819D01*
X172370952Y-89370819D02*
X172609047Y-89370819D01*
X172609047Y-89370819D02*
X172751904Y-89418438D01*
X173085238Y-89370819D02*
X173323333Y-90370819D01*
X173323333Y-90370819D02*
X173513809Y-89656533D01*
X173513809Y-89656533D02*
X173704285Y-90370819D01*
X173704285Y-90370819D02*
X173942381Y-89370819D01*
X174847142Y-90370819D02*
X174275714Y-90370819D01*
X174561428Y-90370819D02*
X174561428Y-89370819D01*
X174561428Y-89370819D02*
X174466190Y-89513676D01*
X174466190Y-89513676D02*
X174370952Y-89608914D01*
X174370952Y-89608914D02*
X174275714Y-89656533D01*
X175228095Y-89466057D02*
X175275714Y-89418438D01*
X175275714Y-89418438D02*
X175370952Y-89370819D01*
X175370952Y-89370819D02*
X175609047Y-89370819D01*
X175609047Y-89370819D02*
X175704285Y-89418438D01*
X175704285Y-89418438D02*
X175751904Y-89466057D01*
X175751904Y-89466057D02*
X175799523Y-89561295D01*
X175799523Y-89561295D02*
X175799523Y-89656533D01*
X175799523Y-89656533D02*
X175751904Y-89799390D01*
X175751904Y-89799390D02*
X175180476Y-90370819D01*
X175180476Y-90370819D02*
X175799523Y-90370819D01*
X172656667Y-52223200D02*
X172799524Y-52270819D01*
X172799524Y-52270819D02*
X173037619Y-52270819D01*
X173037619Y-52270819D02*
X173132857Y-52223200D01*
X173132857Y-52223200D02*
X173180476Y-52175580D01*
X173180476Y-52175580D02*
X173228095Y-52080342D01*
X173228095Y-52080342D02*
X173228095Y-51985104D01*
X173228095Y-51985104D02*
X173180476Y-51889866D01*
X173180476Y-51889866D02*
X173132857Y-51842247D01*
X173132857Y-51842247D02*
X173037619Y-51794628D01*
X173037619Y-51794628D02*
X172847143Y-51747009D01*
X172847143Y-51747009D02*
X172751905Y-51699390D01*
X172751905Y-51699390D02*
X172704286Y-51651771D01*
X172704286Y-51651771D02*
X172656667Y-51556533D01*
X172656667Y-51556533D02*
X172656667Y-51461295D01*
X172656667Y-51461295D02*
X172704286Y-51366057D01*
X172704286Y-51366057D02*
X172751905Y-51318438D01*
X172751905Y-51318438D02*
X172847143Y-51270819D01*
X172847143Y-51270819D02*
X173085238Y-51270819D01*
X173085238Y-51270819D02*
X173228095Y-51318438D01*
X173561429Y-51270819D02*
X173799524Y-52270819D01*
X173799524Y-52270819D02*
X173990000Y-51556533D01*
X173990000Y-51556533D02*
X174180476Y-52270819D01*
X174180476Y-52270819D02*
X174418572Y-51270819D01*
X175228095Y-51604152D02*
X175228095Y-52270819D01*
X174990000Y-51223200D02*
X174751905Y-51937485D01*
X174751905Y-51937485D02*
X175370952Y-51937485D01*
X153130476Y-109373200D02*
X153273333Y-109420819D01*
X153273333Y-109420819D02*
X153511428Y-109420819D01*
X153511428Y-109420819D02*
X153606666Y-109373200D01*
X153606666Y-109373200D02*
X153654285Y-109325580D01*
X153654285Y-109325580D02*
X153701904Y-109230342D01*
X153701904Y-109230342D02*
X153701904Y-109135104D01*
X153701904Y-109135104D02*
X153654285Y-109039866D01*
X153654285Y-109039866D02*
X153606666Y-108992247D01*
X153606666Y-108992247D02*
X153511428Y-108944628D01*
X153511428Y-108944628D02*
X153320952Y-108897009D01*
X153320952Y-108897009D02*
X153225714Y-108849390D01*
X153225714Y-108849390D02*
X153178095Y-108801771D01*
X153178095Y-108801771D02*
X153130476Y-108706533D01*
X153130476Y-108706533D02*
X153130476Y-108611295D01*
X153130476Y-108611295D02*
X153178095Y-108516057D01*
X153178095Y-108516057D02*
X153225714Y-108468438D01*
X153225714Y-108468438D02*
X153320952Y-108420819D01*
X153320952Y-108420819D02*
X153559047Y-108420819D01*
X153559047Y-108420819D02*
X153701904Y-108468438D01*
X154035238Y-108420819D02*
X154273333Y-109420819D01*
X154273333Y-109420819D02*
X154463809Y-108706533D01*
X154463809Y-108706533D02*
X154654285Y-109420819D01*
X154654285Y-109420819D02*
X154892381Y-108420819D01*
X155797142Y-109420819D02*
X155225714Y-109420819D01*
X155511428Y-109420819D02*
X155511428Y-108420819D01*
X155511428Y-108420819D02*
X155416190Y-108563676D01*
X155416190Y-108563676D02*
X155320952Y-108658914D01*
X155320952Y-108658914D02*
X155225714Y-108706533D01*
X156701904Y-108420819D02*
X156225714Y-108420819D01*
X156225714Y-108420819D02*
X156178095Y-108897009D01*
X156178095Y-108897009D02*
X156225714Y-108849390D01*
X156225714Y-108849390D02*
X156320952Y-108801771D01*
X156320952Y-108801771D02*
X156559047Y-108801771D01*
X156559047Y-108801771D02*
X156654285Y-108849390D01*
X156654285Y-108849390D02*
X156701904Y-108897009D01*
X156701904Y-108897009D02*
X156749523Y-108992247D01*
X156749523Y-108992247D02*
X156749523Y-109230342D01*
X156749523Y-109230342D02*
X156701904Y-109325580D01*
X156701904Y-109325580D02*
X156654285Y-109373200D01*
X156654285Y-109373200D02*
X156559047Y-109420819D01*
X156559047Y-109420819D02*
X156320952Y-109420819D01*
X156320952Y-109420819D02*
X156225714Y-109373200D01*
X156225714Y-109373200D02*
X156178095Y-109325580D01*
X134080476Y-128423200D02*
X134223333Y-128470819D01*
X134223333Y-128470819D02*
X134461428Y-128470819D01*
X134461428Y-128470819D02*
X134556666Y-128423200D01*
X134556666Y-128423200D02*
X134604285Y-128375580D01*
X134604285Y-128375580D02*
X134651904Y-128280342D01*
X134651904Y-128280342D02*
X134651904Y-128185104D01*
X134651904Y-128185104D02*
X134604285Y-128089866D01*
X134604285Y-128089866D02*
X134556666Y-128042247D01*
X134556666Y-128042247D02*
X134461428Y-127994628D01*
X134461428Y-127994628D02*
X134270952Y-127947009D01*
X134270952Y-127947009D02*
X134175714Y-127899390D01*
X134175714Y-127899390D02*
X134128095Y-127851771D01*
X134128095Y-127851771D02*
X134080476Y-127756533D01*
X134080476Y-127756533D02*
X134080476Y-127661295D01*
X134080476Y-127661295D02*
X134128095Y-127566057D01*
X134128095Y-127566057D02*
X134175714Y-127518438D01*
X134175714Y-127518438D02*
X134270952Y-127470819D01*
X134270952Y-127470819D02*
X134509047Y-127470819D01*
X134509047Y-127470819D02*
X134651904Y-127518438D01*
X134985238Y-127470819D02*
X135223333Y-128470819D01*
X135223333Y-128470819D02*
X135413809Y-127756533D01*
X135413809Y-127756533D02*
X135604285Y-128470819D01*
X135604285Y-128470819D02*
X135842381Y-127470819D01*
X136747142Y-128470819D02*
X136175714Y-128470819D01*
X136461428Y-128470819D02*
X136461428Y-127470819D01*
X136461428Y-127470819D02*
X136366190Y-127613676D01*
X136366190Y-127613676D02*
X136270952Y-127708914D01*
X136270952Y-127708914D02*
X136175714Y-127756533D01*
X137318571Y-127899390D02*
X137223333Y-127851771D01*
X137223333Y-127851771D02*
X137175714Y-127804152D01*
X137175714Y-127804152D02*
X137128095Y-127708914D01*
X137128095Y-127708914D02*
X137128095Y-127661295D01*
X137128095Y-127661295D02*
X137175714Y-127566057D01*
X137175714Y-127566057D02*
X137223333Y-127518438D01*
X137223333Y-127518438D02*
X137318571Y-127470819D01*
X137318571Y-127470819D02*
X137509047Y-127470819D01*
X137509047Y-127470819D02*
X137604285Y-127518438D01*
X137604285Y-127518438D02*
X137651904Y-127566057D01*
X137651904Y-127566057D02*
X137699523Y-127661295D01*
X137699523Y-127661295D02*
X137699523Y-127708914D01*
X137699523Y-127708914D02*
X137651904Y-127804152D01*
X137651904Y-127804152D02*
X137604285Y-127851771D01*
X137604285Y-127851771D02*
X137509047Y-127899390D01*
X137509047Y-127899390D02*
X137318571Y-127899390D01*
X137318571Y-127899390D02*
X137223333Y-127947009D01*
X137223333Y-127947009D02*
X137175714Y-127994628D01*
X137175714Y-127994628D02*
X137128095Y-128089866D01*
X137128095Y-128089866D02*
X137128095Y-128280342D01*
X137128095Y-128280342D02*
X137175714Y-128375580D01*
X137175714Y-128375580D02*
X137223333Y-128423200D01*
X137223333Y-128423200D02*
X137318571Y-128470819D01*
X137318571Y-128470819D02*
X137509047Y-128470819D01*
X137509047Y-128470819D02*
X137604285Y-128423200D01*
X137604285Y-128423200D02*
X137651904Y-128375580D01*
X137651904Y-128375580D02*
X137699523Y-128280342D01*
X137699523Y-128280342D02*
X137699523Y-128089866D01*
X137699523Y-128089866D02*
X137651904Y-127994628D01*
X137651904Y-127994628D02*
X137604285Y-127947009D01*
X137604285Y-127947009D02*
X137509047Y-127899390D01*
X134080476Y-109373200D02*
X134223333Y-109420819D01*
X134223333Y-109420819D02*
X134461428Y-109420819D01*
X134461428Y-109420819D02*
X134556666Y-109373200D01*
X134556666Y-109373200D02*
X134604285Y-109325580D01*
X134604285Y-109325580D02*
X134651904Y-109230342D01*
X134651904Y-109230342D02*
X134651904Y-109135104D01*
X134651904Y-109135104D02*
X134604285Y-109039866D01*
X134604285Y-109039866D02*
X134556666Y-108992247D01*
X134556666Y-108992247D02*
X134461428Y-108944628D01*
X134461428Y-108944628D02*
X134270952Y-108897009D01*
X134270952Y-108897009D02*
X134175714Y-108849390D01*
X134175714Y-108849390D02*
X134128095Y-108801771D01*
X134128095Y-108801771D02*
X134080476Y-108706533D01*
X134080476Y-108706533D02*
X134080476Y-108611295D01*
X134080476Y-108611295D02*
X134128095Y-108516057D01*
X134128095Y-108516057D02*
X134175714Y-108468438D01*
X134175714Y-108468438D02*
X134270952Y-108420819D01*
X134270952Y-108420819D02*
X134509047Y-108420819D01*
X134509047Y-108420819D02*
X134651904Y-108468438D01*
X134985238Y-108420819D02*
X135223333Y-109420819D01*
X135223333Y-109420819D02*
X135413809Y-108706533D01*
X135413809Y-108706533D02*
X135604285Y-109420819D01*
X135604285Y-109420819D02*
X135842381Y-108420819D01*
X136747142Y-109420819D02*
X136175714Y-109420819D01*
X136461428Y-109420819D02*
X136461428Y-108420819D01*
X136461428Y-108420819D02*
X136366190Y-108563676D01*
X136366190Y-108563676D02*
X136270952Y-108658914D01*
X136270952Y-108658914D02*
X136175714Y-108706533D01*
X137604285Y-108754152D02*
X137604285Y-109420819D01*
X137366190Y-108373200D02*
X137128095Y-109087485D01*
X137128095Y-109087485D02*
X137747142Y-109087485D01*
X134556667Y-52223200D02*
X134699524Y-52270819D01*
X134699524Y-52270819D02*
X134937619Y-52270819D01*
X134937619Y-52270819D02*
X135032857Y-52223200D01*
X135032857Y-52223200D02*
X135080476Y-52175580D01*
X135080476Y-52175580D02*
X135128095Y-52080342D01*
X135128095Y-52080342D02*
X135128095Y-51985104D01*
X135128095Y-51985104D02*
X135080476Y-51889866D01*
X135080476Y-51889866D02*
X135032857Y-51842247D01*
X135032857Y-51842247D02*
X134937619Y-51794628D01*
X134937619Y-51794628D02*
X134747143Y-51747009D01*
X134747143Y-51747009D02*
X134651905Y-51699390D01*
X134651905Y-51699390D02*
X134604286Y-51651771D01*
X134604286Y-51651771D02*
X134556667Y-51556533D01*
X134556667Y-51556533D02*
X134556667Y-51461295D01*
X134556667Y-51461295D02*
X134604286Y-51366057D01*
X134604286Y-51366057D02*
X134651905Y-51318438D01*
X134651905Y-51318438D02*
X134747143Y-51270819D01*
X134747143Y-51270819D02*
X134985238Y-51270819D01*
X134985238Y-51270819D02*
X135128095Y-51318438D01*
X135461429Y-51270819D02*
X135699524Y-52270819D01*
X135699524Y-52270819D02*
X135890000Y-51556533D01*
X135890000Y-51556533D02*
X136080476Y-52270819D01*
X136080476Y-52270819D02*
X136318572Y-51270819D01*
X136651905Y-51366057D02*
X136699524Y-51318438D01*
X136699524Y-51318438D02*
X136794762Y-51270819D01*
X136794762Y-51270819D02*
X137032857Y-51270819D01*
X137032857Y-51270819D02*
X137128095Y-51318438D01*
X137128095Y-51318438D02*
X137175714Y-51366057D01*
X137175714Y-51366057D02*
X137223333Y-51461295D01*
X137223333Y-51461295D02*
X137223333Y-51556533D01*
X137223333Y-51556533D02*
X137175714Y-51699390D01*
X137175714Y-51699390D02*
X136604286Y-52270819D01*
X136604286Y-52270819D02*
X137223333Y-52270819D01*
X167868476Y-34141200D02*
X168011333Y-34188819D01*
X168011333Y-34188819D02*
X168249428Y-34188819D01*
X168249428Y-34188819D02*
X168344666Y-34141200D01*
X168344666Y-34141200D02*
X168392285Y-34093580D01*
X168392285Y-34093580D02*
X168439904Y-33998342D01*
X168439904Y-33998342D02*
X168439904Y-33903104D01*
X168439904Y-33903104D02*
X168392285Y-33807866D01*
X168392285Y-33807866D02*
X168344666Y-33760247D01*
X168344666Y-33760247D02*
X168249428Y-33712628D01*
X168249428Y-33712628D02*
X168058952Y-33665009D01*
X168058952Y-33665009D02*
X167963714Y-33617390D01*
X167963714Y-33617390D02*
X167916095Y-33569771D01*
X167916095Y-33569771D02*
X167868476Y-33474533D01*
X167868476Y-33474533D02*
X167868476Y-33379295D01*
X167868476Y-33379295D02*
X167916095Y-33284057D01*
X167916095Y-33284057D02*
X167963714Y-33236438D01*
X167963714Y-33236438D02*
X168058952Y-33188819D01*
X168058952Y-33188819D02*
X168297047Y-33188819D01*
X168297047Y-33188819D02*
X168439904Y-33236438D01*
X168773238Y-33188819D02*
X169011333Y-34188819D01*
X169011333Y-34188819D02*
X169201809Y-33474533D01*
X169201809Y-33474533D02*
X169392285Y-34188819D01*
X169392285Y-34188819D02*
X169630381Y-33188819D01*
X169963714Y-33284057D02*
X170011333Y-33236438D01*
X170011333Y-33236438D02*
X170106571Y-33188819D01*
X170106571Y-33188819D02*
X170344666Y-33188819D01*
X170344666Y-33188819D02*
X170439904Y-33236438D01*
X170439904Y-33236438D02*
X170487523Y-33284057D01*
X170487523Y-33284057D02*
X170535142Y-33379295D01*
X170535142Y-33379295D02*
X170535142Y-33474533D01*
X170535142Y-33474533D02*
X170487523Y-33617390D01*
X170487523Y-33617390D02*
X169916095Y-34188819D01*
X169916095Y-34188819D02*
X170535142Y-34188819D01*
X170916095Y-33284057D02*
X170963714Y-33236438D01*
X170963714Y-33236438D02*
X171058952Y-33188819D01*
X171058952Y-33188819D02*
X171297047Y-33188819D01*
X171297047Y-33188819D02*
X171392285Y-33236438D01*
X171392285Y-33236438D02*
X171439904Y-33284057D01*
X171439904Y-33284057D02*
X171487523Y-33379295D01*
X171487523Y-33379295D02*
X171487523Y-33474533D01*
X171487523Y-33474533D02*
X171439904Y-33617390D01*
X171439904Y-33617390D02*
X170868476Y-34188819D01*
X170868476Y-34188819D02*
X171487523Y-34188819D01*
X134556667Y-71273200D02*
X134699524Y-71320819D01*
X134699524Y-71320819D02*
X134937619Y-71320819D01*
X134937619Y-71320819D02*
X135032857Y-71273200D01*
X135032857Y-71273200D02*
X135080476Y-71225580D01*
X135080476Y-71225580D02*
X135128095Y-71130342D01*
X135128095Y-71130342D02*
X135128095Y-71035104D01*
X135128095Y-71035104D02*
X135080476Y-70939866D01*
X135080476Y-70939866D02*
X135032857Y-70892247D01*
X135032857Y-70892247D02*
X134937619Y-70844628D01*
X134937619Y-70844628D02*
X134747143Y-70797009D01*
X134747143Y-70797009D02*
X134651905Y-70749390D01*
X134651905Y-70749390D02*
X134604286Y-70701771D01*
X134604286Y-70701771D02*
X134556667Y-70606533D01*
X134556667Y-70606533D02*
X134556667Y-70511295D01*
X134556667Y-70511295D02*
X134604286Y-70416057D01*
X134604286Y-70416057D02*
X134651905Y-70368438D01*
X134651905Y-70368438D02*
X134747143Y-70320819D01*
X134747143Y-70320819D02*
X134985238Y-70320819D01*
X134985238Y-70320819D02*
X135128095Y-70368438D01*
X135461429Y-70320819D02*
X135699524Y-71320819D01*
X135699524Y-71320819D02*
X135890000Y-70606533D01*
X135890000Y-70606533D02*
X136080476Y-71320819D01*
X136080476Y-71320819D02*
X136318572Y-70320819D01*
X137128095Y-70320819D02*
X136937619Y-70320819D01*
X136937619Y-70320819D02*
X136842381Y-70368438D01*
X136842381Y-70368438D02*
X136794762Y-70416057D01*
X136794762Y-70416057D02*
X136699524Y-70558914D01*
X136699524Y-70558914D02*
X136651905Y-70749390D01*
X136651905Y-70749390D02*
X136651905Y-71130342D01*
X136651905Y-71130342D02*
X136699524Y-71225580D01*
X136699524Y-71225580D02*
X136747143Y-71273200D01*
X136747143Y-71273200D02*
X136842381Y-71320819D01*
X136842381Y-71320819D02*
X137032857Y-71320819D01*
X137032857Y-71320819D02*
X137128095Y-71273200D01*
X137128095Y-71273200D02*
X137175714Y-71225580D01*
X137175714Y-71225580D02*
X137223333Y-71130342D01*
X137223333Y-71130342D02*
X137223333Y-70892247D01*
X137223333Y-70892247D02*
X137175714Y-70797009D01*
X137175714Y-70797009D02*
X137128095Y-70749390D01*
X137128095Y-70749390D02*
X137032857Y-70701771D01*
X137032857Y-70701771D02*
X136842381Y-70701771D01*
X136842381Y-70701771D02*
X136747143Y-70749390D01*
X136747143Y-70749390D02*
X136699524Y-70797009D01*
X136699524Y-70797009D02*
X136651905Y-70892247D01*
X153606667Y-71273200D02*
X153749524Y-71320819D01*
X153749524Y-71320819D02*
X153987619Y-71320819D01*
X153987619Y-71320819D02*
X154082857Y-71273200D01*
X154082857Y-71273200D02*
X154130476Y-71225580D01*
X154130476Y-71225580D02*
X154178095Y-71130342D01*
X154178095Y-71130342D02*
X154178095Y-71035104D01*
X154178095Y-71035104D02*
X154130476Y-70939866D01*
X154130476Y-70939866D02*
X154082857Y-70892247D01*
X154082857Y-70892247D02*
X153987619Y-70844628D01*
X153987619Y-70844628D02*
X153797143Y-70797009D01*
X153797143Y-70797009D02*
X153701905Y-70749390D01*
X153701905Y-70749390D02*
X153654286Y-70701771D01*
X153654286Y-70701771D02*
X153606667Y-70606533D01*
X153606667Y-70606533D02*
X153606667Y-70511295D01*
X153606667Y-70511295D02*
X153654286Y-70416057D01*
X153654286Y-70416057D02*
X153701905Y-70368438D01*
X153701905Y-70368438D02*
X153797143Y-70320819D01*
X153797143Y-70320819D02*
X154035238Y-70320819D01*
X154035238Y-70320819D02*
X154178095Y-70368438D01*
X154511429Y-70320819D02*
X154749524Y-71320819D01*
X154749524Y-71320819D02*
X154940000Y-70606533D01*
X154940000Y-70606533D02*
X155130476Y-71320819D01*
X155130476Y-71320819D02*
X155368572Y-70320819D01*
X155654286Y-70320819D02*
X156320952Y-70320819D01*
X156320952Y-70320819D02*
X155892381Y-71320819D01*
X153130476Y-90323200D02*
X153273333Y-90370819D01*
X153273333Y-90370819D02*
X153511428Y-90370819D01*
X153511428Y-90370819D02*
X153606666Y-90323200D01*
X153606666Y-90323200D02*
X153654285Y-90275580D01*
X153654285Y-90275580D02*
X153701904Y-90180342D01*
X153701904Y-90180342D02*
X153701904Y-90085104D01*
X153701904Y-90085104D02*
X153654285Y-89989866D01*
X153654285Y-89989866D02*
X153606666Y-89942247D01*
X153606666Y-89942247D02*
X153511428Y-89894628D01*
X153511428Y-89894628D02*
X153320952Y-89847009D01*
X153320952Y-89847009D02*
X153225714Y-89799390D01*
X153225714Y-89799390D02*
X153178095Y-89751771D01*
X153178095Y-89751771D02*
X153130476Y-89656533D01*
X153130476Y-89656533D02*
X153130476Y-89561295D01*
X153130476Y-89561295D02*
X153178095Y-89466057D01*
X153178095Y-89466057D02*
X153225714Y-89418438D01*
X153225714Y-89418438D02*
X153320952Y-89370819D01*
X153320952Y-89370819D02*
X153559047Y-89370819D01*
X153559047Y-89370819D02*
X153701904Y-89418438D01*
X154035238Y-89370819D02*
X154273333Y-90370819D01*
X154273333Y-90370819D02*
X154463809Y-89656533D01*
X154463809Y-89656533D02*
X154654285Y-90370819D01*
X154654285Y-90370819D02*
X154892381Y-89370819D01*
X155797142Y-90370819D02*
X155225714Y-90370819D01*
X155511428Y-90370819D02*
X155511428Y-89370819D01*
X155511428Y-89370819D02*
X155416190Y-89513676D01*
X155416190Y-89513676D02*
X155320952Y-89608914D01*
X155320952Y-89608914D02*
X155225714Y-89656533D01*
X156749523Y-90370819D02*
X156178095Y-90370819D01*
X156463809Y-90370819D02*
X156463809Y-89370819D01*
X156463809Y-89370819D02*
X156368571Y-89513676D01*
X156368571Y-89513676D02*
X156273333Y-89608914D01*
X156273333Y-89608914D02*
X156178095Y-89656533D01*
X153606667Y-52223200D02*
X153749524Y-52270819D01*
X153749524Y-52270819D02*
X153987619Y-52270819D01*
X153987619Y-52270819D02*
X154082857Y-52223200D01*
X154082857Y-52223200D02*
X154130476Y-52175580D01*
X154130476Y-52175580D02*
X154178095Y-52080342D01*
X154178095Y-52080342D02*
X154178095Y-51985104D01*
X154178095Y-51985104D02*
X154130476Y-51889866D01*
X154130476Y-51889866D02*
X154082857Y-51842247D01*
X154082857Y-51842247D02*
X153987619Y-51794628D01*
X153987619Y-51794628D02*
X153797143Y-51747009D01*
X153797143Y-51747009D02*
X153701905Y-51699390D01*
X153701905Y-51699390D02*
X153654286Y-51651771D01*
X153654286Y-51651771D02*
X153606667Y-51556533D01*
X153606667Y-51556533D02*
X153606667Y-51461295D01*
X153606667Y-51461295D02*
X153654286Y-51366057D01*
X153654286Y-51366057D02*
X153701905Y-51318438D01*
X153701905Y-51318438D02*
X153797143Y-51270819D01*
X153797143Y-51270819D02*
X154035238Y-51270819D01*
X154035238Y-51270819D02*
X154178095Y-51318438D01*
X154511429Y-51270819D02*
X154749524Y-52270819D01*
X154749524Y-52270819D02*
X154940000Y-51556533D01*
X154940000Y-51556533D02*
X155130476Y-52270819D01*
X155130476Y-52270819D02*
X155368572Y-51270819D01*
X155654286Y-51270819D02*
X156273333Y-51270819D01*
X156273333Y-51270819D02*
X155940000Y-51651771D01*
X155940000Y-51651771D02*
X156082857Y-51651771D01*
X156082857Y-51651771D02*
X156178095Y-51699390D01*
X156178095Y-51699390D02*
X156225714Y-51747009D01*
X156225714Y-51747009D02*
X156273333Y-51842247D01*
X156273333Y-51842247D02*
X156273333Y-52080342D01*
X156273333Y-52080342D02*
X156225714Y-52175580D01*
X156225714Y-52175580D02*
X156178095Y-52223200D01*
X156178095Y-52223200D02*
X156082857Y-52270819D01*
X156082857Y-52270819D02*
X155797143Y-52270819D01*
X155797143Y-52270819D02*
X155701905Y-52223200D01*
X155701905Y-52223200D02*
X155654286Y-52175580D01*
X115506667Y-71273200D02*
X115649524Y-71320819D01*
X115649524Y-71320819D02*
X115887619Y-71320819D01*
X115887619Y-71320819D02*
X115982857Y-71273200D01*
X115982857Y-71273200D02*
X116030476Y-71225580D01*
X116030476Y-71225580D02*
X116078095Y-71130342D01*
X116078095Y-71130342D02*
X116078095Y-71035104D01*
X116078095Y-71035104D02*
X116030476Y-70939866D01*
X116030476Y-70939866D02*
X115982857Y-70892247D01*
X115982857Y-70892247D02*
X115887619Y-70844628D01*
X115887619Y-70844628D02*
X115697143Y-70797009D01*
X115697143Y-70797009D02*
X115601905Y-70749390D01*
X115601905Y-70749390D02*
X115554286Y-70701771D01*
X115554286Y-70701771D02*
X115506667Y-70606533D01*
X115506667Y-70606533D02*
X115506667Y-70511295D01*
X115506667Y-70511295D02*
X115554286Y-70416057D01*
X115554286Y-70416057D02*
X115601905Y-70368438D01*
X115601905Y-70368438D02*
X115697143Y-70320819D01*
X115697143Y-70320819D02*
X115935238Y-70320819D01*
X115935238Y-70320819D02*
X116078095Y-70368438D01*
X116411429Y-70320819D02*
X116649524Y-71320819D01*
X116649524Y-71320819D02*
X116840000Y-70606533D01*
X116840000Y-70606533D02*
X117030476Y-71320819D01*
X117030476Y-71320819D02*
X117268572Y-70320819D01*
X118125714Y-70320819D02*
X117649524Y-70320819D01*
X117649524Y-70320819D02*
X117601905Y-70797009D01*
X117601905Y-70797009D02*
X117649524Y-70749390D01*
X117649524Y-70749390D02*
X117744762Y-70701771D01*
X117744762Y-70701771D02*
X117982857Y-70701771D01*
X117982857Y-70701771D02*
X118078095Y-70749390D01*
X118078095Y-70749390D02*
X118125714Y-70797009D01*
X118125714Y-70797009D02*
X118173333Y-70892247D01*
X118173333Y-70892247D02*
X118173333Y-71130342D01*
X118173333Y-71130342D02*
X118125714Y-71225580D01*
X118125714Y-71225580D02*
X118078095Y-71273200D01*
X118078095Y-71273200D02*
X117982857Y-71320819D01*
X117982857Y-71320819D02*
X117744762Y-71320819D01*
X117744762Y-71320819D02*
X117649524Y-71273200D01*
X117649524Y-71273200D02*
X117601905Y-71225580D01*
X172180476Y-109373200D02*
X172323333Y-109420819D01*
X172323333Y-109420819D02*
X172561428Y-109420819D01*
X172561428Y-109420819D02*
X172656666Y-109373200D01*
X172656666Y-109373200D02*
X172704285Y-109325580D01*
X172704285Y-109325580D02*
X172751904Y-109230342D01*
X172751904Y-109230342D02*
X172751904Y-109135104D01*
X172751904Y-109135104D02*
X172704285Y-109039866D01*
X172704285Y-109039866D02*
X172656666Y-108992247D01*
X172656666Y-108992247D02*
X172561428Y-108944628D01*
X172561428Y-108944628D02*
X172370952Y-108897009D01*
X172370952Y-108897009D02*
X172275714Y-108849390D01*
X172275714Y-108849390D02*
X172228095Y-108801771D01*
X172228095Y-108801771D02*
X172180476Y-108706533D01*
X172180476Y-108706533D02*
X172180476Y-108611295D01*
X172180476Y-108611295D02*
X172228095Y-108516057D01*
X172228095Y-108516057D02*
X172275714Y-108468438D01*
X172275714Y-108468438D02*
X172370952Y-108420819D01*
X172370952Y-108420819D02*
X172609047Y-108420819D01*
X172609047Y-108420819D02*
X172751904Y-108468438D01*
X173085238Y-108420819D02*
X173323333Y-109420819D01*
X173323333Y-109420819D02*
X173513809Y-108706533D01*
X173513809Y-108706533D02*
X173704285Y-109420819D01*
X173704285Y-109420819D02*
X173942381Y-108420819D01*
X174847142Y-109420819D02*
X174275714Y-109420819D01*
X174561428Y-109420819D02*
X174561428Y-108420819D01*
X174561428Y-108420819D02*
X174466190Y-108563676D01*
X174466190Y-108563676D02*
X174370952Y-108658914D01*
X174370952Y-108658914D02*
X174275714Y-108706533D01*
X175704285Y-108420819D02*
X175513809Y-108420819D01*
X175513809Y-108420819D02*
X175418571Y-108468438D01*
X175418571Y-108468438D02*
X175370952Y-108516057D01*
X175370952Y-108516057D02*
X175275714Y-108658914D01*
X175275714Y-108658914D02*
X175228095Y-108849390D01*
X175228095Y-108849390D02*
X175228095Y-109230342D01*
X175228095Y-109230342D02*
X175275714Y-109325580D01*
X175275714Y-109325580D02*
X175323333Y-109373200D01*
X175323333Y-109373200D02*
X175418571Y-109420819D01*
X175418571Y-109420819D02*
X175609047Y-109420819D01*
X175609047Y-109420819D02*
X175704285Y-109373200D01*
X175704285Y-109373200D02*
X175751904Y-109325580D01*
X175751904Y-109325580D02*
X175799523Y-109230342D01*
X175799523Y-109230342D02*
X175799523Y-108992247D01*
X175799523Y-108992247D02*
X175751904Y-108897009D01*
X175751904Y-108897009D02*
X175704285Y-108849390D01*
X175704285Y-108849390D02*
X175609047Y-108801771D01*
X175609047Y-108801771D02*
X175418571Y-108801771D01*
X175418571Y-108801771D02*
X175323333Y-108849390D01*
X175323333Y-108849390D02*
X175275714Y-108897009D01*
X175275714Y-108897009D02*
X175228095Y-108992247D01*
X115030476Y-128423200D02*
X115173333Y-128470819D01*
X115173333Y-128470819D02*
X115411428Y-128470819D01*
X115411428Y-128470819D02*
X115506666Y-128423200D01*
X115506666Y-128423200D02*
X115554285Y-128375580D01*
X115554285Y-128375580D02*
X115601904Y-128280342D01*
X115601904Y-128280342D02*
X115601904Y-128185104D01*
X115601904Y-128185104D02*
X115554285Y-128089866D01*
X115554285Y-128089866D02*
X115506666Y-128042247D01*
X115506666Y-128042247D02*
X115411428Y-127994628D01*
X115411428Y-127994628D02*
X115220952Y-127947009D01*
X115220952Y-127947009D02*
X115125714Y-127899390D01*
X115125714Y-127899390D02*
X115078095Y-127851771D01*
X115078095Y-127851771D02*
X115030476Y-127756533D01*
X115030476Y-127756533D02*
X115030476Y-127661295D01*
X115030476Y-127661295D02*
X115078095Y-127566057D01*
X115078095Y-127566057D02*
X115125714Y-127518438D01*
X115125714Y-127518438D02*
X115220952Y-127470819D01*
X115220952Y-127470819D02*
X115459047Y-127470819D01*
X115459047Y-127470819D02*
X115601904Y-127518438D01*
X115935238Y-127470819D02*
X116173333Y-128470819D01*
X116173333Y-128470819D02*
X116363809Y-127756533D01*
X116363809Y-127756533D02*
X116554285Y-128470819D01*
X116554285Y-128470819D02*
X116792381Y-127470819D01*
X117697142Y-128470819D02*
X117125714Y-128470819D01*
X117411428Y-128470819D02*
X117411428Y-127470819D01*
X117411428Y-127470819D02*
X117316190Y-127613676D01*
X117316190Y-127613676D02*
X117220952Y-127708914D01*
X117220952Y-127708914D02*
X117125714Y-127756533D01*
X118030476Y-127470819D02*
X118697142Y-127470819D01*
X118697142Y-127470819D02*
X118268571Y-128470819D01*
D11*
X99102580Y-97194761D02*
X99578771Y-96861428D01*
X99102580Y-96623333D02*
X100102580Y-96623333D01*
X100102580Y-96623333D02*
X100102580Y-97004285D01*
X100102580Y-97004285D02*
X100054961Y-97099523D01*
X100054961Y-97099523D02*
X100007342Y-97147142D01*
X100007342Y-97147142D02*
X99912104Y-97194761D01*
X99912104Y-97194761D02*
X99769247Y-97194761D01*
X99769247Y-97194761D02*
X99674009Y-97147142D01*
X99674009Y-97147142D02*
X99626390Y-97099523D01*
X99626390Y-97099523D02*
X99578771Y-97004285D01*
X99578771Y-97004285D02*
X99578771Y-96623333D01*
X100102580Y-97480476D02*
X99102580Y-97813809D01*
X99102580Y-97813809D02*
X100102580Y-98147142D01*
X99102580Y-99004285D02*
X99102580Y-98432857D01*
X99102580Y-98718571D02*
X100102580Y-98718571D01*
X100102580Y-98718571D02*
X99959723Y-98623333D01*
X99959723Y-98623333D02*
X99864485Y-98528095D01*
X99864485Y-98528095D02*
X99816866Y-98432857D01*
D10*
X115506667Y-52223200D02*
X115649524Y-52270819D01*
X115649524Y-52270819D02*
X115887619Y-52270819D01*
X115887619Y-52270819D02*
X115982857Y-52223200D01*
X115982857Y-52223200D02*
X116030476Y-52175580D01*
X116030476Y-52175580D02*
X116078095Y-52080342D01*
X116078095Y-52080342D02*
X116078095Y-51985104D01*
X116078095Y-51985104D02*
X116030476Y-51889866D01*
X116030476Y-51889866D02*
X115982857Y-51842247D01*
X115982857Y-51842247D02*
X115887619Y-51794628D01*
X115887619Y-51794628D02*
X115697143Y-51747009D01*
X115697143Y-51747009D02*
X115601905Y-51699390D01*
X115601905Y-51699390D02*
X115554286Y-51651771D01*
X115554286Y-51651771D02*
X115506667Y-51556533D01*
X115506667Y-51556533D02*
X115506667Y-51461295D01*
X115506667Y-51461295D02*
X115554286Y-51366057D01*
X115554286Y-51366057D02*
X115601905Y-51318438D01*
X115601905Y-51318438D02*
X115697143Y-51270819D01*
X115697143Y-51270819D02*
X115935238Y-51270819D01*
X115935238Y-51270819D02*
X116078095Y-51318438D01*
X116411429Y-51270819D02*
X116649524Y-52270819D01*
X116649524Y-52270819D02*
X116840000Y-51556533D01*
X116840000Y-51556533D02*
X117030476Y-52270819D01*
X117030476Y-52270819D02*
X117268572Y-51270819D01*
X118173333Y-52270819D02*
X117601905Y-52270819D01*
X117887619Y-52270819D02*
X117887619Y-51270819D01*
X117887619Y-51270819D02*
X117792381Y-51413676D01*
X117792381Y-51413676D02*
X117697143Y-51508914D01*
X117697143Y-51508914D02*
X117601905Y-51556533D01*
X134080476Y-90323200D02*
X134223333Y-90370819D01*
X134223333Y-90370819D02*
X134461428Y-90370819D01*
X134461428Y-90370819D02*
X134556666Y-90323200D01*
X134556666Y-90323200D02*
X134604285Y-90275580D01*
X134604285Y-90275580D02*
X134651904Y-90180342D01*
X134651904Y-90180342D02*
X134651904Y-90085104D01*
X134651904Y-90085104D02*
X134604285Y-89989866D01*
X134604285Y-89989866D02*
X134556666Y-89942247D01*
X134556666Y-89942247D02*
X134461428Y-89894628D01*
X134461428Y-89894628D02*
X134270952Y-89847009D01*
X134270952Y-89847009D02*
X134175714Y-89799390D01*
X134175714Y-89799390D02*
X134128095Y-89751771D01*
X134128095Y-89751771D02*
X134080476Y-89656533D01*
X134080476Y-89656533D02*
X134080476Y-89561295D01*
X134080476Y-89561295D02*
X134128095Y-89466057D01*
X134128095Y-89466057D02*
X134175714Y-89418438D01*
X134175714Y-89418438D02*
X134270952Y-89370819D01*
X134270952Y-89370819D02*
X134509047Y-89370819D01*
X134509047Y-89370819D02*
X134651904Y-89418438D01*
X134985238Y-89370819D02*
X135223333Y-90370819D01*
X135223333Y-90370819D02*
X135413809Y-89656533D01*
X135413809Y-89656533D02*
X135604285Y-90370819D01*
X135604285Y-90370819D02*
X135842381Y-89370819D01*
X136747142Y-90370819D02*
X136175714Y-90370819D01*
X136461428Y-90370819D02*
X136461428Y-89370819D01*
X136461428Y-89370819D02*
X136366190Y-89513676D01*
X136366190Y-89513676D02*
X136270952Y-89608914D01*
X136270952Y-89608914D02*
X136175714Y-89656533D01*
X137366190Y-89370819D02*
X137461428Y-89370819D01*
X137461428Y-89370819D02*
X137556666Y-89418438D01*
X137556666Y-89418438D02*
X137604285Y-89466057D01*
X137604285Y-89466057D02*
X137651904Y-89561295D01*
X137651904Y-89561295D02*
X137699523Y-89751771D01*
X137699523Y-89751771D02*
X137699523Y-89989866D01*
X137699523Y-89989866D02*
X137651904Y-90180342D01*
X137651904Y-90180342D02*
X137604285Y-90275580D01*
X137604285Y-90275580D02*
X137556666Y-90323200D01*
X137556666Y-90323200D02*
X137461428Y-90370819D01*
X137461428Y-90370819D02*
X137366190Y-90370819D01*
X137366190Y-90370819D02*
X137270952Y-90323200D01*
X137270952Y-90323200D02*
X137223333Y-90275580D01*
X137223333Y-90275580D02*
X137175714Y-90180342D01*
X137175714Y-90180342D02*
X137128095Y-89989866D01*
X137128095Y-89989866D02*
X137128095Y-89751771D01*
X137128095Y-89751771D02*
X137175714Y-89561295D01*
X137175714Y-89561295D02*
X137223333Y-89466057D01*
X137223333Y-89466057D02*
X137270952Y-89418438D01*
X137270952Y-89418438D02*
X137366190Y-89370819D01*
X172656667Y-71273200D02*
X172799524Y-71320819D01*
X172799524Y-71320819D02*
X173037619Y-71320819D01*
X173037619Y-71320819D02*
X173132857Y-71273200D01*
X173132857Y-71273200D02*
X173180476Y-71225580D01*
X173180476Y-71225580D02*
X173228095Y-71130342D01*
X173228095Y-71130342D02*
X173228095Y-71035104D01*
X173228095Y-71035104D02*
X173180476Y-70939866D01*
X173180476Y-70939866D02*
X173132857Y-70892247D01*
X173132857Y-70892247D02*
X173037619Y-70844628D01*
X173037619Y-70844628D02*
X172847143Y-70797009D01*
X172847143Y-70797009D02*
X172751905Y-70749390D01*
X172751905Y-70749390D02*
X172704286Y-70701771D01*
X172704286Y-70701771D02*
X172656667Y-70606533D01*
X172656667Y-70606533D02*
X172656667Y-70511295D01*
X172656667Y-70511295D02*
X172704286Y-70416057D01*
X172704286Y-70416057D02*
X172751905Y-70368438D01*
X172751905Y-70368438D02*
X172847143Y-70320819D01*
X172847143Y-70320819D02*
X173085238Y-70320819D01*
X173085238Y-70320819D02*
X173228095Y-70368438D01*
X173561429Y-70320819D02*
X173799524Y-71320819D01*
X173799524Y-71320819D02*
X173990000Y-70606533D01*
X173990000Y-70606533D02*
X174180476Y-71320819D01*
X174180476Y-71320819D02*
X174418572Y-70320819D01*
X174942381Y-70749390D02*
X174847143Y-70701771D01*
X174847143Y-70701771D02*
X174799524Y-70654152D01*
X174799524Y-70654152D02*
X174751905Y-70558914D01*
X174751905Y-70558914D02*
X174751905Y-70511295D01*
X174751905Y-70511295D02*
X174799524Y-70416057D01*
X174799524Y-70416057D02*
X174847143Y-70368438D01*
X174847143Y-70368438D02*
X174942381Y-70320819D01*
X174942381Y-70320819D02*
X175132857Y-70320819D01*
X175132857Y-70320819D02*
X175228095Y-70368438D01*
X175228095Y-70368438D02*
X175275714Y-70416057D01*
X175275714Y-70416057D02*
X175323333Y-70511295D01*
X175323333Y-70511295D02*
X175323333Y-70558914D01*
X175323333Y-70558914D02*
X175275714Y-70654152D01*
X175275714Y-70654152D02*
X175228095Y-70701771D01*
X175228095Y-70701771D02*
X175132857Y-70749390D01*
X175132857Y-70749390D02*
X174942381Y-70749390D01*
X174942381Y-70749390D02*
X174847143Y-70797009D01*
X174847143Y-70797009D02*
X174799524Y-70844628D01*
X174799524Y-70844628D02*
X174751905Y-70939866D01*
X174751905Y-70939866D02*
X174751905Y-71130342D01*
X174751905Y-71130342D02*
X174799524Y-71225580D01*
X174799524Y-71225580D02*
X174847143Y-71273200D01*
X174847143Y-71273200D02*
X174942381Y-71320819D01*
X174942381Y-71320819D02*
X175132857Y-71320819D01*
X175132857Y-71320819D02*
X175228095Y-71273200D01*
X175228095Y-71273200D02*
X175275714Y-71225580D01*
X175275714Y-71225580D02*
X175323333Y-71130342D01*
X175323333Y-71130342D02*
X175323333Y-70939866D01*
X175323333Y-70939866D02*
X175275714Y-70844628D01*
X175275714Y-70844628D02*
X175228095Y-70797009D01*
X175228095Y-70797009D02*
X175132857Y-70749390D01*
X172180476Y-128423200D02*
X172323333Y-128470819D01*
X172323333Y-128470819D02*
X172561428Y-128470819D01*
X172561428Y-128470819D02*
X172656666Y-128423200D01*
X172656666Y-128423200D02*
X172704285Y-128375580D01*
X172704285Y-128375580D02*
X172751904Y-128280342D01*
X172751904Y-128280342D02*
X172751904Y-128185104D01*
X172751904Y-128185104D02*
X172704285Y-128089866D01*
X172704285Y-128089866D02*
X172656666Y-128042247D01*
X172656666Y-128042247D02*
X172561428Y-127994628D01*
X172561428Y-127994628D02*
X172370952Y-127947009D01*
X172370952Y-127947009D02*
X172275714Y-127899390D01*
X172275714Y-127899390D02*
X172228095Y-127851771D01*
X172228095Y-127851771D02*
X172180476Y-127756533D01*
X172180476Y-127756533D02*
X172180476Y-127661295D01*
X172180476Y-127661295D02*
X172228095Y-127566057D01*
X172228095Y-127566057D02*
X172275714Y-127518438D01*
X172275714Y-127518438D02*
X172370952Y-127470819D01*
X172370952Y-127470819D02*
X172609047Y-127470819D01*
X172609047Y-127470819D02*
X172751904Y-127518438D01*
X173085238Y-127470819D02*
X173323333Y-128470819D01*
X173323333Y-128470819D02*
X173513809Y-127756533D01*
X173513809Y-127756533D02*
X173704285Y-128470819D01*
X173704285Y-128470819D02*
X173942381Y-127470819D01*
X174275714Y-127566057D02*
X174323333Y-127518438D01*
X174323333Y-127518438D02*
X174418571Y-127470819D01*
X174418571Y-127470819D02*
X174656666Y-127470819D01*
X174656666Y-127470819D02*
X174751904Y-127518438D01*
X174751904Y-127518438D02*
X174799523Y-127566057D01*
X174799523Y-127566057D02*
X174847142Y-127661295D01*
X174847142Y-127661295D02*
X174847142Y-127756533D01*
X174847142Y-127756533D02*
X174799523Y-127899390D01*
X174799523Y-127899390D02*
X174228095Y-128470819D01*
X174228095Y-128470819D02*
X174847142Y-128470819D01*
X175466190Y-127470819D02*
X175561428Y-127470819D01*
X175561428Y-127470819D02*
X175656666Y-127518438D01*
X175656666Y-127518438D02*
X175704285Y-127566057D01*
X175704285Y-127566057D02*
X175751904Y-127661295D01*
X175751904Y-127661295D02*
X175799523Y-127851771D01*
X175799523Y-127851771D02*
X175799523Y-128089866D01*
X175799523Y-128089866D02*
X175751904Y-128280342D01*
X175751904Y-128280342D02*
X175704285Y-128375580D01*
X175704285Y-128375580D02*
X175656666Y-128423200D01*
X175656666Y-128423200D02*
X175561428Y-128470819D01*
X175561428Y-128470819D02*
X175466190Y-128470819D01*
X175466190Y-128470819D02*
X175370952Y-128423200D01*
X175370952Y-128423200D02*
X175323333Y-128375580D01*
X175323333Y-128375580D02*
X175275714Y-128280342D01*
X175275714Y-128280342D02*
X175228095Y-128089866D01*
X175228095Y-128089866D02*
X175228095Y-127851771D01*
X175228095Y-127851771D02*
X175275714Y-127661295D01*
X175275714Y-127661295D02*
X175323333Y-127566057D01*
X175323333Y-127566057D02*
X175370952Y-127518438D01*
X175370952Y-127518438D02*
X175466190Y-127470819D01*
X153130476Y-128423200D02*
X153273333Y-128470819D01*
X153273333Y-128470819D02*
X153511428Y-128470819D01*
X153511428Y-128470819D02*
X153606666Y-128423200D01*
X153606666Y-128423200D02*
X153654285Y-128375580D01*
X153654285Y-128375580D02*
X153701904Y-128280342D01*
X153701904Y-128280342D02*
X153701904Y-128185104D01*
X153701904Y-128185104D02*
X153654285Y-128089866D01*
X153654285Y-128089866D02*
X153606666Y-128042247D01*
X153606666Y-128042247D02*
X153511428Y-127994628D01*
X153511428Y-127994628D02*
X153320952Y-127947009D01*
X153320952Y-127947009D02*
X153225714Y-127899390D01*
X153225714Y-127899390D02*
X153178095Y-127851771D01*
X153178095Y-127851771D02*
X153130476Y-127756533D01*
X153130476Y-127756533D02*
X153130476Y-127661295D01*
X153130476Y-127661295D02*
X153178095Y-127566057D01*
X153178095Y-127566057D02*
X153225714Y-127518438D01*
X153225714Y-127518438D02*
X153320952Y-127470819D01*
X153320952Y-127470819D02*
X153559047Y-127470819D01*
X153559047Y-127470819D02*
X153701904Y-127518438D01*
X154035238Y-127470819D02*
X154273333Y-128470819D01*
X154273333Y-128470819D02*
X154463809Y-127756533D01*
X154463809Y-127756533D02*
X154654285Y-128470819D01*
X154654285Y-128470819D02*
X154892381Y-127470819D01*
X155797142Y-128470819D02*
X155225714Y-128470819D01*
X155511428Y-128470819D02*
X155511428Y-127470819D01*
X155511428Y-127470819D02*
X155416190Y-127613676D01*
X155416190Y-127613676D02*
X155320952Y-127708914D01*
X155320952Y-127708914D02*
X155225714Y-127756533D01*
X156273333Y-128470819D02*
X156463809Y-128470819D01*
X156463809Y-128470819D02*
X156559047Y-128423200D01*
X156559047Y-128423200D02*
X156606666Y-128375580D01*
X156606666Y-128375580D02*
X156701904Y-128232723D01*
X156701904Y-128232723D02*
X156749523Y-128042247D01*
X156749523Y-128042247D02*
X156749523Y-127661295D01*
X156749523Y-127661295D02*
X156701904Y-127566057D01*
X156701904Y-127566057D02*
X156654285Y-127518438D01*
X156654285Y-127518438D02*
X156559047Y-127470819D01*
X156559047Y-127470819D02*
X156368571Y-127470819D01*
X156368571Y-127470819D02*
X156273333Y-127518438D01*
X156273333Y-127518438D02*
X156225714Y-127566057D01*
X156225714Y-127566057D02*
X156178095Y-127661295D01*
X156178095Y-127661295D02*
X156178095Y-127899390D01*
X156178095Y-127899390D02*
X156225714Y-127994628D01*
X156225714Y-127994628D02*
X156273333Y-128042247D01*
X156273333Y-128042247D02*
X156368571Y-128089866D01*
X156368571Y-128089866D02*
X156559047Y-128089866D01*
X156559047Y-128089866D02*
X156654285Y-128042247D01*
X156654285Y-128042247D02*
X156701904Y-127994628D01*
X156701904Y-127994628D02*
X156749523Y-127899390D01*
X115506667Y-90323200D02*
X115649524Y-90370819D01*
X115649524Y-90370819D02*
X115887619Y-90370819D01*
X115887619Y-90370819D02*
X115982857Y-90323200D01*
X115982857Y-90323200D02*
X116030476Y-90275580D01*
X116030476Y-90275580D02*
X116078095Y-90180342D01*
X116078095Y-90180342D02*
X116078095Y-90085104D01*
X116078095Y-90085104D02*
X116030476Y-89989866D01*
X116030476Y-89989866D02*
X115982857Y-89942247D01*
X115982857Y-89942247D02*
X115887619Y-89894628D01*
X115887619Y-89894628D02*
X115697143Y-89847009D01*
X115697143Y-89847009D02*
X115601905Y-89799390D01*
X115601905Y-89799390D02*
X115554286Y-89751771D01*
X115554286Y-89751771D02*
X115506667Y-89656533D01*
X115506667Y-89656533D02*
X115506667Y-89561295D01*
X115506667Y-89561295D02*
X115554286Y-89466057D01*
X115554286Y-89466057D02*
X115601905Y-89418438D01*
X115601905Y-89418438D02*
X115697143Y-89370819D01*
X115697143Y-89370819D02*
X115935238Y-89370819D01*
X115935238Y-89370819D02*
X116078095Y-89418438D01*
X116411429Y-89370819D02*
X116649524Y-90370819D01*
X116649524Y-90370819D02*
X116840000Y-89656533D01*
X116840000Y-89656533D02*
X117030476Y-90370819D01*
X117030476Y-90370819D02*
X117268572Y-89370819D01*
X117697143Y-90370819D02*
X117887619Y-90370819D01*
X117887619Y-90370819D02*
X117982857Y-90323200D01*
X117982857Y-90323200D02*
X118030476Y-90275580D01*
X118030476Y-90275580D02*
X118125714Y-90132723D01*
X118125714Y-90132723D02*
X118173333Y-89942247D01*
X118173333Y-89942247D02*
X118173333Y-89561295D01*
X118173333Y-89561295D02*
X118125714Y-89466057D01*
X118125714Y-89466057D02*
X118078095Y-89418438D01*
X118078095Y-89418438D02*
X117982857Y-89370819D01*
X117982857Y-89370819D02*
X117792381Y-89370819D01*
X117792381Y-89370819D02*
X117697143Y-89418438D01*
X117697143Y-89418438D02*
X117649524Y-89466057D01*
X117649524Y-89466057D02*
X117601905Y-89561295D01*
X117601905Y-89561295D02*
X117601905Y-89799390D01*
X117601905Y-89799390D02*
X117649524Y-89894628D01*
X117649524Y-89894628D02*
X117697143Y-89942247D01*
X117697143Y-89942247D02*
X117792381Y-89989866D01*
X117792381Y-89989866D02*
X117982857Y-89989866D01*
X117982857Y-89989866D02*
X118078095Y-89942247D01*
X118078095Y-89942247D02*
X118125714Y-89894628D01*
X118125714Y-89894628D02*
X118173333Y-89799390D01*
D12*
%TO.C,SW13*%
X109855000Y-109855000D02*
X123825000Y-109855000D01*
X109855000Y-123825000D02*
X109855000Y-109855000D01*
X123825000Y-109855000D02*
X123825000Y-123825000D01*
X123825000Y-123825000D02*
X109855000Y-123825000D01*
%TO.C,SW21*%
X109174000Y-37088000D02*
X109774000Y-37088000D01*
X109474000Y-37388000D02*
X109174000Y-37088000D01*
X109774000Y-37088000D02*
X109474000Y-37388000D01*
X110874000Y-35288000D02*
X110874000Y-47088000D01*
X114974000Y-35288000D02*
X110874000Y-35288000D01*
X114974000Y-47088000D02*
X110874000Y-47088000D01*
X116474000Y-41188000D02*
X117474000Y-41188000D01*
X116974000Y-40688000D02*
X116974000Y-41688000D01*
X118974000Y-35288000D02*
X123074000Y-35288000D01*
X123074000Y-35288000D02*
X123074000Y-37688000D01*
X123074000Y-39888000D02*
X123074000Y-42488000D01*
X123074000Y-44688000D02*
X123074000Y-47088000D01*
X123074000Y-47088000D02*
X118974000Y-47088000D01*
X119974000Y-41188000D02*
G75*
G02*
X113974000Y-41188000I-3000000J0D01*
G01*
X113974000Y-41188000D02*
G75*
G02*
X119974000Y-41188000I3000000J0D01*
G01*
%TO.C,SW12*%
X167005000Y-90805000D02*
X180975000Y-90805000D01*
X167005000Y-104775000D02*
X167005000Y-90805000D01*
X180975000Y-90805000D02*
X180975000Y-104775000D01*
X180975000Y-104775000D02*
X167005000Y-104775000D01*
%TO.C,SW4*%
X167005000Y-52705000D02*
X180975000Y-52705000D01*
X167005000Y-66675000D02*
X167005000Y-52705000D01*
X180975000Y-52705000D02*
X180975000Y-66675000D01*
X180975000Y-66675000D02*
X167005000Y-66675000D01*
%TO.C,SW15*%
X147955000Y-109855000D02*
X161925000Y-109855000D01*
X147955000Y-123825000D02*
X147955000Y-109855000D01*
X161925000Y-109855000D02*
X161925000Y-123825000D01*
X161925000Y-123825000D02*
X147955000Y-123825000D01*
%TO.C,SW18*%
X128905000Y-128905000D02*
X142875000Y-128905000D01*
X128905000Y-142875000D02*
X128905000Y-128905000D01*
X142875000Y-128905000D02*
X142875000Y-142875000D01*
X142875000Y-142875000D02*
X128905000Y-142875000D01*
%TO.C,SW14*%
X128905000Y-109855000D02*
X142875000Y-109855000D01*
X128905000Y-123825000D02*
X128905000Y-109855000D01*
X142875000Y-109855000D02*
X142875000Y-123825000D01*
X142875000Y-123825000D02*
X128905000Y-123825000D01*
%TO.C,SW2*%
X128905000Y-52705000D02*
X142875000Y-52705000D01*
X128905000Y-66675000D02*
X128905000Y-52705000D01*
X142875000Y-52705000D02*
X142875000Y-66675000D01*
X142875000Y-66675000D02*
X128905000Y-66675000D01*
%TO.C,SW22*%
X166578000Y-36834000D02*
X167178000Y-36834000D01*
X166878000Y-37134000D02*
X166578000Y-36834000D01*
X167178000Y-36834000D02*
X166878000Y-37134000D01*
X168278000Y-35034000D02*
X168278000Y-46834000D01*
X172378000Y-35034000D02*
X168278000Y-35034000D01*
X172378000Y-46834000D02*
X168278000Y-46834000D01*
X173878000Y-40934000D02*
X174878000Y-40934000D01*
X174378000Y-40434000D02*
X174378000Y-41434000D01*
X176378000Y-35034000D02*
X180478000Y-35034000D01*
X180478000Y-35034000D02*
X180478000Y-37434000D01*
X180478000Y-39634000D02*
X180478000Y-42234000D01*
X180478000Y-44434000D02*
X180478000Y-46834000D01*
X180478000Y-46834000D02*
X176378000Y-46834000D01*
X177378000Y-40934000D02*
G75*
G02*
X171378000Y-40934000I-3000000J0D01*
G01*
X171378000Y-40934000D02*
G75*
G02*
X177378000Y-40934000I3000000J0D01*
G01*
%TO.C,SW6*%
X128905000Y-71755000D02*
X142875000Y-71755000D01*
X128905000Y-85725000D02*
X128905000Y-71755000D01*
X142875000Y-71755000D02*
X142875000Y-85725000D01*
X142875000Y-85725000D02*
X128905000Y-85725000D01*
%TO.C,SW7*%
X147955000Y-71755000D02*
X161925000Y-71755000D01*
X147955000Y-85725000D02*
X147955000Y-71755000D01*
X161925000Y-71755000D02*
X161925000Y-85725000D01*
X161925000Y-85725000D02*
X147955000Y-85725000D01*
%TO.C,SW11*%
X147955000Y-90805000D02*
X161925000Y-90805000D01*
X147955000Y-104775000D02*
X147955000Y-90805000D01*
X161925000Y-90805000D02*
X161925000Y-104775000D01*
X161925000Y-104775000D02*
X147955000Y-104775000D01*
%TO.C,SW3*%
X147955000Y-52705000D02*
X161925000Y-52705000D01*
X147955000Y-66675000D02*
X147955000Y-52705000D01*
X161925000Y-52705000D02*
X161925000Y-66675000D01*
X161925000Y-66675000D02*
X147955000Y-66675000D01*
%TO.C,SW5*%
X109855000Y-71755000D02*
X123825000Y-71755000D01*
X109855000Y-85725000D02*
X109855000Y-71755000D01*
X123825000Y-71755000D02*
X123825000Y-85725000D01*
X123825000Y-85725000D02*
X109855000Y-85725000D01*
%TO.C,SW16*%
X167005000Y-109855000D02*
X180975000Y-109855000D01*
X167005000Y-123825000D02*
X167005000Y-109855000D01*
X180975000Y-109855000D02*
X180975000Y-123825000D01*
X180975000Y-123825000D02*
X167005000Y-123825000D01*
%TO.C,SW17*%
X109855000Y-128905000D02*
X123825000Y-128905000D01*
X109855000Y-142875000D02*
X109855000Y-128905000D01*
X123825000Y-128905000D02*
X123825000Y-142875000D01*
X123825000Y-142875000D02*
X109855000Y-142875000D01*
%TO.C,RV1*%
D13*
X103560000Y-60290000D02*
X94560000Y-60290000D01*
X94560000Y-135290000D01*
X103560000Y-135290000D01*
X103560000Y-60290000D01*
D12*
%TO.C,SW1*%
X109855000Y-52705000D02*
X123825000Y-52705000D01*
X109855000Y-66675000D02*
X109855000Y-52705000D01*
X123825000Y-52705000D02*
X123825000Y-66675000D01*
X123825000Y-66675000D02*
X109855000Y-66675000D01*
%TO.C,SW10*%
X128905000Y-90805000D02*
X142875000Y-90805000D01*
X128905000Y-104775000D02*
X128905000Y-90805000D01*
X142875000Y-90805000D02*
X142875000Y-104775000D01*
X142875000Y-104775000D02*
X128905000Y-104775000D01*
%TO.C,SW8*%
X167005000Y-71755000D02*
X180975000Y-71755000D01*
X167005000Y-85725000D02*
X167005000Y-71755000D01*
X180975000Y-71755000D02*
X180975000Y-85725000D01*
X180975000Y-85725000D02*
X167005000Y-85725000D01*
%TO.C,SW20*%
X167005000Y-128905000D02*
X180975000Y-128905000D01*
X167005000Y-142875000D02*
X167005000Y-128905000D01*
X180975000Y-128905000D02*
X180975000Y-142875000D01*
X180975000Y-142875000D02*
X167005000Y-142875000D01*
%TO.C,SW19*%
X147955000Y-128905000D02*
X161925000Y-128905000D01*
X147955000Y-142875000D02*
X147955000Y-128905000D01*
X161925000Y-128905000D02*
X161925000Y-142875000D01*
X161925000Y-142875000D02*
X147955000Y-142875000D01*
%TO.C,SW9*%
X109855000Y-90805000D02*
X123825000Y-90805000D01*
X109855000Y-104775000D02*
X109855000Y-90805000D01*
X123825000Y-90805000D02*
X123825000Y-104775000D01*
X123825000Y-104775000D02*
X109855000Y-104775000D01*
%TD*%
M02*
