%TF.GenerationSoftware,KiCad,Pcbnew,8.0.5*%
%TF.CreationDate,2024-11-15T15:43:02-05:00*%
%TF.ProjectId,bytesized_macropad,62797465-7369-47a6-9564-5f6d6163726f,rev?*%
%TF.SameCoordinates,Original*%
%TF.FileFunction,Profile,NP*%
%FSLAX46Y46*%
G04 Gerber Fmt 4.6, Leading zero omitted, Abs format (unit mm)*
G04 Created by KiCad (PCBNEW 8.0.5) date 2024-11-15 15:43:02*
%MOMM*%
%LPD*%
G01*
G04 APERTURE LIST*
%TA.AperFunction,Profile*%
%ADD10C,0.200000*%
%TD*%
%TA.AperFunction,Profile*%
%ADD11C,0.100000*%
%TD*%
G04 APERTURE END LIST*
D10*
X182128348Y-30752514D02*
X182325351Y-30767171D01*
X182520680Y-30791434D01*
X182714006Y-30825167D01*
X182905003Y-30868234D01*
X183093342Y-30920499D01*
X183278696Y-30981826D01*
X183460736Y-31052080D01*
X183639134Y-31131125D01*
X183813564Y-31218825D01*
X183983697Y-31315044D01*
X184149205Y-31419646D01*
X184309760Y-31532495D01*
X184465034Y-31653457D01*
X184614700Y-31782394D01*
X184758430Y-31919172D01*
X184895207Y-32062901D01*
X185024144Y-32212567D01*
X185145106Y-32367841D01*
X185257955Y-32528396D01*
X185362557Y-32693904D01*
X185458775Y-32864036D01*
X185546475Y-33038465D01*
X185625519Y-33216864D01*
X185695773Y-33398904D01*
X185757100Y-33584257D01*
X185809364Y-33772596D01*
X185852431Y-33963592D01*
X185886164Y-34156918D01*
X185910426Y-34352247D01*
X185925084Y-34549249D01*
X185930000Y-34747598D01*
X185930000Y-142747602D01*
X185925084Y-142945950D01*
X185910426Y-143142953D01*
X185886164Y-143338281D01*
X185852431Y-143531607D01*
X185809364Y-143722603D01*
X185757100Y-143910942D01*
X185695773Y-144096295D01*
X185625519Y-144278335D01*
X185546475Y-144456733D01*
X185458775Y-144631163D01*
X185362557Y-144801296D01*
X185257955Y-144966804D01*
X185145106Y-145127359D01*
X185024144Y-145282634D01*
X184895207Y-145432301D01*
X184758430Y-145576032D01*
X184614700Y-145712810D01*
X184465034Y-145841749D01*
X184309760Y-145962710D01*
X184149205Y-146075560D01*
X183983697Y-146180162D01*
X183813564Y-146276381D01*
X183639134Y-146364080D01*
X183460736Y-146443124D01*
X183278696Y-146513377D01*
X183093342Y-146574704D01*
X182905003Y-146626968D01*
X182714006Y-146670034D01*
X182520680Y-146703766D01*
X182325351Y-146728029D01*
X182128348Y-146742686D01*
X181930000Y-146747602D01*
X94930000Y-146747602D01*
X94731651Y-146742686D01*
X94534648Y-146728029D01*
X94339320Y-146703766D01*
X94145994Y-146670034D01*
X93954997Y-146626968D01*
X93766659Y-146574704D01*
X93581305Y-146513377D01*
X93399266Y-146443124D01*
X93220867Y-146364080D01*
X93046438Y-146276381D01*
X92876305Y-146180162D01*
X92710798Y-146075560D01*
X92550243Y-145962710D01*
X92394969Y-145841749D01*
X92245303Y-145712810D01*
X92101573Y-145576032D01*
X91964796Y-145432301D01*
X91835859Y-145282634D01*
X91714897Y-145127359D01*
X91602048Y-144966804D01*
X91497445Y-144801296D01*
X91401226Y-144631163D01*
X91313527Y-144456733D01*
X91234482Y-144278335D01*
X91164228Y-144096295D01*
X91102901Y-143910942D01*
X91050636Y-143722603D01*
X91007569Y-143531607D01*
X90973836Y-143338281D01*
X90949573Y-143142953D01*
X90934916Y-142945950D01*
X90930000Y-142747602D01*
X90930000Y-34747598D01*
X90934916Y-34549249D01*
X90949573Y-34352247D01*
X90973836Y-34156918D01*
X91007569Y-33963592D01*
X91050636Y-33772596D01*
X91102901Y-33584257D01*
X91164228Y-33398904D01*
X91234482Y-33216864D01*
X91313527Y-33038465D01*
X91401226Y-32864036D01*
X91497445Y-32693904D01*
X91602048Y-32528396D01*
X91714897Y-32367841D01*
X91835859Y-32212567D01*
X91964796Y-32062901D01*
X92101573Y-31919172D01*
X92245303Y-31782394D01*
X92394969Y-31653457D01*
X92550243Y-31532495D01*
X92710798Y-31419646D01*
X92876305Y-31315044D01*
X93046438Y-31218825D01*
X93220867Y-31131125D01*
X93399266Y-31052080D01*
X93581305Y-30981826D01*
X93766659Y-30920499D01*
X93954997Y-30868234D01*
X94145994Y-30825167D01*
X94339320Y-30791434D01*
X94534648Y-30767171D01*
X94731651Y-30752514D01*
X94930000Y-30747598D01*
X181930000Y-30747598D01*
X182128348Y-30752514D01*
D11*
%TO.C,LED14*%
X153240001Y-122622841D02*
X153240001Y-121217157D01*
X154145548Y-120420000D02*
X155734453Y-120420000D01*
X155734452Y-123419999D02*
X154145548Y-123419999D01*
X156639999Y-121217157D02*
X156639999Y-122622841D01*
X153190516Y-121000279D02*
G75*
G02*
X153240001Y-121217157I-450505J-216876D01*
G01*
X153190516Y-121000279D02*
G75*
G02*
X153893289Y-120351700I450515J216878D01*
G01*
X153240001Y-122622842D02*
G75*
G02*
X153190516Y-122839719I-499990J-1D01*
G01*
X153893289Y-123488296D02*
G75*
G02*
X153190516Y-122839719I-252258J431700D01*
G01*
X153893290Y-123488298D02*
G75*
G02*
X154145548Y-123419999I252261J-431710D01*
G01*
X154145547Y-120419999D02*
G75*
G02*
X153893289Y-120351700I3J500009D01*
G01*
X155734452Y-123419999D02*
G75*
G02*
X155986711Y-123488298I-2J-500011D01*
G01*
X155986711Y-120351701D02*
G75*
G02*
X155734453Y-120420000I-252261J431711D01*
G01*
X155986711Y-120351701D02*
G75*
G02*
X156689483Y-121000279I252259J-431699D01*
G01*
X156639999Y-121217156D02*
G75*
G02*
X156689482Y-121000278I499941J16D01*
G01*
X156689484Y-122839718D02*
G75*
G02*
X155986711Y-123488298I-450514J-216880D01*
G01*
X156689484Y-122839719D02*
G75*
G02*
X156640009Y-122622841I449916J216719D01*
G01*
%TO.C,LED9*%
X115140001Y-103572841D02*
X115140001Y-102167157D01*
X116045548Y-101370000D02*
X117634453Y-101370000D01*
X117634452Y-104369999D02*
X116045548Y-104369999D01*
X118539999Y-102167157D02*
X118539999Y-103572841D01*
X115090516Y-101950279D02*
G75*
G02*
X115140001Y-102167157I-450505J-216876D01*
G01*
X115090516Y-101950279D02*
G75*
G02*
X115793289Y-101301700I450515J216878D01*
G01*
X115140001Y-103572842D02*
G75*
G02*
X115090516Y-103789719I-499990J-1D01*
G01*
X115793289Y-104438296D02*
G75*
G02*
X115090516Y-103789719I-252258J431700D01*
G01*
X115793290Y-104438298D02*
G75*
G02*
X116045548Y-104369999I252261J-431710D01*
G01*
X116045547Y-101369999D02*
G75*
G02*
X115793289Y-101301700I3J500009D01*
G01*
X117634452Y-104369999D02*
G75*
G02*
X117886711Y-104438298I-2J-500011D01*
G01*
X117886711Y-101301701D02*
G75*
G02*
X117634453Y-101370000I-252261J431711D01*
G01*
X117886711Y-101301701D02*
G75*
G02*
X118589483Y-101950279I252259J-431699D01*
G01*
X118539999Y-102167156D02*
G75*
G02*
X118589482Y-101950278I499941J16D01*
G01*
X118589484Y-103789718D02*
G75*
G02*
X117886711Y-104438298I-450514J-216880D01*
G01*
X118589484Y-103789719D02*
G75*
G02*
X118540009Y-103572841I449916J216719D01*
G01*
%TO.C,LED20*%
X172290001Y-141672841D02*
X172290001Y-140267157D01*
X173195548Y-139470000D02*
X174784453Y-139470000D01*
X174784452Y-142469999D02*
X173195548Y-142469999D01*
X175689999Y-140267157D02*
X175689999Y-141672841D01*
X172240516Y-140050279D02*
G75*
G02*
X172290001Y-140267157I-450505J-216876D01*
G01*
X172240516Y-140050279D02*
G75*
G02*
X172943289Y-139401700I450515J216878D01*
G01*
X172290001Y-141672842D02*
G75*
G02*
X172240516Y-141889719I-499990J-1D01*
G01*
X172943289Y-142538296D02*
G75*
G02*
X172240516Y-141889719I-252258J431700D01*
G01*
X172943290Y-142538298D02*
G75*
G02*
X173195548Y-142469999I252261J-431710D01*
G01*
X173195547Y-139469999D02*
G75*
G02*
X172943289Y-139401700I3J500009D01*
G01*
X174784452Y-142469999D02*
G75*
G02*
X175036711Y-142538298I-2J-500011D01*
G01*
X175036711Y-139401701D02*
G75*
G02*
X174784453Y-139470000I-252261J431711D01*
G01*
X175036711Y-139401701D02*
G75*
G02*
X175739483Y-140050279I252259J-431699D01*
G01*
X175689999Y-140267156D02*
G75*
G02*
X175739482Y-140050278I499941J16D01*
G01*
X175739484Y-141889718D02*
G75*
G02*
X175036711Y-142538298I-450514J-216880D01*
G01*
X175739484Y-141889719D02*
G75*
G02*
X175690009Y-141672841I449916J216719D01*
G01*
%TO.C,LED3*%
X153240001Y-65472841D02*
X153240001Y-64067157D01*
X154145548Y-63270000D02*
X155734453Y-63270000D01*
X155734452Y-66269999D02*
X154145548Y-66269999D01*
X156639999Y-64067157D02*
X156639999Y-65472841D01*
X153190516Y-63850279D02*
G75*
G02*
X153240001Y-64067157I-450505J-216876D01*
G01*
X153190516Y-63850279D02*
G75*
G02*
X153893289Y-63201700I450515J216878D01*
G01*
X153240001Y-65472842D02*
G75*
G02*
X153190516Y-65689719I-499990J-1D01*
G01*
X153893289Y-66338296D02*
G75*
G02*
X153190516Y-65689719I-252258J431700D01*
G01*
X153893290Y-66338298D02*
G75*
G02*
X154145548Y-66269999I252261J-431710D01*
G01*
X154145547Y-63269999D02*
G75*
G02*
X153893289Y-63201700I3J500009D01*
G01*
X155734452Y-66269999D02*
G75*
G02*
X155986711Y-66338298I-2J-500011D01*
G01*
X155986711Y-63201701D02*
G75*
G02*
X155734453Y-63270000I-252261J431711D01*
G01*
X155986711Y-63201701D02*
G75*
G02*
X156689483Y-63850279I252259J-431699D01*
G01*
X156639999Y-64067156D02*
G75*
G02*
X156689482Y-63850278I499941J16D01*
G01*
X156689484Y-65689718D02*
G75*
G02*
X155986711Y-66338298I-450514J-216880D01*
G01*
X156689484Y-65689719D02*
G75*
G02*
X156640009Y-65472841I449916J216719D01*
G01*
%TO.C,LED6*%
X153240001Y-84522841D02*
X153240001Y-83117157D01*
X154145548Y-82320000D02*
X155734453Y-82320000D01*
X155734452Y-85319999D02*
X154145548Y-85319999D01*
X156639999Y-83117157D02*
X156639999Y-84522841D01*
X153190516Y-82900279D02*
G75*
G02*
X153240001Y-83117157I-450505J-216876D01*
G01*
X153190516Y-82900279D02*
G75*
G02*
X153893289Y-82251700I450515J216878D01*
G01*
X153240001Y-84522842D02*
G75*
G02*
X153190516Y-84739719I-499990J-1D01*
G01*
X153893289Y-85388296D02*
G75*
G02*
X153190516Y-84739719I-252258J431700D01*
G01*
X153893290Y-85388298D02*
G75*
G02*
X154145548Y-85319999I252261J-431710D01*
G01*
X154145547Y-82319999D02*
G75*
G02*
X153893289Y-82251700I3J500009D01*
G01*
X155734452Y-85319999D02*
G75*
G02*
X155986711Y-85388298I-2J-500011D01*
G01*
X155986711Y-82251701D02*
G75*
G02*
X155734453Y-82320000I-252261J431711D01*
G01*
X155986711Y-82251701D02*
G75*
G02*
X156689483Y-82900279I252259J-431699D01*
G01*
X156639999Y-83117156D02*
G75*
G02*
X156689482Y-82900278I499941J16D01*
G01*
X156689484Y-84739718D02*
G75*
G02*
X155986711Y-85388298I-450514J-216880D01*
G01*
X156689484Y-84739719D02*
G75*
G02*
X156640009Y-84522841I449916J216719D01*
G01*
%TO.C,LED11*%
X153240001Y-103572841D02*
X153240001Y-102167157D01*
X154145548Y-101370000D02*
X155734453Y-101370000D01*
X155734452Y-104369999D02*
X154145548Y-104369999D01*
X156639999Y-102167157D02*
X156639999Y-103572841D01*
X153190516Y-101950279D02*
G75*
G02*
X153240001Y-102167157I-450505J-216876D01*
G01*
X153190516Y-101950279D02*
G75*
G02*
X153893289Y-101301700I450515J216878D01*
G01*
X153240001Y-103572842D02*
G75*
G02*
X153190516Y-103789719I-499990J-1D01*
G01*
X153893289Y-104438296D02*
G75*
G02*
X153190516Y-103789719I-252258J431700D01*
G01*
X153893290Y-104438298D02*
G75*
G02*
X154145548Y-104369999I252261J-431710D01*
G01*
X154145547Y-101369999D02*
G75*
G02*
X153893289Y-101301700I3J500009D01*
G01*
X155734452Y-104369999D02*
G75*
G02*
X155986711Y-104438298I-2J-500011D01*
G01*
X155986711Y-101301701D02*
G75*
G02*
X155734453Y-101370000I-252261J431711D01*
G01*
X155986711Y-101301701D02*
G75*
G02*
X156689483Y-101950279I252259J-431699D01*
G01*
X156639999Y-102167156D02*
G75*
G02*
X156689482Y-101950278I499941J16D01*
G01*
X156689484Y-103789718D02*
G75*
G02*
X155986711Y-104438298I-450514J-216880D01*
G01*
X156689484Y-103789719D02*
G75*
G02*
X156640009Y-103572841I449916J216719D01*
G01*
%TO.C,LED5*%
X172290001Y-84522841D02*
X172290001Y-83117157D01*
X173195548Y-82320000D02*
X174784453Y-82320000D01*
X174784452Y-85319999D02*
X173195548Y-85319999D01*
X175689999Y-83117157D02*
X175689999Y-84522841D01*
X172240516Y-82900279D02*
G75*
G02*
X172290001Y-83117157I-450505J-216876D01*
G01*
X172240516Y-82900279D02*
G75*
G02*
X172943289Y-82251700I450515J216878D01*
G01*
X172290001Y-84522842D02*
G75*
G02*
X172240516Y-84739719I-499990J-1D01*
G01*
X172943289Y-85388296D02*
G75*
G02*
X172240516Y-84739719I-252258J431700D01*
G01*
X172943290Y-85388298D02*
G75*
G02*
X173195548Y-85319999I252261J-431710D01*
G01*
X173195547Y-82319999D02*
G75*
G02*
X172943289Y-82251700I3J500009D01*
G01*
X174784452Y-85319999D02*
G75*
G02*
X175036711Y-85388298I-2J-500011D01*
G01*
X175036711Y-82251701D02*
G75*
G02*
X174784453Y-82320000I-252261J431711D01*
G01*
X175036711Y-82251701D02*
G75*
G02*
X175739483Y-82900279I252259J-431699D01*
G01*
X175689999Y-83117156D02*
G75*
G02*
X175739482Y-82900278I499941J16D01*
G01*
X175739484Y-84739718D02*
G75*
G02*
X175036711Y-85388298I-450514J-216880D01*
G01*
X175739484Y-84739719D02*
G75*
G02*
X175690009Y-84522841I449916J216719D01*
G01*
%TO.C,LED17*%
X115140001Y-141672841D02*
X115140001Y-140267157D01*
X116045548Y-139470000D02*
X117634453Y-139470000D01*
X117634452Y-142469999D02*
X116045548Y-142469999D01*
X118539999Y-140267157D02*
X118539999Y-141672841D01*
X115090516Y-140050279D02*
G75*
G02*
X115140001Y-140267157I-450505J-216876D01*
G01*
X115090516Y-140050279D02*
G75*
G02*
X115793289Y-139401700I450515J216878D01*
G01*
X115140001Y-141672842D02*
G75*
G02*
X115090516Y-141889719I-499990J-1D01*
G01*
X115793289Y-142538296D02*
G75*
G02*
X115090516Y-141889719I-252258J431700D01*
G01*
X115793290Y-142538298D02*
G75*
G02*
X116045548Y-142469999I252261J-431710D01*
G01*
X116045547Y-139469999D02*
G75*
G02*
X115793289Y-139401700I3J500009D01*
G01*
X117634452Y-142469999D02*
G75*
G02*
X117886711Y-142538298I-2J-500011D01*
G01*
X117886711Y-139401701D02*
G75*
G02*
X117634453Y-139470000I-252261J431711D01*
G01*
X117886711Y-139401701D02*
G75*
G02*
X118589483Y-140050279I252259J-431699D01*
G01*
X118539999Y-140267156D02*
G75*
G02*
X118589482Y-140050278I499941J16D01*
G01*
X118589484Y-141889718D02*
G75*
G02*
X117886711Y-142538298I-450514J-216880D01*
G01*
X118589484Y-141889719D02*
G75*
G02*
X118540009Y-141672841I449916J216719D01*
G01*
%TO.C,LED16*%
X115140001Y-122622841D02*
X115140001Y-121217157D01*
X116045548Y-120420000D02*
X117634453Y-120420000D01*
X117634452Y-123419999D02*
X116045548Y-123419999D01*
X118539999Y-121217157D02*
X118539999Y-122622841D01*
X115090516Y-121000279D02*
G75*
G02*
X115140001Y-121217157I-450505J-216876D01*
G01*
X115090516Y-121000279D02*
G75*
G02*
X115793289Y-120351700I450515J216878D01*
G01*
X115140001Y-122622842D02*
G75*
G02*
X115090516Y-122839719I-499990J-1D01*
G01*
X115793289Y-123488296D02*
G75*
G02*
X115090516Y-122839719I-252258J431700D01*
G01*
X115793290Y-123488298D02*
G75*
G02*
X116045548Y-123419999I252261J-431710D01*
G01*
X116045547Y-120419999D02*
G75*
G02*
X115793289Y-120351700I3J500009D01*
G01*
X117634452Y-123419999D02*
G75*
G02*
X117886711Y-123488298I-2J-500011D01*
G01*
X117886711Y-120351701D02*
G75*
G02*
X117634453Y-120420000I-252261J431711D01*
G01*
X117886711Y-120351701D02*
G75*
G02*
X118589483Y-121000279I252259J-431699D01*
G01*
X118539999Y-121217156D02*
G75*
G02*
X118589482Y-121000278I499941J16D01*
G01*
X118589484Y-122839718D02*
G75*
G02*
X117886711Y-123488298I-450514J-216880D01*
G01*
X118589484Y-122839719D02*
G75*
G02*
X118540009Y-122622841I449916J216719D01*
G01*
%TO.C,LED13*%
X172290001Y-122622841D02*
X172290001Y-121217157D01*
X173195548Y-120420000D02*
X174784453Y-120420000D01*
X174784452Y-123419999D02*
X173195548Y-123419999D01*
X175689999Y-121217157D02*
X175689999Y-122622841D01*
X172240516Y-121000279D02*
G75*
G02*
X172290001Y-121217157I-450505J-216876D01*
G01*
X172240516Y-121000279D02*
G75*
G02*
X172943289Y-120351700I450515J216878D01*
G01*
X172290001Y-122622842D02*
G75*
G02*
X172240516Y-122839719I-499990J-1D01*
G01*
X172943289Y-123488296D02*
G75*
G02*
X172240516Y-122839719I-252258J431700D01*
G01*
X172943290Y-123488298D02*
G75*
G02*
X173195548Y-123419999I252261J-431710D01*
G01*
X173195547Y-120419999D02*
G75*
G02*
X172943289Y-120351700I3J500009D01*
G01*
X174784452Y-123419999D02*
G75*
G02*
X175036711Y-123488298I-2J-500011D01*
G01*
X175036711Y-120351701D02*
G75*
G02*
X174784453Y-120420000I-252261J431711D01*
G01*
X175036711Y-120351701D02*
G75*
G02*
X175739483Y-121000279I252259J-431699D01*
G01*
X175689999Y-121217156D02*
G75*
G02*
X175739482Y-121000278I499941J16D01*
G01*
X175739484Y-122839718D02*
G75*
G02*
X175036711Y-123488298I-450514J-216880D01*
G01*
X175739484Y-122839719D02*
G75*
G02*
X175690009Y-122622841I449916J216719D01*
G01*
%TO.C,LED1*%
X115140001Y-65472841D02*
X115140001Y-64067157D01*
X116045548Y-63270000D02*
X117634453Y-63270000D01*
X117634452Y-66269999D02*
X116045548Y-66269999D01*
X118539999Y-64067157D02*
X118539999Y-65472841D01*
X115090516Y-63850279D02*
G75*
G02*
X115140001Y-64067157I-450505J-216876D01*
G01*
X115090516Y-63850279D02*
G75*
G02*
X115793289Y-63201700I450515J216878D01*
G01*
X115140001Y-65472842D02*
G75*
G02*
X115090516Y-65689719I-499990J-1D01*
G01*
X115793289Y-66338296D02*
G75*
G02*
X115090516Y-65689719I-252258J431700D01*
G01*
X115793290Y-66338298D02*
G75*
G02*
X116045548Y-66269999I252261J-431710D01*
G01*
X116045547Y-63269999D02*
G75*
G02*
X115793289Y-63201700I3J500009D01*
G01*
X117634452Y-66269999D02*
G75*
G02*
X117886711Y-66338298I-2J-500011D01*
G01*
X117886711Y-63201701D02*
G75*
G02*
X117634453Y-63270000I-252261J431711D01*
G01*
X117886711Y-63201701D02*
G75*
G02*
X118589483Y-63850279I252259J-431699D01*
G01*
X118539999Y-64067156D02*
G75*
G02*
X118589482Y-63850278I499941J16D01*
G01*
X118589484Y-65689718D02*
G75*
G02*
X117886711Y-66338298I-450514J-216880D01*
G01*
X118589484Y-65689719D02*
G75*
G02*
X118540009Y-65472841I449916J216719D01*
G01*
%TO.C,LED2*%
X134190001Y-65472841D02*
X134190001Y-64067157D01*
X135095548Y-63270000D02*
X136684453Y-63270000D01*
X136684452Y-66269999D02*
X135095548Y-66269999D01*
X137589999Y-64067157D02*
X137589999Y-65472841D01*
X134140516Y-63850279D02*
G75*
G02*
X134190001Y-64067157I-450505J-216876D01*
G01*
X134140516Y-63850279D02*
G75*
G02*
X134843289Y-63201700I450515J216878D01*
G01*
X134190001Y-65472842D02*
G75*
G02*
X134140516Y-65689719I-499990J-1D01*
G01*
X134843289Y-66338296D02*
G75*
G02*
X134140516Y-65689719I-252258J431700D01*
G01*
X134843290Y-66338298D02*
G75*
G02*
X135095548Y-66269999I252261J-431710D01*
G01*
X135095547Y-63269999D02*
G75*
G02*
X134843289Y-63201700I3J500009D01*
G01*
X136684452Y-66269999D02*
G75*
G02*
X136936711Y-66338298I-2J-500011D01*
G01*
X136936711Y-63201701D02*
G75*
G02*
X136684453Y-63270000I-252261J431711D01*
G01*
X136936711Y-63201701D02*
G75*
G02*
X137639483Y-63850279I252259J-431699D01*
G01*
X137589999Y-64067156D02*
G75*
G02*
X137639482Y-63850278I499941J16D01*
G01*
X137639484Y-65689718D02*
G75*
G02*
X136936711Y-66338298I-450514J-216880D01*
G01*
X137639484Y-65689719D02*
G75*
G02*
X137590009Y-65472841I449916J216719D01*
G01*
%TO.C,LED4*%
X172290001Y-65472841D02*
X172290001Y-64067157D01*
X173195548Y-63270000D02*
X174784453Y-63270000D01*
X174784452Y-66269999D02*
X173195548Y-66269999D01*
X175689999Y-64067157D02*
X175689999Y-65472841D01*
X172240516Y-63850279D02*
G75*
G02*
X172290001Y-64067157I-450505J-216876D01*
G01*
X172240516Y-63850279D02*
G75*
G02*
X172943289Y-63201700I450515J216878D01*
G01*
X172290001Y-65472842D02*
G75*
G02*
X172240516Y-65689719I-499990J-1D01*
G01*
X172943289Y-66338296D02*
G75*
G02*
X172240516Y-65689719I-252258J431700D01*
G01*
X172943290Y-66338298D02*
G75*
G02*
X173195548Y-66269999I252261J-431710D01*
G01*
X173195547Y-63269999D02*
G75*
G02*
X172943289Y-63201700I3J500009D01*
G01*
X174784452Y-66269999D02*
G75*
G02*
X175036711Y-66338298I-2J-500011D01*
G01*
X175036711Y-63201701D02*
G75*
G02*
X174784453Y-63270000I-252261J431711D01*
G01*
X175036711Y-63201701D02*
G75*
G02*
X175739483Y-63850279I252259J-431699D01*
G01*
X175689999Y-64067156D02*
G75*
G02*
X175739482Y-63850278I499941J16D01*
G01*
X175739484Y-65689718D02*
G75*
G02*
X175036711Y-66338298I-450514J-216880D01*
G01*
X175739484Y-65689719D02*
G75*
G02*
X175690009Y-65472841I449916J216719D01*
G01*
%TO.C,LED10*%
X134190001Y-103572841D02*
X134190001Y-102167157D01*
X135095548Y-101370000D02*
X136684453Y-101370000D01*
X136684452Y-104369999D02*
X135095548Y-104369999D01*
X137589999Y-102167157D02*
X137589999Y-103572841D01*
X134140516Y-101950279D02*
G75*
G02*
X134190001Y-102167157I-450505J-216876D01*
G01*
X134140516Y-101950279D02*
G75*
G02*
X134843289Y-101301700I450515J216878D01*
G01*
X134190001Y-103572842D02*
G75*
G02*
X134140516Y-103789719I-499990J-1D01*
G01*
X134843289Y-104438296D02*
G75*
G02*
X134140516Y-103789719I-252258J431700D01*
G01*
X134843290Y-104438298D02*
G75*
G02*
X135095548Y-104369999I252261J-431710D01*
G01*
X135095547Y-101369999D02*
G75*
G02*
X134843289Y-101301700I3J500009D01*
G01*
X136684452Y-104369999D02*
G75*
G02*
X136936711Y-104438298I-2J-500011D01*
G01*
X136936711Y-101301701D02*
G75*
G02*
X136684453Y-101370000I-252261J431711D01*
G01*
X136936711Y-101301701D02*
G75*
G02*
X137639483Y-101950279I252259J-431699D01*
G01*
X137589999Y-102167156D02*
G75*
G02*
X137639482Y-101950278I499941J16D01*
G01*
X137639484Y-103789718D02*
G75*
G02*
X136936711Y-104438298I-450514J-216880D01*
G01*
X137639484Y-103789719D02*
G75*
G02*
X137590009Y-103572841I449916J216719D01*
G01*
%TO.C,LED21*%
X153240001Y-141672841D02*
X153240001Y-140267157D01*
X154145548Y-139470000D02*
X155734453Y-139470000D01*
X155734452Y-142469999D02*
X154145548Y-142469999D01*
X156639999Y-140267157D02*
X156639999Y-141672841D01*
X153190516Y-140050279D02*
G75*
G02*
X153240001Y-140267157I-450505J-216876D01*
G01*
X153190516Y-140050279D02*
G75*
G02*
X153893289Y-139401700I450515J216878D01*
G01*
X153240001Y-141672842D02*
G75*
G02*
X153190516Y-141889719I-499990J-1D01*
G01*
X153893289Y-142538296D02*
G75*
G02*
X153190516Y-141889719I-252258J431700D01*
G01*
X153893290Y-142538298D02*
G75*
G02*
X154145548Y-142469999I252261J-431710D01*
G01*
X154145547Y-139469999D02*
G75*
G02*
X153893289Y-139401700I3J500009D01*
G01*
X155734452Y-142469999D02*
G75*
G02*
X155986711Y-142538298I-2J-500011D01*
G01*
X155986711Y-139401701D02*
G75*
G02*
X155734453Y-139470000I-252261J431711D01*
G01*
X155986711Y-139401701D02*
G75*
G02*
X156689483Y-140050279I252259J-431699D01*
G01*
X156639999Y-140267156D02*
G75*
G02*
X156689482Y-140050278I499941J16D01*
G01*
X156689484Y-141889718D02*
G75*
G02*
X155986711Y-142538298I-450514J-216880D01*
G01*
X156689484Y-141889719D02*
G75*
G02*
X156640009Y-141672841I449916J216719D01*
G01*
%TO.C,LED8*%
X115140001Y-84522841D02*
X115140001Y-83117157D01*
X116045548Y-82320000D02*
X117634453Y-82320000D01*
X117634452Y-85319999D02*
X116045548Y-85319999D01*
X118539999Y-83117157D02*
X118539999Y-84522841D01*
X115090516Y-82900279D02*
G75*
G02*
X115140001Y-83117157I-450505J-216876D01*
G01*
X115090516Y-82900279D02*
G75*
G02*
X115793289Y-82251700I450515J216878D01*
G01*
X115140001Y-84522842D02*
G75*
G02*
X115090516Y-84739719I-499990J-1D01*
G01*
X115793289Y-85388296D02*
G75*
G02*
X115090516Y-84739719I-252258J431700D01*
G01*
X115793290Y-85388298D02*
G75*
G02*
X116045548Y-85319999I252261J-431710D01*
G01*
X116045547Y-82319999D02*
G75*
G02*
X115793289Y-82251700I3J500009D01*
G01*
X117634452Y-85319999D02*
G75*
G02*
X117886711Y-85388298I-2J-500011D01*
G01*
X117886711Y-82251701D02*
G75*
G02*
X117634453Y-82320000I-252261J431711D01*
G01*
X117886711Y-82251701D02*
G75*
G02*
X118589483Y-82900279I252259J-431699D01*
G01*
X118539999Y-83117156D02*
G75*
G02*
X118589482Y-82900278I499941J16D01*
G01*
X118589484Y-84739718D02*
G75*
G02*
X117886711Y-85388298I-450514J-216880D01*
G01*
X118589484Y-84739719D02*
G75*
G02*
X118540009Y-84522841I449916J216719D01*
G01*
%TO.C,LED18*%
X134190001Y-141672841D02*
X134190001Y-140267157D01*
X135095548Y-139470000D02*
X136684453Y-139470000D01*
X136684452Y-142469999D02*
X135095548Y-142469999D01*
X137589999Y-140267157D02*
X137589999Y-141672841D01*
X134140516Y-140050279D02*
G75*
G02*
X134190001Y-140267157I-450505J-216876D01*
G01*
X134140516Y-140050279D02*
G75*
G02*
X134843289Y-139401700I450515J216878D01*
G01*
X134190001Y-141672842D02*
G75*
G02*
X134140516Y-141889719I-499990J-1D01*
G01*
X134843289Y-142538296D02*
G75*
G02*
X134140516Y-141889719I-252258J431700D01*
G01*
X134843290Y-142538298D02*
G75*
G02*
X135095548Y-142469999I252261J-431710D01*
G01*
X135095547Y-139469999D02*
G75*
G02*
X134843289Y-139401700I3J500009D01*
G01*
X136684452Y-142469999D02*
G75*
G02*
X136936711Y-142538298I-2J-500011D01*
G01*
X136936711Y-139401701D02*
G75*
G02*
X136684453Y-139470000I-252261J431711D01*
G01*
X136936711Y-139401701D02*
G75*
G02*
X137639483Y-140050279I252259J-431699D01*
G01*
X137589999Y-140267156D02*
G75*
G02*
X137639482Y-140050278I499941J16D01*
G01*
X137639484Y-141889718D02*
G75*
G02*
X136936711Y-142538298I-450514J-216880D01*
G01*
X137639484Y-141889719D02*
G75*
G02*
X137590009Y-141672841I449916J216719D01*
G01*
%TO.C,LED7*%
X134190001Y-84522841D02*
X134190001Y-83117157D01*
X135095548Y-82320000D02*
X136684453Y-82320000D01*
X136684452Y-85319999D02*
X135095548Y-85319999D01*
X137589999Y-83117157D02*
X137589999Y-84522841D01*
X134140516Y-82900279D02*
G75*
G02*
X134190001Y-83117157I-450505J-216876D01*
G01*
X134140516Y-82900279D02*
G75*
G02*
X134843289Y-82251700I450515J216878D01*
G01*
X134190001Y-84522842D02*
G75*
G02*
X134140516Y-84739719I-499990J-1D01*
G01*
X134843289Y-85388296D02*
G75*
G02*
X134140516Y-84739719I-252258J431700D01*
G01*
X134843290Y-85388298D02*
G75*
G02*
X135095548Y-85319999I252261J-431710D01*
G01*
X135095547Y-82319999D02*
G75*
G02*
X134843289Y-82251700I3J500009D01*
G01*
X136684452Y-85319999D02*
G75*
G02*
X136936711Y-85388298I-2J-500011D01*
G01*
X136936711Y-82251701D02*
G75*
G02*
X136684453Y-82320000I-252261J431711D01*
G01*
X136936711Y-82251701D02*
G75*
G02*
X137639483Y-82900279I252259J-431699D01*
G01*
X137589999Y-83117156D02*
G75*
G02*
X137639482Y-82900278I499941J16D01*
G01*
X137639484Y-84739718D02*
G75*
G02*
X136936711Y-85388298I-450514J-216880D01*
G01*
X137639484Y-84739719D02*
G75*
G02*
X137590009Y-84522841I449916J216719D01*
G01*
%TO.C,LED12*%
X172290001Y-103572841D02*
X172290001Y-102167157D01*
X173195548Y-101370000D02*
X174784453Y-101370000D01*
X174784452Y-104369999D02*
X173195548Y-104369999D01*
X175689999Y-102167157D02*
X175689999Y-103572841D01*
X172240516Y-101950279D02*
G75*
G02*
X172290001Y-102167157I-450505J-216876D01*
G01*
X172240516Y-101950279D02*
G75*
G02*
X172943289Y-101301700I450515J216878D01*
G01*
X172290001Y-103572842D02*
G75*
G02*
X172240516Y-103789719I-499990J-1D01*
G01*
X172943289Y-104438296D02*
G75*
G02*
X172240516Y-103789719I-252258J431700D01*
G01*
X172943290Y-104438298D02*
G75*
G02*
X173195548Y-104369999I252261J-431710D01*
G01*
X173195547Y-101369999D02*
G75*
G02*
X172943289Y-101301700I3J500009D01*
G01*
X174784452Y-104369999D02*
G75*
G02*
X175036711Y-104438298I-2J-500011D01*
G01*
X175036711Y-101301701D02*
G75*
G02*
X174784453Y-101370000I-252261J431711D01*
G01*
X175036711Y-101301701D02*
G75*
G02*
X175739483Y-101950279I252259J-431699D01*
G01*
X175689999Y-102167156D02*
G75*
G02*
X175739482Y-101950278I499941J16D01*
G01*
X175739484Y-103789718D02*
G75*
G02*
X175036711Y-104438298I-450514J-216880D01*
G01*
X175739484Y-103789719D02*
G75*
G02*
X175690009Y-103572841I449916J216719D01*
G01*
%TO.C,LED15*%
X134190001Y-122622841D02*
X134190001Y-121217157D01*
X135095548Y-120420000D02*
X136684453Y-120420000D01*
X136684452Y-123419999D02*
X135095548Y-123419999D01*
X137589999Y-121217157D02*
X137589999Y-122622841D01*
X134140516Y-121000279D02*
G75*
G02*
X134190001Y-121217157I-450505J-216876D01*
G01*
X134140516Y-121000279D02*
G75*
G02*
X134843289Y-120351700I450515J216878D01*
G01*
X134190001Y-122622842D02*
G75*
G02*
X134140516Y-122839719I-499990J-1D01*
G01*
X134843289Y-123488296D02*
G75*
G02*
X134140516Y-122839719I-252258J431700D01*
G01*
X134843290Y-123488298D02*
G75*
G02*
X135095548Y-123419999I252261J-431710D01*
G01*
X135095547Y-120419999D02*
G75*
G02*
X134843289Y-120351700I3J500009D01*
G01*
X136684452Y-123419999D02*
G75*
G02*
X136936711Y-123488298I-2J-500011D01*
G01*
X136936711Y-120351701D02*
G75*
G02*
X136684453Y-120420000I-252261J431711D01*
G01*
X136936711Y-120351701D02*
G75*
G02*
X137639483Y-121000279I252259J-431699D01*
G01*
X137589999Y-121217156D02*
G75*
G02*
X137639482Y-121000278I499941J16D01*
G01*
X137639484Y-122839718D02*
G75*
G02*
X136936711Y-123488298I-450514J-216880D01*
G01*
X137639484Y-122839719D02*
G75*
G02*
X137590009Y-122622841I449916J216719D01*
G01*
%TD*%
M02*
