%TF.GenerationSoftware,KiCad,Pcbnew,8.0.5*%
%TF.CreationDate,2024-11-15T15:43:01-05:00*%
%TF.ProjectId,bytesized_macropad,62797465-7369-47a6-9564-5f6d6163726f,rev?*%
%TF.SameCoordinates,Original*%
%TF.FileFunction,Paste,Bot*%
%TF.FilePolarity,Positive*%
%FSLAX46Y46*%
G04 Gerber Fmt 4.6, Leading zero omitted, Abs format (unit mm)*
G04 Created by KiCad (PCBNEW 8.0.5) date 2024-11-15 15:43:01*
%MOMM*%
%LPD*%
G01*
G04 APERTURE LIST*
G04 Aperture macros list*
%AMRoundRect*
0 Rectangle with rounded corners*
0 $1 Rounding radius*
0 $2 $3 $4 $5 $6 $7 $8 $9 X,Y pos of 4 corners*
0 Add a 4 corners polygon primitive as box body*
4,1,4,$2,$3,$4,$5,$6,$7,$8,$9,$2,$3,0*
0 Add four circle primitives for the rounded corners*
1,1,$1+$1,$2,$3*
1,1,$1+$1,$4,$5*
1,1,$1+$1,$6,$7*
1,1,$1+$1,$8,$9*
0 Add four rect primitives between the rounded corners*
20,1,$1+$1,$2,$3,$4,$5,0*
20,1,$1+$1,$4,$5,$6,$7,0*
20,1,$1+$1,$6,$7,$8,$9,0*
20,1,$1+$1,$8,$9,$2,$3,0*%
G04 Aperture macros list end*
%ADD10RoundRect,0.237500X0.250000X0.237500X-0.250000X0.237500X-0.250000X-0.237500X0.250000X-0.237500X0*%
%ADD11RoundRect,0.237500X-0.237500X0.250000X-0.237500X-0.250000X0.237500X-0.250000X0.237500X0.250000X0*%
%ADD12RoundRect,0.082000X-0.718000X0.328000X-0.718000X-0.328000X0.718000X-0.328000X0.718000X0.328000X0*%
%ADD13R,1.295400X1.905000*%
%ADD14R,0.660400X1.549400*%
%ADD15RoundRect,0.237500X0.237500X-0.300000X0.237500X0.300000X-0.237500X0.300000X-0.237500X-0.300000X0*%
%ADD16RoundRect,0.225000X-0.225000X-0.375000X0.225000X-0.375000X0.225000X0.375000X-0.225000X0.375000X0*%
%ADD17RoundRect,0.225000X0.375000X-0.225000X0.375000X0.225000X-0.375000X0.225000X-0.375000X-0.225000X0*%
%ADD18RoundRect,0.247500X0.247500X0.247500X-0.247500X0.247500X-0.247500X-0.247500X0.247500X-0.247500X0*%
%ADD19RoundRect,0.075000X0.362500X0.075000X-0.362500X0.075000X-0.362500X-0.075000X0.362500X-0.075000X0*%
%ADD20RoundRect,0.075000X0.075000X0.362500X-0.075000X0.362500X-0.075000X-0.362500X0.075000X-0.362500X0*%
%ADD21RoundRect,0.237500X0.237500X-0.250000X0.237500X0.250000X-0.237500X0.250000X-0.237500X-0.250000X0*%
%ADD22RoundRect,0.237500X-0.250000X-0.237500X0.250000X-0.237500X0.250000X0.237500X-0.250000X0.237500X0*%
%ADD23RoundRect,0.150000X0.512500X0.150000X-0.512500X0.150000X-0.512500X-0.150000X0.512500X-0.150000X0*%
%ADD24RoundRect,0.500000X0.875000X0.500000X-0.875000X0.500000X-0.875000X-0.500000X0.875000X-0.500000X0*%
%ADD25RoundRect,0.237500X-0.237500X0.300000X-0.237500X-0.300000X0.237500X-0.300000X0.237500X0.300000X0*%
G04 APERTURE END LIST*
D10*
%TO.C,R17*%
X111349800Y-50800000D03*
X109524800Y-50800000D03*
%TD*%
%TO.C,R16*%
X155397200Y-144496800D03*
X153572200Y-144496800D03*
%TD*%
D11*
%TO.C,R15*%
X154482800Y-125454400D03*
X154482800Y-127279400D03*
%TD*%
%TO.C,R14*%
X154762200Y-106353600D03*
X154762200Y-108178600D03*
%TD*%
%TO.C,R13*%
X154762200Y-87329000D03*
X154762200Y-89154000D03*
%TD*%
%TO.C,R12*%
X154711400Y-68304400D03*
X154711400Y-70129400D03*
%TD*%
D12*
%TO.C,LED14*%
X152340000Y-121169999D03*
X152340000Y-122669999D03*
X157540000Y-122669999D03*
X157540000Y-121169999D03*
%TD*%
%TO.C,LED9*%
X114240000Y-102119999D03*
X114240000Y-103619999D03*
X119440000Y-103619999D03*
X119440000Y-102119999D03*
%TD*%
%TO.C,LED20*%
X171390000Y-140219999D03*
X171390000Y-141719999D03*
X176590000Y-141719999D03*
X176590000Y-140219999D03*
%TD*%
%TO.C,LED3*%
X152340000Y-64019999D03*
X152340000Y-65519999D03*
X157540000Y-65519999D03*
X157540000Y-64019999D03*
%TD*%
%TO.C,LED6*%
X152340000Y-83069999D03*
X152340000Y-84569999D03*
X157540000Y-84569999D03*
X157540000Y-83069999D03*
%TD*%
%TO.C,LED11*%
X152340000Y-102119999D03*
X152340000Y-103619999D03*
X157540000Y-103619999D03*
X157540000Y-102119999D03*
%TD*%
%TO.C,LED5*%
X171390000Y-83069999D03*
X171390000Y-84569999D03*
X176590000Y-84569999D03*
X176590000Y-83069999D03*
%TD*%
D13*
%TO.C,J1*%
X93220002Y-47763199D03*
X98820000Y-47763199D03*
D14*
X97520001Y-51638200D03*
X96520000Y-51638200D03*
X95520002Y-51638200D03*
X94520001Y-51638200D03*
%TD*%
D12*
%TO.C,LED17*%
X114240000Y-140219999D03*
X114240000Y-141719999D03*
X119440000Y-141719999D03*
X119440000Y-140219999D03*
%TD*%
%TO.C,LED16*%
X114240000Y-121169999D03*
X114240000Y-122669999D03*
X119440000Y-122669999D03*
X119440000Y-121169999D03*
%TD*%
%TO.C,LED13*%
X171390000Y-121169999D03*
X171390000Y-122669999D03*
X176590000Y-122669999D03*
X176590000Y-121169999D03*
%TD*%
%TO.C,LED1*%
X114240000Y-64019999D03*
X114240000Y-65519999D03*
X119440000Y-65519999D03*
X119440000Y-64019999D03*
%TD*%
%TO.C,LED2*%
X133290000Y-64019999D03*
X133290000Y-65519999D03*
X138490000Y-65519999D03*
X138490000Y-64019999D03*
%TD*%
%TO.C,LED4*%
X171390000Y-64019999D03*
X171390000Y-65519999D03*
X176590000Y-65519999D03*
X176590000Y-64019999D03*
%TD*%
%TO.C,LED10*%
X133290000Y-102119999D03*
X133290000Y-103619999D03*
X138490000Y-103619999D03*
X138490000Y-102119999D03*
%TD*%
%TO.C,LED21*%
X152340000Y-140219999D03*
X152340000Y-141719999D03*
X157540000Y-141719999D03*
X157540000Y-140219999D03*
%TD*%
%TO.C,LED8*%
X114240000Y-83069999D03*
X114240000Y-84569999D03*
X119440000Y-84569999D03*
X119440000Y-83069999D03*
%TD*%
%TO.C,LED18*%
X133290000Y-140219999D03*
X133290000Y-141719999D03*
X138490000Y-141719999D03*
X138490000Y-140219999D03*
%TD*%
%TO.C,LED7*%
X133290000Y-83069999D03*
X133290000Y-84569999D03*
X138490000Y-84569999D03*
X138490000Y-83069999D03*
%TD*%
%TO.C,LED12*%
X171390000Y-102119999D03*
X171390000Y-103619999D03*
X176590000Y-103619999D03*
X176590000Y-102119999D03*
%TD*%
%TO.C,LED15*%
X133290000Y-121169999D03*
X133290000Y-122669999D03*
X138490000Y-122669999D03*
X138490000Y-121169999D03*
%TD*%
D15*
%TO.C,C8*%
X167640000Y-85037000D03*
X167640000Y-83312000D03*
%TD*%
D16*
%TO.C,D20*%
X172086000Y-144526000D03*
X175386000Y-144526000D03*
%TD*%
D17*
%TO.C,D15*%
X163322000Y-125474000D03*
X163322000Y-122174000D03*
%TD*%
%TO.C,D8*%
X182372000Y-87374000D03*
X182372000Y-84074000D03*
%TD*%
D15*
%TO.C,C22*%
X161798000Y-39978500D03*
X161798000Y-38253500D03*
%TD*%
%TO.C,C24*%
X148590000Y-142187000D03*
X148590000Y-140462000D03*
%TD*%
%TO.C,C13*%
X110490000Y-104087000D03*
X110490000Y-102362000D03*
%TD*%
D18*
%TO.C,U2*%
X100591500Y-72980000D03*
X100591500Y-71760000D03*
X99371500Y-72980000D03*
X99371500Y-71760000D03*
D19*
X101919000Y-71120000D03*
X101919000Y-71620000D03*
X101919000Y-72120000D03*
X101919000Y-72620000D03*
X101919000Y-73120000D03*
X101919000Y-73620000D03*
D20*
X101231500Y-74307500D03*
X100731500Y-74307500D03*
X100231500Y-74307500D03*
X99731500Y-74307500D03*
X99231500Y-74307500D03*
X98731500Y-74307500D03*
D19*
X98044000Y-73620000D03*
X98044000Y-73120000D03*
X98044000Y-72620000D03*
X98044000Y-72120000D03*
X98044000Y-71620000D03*
X98044000Y-71120000D03*
D20*
X98731500Y-70432500D03*
X99231500Y-70432500D03*
X99731500Y-70432500D03*
X100231500Y-70432500D03*
X100731500Y-70432500D03*
X101231500Y-70432500D03*
%TD*%
D15*
%TO.C,C15*%
X129540000Y-85037000D03*
X129540000Y-83312000D03*
%TD*%
D17*
%TO.C,D17*%
X125222000Y-144524000D03*
X125222000Y-141224000D03*
%TD*%
D15*
%TO.C,C11*%
X148590000Y-104087000D03*
X148590000Y-102362000D03*
%TD*%
%TO.C,C12*%
X129540000Y-104087000D03*
X129540000Y-102362000D03*
%TD*%
%TO.C,C16*%
X167640000Y-123137000D03*
X167640000Y-121412000D03*
%TD*%
D17*
%TO.C,D14*%
X144272000Y-125474000D03*
X144272000Y-122174000D03*
%TD*%
%TO.C,D18*%
X144272000Y-144524000D03*
X144272000Y-141224000D03*
%TD*%
%TO.C,D9*%
X125222000Y-106424000D03*
X125222000Y-103124000D03*
%TD*%
D15*
%TO.C,C6*%
X148590000Y-65987000D03*
X148590000Y-64262000D03*
%TD*%
%TO.C,C20*%
X110490000Y-142187000D03*
X110490000Y-140462000D03*
%TD*%
D17*
%TO.C,D22*%
X164084000Y-49402000D03*
X164084000Y-46102000D03*
%TD*%
D21*
%TO.C,R9*%
X158750000Y-40028500D03*
X158750000Y-38203500D03*
%TD*%
D11*
%TO.C,R4*%
X103886000Y-38307000D03*
X103886000Y-40132000D03*
%TD*%
D15*
%TO.C,C19*%
X110490000Y-123137000D03*
X110490000Y-121412000D03*
%TD*%
%TO.C,C21*%
X129540000Y-142187000D03*
X129540000Y-140462000D03*
%TD*%
D17*
%TO.C,D6*%
X144272000Y-87374000D03*
X144272000Y-84074000D03*
%TD*%
%TO.C,D7*%
X163322000Y-87374000D03*
X163322000Y-84074000D03*
%TD*%
D15*
%TO.C,C9*%
X148590000Y-85037000D03*
X148590000Y-83312000D03*
%TD*%
D17*
%TO.C,D12*%
X182372000Y-106424000D03*
X182372000Y-103124000D03*
%TD*%
D15*
%TO.C,C3*%
X110490000Y-65987000D03*
X110490000Y-64262000D03*
%TD*%
D22*
%TO.C,R2*%
X158195000Y-46228000D03*
X160020000Y-46228000D03*
%TD*%
D17*
%TO.C,D5*%
X125222000Y-87374000D03*
X125222000Y-84074000D03*
%TD*%
D15*
%TO.C,C14*%
X110490000Y-85037000D03*
X110490000Y-83312000D03*
%TD*%
%TO.C,C25*%
X161798000Y-43280500D03*
X161798000Y-41555500D03*
%TD*%
D17*
%TO.C,D1*%
X125222000Y-68324000D03*
X125222000Y-65024000D03*
%TD*%
D15*
%TO.C,C7*%
X167640000Y-65987000D03*
X167640000Y-64262000D03*
%TD*%
D17*
%TO.C,D3*%
X163322000Y-68324000D03*
X163322000Y-65024000D03*
%TD*%
D22*
%TO.C,R3*%
X158195000Y-47752000D03*
X160020000Y-47752000D03*
%TD*%
D11*
%TO.C,R5*%
X102362000Y-41609000D03*
X102362000Y-43434000D03*
%TD*%
D15*
%TO.C,C18*%
X129540000Y-123137000D03*
X129540000Y-121412000D03*
%TD*%
D23*
%TO.C,U3*%
X127497000Y-52202000D03*
X127497000Y-53152000D03*
X127497000Y-54102000D03*
X125222000Y-54102000D03*
X125222000Y-52202000D03*
%TD*%
D17*
%TO.C,D11*%
X163322000Y-106424000D03*
X163322000Y-103124000D03*
%TD*%
%TO.C,D16*%
X182372000Y-125474000D03*
X182372000Y-122174000D03*
%TD*%
D15*
%TO.C,C10*%
X167640000Y-104087000D03*
X167640000Y-102362000D03*
%TD*%
%TO.C,C5*%
X129540000Y-65987000D03*
X129540000Y-64262000D03*
%TD*%
D24*
%TO.C,U1*%
X152400000Y-34290000D03*
X152400000Y-36830000D03*
X152400000Y-39370000D03*
X152400000Y-41910000D03*
X152400000Y-44450000D03*
X152400000Y-46990000D03*
X152400000Y-49530000D03*
X136235000Y-49530000D03*
X136235000Y-46990000D03*
X136235000Y-44450000D03*
X136235000Y-41910000D03*
X136235000Y-39370000D03*
X136235000Y-36830000D03*
X136235000Y-34290000D03*
%TD*%
D15*
%TO.C,C4*%
X105410000Y-40082000D03*
X105410000Y-38357000D03*
%TD*%
D17*
%TO.C,D13*%
X125222000Y-125474000D03*
X125222000Y-122174000D03*
%TD*%
D11*
%TO.C,R10*%
X158750000Y-41508500D03*
X158750000Y-43333500D03*
%TD*%
D15*
%TO.C,C2*%
X105410000Y-43384000D03*
X105410000Y-41659000D03*
%TD*%
D21*
%TO.C,R1*%
X99314000Y-66294000D03*
X99314000Y-64469000D03*
%TD*%
D17*
%TO.C,D21*%
X128016000Y-49148000D03*
X128016000Y-45848000D03*
%TD*%
%TO.C,D10*%
X144272000Y-106424000D03*
X144272000Y-103124000D03*
%TD*%
D11*
%TO.C,R11*%
X160274000Y-41508500D03*
X160274000Y-43333500D03*
%TD*%
D17*
%TO.C,D4*%
X182372000Y-68324000D03*
X182372000Y-65024000D03*
%TD*%
D21*
%TO.C,R8*%
X102362000Y-40132000D03*
X102362000Y-38307000D03*
%TD*%
D11*
%TO.C,R6*%
X103886000Y-41609000D03*
X103886000Y-43434000D03*
%TD*%
D15*
%TO.C,C23*%
X167640000Y-142187000D03*
X167640000Y-140462000D03*
%TD*%
D17*
%TO.C,D19*%
X163322000Y-144524000D03*
X163322000Y-141224000D03*
%TD*%
D25*
%TO.C,C1*%
X93726000Y-69649000D03*
X93726000Y-71374000D03*
%TD*%
D15*
%TO.C,C17*%
X148590000Y-123137000D03*
X148590000Y-121412000D03*
%TD*%
D17*
%TO.C,D2*%
X144272000Y-68324000D03*
X144272000Y-65024000D03*
%TD*%
D11*
%TO.C,R7*%
X160274000Y-38203500D03*
X160274000Y-40028500D03*
%TD*%
M02*
