M48
; DRILL file {KiCad 8.0.5} date 2024-11-15T15:43:04-0500
; FORMAT={-:-/ absolute / inch / decimal}
; #@! TF.CreationDate,2024-11-15T15:43:04-05:00
; #@! TF.GenerationSoftware,Kicad,Pcbnew,8.0.5
; #@! TF.FileFunction,NonPlated,1,2,NPTH
FMAT,2
INCH
; #@! TA.AperFunction,NonPlated,NPTH,ComponentDrill
T1C0.0669
; #@! TA.AperFunction,NonPlated,NPTH,ComponentDrill
T2C0.0866
; #@! TA.AperFunction,NonPlated,NPTH,ComponentDrill
T3C0.1575
%
G90
G05
T1
X4.4Y-2.35
X4.4Y-3.1
X4.4Y-3.85
X4.4Y-4.6
X4.4Y-5.35
X4.8Y-2.35
X4.8Y-3.1
X4.8Y-3.85
X4.8Y-4.6
X4.8Y-5.35
X5.15Y-2.35
X5.15Y-3.1
X5.15Y-3.85
X5.15Y-4.6
X5.15Y-5.35
X5.55Y-2.35
X5.55Y-3.1
X5.55Y-3.85
X5.55Y-4.6
X5.55Y-5.35
X5.9Y-2.35
X5.9Y-3.1
X5.9Y-3.85
X5.9Y-4.6
X5.9Y-5.35
X6.3Y-2.35
X6.3Y-3.1
X6.3Y-3.85
X6.3Y-4.6
X6.3Y-5.35
X6.65Y-2.35
X6.65Y-3.1
X6.65Y-3.85
X6.65Y-4.6
X6.65Y-5.35
X7.05Y-2.35
X7.05Y-3.1
X7.05Y-3.85
X7.05Y-4.6
X7.05Y-5.35
T2
X3.7169Y-5.6402
X3.7178Y-1.3478
X7.1821Y-5.6401
X7.1822Y-1.3478
T3
X4.6Y-2.35
X4.6Y-3.1
X4.6Y-3.85
X4.6Y-4.6
X4.6Y-5.35
X5.35Y-2.35
X5.35Y-3.1
X5.35Y-3.85
X5.35Y-4.6
X5.35Y-5.35
X6.1Y-2.35
X6.1Y-3.1
X6.1Y-3.85
X6.1Y-4.6
X6.1Y-5.35
X6.85Y-2.35
X6.85Y-3.1
X6.85Y-3.85
X6.85Y-4.6
X6.85Y-5.35
M30
