%TF.GenerationSoftware,KiCad,Pcbnew,8.0.5*%
%TF.CreationDate,2024-11-15T15:43:04-05:00*%
%TF.ProjectId,bytesized_macropad,62797465-7369-47a6-9564-5f6d6163726f,rev?*%
%TF.SameCoordinates,Original*%
%TF.FileFunction,Drillmap*%
%TF.FilePolarity,Positive*%
%FSLAX45Y45*%
G04 Gerber Fmt 4.5, Leading zero omitted, Abs format (unit mm)*
G04 Created by KiCad (PCBNEW 8.0.5) date 2024-11-15 15:43:04*
%MOMM*%
%LPD*%
G01*
G04 APERTURE LIST*
%ADD10C,0.200000*%
%ADD11C,0.100000*%
%ADD12C,0.170000*%
%ADD13C,0.220000*%
%ADD14C,0.400000*%
G04 APERTURE END LIST*
D10*
X18212835Y-3075251D02*
X18232535Y-3076717D01*
X18252068Y-3079143D01*
X18271401Y-3082517D01*
X18290500Y-3086823D01*
X18309334Y-3092050D01*
X18327870Y-3098183D01*
X18346074Y-3105208D01*
X18363913Y-3113112D01*
X18381356Y-3121882D01*
X18398370Y-3131504D01*
X18414921Y-3141965D01*
X18430976Y-3153249D01*
X18446503Y-3165346D01*
X18461470Y-3178239D01*
X18475843Y-3191917D01*
X18489521Y-3206290D01*
X18502414Y-3221257D01*
X18514511Y-3236784D01*
X18525796Y-3252840D01*
X18536256Y-3269390D01*
X18545878Y-3286404D01*
X18554648Y-3303846D01*
X18562552Y-3321686D01*
X18569577Y-3339890D01*
X18575710Y-3358426D01*
X18580936Y-3377260D01*
X18585243Y-3396359D01*
X18588616Y-3415692D01*
X18591043Y-3435225D01*
X18592508Y-3454925D01*
X18593000Y-3474760D01*
X18593000Y-14274760D01*
X18592508Y-14294595D01*
X18591043Y-14314295D01*
X18588616Y-14333828D01*
X18585243Y-14353161D01*
X18580936Y-14372260D01*
X18575710Y-14391094D01*
X18569577Y-14409629D01*
X18562552Y-14427833D01*
X18554648Y-14445673D01*
X18545878Y-14463116D01*
X18536256Y-14480130D01*
X18525796Y-14496680D01*
X18514511Y-14512736D01*
X18502414Y-14528263D01*
X18489521Y-14543230D01*
X18475843Y-14557603D01*
X18461470Y-14571281D01*
X18446503Y-14584175D01*
X18430976Y-14596271D01*
X18414921Y-14607556D01*
X18398370Y-14618016D01*
X18381356Y-14627638D01*
X18363913Y-14636408D01*
X18346074Y-14644312D01*
X18327870Y-14651338D01*
X18309334Y-14657470D01*
X18290500Y-14662697D01*
X18271401Y-14667003D01*
X18252068Y-14670377D01*
X18232535Y-14672803D01*
X18212835Y-14674269D01*
X18193000Y-14674760D01*
X9493000Y-14674760D01*
X9473165Y-14674269D01*
X9453465Y-14672803D01*
X9433932Y-14670377D01*
X9414599Y-14667003D01*
X9395500Y-14662697D01*
X9376666Y-14657470D01*
X9358131Y-14651338D01*
X9339927Y-14644312D01*
X9322087Y-14636408D01*
X9304644Y-14627638D01*
X9287631Y-14618016D01*
X9271080Y-14607556D01*
X9255024Y-14596271D01*
X9239497Y-14584175D01*
X9224530Y-14571281D01*
X9210157Y-14557603D01*
X9196480Y-14543230D01*
X9183586Y-14528263D01*
X9171490Y-14512736D01*
X9160205Y-14496680D01*
X9149745Y-14480130D01*
X9140123Y-14463116D01*
X9131353Y-14445673D01*
X9123448Y-14427833D01*
X9116423Y-14409629D01*
X9110290Y-14391094D01*
X9105064Y-14372260D01*
X9100757Y-14353161D01*
X9097384Y-14333828D01*
X9094957Y-14314295D01*
X9093492Y-14294595D01*
X9093000Y-14274760D01*
X9093000Y-3474760D01*
X9093492Y-3454925D01*
X9094957Y-3435225D01*
X9097384Y-3415692D01*
X9100757Y-3396359D01*
X9105064Y-3377260D01*
X9110290Y-3358426D01*
X9116423Y-3339890D01*
X9123448Y-3321686D01*
X9131353Y-3303846D01*
X9140123Y-3286404D01*
X9149745Y-3269390D01*
X9160205Y-3252840D01*
X9171490Y-3236784D01*
X9183586Y-3221257D01*
X9196480Y-3206290D01*
X9210157Y-3191917D01*
X9224530Y-3178239D01*
X9239497Y-3165346D01*
X9255024Y-3153249D01*
X9271080Y-3141965D01*
X9287631Y-3131504D01*
X9304644Y-3121882D01*
X9322087Y-3113112D01*
X9339927Y-3105208D01*
X9358131Y-3098183D01*
X9376666Y-3092050D01*
X9395500Y-3086823D01*
X9414599Y-3082517D01*
X9433932Y-3079143D01*
X9453465Y-3076717D01*
X9473165Y-3075251D01*
X9493000Y-3074760D01*
X18193000Y-3074760D01*
X18212835Y-3075251D01*
D11*
X15324000Y-12262284D02*
X15324000Y-12121716D01*
X15414555Y-12042000D02*
X15573445Y-12042000D01*
X15573445Y-12342000D02*
X15414555Y-12342000D01*
X15664000Y-12121716D02*
X15664000Y-12262284D01*
X15319052Y-12100028D02*
G75*
G02*
X15324000Y-12121716I-45051J-21688D01*
G01*
X15319052Y-12100028D02*
G75*
G02*
X15389329Y-12035170I45052J21688D01*
G01*
X15324000Y-12262284D02*
G75*
G02*
X15319052Y-12283972I-49999J0D01*
G01*
X15389329Y-12348830D02*
G75*
G02*
X15319052Y-12283972I-25226J43170D01*
G01*
X15389329Y-12348830D02*
G75*
G02*
X15414555Y-12342000I25226J-43171D01*
G01*
X15414555Y-12042000D02*
G75*
G02*
X15389329Y-12035170I0J50001D01*
G01*
X15573445Y-12342000D02*
G75*
G02*
X15598671Y-12348830I0J-50001D01*
G01*
X15598671Y-12035170D02*
G75*
G02*
X15573445Y-12042000I-25226J43171D01*
G01*
X15598671Y-12035170D02*
G75*
G02*
X15668948Y-12100028I25226J-43170D01*
G01*
X15664000Y-12121716D02*
G75*
G02*
X15668948Y-12100028I49994J2D01*
G01*
X15668948Y-12283972D02*
G75*
G02*
X15598671Y-12348830I-45051J-21688D01*
G01*
X15668948Y-12283972D02*
G75*
G02*
X15664001Y-12262284I44992J21672D01*
G01*
X11514000Y-10357284D02*
X11514000Y-10216716D01*
X11604555Y-10137000D02*
X11763445Y-10137000D01*
X11763445Y-10437000D02*
X11604555Y-10437000D01*
X11854000Y-10216716D02*
X11854000Y-10357284D01*
X11509052Y-10195028D02*
G75*
G02*
X11514000Y-10216716I-45051J-21688D01*
G01*
X11509052Y-10195028D02*
G75*
G02*
X11579329Y-10130170I45052J21688D01*
G01*
X11514000Y-10357284D02*
G75*
G02*
X11509052Y-10378972I-49999J0D01*
G01*
X11579329Y-10443830D02*
G75*
G02*
X11509052Y-10378972I-25226J43170D01*
G01*
X11579329Y-10443830D02*
G75*
G02*
X11604555Y-10437000I25226J-43171D01*
G01*
X11604555Y-10137000D02*
G75*
G02*
X11579329Y-10130170I0J50001D01*
G01*
X11763445Y-10437000D02*
G75*
G02*
X11788671Y-10443830I0J-50001D01*
G01*
X11788671Y-10130170D02*
G75*
G02*
X11763445Y-10137000I-25226J43171D01*
G01*
X11788671Y-10130170D02*
G75*
G02*
X11858948Y-10195028I25226J-43170D01*
G01*
X11854000Y-10216716D02*
G75*
G02*
X11858948Y-10195028I49994J2D01*
G01*
X11858948Y-10378972D02*
G75*
G02*
X11788671Y-10443830I-45051J-21688D01*
G01*
X11858948Y-10378972D02*
G75*
G02*
X11854001Y-10357284I44992J21672D01*
G01*
X17229000Y-14167284D02*
X17229000Y-14026716D01*
X17319555Y-13947000D02*
X17478445Y-13947000D01*
X17478445Y-14247000D02*
X17319555Y-14247000D01*
X17569000Y-14026716D02*
X17569000Y-14167284D01*
X17224052Y-14005028D02*
G75*
G02*
X17229000Y-14026716I-45051J-21688D01*
G01*
X17224052Y-14005028D02*
G75*
G02*
X17294329Y-13940170I45052J21688D01*
G01*
X17229000Y-14167284D02*
G75*
G02*
X17224052Y-14188972I-49999J0D01*
G01*
X17294329Y-14253830D02*
G75*
G02*
X17224052Y-14188972I-25226J43170D01*
G01*
X17294329Y-14253830D02*
G75*
G02*
X17319555Y-14247000I25226J-43171D01*
G01*
X17319555Y-13947000D02*
G75*
G02*
X17294329Y-13940170I0J50001D01*
G01*
X17478445Y-14247000D02*
G75*
G02*
X17503671Y-14253830I0J-50001D01*
G01*
X17503671Y-13940170D02*
G75*
G02*
X17478445Y-13947000I-25226J43171D01*
G01*
X17503671Y-13940170D02*
G75*
G02*
X17573948Y-14005028I25226J-43170D01*
G01*
X17569000Y-14026716D02*
G75*
G02*
X17573948Y-14005028I49994J2D01*
G01*
X17573948Y-14188972D02*
G75*
G02*
X17503671Y-14253830I-45051J-21688D01*
G01*
X17573948Y-14188972D02*
G75*
G02*
X17569001Y-14167284I44992J21672D01*
G01*
X15324000Y-6547284D02*
X15324000Y-6406716D01*
X15414555Y-6327000D02*
X15573445Y-6327000D01*
X15573445Y-6627000D02*
X15414555Y-6627000D01*
X15664000Y-6406716D02*
X15664000Y-6547284D01*
X15319052Y-6385028D02*
G75*
G02*
X15324000Y-6406716I-45051J-21688D01*
G01*
X15319052Y-6385028D02*
G75*
G02*
X15389329Y-6320170I45052J21688D01*
G01*
X15324000Y-6547284D02*
G75*
G02*
X15319052Y-6568972I-49999J0D01*
G01*
X15389329Y-6633830D02*
G75*
G02*
X15319052Y-6568972I-25226J43170D01*
G01*
X15389329Y-6633830D02*
G75*
G02*
X15414555Y-6627000I25226J-43171D01*
G01*
X15414555Y-6327000D02*
G75*
G02*
X15389329Y-6320170I0J50001D01*
G01*
X15573445Y-6627000D02*
G75*
G02*
X15598671Y-6633830I0J-50001D01*
G01*
X15598671Y-6320170D02*
G75*
G02*
X15573445Y-6327000I-25226J43171D01*
G01*
X15598671Y-6320170D02*
G75*
G02*
X15668948Y-6385028I25226J-43170D01*
G01*
X15664000Y-6406716D02*
G75*
G02*
X15668948Y-6385028I49994J2D01*
G01*
X15668948Y-6568972D02*
G75*
G02*
X15598671Y-6633830I-45051J-21688D01*
G01*
X15668948Y-6568972D02*
G75*
G02*
X15664001Y-6547284I44992J21672D01*
G01*
X15324000Y-8452284D02*
X15324000Y-8311716D01*
X15414555Y-8232000D02*
X15573445Y-8232000D01*
X15573445Y-8532000D02*
X15414555Y-8532000D01*
X15664000Y-8311716D02*
X15664000Y-8452284D01*
X15319052Y-8290028D02*
G75*
G02*
X15324000Y-8311716I-45051J-21688D01*
G01*
X15319052Y-8290028D02*
G75*
G02*
X15389329Y-8225170I45052J21688D01*
G01*
X15324000Y-8452284D02*
G75*
G02*
X15319052Y-8473972I-49999J0D01*
G01*
X15389329Y-8538830D02*
G75*
G02*
X15319052Y-8473972I-25226J43170D01*
G01*
X15389329Y-8538830D02*
G75*
G02*
X15414555Y-8532000I25226J-43171D01*
G01*
X15414555Y-8232000D02*
G75*
G02*
X15389329Y-8225170I0J50001D01*
G01*
X15573445Y-8532000D02*
G75*
G02*
X15598671Y-8538830I0J-50001D01*
G01*
X15598671Y-8225170D02*
G75*
G02*
X15573445Y-8232000I-25226J43171D01*
G01*
X15598671Y-8225170D02*
G75*
G02*
X15668948Y-8290028I25226J-43170D01*
G01*
X15664000Y-8311716D02*
G75*
G02*
X15668948Y-8290028I49994J2D01*
G01*
X15668948Y-8473972D02*
G75*
G02*
X15598671Y-8538830I-45051J-21688D01*
G01*
X15668948Y-8473972D02*
G75*
G02*
X15664001Y-8452284I44992J21672D01*
G01*
X15324000Y-10357284D02*
X15324000Y-10216716D01*
X15414555Y-10137000D02*
X15573445Y-10137000D01*
X15573445Y-10437000D02*
X15414555Y-10437000D01*
X15664000Y-10216716D02*
X15664000Y-10357284D01*
X15319052Y-10195028D02*
G75*
G02*
X15324000Y-10216716I-45051J-21688D01*
G01*
X15319052Y-10195028D02*
G75*
G02*
X15389329Y-10130170I45052J21688D01*
G01*
X15324000Y-10357284D02*
G75*
G02*
X15319052Y-10378972I-49999J0D01*
G01*
X15389329Y-10443830D02*
G75*
G02*
X15319052Y-10378972I-25226J43170D01*
G01*
X15389329Y-10443830D02*
G75*
G02*
X15414555Y-10437000I25226J-43171D01*
G01*
X15414555Y-10137000D02*
G75*
G02*
X15389329Y-10130170I0J50001D01*
G01*
X15573445Y-10437000D02*
G75*
G02*
X15598671Y-10443830I0J-50001D01*
G01*
X15598671Y-10130170D02*
G75*
G02*
X15573445Y-10137000I-25226J43171D01*
G01*
X15598671Y-10130170D02*
G75*
G02*
X15668948Y-10195028I25226J-43170D01*
G01*
X15664000Y-10216716D02*
G75*
G02*
X15668948Y-10195028I49994J2D01*
G01*
X15668948Y-10378972D02*
G75*
G02*
X15598671Y-10443830I-45051J-21688D01*
G01*
X15668948Y-10378972D02*
G75*
G02*
X15664001Y-10357284I44992J21672D01*
G01*
X17229000Y-8452284D02*
X17229000Y-8311716D01*
X17319555Y-8232000D02*
X17478445Y-8232000D01*
X17478445Y-8532000D02*
X17319555Y-8532000D01*
X17569000Y-8311716D02*
X17569000Y-8452284D01*
X17224052Y-8290028D02*
G75*
G02*
X17229000Y-8311716I-45051J-21688D01*
G01*
X17224052Y-8290028D02*
G75*
G02*
X17294329Y-8225170I45052J21688D01*
G01*
X17229000Y-8452284D02*
G75*
G02*
X17224052Y-8473972I-49999J0D01*
G01*
X17294329Y-8538830D02*
G75*
G02*
X17224052Y-8473972I-25226J43170D01*
G01*
X17294329Y-8538830D02*
G75*
G02*
X17319555Y-8532000I25226J-43171D01*
G01*
X17319555Y-8232000D02*
G75*
G02*
X17294329Y-8225170I0J50001D01*
G01*
X17478445Y-8532000D02*
G75*
G02*
X17503671Y-8538830I0J-50001D01*
G01*
X17503671Y-8225170D02*
G75*
G02*
X17478445Y-8232000I-25226J43171D01*
G01*
X17503671Y-8225170D02*
G75*
G02*
X17573948Y-8290028I25226J-43170D01*
G01*
X17569000Y-8311716D02*
G75*
G02*
X17573948Y-8290028I49994J2D01*
G01*
X17573948Y-8473972D02*
G75*
G02*
X17503671Y-8538830I-45051J-21688D01*
G01*
X17573948Y-8473972D02*
G75*
G02*
X17569001Y-8452284I44992J21672D01*
G01*
X11514000Y-14167284D02*
X11514000Y-14026716D01*
X11604555Y-13947000D02*
X11763445Y-13947000D01*
X11763445Y-14247000D02*
X11604555Y-14247000D01*
X11854000Y-14026716D02*
X11854000Y-14167284D01*
X11509052Y-14005028D02*
G75*
G02*
X11514000Y-14026716I-45051J-21688D01*
G01*
X11509052Y-14005028D02*
G75*
G02*
X11579329Y-13940170I45052J21688D01*
G01*
X11514000Y-14167284D02*
G75*
G02*
X11509052Y-14188972I-49999J0D01*
G01*
X11579329Y-14253830D02*
G75*
G02*
X11509052Y-14188972I-25226J43170D01*
G01*
X11579329Y-14253830D02*
G75*
G02*
X11604555Y-14247000I25226J-43171D01*
G01*
X11604555Y-13947000D02*
G75*
G02*
X11579329Y-13940170I0J50001D01*
G01*
X11763445Y-14247000D02*
G75*
G02*
X11788671Y-14253830I0J-50001D01*
G01*
X11788671Y-13940170D02*
G75*
G02*
X11763445Y-13947000I-25226J43171D01*
G01*
X11788671Y-13940170D02*
G75*
G02*
X11858948Y-14005028I25226J-43170D01*
G01*
X11854000Y-14026716D02*
G75*
G02*
X11858948Y-14005028I49994J2D01*
G01*
X11858948Y-14188972D02*
G75*
G02*
X11788671Y-14253830I-45051J-21688D01*
G01*
X11858948Y-14188972D02*
G75*
G02*
X11854001Y-14167284I44992J21672D01*
G01*
X11514000Y-12262284D02*
X11514000Y-12121716D01*
X11604555Y-12042000D02*
X11763445Y-12042000D01*
X11763445Y-12342000D02*
X11604555Y-12342000D01*
X11854000Y-12121716D02*
X11854000Y-12262284D01*
X11509052Y-12100028D02*
G75*
G02*
X11514000Y-12121716I-45051J-21688D01*
G01*
X11509052Y-12100028D02*
G75*
G02*
X11579329Y-12035170I45052J21688D01*
G01*
X11514000Y-12262284D02*
G75*
G02*
X11509052Y-12283972I-49999J0D01*
G01*
X11579329Y-12348830D02*
G75*
G02*
X11509052Y-12283972I-25226J43170D01*
G01*
X11579329Y-12348830D02*
G75*
G02*
X11604555Y-12342000I25226J-43171D01*
G01*
X11604555Y-12042000D02*
G75*
G02*
X11579329Y-12035170I0J50001D01*
G01*
X11763445Y-12342000D02*
G75*
G02*
X11788671Y-12348830I0J-50001D01*
G01*
X11788671Y-12035170D02*
G75*
G02*
X11763445Y-12042000I-25226J43171D01*
G01*
X11788671Y-12035170D02*
G75*
G02*
X11858948Y-12100028I25226J-43170D01*
G01*
X11854000Y-12121716D02*
G75*
G02*
X11858948Y-12100028I49994J2D01*
G01*
X11858948Y-12283972D02*
G75*
G02*
X11788671Y-12348830I-45051J-21688D01*
G01*
X11858948Y-12283972D02*
G75*
G02*
X11854001Y-12262284I44992J21672D01*
G01*
X17229000Y-12262284D02*
X17229000Y-12121716D01*
X17319555Y-12042000D02*
X17478445Y-12042000D01*
X17478445Y-12342000D02*
X17319555Y-12342000D01*
X17569000Y-12121716D02*
X17569000Y-12262284D01*
X17224052Y-12100028D02*
G75*
G02*
X17229000Y-12121716I-45051J-21688D01*
G01*
X17224052Y-12100028D02*
G75*
G02*
X17294329Y-12035170I45052J21688D01*
G01*
X17229000Y-12262284D02*
G75*
G02*
X17224052Y-12283972I-49999J0D01*
G01*
X17294329Y-12348830D02*
G75*
G02*
X17224052Y-12283972I-25226J43170D01*
G01*
X17294329Y-12348830D02*
G75*
G02*
X17319555Y-12342000I25226J-43171D01*
G01*
X17319555Y-12042000D02*
G75*
G02*
X17294329Y-12035170I0J50001D01*
G01*
X17478445Y-12342000D02*
G75*
G02*
X17503671Y-12348830I0J-50001D01*
G01*
X17503671Y-12035170D02*
G75*
G02*
X17478445Y-12042000I-25226J43171D01*
G01*
X17503671Y-12035170D02*
G75*
G02*
X17573948Y-12100028I25226J-43170D01*
G01*
X17569000Y-12121716D02*
G75*
G02*
X17573948Y-12100028I49994J2D01*
G01*
X17573948Y-12283972D02*
G75*
G02*
X17503671Y-12348830I-45051J-21688D01*
G01*
X17573948Y-12283972D02*
G75*
G02*
X17569001Y-12262284I44992J21672D01*
G01*
X11514000Y-6547284D02*
X11514000Y-6406716D01*
X11604555Y-6327000D02*
X11763445Y-6327000D01*
X11763445Y-6627000D02*
X11604555Y-6627000D01*
X11854000Y-6406716D02*
X11854000Y-6547284D01*
X11509052Y-6385028D02*
G75*
G02*
X11514000Y-6406716I-45051J-21688D01*
G01*
X11509052Y-6385028D02*
G75*
G02*
X11579329Y-6320170I45052J21688D01*
G01*
X11514000Y-6547284D02*
G75*
G02*
X11509052Y-6568972I-49999J0D01*
G01*
X11579329Y-6633830D02*
G75*
G02*
X11509052Y-6568972I-25226J43170D01*
G01*
X11579329Y-6633830D02*
G75*
G02*
X11604555Y-6627000I25226J-43171D01*
G01*
X11604555Y-6327000D02*
G75*
G02*
X11579329Y-6320170I0J50001D01*
G01*
X11763445Y-6627000D02*
G75*
G02*
X11788671Y-6633830I0J-50001D01*
G01*
X11788671Y-6320170D02*
G75*
G02*
X11763445Y-6327000I-25226J43171D01*
G01*
X11788671Y-6320170D02*
G75*
G02*
X11858948Y-6385028I25226J-43170D01*
G01*
X11854000Y-6406716D02*
G75*
G02*
X11858948Y-6385028I49994J2D01*
G01*
X11858948Y-6568972D02*
G75*
G02*
X11788671Y-6633830I-45051J-21688D01*
G01*
X11858948Y-6568972D02*
G75*
G02*
X11854001Y-6547284I44992J21672D01*
G01*
X13419000Y-6547284D02*
X13419000Y-6406716D01*
X13509555Y-6327000D02*
X13668445Y-6327000D01*
X13668445Y-6627000D02*
X13509555Y-6627000D01*
X13759000Y-6406716D02*
X13759000Y-6547284D01*
X13414052Y-6385028D02*
G75*
G02*
X13419000Y-6406716I-45051J-21688D01*
G01*
X13414052Y-6385028D02*
G75*
G02*
X13484329Y-6320170I45052J21688D01*
G01*
X13419000Y-6547284D02*
G75*
G02*
X13414052Y-6568972I-49999J0D01*
G01*
X13484329Y-6633830D02*
G75*
G02*
X13414052Y-6568972I-25226J43170D01*
G01*
X13484329Y-6633830D02*
G75*
G02*
X13509555Y-6627000I25226J-43171D01*
G01*
X13509555Y-6327000D02*
G75*
G02*
X13484329Y-6320170I0J50001D01*
G01*
X13668445Y-6627000D02*
G75*
G02*
X13693671Y-6633830I0J-50001D01*
G01*
X13693671Y-6320170D02*
G75*
G02*
X13668445Y-6327000I-25226J43171D01*
G01*
X13693671Y-6320170D02*
G75*
G02*
X13763948Y-6385028I25226J-43170D01*
G01*
X13759000Y-6406716D02*
G75*
G02*
X13763948Y-6385028I49994J2D01*
G01*
X13763948Y-6568972D02*
G75*
G02*
X13693671Y-6633830I-45051J-21688D01*
G01*
X13763948Y-6568972D02*
G75*
G02*
X13759001Y-6547284I44992J21672D01*
G01*
X17229000Y-6547284D02*
X17229000Y-6406716D01*
X17319555Y-6327000D02*
X17478445Y-6327000D01*
X17478445Y-6627000D02*
X17319555Y-6627000D01*
X17569000Y-6406716D02*
X17569000Y-6547284D01*
X17224052Y-6385028D02*
G75*
G02*
X17229000Y-6406716I-45051J-21688D01*
G01*
X17224052Y-6385028D02*
G75*
G02*
X17294329Y-6320170I45052J21688D01*
G01*
X17229000Y-6547284D02*
G75*
G02*
X17224052Y-6568972I-49999J0D01*
G01*
X17294329Y-6633830D02*
G75*
G02*
X17224052Y-6568972I-25226J43170D01*
G01*
X17294329Y-6633830D02*
G75*
G02*
X17319555Y-6627000I25226J-43171D01*
G01*
X17319555Y-6327000D02*
G75*
G02*
X17294329Y-6320170I0J50001D01*
G01*
X17478445Y-6627000D02*
G75*
G02*
X17503671Y-6633830I0J-50001D01*
G01*
X17503671Y-6320170D02*
G75*
G02*
X17478445Y-6327000I-25226J43171D01*
G01*
X17503671Y-6320170D02*
G75*
G02*
X17573948Y-6385028I25226J-43170D01*
G01*
X17569000Y-6406716D02*
G75*
G02*
X17573948Y-6385028I49994J2D01*
G01*
X17573948Y-6568972D02*
G75*
G02*
X17503671Y-6633830I-45051J-21688D01*
G01*
X17573948Y-6568972D02*
G75*
G02*
X17569001Y-6547284I44992J21672D01*
G01*
X13419000Y-10357284D02*
X13419000Y-10216716D01*
X13509555Y-10137000D02*
X13668445Y-10137000D01*
X13668445Y-10437000D02*
X13509555Y-10437000D01*
X13759000Y-10216716D02*
X13759000Y-10357284D01*
X13414052Y-10195028D02*
G75*
G02*
X13419000Y-10216716I-45051J-21688D01*
G01*
X13414052Y-10195028D02*
G75*
G02*
X13484329Y-10130170I45052J21688D01*
G01*
X13419000Y-10357284D02*
G75*
G02*
X13414052Y-10378972I-49999J0D01*
G01*
X13484329Y-10443830D02*
G75*
G02*
X13414052Y-10378972I-25226J43170D01*
G01*
X13484329Y-10443830D02*
G75*
G02*
X13509555Y-10437000I25226J-43171D01*
G01*
X13509555Y-10137000D02*
G75*
G02*
X13484329Y-10130170I0J50001D01*
G01*
X13668445Y-10437000D02*
G75*
G02*
X13693671Y-10443830I0J-50001D01*
G01*
X13693671Y-10130170D02*
G75*
G02*
X13668445Y-10137000I-25226J43171D01*
G01*
X13693671Y-10130170D02*
G75*
G02*
X13763948Y-10195028I25226J-43170D01*
G01*
X13759000Y-10216716D02*
G75*
G02*
X13763948Y-10195028I49994J2D01*
G01*
X13763948Y-10378972D02*
G75*
G02*
X13693671Y-10443830I-45051J-21688D01*
G01*
X13763948Y-10378972D02*
G75*
G02*
X13759001Y-10357284I44992J21672D01*
G01*
X15324000Y-14167284D02*
X15324000Y-14026716D01*
X15414555Y-13947000D02*
X15573445Y-13947000D01*
X15573445Y-14247000D02*
X15414555Y-14247000D01*
X15664000Y-14026716D02*
X15664000Y-14167284D01*
X15319052Y-14005028D02*
G75*
G02*
X15324000Y-14026716I-45051J-21688D01*
G01*
X15319052Y-14005028D02*
G75*
G02*
X15389329Y-13940170I45052J21688D01*
G01*
X15324000Y-14167284D02*
G75*
G02*
X15319052Y-14188972I-49999J0D01*
G01*
X15389329Y-14253830D02*
G75*
G02*
X15319052Y-14188972I-25226J43170D01*
G01*
X15389329Y-14253830D02*
G75*
G02*
X15414555Y-14247000I25226J-43171D01*
G01*
X15414555Y-13947000D02*
G75*
G02*
X15389329Y-13940170I0J50001D01*
G01*
X15573445Y-14247000D02*
G75*
G02*
X15598671Y-14253830I0J-50001D01*
G01*
X15598671Y-13940170D02*
G75*
G02*
X15573445Y-13947000I-25226J43171D01*
G01*
X15598671Y-13940170D02*
G75*
G02*
X15668948Y-14005028I25226J-43170D01*
G01*
X15664000Y-14026716D02*
G75*
G02*
X15668948Y-14005028I49994J2D01*
G01*
X15668948Y-14188972D02*
G75*
G02*
X15598671Y-14253830I-45051J-21688D01*
G01*
X15668948Y-14188972D02*
G75*
G02*
X15664001Y-14167284I44992J21672D01*
G01*
X11514000Y-8452284D02*
X11514000Y-8311716D01*
X11604555Y-8232000D02*
X11763445Y-8232000D01*
X11763445Y-8532000D02*
X11604555Y-8532000D01*
X11854000Y-8311716D02*
X11854000Y-8452284D01*
X11509052Y-8290028D02*
G75*
G02*
X11514000Y-8311716I-45051J-21688D01*
G01*
X11509052Y-8290028D02*
G75*
G02*
X11579329Y-8225170I45052J21688D01*
G01*
X11514000Y-8452284D02*
G75*
G02*
X11509052Y-8473972I-49999J0D01*
G01*
X11579329Y-8538830D02*
G75*
G02*
X11509052Y-8473972I-25226J43170D01*
G01*
X11579329Y-8538830D02*
G75*
G02*
X11604555Y-8532000I25226J-43171D01*
G01*
X11604555Y-8232000D02*
G75*
G02*
X11579329Y-8225170I0J50001D01*
G01*
X11763445Y-8532000D02*
G75*
G02*
X11788671Y-8538830I0J-50001D01*
G01*
X11788671Y-8225170D02*
G75*
G02*
X11763445Y-8232000I-25226J43171D01*
G01*
X11788671Y-8225170D02*
G75*
G02*
X11858948Y-8290028I25226J-43170D01*
G01*
X11854000Y-8311716D02*
G75*
G02*
X11858948Y-8290028I49994J2D01*
G01*
X11858948Y-8473972D02*
G75*
G02*
X11788671Y-8538830I-45051J-21688D01*
G01*
X11858948Y-8473972D02*
G75*
G02*
X11854001Y-8452284I44992J21672D01*
G01*
X13419000Y-14167284D02*
X13419000Y-14026716D01*
X13509555Y-13947000D02*
X13668445Y-13947000D01*
X13668445Y-14247000D02*
X13509555Y-14247000D01*
X13759000Y-14026716D02*
X13759000Y-14167284D01*
X13414052Y-14005028D02*
G75*
G02*
X13419000Y-14026716I-45051J-21688D01*
G01*
X13414052Y-14005028D02*
G75*
G02*
X13484329Y-13940170I45052J21688D01*
G01*
X13419000Y-14167284D02*
G75*
G02*
X13414052Y-14188972I-49999J0D01*
G01*
X13484329Y-14253830D02*
G75*
G02*
X13414052Y-14188972I-25226J43170D01*
G01*
X13484329Y-14253830D02*
G75*
G02*
X13509555Y-14247000I25226J-43171D01*
G01*
X13509555Y-13947000D02*
G75*
G02*
X13484329Y-13940170I0J50001D01*
G01*
X13668445Y-14247000D02*
G75*
G02*
X13693671Y-14253830I0J-50001D01*
G01*
X13693671Y-13940170D02*
G75*
G02*
X13668445Y-13947000I-25226J43171D01*
G01*
X13693671Y-13940170D02*
G75*
G02*
X13763948Y-14005028I25226J-43170D01*
G01*
X13759000Y-14026716D02*
G75*
G02*
X13763948Y-14005028I49994J2D01*
G01*
X13763948Y-14188972D02*
G75*
G02*
X13693671Y-14253830I-45051J-21688D01*
G01*
X13763948Y-14188972D02*
G75*
G02*
X13759001Y-14167284I44992J21672D01*
G01*
X13419000Y-8452284D02*
X13419000Y-8311716D01*
X13509555Y-8232000D02*
X13668445Y-8232000D01*
X13668445Y-8532000D02*
X13509555Y-8532000D01*
X13759000Y-8311716D02*
X13759000Y-8452284D01*
X13414052Y-8290028D02*
G75*
G02*
X13419000Y-8311716I-45051J-21688D01*
G01*
X13414052Y-8290028D02*
G75*
G02*
X13484329Y-8225170I45052J21688D01*
G01*
X13419000Y-8452284D02*
G75*
G02*
X13414052Y-8473972I-49999J0D01*
G01*
X13484329Y-8538830D02*
G75*
G02*
X13414052Y-8473972I-25226J43170D01*
G01*
X13484329Y-8538830D02*
G75*
G02*
X13509555Y-8532000I25226J-43171D01*
G01*
X13509555Y-8232000D02*
G75*
G02*
X13484329Y-8225170I0J50001D01*
G01*
X13668445Y-8532000D02*
G75*
G02*
X13693671Y-8538830I0J-50001D01*
G01*
X13693671Y-8225170D02*
G75*
G02*
X13668445Y-8232000I-25226J43171D01*
G01*
X13693671Y-8225170D02*
G75*
G02*
X13763948Y-8290028I25226J-43170D01*
G01*
X13759000Y-8311716D02*
G75*
G02*
X13763948Y-8290028I49994J2D01*
G01*
X13763948Y-8473972D02*
G75*
G02*
X13693671Y-8538830I-45051J-21688D01*
G01*
X13763948Y-8473972D02*
G75*
G02*
X13759001Y-8452284I44992J21672D01*
G01*
X17229000Y-10357284D02*
X17229000Y-10216716D01*
X17319555Y-10137000D02*
X17478445Y-10137000D01*
X17478445Y-10437000D02*
X17319555Y-10437000D01*
X17569000Y-10216716D02*
X17569000Y-10357284D01*
X17224052Y-10195028D02*
G75*
G02*
X17229000Y-10216716I-45051J-21688D01*
G01*
X17224052Y-10195028D02*
G75*
G02*
X17294329Y-10130170I45052J21688D01*
G01*
X17229000Y-10357284D02*
G75*
G02*
X17224052Y-10378972I-49999J0D01*
G01*
X17294329Y-10443830D02*
G75*
G02*
X17224052Y-10378972I-25226J43170D01*
G01*
X17294329Y-10443830D02*
G75*
G02*
X17319555Y-10437000I25226J-43171D01*
G01*
X17319555Y-10137000D02*
G75*
G02*
X17294329Y-10130170I0J50001D01*
G01*
X17478445Y-10437000D02*
G75*
G02*
X17503671Y-10443830I0J-50001D01*
G01*
X17503671Y-10130170D02*
G75*
G02*
X17478445Y-10137000I-25226J43171D01*
G01*
X17503671Y-10130170D02*
G75*
G02*
X17573948Y-10195028I25226J-43170D01*
G01*
X17569000Y-10216716D02*
G75*
G02*
X17573948Y-10195028I49994J2D01*
G01*
X17573948Y-10378972D02*
G75*
G02*
X17503671Y-10443830I-45051J-21688D01*
G01*
X17573948Y-10378972D02*
G75*
G02*
X17569001Y-10357284I44992J21672D01*
G01*
X13419000Y-12262284D02*
X13419000Y-12121716D01*
X13509555Y-12042000D02*
X13668445Y-12042000D01*
X13668445Y-12342000D02*
X13509555Y-12342000D01*
X13759000Y-12121716D02*
X13759000Y-12262284D01*
X13414052Y-12100028D02*
G75*
G02*
X13419000Y-12121716I-45051J-21688D01*
G01*
X13414052Y-12100028D02*
G75*
G02*
X13484329Y-12035170I45052J21688D01*
G01*
X13419000Y-12262284D02*
G75*
G02*
X13414052Y-12283972I-49999J0D01*
G01*
X13484329Y-12348830D02*
G75*
G02*
X13414052Y-12283972I-25226J43170D01*
G01*
X13484329Y-12348830D02*
G75*
G02*
X13509555Y-12342000I25226J-43171D01*
G01*
X13509555Y-12042000D02*
G75*
G02*
X13484329Y-12035170I0J50001D01*
G01*
X13668445Y-12342000D02*
G75*
G02*
X13693671Y-12348830I0J-50001D01*
G01*
X13693671Y-12035170D02*
G75*
G02*
X13668445Y-12042000I-25226J43171D01*
G01*
X13693671Y-12035170D02*
G75*
G02*
X13763948Y-12100028I25226J-43170D01*
G01*
X13759000Y-12121716D02*
G75*
G02*
X13763948Y-12100028I49994J2D01*
G01*
X13763948Y-12283972D02*
G75*
G02*
X13693671Y-12348830I-45051J-21688D01*
G01*
X13763948Y-12283972D02*
G75*
G02*
X13759001Y-12262284I44992J21672D01*
G01*
D10*
D12*
X11091000Y-5884000D02*
X11261000Y-6054000D01*
X11261000Y-5884000D02*
X11091000Y-6054000D01*
X11091000Y-7789000D02*
X11261000Y-7959000D01*
X11261000Y-7789000D02*
X11091000Y-7959000D01*
X11091000Y-9694000D02*
X11261000Y-9864000D01*
X11261000Y-9694000D02*
X11091000Y-9864000D01*
X11091000Y-11599000D02*
X11261000Y-11769000D01*
X11261000Y-11599000D02*
X11091000Y-11769000D01*
X11091000Y-13504000D02*
X11261000Y-13674000D01*
X11261000Y-13504000D02*
X11091000Y-13674000D01*
X12107000Y-5884000D02*
X12277000Y-6054000D01*
X12277000Y-5884000D02*
X12107000Y-6054000D01*
X12107000Y-7789000D02*
X12277000Y-7959000D01*
X12277000Y-7789000D02*
X12107000Y-7959000D01*
X12107000Y-9694000D02*
X12277000Y-9864000D01*
X12277000Y-9694000D02*
X12107000Y-9864000D01*
X12107000Y-11599000D02*
X12277000Y-11769000D01*
X12277000Y-11599000D02*
X12107000Y-11769000D01*
X12107000Y-13504000D02*
X12277000Y-13674000D01*
X12277000Y-13504000D02*
X12107000Y-13674000D01*
X12996000Y-5884000D02*
X13166000Y-6054000D01*
X13166000Y-5884000D02*
X12996000Y-6054000D01*
X12996000Y-7789000D02*
X13166000Y-7959000D01*
X13166000Y-7789000D02*
X12996000Y-7959000D01*
X12996000Y-9694000D02*
X13166000Y-9864000D01*
X13166000Y-9694000D02*
X12996000Y-9864000D01*
X12996000Y-11599000D02*
X13166000Y-11769000D01*
X13166000Y-11599000D02*
X12996000Y-11769000D01*
X12996000Y-13504000D02*
X13166000Y-13674000D01*
X13166000Y-13504000D02*
X12996000Y-13674000D01*
X14012000Y-5884000D02*
X14182000Y-6054000D01*
X14182000Y-5884000D02*
X14012000Y-6054000D01*
X14012000Y-7789000D02*
X14182000Y-7959000D01*
X14182000Y-7789000D02*
X14012000Y-7959000D01*
X14012000Y-9694000D02*
X14182000Y-9864000D01*
X14182000Y-9694000D02*
X14012000Y-9864000D01*
X14012000Y-11599000D02*
X14182000Y-11769000D01*
X14182000Y-11599000D02*
X14012000Y-11769000D01*
X14012000Y-13504000D02*
X14182000Y-13674000D01*
X14182000Y-13504000D02*
X14012000Y-13674000D01*
X14901000Y-5884000D02*
X15071000Y-6054000D01*
X15071000Y-5884000D02*
X14901000Y-6054000D01*
X14901000Y-7789000D02*
X15071000Y-7959000D01*
X15071000Y-7789000D02*
X14901000Y-7959000D01*
X14901000Y-9694000D02*
X15071000Y-9864000D01*
X15071000Y-9694000D02*
X14901000Y-9864000D01*
X14901000Y-11599000D02*
X15071000Y-11769000D01*
X15071000Y-11599000D02*
X14901000Y-11769000D01*
X14901000Y-13504000D02*
X15071000Y-13674000D01*
X15071000Y-13504000D02*
X14901000Y-13674000D01*
X15917000Y-5884000D02*
X16087000Y-6054000D01*
X16087000Y-5884000D02*
X15917000Y-6054000D01*
X15917000Y-7789000D02*
X16087000Y-7959000D01*
X16087000Y-7789000D02*
X15917000Y-7959000D01*
X15917000Y-9694000D02*
X16087000Y-9864000D01*
X16087000Y-9694000D02*
X15917000Y-9864000D01*
X15917000Y-11599000D02*
X16087000Y-11769000D01*
X16087000Y-11599000D02*
X15917000Y-11769000D01*
X15917000Y-13504000D02*
X16087000Y-13674000D01*
X16087000Y-13504000D02*
X15917000Y-13674000D01*
X16806000Y-5884000D02*
X16976000Y-6054000D01*
X16976000Y-5884000D02*
X16806000Y-6054000D01*
X16806000Y-7789000D02*
X16976000Y-7959000D01*
X16976000Y-7789000D02*
X16806000Y-7959000D01*
X16806000Y-9694000D02*
X16976000Y-9864000D01*
X16976000Y-9694000D02*
X16806000Y-9864000D01*
X16806000Y-11599000D02*
X16976000Y-11769000D01*
X16976000Y-11599000D02*
X16806000Y-11769000D01*
X16806000Y-13504000D02*
X16976000Y-13674000D01*
X16976000Y-13504000D02*
X16806000Y-13674000D01*
X17822000Y-5884000D02*
X17992000Y-6054000D01*
X17992000Y-5884000D02*
X17822000Y-6054000D01*
X17822000Y-7789000D02*
X17992000Y-7959000D01*
X17992000Y-7789000D02*
X17822000Y-7959000D01*
X17822000Y-9694000D02*
X17992000Y-9864000D01*
X17992000Y-9694000D02*
X17822000Y-9864000D01*
X17822000Y-11599000D02*
X17992000Y-11769000D01*
X17992000Y-11599000D02*
X17822000Y-11769000D01*
X17822000Y-13504000D02*
X17992000Y-13674000D01*
X17992000Y-13504000D02*
X17822000Y-13674000D01*
D13*
X9550920Y-14326120D02*
G75*
G02*
X9330920Y-14326120I-110000J0D01*
G01*
X9330920Y-14326120D02*
G75*
G02*
X9550920Y-14326120I110000J0D01*
G01*
X9553200Y-3423400D02*
G75*
G02*
X9333200Y-3423400I-110000J0D01*
G01*
X9333200Y-3423400D02*
G75*
G02*
X9553200Y-3423400I110000J0D01*
G01*
X18352540Y-14325860D02*
G75*
G02*
X18132540Y-14325860I-110000J0D01*
G01*
X18132540Y-14325860D02*
G75*
G02*
X18352540Y-14325860I110000J0D01*
G01*
X18352800Y-3423400D02*
G75*
G02*
X18132800Y-3423400I-110000J0D01*
G01*
X18132800Y-3423400D02*
G75*
G02*
X18352800Y-3423400I110000J0D01*
G01*
D14*
X11684000Y-5769000D02*
X11684000Y-6169000D01*
X11484000Y-5969000D02*
X11884000Y-5969000D01*
X11684000Y-7674000D02*
X11684000Y-8074000D01*
X11484000Y-7874000D02*
X11884000Y-7874000D01*
X11684000Y-9579000D02*
X11684000Y-9979000D01*
X11484000Y-9779000D02*
X11884000Y-9779000D01*
X11684000Y-11484000D02*
X11684000Y-11884000D01*
X11484000Y-11684000D02*
X11884000Y-11684000D01*
X11684000Y-13389000D02*
X11684000Y-13789000D01*
X11484000Y-13589000D02*
X11884000Y-13589000D01*
X13589000Y-5769000D02*
X13589000Y-6169000D01*
X13389000Y-5969000D02*
X13789000Y-5969000D01*
X13589000Y-7674000D02*
X13589000Y-8074000D01*
X13389000Y-7874000D02*
X13789000Y-7874000D01*
X13589000Y-9579000D02*
X13589000Y-9979000D01*
X13389000Y-9779000D02*
X13789000Y-9779000D01*
X13589000Y-11484000D02*
X13589000Y-11884000D01*
X13389000Y-11684000D02*
X13789000Y-11684000D01*
X13589000Y-13389000D02*
X13589000Y-13789000D01*
X13389000Y-13589000D02*
X13789000Y-13589000D01*
X15494000Y-5769000D02*
X15494000Y-6169000D01*
X15294000Y-5969000D02*
X15694000Y-5969000D01*
X15494000Y-7674000D02*
X15494000Y-8074000D01*
X15294000Y-7874000D02*
X15694000Y-7874000D01*
X15494000Y-9579000D02*
X15494000Y-9979000D01*
X15294000Y-9779000D02*
X15694000Y-9779000D01*
X15494000Y-11484000D02*
X15494000Y-11884000D01*
X15294000Y-11684000D02*
X15694000Y-11684000D01*
X15494000Y-13389000D02*
X15494000Y-13789000D01*
X15294000Y-13589000D02*
X15694000Y-13589000D01*
X17399000Y-5769000D02*
X17399000Y-6169000D01*
X17199000Y-5969000D02*
X17599000Y-5969000D01*
X17399000Y-7674000D02*
X17399000Y-8074000D01*
X17199000Y-7874000D02*
X17599000Y-7874000D01*
X17399000Y-9579000D02*
X17399000Y-9979000D01*
X17199000Y-9779000D02*
X17599000Y-9779000D01*
X17399000Y-11484000D02*
X17399000Y-11884000D01*
X17199000Y-11684000D02*
X17599000Y-11684000D01*
X17399000Y-13389000D02*
X17399000Y-13789000D01*
X17199000Y-13589000D02*
X17599000Y-13589000D01*
D10*
X9343777Y-14996244D02*
X9343777Y-14796244D01*
X9343777Y-14796244D02*
X9391396Y-14796244D01*
X9391396Y-14796244D02*
X9419967Y-14805768D01*
X9419967Y-14805768D02*
X9439015Y-14824815D01*
X9439015Y-14824815D02*
X9448539Y-14843863D01*
X9448539Y-14843863D02*
X9458063Y-14881958D01*
X9458063Y-14881958D02*
X9458063Y-14910530D01*
X9458063Y-14910530D02*
X9448539Y-14948625D01*
X9448539Y-14948625D02*
X9439015Y-14967672D01*
X9439015Y-14967672D02*
X9419967Y-14986720D01*
X9419967Y-14986720D02*
X9391396Y-14996244D01*
X9391396Y-14996244D02*
X9343777Y-14996244D01*
X9543777Y-14996244D02*
X9543777Y-14862911D01*
X9543777Y-14901006D02*
X9553301Y-14881958D01*
X9553301Y-14881958D02*
X9562824Y-14872434D01*
X9562824Y-14872434D02*
X9581872Y-14862911D01*
X9581872Y-14862911D02*
X9600920Y-14862911D01*
X9667586Y-14996244D02*
X9667586Y-14862911D01*
X9667586Y-14796244D02*
X9658063Y-14805768D01*
X9658063Y-14805768D02*
X9667586Y-14815292D01*
X9667586Y-14815292D02*
X9677110Y-14805768D01*
X9677110Y-14805768D02*
X9667586Y-14796244D01*
X9667586Y-14796244D02*
X9667586Y-14815292D01*
X9791396Y-14996244D02*
X9772348Y-14986720D01*
X9772348Y-14986720D02*
X9762824Y-14967672D01*
X9762824Y-14967672D02*
X9762824Y-14796244D01*
X9896158Y-14996244D02*
X9877110Y-14986720D01*
X9877110Y-14986720D02*
X9867586Y-14967672D01*
X9867586Y-14967672D02*
X9867586Y-14796244D01*
X10124729Y-14996244D02*
X10124729Y-14796244D01*
X10124729Y-14796244D02*
X10191396Y-14939101D01*
X10191396Y-14939101D02*
X10258063Y-14796244D01*
X10258063Y-14796244D02*
X10258063Y-14996244D01*
X10439015Y-14996244D02*
X10439015Y-14891482D01*
X10439015Y-14891482D02*
X10429491Y-14872434D01*
X10429491Y-14872434D02*
X10410444Y-14862911D01*
X10410444Y-14862911D02*
X10372348Y-14862911D01*
X10372348Y-14862911D02*
X10353301Y-14872434D01*
X10439015Y-14986720D02*
X10419967Y-14996244D01*
X10419967Y-14996244D02*
X10372348Y-14996244D01*
X10372348Y-14996244D02*
X10353301Y-14986720D01*
X10353301Y-14986720D02*
X10343777Y-14967672D01*
X10343777Y-14967672D02*
X10343777Y-14948625D01*
X10343777Y-14948625D02*
X10353301Y-14929577D01*
X10353301Y-14929577D02*
X10372348Y-14920053D01*
X10372348Y-14920053D02*
X10419967Y-14920053D01*
X10419967Y-14920053D02*
X10439015Y-14910530D01*
X10534253Y-14862911D02*
X10534253Y-15062911D01*
X10534253Y-14872434D02*
X10553301Y-14862911D01*
X10553301Y-14862911D02*
X10591396Y-14862911D01*
X10591396Y-14862911D02*
X10610444Y-14872434D01*
X10610444Y-14872434D02*
X10619967Y-14881958D01*
X10619967Y-14881958D02*
X10629491Y-14901006D01*
X10629491Y-14901006D02*
X10629491Y-14958149D01*
X10629491Y-14958149D02*
X10619967Y-14977196D01*
X10619967Y-14977196D02*
X10610444Y-14986720D01*
X10610444Y-14986720D02*
X10591396Y-14996244D01*
X10591396Y-14996244D02*
X10553301Y-14996244D01*
X10553301Y-14996244D02*
X10534253Y-14986720D01*
X10715205Y-14977196D02*
X10724729Y-14986720D01*
X10724729Y-14986720D02*
X10715205Y-14996244D01*
X10715205Y-14996244D02*
X10705682Y-14986720D01*
X10705682Y-14986720D02*
X10715205Y-14977196D01*
X10715205Y-14977196D02*
X10715205Y-14996244D01*
X10715205Y-14872434D02*
X10724729Y-14881958D01*
X10724729Y-14881958D02*
X10715205Y-14891482D01*
X10715205Y-14891482D02*
X10705682Y-14881958D01*
X10705682Y-14881958D02*
X10715205Y-14872434D01*
X10715205Y-14872434D02*
X10715205Y-14891482D01*
D12*
X8913000Y-15239760D02*
X9083000Y-15409760D01*
X9083000Y-15239760D02*
X8913000Y-15409760D01*
D10*
X9448539Y-15416244D02*
X9334253Y-15416244D01*
X9391396Y-15416244D02*
X9391396Y-15216244D01*
X9391396Y-15216244D02*
X9372348Y-15244815D01*
X9372348Y-15244815D02*
X9353301Y-15263863D01*
X9353301Y-15263863D02*
X9334253Y-15273387D01*
X9534253Y-15397196D02*
X9543777Y-15406720D01*
X9543777Y-15406720D02*
X9534253Y-15416244D01*
X9534253Y-15416244D02*
X9524729Y-15406720D01*
X9524729Y-15406720D02*
X9534253Y-15397196D01*
X9534253Y-15397196D02*
X9534253Y-15416244D01*
X9610444Y-15216244D02*
X9743777Y-15216244D01*
X9743777Y-15216244D02*
X9658063Y-15416244D01*
X9858063Y-15216244D02*
X9877110Y-15216244D01*
X9877110Y-15216244D02*
X9896158Y-15225768D01*
X9896158Y-15225768D02*
X9905682Y-15235292D01*
X9905682Y-15235292D02*
X9915205Y-15254339D01*
X9915205Y-15254339D02*
X9924729Y-15292434D01*
X9924729Y-15292434D02*
X9924729Y-15340053D01*
X9924729Y-15340053D02*
X9915205Y-15378149D01*
X9915205Y-15378149D02*
X9905682Y-15397196D01*
X9905682Y-15397196D02*
X9896158Y-15406720D01*
X9896158Y-15406720D02*
X9877110Y-15416244D01*
X9877110Y-15416244D02*
X9858063Y-15416244D01*
X9858063Y-15416244D02*
X9839015Y-15406720D01*
X9839015Y-15406720D02*
X9829491Y-15397196D01*
X9829491Y-15397196D02*
X9819967Y-15378149D01*
X9819967Y-15378149D02*
X9810444Y-15340053D01*
X9810444Y-15340053D02*
X9810444Y-15292434D01*
X9810444Y-15292434D02*
X9819967Y-15254339D01*
X9819967Y-15254339D02*
X9829491Y-15235292D01*
X9829491Y-15235292D02*
X9839015Y-15225768D01*
X9839015Y-15225768D02*
X9858063Y-15216244D01*
X10048539Y-15216244D02*
X10067586Y-15216244D01*
X10067586Y-15216244D02*
X10086634Y-15225768D01*
X10086634Y-15225768D02*
X10096158Y-15235292D01*
X10096158Y-15235292D02*
X10105682Y-15254339D01*
X10105682Y-15254339D02*
X10115205Y-15292434D01*
X10115205Y-15292434D02*
X10115205Y-15340053D01*
X10115205Y-15340053D02*
X10105682Y-15378149D01*
X10105682Y-15378149D02*
X10096158Y-15397196D01*
X10096158Y-15397196D02*
X10086634Y-15406720D01*
X10086634Y-15406720D02*
X10067586Y-15416244D01*
X10067586Y-15416244D02*
X10048539Y-15416244D01*
X10048539Y-15416244D02*
X10029491Y-15406720D01*
X10029491Y-15406720D02*
X10019967Y-15397196D01*
X10019967Y-15397196D02*
X10010444Y-15378149D01*
X10010444Y-15378149D02*
X10000920Y-15340053D01*
X10000920Y-15340053D02*
X10000920Y-15292434D01*
X10000920Y-15292434D02*
X10010444Y-15254339D01*
X10010444Y-15254339D02*
X10019967Y-15235292D01*
X10019967Y-15235292D02*
X10029491Y-15225768D01*
X10029491Y-15225768D02*
X10048539Y-15216244D01*
X10200920Y-15416244D02*
X10200920Y-15282911D01*
X10200920Y-15301958D02*
X10210444Y-15292434D01*
X10210444Y-15292434D02*
X10229491Y-15282911D01*
X10229491Y-15282911D02*
X10258063Y-15282911D01*
X10258063Y-15282911D02*
X10277110Y-15292434D01*
X10277110Y-15292434D02*
X10286634Y-15311482D01*
X10286634Y-15311482D02*
X10286634Y-15416244D01*
X10286634Y-15311482D02*
X10296158Y-15292434D01*
X10296158Y-15292434D02*
X10315205Y-15282911D01*
X10315205Y-15282911D02*
X10343777Y-15282911D01*
X10343777Y-15282911D02*
X10362825Y-15292434D01*
X10362825Y-15292434D02*
X10372348Y-15311482D01*
X10372348Y-15311482D02*
X10372348Y-15416244D01*
X10467586Y-15416244D02*
X10467586Y-15282911D01*
X10467586Y-15301958D02*
X10477110Y-15292434D01*
X10477110Y-15292434D02*
X10496158Y-15282911D01*
X10496158Y-15282911D02*
X10524729Y-15282911D01*
X10524729Y-15282911D02*
X10543777Y-15292434D01*
X10543777Y-15292434D02*
X10553301Y-15311482D01*
X10553301Y-15311482D02*
X10553301Y-15416244D01*
X10553301Y-15311482D02*
X10562825Y-15292434D01*
X10562825Y-15292434D02*
X10581872Y-15282911D01*
X10581872Y-15282911D02*
X10610444Y-15282911D01*
X10610444Y-15282911D02*
X10629491Y-15292434D01*
X10629491Y-15292434D02*
X10639015Y-15311482D01*
X10639015Y-15311482D02*
X10639015Y-15416244D01*
X11029491Y-15206720D02*
X10858063Y-15463863D01*
X11286634Y-15216244D02*
X11305682Y-15216244D01*
X11305682Y-15216244D02*
X11324729Y-15225768D01*
X11324729Y-15225768D02*
X11334253Y-15235292D01*
X11334253Y-15235292D02*
X11343777Y-15254339D01*
X11343777Y-15254339D02*
X11353301Y-15292434D01*
X11353301Y-15292434D02*
X11353301Y-15340053D01*
X11353301Y-15340053D02*
X11343777Y-15378149D01*
X11343777Y-15378149D02*
X11334253Y-15397196D01*
X11334253Y-15397196D02*
X11324729Y-15406720D01*
X11324729Y-15406720D02*
X11305682Y-15416244D01*
X11305682Y-15416244D02*
X11286634Y-15416244D01*
X11286634Y-15416244D02*
X11267586Y-15406720D01*
X11267586Y-15406720D02*
X11258063Y-15397196D01*
X11258063Y-15397196D02*
X11248539Y-15378149D01*
X11248539Y-15378149D02*
X11239015Y-15340053D01*
X11239015Y-15340053D02*
X11239015Y-15292434D01*
X11239015Y-15292434D02*
X11248539Y-15254339D01*
X11248539Y-15254339D02*
X11258063Y-15235292D01*
X11258063Y-15235292D02*
X11267586Y-15225768D01*
X11267586Y-15225768D02*
X11286634Y-15216244D01*
X11439015Y-15397196D02*
X11448539Y-15406720D01*
X11448539Y-15406720D02*
X11439015Y-15416244D01*
X11439015Y-15416244D02*
X11429491Y-15406720D01*
X11429491Y-15406720D02*
X11439015Y-15397196D01*
X11439015Y-15397196D02*
X11439015Y-15416244D01*
X11572348Y-15216244D02*
X11591396Y-15216244D01*
X11591396Y-15216244D02*
X11610444Y-15225768D01*
X11610444Y-15225768D02*
X11619967Y-15235292D01*
X11619967Y-15235292D02*
X11629491Y-15254339D01*
X11629491Y-15254339D02*
X11639015Y-15292434D01*
X11639015Y-15292434D02*
X11639015Y-15340053D01*
X11639015Y-15340053D02*
X11629491Y-15378149D01*
X11629491Y-15378149D02*
X11619967Y-15397196D01*
X11619967Y-15397196D02*
X11610444Y-15406720D01*
X11610444Y-15406720D02*
X11591396Y-15416244D01*
X11591396Y-15416244D02*
X11572348Y-15416244D01*
X11572348Y-15416244D02*
X11553301Y-15406720D01*
X11553301Y-15406720D02*
X11543777Y-15397196D01*
X11543777Y-15397196D02*
X11534253Y-15378149D01*
X11534253Y-15378149D02*
X11524729Y-15340053D01*
X11524729Y-15340053D02*
X11524729Y-15292434D01*
X11524729Y-15292434D02*
X11534253Y-15254339D01*
X11534253Y-15254339D02*
X11543777Y-15235292D01*
X11543777Y-15235292D02*
X11553301Y-15225768D01*
X11553301Y-15225768D02*
X11572348Y-15216244D01*
X11810444Y-15216244D02*
X11772348Y-15216244D01*
X11772348Y-15216244D02*
X11753301Y-15225768D01*
X11753301Y-15225768D02*
X11743777Y-15235292D01*
X11743777Y-15235292D02*
X11724729Y-15263863D01*
X11724729Y-15263863D02*
X11715206Y-15301958D01*
X11715206Y-15301958D02*
X11715206Y-15378149D01*
X11715206Y-15378149D02*
X11724729Y-15397196D01*
X11724729Y-15397196D02*
X11734253Y-15406720D01*
X11734253Y-15406720D02*
X11753301Y-15416244D01*
X11753301Y-15416244D02*
X11791396Y-15416244D01*
X11791396Y-15416244D02*
X11810444Y-15406720D01*
X11810444Y-15406720D02*
X11819967Y-15397196D01*
X11819967Y-15397196D02*
X11829491Y-15378149D01*
X11829491Y-15378149D02*
X11829491Y-15330530D01*
X11829491Y-15330530D02*
X11819967Y-15311482D01*
X11819967Y-15311482D02*
X11810444Y-15301958D01*
X11810444Y-15301958D02*
X11791396Y-15292434D01*
X11791396Y-15292434D02*
X11753301Y-15292434D01*
X11753301Y-15292434D02*
X11734253Y-15301958D01*
X11734253Y-15301958D02*
X11724729Y-15311482D01*
X11724729Y-15311482D02*
X11715206Y-15330530D01*
X12000920Y-15216244D02*
X11962825Y-15216244D01*
X11962825Y-15216244D02*
X11943777Y-15225768D01*
X11943777Y-15225768D02*
X11934253Y-15235292D01*
X11934253Y-15235292D02*
X11915206Y-15263863D01*
X11915206Y-15263863D02*
X11905682Y-15301958D01*
X11905682Y-15301958D02*
X11905682Y-15378149D01*
X11905682Y-15378149D02*
X11915206Y-15397196D01*
X11915206Y-15397196D02*
X11924729Y-15406720D01*
X11924729Y-15406720D02*
X11943777Y-15416244D01*
X11943777Y-15416244D02*
X11981872Y-15416244D01*
X11981872Y-15416244D02*
X12000920Y-15406720D01*
X12000920Y-15406720D02*
X12010444Y-15397196D01*
X12010444Y-15397196D02*
X12019967Y-15378149D01*
X12019967Y-15378149D02*
X12019967Y-15330530D01*
X12019967Y-15330530D02*
X12010444Y-15311482D01*
X12010444Y-15311482D02*
X12000920Y-15301958D01*
X12000920Y-15301958D02*
X11981872Y-15292434D01*
X11981872Y-15292434D02*
X11943777Y-15292434D01*
X11943777Y-15292434D02*
X11924729Y-15301958D01*
X11924729Y-15301958D02*
X11915206Y-15311482D01*
X11915206Y-15311482D02*
X11905682Y-15330530D01*
X12115206Y-15416244D02*
X12153301Y-15416244D01*
X12153301Y-15416244D02*
X12172348Y-15406720D01*
X12172348Y-15406720D02*
X12181872Y-15397196D01*
X12181872Y-15397196D02*
X12200920Y-15368625D01*
X12200920Y-15368625D02*
X12210444Y-15330530D01*
X12210444Y-15330530D02*
X12210444Y-15254339D01*
X12210444Y-15254339D02*
X12200920Y-15235292D01*
X12200920Y-15235292D02*
X12191396Y-15225768D01*
X12191396Y-15225768D02*
X12172348Y-15216244D01*
X12172348Y-15216244D02*
X12134253Y-15216244D01*
X12134253Y-15216244D02*
X12115206Y-15225768D01*
X12115206Y-15225768D02*
X12105682Y-15235292D01*
X12105682Y-15235292D02*
X12096158Y-15254339D01*
X12096158Y-15254339D02*
X12096158Y-15301958D01*
X12096158Y-15301958D02*
X12105682Y-15321006D01*
X12105682Y-15321006D02*
X12115206Y-15330530D01*
X12115206Y-15330530D02*
X12134253Y-15340053D01*
X12134253Y-15340053D02*
X12172348Y-15340053D01*
X12172348Y-15340053D02*
X12191396Y-15330530D01*
X12191396Y-15330530D02*
X12200920Y-15321006D01*
X12200920Y-15321006D02*
X12210444Y-15301958D01*
X12286634Y-15216244D02*
X12286634Y-15254339D01*
X12362825Y-15216244D02*
X12362825Y-15254339D01*
X12658063Y-15492434D02*
X12648539Y-15482911D01*
X12648539Y-15482911D02*
X12629491Y-15454339D01*
X12629491Y-15454339D02*
X12619968Y-15435292D01*
X12619968Y-15435292D02*
X12610444Y-15406720D01*
X12610444Y-15406720D02*
X12600920Y-15359101D01*
X12600920Y-15359101D02*
X12600920Y-15321006D01*
X12600920Y-15321006D02*
X12610444Y-15273387D01*
X12610444Y-15273387D02*
X12619968Y-15244815D01*
X12619968Y-15244815D02*
X12629491Y-15225768D01*
X12629491Y-15225768D02*
X12648539Y-15197196D01*
X12648539Y-15197196D02*
X12658063Y-15187672D01*
X12819968Y-15282911D02*
X12819968Y-15416244D01*
X12772348Y-15206720D02*
X12724729Y-15349577D01*
X12724729Y-15349577D02*
X12848539Y-15349577D01*
X12962825Y-15216244D02*
X12981872Y-15216244D01*
X12981872Y-15216244D02*
X13000920Y-15225768D01*
X13000920Y-15225768D02*
X13010444Y-15235292D01*
X13010444Y-15235292D02*
X13019968Y-15254339D01*
X13019968Y-15254339D02*
X13029491Y-15292434D01*
X13029491Y-15292434D02*
X13029491Y-15340053D01*
X13029491Y-15340053D02*
X13019968Y-15378149D01*
X13019968Y-15378149D02*
X13010444Y-15397196D01*
X13010444Y-15397196D02*
X13000920Y-15406720D01*
X13000920Y-15406720D02*
X12981872Y-15416244D01*
X12981872Y-15416244D02*
X12962825Y-15416244D01*
X12962825Y-15416244D02*
X12943777Y-15406720D01*
X12943777Y-15406720D02*
X12934253Y-15397196D01*
X12934253Y-15397196D02*
X12924729Y-15378149D01*
X12924729Y-15378149D02*
X12915206Y-15340053D01*
X12915206Y-15340053D02*
X12915206Y-15292434D01*
X12915206Y-15292434D02*
X12924729Y-15254339D01*
X12924729Y-15254339D02*
X12934253Y-15235292D01*
X12934253Y-15235292D02*
X12943777Y-15225768D01*
X12943777Y-15225768D02*
X12962825Y-15216244D01*
X13267587Y-15416244D02*
X13267587Y-15216244D01*
X13353301Y-15416244D02*
X13353301Y-15311482D01*
X13353301Y-15311482D02*
X13343777Y-15292434D01*
X13343777Y-15292434D02*
X13324730Y-15282911D01*
X13324730Y-15282911D02*
X13296158Y-15282911D01*
X13296158Y-15282911D02*
X13277110Y-15292434D01*
X13277110Y-15292434D02*
X13267587Y-15301958D01*
X13477110Y-15416244D02*
X13458063Y-15406720D01*
X13458063Y-15406720D02*
X13448539Y-15397196D01*
X13448539Y-15397196D02*
X13439015Y-15378149D01*
X13439015Y-15378149D02*
X13439015Y-15321006D01*
X13439015Y-15321006D02*
X13448539Y-15301958D01*
X13448539Y-15301958D02*
X13458063Y-15292434D01*
X13458063Y-15292434D02*
X13477110Y-15282911D01*
X13477110Y-15282911D02*
X13505682Y-15282911D01*
X13505682Y-15282911D02*
X13524730Y-15292434D01*
X13524730Y-15292434D02*
X13534253Y-15301958D01*
X13534253Y-15301958D02*
X13543777Y-15321006D01*
X13543777Y-15321006D02*
X13543777Y-15378149D01*
X13543777Y-15378149D02*
X13534253Y-15397196D01*
X13534253Y-15397196D02*
X13524730Y-15406720D01*
X13524730Y-15406720D02*
X13505682Y-15416244D01*
X13505682Y-15416244D02*
X13477110Y-15416244D01*
X13658063Y-15416244D02*
X13639015Y-15406720D01*
X13639015Y-15406720D02*
X13629491Y-15387672D01*
X13629491Y-15387672D02*
X13629491Y-15216244D01*
X13810444Y-15406720D02*
X13791396Y-15416244D01*
X13791396Y-15416244D02*
X13753301Y-15416244D01*
X13753301Y-15416244D02*
X13734253Y-15406720D01*
X13734253Y-15406720D02*
X13724730Y-15387672D01*
X13724730Y-15387672D02*
X13724730Y-15311482D01*
X13724730Y-15311482D02*
X13734253Y-15292434D01*
X13734253Y-15292434D02*
X13753301Y-15282911D01*
X13753301Y-15282911D02*
X13791396Y-15282911D01*
X13791396Y-15282911D02*
X13810444Y-15292434D01*
X13810444Y-15292434D02*
X13819968Y-15311482D01*
X13819968Y-15311482D02*
X13819968Y-15330530D01*
X13819968Y-15330530D02*
X13724730Y-15349577D01*
X13896158Y-15406720D02*
X13915206Y-15416244D01*
X13915206Y-15416244D02*
X13953301Y-15416244D01*
X13953301Y-15416244D02*
X13972349Y-15406720D01*
X13972349Y-15406720D02*
X13981872Y-15387672D01*
X13981872Y-15387672D02*
X13981872Y-15378149D01*
X13981872Y-15378149D02*
X13972349Y-15359101D01*
X13972349Y-15359101D02*
X13953301Y-15349577D01*
X13953301Y-15349577D02*
X13924730Y-15349577D01*
X13924730Y-15349577D02*
X13905682Y-15340053D01*
X13905682Y-15340053D02*
X13896158Y-15321006D01*
X13896158Y-15321006D02*
X13896158Y-15311482D01*
X13896158Y-15311482D02*
X13905682Y-15292434D01*
X13905682Y-15292434D02*
X13924730Y-15282911D01*
X13924730Y-15282911D02*
X13953301Y-15282911D01*
X13953301Y-15282911D02*
X13972349Y-15292434D01*
X14048539Y-15492434D02*
X14058063Y-15482911D01*
X14058063Y-15482911D02*
X14077111Y-15454339D01*
X14077111Y-15454339D02*
X14086634Y-15435292D01*
X14086634Y-15435292D02*
X14096158Y-15406720D01*
X14096158Y-15406720D02*
X14105682Y-15359101D01*
X14105682Y-15359101D02*
X14105682Y-15321006D01*
X14105682Y-15321006D02*
X14096158Y-15273387D01*
X14096158Y-15273387D02*
X14086634Y-15244815D01*
X14086634Y-15244815D02*
X14077111Y-15225768D01*
X14077111Y-15225768D02*
X14058063Y-15197196D01*
X14058063Y-15197196D02*
X14048539Y-15187672D01*
X14410444Y-15492434D02*
X14400920Y-15482911D01*
X14400920Y-15482911D02*
X14381872Y-15454339D01*
X14381872Y-15454339D02*
X14372349Y-15435292D01*
X14372349Y-15435292D02*
X14362825Y-15406720D01*
X14362825Y-15406720D02*
X14353301Y-15359101D01*
X14353301Y-15359101D02*
X14353301Y-15321006D01*
X14353301Y-15321006D02*
X14362825Y-15273387D01*
X14362825Y-15273387D02*
X14372349Y-15244815D01*
X14372349Y-15244815D02*
X14381872Y-15225768D01*
X14381872Y-15225768D02*
X14400920Y-15197196D01*
X14400920Y-15197196D02*
X14410444Y-15187672D01*
X14486634Y-15282911D02*
X14486634Y-15416244D01*
X14486634Y-15301958D02*
X14496158Y-15292434D01*
X14496158Y-15292434D02*
X14515206Y-15282911D01*
X14515206Y-15282911D02*
X14543777Y-15282911D01*
X14543777Y-15282911D02*
X14562825Y-15292434D01*
X14562825Y-15292434D02*
X14572349Y-15311482D01*
X14572349Y-15311482D02*
X14572349Y-15416244D01*
X14696158Y-15416244D02*
X14677111Y-15406720D01*
X14677111Y-15406720D02*
X14667587Y-15397196D01*
X14667587Y-15397196D02*
X14658063Y-15378149D01*
X14658063Y-15378149D02*
X14658063Y-15321006D01*
X14658063Y-15321006D02*
X14667587Y-15301958D01*
X14667587Y-15301958D02*
X14677111Y-15292434D01*
X14677111Y-15292434D02*
X14696158Y-15282911D01*
X14696158Y-15282911D02*
X14724730Y-15282911D01*
X14724730Y-15282911D02*
X14743777Y-15292434D01*
X14743777Y-15292434D02*
X14753301Y-15301958D01*
X14753301Y-15301958D02*
X14762825Y-15321006D01*
X14762825Y-15321006D02*
X14762825Y-15378149D01*
X14762825Y-15378149D02*
X14753301Y-15397196D01*
X14753301Y-15397196D02*
X14743777Y-15406720D01*
X14743777Y-15406720D02*
X14724730Y-15416244D01*
X14724730Y-15416244D02*
X14696158Y-15416244D01*
X14819968Y-15282911D02*
X14896158Y-15282911D01*
X14848539Y-15216244D02*
X14848539Y-15387672D01*
X14848539Y-15387672D02*
X14858063Y-15406720D01*
X14858063Y-15406720D02*
X14877111Y-15416244D01*
X14877111Y-15416244D02*
X14896158Y-15416244D01*
X15115206Y-15282911D02*
X15115206Y-15482911D01*
X15115206Y-15292434D02*
X15134253Y-15282911D01*
X15134253Y-15282911D02*
X15172349Y-15282911D01*
X15172349Y-15282911D02*
X15191396Y-15292434D01*
X15191396Y-15292434D02*
X15200920Y-15301958D01*
X15200920Y-15301958D02*
X15210444Y-15321006D01*
X15210444Y-15321006D02*
X15210444Y-15378149D01*
X15210444Y-15378149D02*
X15200920Y-15397196D01*
X15200920Y-15397196D02*
X15191396Y-15406720D01*
X15191396Y-15406720D02*
X15172349Y-15416244D01*
X15172349Y-15416244D02*
X15134253Y-15416244D01*
X15134253Y-15416244D02*
X15115206Y-15406720D01*
X15324730Y-15416244D02*
X15305682Y-15406720D01*
X15305682Y-15406720D02*
X15296158Y-15387672D01*
X15296158Y-15387672D02*
X15296158Y-15216244D01*
X15486634Y-15416244D02*
X15486634Y-15311482D01*
X15486634Y-15311482D02*
X15477111Y-15292434D01*
X15477111Y-15292434D02*
X15458063Y-15282911D01*
X15458063Y-15282911D02*
X15419968Y-15282911D01*
X15419968Y-15282911D02*
X15400920Y-15292434D01*
X15486634Y-15406720D02*
X15467587Y-15416244D01*
X15467587Y-15416244D02*
X15419968Y-15416244D01*
X15419968Y-15416244D02*
X15400920Y-15406720D01*
X15400920Y-15406720D02*
X15391396Y-15387672D01*
X15391396Y-15387672D02*
X15391396Y-15368625D01*
X15391396Y-15368625D02*
X15400920Y-15349577D01*
X15400920Y-15349577D02*
X15419968Y-15340053D01*
X15419968Y-15340053D02*
X15467587Y-15340053D01*
X15467587Y-15340053D02*
X15486634Y-15330530D01*
X15553301Y-15282911D02*
X15629492Y-15282911D01*
X15581873Y-15216244D02*
X15581873Y-15387672D01*
X15581873Y-15387672D02*
X15591396Y-15406720D01*
X15591396Y-15406720D02*
X15610444Y-15416244D01*
X15610444Y-15416244D02*
X15629492Y-15416244D01*
X15772349Y-15406720D02*
X15753301Y-15416244D01*
X15753301Y-15416244D02*
X15715206Y-15416244D01*
X15715206Y-15416244D02*
X15696158Y-15406720D01*
X15696158Y-15406720D02*
X15686634Y-15387672D01*
X15686634Y-15387672D02*
X15686634Y-15311482D01*
X15686634Y-15311482D02*
X15696158Y-15292434D01*
X15696158Y-15292434D02*
X15715206Y-15282911D01*
X15715206Y-15282911D02*
X15753301Y-15282911D01*
X15753301Y-15282911D02*
X15772349Y-15292434D01*
X15772349Y-15292434D02*
X15781873Y-15311482D01*
X15781873Y-15311482D02*
X15781873Y-15330530D01*
X15781873Y-15330530D02*
X15686634Y-15349577D01*
X15953301Y-15416244D02*
X15953301Y-15216244D01*
X15953301Y-15406720D02*
X15934254Y-15416244D01*
X15934254Y-15416244D02*
X15896158Y-15416244D01*
X15896158Y-15416244D02*
X15877111Y-15406720D01*
X15877111Y-15406720D02*
X15867587Y-15397196D01*
X15867587Y-15397196D02*
X15858063Y-15378149D01*
X15858063Y-15378149D02*
X15858063Y-15321006D01*
X15858063Y-15321006D02*
X15867587Y-15301958D01*
X15867587Y-15301958D02*
X15877111Y-15292434D01*
X15877111Y-15292434D02*
X15896158Y-15282911D01*
X15896158Y-15282911D02*
X15934254Y-15282911D01*
X15934254Y-15282911D02*
X15953301Y-15292434D01*
X16029492Y-15492434D02*
X16039015Y-15482911D01*
X16039015Y-15482911D02*
X16058063Y-15454339D01*
X16058063Y-15454339D02*
X16067587Y-15435292D01*
X16067587Y-15435292D02*
X16077111Y-15406720D01*
X16077111Y-15406720D02*
X16086634Y-15359101D01*
X16086634Y-15359101D02*
X16086634Y-15321006D01*
X16086634Y-15321006D02*
X16077111Y-15273387D01*
X16077111Y-15273387D02*
X16067587Y-15244815D01*
X16067587Y-15244815D02*
X16058063Y-15225768D01*
X16058063Y-15225768D02*
X16039015Y-15197196D01*
X16039015Y-15197196D02*
X16029492Y-15187672D01*
X9083000Y-15614760D02*
G75*
G02*
X8883000Y-15614760I-100000J0D01*
G01*
X8883000Y-15614760D02*
G75*
G02*
X9083000Y-15614760I100000J0D01*
G01*
X9334253Y-15525292D02*
X9343777Y-15515768D01*
X9343777Y-15515768D02*
X9362824Y-15506244D01*
X9362824Y-15506244D02*
X9410444Y-15506244D01*
X9410444Y-15506244D02*
X9429491Y-15515768D01*
X9429491Y-15515768D02*
X9439015Y-15525292D01*
X9439015Y-15525292D02*
X9448539Y-15544339D01*
X9448539Y-15544339D02*
X9448539Y-15563387D01*
X9448539Y-15563387D02*
X9439015Y-15591958D01*
X9439015Y-15591958D02*
X9324729Y-15706244D01*
X9324729Y-15706244D02*
X9448539Y-15706244D01*
X9534253Y-15687196D02*
X9543777Y-15696720D01*
X9543777Y-15696720D02*
X9534253Y-15706244D01*
X9534253Y-15706244D02*
X9524729Y-15696720D01*
X9524729Y-15696720D02*
X9534253Y-15687196D01*
X9534253Y-15687196D02*
X9534253Y-15706244D01*
X9619967Y-15525292D02*
X9629491Y-15515768D01*
X9629491Y-15515768D02*
X9648539Y-15506244D01*
X9648539Y-15506244D02*
X9696158Y-15506244D01*
X9696158Y-15506244D02*
X9715205Y-15515768D01*
X9715205Y-15515768D02*
X9724729Y-15525292D01*
X9724729Y-15525292D02*
X9734253Y-15544339D01*
X9734253Y-15544339D02*
X9734253Y-15563387D01*
X9734253Y-15563387D02*
X9724729Y-15591958D01*
X9724729Y-15591958D02*
X9610444Y-15706244D01*
X9610444Y-15706244D02*
X9734253Y-15706244D01*
X9858063Y-15506244D02*
X9877110Y-15506244D01*
X9877110Y-15506244D02*
X9896158Y-15515768D01*
X9896158Y-15515768D02*
X9905682Y-15525292D01*
X9905682Y-15525292D02*
X9915205Y-15544339D01*
X9915205Y-15544339D02*
X9924729Y-15582434D01*
X9924729Y-15582434D02*
X9924729Y-15630053D01*
X9924729Y-15630053D02*
X9915205Y-15668149D01*
X9915205Y-15668149D02*
X9905682Y-15687196D01*
X9905682Y-15687196D02*
X9896158Y-15696720D01*
X9896158Y-15696720D02*
X9877110Y-15706244D01*
X9877110Y-15706244D02*
X9858063Y-15706244D01*
X9858063Y-15706244D02*
X9839015Y-15696720D01*
X9839015Y-15696720D02*
X9829491Y-15687196D01*
X9829491Y-15687196D02*
X9819967Y-15668149D01*
X9819967Y-15668149D02*
X9810444Y-15630053D01*
X9810444Y-15630053D02*
X9810444Y-15582434D01*
X9810444Y-15582434D02*
X9819967Y-15544339D01*
X9819967Y-15544339D02*
X9829491Y-15525292D01*
X9829491Y-15525292D02*
X9839015Y-15515768D01*
X9839015Y-15515768D02*
X9858063Y-15506244D01*
X10048539Y-15506244D02*
X10067586Y-15506244D01*
X10067586Y-15506244D02*
X10086634Y-15515768D01*
X10086634Y-15515768D02*
X10096158Y-15525292D01*
X10096158Y-15525292D02*
X10105682Y-15544339D01*
X10105682Y-15544339D02*
X10115205Y-15582434D01*
X10115205Y-15582434D02*
X10115205Y-15630053D01*
X10115205Y-15630053D02*
X10105682Y-15668149D01*
X10105682Y-15668149D02*
X10096158Y-15687196D01*
X10096158Y-15687196D02*
X10086634Y-15696720D01*
X10086634Y-15696720D02*
X10067586Y-15706244D01*
X10067586Y-15706244D02*
X10048539Y-15706244D01*
X10048539Y-15706244D02*
X10029491Y-15696720D01*
X10029491Y-15696720D02*
X10019967Y-15687196D01*
X10019967Y-15687196D02*
X10010444Y-15668149D01*
X10010444Y-15668149D02*
X10000920Y-15630053D01*
X10000920Y-15630053D02*
X10000920Y-15582434D01*
X10000920Y-15582434D02*
X10010444Y-15544339D01*
X10010444Y-15544339D02*
X10019967Y-15525292D01*
X10019967Y-15525292D02*
X10029491Y-15515768D01*
X10029491Y-15515768D02*
X10048539Y-15506244D01*
X10200920Y-15706244D02*
X10200920Y-15572911D01*
X10200920Y-15591958D02*
X10210444Y-15582434D01*
X10210444Y-15582434D02*
X10229491Y-15572911D01*
X10229491Y-15572911D02*
X10258063Y-15572911D01*
X10258063Y-15572911D02*
X10277110Y-15582434D01*
X10277110Y-15582434D02*
X10286634Y-15601482D01*
X10286634Y-15601482D02*
X10286634Y-15706244D01*
X10286634Y-15601482D02*
X10296158Y-15582434D01*
X10296158Y-15582434D02*
X10315205Y-15572911D01*
X10315205Y-15572911D02*
X10343777Y-15572911D01*
X10343777Y-15572911D02*
X10362825Y-15582434D01*
X10362825Y-15582434D02*
X10372348Y-15601482D01*
X10372348Y-15601482D02*
X10372348Y-15706244D01*
X10467586Y-15706244D02*
X10467586Y-15572911D01*
X10467586Y-15591958D02*
X10477110Y-15582434D01*
X10477110Y-15582434D02*
X10496158Y-15572911D01*
X10496158Y-15572911D02*
X10524729Y-15572911D01*
X10524729Y-15572911D02*
X10543777Y-15582434D01*
X10543777Y-15582434D02*
X10553301Y-15601482D01*
X10553301Y-15601482D02*
X10553301Y-15706244D01*
X10553301Y-15601482D02*
X10562825Y-15582434D01*
X10562825Y-15582434D02*
X10581872Y-15572911D01*
X10581872Y-15572911D02*
X10610444Y-15572911D01*
X10610444Y-15572911D02*
X10629491Y-15582434D01*
X10629491Y-15582434D02*
X10639015Y-15601482D01*
X10639015Y-15601482D02*
X10639015Y-15706244D01*
X11029491Y-15496720D02*
X10858063Y-15753863D01*
X11286634Y-15506244D02*
X11305682Y-15506244D01*
X11305682Y-15506244D02*
X11324729Y-15515768D01*
X11324729Y-15515768D02*
X11334253Y-15525292D01*
X11334253Y-15525292D02*
X11343777Y-15544339D01*
X11343777Y-15544339D02*
X11353301Y-15582434D01*
X11353301Y-15582434D02*
X11353301Y-15630053D01*
X11353301Y-15630053D02*
X11343777Y-15668149D01*
X11343777Y-15668149D02*
X11334253Y-15687196D01*
X11334253Y-15687196D02*
X11324729Y-15696720D01*
X11324729Y-15696720D02*
X11305682Y-15706244D01*
X11305682Y-15706244D02*
X11286634Y-15706244D01*
X11286634Y-15706244D02*
X11267586Y-15696720D01*
X11267586Y-15696720D02*
X11258063Y-15687196D01*
X11258063Y-15687196D02*
X11248539Y-15668149D01*
X11248539Y-15668149D02*
X11239015Y-15630053D01*
X11239015Y-15630053D02*
X11239015Y-15582434D01*
X11239015Y-15582434D02*
X11248539Y-15544339D01*
X11248539Y-15544339D02*
X11258063Y-15525292D01*
X11258063Y-15525292D02*
X11267586Y-15515768D01*
X11267586Y-15515768D02*
X11286634Y-15506244D01*
X11439015Y-15687196D02*
X11448539Y-15696720D01*
X11448539Y-15696720D02*
X11439015Y-15706244D01*
X11439015Y-15706244D02*
X11429491Y-15696720D01*
X11429491Y-15696720D02*
X11439015Y-15687196D01*
X11439015Y-15687196D02*
X11439015Y-15706244D01*
X11572348Y-15506244D02*
X11591396Y-15506244D01*
X11591396Y-15506244D02*
X11610444Y-15515768D01*
X11610444Y-15515768D02*
X11619967Y-15525292D01*
X11619967Y-15525292D02*
X11629491Y-15544339D01*
X11629491Y-15544339D02*
X11639015Y-15582434D01*
X11639015Y-15582434D02*
X11639015Y-15630053D01*
X11639015Y-15630053D02*
X11629491Y-15668149D01*
X11629491Y-15668149D02*
X11619967Y-15687196D01*
X11619967Y-15687196D02*
X11610444Y-15696720D01*
X11610444Y-15696720D02*
X11591396Y-15706244D01*
X11591396Y-15706244D02*
X11572348Y-15706244D01*
X11572348Y-15706244D02*
X11553301Y-15696720D01*
X11553301Y-15696720D02*
X11543777Y-15687196D01*
X11543777Y-15687196D02*
X11534253Y-15668149D01*
X11534253Y-15668149D02*
X11524729Y-15630053D01*
X11524729Y-15630053D02*
X11524729Y-15582434D01*
X11524729Y-15582434D02*
X11534253Y-15544339D01*
X11534253Y-15544339D02*
X11543777Y-15525292D01*
X11543777Y-15525292D02*
X11553301Y-15515768D01*
X11553301Y-15515768D02*
X11572348Y-15506244D01*
X11753301Y-15591958D02*
X11734253Y-15582434D01*
X11734253Y-15582434D02*
X11724729Y-15572911D01*
X11724729Y-15572911D02*
X11715206Y-15553863D01*
X11715206Y-15553863D02*
X11715206Y-15544339D01*
X11715206Y-15544339D02*
X11724729Y-15525292D01*
X11724729Y-15525292D02*
X11734253Y-15515768D01*
X11734253Y-15515768D02*
X11753301Y-15506244D01*
X11753301Y-15506244D02*
X11791396Y-15506244D01*
X11791396Y-15506244D02*
X11810444Y-15515768D01*
X11810444Y-15515768D02*
X11819967Y-15525292D01*
X11819967Y-15525292D02*
X11829491Y-15544339D01*
X11829491Y-15544339D02*
X11829491Y-15553863D01*
X11829491Y-15553863D02*
X11819967Y-15572911D01*
X11819967Y-15572911D02*
X11810444Y-15582434D01*
X11810444Y-15582434D02*
X11791396Y-15591958D01*
X11791396Y-15591958D02*
X11753301Y-15591958D01*
X11753301Y-15591958D02*
X11734253Y-15601482D01*
X11734253Y-15601482D02*
X11724729Y-15611006D01*
X11724729Y-15611006D02*
X11715206Y-15630053D01*
X11715206Y-15630053D02*
X11715206Y-15668149D01*
X11715206Y-15668149D02*
X11724729Y-15687196D01*
X11724729Y-15687196D02*
X11734253Y-15696720D01*
X11734253Y-15696720D02*
X11753301Y-15706244D01*
X11753301Y-15706244D02*
X11791396Y-15706244D01*
X11791396Y-15706244D02*
X11810444Y-15696720D01*
X11810444Y-15696720D02*
X11819967Y-15687196D01*
X11819967Y-15687196D02*
X11829491Y-15668149D01*
X11829491Y-15668149D02*
X11829491Y-15630053D01*
X11829491Y-15630053D02*
X11819967Y-15611006D01*
X11819967Y-15611006D02*
X11810444Y-15601482D01*
X11810444Y-15601482D02*
X11791396Y-15591958D01*
X12000920Y-15506244D02*
X11962825Y-15506244D01*
X11962825Y-15506244D02*
X11943777Y-15515768D01*
X11943777Y-15515768D02*
X11934253Y-15525292D01*
X11934253Y-15525292D02*
X11915206Y-15553863D01*
X11915206Y-15553863D02*
X11905682Y-15591958D01*
X11905682Y-15591958D02*
X11905682Y-15668149D01*
X11905682Y-15668149D02*
X11915206Y-15687196D01*
X11915206Y-15687196D02*
X11924729Y-15696720D01*
X11924729Y-15696720D02*
X11943777Y-15706244D01*
X11943777Y-15706244D02*
X11981872Y-15706244D01*
X11981872Y-15706244D02*
X12000920Y-15696720D01*
X12000920Y-15696720D02*
X12010444Y-15687196D01*
X12010444Y-15687196D02*
X12019967Y-15668149D01*
X12019967Y-15668149D02*
X12019967Y-15620530D01*
X12019967Y-15620530D02*
X12010444Y-15601482D01*
X12010444Y-15601482D02*
X12000920Y-15591958D01*
X12000920Y-15591958D02*
X11981872Y-15582434D01*
X11981872Y-15582434D02*
X11943777Y-15582434D01*
X11943777Y-15582434D02*
X11924729Y-15591958D01*
X11924729Y-15591958D02*
X11915206Y-15601482D01*
X11915206Y-15601482D02*
X11905682Y-15620530D01*
X12191396Y-15506244D02*
X12153301Y-15506244D01*
X12153301Y-15506244D02*
X12134253Y-15515768D01*
X12134253Y-15515768D02*
X12124729Y-15525292D01*
X12124729Y-15525292D02*
X12105682Y-15553863D01*
X12105682Y-15553863D02*
X12096158Y-15591958D01*
X12096158Y-15591958D02*
X12096158Y-15668149D01*
X12096158Y-15668149D02*
X12105682Y-15687196D01*
X12105682Y-15687196D02*
X12115206Y-15696720D01*
X12115206Y-15696720D02*
X12134253Y-15706244D01*
X12134253Y-15706244D02*
X12172348Y-15706244D01*
X12172348Y-15706244D02*
X12191396Y-15696720D01*
X12191396Y-15696720D02*
X12200920Y-15687196D01*
X12200920Y-15687196D02*
X12210444Y-15668149D01*
X12210444Y-15668149D02*
X12210444Y-15620530D01*
X12210444Y-15620530D02*
X12200920Y-15601482D01*
X12200920Y-15601482D02*
X12191396Y-15591958D01*
X12191396Y-15591958D02*
X12172348Y-15582434D01*
X12172348Y-15582434D02*
X12134253Y-15582434D01*
X12134253Y-15582434D02*
X12115206Y-15591958D01*
X12115206Y-15591958D02*
X12105682Y-15601482D01*
X12105682Y-15601482D02*
X12096158Y-15620530D01*
X12286634Y-15506244D02*
X12286634Y-15544339D01*
X12362825Y-15506244D02*
X12362825Y-15544339D01*
X12658063Y-15782434D02*
X12648539Y-15772911D01*
X12648539Y-15772911D02*
X12629491Y-15744339D01*
X12629491Y-15744339D02*
X12619968Y-15725292D01*
X12619968Y-15725292D02*
X12610444Y-15696720D01*
X12610444Y-15696720D02*
X12600920Y-15649101D01*
X12600920Y-15649101D02*
X12600920Y-15611006D01*
X12600920Y-15611006D02*
X12610444Y-15563387D01*
X12610444Y-15563387D02*
X12619968Y-15534815D01*
X12619968Y-15534815D02*
X12629491Y-15515768D01*
X12629491Y-15515768D02*
X12648539Y-15487196D01*
X12648539Y-15487196D02*
X12658063Y-15477672D01*
X12819968Y-15572911D02*
X12819968Y-15706244D01*
X12772348Y-15496720D02*
X12724729Y-15639577D01*
X12724729Y-15639577D02*
X12848539Y-15639577D01*
X13077110Y-15706244D02*
X13077110Y-15506244D01*
X13162825Y-15706244D02*
X13162825Y-15601482D01*
X13162825Y-15601482D02*
X13153301Y-15582434D01*
X13153301Y-15582434D02*
X13134253Y-15572911D01*
X13134253Y-15572911D02*
X13105682Y-15572911D01*
X13105682Y-15572911D02*
X13086634Y-15582434D01*
X13086634Y-15582434D02*
X13077110Y-15591958D01*
X13286634Y-15706244D02*
X13267587Y-15696720D01*
X13267587Y-15696720D02*
X13258063Y-15687196D01*
X13258063Y-15687196D02*
X13248539Y-15668149D01*
X13248539Y-15668149D02*
X13248539Y-15611006D01*
X13248539Y-15611006D02*
X13258063Y-15591958D01*
X13258063Y-15591958D02*
X13267587Y-15582434D01*
X13267587Y-15582434D02*
X13286634Y-15572911D01*
X13286634Y-15572911D02*
X13315206Y-15572911D01*
X13315206Y-15572911D02*
X13334253Y-15582434D01*
X13334253Y-15582434D02*
X13343777Y-15591958D01*
X13343777Y-15591958D02*
X13353301Y-15611006D01*
X13353301Y-15611006D02*
X13353301Y-15668149D01*
X13353301Y-15668149D02*
X13343777Y-15687196D01*
X13343777Y-15687196D02*
X13334253Y-15696720D01*
X13334253Y-15696720D02*
X13315206Y-15706244D01*
X13315206Y-15706244D02*
X13286634Y-15706244D01*
X13467587Y-15706244D02*
X13448539Y-15696720D01*
X13448539Y-15696720D02*
X13439015Y-15677672D01*
X13439015Y-15677672D02*
X13439015Y-15506244D01*
X13619968Y-15696720D02*
X13600920Y-15706244D01*
X13600920Y-15706244D02*
X13562825Y-15706244D01*
X13562825Y-15706244D02*
X13543777Y-15696720D01*
X13543777Y-15696720D02*
X13534253Y-15677672D01*
X13534253Y-15677672D02*
X13534253Y-15601482D01*
X13534253Y-15601482D02*
X13543777Y-15582434D01*
X13543777Y-15582434D02*
X13562825Y-15572911D01*
X13562825Y-15572911D02*
X13600920Y-15572911D01*
X13600920Y-15572911D02*
X13619968Y-15582434D01*
X13619968Y-15582434D02*
X13629491Y-15601482D01*
X13629491Y-15601482D02*
X13629491Y-15620530D01*
X13629491Y-15620530D02*
X13534253Y-15639577D01*
X13705682Y-15696720D02*
X13724730Y-15706244D01*
X13724730Y-15706244D02*
X13762825Y-15706244D01*
X13762825Y-15706244D02*
X13781872Y-15696720D01*
X13781872Y-15696720D02*
X13791396Y-15677672D01*
X13791396Y-15677672D02*
X13791396Y-15668149D01*
X13791396Y-15668149D02*
X13781872Y-15649101D01*
X13781872Y-15649101D02*
X13762825Y-15639577D01*
X13762825Y-15639577D02*
X13734253Y-15639577D01*
X13734253Y-15639577D02*
X13715206Y-15630053D01*
X13715206Y-15630053D02*
X13705682Y-15611006D01*
X13705682Y-15611006D02*
X13705682Y-15601482D01*
X13705682Y-15601482D02*
X13715206Y-15582434D01*
X13715206Y-15582434D02*
X13734253Y-15572911D01*
X13734253Y-15572911D02*
X13762825Y-15572911D01*
X13762825Y-15572911D02*
X13781872Y-15582434D01*
X13858063Y-15782434D02*
X13867587Y-15772911D01*
X13867587Y-15772911D02*
X13886634Y-15744339D01*
X13886634Y-15744339D02*
X13896158Y-15725292D01*
X13896158Y-15725292D02*
X13905682Y-15696720D01*
X13905682Y-15696720D02*
X13915206Y-15649101D01*
X13915206Y-15649101D02*
X13915206Y-15611006D01*
X13915206Y-15611006D02*
X13905682Y-15563387D01*
X13905682Y-15563387D02*
X13896158Y-15534815D01*
X13896158Y-15534815D02*
X13886634Y-15515768D01*
X13886634Y-15515768D02*
X13867587Y-15487196D01*
X13867587Y-15487196D02*
X13858063Y-15477672D01*
X14219968Y-15782434D02*
X14210444Y-15772911D01*
X14210444Y-15772911D02*
X14191396Y-15744339D01*
X14191396Y-15744339D02*
X14181872Y-15725292D01*
X14181872Y-15725292D02*
X14172349Y-15696720D01*
X14172349Y-15696720D02*
X14162825Y-15649101D01*
X14162825Y-15649101D02*
X14162825Y-15611006D01*
X14162825Y-15611006D02*
X14172349Y-15563387D01*
X14172349Y-15563387D02*
X14181872Y-15534815D01*
X14181872Y-15534815D02*
X14191396Y-15515768D01*
X14191396Y-15515768D02*
X14210444Y-15487196D01*
X14210444Y-15487196D02*
X14219968Y-15477672D01*
X14296158Y-15572911D02*
X14296158Y-15706244D01*
X14296158Y-15591958D02*
X14305682Y-15582434D01*
X14305682Y-15582434D02*
X14324730Y-15572911D01*
X14324730Y-15572911D02*
X14353301Y-15572911D01*
X14353301Y-15572911D02*
X14372349Y-15582434D01*
X14372349Y-15582434D02*
X14381872Y-15601482D01*
X14381872Y-15601482D02*
X14381872Y-15706244D01*
X14505682Y-15706244D02*
X14486634Y-15696720D01*
X14486634Y-15696720D02*
X14477111Y-15687196D01*
X14477111Y-15687196D02*
X14467587Y-15668149D01*
X14467587Y-15668149D02*
X14467587Y-15611006D01*
X14467587Y-15611006D02*
X14477111Y-15591958D01*
X14477111Y-15591958D02*
X14486634Y-15582434D01*
X14486634Y-15582434D02*
X14505682Y-15572911D01*
X14505682Y-15572911D02*
X14534253Y-15572911D01*
X14534253Y-15572911D02*
X14553301Y-15582434D01*
X14553301Y-15582434D02*
X14562825Y-15591958D01*
X14562825Y-15591958D02*
X14572349Y-15611006D01*
X14572349Y-15611006D02*
X14572349Y-15668149D01*
X14572349Y-15668149D02*
X14562825Y-15687196D01*
X14562825Y-15687196D02*
X14553301Y-15696720D01*
X14553301Y-15696720D02*
X14534253Y-15706244D01*
X14534253Y-15706244D02*
X14505682Y-15706244D01*
X14629492Y-15572911D02*
X14705682Y-15572911D01*
X14658063Y-15506244D02*
X14658063Y-15677672D01*
X14658063Y-15677672D02*
X14667587Y-15696720D01*
X14667587Y-15696720D02*
X14686634Y-15706244D01*
X14686634Y-15706244D02*
X14705682Y-15706244D01*
X14924730Y-15572911D02*
X14924730Y-15772911D01*
X14924730Y-15582434D02*
X14943777Y-15572911D01*
X14943777Y-15572911D02*
X14981873Y-15572911D01*
X14981873Y-15572911D02*
X15000920Y-15582434D01*
X15000920Y-15582434D02*
X15010444Y-15591958D01*
X15010444Y-15591958D02*
X15019968Y-15611006D01*
X15019968Y-15611006D02*
X15019968Y-15668149D01*
X15019968Y-15668149D02*
X15010444Y-15687196D01*
X15010444Y-15687196D02*
X15000920Y-15696720D01*
X15000920Y-15696720D02*
X14981873Y-15706244D01*
X14981873Y-15706244D02*
X14943777Y-15706244D01*
X14943777Y-15706244D02*
X14924730Y-15696720D01*
X15134253Y-15706244D02*
X15115206Y-15696720D01*
X15115206Y-15696720D02*
X15105682Y-15677672D01*
X15105682Y-15677672D02*
X15105682Y-15506244D01*
X15296158Y-15706244D02*
X15296158Y-15601482D01*
X15296158Y-15601482D02*
X15286634Y-15582434D01*
X15286634Y-15582434D02*
X15267587Y-15572911D01*
X15267587Y-15572911D02*
X15229492Y-15572911D01*
X15229492Y-15572911D02*
X15210444Y-15582434D01*
X15296158Y-15696720D02*
X15277111Y-15706244D01*
X15277111Y-15706244D02*
X15229492Y-15706244D01*
X15229492Y-15706244D02*
X15210444Y-15696720D01*
X15210444Y-15696720D02*
X15200920Y-15677672D01*
X15200920Y-15677672D02*
X15200920Y-15658625D01*
X15200920Y-15658625D02*
X15210444Y-15639577D01*
X15210444Y-15639577D02*
X15229492Y-15630053D01*
X15229492Y-15630053D02*
X15277111Y-15630053D01*
X15277111Y-15630053D02*
X15296158Y-15620530D01*
X15362825Y-15572911D02*
X15439015Y-15572911D01*
X15391396Y-15506244D02*
X15391396Y-15677672D01*
X15391396Y-15677672D02*
X15400920Y-15696720D01*
X15400920Y-15696720D02*
X15419968Y-15706244D01*
X15419968Y-15706244D02*
X15439015Y-15706244D01*
X15581873Y-15696720D02*
X15562825Y-15706244D01*
X15562825Y-15706244D02*
X15524730Y-15706244D01*
X15524730Y-15706244D02*
X15505682Y-15696720D01*
X15505682Y-15696720D02*
X15496158Y-15677672D01*
X15496158Y-15677672D02*
X15496158Y-15601482D01*
X15496158Y-15601482D02*
X15505682Y-15582434D01*
X15505682Y-15582434D02*
X15524730Y-15572911D01*
X15524730Y-15572911D02*
X15562825Y-15572911D01*
X15562825Y-15572911D02*
X15581873Y-15582434D01*
X15581873Y-15582434D02*
X15591396Y-15601482D01*
X15591396Y-15601482D02*
X15591396Y-15620530D01*
X15591396Y-15620530D02*
X15496158Y-15639577D01*
X15762825Y-15706244D02*
X15762825Y-15506244D01*
X15762825Y-15696720D02*
X15743777Y-15706244D01*
X15743777Y-15706244D02*
X15705682Y-15706244D01*
X15705682Y-15706244D02*
X15686634Y-15696720D01*
X15686634Y-15696720D02*
X15677111Y-15687196D01*
X15677111Y-15687196D02*
X15667587Y-15668149D01*
X15667587Y-15668149D02*
X15667587Y-15611006D01*
X15667587Y-15611006D02*
X15677111Y-15591958D01*
X15677111Y-15591958D02*
X15686634Y-15582434D01*
X15686634Y-15582434D02*
X15705682Y-15572911D01*
X15705682Y-15572911D02*
X15743777Y-15572911D01*
X15743777Y-15572911D02*
X15762825Y-15582434D01*
X15839015Y-15782434D02*
X15848539Y-15772911D01*
X15848539Y-15772911D02*
X15867587Y-15744339D01*
X15867587Y-15744339D02*
X15877111Y-15725292D01*
X15877111Y-15725292D02*
X15886634Y-15696720D01*
X15886634Y-15696720D02*
X15896158Y-15649101D01*
X15896158Y-15649101D02*
X15896158Y-15611006D01*
X15896158Y-15611006D02*
X15886634Y-15563387D01*
X15886634Y-15563387D02*
X15877111Y-15534815D01*
X15877111Y-15534815D02*
X15867587Y-15515768D01*
X15867587Y-15515768D02*
X15848539Y-15487196D01*
X15848539Y-15487196D02*
X15839015Y-15477672D01*
X8983000Y-15834760D02*
X8983000Y-16034760D01*
X8883000Y-15934760D02*
X9083000Y-15934760D01*
X9429491Y-15892911D02*
X9429491Y-16026244D01*
X9381872Y-15816720D02*
X9334253Y-15959577D01*
X9334253Y-15959577D02*
X9458063Y-15959577D01*
X9534253Y-16007196D02*
X9543777Y-16016720D01*
X9543777Y-16016720D02*
X9534253Y-16026244D01*
X9534253Y-16026244D02*
X9524729Y-16016720D01*
X9524729Y-16016720D02*
X9534253Y-16007196D01*
X9534253Y-16007196D02*
X9534253Y-16026244D01*
X9667586Y-15826244D02*
X9686634Y-15826244D01*
X9686634Y-15826244D02*
X9705682Y-15835768D01*
X9705682Y-15835768D02*
X9715205Y-15845292D01*
X9715205Y-15845292D02*
X9724729Y-15864339D01*
X9724729Y-15864339D02*
X9734253Y-15902434D01*
X9734253Y-15902434D02*
X9734253Y-15950053D01*
X9734253Y-15950053D02*
X9724729Y-15988149D01*
X9724729Y-15988149D02*
X9715205Y-16007196D01*
X9715205Y-16007196D02*
X9705682Y-16016720D01*
X9705682Y-16016720D02*
X9686634Y-16026244D01*
X9686634Y-16026244D02*
X9667586Y-16026244D01*
X9667586Y-16026244D02*
X9648539Y-16016720D01*
X9648539Y-16016720D02*
X9639015Y-16007196D01*
X9639015Y-16007196D02*
X9629491Y-15988149D01*
X9629491Y-15988149D02*
X9619967Y-15950053D01*
X9619967Y-15950053D02*
X9619967Y-15902434D01*
X9619967Y-15902434D02*
X9629491Y-15864339D01*
X9629491Y-15864339D02*
X9639015Y-15845292D01*
X9639015Y-15845292D02*
X9648539Y-15835768D01*
X9648539Y-15835768D02*
X9667586Y-15826244D01*
X9858063Y-15826244D02*
X9877110Y-15826244D01*
X9877110Y-15826244D02*
X9896158Y-15835768D01*
X9896158Y-15835768D02*
X9905682Y-15845292D01*
X9905682Y-15845292D02*
X9915205Y-15864339D01*
X9915205Y-15864339D02*
X9924729Y-15902434D01*
X9924729Y-15902434D02*
X9924729Y-15950053D01*
X9924729Y-15950053D02*
X9915205Y-15988149D01*
X9915205Y-15988149D02*
X9905682Y-16007196D01*
X9905682Y-16007196D02*
X9896158Y-16016720D01*
X9896158Y-16016720D02*
X9877110Y-16026244D01*
X9877110Y-16026244D02*
X9858063Y-16026244D01*
X9858063Y-16026244D02*
X9839015Y-16016720D01*
X9839015Y-16016720D02*
X9829491Y-16007196D01*
X9829491Y-16007196D02*
X9819967Y-15988149D01*
X9819967Y-15988149D02*
X9810444Y-15950053D01*
X9810444Y-15950053D02*
X9810444Y-15902434D01*
X9810444Y-15902434D02*
X9819967Y-15864339D01*
X9819967Y-15864339D02*
X9829491Y-15845292D01*
X9829491Y-15845292D02*
X9839015Y-15835768D01*
X9839015Y-15835768D02*
X9858063Y-15826244D01*
X10048539Y-15826244D02*
X10067586Y-15826244D01*
X10067586Y-15826244D02*
X10086634Y-15835768D01*
X10086634Y-15835768D02*
X10096158Y-15845292D01*
X10096158Y-15845292D02*
X10105682Y-15864339D01*
X10105682Y-15864339D02*
X10115205Y-15902434D01*
X10115205Y-15902434D02*
X10115205Y-15950053D01*
X10115205Y-15950053D02*
X10105682Y-15988149D01*
X10105682Y-15988149D02*
X10096158Y-16007196D01*
X10096158Y-16007196D02*
X10086634Y-16016720D01*
X10086634Y-16016720D02*
X10067586Y-16026244D01*
X10067586Y-16026244D02*
X10048539Y-16026244D01*
X10048539Y-16026244D02*
X10029491Y-16016720D01*
X10029491Y-16016720D02*
X10019967Y-16007196D01*
X10019967Y-16007196D02*
X10010444Y-15988149D01*
X10010444Y-15988149D02*
X10000920Y-15950053D01*
X10000920Y-15950053D02*
X10000920Y-15902434D01*
X10000920Y-15902434D02*
X10010444Y-15864339D01*
X10010444Y-15864339D02*
X10019967Y-15845292D01*
X10019967Y-15845292D02*
X10029491Y-15835768D01*
X10029491Y-15835768D02*
X10048539Y-15826244D01*
X10200920Y-16026244D02*
X10200920Y-15892911D01*
X10200920Y-15911958D02*
X10210444Y-15902434D01*
X10210444Y-15902434D02*
X10229491Y-15892911D01*
X10229491Y-15892911D02*
X10258063Y-15892911D01*
X10258063Y-15892911D02*
X10277110Y-15902434D01*
X10277110Y-15902434D02*
X10286634Y-15921482D01*
X10286634Y-15921482D02*
X10286634Y-16026244D01*
X10286634Y-15921482D02*
X10296158Y-15902434D01*
X10296158Y-15902434D02*
X10315205Y-15892911D01*
X10315205Y-15892911D02*
X10343777Y-15892911D01*
X10343777Y-15892911D02*
X10362825Y-15902434D01*
X10362825Y-15902434D02*
X10372348Y-15921482D01*
X10372348Y-15921482D02*
X10372348Y-16026244D01*
X10467586Y-16026244D02*
X10467586Y-15892911D01*
X10467586Y-15911958D02*
X10477110Y-15902434D01*
X10477110Y-15902434D02*
X10496158Y-15892911D01*
X10496158Y-15892911D02*
X10524729Y-15892911D01*
X10524729Y-15892911D02*
X10543777Y-15902434D01*
X10543777Y-15902434D02*
X10553301Y-15921482D01*
X10553301Y-15921482D02*
X10553301Y-16026244D01*
X10553301Y-15921482D02*
X10562825Y-15902434D01*
X10562825Y-15902434D02*
X10581872Y-15892911D01*
X10581872Y-15892911D02*
X10610444Y-15892911D01*
X10610444Y-15892911D02*
X10629491Y-15902434D01*
X10629491Y-15902434D02*
X10639015Y-15921482D01*
X10639015Y-15921482D02*
X10639015Y-16026244D01*
X11029491Y-15816720D02*
X10858063Y-16073863D01*
X11286634Y-15826244D02*
X11305682Y-15826244D01*
X11305682Y-15826244D02*
X11324729Y-15835768D01*
X11324729Y-15835768D02*
X11334253Y-15845292D01*
X11334253Y-15845292D02*
X11343777Y-15864339D01*
X11343777Y-15864339D02*
X11353301Y-15902434D01*
X11353301Y-15902434D02*
X11353301Y-15950053D01*
X11353301Y-15950053D02*
X11343777Y-15988149D01*
X11343777Y-15988149D02*
X11334253Y-16007196D01*
X11334253Y-16007196D02*
X11324729Y-16016720D01*
X11324729Y-16016720D02*
X11305682Y-16026244D01*
X11305682Y-16026244D02*
X11286634Y-16026244D01*
X11286634Y-16026244D02*
X11267586Y-16016720D01*
X11267586Y-16016720D02*
X11258063Y-16007196D01*
X11258063Y-16007196D02*
X11248539Y-15988149D01*
X11248539Y-15988149D02*
X11239015Y-15950053D01*
X11239015Y-15950053D02*
X11239015Y-15902434D01*
X11239015Y-15902434D02*
X11248539Y-15864339D01*
X11248539Y-15864339D02*
X11258063Y-15845292D01*
X11258063Y-15845292D02*
X11267586Y-15835768D01*
X11267586Y-15835768D02*
X11286634Y-15826244D01*
X11439015Y-16007196D02*
X11448539Y-16016720D01*
X11448539Y-16016720D02*
X11439015Y-16026244D01*
X11439015Y-16026244D02*
X11429491Y-16016720D01*
X11429491Y-16016720D02*
X11439015Y-16007196D01*
X11439015Y-16007196D02*
X11439015Y-16026244D01*
X11639015Y-16026244D02*
X11524729Y-16026244D01*
X11581872Y-16026244D02*
X11581872Y-15826244D01*
X11581872Y-15826244D02*
X11562825Y-15854815D01*
X11562825Y-15854815D02*
X11543777Y-15873863D01*
X11543777Y-15873863D02*
X11524729Y-15883387D01*
X11819967Y-15826244D02*
X11724729Y-15826244D01*
X11724729Y-15826244D02*
X11715206Y-15921482D01*
X11715206Y-15921482D02*
X11724729Y-15911958D01*
X11724729Y-15911958D02*
X11743777Y-15902434D01*
X11743777Y-15902434D02*
X11791396Y-15902434D01*
X11791396Y-15902434D02*
X11810444Y-15911958D01*
X11810444Y-15911958D02*
X11819967Y-15921482D01*
X11819967Y-15921482D02*
X11829491Y-15940530D01*
X11829491Y-15940530D02*
X11829491Y-15988149D01*
X11829491Y-15988149D02*
X11819967Y-16007196D01*
X11819967Y-16007196D02*
X11810444Y-16016720D01*
X11810444Y-16016720D02*
X11791396Y-16026244D01*
X11791396Y-16026244D02*
X11743777Y-16026244D01*
X11743777Y-16026244D02*
X11724729Y-16016720D01*
X11724729Y-16016720D02*
X11715206Y-16007196D01*
X11896158Y-15826244D02*
X12029491Y-15826244D01*
X12029491Y-15826244D02*
X11943777Y-16026244D01*
X12200920Y-15826244D02*
X12105682Y-15826244D01*
X12105682Y-15826244D02*
X12096158Y-15921482D01*
X12096158Y-15921482D02*
X12105682Y-15911958D01*
X12105682Y-15911958D02*
X12124729Y-15902434D01*
X12124729Y-15902434D02*
X12172348Y-15902434D01*
X12172348Y-15902434D02*
X12191396Y-15911958D01*
X12191396Y-15911958D02*
X12200920Y-15921482D01*
X12200920Y-15921482D02*
X12210444Y-15940530D01*
X12210444Y-15940530D02*
X12210444Y-15988149D01*
X12210444Y-15988149D02*
X12200920Y-16007196D01*
X12200920Y-16007196D02*
X12191396Y-16016720D01*
X12191396Y-16016720D02*
X12172348Y-16026244D01*
X12172348Y-16026244D02*
X12124729Y-16026244D01*
X12124729Y-16026244D02*
X12105682Y-16016720D01*
X12105682Y-16016720D02*
X12096158Y-16007196D01*
X12286634Y-15826244D02*
X12286634Y-15864339D01*
X12362825Y-15826244D02*
X12362825Y-15864339D01*
X12658063Y-16102434D02*
X12648539Y-16092911D01*
X12648539Y-16092911D02*
X12629491Y-16064339D01*
X12629491Y-16064339D02*
X12619968Y-16045292D01*
X12619968Y-16045292D02*
X12610444Y-16016720D01*
X12610444Y-16016720D02*
X12600920Y-15969101D01*
X12600920Y-15969101D02*
X12600920Y-15931006D01*
X12600920Y-15931006D02*
X12610444Y-15883387D01*
X12610444Y-15883387D02*
X12619968Y-15854815D01*
X12619968Y-15854815D02*
X12629491Y-15835768D01*
X12629491Y-15835768D02*
X12648539Y-15807196D01*
X12648539Y-15807196D02*
X12658063Y-15797672D01*
X12724729Y-15845292D02*
X12734253Y-15835768D01*
X12734253Y-15835768D02*
X12753301Y-15826244D01*
X12753301Y-15826244D02*
X12800920Y-15826244D01*
X12800920Y-15826244D02*
X12819968Y-15835768D01*
X12819968Y-15835768D02*
X12829491Y-15845292D01*
X12829491Y-15845292D02*
X12839015Y-15864339D01*
X12839015Y-15864339D02*
X12839015Y-15883387D01*
X12839015Y-15883387D02*
X12829491Y-15911958D01*
X12829491Y-15911958D02*
X12715206Y-16026244D01*
X12715206Y-16026244D02*
X12839015Y-16026244D01*
X12962825Y-15826244D02*
X12981872Y-15826244D01*
X12981872Y-15826244D02*
X13000920Y-15835768D01*
X13000920Y-15835768D02*
X13010444Y-15845292D01*
X13010444Y-15845292D02*
X13019968Y-15864339D01*
X13019968Y-15864339D02*
X13029491Y-15902434D01*
X13029491Y-15902434D02*
X13029491Y-15950053D01*
X13029491Y-15950053D02*
X13019968Y-15988149D01*
X13019968Y-15988149D02*
X13010444Y-16007196D01*
X13010444Y-16007196D02*
X13000920Y-16016720D01*
X13000920Y-16016720D02*
X12981872Y-16026244D01*
X12981872Y-16026244D02*
X12962825Y-16026244D01*
X12962825Y-16026244D02*
X12943777Y-16016720D01*
X12943777Y-16016720D02*
X12934253Y-16007196D01*
X12934253Y-16007196D02*
X12924729Y-15988149D01*
X12924729Y-15988149D02*
X12915206Y-15950053D01*
X12915206Y-15950053D02*
X12915206Y-15902434D01*
X12915206Y-15902434D02*
X12924729Y-15864339D01*
X12924729Y-15864339D02*
X12934253Y-15845292D01*
X12934253Y-15845292D02*
X12943777Y-15835768D01*
X12943777Y-15835768D02*
X12962825Y-15826244D01*
X13267587Y-16026244D02*
X13267587Y-15826244D01*
X13353301Y-16026244D02*
X13353301Y-15921482D01*
X13353301Y-15921482D02*
X13343777Y-15902434D01*
X13343777Y-15902434D02*
X13324730Y-15892911D01*
X13324730Y-15892911D02*
X13296158Y-15892911D01*
X13296158Y-15892911D02*
X13277110Y-15902434D01*
X13277110Y-15902434D02*
X13267587Y-15911958D01*
X13477110Y-16026244D02*
X13458063Y-16016720D01*
X13458063Y-16016720D02*
X13448539Y-16007196D01*
X13448539Y-16007196D02*
X13439015Y-15988149D01*
X13439015Y-15988149D02*
X13439015Y-15931006D01*
X13439015Y-15931006D02*
X13448539Y-15911958D01*
X13448539Y-15911958D02*
X13458063Y-15902434D01*
X13458063Y-15902434D02*
X13477110Y-15892911D01*
X13477110Y-15892911D02*
X13505682Y-15892911D01*
X13505682Y-15892911D02*
X13524730Y-15902434D01*
X13524730Y-15902434D02*
X13534253Y-15911958D01*
X13534253Y-15911958D02*
X13543777Y-15931006D01*
X13543777Y-15931006D02*
X13543777Y-15988149D01*
X13543777Y-15988149D02*
X13534253Y-16007196D01*
X13534253Y-16007196D02*
X13524730Y-16016720D01*
X13524730Y-16016720D02*
X13505682Y-16026244D01*
X13505682Y-16026244D02*
X13477110Y-16026244D01*
X13658063Y-16026244D02*
X13639015Y-16016720D01*
X13639015Y-16016720D02*
X13629491Y-15997672D01*
X13629491Y-15997672D02*
X13629491Y-15826244D01*
X13810444Y-16016720D02*
X13791396Y-16026244D01*
X13791396Y-16026244D02*
X13753301Y-16026244D01*
X13753301Y-16026244D02*
X13734253Y-16016720D01*
X13734253Y-16016720D02*
X13724730Y-15997672D01*
X13724730Y-15997672D02*
X13724730Y-15921482D01*
X13724730Y-15921482D02*
X13734253Y-15902434D01*
X13734253Y-15902434D02*
X13753301Y-15892911D01*
X13753301Y-15892911D02*
X13791396Y-15892911D01*
X13791396Y-15892911D02*
X13810444Y-15902434D01*
X13810444Y-15902434D02*
X13819968Y-15921482D01*
X13819968Y-15921482D02*
X13819968Y-15940530D01*
X13819968Y-15940530D02*
X13724730Y-15959577D01*
X13896158Y-16016720D02*
X13915206Y-16026244D01*
X13915206Y-16026244D02*
X13953301Y-16026244D01*
X13953301Y-16026244D02*
X13972349Y-16016720D01*
X13972349Y-16016720D02*
X13981872Y-15997672D01*
X13981872Y-15997672D02*
X13981872Y-15988149D01*
X13981872Y-15988149D02*
X13972349Y-15969101D01*
X13972349Y-15969101D02*
X13953301Y-15959577D01*
X13953301Y-15959577D02*
X13924730Y-15959577D01*
X13924730Y-15959577D02*
X13905682Y-15950053D01*
X13905682Y-15950053D02*
X13896158Y-15931006D01*
X13896158Y-15931006D02*
X13896158Y-15921482D01*
X13896158Y-15921482D02*
X13905682Y-15902434D01*
X13905682Y-15902434D02*
X13924730Y-15892911D01*
X13924730Y-15892911D02*
X13953301Y-15892911D01*
X13953301Y-15892911D02*
X13972349Y-15902434D01*
X14048539Y-16102434D02*
X14058063Y-16092911D01*
X14058063Y-16092911D02*
X14077111Y-16064339D01*
X14077111Y-16064339D02*
X14086634Y-16045292D01*
X14086634Y-16045292D02*
X14096158Y-16016720D01*
X14096158Y-16016720D02*
X14105682Y-15969101D01*
X14105682Y-15969101D02*
X14105682Y-15931006D01*
X14105682Y-15931006D02*
X14096158Y-15883387D01*
X14096158Y-15883387D02*
X14086634Y-15854815D01*
X14086634Y-15854815D02*
X14077111Y-15835768D01*
X14077111Y-15835768D02*
X14058063Y-15807196D01*
X14058063Y-15807196D02*
X14048539Y-15797672D01*
X14410444Y-16102434D02*
X14400920Y-16092911D01*
X14400920Y-16092911D02*
X14381872Y-16064339D01*
X14381872Y-16064339D02*
X14372349Y-16045292D01*
X14372349Y-16045292D02*
X14362825Y-16016720D01*
X14362825Y-16016720D02*
X14353301Y-15969101D01*
X14353301Y-15969101D02*
X14353301Y-15931006D01*
X14353301Y-15931006D02*
X14362825Y-15883387D01*
X14362825Y-15883387D02*
X14372349Y-15854815D01*
X14372349Y-15854815D02*
X14381872Y-15835768D01*
X14381872Y-15835768D02*
X14400920Y-15807196D01*
X14400920Y-15807196D02*
X14410444Y-15797672D01*
X14486634Y-15892911D02*
X14486634Y-16026244D01*
X14486634Y-15911958D02*
X14496158Y-15902434D01*
X14496158Y-15902434D02*
X14515206Y-15892911D01*
X14515206Y-15892911D02*
X14543777Y-15892911D01*
X14543777Y-15892911D02*
X14562825Y-15902434D01*
X14562825Y-15902434D02*
X14572349Y-15921482D01*
X14572349Y-15921482D02*
X14572349Y-16026244D01*
X14696158Y-16026244D02*
X14677111Y-16016720D01*
X14677111Y-16016720D02*
X14667587Y-16007196D01*
X14667587Y-16007196D02*
X14658063Y-15988149D01*
X14658063Y-15988149D02*
X14658063Y-15931006D01*
X14658063Y-15931006D02*
X14667587Y-15911958D01*
X14667587Y-15911958D02*
X14677111Y-15902434D01*
X14677111Y-15902434D02*
X14696158Y-15892911D01*
X14696158Y-15892911D02*
X14724730Y-15892911D01*
X14724730Y-15892911D02*
X14743777Y-15902434D01*
X14743777Y-15902434D02*
X14753301Y-15911958D01*
X14753301Y-15911958D02*
X14762825Y-15931006D01*
X14762825Y-15931006D02*
X14762825Y-15988149D01*
X14762825Y-15988149D02*
X14753301Y-16007196D01*
X14753301Y-16007196D02*
X14743777Y-16016720D01*
X14743777Y-16016720D02*
X14724730Y-16026244D01*
X14724730Y-16026244D02*
X14696158Y-16026244D01*
X14819968Y-15892911D02*
X14896158Y-15892911D01*
X14848539Y-15826244D02*
X14848539Y-15997672D01*
X14848539Y-15997672D02*
X14858063Y-16016720D01*
X14858063Y-16016720D02*
X14877111Y-16026244D01*
X14877111Y-16026244D02*
X14896158Y-16026244D01*
X15115206Y-15892911D02*
X15115206Y-16092911D01*
X15115206Y-15902434D02*
X15134253Y-15892911D01*
X15134253Y-15892911D02*
X15172349Y-15892911D01*
X15172349Y-15892911D02*
X15191396Y-15902434D01*
X15191396Y-15902434D02*
X15200920Y-15911958D01*
X15200920Y-15911958D02*
X15210444Y-15931006D01*
X15210444Y-15931006D02*
X15210444Y-15988149D01*
X15210444Y-15988149D02*
X15200920Y-16007196D01*
X15200920Y-16007196D02*
X15191396Y-16016720D01*
X15191396Y-16016720D02*
X15172349Y-16026244D01*
X15172349Y-16026244D02*
X15134253Y-16026244D01*
X15134253Y-16026244D02*
X15115206Y-16016720D01*
X15324730Y-16026244D02*
X15305682Y-16016720D01*
X15305682Y-16016720D02*
X15296158Y-15997672D01*
X15296158Y-15997672D02*
X15296158Y-15826244D01*
X15486634Y-16026244D02*
X15486634Y-15921482D01*
X15486634Y-15921482D02*
X15477111Y-15902434D01*
X15477111Y-15902434D02*
X15458063Y-15892911D01*
X15458063Y-15892911D02*
X15419968Y-15892911D01*
X15419968Y-15892911D02*
X15400920Y-15902434D01*
X15486634Y-16016720D02*
X15467587Y-16026244D01*
X15467587Y-16026244D02*
X15419968Y-16026244D01*
X15419968Y-16026244D02*
X15400920Y-16016720D01*
X15400920Y-16016720D02*
X15391396Y-15997672D01*
X15391396Y-15997672D02*
X15391396Y-15978625D01*
X15391396Y-15978625D02*
X15400920Y-15959577D01*
X15400920Y-15959577D02*
X15419968Y-15950053D01*
X15419968Y-15950053D02*
X15467587Y-15950053D01*
X15467587Y-15950053D02*
X15486634Y-15940530D01*
X15553301Y-15892911D02*
X15629492Y-15892911D01*
X15581873Y-15826244D02*
X15581873Y-15997672D01*
X15581873Y-15997672D02*
X15591396Y-16016720D01*
X15591396Y-16016720D02*
X15610444Y-16026244D01*
X15610444Y-16026244D02*
X15629492Y-16026244D01*
X15772349Y-16016720D02*
X15753301Y-16026244D01*
X15753301Y-16026244D02*
X15715206Y-16026244D01*
X15715206Y-16026244D02*
X15696158Y-16016720D01*
X15696158Y-16016720D02*
X15686634Y-15997672D01*
X15686634Y-15997672D02*
X15686634Y-15921482D01*
X15686634Y-15921482D02*
X15696158Y-15902434D01*
X15696158Y-15902434D02*
X15715206Y-15892911D01*
X15715206Y-15892911D02*
X15753301Y-15892911D01*
X15753301Y-15892911D02*
X15772349Y-15902434D01*
X15772349Y-15902434D02*
X15781873Y-15921482D01*
X15781873Y-15921482D02*
X15781873Y-15940530D01*
X15781873Y-15940530D02*
X15686634Y-15959577D01*
X15953301Y-16026244D02*
X15953301Y-15826244D01*
X15953301Y-16016720D02*
X15934254Y-16026244D01*
X15934254Y-16026244D02*
X15896158Y-16026244D01*
X15896158Y-16026244D02*
X15877111Y-16016720D01*
X15877111Y-16016720D02*
X15867587Y-16007196D01*
X15867587Y-16007196D02*
X15858063Y-15988149D01*
X15858063Y-15988149D02*
X15858063Y-15931006D01*
X15858063Y-15931006D02*
X15867587Y-15911958D01*
X15867587Y-15911958D02*
X15877111Y-15902434D01*
X15877111Y-15902434D02*
X15896158Y-15892911D01*
X15896158Y-15892911D02*
X15934254Y-15892911D01*
X15934254Y-15892911D02*
X15953301Y-15902434D01*
X16029492Y-16102434D02*
X16039015Y-16092911D01*
X16039015Y-16092911D02*
X16058063Y-16064339D01*
X16058063Y-16064339D02*
X16067587Y-16045292D01*
X16067587Y-16045292D02*
X16077111Y-16016720D01*
X16077111Y-16016720D02*
X16086634Y-15969101D01*
X16086634Y-15969101D02*
X16086634Y-15931006D01*
X16086634Y-15931006D02*
X16077111Y-15883387D01*
X16077111Y-15883387D02*
X16067587Y-15854815D01*
X16067587Y-15854815D02*
X16058063Y-15835768D01*
X16058063Y-15835768D02*
X16039015Y-15807196D01*
X16039015Y-15807196D02*
X16029492Y-15797672D01*
M02*
