%TF.GenerationSoftware,KiCad,Pcbnew,8.0.5*%
%TF.CreationDate,2024-11-15T15:43:01-05:00*%
%TF.ProjectId,bytesized_macropad,62797465-7369-47a6-9564-5f6d6163726f,rev?*%
%TF.SameCoordinates,Original*%
%TF.FileFunction,Legend,Bot*%
%TF.FilePolarity,Positive*%
%FSLAX46Y46*%
G04 Gerber Fmt 4.6, Leading zero omitted, Abs format (unit mm)*
G04 Created by KiCad (PCBNEW 8.0.5) date 2024-11-15 15:43:01*
%MOMM*%
%LPD*%
G01*
G04 APERTURE LIST*
%ADD10C,0.200000*%
%ADD11C,0.150000*%
%ADD12C,0.120000*%
%ADD13C,0.100000*%
%ADD14C,0.152400*%
%ADD15C,0.000000*%
G04 APERTURE END LIST*
D10*
X104771201Y-101073912D02*
X104771201Y-99573912D01*
X104771201Y-99573912D02*
X104271201Y-100645341D01*
X104271201Y-100645341D02*
X103771201Y-99573912D01*
X103771201Y-99573912D02*
X103771201Y-101073912D01*
X102414058Y-101073912D02*
X102414058Y-100288198D01*
X102414058Y-100288198D02*
X102485486Y-100145341D01*
X102485486Y-100145341D02*
X102628343Y-100073912D01*
X102628343Y-100073912D02*
X102914058Y-100073912D01*
X102914058Y-100073912D02*
X103056915Y-100145341D01*
X102414058Y-101002484D02*
X102556915Y-101073912D01*
X102556915Y-101073912D02*
X102914058Y-101073912D01*
X102914058Y-101073912D02*
X103056915Y-101002484D01*
X103056915Y-101002484D02*
X103128343Y-100859626D01*
X103128343Y-100859626D02*
X103128343Y-100716769D01*
X103128343Y-100716769D02*
X103056915Y-100573912D01*
X103056915Y-100573912D02*
X102914058Y-100502484D01*
X102914058Y-100502484D02*
X102556915Y-100502484D01*
X102556915Y-100502484D02*
X102414058Y-100431055D01*
X101056915Y-101002484D02*
X101199772Y-101073912D01*
X101199772Y-101073912D02*
X101485486Y-101073912D01*
X101485486Y-101073912D02*
X101628343Y-101002484D01*
X101628343Y-101002484D02*
X101699772Y-100931055D01*
X101699772Y-100931055D02*
X101771200Y-100788198D01*
X101771200Y-100788198D02*
X101771200Y-100359626D01*
X101771200Y-100359626D02*
X101699772Y-100216769D01*
X101699772Y-100216769D02*
X101628343Y-100145341D01*
X101628343Y-100145341D02*
X101485486Y-100073912D01*
X101485486Y-100073912D02*
X101199772Y-100073912D01*
X101199772Y-100073912D02*
X101056915Y-100145341D01*
X100414058Y-101073912D02*
X100414058Y-100073912D01*
X100414058Y-100359626D02*
X100342629Y-100216769D01*
X100342629Y-100216769D02*
X100271201Y-100145341D01*
X100271201Y-100145341D02*
X100128343Y-100073912D01*
X100128343Y-100073912D02*
X99985486Y-100073912D01*
X99271201Y-101073912D02*
X99414058Y-101002484D01*
X99414058Y-101002484D02*
X99485487Y-100931055D01*
X99485487Y-100931055D02*
X99556915Y-100788198D01*
X99556915Y-100788198D02*
X99556915Y-100359626D01*
X99556915Y-100359626D02*
X99485487Y-100216769D01*
X99485487Y-100216769D02*
X99414058Y-100145341D01*
X99414058Y-100145341D02*
X99271201Y-100073912D01*
X99271201Y-100073912D02*
X99056915Y-100073912D01*
X99056915Y-100073912D02*
X98914058Y-100145341D01*
X98914058Y-100145341D02*
X98842630Y-100216769D01*
X98842630Y-100216769D02*
X98771201Y-100359626D01*
X98771201Y-100359626D02*
X98771201Y-100788198D01*
X98771201Y-100788198D02*
X98842630Y-100931055D01*
X98842630Y-100931055D02*
X98914058Y-101002484D01*
X98914058Y-101002484D02*
X99056915Y-101073912D01*
X99056915Y-101073912D02*
X99271201Y-101073912D01*
X98128344Y-100073912D02*
X98128344Y-101573912D01*
X98128344Y-100145341D02*
X97985487Y-100073912D01*
X97985487Y-100073912D02*
X97699772Y-100073912D01*
X97699772Y-100073912D02*
X97556915Y-100145341D01*
X97556915Y-100145341D02*
X97485487Y-100216769D01*
X97485487Y-100216769D02*
X97414058Y-100359626D01*
X97414058Y-100359626D02*
X97414058Y-100788198D01*
X97414058Y-100788198D02*
X97485487Y-100931055D01*
X97485487Y-100931055D02*
X97556915Y-101002484D01*
X97556915Y-101002484D02*
X97699772Y-101073912D01*
X97699772Y-101073912D02*
X97985487Y-101073912D01*
X97985487Y-101073912D02*
X98128344Y-101002484D01*
X96128344Y-101073912D02*
X96128344Y-100288198D01*
X96128344Y-100288198D02*
X96199772Y-100145341D01*
X96199772Y-100145341D02*
X96342629Y-100073912D01*
X96342629Y-100073912D02*
X96628344Y-100073912D01*
X96628344Y-100073912D02*
X96771201Y-100145341D01*
X96128344Y-101002484D02*
X96271201Y-101073912D01*
X96271201Y-101073912D02*
X96628344Y-101073912D01*
X96628344Y-101073912D02*
X96771201Y-101002484D01*
X96771201Y-101002484D02*
X96842629Y-100859626D01*
X96842629Y-100859626D02*
X96842629Y-100716769D01*
X96842629Y-100716769D02*
X96771201Y-100573912D01*
X96771201Y-100573912D02*
X96628344Y-100502484D01*
X96628344Y-100502484D02*
X96271201Y-100502484D01*
X96271201Y-100502484D02*
X96128344Y-100431055D01*
X94771201Y-101073912D02*
X94771201Y-99573912D01*
X94771201Y-101002484D02*
X94914058Y-101073912D01*
X94914058Y-101073912D02*
X95199772Y-101073912D01*
X95199772Y-101073912D02*
X95342629Y-101002484D01*
X95342629Y-101002484D02*
X95414058Y-100931055D01*
X95414058Y-100931055D02*
X95485486Y-100788198D01*
X95485486Y-100788198D02*
X95485486Y-100359626D01*
X95485486Y-100359626D02*
X95414058Y-100216769D01*
X95414058Y-100216769D02*
X95342629Y-100145341D01*
X95342629Y-100145341D02*
X95199772Y-100073912D01*
X95199772Y-100073912D02*
X94914058Y-100073912D01*
X94914058Y-100073912D02*
X94771201Y-100145341D01*
X101914057Y-102488828D02*
X101556914Y-103488828D01*
X101556914Y-103488828D02*
X101199771Y-102488828D01*
X99842628Y-103488828D02*
X100699771Y-103488828D01*
X100271200Y-103488828D02*
X100271200Y-101988828D01*
X100271200Y-101988828D02*
X100414057Y-102203114D01*
X100414057Y-102203114D02*
X100556914Y-102345971D01*
X100556914Y-102345971D02*
X100699771Y-102417400D01*
X99199772Y-103345971D02*
X99128343Y-103417400D01*
X99128343Y-103417400D02*
X99199772Y-103488828D01*
X99199772Y-103488828D02*
X99271200Y-103417400D01*
X99271200Y-103417400D02*
X99199772Y-103345971D01*
X99199772Y-103345971D02*
X99199772Y-103488828D01*
X98199771Y-101988828D02*
X98056914Y-101988828D01*
X98056914Y-101988828D02*
X97914057Y-102060257D01*
X97914057Y-102060257D02*
X97842629Y-102131685D01*
X97842629Y-102131685D02*
X97771200Y-102274542D01*
X97771200Y-102274542D02*
X97699771Y-102560257D01*
X97699771Y-102560257D02*
X97699771Y-102917400D01*
X97699771Y-102917400D02*
X97771200Y-103203114D01*
X97771200Y-103203114D02*
X97842629Y-103345971D01*
X97842629Y-103345971D02*
X97914057Y-103417400D01*
X97914057Y-103417400D02*
X98056914Y-103488828D01*
X98056914Y-103488828D02*
X98199771Y-103488828D01*
X98199771Y-103488828D02*
X98342629Y-103417400D01*
X98342629Y-103417400D02*
X98414057Y-103345971D01*
X98414057Y-103345971D02*
X98485486Y-103203114D01*
X98485486Y-103203114D02*
X98556914Y-102917400D01*
X98556914Y-102917400D02*
X98556914Y-102560257D01*
X98556914Y-102560257D02*
X98485486Y-102274542D01*
X98485486Y-102274542D02*
X98414057Y-102131685D01*
X98414057Y-102131685D02*
X98342629Y-102060257D01*
X98342629Y-102060257D02*
X98199771Y-101988828D01*
D11*
X111080157Y-49824819D02*
X111413490Y-49348628D01*
X111651585Y-49824819D02*
X111651585Y-48824819D01*
X111651585Y-48824819D02*
X111270633Y-48824819D01*
X111270633Y-48824819D02*
X111175395Y-48872438D01*
X111175395Y-48872438D02*
X111127776Y-48920057D01*
X111127776Y-48920057D02*
X111080157Y-49015295D01*
X111080157Y-49015295D02*
X111080157Y-49158152D01*
X111080157Y-49158152D02*
X111127776Y-49253390D01*
X111127776Y-49253390D02*
X111175395Y-49301009D01*
X111175395Y-49301009D02*
X111270633Y-49348628D01*
X111270633Y-49348628D02*
X111651585Y-49348628D01*
X110127776Y-49824819D02*
X110699204Y-49824819D01*
X110413490Y-49824819D02*
X110413490Y-48824819D01*
X110413490Y-48824819D02*
X110508728Y-48967676D01*
X110508728Y-48967676D02*
X110603966Y-49062914D01*
X110603966Y-49062914D02*
X110699204Y-49110533D01*
X109794442Y-48824819D02*
X109127776Y-48824819D01*
X109127776Y-48824819D02*
X109556347Y-49824819D01*
X158376857Y-144980819D02*
X158710190Y-144504628D01*
X158948285Y-144980819D02*
X158948285Y-143980819D01*
X158948285Y-143980819D02*
X158567333Y-143980819D01*
X158567333Y-143980819D02*
X158472095Y-144028438D01*
X158472095Y-144028438D02*
X158424476Y-144076057D01*
X158424476Y-144076057D02*
X158376857Y-144171295D01*
X158376857Y-144171295D02*
X158376857Y-144314152D01*
X158376857Y-144314152D02*
X158424476Y-144409390D01*
X158424476Y-144409390D02*
X158472095Y-144457009D01*
X158472095Y-144457009D02*
X158567333Y-144504628D01*
X158567333Y-144504628D02*
X158948285Y-144504628D01*
X157424476Y-144980819D02*
X157995904Y-144980819D01*
X157710190Y-144980819D02*
X157710190Y-143980819D01*
X157710190Y-143980819D02*
X157805428Y-144123676D01*
X157805428Y-144123676D02*
X157900666Y-144218914D01*
X157900666Y-144218914D02*
X157995904Y-144266533D01*
X156567333Y-143980819D02*
X156757809Y-143980819D01*
X156757809Y-143980819D02*
X156853047Y-144028438D01*
X156853047Y-144028438D02*
X156900666Y-144076057D01*
X156900666Y-144076057D02*
X156995904Y-144218914D01*
X156995904Y-144218914D02*
X157043523Y-144409390D01*
X157043523Y-144409390D02*
X157043523Y-144790342D01*
X157043523Y-144790342D02*
X156995904Y-144885580D01*
X156995904Y-144885580D02*
X156948285Y-144933200D01*
X156948285Y-144933200D02*
X156853047Y-144980819D01*
X156853047Y-144980819D02*
X156662571Y-144980819D01*
X156662571Y-144980819D02*
X156567333Y-144933200D01*
X156567333Y-144933200D02*
X156519714Y-144885580D01*
X156519714Y-144885580D02*
X156472095Y-144790342D01*
X156472095Y-144790342D02*
X156472095Y-144552247D01*
X156472095Y-144552247D02*
X156519714Y-144457009D01*
X156519714Y-144457009D02*
X156567333Y-144409390D01*
X156567333Y-144409390D02*
X156662571Y-144361771D01*
X156662571Y-144361771D02*
X156853047Y-144361771D01*
X156853047Y-144361771D02*
X156948285Y-144409390D01*
X156948285Y-144409390D02*
X156995904Y-144457009D01*
X156995904Y-144457009D02*
X157043523Y-144552247D01*
X157360857Y-126946819D02*
X157694190Y-126470628D01*
X157932285Y-126946819D02*
X157932285Y-125946819D01*
X157932285Y-125946819D02*
X157551333Y-125946819D01*
X157551333Y-125946819D02*
X157456095Y-125994438D01*
X157456095Y-125994438D02*
X157408476Y-126042057D01*
X157408476Y-126042057D02*
X157360857Y-126137295D01*
X157360857Y-126137295D02*
X157360857Y-126280152D01*
X157360857Y-126280152D02*
X157408476Y-126375390D01*
X157408476Y-126375390D02*
X157456095Y-126423009D01*
X157456095Y-126423009D02*
X157551333Y-126470628D01*
X157551333Y-126470628D02*
X157932285Y-126470628D01*
X156408476Y-126946819D02*
X156979904Y-126946819D01*
X156694190Y-126946819D02*
X156694190Y-125946819D01*
X156694190Y-125946819D02*
X156789428Y-126089676D01*
X156789428Y-126089676D02*
X156884666Y-126184914D01*
X156884666Y-126184914D02*
X156979904Y-126232533D01*
X155503714Y-125946819D02*
X155979904Y-125946819D01*
X155979904Y-125946819D02*
X156027523Y-126423009D01*
X156027523Y-126423009D02*
X155979904Y-126375390D01*
X155979904Y-126375390D02*
X155884666Y-126327771D01*
X155884666Y-126327771D02*
X155646571Y-126327771D01*
X155646571Y-126327771D02*
X155551333Y-126375390D01*
X155551333Y-126375390D02*
X155503714Y-126423009D01*
X155503714Y-126423009D02*
X155456095Y-126518247D01*
X155456095Y-126518247D02*
X155456095Y-126756342D01*
X155456095Y-126756342D02*
X155503714Y-126851580D01*
X155503714Y-126851580D02*
X155551333Y-126899200D01*
X155551333Y-126899200D02*
X155646571Y-126946819D01*
X155646571Y-126946819D02*
X155884666Y-126946819D01*
X155884666Y-126946819D02*
X155979904Y-126899200D01*
X155979904Y-126899200D02*
X156027523Y-126851580D01*
X157589457Y-107719019D02*
X157922790Y-107242828D01*
X158160885Y-107719019D02*
X158160885Y-106719019D01*
X158160885Y-106719019D02*
X157779933Y-106719019D01*
X157779933Y-106719019D02*
X157684695Y-106766638D01*
X157684695Y-106766638D02*
X157637076Y-106814257D01*
X157637076Y-106814257D02*
X157589457Y-106909495D01*
X157589457Y-106909495D02*
X157589457Y-107052352D01*
X157589457Y-107052352D02*
X157637076Y-107147590D01*
X157637076Y-107147590D02*
X157684695Y-107195209D01*
X157684695Y-107195209D02*
X157779933Y-107242828D01*
X157779933Y-107242828D02*
X158160885Y-107242828D01*
X156637076Y-107719019D02*
X157208504Y-107719019D01*
X156922790Y-107719019D02*
X156922790Y-106719019D01*
X156922790Y-106719019D02*
X157018028Y-106861876D01*
X157018028Y-106861876D02*
X157113266Y-106957114D01*
X157113266Y-106957114D02*
X157208504Y-107004733D01*
X155779933Y-107052352D02*
X155779933Y-107719019D01*
X156018028Y-106671400D02*
X156256123Y-107385685D01*
X156256123Y-107385685D02*
X155637076Y-107385685D01*
X157716457Y-88643619D02*
X158049790Y-88167428D01*
X158287885Y-88643619D02*
X158287885Y-87643619D01*
X158287885Y-87643619D02*
X157906933Y-87643619D01*
X157906933Y-87643619D02*
X157811695Y-87691238D01*
X157811695Y-87691238D02*
X157764076Y-87738857D01*
X157764076Y-87738857D02*
X157716457Y-87834095D01*
X157716457Y-87834095D02*
X157716457Y-87976952D01*
X157716457Y-87976952D02*
X157764076Y-88072190D01*
X157764076Y-88072190D02*
X157811695Y-88119809D01*
X157811695Y-88119809D02*
X157906933Y-88167428D01*
X157906933Y-88167428D02*
X158287885Y-88167428D01*
X156764076Y-88643619D02*
X157335504Y-88643619D01*
X157049790Y-88643619D02*
X157049790Y-87643619D01*
X157049790Y-87643619D02*
X157145028Y-87786476D01*
X157145028Y-87786476D02*
X157240266Y-87881714D01*
X157240266Y-87881714D02*
X157335504Y-87929333D01*
X156430742Y-87643619D02*
X155811695Y-87643619D01*
X155811695Y-87643619D02*
X156145028Y-88024571D01*
X156145028Y-88024571D02*
X156002171Y-88024571D01*
X156002171Y-88024571D02*
X155906933Y-88072190D01*
X155906933Y-88072190D02*
X155859314Y-88119809D01*
X155859314Y-88119809D02*
X155811695Y-88215047D01*
X155811695Y-88215047D02*
X155811695Y-88453142D01*
X155811695Y-88453142D02*
X155859314Y-88548380D01*
X155859314Y-88548380D02*
X155906933Y-88596000D01*
X155906933Y-88596000D02*
X156002171Y-88643619D01*
X156002171Y-88643619D02*
X156287885Y-88643619D01*
X156287885Y-88643619D02*
X156383123Y-88596000D01*
X156383123Y-88596000D02*
X156430742Y-88548380D01*
X157640257Y-69695219D02*
X157973590Y-69219028D01*
X158211685Y-69695219D02*
X158211685Y-68695219D01*
X158211685Y-68695219D02*
X157830733Y-68695219D01*
X157830733Y-68695219D02*
X157735495Y-68742838D01*
X157735495Y-68742838D02*
X157687876Y-68790457D01*
X157687876Y-68790457D02*
X157640257Y-68885695D01*
X157640257Y-68885695D02*
X157640257Y-69028552D01*
X157640257Y-69028552D02*
X157687876Y-69123790D01*
X157687876Y-69123790D02*
X157735495Y-69171409D01*
X157735495Y-69171409D02*
X157830733Y-69219028D01*
X157830733Y-69219028D02*
X158211685Y-69219028D01*
X156687876Y-69695219D02*
X157259304Y-69695219D01*
X156973590Y-69695219D02*
X156973590Y-68695219D01*
X156973590Y-68695219D02*
X157068828Y-68838076D01*
X157068828Y-68838076D02*
X157164066Y-68933314D01*
X157164066Y-68933314D02*
X157259304Y-68980933D01*
X156306923Y-68790457D02*
X156259304Y-68742838D01*
X156259304Y-68742838D02*
X156164066Y-68695219D01*
X156164066Y-68695219D02*
X155925971Y-68695219D01*
X155925971Y-68695219D02*
X155830733Y-68742838D01*
X155830733Y-68742838D02*
X155783114Y-68790457D01*
X155783114Y-68790457D02*
X155735495Y-68885695D01*
X155735495Y-68885695D02*
X155735495Y-68980933D01*
X155735495Y-68980933D02*
X155783114Y-69123790D01*
X155783114Y-69123790D02*
X156354542Y-69695219D01*
X156354542Y-69695219D02*
X155735495Y-69695219D01*
X97107333Y-48553019D02*
X97107333Y-49267304D01*
X97107333Y-49267304D02*
X97154952Y-49410161D01*
X97154952Y-49410161D02*
X97250190Y-49505400D01*
X97250190Y-49505400D02*
X97393047Y-49553019D01*
X97393047Y-49553019D02*
X97488285Y-49553019D01*
X96107333Y-49553019D02*
X96678761Y-49553019D01*
X96393047Y-49553019D02*
X96393047Y-48553019D01*
X96393047Y-48553019D02*
X96488285Y-48695876D01*
X96488285Y-48695876D02*
X96583523Y-48791114D01*
X96583523Y-48791114D02*
X96678761Y-48838733D01*
X169429580Y-84007833D02*
X169477200Y-83960214D01*
X169477200Y-83960214D02*
X169524819Y-83817357D01*
X169524819Y-83817357D02*
X169524819Y-83722119D01*
X169524819Y-83722119D02*
X169477200Y-83579262D01*
X169477200Y-83579262D02*
X169381961Y-83484024D01*
X169381961Y-83484024D02*
X169286723Y-83436405D01*
X169286723Y-83436405D02*
X169096247Y-83388786D01*
X169096247Y-83388786D02*
X168953390Y-83388786D01*
X168953390Y-83388786D02*
X168762914Y-83436405D01*
X168762914Y-83436405D02*
X168667676Y-83484024D01*
X168667676Y-83484024D02*
X168572438Y-83579262D01*
X168572438Y-83579262D02*
X168524819Y-83722119D01*
X168524819Y-83722119D02*
X168524819Y-83817357D01*
X168524819Y-83817357D02*
X168572438Y-83960214D01*
X168572438Y-83960214D02*
X168620057Y-84007833D01*
X168953390Y-84579262D02*
X168905771Y-84484024D01*
X168905771Y-84484024D02*
X168858152Y-84436405D01*
X168858152Y-84436405D02*
X168762914Y-84388786D01*
X168762914Y-84388786D02*
X168715295Y-84388786D01*
X168715295Y-84388786D02*
X168620057Y-84436405D01*
X168620057Y-84436405D02*
X168572438Y-84484024D01*
X168572438Y-84484024D02*
X168524819Y-84579262D01*
X168524819Y-84579262D02*
X168524819Y-84769738D01*
X168524819Y-84769738D02*
X168572438Y-84864976D01*
X168572438Y-84864976D02*
X168620057Y-84912595D01*
X168620057Y-84912595D02*
X168715295Y-84960214D01*
X168715295Y-84960214D02*
X168762914Y-84960214D01*
X168762914Y-84960214D02*
X168858152Y-84912595D01*
X168858152Y-84912595D02*
X168905771Y-84864976D01*
X168905771Y-84864976D02*
X168953390Y-84769738D01*
X168953390Y-84769738D02*
X168953390Y-84579262D01*
X168953390Y-84579262D02*
X169001009Y-84484024D01*
X169001009Y-84484024D02*
X169048628Y-84436405D01*
X169048628Y-84436405D02*
X169143866Y-84388786D01*
X169143866Y-84388786D02*
X169334342Y-84388786D01*
X169334342Y-84388786D02*
X169429580Y-84436405D01*
X169429580Y-84436405D02*
X169477200Y-84484024D01*
X169477200Y-84484024D02*
X169524819Y-84579262D01*
X169524819Y-84579262D02*
X169524819Y-84769738D01*
X169524819Y-84769738D02*
X169477200Y-84864976D01*
X169477200Y-84864976D02*
X169429580Y-84912595D01*
X169429580Y-84912595D02*
X169334342Y-84960214D01*
X169334342Y-84960214D02*
X169143866Y-84960214D01*
X169143866Y-84960214D02*
X169048628Y-84912595D01*
X169048628Y-84912595D02*
X169001009Y-84864976D01*
X169001009Y-84864976D02*
X168953390Y-84769738D01*
X179014285Y-144980819D02*
X179014285Y-143980819D01*
X179014285Y-143980819D02*
X178776190Y-143980819D01*
X178776190Y-143980819D02*
X178633333Y-144028438D01*
X178633333Y-144028438D02*
X178538095Y-144123676D01*
X178538095Y-144123676D02*
X178490476Y-144218914D01*
X178490476Y-144218914D02*
X178442857Y-144409390D01*
X178442857Y-144409390D02*
X178442857Y-144552247D01*
X178442857Y-144552247D02*
X178490476Y-144742723D01*
X178490476Y-144742723D02*
X178538095Y-144837961D01*
X178538095Y-144837961D02*
X178633333Y-144933200D01*
X178633333Y-144933200D02*
X178776190Y-144980819D01*
X178776190Y-144980819D02*
X179014285Y-144980819D01*
X178061904Y-144076057D02*
X178014285Y-144028438D01*
X178014285Y-144028438D02*
X177919047Y-143980819D01*
X177919047Y-143980819D02*
X177680952Y-143980819D01*
X177680952Y-143980819D02*
X177585714Y-144028438D01*
X177585714Y-144028438D02*
X177538095Y-144076057D01*
X177538095Y-144076057D02*
X177490476Y-144171295D01*
X177490476Y-144171295D02*
X177490476Y-144266533D01*
X177490476Y-144266533D02*
X177538095Y-144409390D01*
X177538095Y-144409390D02*
X178109523Y-144980819D01*
X178109523Y-144980819D02*
X177490476Y-144980819D01*
X176871428Y-143980819D02*
X176776190Y-143980819D01*
X176776190Y-143980819D02*
X176680952Y-144028438D01*
X176680952Y-144028438D02*
X176633333Y-144076057D01*
X176633333Y-144076057D02*
X176585714Y-144171295D01*
X176585714Y-144171295D02*
X176538095Y-144361771D01*
X176538095Y-144361771D02*
X176538095Y-144599866D01*
X176538095Y-144599866D02*
X176585714Y-144790342D01*
X176585714Y-144790342D02*
X176633333Y-144885580D01*
X176633333Y-144885580D02*
X176680952Y-144933200D01*
X176680952Y-144933200D02*
X176776190Y-144980819D01*
X176776190Y-144980819D02*
X176871428Y-144980819D01*
X176871428Y-144980819D02*
X176966666Y-144933200D01*
X176966666Y-144933200D02*
X177014285Y-144885580D01*
X177014285Y-144885580D02*
X177061904Y-144790342D01*
X177061904Y-144790342D02*
X177109523Y-144599866D01*
X177109523Y-144599866D02*
X177109523Y-144361771D01*
X177109523Y-144361771D02*
X177061904Y-144171295D01*
X177061904Y-144171295D02*
X177014285Y-144076057D01*
X177014285Y-144076057D02*
X176966666Y-144028438D01*
X176966666Y-144028438D02*
X176871428Y-143980819D01*
X165776819Y-122609714D02*
X164776819Y-122609714D01*
X164776819Y-122609714D02*
X164776819Y-122847809D01*
X164776819Y-122847809D02*
X164824438Y-122990666D01*
X164824438Y-122990666D02*
X164919676Y-123085904D01*
X164919676Y-123085904D02*
X165014914Y-123133523D01*
X165014914Y-123133523D02*
X165205390Y-123181142D01*
X165205390Y-123181142D02*
X165348247Y-123181142D01*
X165348247Y-123181142D02*
X165538723Y-123133523D01*
X165538723Y-123133523D02*
X165633961Y-123085904D01*
X165633961Y-123085904D02*
X165729200Y-122990666D01*
X165729200Y-122990666D02*
X165776819Y-122847809D01*
X165776819Y-122847809D02*
X165776819Y-122609714D01*
X165776819Y-124133523D02*
X165776819Y-123562095D01*
X165776819Y-123847809D02*
X164776819Y-123847809D01*
X164776819Y-123847809D02*
X164919676Y-123752571D01*
X164919676Y-123752571D02*
X165014914Y-123657333D01*
X165014914Y-123657333D02*
X165062533Y-123562095D01*
X164776819Y-125038285D02*
X164776819Y-124562095D01*
X164776819Y-124562095D02*
X165253009Y-124514476D01*
X165253009Y-124514476D02*
X165205390Y-124562095D01*
X165205390Y-124562095D02*
X165157771Y-124657333D01*
X165157771Y-124657333D02*
X165157771Y-124895428D01*
X165157771Y-124895428D02*
X165205390Y-124990666D01*
X165205390Y-124990666D02*
X165253009Y-125038285D01*
X165253009Y-125038285D02*
X165348247Y-125085904D01*
X165348247Y-125085904D02*
X165586342Y-125085904D01*
X165586342Y-125085904D02*
X165681580Y-125038285D01*
X165681580Y-125038285D02*
X165729200Y-124990666D01*
X165729200Y-124990666D02*
X165776819Y-124895428D01*
X165776819Y-124895428D02*
X165776819Y-124657333D01*
X165776819Y-124657333D02*
X165729200Y-124562095D01*
X165729200Y-124562095D02*
X165681580Y-124514476D01*
X184826819Y-84985905D02*
X183826819Y-84985905D01*
X183826819Y-84985905D02*
X183826819Y-85224000D01*
X183826819Y-85224000D02*
X183874438Y-85366857D01*
X183874438Y-85366857D02*
X183969676Y-85462095D01*
X183969676Y-85462095D02*
X184064914Y-85509714D01*
X184064914Y-85509714D02*
X184255390Y-85557333D01*
X184255390Y-85557333D02*
X184398247Y-85557333D01*
X184398247Y-85557333D02*
X184588723Y-85509714D01*
X184588723Y-85509714D02*
X184683961Y-85462095D01*
X184683961Y-85462095D02*
X184779200Y-85366857D01*
X184779200Y-85366857D02*
X184826819Y-85224000D01*
X184826819Y-85224000D02*
X184826819Y-84985905D01*
X184255390Y-86128762D02*
X184207771Y-86033524D01*
X184207771Y-86033524D02*
X184160152Y-85985905D01*
X184160152Y-85985905D02*
X184064914Y-85938286D01*
X184064914Y-85938286D02*
X184017295Y-85938286D01*
X184017295Y-85938286D02*
X183922057Y-85985905D01*
X183922057Y-85985905D02*
X183874438Y-86033524D01*
X183874438Y-86033524D02*
X183826819Y-86128762D01*
X183826819Y-86128762D02*
X183826819Y-86319238D01*
X183826819Y-86319238D02*
X183874438Y-86414476D01*
X183874438Y-86414476D02*
X183922057Y-86462095D01*
X183922057Y-86462095D02*
X184017295Y-86509714D01*
X184017295Y-86509714D02*
X184064914Y-86509714D01*
X184064914Y-86509714D02*
X184160152Y-86462095D01*
X184160152Y-86462095D02*
X184207771Y-86414476D01*
X184207771Y-86414476D02*
X184255390Y-86319238D01*
X184255390Y-86319238D02*
X184255390Y-86128762D01*
X184255390Y-86128762D02*
X184303009Y-86033524D01*
X184303009Y-86033524D02*
X184350628Y-85985905D01*
X184350628Y-85985905D02*
X184445866Y-85938286D01*
X184445866Y-85938286D02*
X184636342Y-85938286D01*
X184636342Y-85938286D02*
X184731580Y-85985905D01*
X184731580Y-85985905D02*
X184779200Y-86033524D01*
X184779200Y-86033524D02*
X184826819Y-86128762D01*
X184826819Y-86128762D02*
X184826819Y-86319238D01*
X184826819Y-86319238D02*
X184779200Y-86414476D01*
X184779200Y-86414476D02*
X184731580Y-86462095D01*
X184731580Y-86462095D02*
X184636342Y-86509714D01*
X184636342Y-86509714D02*
X184445866Y-86509714D01*
X184445866Y-86509714D02*
X184350628Y-86462095D01*
X184350628Y-86462095D02*
X184303009Y-86414476D01*
X184303009Y-86414476D02*
X184255390Y-86319238D01*
X162157580Y-35425142D02*
X162205200Y-35377523D01*
X162205200Y-35377523D02*
X162252819Y-35234666D01*
X162252819Y-35234666D02*
X162252819Y-35139428D01*
X162252819Y-35139428D02*
X162205200Y-34996571D01*
X162205200Y-34996571D02*
X162109961Y-34901333D01*
X162109961Y-34901333D02*
X162014723Y-34853714D01*
X162014723Y-34853714D02*
X161824247Y-34806095D01*
X161824247Y-34806095D02*
X161681390Y-34806095D01*
X161681390Y-34806095D02*
X161490914Y-34853714D01*
X161490914Y-34853714D02*
X161395676Y-34901333D01*
X161395676Y-34901333D02*
X161300438Y-34996571D01*
X161300438Y-34996571D02*
X161252819Y-35139428D01*
X161252819Y-35139428D02*
X161252819Y-35234666D01*
X161252819Y-35234666D02*
X161300438Y-35377523D01*
X161300438Y-35377523D02*
X161348057Y-35425142D01*
X161348057Y-35806095D02*
X161300438Y-35853714D01*
X161300438Y-35853714D02*
X161252819Y-35948952D01*
X161252819Y-35948952D02*
X161252819Y-36187047D01*
X161252819Y-36187047D02*
X161300438Y-36282285D01*
X161300438Y-36282285D02*
X161348057Y-36329904D01*
X161348057Y-36329904D02*
X161443295Y-36377523D01*
X161443295Y-36377523D02*
X161538533Y-36377523D01*
X161538533Y-36377523D02*
X161681390Y-36329904D01*
X161681390Y-36329904D02*
X162252819Y-35758476D01*
X162252819Y-35758476D02*
X162252819Y-36377523D01*
X161348057Y-36758476D02*
X161300438Y-36806095D01*
X161300438Y-36806095D02*
X161252819Y-36901333D01*
X161252819Y-36901333D02*
X161252819Y-37139428D01*
X161252819Y-37139428D02*
X161300438Y-37234666D01*
X161300438Y-37234666D02*
X161348057Y-37282285D01*
X161348057Y-37282285D02*
X161443295Y-37329904D01*
X161443295Y-37329904D02*
X161538533Y-37329904D01*
X161538533Y-37329904D02*
X161681390Y-37282285D01*
X161681390Y-37282285D02*
X162252819Y-36710857D01*
X162252819Y-36710857D02*
X162252819Y-37329904D01*
X150379580Y-140681642D02*
X150427200Y-140634023D01*
X150427200Y-140634023D02*
X150474819Y-140491166D01*
X150474819Y-140491166D02*
X150474819Y-140395928D01*
X150474819Y-140395928D02*
X150427200Y-140253071D01*
X150427200Y-140253071D02*
X150331961Y-140157833D01*
X150331961Y-140157833D02*
X150236723Y-140110214D01*
X150236723Y-140110214D02*
X150046247Y-140062595D01*
X150046247Y-140062595D02*
X149903390Y-140062595D01*
X149903390Y-140062595D02*
X149712914Y-140110214D01*
X149712914Y-140110214D02*
X149617676Y-140157833D01*
X149617676Y-140157833D02*
X149522438Y-140253071D01*
X149522438Y-140253071D02*
X149474819Y-140395928D01*
X149474819Y-140395928D02*
X149474819Y-140491166D01*
X149474819Y-140491166D02*
X149522438Y-140634023D01*
X149522438Y-140634023D02*
X149570057Y-140681642D01*
X149570057Y-141062595D02*
X149522438Y-141110214D01*
X149522438Y-141110214D02*
X149474819Y-141205452D01*
X149474819Y-141205452D02*
X149474819Y-141443547D01*
X149474819Y-141443547D02*
X149522438Y-141538785D01*
X149522438Y-141538785D02*
X149570057Y-141586404D01*
X149570057Y-141586404D02*
X149665295Y-141634023D01*
X149665295Y-141634023D02*
X149760533Y-141634023D01*
X149760533Y-141634023D02*
X149903390Y-141586404D01*
X149903390Y-141586404D02*
X150474819Y-141014976D01*
X150474819Y-141014976D02*
X150474819Y-141634023D01*
X149808152Y-142491166D02*
X150474819Y-142491166D01*
X149427200Y-142253071D02*
X150141485Y-142014976D01*
X150141485Y-142014976D02*
X150141485Y-142634023D01*
X112279580Y-102581642D02*
X112327200Y-102534023D01*
X112327200Y-102534023D02*
X112374819Y-102391166D01*
X112374819Y-102391166D02*
X112374819Y-102295928D01*
X112374819Y-102295928D02*
X112327200Y-102153071D01*
X112327200Y-102153071D02*
X112231961Y-102057833D01*
X112231961Y-102057833D02*
X112136723Y-102010214D01*
X112136723Y-102010214D02*
X111946247Y-101962595D01*
X111946247Y-101962595D02*
X111803390Y-101962595D01*
X111803390Y-101962595D02*
X111612914Y-102010214D01*
X111612914Y-102010214D02*
X111517676Y-102057833D01*
X111517676Y-102057833D02*
X111422438Y-102153071D01*
X111422438Y-102153071D02*
X111374819Y-102295928D01*
X111374819Y-102295928D02*
X111374819Y-102391166D01*
X111374819Y-102391166D02*
X111422438Y-102534023D01*
X111422438Y-102534023D02*
X111470057Y-102581642D01*
X112374819Y-103534023D02*
X112374819Y-102962595D01*
X112374819Y-103248309D02*
X111374819Y-103248309D01*
X111374819Y-103248309D02*
X111517676Y-103153071D01*
X111517676Y-103153071D02*
X111612914Y-103057833D01*
X111612914Y-103057833D02*
X111660533Y-102962595D01*
X111374819Y-103867357D02*
X111374819Y-104486404D01*
X111374819Y-104486404D02*
X111755771Y-104153071D01*
X111755771Y-104153071D02*
X111755771Y-104295928D01*
X111755771Y-104295928D02*
X111803390Y-104391166D01*
X111803390Y-104391166D02*
X111851009Y-104438785D01*
X111851009Y-104438785D02*
X111946247Y-104486404D01*
X111946247Y-104486404D02*
X112184342Y-104486404D01*
X112184342Y-104486404D02*
X112279580Y-104438785D01*
X112279580Y-104438785D02*
X112327200Y-104391166D01*
X112327200Y-104391166D02*
X112374819Y-104295928D01*
X112374819Y-104295928D02*
X112374819Y-104010214D01*
X112374819Y-104010214D02*
X112327200Y-103914976D01*
X112327200Y-103914976D02*
X112279580Y-103867357D01*
X100743404Y-68494819D02*
X100743404Y-69304342D01*
X100743404Y-69304342D02*
X100695785Y-69399580D01*
X100695785Y-69399580D02*
X100648166Y-69447200D01*
X100648166Y-69447200D02*
X100552928Y-69494819D01*
X100552928Y-69494819D02*
X100362452Y-69494819D01*
X100362452Y-69494819D02*
X100267214Y-69447200D01*
X100267214Y-69447200D02*
X100219595Y-69399580D01*
X100219595Y-69399580D02*
X100171976Y-69304342D01*
X100171976Y-69304342D02*
X100171976Y-68494819D01*
X99743404Y-68590057D02*
X99695785Y-68542438D01*
X99695785Y-68542438D02*
X99600547Y-68494819D01*
X99600547Y-68494819D02*
X99362452Y-68494819D01*
X99362452Y-68494819D02*
X99267214Y-68542438D01*
X99267214Y-68542438D02*
X99219595Y-68590057D01*
X99219595Y-68590057D02*
X99171976Y-68685295D01*
X99171976Y-68685295D02*
X99171976Y-68780533D01*
X99171976Y-68780533D02*
X99219595Y-68923390D01*
X99219595Y-68923390D02*
X99791023Y-69494819D01*
X99791023Y-69494819D02*
X99171976Y-69494819D01*
X131329580Y-83531642D02*
X131377200Y-83484023D01*
X131377200Y-83484023D02*
X131424819Y-83341166D01*
X131424819Y-83341166D02*
X131424819Y-83245928D01*
X131424819Y-83245928D02*
X131377200Y-83103071D01*
X131377200Y-83103071D02*
X131281961Y-83007833D01*
X131281961Y-83007833D02*
X131186723Y-82960214D01*
X131186723Y-82960214D02*
X130996247Y-82912595D01*
X130996247Y-82912595D02*
X130853390Y-82912595D01*
X130853390Y-82912595D02*
X130662914Y-82960214D01*
X130662914Y-82960214D02*
X130567676Y-83007833D01*
X130567676Y-83007833D02*
X130472438Y-83103071D01*
X130472438Y-83103071D02*
X130424819Y-83245928D01*
X130424819Y-83245928D02*
X130424819Y-83341166D01*
X130424819Y-83341166D02*
X130472438Y-83484023D01*
X130472438Y-83484023D02*
X130520057Y-83531642D01*
X131424819Y-84484023D02*
X131424819Y-83912595D01*
X131424819Y-84198309D02*
X130424819Y-84198309D01*
X130424819Y-84198309D02*
X130567676Y-84103071D01*
X130567676Y-84103071D02*
X130662914Y-84007833D01*
X130662914Y-84007833D02*
X130710533Y-83912595D01*
X130424819Y-85388785D02*
X130424819Y-84912595D01*
X130424819Y-84912595D02*
X130901009Y-84864976D01*
X130901009Y-84864976D02*
X130853390Y-84912595D01*
X130853390Y-84912595D02*
X130805771Y-85007833D01*
X130805771Y-85007833D02*
X130805771Y-85245928D01*
X130805771Y-85245928D02*
X130853390Y-85341166D01*
X130853390Y-85341166D02*
X130901009Y-85388785D01*
X130901009Y-85388785D02*
X130996247Y-85436404D01*
X130996247Y-85436404D02*
X131234342Y-85436404D01*
X131234342Y-85436404D02*
X131329580Y-85388785D01*
X131329580Y-85388785D02*
X131377200Y-85341166D01*
X131377200Y-85341166D02*
X131424819Y-85245928D01*
X131424819Y-85245928D02*
X131424819Y-85007833D01*
X131424819Y-85007833D02*
X131377200Y-84912595D01*
X131377200Y-84912595D02*
X131329580Y-84864976D01*
X127676819Y-141659714D02*
X126676819Y-141659714D01*
X126676819Y-141659714D02*
X126676819Y-141897809D01*
X126676819Y-141897809D02*
X126724438Y-142040666D01*
X126724438Y-142040666D02*
X126819676Y-142135904D01*
X126819676Y-142135904D02*
X126914914Y-142183523D01*
X126914914Y-142183523D02*
X127105390Y-142231142D01*
X127105390Y-142231142D02*
X127248247Y-142231142D01*
X127248247Y-142231142D02*
X127438723Y-142183523D01*
X127438723Y-142183523D02*
X127533961Y-142135904D01*
X127533961Y-142135904D02*
X127629200Y-142040666D01*
X127629200Y-142040666D02*
X127676819Y-141897809D01*
X127676819Y-141897809D02*
X127676819Y-141659714D01*
X127676819Y-143183523D02*
X127676819Y-142612095D01*
X127676819Y-142897809D02*
X126676819Y-142897809D01*
X126676819Y-142897809D02*
X126819676Y-142802571D01*
X126819676Y-142802571D02*
X126914914Y-142707333D01*
X126914914Y-142707333D02*
X126962533Y-142612095D01*
X126676819Y-143516857D02*
X126676819Y-144183523D01*
X126676819Y-144183523D02*
X127676819Y-143754952D01*
X150379580Y-102581642D02*
X150427200Y-102534023D01*
X150427200Y-102534023D02*
X150474819Y-102391166D01*
X150474819Y-102391166D02*
X150474819Y-102295928D01*
X150474819Y-102295928D02*
X150427200Y-102153071D01*
X150427200Y-102153071D02*
X150331961Y-102057833D01*
X150331961Y-102057833D02*
X150236723Y-102010214D01*
X150236723Y-102010214D02*
X150046247Y-101962595D01*
X150046247Y-101962595D02*
X149903390Y-101962595D01*
X149903390Y-101962595D02*
X149712914Y-102010214D01*
X149712914Y-102010214D02*
X149617676Y-102057833D01*
X149617676Y-102057833D02*
X149522438Y-102153071D01*
X149522438Y-102153071D02*
X149474819Y-102295928D01*
X149474819Y-102295928D02*
X149474819Y-102391166D01*
X149474819Y-102391166D02*
X149522438Y-102534023D01*
X149522438Y-102534023D02*
X149570057Y-102581642D01*
X150474819Y-103534023D02*
X150474819Y-102962595D01*
X150474819Y-103248309D02*
X149474819Y-103248309D01*
X149474819Y-103248309D02*
X149617676Y-103153071D01*
X149617676Y-103153071D02*
X149712914Y-103057833D01*
X149712914Y-103057833D02*
X149760533Y-102962595D01*
X150474819Y-104486404D02*
X150474819Y-103914976D01*
X150474819Y-104200690D02*
X149474819Y-104200690D01*
X149474819Y-104200690D02*
X149617676Y-104105452D01*
X149617676Y-104105452D02*
X149712914Y-104010214D01*
X149712914Y-104010214D02*
X149760533Y-103914976D01*
X131329580Y-102581642D02*
X131377200Y-102534023D01*
X131377200Y-102534023D02*
X131424819Y-102391166D01*
X131424819Y-102391166D02*
X131424819Y-102295928D01*
X131424819Y-102295928D02*
X131377200Y-102153071D01*
X131377200Y-102153071D02*
X131281961Y-102057833D01*
X131281961Y-102057833D02*
X131186723Y-102010214D01*
X131186723Y-102010214D02*
X130996247Y-101962595D01*
X130996247Y-101962595D02*
X130853390Y-101962595D01*
X130853390Y-101962595D02*
X130662914Y-102010214D01*
X130662914Y-102010214D02*
X130567676Y-102057833D01*
X130567676Y-102057833D02*
X130472438Y-102153071D01*
X130472438Y-102153071D02*
X130424819Y-102295928D01*
X130424819Y-102295928D02*
X130424819Y-102391166D01*
X130424819Y-102391166D02*
X130472438Y-102534023D01*
X130472438Y-102534023D02*
X130520057Y-102581642D01*
X131424819Y-103534023D02*
X131424819Y-102962595D01*
X131424819Y-103248309D02*
X130424819Y-103248309D01*
X130424819Y-103248309D02*
X130567676Y-103153071D01*
X130567676Y-103153071D02*
X130662914Y-103057833D01*
X130662914Y-103057833D02*
X130710533Y-102962595D01*
X130520057Y-103914976D02*
X130472438Y-103962595D01*
X130472438Y-103962595D02*
X130424819Y-104057833D01*
X130424819Y-104057833D02*
X130424819Y-104295928D01*
X130424819Y-104295928D02*
X130472438Y-104391166D01*
X130472438Y-104391166D02*
X130520057Y-104438785D01*
X130520057Y-104438785D02*
X130615295Y-104486404D01*
X130615295Y-104486404D02*
X130710533Y-104486404D01*
X130710533Y-104486404D02*
X130853390Y-104438785D01*
X130853390Y-104438785D02*
X131424819Y-103867357D01*
X131424819Y-103867357D02*
X131424819Y-104486404D01*
X169429580Y-121631642D02*
X169477200Y-121584023D01*
X169477200Y-121584023D02*
X169524819Y-121441166D01*
X169524819Y-121441166D02*
X169524819Y-121345928D01*
X169524819Y-121345928D02*
X169477200Y-121203071D01*
X169477200Y-121203071D02*
X169381961Y-121107833D01*
X169381961Y-121107833D02*
X169286723Y-121060214D01*
X169286723Y-121060214D02*
X169096247Y-121012595D01*
X169096247Y-121012595D02*
X168953390Y-121012595D01*
X168953390Y-121012595D02*
X168762914Y-121060214D01*
X168762914Y-121060214D02*
X168667676Y-121107833D01*
X168667676Y-121107833D02*
X168572438Y-121203071D01*
X168572438Y-121203071D02*
X168524819Y-121345928D01*
X168524819Y-121345928D02*
X168524819Y-121441166D01*
X168524819Y-121441166D02*
X168572438Y-121584023D01*
X168572438Y-121584023D02*
X168620057Y-121631642D01*
X169524819Y-122584023D02*
X169524819Y-122012595D01*
X169524819Y-122298309D02*
X168524819Y-122298309D01*
X168524819Y-122298309D02*
X168667676Y-122203071D01*
X168667676Y-122203071D02*
X168762914Y-122107833D01*
X168762914Y-122107833D02*
X168810533Y-122012595D01*
X168524819Y-123441166D02*
X168524819Y-123250690D01*
X168524819Y-123250690D02*
X168572438Y-123155452D01*
X168572438Y-123155452D02*
X168620057Y-123107833D01*
X168620057Y-123107833D02*
X168762914Y-123012595D01*
X168762914Y-123012595D02*
X168953390Y-122964976D01*
X168953390Y-122964976D02*
X169334342Y-122964976D01*
X169334342Y-122964976D02*
X169429580Y-123012595D01*
X169429580Y-123012595D02*
X169477200Y-123060214D01*
X169477200Y-123060214D02*
X169524819Y-123155452D01*
X169524819Y-123155452D02*
X169524819Y-123345928D01*
X169524819Y-123345928D02*
X169477200Y-123441166D01*
X169477200Y-123441166D02*
X169429580Y-123488785D01*
X169429580Y-123488785D02*
X169334342Y-123536404D01*
X169334342Y-123536404D02*
X169096247Y-123536404D01*
X169096247Y-123536404D02*
X169001009Y-123488785D01*
X169001009Y-123488785D02*
X168953390Y-123441166D01*
X168953390Y-123441166D02*
X168905771Y-123345928D01*
X168905771Y-123345928D02*
X168905771Y-123155452D01*
X168905771Y-123155452D02*
X168953390Y-123060214D01*
X168953390Y-123060214D02*
X169001009Y-123012595D01*
X169001009Y-123012595D02*
X169096247Y-122964976D01*
X146726819Y-122609714D02*
X145726819Y-122609714D01*
X145726819Y-122609714D02*
X145726819Y-122847809D01*
X145726819Y-122847809D02*
X145774438Y-122990666D01*
X145774438Y-122990666D02*
X145869676Y-123085904D01*
X145869676Y-123085904D02*
X145964914Y-123133523D01*
X145964914Y-123133523D02*
X146155390Y-123181142D01*
X146155390Y-123181142D02*
X146298247Y-123181142D01*
X146298247Y-123181142D02*
X146488723Y-123133523D01*
X146488723Y-123133523D02*
X146583961Y-123085904D01*
X146583961Y-123085904D02*
X146679200Y-122990666D01*
X146679200Y-122990666D02*
X146726819Y-122847809D01*
X146726819Y-122847809D02*
X146726819Y-122609714D01*
X146726819Y-124133523D02*
X146726819Y-123562095D01*
X146726819Y-123847809D02*
X145726819Y-123847809D01*
X145726819Y-123847809D02*
X145869676Y-123752571D01*
X145869676Y-123752571D02*
X145964914Y-123657333D01*
X145964914Y-123657333D02*
X146012533Y-123562095D01*
X146060152Y-124990666D02*
X146726819Y-124990666D01*
X145679200Y-124752571D02*
X146393485Y-124514476D01*
X146393485Y-124514476D02*
X146393485Y-125133523D01*
X146726819Y-141659714D02*
X145726819Y-141659714D01*
X145726819Y-141659714D02*
X145726819Y-141897809D01*
X145726819Y-141897809D02*
X145774438Y-142040666D01*
X145774438Y-142040666D02*
X145869676Y-142135904D01*
X145869676Y-142135904D02*
X145964914Y-142183523D01*
X145964914Y-142183523D02*
X146155390Y-142231142D01*
X146155390Y-142231142D02*
X146298247Y-142231142D01*
X146298247Y-142231142D02*
X146488723Y-142183523D01*
X146488723Y-142183523D02*
X146583961Y-142135904D01*
X146583961Y-142135904D02*
X146679200Y-142040666D01*
X146679200Y-142040666D02*
X146726819Y-141897809D01*
X146726819Y-141897809D02*
X146726819Y-141659714D01*
X146726819Y-143183523D02*
X146726819Y-142612095D01*
X146726819Y-142897809D02*
X145726819Y-142897809D01*
X145726819Y-142897809D02*
X145869676Y-142802571D01*
X145869676Y-142802571D02*
X145964914Y-142707333D01*
X145964914Y-142707333D02*
X146012533Y-142612095D01*
X146155390Y-143754952D02*
X146107771Y-143659714D01*
X146107771Y-143659714D02*
X146060152Y-143612095D01*
X146060152Y-143612095D02*
X145964914Y-143564476D01*
X145964914Y-143564476D02*
X145917295Y-143564476D01*
X145917295Y-143564476D02*
X145822057Y-143612095D01*
X145822057Y-143612095D02*
X145774438Y-143659714D01*
X145774438Y-143659714D02*
X145726819Y-143754952D01*
X145726819Y-143754952D02*
X145726819Y-143945428D01*
X145726819Y-143945428D02*
X145774438Y-144040666D01*
X145774438Y-144040666D02*
X145822057Y-144088285D01*
X145822057Y-144088285D02*
X145917295Y-144135904D01*
X145917295Y-144135904D02*
X145964914Y-144135904D01*
X145964914Y-144135904D02*
X146060152Y-144088285D01*
X146060152Y-144088285D02*
X146107771Y-144040666D01*
X146107771Y-144040666D02*
X146155390Y-143945428D01*
X146155390Y-143945428D02*
X146155390Y-143754952D01*
X146155390Y-143754952D02*
X146203009Y-143659714D01*
X146203009Y-143659714D02*
X146250628Y-143612095D01*
X146250628Y-143612095D02*
X146345866Y-143564476D01*
X146345866Y-143564476D02*
X146536342Y-143564476D01*
X146536342Y-143564476D02*
X146631580Y-143612095D01*
X146631580Y-143612095D02*
X146679200Y-143659714D01*
X146679200Y-143659714D02*
X146726819Y-143754952D01*
X146726819Y-143754952D02*
X146726819Y-143945428D01*
X146726819Y-143945428D02*
X146679200Y-144040666D01*
X146679200Y-144040666D02*
X146631580Y-144088285D01*
X146631580Y-144088285D02*
X146536342Y-144135904D01*
X146536342Y-144135904D02*
X146345866Y-144135904D01*
X146345866Y-144135904D02*
X146250628Y-144088285D01*
X146250628Y-144088285D02*
X146203009Y-144040666D01*
X146203009Y-144040666D02*
X146155390Y-143945428D01*
X127676819Y-104035905D02*
X126676819Y-104035905D01*
X126676819Y-104035905D02*
X126676819Y-104274000D01*
X126676819Y-104274000D02*
X126724438Y-104416857D01*
X126724438Y-104416857D02*
X126819676Y-104512095D01*
X126819676Y-104512095D02*
X126914914Y-104559714D01*
X126914914Y-104559714D02*
X127105390Y-104607333D01*
X127105390Y-104607333D02*
X127248247Y-104607333D01*
X127248247Y-104607333D02*
X127438723Y-104559714D01*
X127438723Y-104559714D02*
X127533961Y-104512095D01*
X127533961Y-104512095D02*
X127629200Y-104416857D01*
X127629200Y-104416857D02*
X127676819Y-104274000D01*
X127676819Y-104274000D02*
X127676819Y-104035905D01*
X127676819Y-105083524D02*
X127676819Y-105274000D01*
X127676819Y-105274000D02*
X127629200Y-105369238D01*
X127629200Y-105369238D02*
X127581580Y-105416857D01*
X127581580Y-105416857D02*
X127438723Y-105512095D01*
X127438723Y-105512095D02*
X127248247Y-105559714D01*
X127248247Y-105559714D02*
X126867295Y-105559714D01*
X126867295Y-105559714D02*
X126772057Y-105512095D01*
X126772057Y-105512095D02*
X126724438Y-105464476D01*
X126724438Y-105464476D02*
X126676819Y-105369238D01*
X126676819Y-105369238D02*
X126676819Y-105178762D01*
X126676819Y-105178762D02*
X126724438Y-105083524D01*
X126724438Y-105083524D02*
X126772057Y-105035905D01*
X126772057Y-105035905D02*
X126867295Y-104988286D01*
X126867295Y-104988286D02*
X127105390Y-104988286D01*
X127105390Y-104988286D02*
X127200628Y-105035905D01*
X127200628Y-105035905D02*
X127248247Y-105083524D01*
X127248247Y-105083524D02*
X127295866Y-105178762D01*
X127295866Y-105178762D02*
X127295866Y-105369238D01*
X127295866Y-105369238D02*
X127248247Y-105464476D01*
X127248247Y-105464476D02*
X127200628Y-105512095D01*
X127200628Y-105512095D02*
X127105390Y-105559714D01*
X150379580Y-64957833D02*
X150427200Y-64910214D01*
X150427200Y-64910214D02*
X150474819Y-64767357D01*
X150474819Y-64767357D02*
X150474819Y-64672119D01*
X150474819Y-64672119D02*
X150427200Y-64529262D01*
X150427200Y-64529262D02*
X150331961Y-64434024D01*
X150331961Y-64434024D02*
X150236723Y-64386405D01*
X150236723Y-64386405D02*
X150046247Y-64338786D01*
X150046247Y-64338786D02*
X149903390Y-64338786D01*
X149903390Y-64338786D02*
X149712914Y-64386405D01*
X149712914Y-64386405D02*
X149617676Y-64434024D01*
X149617676Y-64434024D02*
X149522438Y-64529262D01*
X149522438Y-64529262D02*
X149474819Y-64672119D01*
X149474819Y-64672119D02*
X149474819Y-64767357D01*
X149474819Y-64767357D02*
X149522438Y-64910214D01*
X149522438Y-64910214D02*
X149570057Y-64957833D01*
X149474819Y-65814976D02*
X149474819Y-65624500D01*
X149474819Y-65624500D02*
X149522438Y-65529262D01*
X149522438Y-65529262D02*
X149570057Y-65481643D01*
X149570057Y-65481643D02*
X149712914Y-65386405D01*
X149712914Y-65386405D02*
X149903390Y-65338786D01*
X149903390Y-65338786D02*
X150284342Y-65338786D01*
X150284342Y-65338786D02*
X150379580Y-65386405D01*
X150379580Y-65386405D02*
X150427200Y-65434024D01*
X150427200Y-65434024D02*
X150474819Y-65529262D01*
X150474819Y-65529262D02*
X150474819Y-65719738D01*
X150474819Y-65719738D02*
X150427200Y-65814976D01*
X150427200Y-65814976D02*
X150379580Y-65862595D01*
X150379580Y-65862595D02*
X150284342Y-65910214D01*
X150284342Y-65910214D02*
X150046247Y-65910214D01*
X150046247Y-65910214D02*
X149951009Y-65862595D01*
X149951009Y-65862595D02*
X149903390Y-65814976D01*
X149903390Y-65814976D02*
X149855771Y-65719738D01*
X149855771Y-65719738D02*
X149855771Y-65529262D01*
X149855771Y-65529262D02*
X149903390Y-65434024D01*
X149903390Y-65434024D02*
X149951009Y-65386405D01*
X149951009Y-65386405D02*
X150046247Y-65338786D01*
X112279580Y-140681642D02*
X112327200Y-140634023D01*
X112327200Y-140634023D02*
X112374819Y-140491166D01*
X112374819Y-140491166D02*
X112374819Y-140395928D01*
X112374819Y-140395928D02*
X112327200Y-140253071D01*
X112327200Y-140253071D02*
X112231961Y-140157833D01*
X112231961Y-140157833D02*
X112136723Y-140110214D01*
X112136723Y-140110214D02*
X111946247Y-140062595D01*
X111946247Y-140062595D02*
X111803390Y-140062595D01*
X111803390Y-140062595D02*
X111612914Y-140110214D01*
X111612914Y-140110214D02*
X111517676Y-140157833D01*
X111517676Y-140157833D02*
X111422438Y-140253071D01*
X111422438Y-140253071D02*
X111374819Y-140395928D01*
X111374819Y-140395928D02*
X111374819Y-140491166D01*
X111374819Y-140491166D02*
X111422438Y-140634023D01*
X111422438Y-140634023D02*
X111470057Y-140681642D01*
X111470057Y-141062595D02*
X111422438Y-141110214D01*
X111422438Y-141110214D02*
X111374819Y-141205452D01*
X111374819Y-141205452D02*
X111374819Y-141443547D01*
X111374819Y-141443547D02*
X111422438Y-141538785D01*
X111422438Y-141538785D02*
X111470057Y-141586404D01*
X111470057Y-141586404D02*
X111565295Y-141634023D01*
X111565295Y-141634023D02*
X111660533Y-141634023D01*
X111660533Y-141634023D02*
X111803390Y-141586404D01*
X111803390Y-141586404D02*
X112374819Y-141014976D01*
X112374819Y-141014976D02*
X112374819Y-141634023D01*
X111374819Y-142253071D02*
X111374819Y-142348309D01*
X111374819Y-142348309D02*
X111422438Y-142443547D01*
X111422438Y-142443547D02*
X111470057Y-142491166D01*
X111470057Y-142491166D02*
X111565295Y-142538785D01*
X111565295Y-142538785D02*
X111755771Y-142586404D01*
X111755771Y-142586404D02*
X111993866Y-142586404D01*
X111993866Y-142586404D02*
X112184342Y-142538785D01*
X112184342Y-142538785D02*
X112279580Y-142491166D01*
X112279580Y-142491166D02*
X112327200Y-142443547D01*
X112327200Y-142443547D02*
X112374819Y-142348309D01*
X112374819Y-142348309D02*
X112374819Y-142253071D01*
X112374819Y-142253071D02*
X112327200Y-142157833D01*
X112327200Y-142157833D02*
X112279580Y-142110214D01*
X112279580Y-142110214D02*
X112184342Y-142062595D01*
X112184342Y-142062595D02*
X111993866Y-142014976D01*
X111993866Y-142014976D02*
X111755771Y-142014976D01*
X111755771Y-142014976D02*
X111565295Y-142062595D01*
X111565295Y-142062595D02*
X111470057Y-142110214D01*
X111470057Y-142110214D02*
X111422438Y-142157833D01*
X111422438Y-142157833D02*
X111374819Y-142253071D01*
X166538819Y-46537714D02*
X165538819Y-46537714D01*
X165538819Y-46537714D02*
X165538819Y-46775809D01*
X165538819Y-46775809D02*
X165586438Y-46918666D01*
X165586438Y-46918666D02*
X165681676Y-47013904D01*
X165681676Y-47013904D02*
X165776914Y-47061523D01*
X165776914Y-47061523D02*
X165967390Y-47109142D01*
X165967390Y-47109142D02*
X166110247Y-47109142D01*
X166110247Y-47109142D02*
X166300723Y-47061523D01*
X166300723Y-47061523D02*
X166395961Y-47013904D01*
X166395961Y-47013904D02*
X166491200Y-46918666D01*
X166491200Y-46918666D02*
X166538819Y-46775809D01*
X166538819Y-46775809D02*
X166538819Y-46537714D01*
X165634057Y-47490095D02*
X165586438Y-47537714D01*
X165586438Y-47537714D02*
X165538819Y-47632952D01*
X165538819Y-47632952D02*
X165538819Y-47871047D01*
X165538819Y-47871047D02*
X165586438Y-47966285D01*
X165586438Y-47966285D02*
X165634057Y-48013904D01*
X165634057Y-48013904D02*
X165729295Y-48061523D01*
X165729295Y-48061523D02*
X165824533Y-48061523D01*
X165824533Y-48061523D02*
X165967390Y-48013904D01*
X165967390Y-48013904D02*
X166538819Y-47442476D01*
X166538819Y-47442476D02*
X166538819Y-48061523D01*
X165634057Y-48442476D02*
X165586438Y-48490095D01*
X165586438Y-48490095D02*
X165538819Y-48585333D01*
X165538819Y-48585333D02*
X165538819Y-48823428D01*
X165538819Y-48823428D02*
X165586438Y-48918666D01*
X165586438Y-48918666D02*
X165634057Y-48966285D01*
X165634057Y-48966285D02*
X165729295Y-49013904D01*
X165729295Y-49013904D02*
X165824533Y-49013904D01*
X165824533Y-49013904D02*
X165967390Y-48966285D01*
X165967390Y-48966285D02*
X166538819Y-48394857D01*
X166538819Y-48394857D02*
X166538819Y-49013904D01*
X160634819Y-36155333D02*
X160158628Y-35822000D01*
X160634819Y-35583905D02*
X159634819Y-35583905D01*
X159634819Y-35583905D02*
X159634819Y-35964857D01*
X159634819Y-35964857D02*
X159682438Y-36060095D01*
X159682438Y-36060095D02*
X159730057Y-36107714D01*
X159730057Y-36107714D02*
X159825295Y-36155333D01*
X159825295Y-36155333D02*
X159968152Y-36155333D01*
X159968152Y-36155333D02*
X160063390Y-36107714D01*
X160063390Y-36107714D02*
X160111009Y-36060095D01*
X160111009Y-36060095D02*
X160158628Y-35964857D01*
X160158628Y-35964857D02*
X160158628Y-35583905D01*
X160634819Y-36631524D02*
X160634819Y-36822000D01*
X160634819Y-36822000D02*
X160587200Y-36917238D01*
X160587200Y-36917238D02*
X160539580Y-36964857D01*
X160539580Y-36964857D02*
X160396723Y-37060095D01*
X160396723Y-37060095D02*
X160206247Y-37107714D01*
X160206247Y-37107714D02*
X159825295Y-37107714D01*
X159825295Y-37107714D02*
X159730057Y-37060095D01*
X159730057Y-37060095D02*
X159682438Y-37012476D01*
X159682438Y-37012476D02*
X159634819Y-36917238D01*
X159634819Y-36917238D02*
X159634819Y-36726762D01*
X159634819Y-36726762D02*
X159682438Y-36631524D01*
X159682438Y-36631524D02*
X159730057Y-36583905D01*
X159730057Y-36583905D02*
X159825295Y-36536286D01*
X159825295Y-36536286D02*
X160063390Y-36536286D01*
X160063390Y-36536286D02*
X160158628Y-36583905D01*
X160158628Y-36583905D02*
X160206247Y-36631524D01*
X160206247Y-36631524D02*
X160253866Y-36726762D01*
X160253866Y-36726762D02*
X160253866Y-36917238D01*
X160253866Y-36917238D02*
X160206247Y-37012476D01*
X160206247Y-37012476D02*
X160158628Y-37060095D01*
X160158628Y-37060095D02*
X160063390Y-37107714D01*
X104340819Y-36409333D02*
X103864628Y-36076000D01*
X104340819Y-35837905D02*
X103340819Y-35837905D01*
X103340819Y-35837905D02*
X103340819Y-36218857D01*
X103340819Y-36218857D02*
X103388438Y-36314095D01*
X103388438Y-36314095D02*
X103436057Y-36361714D01*
X103436057Y-36361714D02*
X103531295Y-36409333D01*
X103531295Y-36409333D02*
X103674152Y-36409333D01*
X103674152Y-36409333D02*
X103769390Y-36361714D01*
X103769390Y-36361714D02*
X103817009Y-36314095D01*
X103817009Y-36314095D02*
X103864628Y-36218857D01*
X103864628Y-36218857D02*
X103864628Y-35837905D01*
X103674152Y-37266476D02*
X104340819Y-37266476D01*
X103293200Y-37028381D02*
X104007485Y-36790286D01*
X104007485Y-36790286D02*
X104007485Y-37409333D01*
X112279580Y-121631642D02*
X112327200Y-121584023D01*
X112327200Y-121584023D02*
X112374819Y-121441166D01*
X112374819Y-121441166D02*
X112374819Y-121345928D01*
X112374819Y-121345928D02*
X112327200Y-121203071D01*
X112327200Y-121203071D02*
X112231961Y-121107833D01*
X112231961Y-121107833D02*
X112136723Y-121060214D01*
X112136723Y-121060214D02*
X111946247Y-121012595D01*
X111946247Y-121012595D02*
X111803390Y-121012595D01*
X111803390Y-121012595D02*
X111612914Y-121060214D01*
X111612914Y-121060214D02*
X111517676Y-121107833D01*
X111517676Y-121107833D02*
X111422438Y-121203071D01*
X111422438Y-121203071D02*
X111374819Y-121345928D01*
X111374819Y-121345928D02*
X111374819Y-121441166D01*
X111374819Y-121441166D02*
X111422438Y-121584023D01*
X111422438Y-121584023D02*
X111470057Y-121631642D01*
X112374819Y-122584023D02*
X112374819Y-122012595D01*
X112374819Y-122298309D02*
X111374819Y-122298309D01*
X111374819Y-122298309D02*
X111517676Y-122203071D01*
X111517676Y-122203071D02*
X111612914Y-122107833D01*
X111612914Y-122107833D02*
X111660533Y-122012595D01*
X112374819Y-123060214D02*
X112374819Y-123250690D01*
X112374819Y-123250690D02*
X112327200Y-123345928D01*
X112327200Y-123345928D02*
X112279580Y-123393547D01*
X112279580Y-123393547D02*
X112136723Y-123488785D01*
X112136723Y-123488785D02*
X111946247Y-123536404D01*
X111946247Y-123536404D02*
X111565295Y-123536404D01*
X111565295Y-123536404D02*
X111470057Y-123488785D01*
X111470057Y-123488785D02*
X111422438Y-123441166D01*
X111422438Y-123441166D02*
X111374819Y-123345928D01*
X111374819Y-123345928D02*
X111374819Y-123155452D01*
X111374819Y-123155452D02*
X111422438Y-123060214D01*
X111422438Y-123060214D02*
X111470057Y-123012595D01*
X111470057Y-123012595D02*
X111565295Y-122964976D01*
X111565295Y-122964976D02*
X111803390Y-122964976D01*
X111803390Y-122964976D02*
X111898628Y-123012595D01*
X111898628Y-123012595D02*
X111946247Y-123060214D01*
X111946247Y-123060214D02*
X111993866Y-123155452D01*
X111993866Y-123155452D02*
X111993866Y-123345928D01*
X111993866Y-123345928D02*
X111946247Y-123441166D01*
X111946247Y-123441166D02*
X111898628Y-123488785D01*
X111898628Y-123488785D02*
X111803390Y-123536404D01*
X131329580Y-140681642D02*
X131377200Y-140634023D01*
X131377200Y-140634023D02*
X131424819Y-140491166D01*
X131424819Y-140491166D02*
X131424819Y-140395928D01*
X131424819Y-140395928D02*
X131377200Y-140253071D01*
X131377200Y-140253071D02*
X131281961Y-140157833D01*
X131281961Y-140157833D02*
X131186723Y-140110214D01*
X131186723Y-140110214D02*
X130996247Y-140062595D01*
X130996247Y-140062595D02*
X130853390Y-140062595D01*
X130853390Y-140062595D02*
X130662914Y-140110214D01*
X130662914Y-140110214D02*
X130567676Y-140157833D01*
X130567676Y-140157833D02*
X130472438Y-140253071D01*
X130472438Y-140253071D02*
X130424819Y-140395928D01*
X130424819Y-140395928D02*
X130424819Y-140491166D01*
X130424819Y-140491166D02*
X130472438Y-140634023D01*
X130472438Y-140634023D02*
X130520057Y-140681642D01*
X130520057Y-141062595D02*
X130472438Y-141110214D01*
X130472438Y-141110214D02*
X130424819Y-141205452D01*
X130424819Y-141205452D02*
X130424819Y-141443547D01*
X130424819Y-141443547D02*
X130472438Y-141538785D01*
X130472438Y-141538785D02*
X130520057Y-141586404D01*
X130520057Y-141586404D02*
X130615295Y-141634023D01*
X130615295Y-141634023D02*
X130710533Y-141634023D01*
X130710533Y-141634023D02*
X130853390Y-141586404D01*
X130853390Y-141586404D02*
X131424819Y-141014976D01*
X131424819Y-141014976D02*
X131424819Y-141634023D01*
X131424819Y-142586404D02*
X131424819Y-142014976D01*
X131424819Y-142300690D02*
X130424819Y-142300690D01*
X130424819Y-142300690D02*
X130567676Y-142205452D01*
X130567676Y-142205452D02*
X130662914Y-142110214D01*
X130662914Y-142110214D02*
X130710533Y-142014976D01*
X146726819Y-84985905D02*
X145726819Y-84985905D01*
X145726819Y-84985905D02*
X145726819Y-85224000D01*
X145726819Y-85224000D02*
X145774438Y-85366857D01*
X145774438Y-85366857D02*
X145869676Y-85462095D01*
X145869676Y-85462095D02*
X145964914Y-85509714D01*
X145964914Y-85509714D02*
X146155390Y-85557333D01*
X146155390Y-85557333D02*
X146298247Y-85557333D01*
X146298247Y-85557333D02*
X146488723Y-85509714D01*
X146488723Y-85509714D02*
X146583961Y-85462095D01*
X146583961Y-85462095D02*
X146679200Y-85366857D01*
X146679200Y-85366857D02*
X146726819Y-85224000D01*
X146726819Y-85224000D02*
X146726819Y-84985905D01*
X145726819Y-86414476D02*
X145726819Y-86224000D01*
X145726819Y-86224000D02*
X145774438Y-86128762D01*
X145774438Y-86128762D02*
X145822057Y-86081143D01*
X145822057Y-86081143D02*
X145964914Y-85985905D01*
X145964914Y-85985905D02*
X146155390Y-85938286D01*
X146155390Y-85938286D02*
X146536342Y-85938286D01*
X146536342Y-85938286D02*
X146631580Y-85985905D01*
X146631580Y-85985905D02*
X146679200Y-86033524D01*
X146679200Y-86033524D02*
X146726819Y-86128762D01*
X146726819Y-86128762D02*
X146726819Y-86319238D01*
X146726819Y-86319238D02*
X146679200Y-86414476D01*
X146679200Y-86414476D02*
X146631580Y-86462095D01*
X146631580Y-86462095D02*
X146536342Y-86509714D01*
X146536342Y-86509714D02*
X146298247Y-86509714D01*
X146298247Y-86509714D02*
X146203009Y-86462095D01*
X146203009Y-86462095D02*
X146155390Y-86414476D01*
X146155390Y-86414476D02*
X146107771Y-86319238D01*
X146107771Y-86319238D02*
X146107771Y-86128762D01*
X146107771Y-86128762D02*
X146155390Y-86033524D01*
X146155390Y-86033524D02*
X146203009Y-85985905D01*
X146203009Y-85985905D02*
X146298247Y-85938286D01*
X165776819Y-84985905D02*
X164776819Y-84985905D01*
X164776819Y-84985905D02*
X164776819Y-85224000D01*
X164776819Y-85224000D02*
X164824438Y-85366857D01*
X164824438Y-85366857D02*
X164919676Y-85462095D01*
X164919676Y-85462095D02*
X165014914Y-85509714D01*
X165014914Y-85509714D02*
X165205390Y-85557333D01*
X165205390Y-85557333D02*
X165348247Y-85557333D01*
X165348247Y-85557333D02*
X165538723Y-85509714D01*
X165538723Y-85509714D02*
X165633961Y-85462095D01*
X165633961Y-85462095D02*
X165729200Y-85366857D01*
X165729200Y-85366857D02*
X165776819Y-85224000D01*
X165776819Y-85224000D02*
X165776819Y-84985905D01*
X164776819Y-85890667D02*
X164776819Y-86557333D01*
X164776819Y-86557333D02*
X165776819Y-86128762D01*
X150379580Y-84007833D02*
X150427200Y-83960214D01*
X150427200Y-83960214D02*
X150474819Y-83817357D01*
X150474819Y-83817357D02*
X150474819Y-83722119D01*
X150474819Y-83722119D02*
X150427200Y-83579262D01*
X150427200Y-83579262D02*
X150331961Y-83484024D01*
X150331961Y-83484024D02*
X150236723Y-83436405D01*
X150236723Y-83436405D02*
X150046247Y-83388786D01*
X150046247Y-83388786D02*
X149903390Y-83388786D01*
X149903390Y-83388786D02*
X149712914Y-83436405D01*
X149712914Y-83436405D02*
X149617676Y-83484024D01*
X149617676Y-83484024D02*
X149522438Y-83579262D01*
X149522438Y-83579262D02*
X149474819Y-83722119D01*
X149474819Y-83722119D02*
X149474819Y-83817357D01*
X149474819Y-83817357D02*
X149522438Y-83960214D01*
X149522438Y-83960214D02*
X149570057Y-84007833D01*
X150474819Y-84484024D02*
X150474819Y-84674500D01*
X150474819Y-84674500D02*
X150427200Y-84769738D01*
X150427200Y-84769738D02*
X150379580Y-84817357D01*
X150379580Y-84817357D02*
X150236723Y-84912595D01*
X150236723Y-84912595D02*
X150046247Y-84960214D01*
X150046247Y-84960214D02*
X149665295Y-84960214D01*
X149665295Y-84960214D02*
X149570057Y-84912595D01*
X149570057Y-84912595D02*
X149522438Y-84864976D01*
X149522438Y-84864976D02*
X149474819Y-84769738D01*
X149474819Y-84769738D02*
X149474819Y-84579262D01*
X149474819Y-84579262D02*
X149522438Y-84484024D01*
X149522438Y-84484024D02*
X149570057Y-84436405D01*
X149570057Y-84436405D02*
X149665295Y-84388786D01*
X149665295Y-84388786D02*
X149903390Y-84388786D01*
X149903390Y-84388786D02*
X149998628Y-84436405D01*
X149998628Y-84436405D02*
X150046247Y-84484024D01*
X150046247Y-84484024D02*
X150093866Y-84579262D01*
X150093866Y-84579262D02*
X150093866Y-84769738D01*
X150093866Y-84769738D02*
X150046247Y-84864976D01*
X150046247Y-84864976D02*
X149998628Y-84912595D01*
X149998628Y-84912595D02*
X149903390Y-84960214D01*
X184826819Y-103559714D02*
X183826819Y-103559714D01*
X183826819Y-103559714D02*
X183826819Y-103797809D01*
X183826819Y-103797809D02*
X183874438Y-103940666D01*
X183874438Y-103940666D02*
X183969676Y-104035904D01*
X183969676Y-104035904D02*
X184064914Y-104083523D01*
X184064914Y-104083523D02*
X184255390Y-104131142D01*
X184255390Y-104131142D02*
X184398247Y-104131142D01*
X184398247Y-104131142D02*
X184588723Y-104083523D01*
X184588723Y-104083523D02*
X184683961Y-104035904D01*
X184683961Y-104035904D02*
X184779200Y-103940666D01*
X184779200Y-103940666D02*
X184826819Y-103797809D01*
X184826819Y-103797809D02*
X184826819Y-103559714D01*
X184826819Y-105083523D02*
X184826819Y-104512095D01*
X184826819Y-104797809D02*
X183826819Y-104797809D01*
X183826819Y-104797809D02*
X183969676Y-104702571D01*
X183969676Y-104702571D02*
X184064914Y-104607333D01*
X184064914Y-104607333D02*
X184112533Y-104512095D01*
X183922057Y-105464476D02*
X183874438Y-105512095D01*
X183874438Y-105512095D02*
X183826819Y-105607333D01*
X183826819Y-105607333D02*
X183826819Y-105845428D01*
X183826819Y-105845428D02*
X183874438Y-105940666D01*
X183874438Y-105940666D02*
X183922057Y-105988285D01*
X183922057Y-105988285D02*
X184017295Y-106035904D01*
X184017295Y-106035904D02*
X184112533Y-106035904D01*
X184112533Y-106035904D02*
X184255390Y-105988285D01*
X184255390Y-105988285D02*
X184826819Y-105416857D01*
X184826819Y-105416857D02*
X184826819Y-106035904D01*
X112279580Y-64957833D02*
X112327200Y-64910214D01*
X112327200Y-64910214D02*
X112374819Y-64767357D01*
X112374819Y-64767357D02*
X112374819Y-64672119D01*
X112374819Y-64672119D02*
X112327200Y-64529262D01*
X112327200Y-64529262D02*
X112231961Y-64434024D01*
X112231961Y-64434024D02*
X112136723Y-64386405D01*
X112136723Y-64386405D02*
X111946247Y-64338786D01*
X111946247Y-64338786D02*
X111803390Y-64338786D01*
X111803390Y-64338786D02*
X111612914Y-64386405D01*
X111612914Y-64386405D02*
X111517676Y-64434024D01*
X111517676Y-64434024D02*
X111422438Y-64529262D01*
X111422438Y-64529262D02*
X111374819Y-64672119D01*
X111374819Y-64672119D02*
X111374819Y-64767357D01*
X111374819Y-64767357D02*
X111422438Y-64910214D01*
X111422438Y-64910214D02*
X111470057Y-64957833D01*
X111374819Y-65291167D02*
X111374819Y-65910214D01*
X111374819Y-65910214D02*
X111755771Y-65576881D01*
X111755771Y-65576881D02*
X111755771Y-65719738D01*
X111755771Y-65719738D02*
X111803390Y-65814976D01*
X111803390Y-65814976D02*
X111851009Y-65862595D01*
X111851009Y-65862595D02*
X111946247Y-65910214D01*
X111946247Y-65910214D02*
X112184342Y-65910214D01*
X112184342Y-65910214D02*
X112279580Y-65862595D01*
X112279580Y-65862595D02*
X112327200Y-65814976D01*
X112327200Y-65814976D02*
X112374819Y-65719738D01*
X112374819Y-65719738D02*
X112374819Y-65434024D01*
X112374819Y-65434024D02*
X112327200Y-65338786D01*
X112327200Y-65338786D02*
X112279580Y-65291167D01*
X161964666Y-46682819D02*
X162297999Y-46206628D01*
X162536094Y-46682819D02*
X162536094Y-45682819D01*
X162536094Y-45682819D02*
X162155142Y-45682819D01*
X162155142Y-45682819D02*
X162059904Y-45730438D01*
X162059904Y-45730438D02*
X162012285Y-45778057D01*
X162012285Y-45778057D02*
X161964666Y-45873295D01*
X161964666Y-45873295D02*
X161964666Y-46016152D01*
X161964666Y-46016152D02*
X162012285Y-46111390D01*
X162012285Y-46111390D02*
X162059904Y-46159009D01*
X162059904Y-46159009D02*
X162155142Y-46206628D01*
X162155142Y-46206628D02*
X162536094Y-46206628D01*
X161583713Y-45778057D02*
X161536094Y-45730438D01*
X161536094Y-45730438D02*
X161440856Y-45682819D01*
X161440856Y-45682819D02*
X161202761Y-45682819D01*
X161202761Y-45682819D02*
X161107523Y-45730438D01*
X161107523Y-45730438D02*
X161059904Y-45778057D01*
X161059904Y-45778057D02*
X161012285Y-45873295D01*
X161012285Y-45873295D02*
X161012285Y-45968533D01*
X161012285Y-45968533D02*
X161059904Y-46111390D01*
X161059904Y-46111390D02*
X161631332Y-46682819D01*
X161631332Y-46682819D02*
X161012285Y-46682819D01*
X127676819Y-84985905D02*
X126676819Y-84985905D01*
X126676819Y-84985905D02*
X126676819Y-85224000D01*
X126676819Y-85224000D02*
X126724438Y-85366857D01*
X126724438Y-85366857D02*
X126819676Y-85462095D01*
X126819676Y-85462095D02*
X126914914Y-85509714D01*
X126914914Y-85509714D02*
X127105390Y-85557333D01*
X127105390Y-85557333D02*
X127248247Y-85557333D01*
X127248247Y-85557333D02*
X127438723Y-85509714D01*
X127438723Y-85509714D02*
X127533961Y-85462095D01*
X127533961Y-85462095D02*
X127629200Y-85366857D01*
X127629200Y-85366857D02*
X127676819Y-85224000D01*
X127676819Y-85224000D02*
X127676819Y-84985905D01*
X126676819Y-86462095D02*
X126676819Y-85985905D01*
X126676819Y-85985905D02*
X127153009Y-85938286D01*
X127153009Y-85938286D02*
X127105390Y-85985905D01*
X127105390Y-85985905D02*
X127057771Y-86081143D01*
X127057771Y-86081143D02*
X127057771Y-86319238D01*
X127057771Y-86319238D02*
X127105390Y-86414476D01*
X127105390Y-86414476D02*
X127153009Y-86462095D01*
X127153009Y-86462095D02*
X127248247Y-86509714D01*
X127248247Y-86509714D02*
X127486342Y-86509714D01*
X127486342Y-86509714D02*
X127581580Y-86462095D01*
X127581580Y-86462095D02*
X127629200Y-86414476D01*
X127629200Y-86414476D02*
X127676819Y-86319238D01*
X127676819Y-86319238D02*
X127676819Y-86081143D01*
X127676819Y-86081143D02*
X127629200Y-85985905D01*
X127629200Y-85985905D02*
X127581580Y-85938286D01*
X112279580Y-83531642D02*
X112327200Y-83484023D01*
X112327200Y-83484023D02*
X112374819Y-83341166D01*
X112374819Y-83341166D02*
X112374819Y-83245928D01*
X112374819Y-83245928D02*
X112327200Y-83103071D01*
X112327200Y-83103071D02*
X112231961Y-83007833D01*
X112231961Y-83007833D02*
X112136723Y-82960214D01*
X112136723Y-82960214D02*
X111946247Y-82912595D01*
X111946247Y-82912595D02*
X111803390Y-82912595D01*
X111803390Y-82912595D02*
X111612914Y-82960214D01*
X111612914Y-82960214D02*
X111517676Y-83007833D01*
X111517676Y-83007833D02*
X111422438Y-83103071D01*
X111422438Y-83103071D02*
X111374819Y-83245928D01*
X111374819Y-83245928D02*
X111374819Y-83341166D01*
X111374819Y-83341166D02*
X111422438Y-83484023D01*
X111422438Y-83484023D02*
X111470057Y-83531642D01*
X112374819Y-84484023D02*
X112374819Y-83912595D01*
X112374819Y-84198309D02*
X111374819Y-84198309D01*
X111374819Y-84198309D02*
X111517676Y-84103071D01*
X111517676Y-84103071D02*
X111612914Y-84007833D01*
X111612914Y-84007833D02*
X111660533Y-83912595D01*
X111708152Y-85341166D02*
X112374819Y-85341166D01*
X111327200Y-85103071D02*
X112041485Y-84864976D01*
X112041485Y-84864976D02*
X112041485Y-85484023D01*
X163587580Y-41775142D02*
X163635200Y-41727523D01*
X163635200Y-41727523D02*
X163682819Y-41584666D01*
X163682819Y-41584666D02*
X163682819Y-41489428D01*
X163682819Y-41489428D02*
X163635200Y-41346571D01*
X163635200Y-41346571D02*
X163539961Y-41251333D01*
X163539961Y-41251333D02*
X163444723Y-41203714D01*
X163444723Y-41203714D02*
X163254247Y-41156095D01*
X163254247Y-41156095D02*
X163111390Y-41156095D01*
X163111390Y-41156095D02*
X162920914Y-41203714D01*
X162920914Y-41203714D02*
X162825676Y-41251333D01*
X162825676Y-41251333D02*
X162730438Y-41346571D01*
X162730438Y-41346571D02*
X162682819Y-41489428D01*
X162682819Y-41489428D02*
X162682819Y-41584666D01*
X162682819Y-41584666D02*
X162730438Y-41727523D01*
X162730438Y-41727523D02*
X162778057Y-41775142D01*
X162778057Y-42156095D02*
X162730438Y-42203714D01*
X162730438Y-42203714D02*
X162682819Y-42298952D01*
X162682819Y-42298952D02*
X162682819Y-42537047D01*
X162682819Y-42537047D02*
X162730438Y-42632285D01*
X162730438Y-42632285D02*
X162778057Y-42679904D01*
X162778057Y-42679904D02*
X162873295Y-42727523D01*
X162873295Y-42727523D02*
X162968533Y-42727523D01*
X162968533Y-42727523D02*
X163111390Y-42679904D01*
X163111390Y-42679904D02*
X163682819Y-42108476D01*
X163682819Y-42108476D02*
X163682819Y-42727523D01*
X162682819Y-43632285D02*
X162682819Y-43156095D01*
X162682819Y-43156095D02*
X163159009Y-43108476D01*
X163159009Y-43108476D02*
X163111390Y-43156095D01*
X163111390Y-43156095D02*
X163063771Y-43251333D01*
X163063771Y-43251333D02*
X163063771Y-43489428D01*
X163063771Y-43489428D02*
X163111390Y-43584666D01*
X163111390Y-43584666D02*
X163159009Y-43632285D01*
X163159009Y-43632285D02*
X163254247Y-43679904D01*
X163254247Y-43679904D02*
X163492342Y-43679904D01*
X163492342Y-43679904D02*
X163587580Y-43632285D01*
X163587580Y-43632285D02*
X163635200Y-43584666D01*
X163635200Y-43584666D02*
X163682819Y-43489428D01*
X163682819Y-43489428D02*
X163682819Y-43251333D01*
X163682819Y-43251333D02*
X163635200Y-43156095D01*
X163635200Y-43156095D02*
X163587580Y-43108476D01*
X127676819Y-65935905D02*
X126676819Y-65935905D01*
X126676819Y-65935905D02*
X126676819Y-66174000D01*
X126676819Y-66174000D02*
X126724438Y-66316857D01*
X126724438Y-66316857D02*
X126819676Y-66412095D01*
X126819676Y-66412095D02*
X126914914Y-66459714D01*
X126914914Y-66459714D02*
X127105390Y-66507333D01*
X127105390Y-66507333D02*
X127248247Y-66507333D01*
X127248247Y-66507333D02*
X127438723Y-66459714D01*
X127438723Y-66459714D02*
X127533961Y-66412095D01*
X127533961Y-66412095D02*
X127629200Y-66316857D01*
X127629200Y-66316857D02*
X127676819Y-66174000D01*
X127676819Y-66174000D02*
X127676819Y-65935905D01*
X127676819Y-67459714D02*
X127676819Y-66888286D01*
X127676819Y-67174000D02*
X126676819Y-67174000D01*
X126676819Y-67174000D02*
X126819676Y-67078762D01*
X126819676Y-67078762D02*
X126914914Y-66983524D01*
X126914914Y-66983524D02*
X126962533Y-66888286D01*
X169429580Y-64957833D02*
X169477200Y-64910214D01*
X169477200Y-64910214D02*
X169524819Y-64767357D01*
X169524819Y-64767357D02*
X169524819Y-64672119D01*
X169524819Y-64672119D02*
X169477200Y-64529262D01*
X169477200Y-64529262D02*
X169381961Y-64434024D01*
X169381961Y-64434024D02*
X169286723Y-64386405D01*
X169286723Y-64386405D02*
X169096247Y-64338786D01*
X169096247Y-64338786D02*
X168953390Y-64338786D01*
X168953390Y-64338786D02*
X168762914Y-64386405D01*
X168762914Y-64386405D02*
X168667676Y-64434024D01*
X168667676Y-64434024D02*
X168572438Y-64529262D01*
X168572438Y-64529262D02*
X168524819Y-64672119D01*
X168524819Y-64672119D02*
X168524819Y-64767357D01*
X168524819Y-64767357D02*
X168572438Y-64910214D01*
X168572438Y-64910214D02*
X168620057Y-64957833D01*
X168524819Y-65291167D02*
X168524819Y-65957833D01*
X168524819Y-65957833D02*
X169524819Y-65529262D01*
X165776819Y-65935905D02*
X164776819Y-65935905D01*
X164776819Y-65935905D02*
X164776819Y-66174000D01*
X164776819Y-66174000D02*
X164824438Y-66316857D01*
X164824438Y-66316857D02*
X164919676Y-66412095D01*
X164919676Y-66412095D02*
X165014914Y-66459714D01*
X165014914Y-66459714D02*
X165205390Y-66507333D01*
X165205390Y-66507333D02*
X165348247Y-66507333D01*
X165348247Y-66507333D02*
X165538723Y-66459714D01*
X165538723Y-66459714D02*
X165633961Y-66412095D01*
X165633961Y-66412095D02*
X165729200Y-66316857D01*
X165729200Y-66316857D02*
X165776819Y-66174000D01*
X165776819Y-66174000D02*
X165776819Y-65935905D01*
X164776819Y-66840667D02*
X164776819Y-67459714D01*
X164776819Y-67459714D02*
X165157771Y-67126381D01*
X165157771Y-67126381D02*
X165157771Y-67269238D01*
X165157771Y-67269238D02*
X165205390Y-67364476D01*
X165205390Y-67364476D02*
X165253009Y-67412095D01*
X165253009Y-67412095D02*
X165348247Y-67459714D01*
X165348247Y-67459714D02*
X165586342Y-67459714D01*
X165586342Y-67459714D02*
X165681580Y-67412095D01*
X165681580Y-67412095D02*
X165729200Y-67364476D01*
X165729200Y-67364476D02*
X165776819Y-67269238D01*
X165776819Y-67269238D02*
X165776819Y-66983524D01*
X165776819Y-66983524D02*
X165729200Y-66888286D01*
X165729200Y-66888286D02*
X165681580Y-66840667D01*
X161964666Y-48206819D02*
X162297999Y-47730628D01*
X162536094Y-48206819D02*
X162536094Y-47206819D01*
X162536094Y-47206819D02*
X162155142Y-47206819D01*
X162155142Y-47206819D02*
X162059904Y-47254438D01*
X162059904Y-47254438D02*
X162012285Y-47302057D01*
X162012285Y-47302057D02*
X161964666Y-47397295D01*
X161964666Y-47397295D02*
X161964666Y-47540152D01*
X161964666Y-47540152D02*
X162012285Y-47635390D01*
X162012285Y-47635390D02*
X162059904Y-47683009D01*
X162059904Y-47683009D02*
X162155142Y-47730628D01*
X162155142Y-47730628D02*
X162536094Y-47730628D01*
X161631332Y-47206819D02*
X161012285Y-47206819D01*
X161012285Y-47206819D02*
X161345618Y-47587771D01*
X161345618Y-47587771D02*
X161202761Y-47587771D01*
X161202761Y-47587771D02*
X161107523Y-47635390D01*
X161107523Y-47635390D02*
X161059904Y-47683009D01*
X161059904Y-47683009D02*
X161012285Y-47778247D01*
X161012285Y-47778247D02*
X161012285Y-48016342D01*
X161012285Y-48016342D02*
X161059904Y-48111580D01*
X161059904Y-48111580D02*
X161107523Y-48159200D01*
X161107523Y-48159200D02*
X161202761Y-48206819D01*
X161202761Y-48206819D02*
X161488475Y-48206819D01*
X161488475Y-48206819D02*
X161583713Y-48159200D01*
X161583713Y-48159200D02*
X161631332Y-48111580D01*
X102816819Y-45045333D02*
X102340628Y-44712000D01*
X102816819Y-44473905D02*
X101816819Y-44473905D01*
X101816819Y-44473905D02*
X101816819Y-44854857D01*
X101816819Y-44854857D02*
X101864438Y-44950095D01*
X101864438Y-44950095D02*
X101912057Y-44997714D01*
X101912057Y-44997714D02*
X102007295Y-45045333D01*
X102007295Y-45045333D02*
X102150152Y-45045333D01*
X102150152Y-45045333D02*
X102245390Y-44997714D01*
X102245390Y-44997714D02*
X102293009Y-44950095D01*
X102293009Y-44950095D02*
X102340628Y-44854857D01*
X102340628Y-44854857D02*
X102340628Y-44473905D01*
X101816819Y-45950095D02*
X101816819Y-45473905D01*
X101816819Y-45473905D02*
X102293009Y-45426286D01*
X102293009Y-45426286D02*
X102245390Y-45473905D01*
X102245390Y-45473905D02*
X102197771Y-45569143D01*
X102197771Y-45569143D02*
X102197771Y-45807238D01*
X102197771Y-45807238D02*
X102245390Y-45902476D01*
X102245390Y-45902476D02*
X102293009Y-45950095D01*
X102293009Y-45950095D02*
X102388247Y-45997714D01*
X102388247Y-45997714D02*
X102626342Y-45997714D01*
X102626342Y-45997714D02*
X102721580Y-45950095D01*
X102721580Y-45950095D02*
X102769200Y-45902476D01*
X102769200Y-45902476D02*
X102816819Y-45807238D01*
X102816819Y-45807238D02*
X102816819Y-45569143D01*
X102816819Y-45569143D02*
X102769200Y-45473905D01*
X102769200Y-45473905D02*
X102721580Y-45426286D01*
X131329580Y-121631642D02*
X131377200Y-121584023D01*
X131377200Y-121584023D02*
X131424819Y-121441166D01*
X131424819Y-121441166D02*
X131424819Y-121345928D01*
X131424819Y-121345928D02*
X131377200Y-121203071D01*
X131377200Y-121203071D02*
X131281961Y-121107833D01*
X131281961Y-121107833D02*
X131186723Y-121060214D01*
X131186723Y-121060214D02*
X130996247Y-121012595D01*
X130996247Y-121012595D02*
X130853390Y-121012595D01*
X130853390Y-121012595D02*
X130662914Y-121060214D01*
X130662914Y-121060214D02*
X130567676Y-121107833D01*
X130567676Y-121107833D02*
X130472438Y-121203071D01*
X130472438Y-121203071D02*
X130424819Y-121345928D01*
X130424819Y-121345928D02*
X130424819Y-121441166D01*
X130424819Y-121441166D02*
X130472438Y-121584023D01*
X130472438Y-121584023D02*
X130520057Y-121631642D01*
X131424819Y-122584023D02*
X131424819Y-122012595D01*
X131424819Y-122298309D02*
X130424819Y-122298309D01*
X130424819Y-122298309D02*
X130567676Y-122203071D01*
X130567676Y-122203071D02*
X130662914Y-122107833D01*
X130662914Y-122107833D02*
X130710533Y-122012595D01*
X130853390Y-123155452D02*
X130805771Y-123060214D01*
X130805771Y-123060214D02*
X130758152Y-123012595D01*
X130758152Y-123012595D02*
X130662914Y-122964976D01*
X130662914Y-122964976D02*
X130615295Y-122964976D01*
X130615295Y-122964976D02*
X130520057Y-123012595D01*
X130520057Y-123012595D02*
X130472438Y-123060214D01*
X130472438Y-123060214D02*
X130424819Y-123155452D01*
X130424819Y-123155452D02*
X130424819Y-123345928D01*
X130424819Y-123345928D02*
X130472438Y-123441166D01*
X130472438Y-123441166D02*
X130520057Y-123488785D01*
X130520057Y-123488785D02*
X130615295Y-123536404D01*
X130615295Y-123536404D02*
X130662914Y-123536404D01*
X130662914Y-123536404D02*
X130758152Y-123488785D01*
X130758152Y-123488785D02*
X130805771Y-123441166D01*
X130805771Y-123441166D02*
X130853390Y-123345928D01*
X130853390Y-123345928D02*
X130853390Y-123155452D01*
X130853390Y-123155452D02*
X130901009Y-123060214D01*
X130901009Y-123060214D02*
X130948628Y-123012595D01*
X130948628Y-123012595D02*
X131043866Y-122964976D01*
X131043866Y-122964976D02*
X131234342Y-122964976D01*
X131234342Y-122964976D02*
X131329580Y-123012595D01*
X131329580Y-123012595D02*
X131377200Y-123060214D01*
X131377200Y-123060214D02*
X131424819Y-123155452D01*
X131424819Y-123155452D02*
X131424819Y-123345928D01*
X131424819Y-123345928D02*
X131377200Y-123441166D01*
X131377200Y-123441166D02*
X131329580Y-123488785D01*
X131329580Y-123488785D02*
X131234342Y-123536404D01*
X131234342Y-123536404D02*
X131043866Y-123536404D01*
X131043866Y-123536404D02*
X130948628Y-123488785D01*
X130948628Y-123488785D02*
X130901009Y-123441166D01*
X130901009Y-123441166D02*
X130853390Y-123345928D01*
X127121404Y-50206819D02*
X127121404Y-51016342D01*
X127121404Y-51016342D02*
X127073785Y-51111580D01*
X127073785Y-51111580D02*
X127026166Y-51159200D01*
X127026166Y-51159200D02*
X126930928Y-51206819D01*
X126930928Y-51206819D02*
X126740452Y-51206819D01*
X126740452Y-51206819D02*
X126645214Y-51159200D01*
X126645214Y-51159200D02*
X126597595Y-51111580D01*
X126597595Y-51111580D02*
X126549976Y-51016342D01*
X126549976Y-51016342D02*
X126549976Y-50206819D01*
X126169023Y-50206819D02*
X125549976Y-50206819D01*
X125549976Y-50206819D02*
X125883309Y-50587771D01*
X125883309Y-50587771D02*
X125740452Y-50587771D01*
X125740452Y-50587771D02*
X125645214Y-50635390D01*
X125645214Y-50635390D02*
X125597595Y-50683009D01*
X125597595Y-50683009D02*
X125549976Y-50778247D01*
X125549976Y-50778247D02*
X125549976Y-51016342D01*
X125549976Y-51016342D02*
X125597595Y-51111580D01*
X125597595Y-51111580D02*
X125645214Y-51159200D01*
X125645214Y-51159200D02*
X125740452Y-51206819D01*
X125740452Y-51206819D02*
X126026166Y-51206819D01*
X126026166Y-51206819D02*
X126121404Y-51159200D01*
X126121404Y-51159200D02*
X126169023Y-51111580D01*
X165776819Y-103559714D02*
X164776819Y-103559714D01*
X164776819Y-103559714D02*
X164776819Y-103797809D01*
X164776819Y-103797809D02*
X164824438Y-103940666D01*
X164824438Y-103940666D02*
X164919676Y-104035904D01*
X164919676Y-104035904D02*
X165014914Y-104083523D01*
X165014914Y-104083523D02*
X165205390Y-104131142D01*
X165205390Y-104131142D02*
X165348247Y-104131142D01*
X165348247Y-104131142D02*
X165538723Y-104083523D01*
X165538723Y-104083523D02*
X165633961Y-104035904D01*
X165633961Y-104035904D02*
X165729200Y-103940666D01*
X165729200Y-103940666D02*
X165776819Y-103797809D01*
X165776819Y-103797809D02*
X165776819Y-103559714D01*
X165776819Y-105083523D02*
X165776819Y-104512095D01*
X165776819Y-104797809D02*
X164776819Y-104797809D01*
X164776819Y-104797809D02*
X164919676Y-104702571D01*
X164919676Y-104702571D02*
X165014914Y-104607333D01*
X165014914Y-104607333D02*
X165062533Y-104512095D01*
X165776819Y-106035904D02*
X165776819Y-105464476D01*
X165776819Y-105750190D02*
X164776819Y-105750190D01*
X164776819Y-105750190D02*
X164919676Y-105654952D01*
X164919676Y-105654952D02*
X165014914Y-105559714D01*
X165014914Y-105559714D02*
X165062533Y-105464476D01*
X184826819Y-122609714D02*
X183826819Y-122609714D01*
X183826819Y-122609714D02*
X183826819Y-122847809D01*
X183826819Y-122847809D02*
X183874438Y-122990666D01*
X183874438Y-122990666D02*
X183969676Y-123085904D01*
X183969676Y-123085904D02*
X184064914Y-123133523D01*
X184064914Y-123133523D02*
X184255390Y-123181142D01*
X184255390Y-123181142D02*
X184398247Y-123181142D01*
X184398247Y-123181142D02*
X184588723Y-123133523D01*
X184588723Y-123133523D02*
X184683961Y-123085904D01*
X184683961Y-123085904D02*
X184779200Y-122990666D01*
X184779200Y-122990666D02*
X184826819Y-122847809D01*
X184826819Y-122847809D02*
X184826819Y-122609714D01*
X184826819Y-124133523D02*
X184826819Y-123562095D01*
X184826819Y-123847809D02*
X183826819Y-123847809D01*
X183826819Y-123847809D02*
X183969676Y-123752571D01*
X183969676Y-123752571D02*
X184064914Y-123657333D01*
X184064914Y-123657333D02*
X184112533Y-123562095D01*
X183826819Y-124990666D02*
X183826819Y-124800190D01*
X183826819Y-124800190D02*
X183874438Y-124704952D01*
X183874438Y-124704952D02*
X183922057Y-124657333D01*
X183922057Y-124657333D02*
X184064914Y-124562095D01*
X184064914Y-124562095D02*
X184255390Y-124514476D01*
X184255390Y-124514476D02*
X184636342Y-124514476D01*
X184636342Y-124514476D02*
X184731580Y-124562095D01*
X184731580Y-124562095D02*
X184779200Y-124609714D01*
X184779200Y-124609714D02*
X184826819Y-124704952D01*
X184826819Y-124704952D02*
X184826819Y-124895428D01*
X184826819Y-124895428D02*
X184779200Y-124990666D01*
X184779200Y-124990666D02*
X184731580Y-125038285D01*
X184731580Y-125038285D02*
X184636342Y-125085904D01*
X184636342Y-125085904D02*
X184398247Y-125085904D01*
X184398247Y-125085904D02*
X184303009Y-125038285D01*
X184303009Y-125038285D02*
X184255390Y-124990666D01*
X184255390Y-124990666D02*
X184207771Y-124895428D01*
X184207771Y-124895428D02*
X184207771Y-124704952D01*
X184207771Y-124704952D02*
X184255390Y-124609714D01*
X184255390Y-124609714D02*
X184303009Y-124562095D01*
X184303009Y-124562095D02*
X184398247Y-124514476D01*
X169429580Y-102581642D02*
X169477200Y-102534023D01*
X169477200Y-102534023D02*
X169524819Y-102391166D01*
X169524819Y-102391166D02*
X169524819Y-102295928D01*
X169524819Y-102295928D02*
X169477200Y-102153071D01*
X169477200Y-102153071D02*
X169381961Y-102057833D01*
X169381961Y-102057833D02*
X169286723Y-102010214D01*
X169286723Y-102010214D02*
X169096247Y-101962595D01*
X169096247Y-101962595D02*
X168953390Y-101962595D01*
X168953390Y-101962595D02*
X168762914Y-102010214D01*
X168762914Y-102010214D02*
X168667676Y-102057833D01*
X168667676Y-102057833D02*
X168572438Y-102153071D01*
X168572438Y-102153071D02*
X168524819Y-102295928D01*
X168524819Y-102295928D02*
X168524819Y-102391166D01*
X168524819Y-102391166D02*
X168572438Y-102534023D01*
X168572438Y-102534023D02*
X168620057Y-102581642D01*
X169524819Y-103534023D02*
X169524819Y-102962595D01*
X169524819Y-103248309D02*
X168524819Y-103248309D01*
X168524819Y-103248309D02*
X168667676Y-103153071D01*
X168667676Y-103153071D02*
X168762914Y-103057833D01*
X168762914Y-103057833D02*
X168810533Y-102962595D01*
X168524819Y-104153071D02*
X168524819Y-104248309D01*
X168524819Y-104248309D02*
X168572438Y-104343547D01*
X168572438Y-104343547D02*
X168620057Y-104391166D01*
X168620057Y-104391166D02*
X168715295Y-104438785D01*
X168715295Y-104438785D02*
X168905771Y-104486404D01*
X168905771Y-104486404D02*
X169143866Y-104486404D01*
X169143866Y-104486404D02*
X169334342Y-104438785D01*
X169334342Y-104438785D02*
X169429580Y-104391166D01*
X169429580Y-104391166D02*
X169477200Y-104343547D01*
X169477200Y-104343547D02*
X169524819Y-104248309D01*
X169524819Y-104248309D02*
X169524819Y-104153071D01*
X169524819Y-104153071D02*
X169477200Y-104057833D01*
X169477200Y-104057833D02*
X169429580Y-104010214D01*
X169429580Y-104010214D02*
X169334342Y-103962595D01*
X169334342Y-103962595D02*
X169143866Y-103914976D01*
X169143866Y-103914976D02*
X168905771Y-103914976D01*
X168905771Y-103914976D02*
X168715295Y-103962595D01*
X168715295Y-103962595D02*
X168620057Y-104010214D01*
X168620057Y-104010214D02*
X168572438Y-104057833D01*
X168572438Y-104057833D02*
X168524819Y-104153071D01*
X131329580Y-64957833D02*
X131377200Y-64910214D01*
X131377200Y-64910214D02*
X131424819Y-64767357D01*
X131424819Y-64767357D02*
X131424819Y-64672119D01*
X131424819Y-64672119D02*
X131377200Y-64529262D01*
X131377200Y-64529262D02*
X131281961Y-64434024D01*
X131281961Y-64434024D02*
X131186723Y-64386405D01*
X131186723Y-64386405D02*
X130996247Y-64338786D01*
X130996247Y-64338786D02*
X130853390Y-64338786D01*
X130853390Y-64338786D02*
X130662914Y-64386405D01*
X130662914Y-64386405D02*
X130567676Y-64434024D01*
X130567676Y-64434024D02*
X130472438Y-64529262D01*
X130472438Y-64529262D02*
X130424819Y-64672119D01*
X130424819Y-64672119D02*
X130424819Y-64767357D01*
X130424819Y-64767357D02*
X130472438Y-64910214D01*
X130472438Y-64910214D02*
X130520057Y-64957833D01*
X130424819Y-65862595D02*
X130424819Y-65386405D01*
X130424819Y-65386405D02*
X130901009Y-65338786D01*
X130901009Y-65338786D02*
X130853390Y-65386405D01*
X130853390Y-65386405D02*
X130805771Y-65481643D01*
X130805771Y-65481643D02*
X130805771Y-65719738D01*
X130805771Y-65719738D02*
X130853390Y-65814976D01*
X130853390Y-65814976D02*
X130901009Y-65862595D01*
X130901009Y-65862595D02*
X130996247Y-65910214D01*
X130996247Y-65910214D02*
X131234342Y-65910214D01*
X131234342Y-65910214D02*
X131329580Y-65862595D01*
X131329580Y-65862595D02*
X131377200Y-65814976D01*
X131377200Y-65814976D02*
X131424819Y-65719738D01*
X131424819Y-65719738D02*
X131424819Y-65481643D01*
X131424819Y-65481643D02*
X131377200Y-65386405D01*
X131377200Y-65386405D02*
X131329580Y-65338786D01*
X148081904Y-33998819D02*
X148081904Y-34808342D01*
X148081904Y-34808342D02*
X148034285Y-34903580D01*
X148034285Y-34903580D02*
X147986666Y-34951200D01*
X147986666Y-34951200D02*
X147891428Y-34998819D01*
X147891428Y-34998819D02*
X147700952Y-34998819D01*
X147700952Y-34998819D02*
X147605714Y-34951200D01*
X147605714Y-34951200D02*
X147558095Y-34903580D01*
X147558095Y-34903580D02*
X147510476Y-34808342D01*
X147510476Y-34808342D02*
X147510476Y-33998819D01*
X146510476Y-34998819D02*
X147081904Y-34998819D01*
X146796190Y-34998819D02*
X146796190Y-33998819D01*
X146796190Y-33998819D02*
X146891428Y-34141676D01*
X146891428Y-34141676D02*
X146986666Y-34236914D01*
X146986666Y-34236914D02*
X147081904Y-34284533D01*
X105769580Y-36409333D02*
X105817200Y-36361714D01*
X105817200Y-36361714D02*
X105864819Y-36218857D01*
X105864819Y-36218857D02*
X105864819Y-36123619D01*
X105864819Y-36123619D02*
X105817200Y-35980762D01*
X105817200Y-35980762D02*
X105721961Y-35885524D01*
X105721961Y-35885524D02*
X105626723Y-35837905D01*
X105626723Y-35837905D02*
X105436247Y-35790286D01*
X105436247Y-35790286D02*
X105293390Y-35790286D01*
X105293390Y-35790286D02*
X105102914Y-35837905D01*
X105102914Y-35837905D02*
X105007676Y-35885524D01*
X105007676Y-35885524D02*
X104912438Y-35980762D01*
X104912438Y-35980762D02*
X104864819Y-36123619D01*
X104864819Y-36123619D02*
X104864819Y-36218857D01*
X104864819Y-36218857D02*
X104912438Y-36361714D01*
X104912438Y-36361714D02*
X104960057Y-36409333D01*
X105198152Y-37266476D02*
X105864819Y-37266476D01*
X104817200Y-37028381D02*
X105531485Y-36790286D01*
X105531485Y-36790286D02*
X105531485Y-37409333D01*
X127676819Y-122609714D02*
X126676819Y-122609714D01*
X126676819Y-122609714D02*
X126676819Y-122847809D01*
X126676819Y-122847809D02*
X126724438Y-122990666D01*
X126724438Y-122990666D02*
X126819676Y-123085904D01*
X126819676Y-123085904D02*
X126914914Y-123133523D01*
X126914914Y-123133523D02*
X127105390Y-123181142D01*
X127105390Y-123181142D02*
X127248247Y-123181142D01*
X127248247Y-123181142D02*
X127438723Y-123133523D01*
X127438723Y-123133523D02*
X127533961Y-123085904D01*
X127533961Y-123085904D02*
X127629200Y-122990666D01*
X127629200Y-122990666D02*
X127676819Y-122847809D01*
X127676819Y-122847809D02*
X127676819Y-122609714D01*
X127676819Y-124133523D02*
X127676819Y-123562095D01*
X127676819Y-123847809D02*
X126676819Y-123847809D01*
X126676819Y-123847809D02*
X126819676Y-123752571D01*
X126819676Y-123752571D02*
X126914914Y-123657333D01*
X126914914Y-123657333D02*
X126962533Y-123562095D01*
X126676819Y-124466857D02*
X126676819Y-125085904D01*
X126676819Y-125085904D02*
X127057771Y-124752571D01*
X127057771Y-124752571D02*
X127057771Y-124895428D01*
X127057771Y-124895428D02*
X127105390Y-124990666D01*
X127105390Y-124990666D02*
X127153009Y-125038285D01*
X127153009Y-125038285D02*
X127248247Y-125085904D01*
X127248247Y-125085904D02*
X127486342Y-125085904D01*
X127486342Y-125085904D02*
X127581580Y-125038285D01*
X127581580Y-125038285D02*
X127629200Y-124990666D01*
X127629200Y-124990666D02*
X127676819Y-124895428D01*
X127676819Y-124895428D02*
X127676819Y-124609714D01*
X127676819Y-124609714D02*
X127629200Y-124514476D01*
X127629200Y-124514476D02*
X127581580Y-124466857D01*
X157774819Y-41778142D02*
X157298628Y-41444809D01*
X157774819Y-41206714D02*
X156774819Y-41206714D01*
X156774819Y-41206714D02*
X156774819Y-41587666D01*
X156774819Y-41587666D02*
X156822438Y-41682904D01*
X156822438Y-41682904D02*
X156870057Y-41730523D01*
X156870057Y-41730523D02*
X156965295Y-41778142D01*
X156965295Y-41778142D02*
X157108152Y-41778142D01*
X157108152Y-41778142D02*
X157203390Y-41730523D01*
X157203390Y-41730523D02*
X157251009Y-41682904D01*
X157251009Y-41682904D02*
X157298628Y-41587666D01*
X157298628Y-41587666D02*
X157298628Y-41206714D01*
X157774819Y-42730523D02*
X157774819Y-42159095D01*
X157774819Y-42444809D02*
X156774819Y-42444809D01*
X156774819Y-42444809D02*
X156917676Y-42349571D01*
X156917676Y-42349571D02*
X157012914Y-42254333D01*
X157012914Y-42254333D02*
X157060533Y-42159095D01*
X156774819Y-43349571D02*
X156774819Y-43444809D01*
X156774819Y-43444809D02*
X156822438Y-43540047D01*
X156822438Y-43540047D02*
X156870057Y-43587666D01*
X156870057Y-43587666D02*
X156965295Y-43635285D01*
X156965295Y-43635285D02*
X157155771Y-43682904D01*
X157155771Y-43682904D02*
X157393866Y-43682904D01*
X157393866Y-43682904D02*
X157584342Y-43635285D01*
X157584342Y-43635285D02*
X157679580Y-43587666D01*
X157679580Y-43587666D02*
X157727200Y-43540047D01*
X157727200Y-43540047D02*
X157774819Y-43444809D01*
X157774819Y-43444809D02*
X157774819Y-43349571D01*
X157774819Y-43349571D02*
X157727200Y-43254333D01*
X157727200Y-43254333D02*
X157679580Y-43206714D01*
X157679580Y-43206714D02*
X157584342Y-43159095D01*
X157584342Y-43159095D02*
X157393866Y-43111476D01*
X157393866Y-43111476D02*
X157155771Y-43111476D01*
X157155771Y-43111476D02*
X156965295Y-43159095D01*
X156965295Y-43159095D02*
X156870057Y-43206714D01*
X156870057Y-43206714D02*
X156822438Y-43254333D01*
X156822438Y-43254333D02*
X156774819Y-43349571D01*
X106023580Y-45045333D02*
X106071200Y-44997714D01*
X106071200Y-44997714D02*
X106118819Y-44854857D01*
X106118819Y-44854857D02*
X106118819Y-44759619D01*
X106118819Y-44759619D02*
X106071200Y-44616762D01*
X106071200Y-44616762D02*
X105975961Y-44521524D01*
X105975961Y-44521524D02*
X105880723Y-44473905D01*
X105880723Y-44473905D02*
X105690247Y-44426286D01*
X105690247Y-44426286D02*
X105547390Y-44426286D01*
X105547390Y-44426286D02*
X105356914Y-44473905D01*
X105356914Y-44473905D02*
X105261676Y-44521524D01*
X105261676Y-44521524D02*
X105166438Y-44616762D01*
X105166438Y-44616762D02*
X105118819Y-44759619D01*
X105118819Y-44759619D02*
X105118819Y-44854857D01*
X105118819Y-44854857D02*
X105166438Y-44997714D01*
X105166438Y-44997714D02*
X105214057Y-45045333D01*
X105214057Y-45426286D02*
X105166438Y-45473905D01*
X105166438Y-45473905D02*
X105118819Y-45569143D01*
X105118819Y-45569143D02*
X105118819Y-45807238D01*
X105118819Y-45807238D02*
X105166438Y-45902476D01*
X105166438Y-45902476D02*
X105214057Y-45950095D01*
X105214057Y-45950095D02*
X105309295Y-45997714D01*
X105309295Y-45997714D02*
X105404533Y-45997714D01*
X105404533Y-45997714D02*
X105547390Y-45950095D01*
X105547390Y-45950095D02*
X106118819Y-45378667D01*
X106118819Y-45378667D02*
X106118819Y-45997714D01*
X101198819Y-65214833D02*
X100722628Y-64881500D01*
X101198819Y-64643405D02*
X100198819Y-64643405D01*
X100198819Y-64643405D02*
X100198819Y-65024357D01*
X100198819Y-65024357D02*
X100246438Y-65119595D01*
X100246438Y-65119595D02*
X100294057Y-65167214D01*
X100294057Y-65167214D02*
X100389295Y-65214833D01*
X100389295Y-65214833D02*
X100532152Y-65214833D01*
X100532152Y-65214833D02*
X100627390Y-65167214D01*
X100627390Y-65167214D02*
X100675009Y-65119595D01*
X100675009Y-65119595D02*
X100722628Y-65024357D01*
X100722628Y-65024357D02*
X100722628Y-64643405D01*
X101198819Y-66167214D02*
X101198819Y-65595786D01*
X101198819Y-65881500D02*
X100198819Y-65881500D01*
X100198819Y-65881500D02*
X100341676Y-65786262D01*
X100341676Y-65786262D02*
X100436914Y-65691024D01*
X100436914Y-65691024D02*
X100484533Y-65595786D01*
X130470819Y-46283714D02*
X129470819Y-46283714D01*
X129470819Y-46283714D02*
X129470819Y-46521809D01*
X129470819Y-46521809D02*
X129518438Y-46664666D01*
X129518438Y-46664666D02*
X129613676Y-46759904D01*
X129613676Y-46759904D02*
X129708914Y-46807523D01*
X129708914Y-46807523D02*
X129899390Y-46855142D01*
X129899390Y-46855142D02*
X130042247Y-46855142D01*
X130042247Y-46855142D02*
X130232723Y-46807523D01*
X130232723Y-46807523D02*
X130327961Y-46759904D01*
X130327961Y-46759904D02*
X130423200Y-46664666D01*
X130423200Y-46664666D02*
X130470819Y-46521809D01*
X130470819Y-46521809D02*
X130470819Y-46283714D01*
X129566057Y-47236095D02*
X129518438Y-47283714D01*
X129518438Y-47283714D02*
X129470819Y-47378952D01*
X129470819Y-47378952D02*
X129470819Y-47617047D01*
X129470819Y-47617047D02*
X129518438Y-47712285D01*
X129518438Y-47712285D02*
X129566057Y-47759904D01*
X129566057Y-47759904D02*
X129661295Y-47807523D01*
X129661295Y-47807523D02*
X129756533Y-47807523D01*
X129756533Y-47807523D02*
X129899390Y-47759904D01*
X129899390Y-47759904D02*
X130470819Y-47188476D01*
X130470819Y-47188476D02*
X130470819Y-47807523D01*
X130470819Y-48759904D02*
X130470819Y-48188476D01*
X130470819Y-48474190D02*
X129470819Y-48474190D01*
X129470819Y-48474190D02*
X129613676Y-48378952D01*
X129613676Y-48378952D02*
X129708914Y-48283714D01*
X129708914Y-48283714D02*
X129756533Y-48188476D01*
X146726819Y-103559714D02*
X145726819Y-103559714D01*
X145726819Y-103559714D02*
X145726819Y-103797809D01*
X145726819Y-103797809D02*
X145774438Y-103940666D01*
X145774438Y-103940666D02*
X145869676Y-104035904D01*
X145869676Y-104035904D02*
X145964914Y-104083523D01*
X145964914Y-104083523D02*
X146155390Y-104131142D01*
X146155390Y-104131142D02*
X146298247Y-104131142D01*
X146298247Y-104131142D02*
X146488723Y-104083523D01*
X146488723Y-104083523D02*
X146583961Y-104035904D01*
X146583961Y-104035904D02*
X146679200Y-103940666D01*
X146679200Y-103940666D02*
X146726819Y-103797809D01*
X146726819Y-103797809D02*
X146726819Y-103559714D01*
X146726819Y-105083523D02*
X146726819Y-104512095D01*
X146726819Y-104797809D02*
X145726819Y-104797809D01*
X145726819Y-104797809D02*
X145869676Y-104702571D01*
X145869676Y-104702571D02*
X145964914Y-104607333D01*
X145964914Y-104607333D02*
X146012533Y-104512095D01*
X145726819Y-105702571D02*
X145726819Y-105797809D01*
X145726819Y-105797809D02*
X145774438Y-105893047D01*
X145774438Y-105893047D02*
X145822057Y-105940666D01*
X145822057Y-105940666D02*
X145917295Y-105988285D01*
X145917295Y-105988285D02*
X146107771Y-106035904D01*
X146107771Y-106035904D02*
X146345866Y-106035904D01*
X146345866Y-106035904D02*
X146536342Y-105988285D01*
X146536342Y-105988285D02*
X146631580Y-105940666D01*
X146631580Y-105940666D02*
X146679200Y-105893047D01*
X146679200Y-105893047D02*
X146726819Y-105797809D01*
X146726819Y-105797809D02*
X146726819Y-105702571D01*
X146726819Y-105702571D02*
X146679200Y-105607333D01*
X146679200Y-105607333D02*
X146631580Y-105559714D01*
X146631580Y-105559714D02*
X146536342Y-105512095D01*
X146536342Y-105512095D02*
X146345866Y-105464476D01*
X146345866Y-105464476D02*
X146107771Y-105464476D01*
X146107771Y-105464476D02*
X145917295Y-105512095D01*
X145917295Y-105512095D02*
X145822057Y-105559714D01*
X145822057Y-105559714D02*
X145774438Y-105607333D01*
X145774438Y-105607333D02*
X145726819Y-105702571D01*
X161678857Y-45412819D02*
X162012190Y-44936628D01*
X162250285Y-45412819D02*
X162250285Y-44412819D01*
X162250285Y-44412819D02*
X161869333Y-44412819D01*
X161869333Y-44412819D02*
X161774095Y-44460438D01*
X161774095Y-44460438D02*
X161726476Y-44508057D01*
X161726476Y-44508057D02*
X161678857Y-44603295D01*
X161678857Y-44603295D02*
X161678857Y-44746152D01*
X161678857Y-44746152D02*
X161726476Y-44841390D01*
X161726476Y-44841390D02*
X161774095Y-44889009D01*
X161774095Y-44889009D02*
X161869333Y-44936628D01*
X161869333Y-44936628D02*
X162250285Y-44936628D01*
X160726476Y-45412819D02*
X161297904Y-45412819D01*
X161012190Y-45412819D02*
X161012190Y-44412819D01*
X161012190Y-44412819D02*
X161107428Y-44555676D01*
X161107428Y-44555676D02*
X161202666Y-44650914D01*
X161202666Y-44650914D02*
X161297904Y-44698533D01*
X159774095Y-45412819D02*
X160345523Y-45412819D01*
X160059809Y-45412819D02*
X160059809Y-44412819D01*
X160059809Y-44412819D02*
X160155047Y-44555676D01*
X160155047Y-44555676D02*
X160250285Y-44650914D01*
X160250285Y-44650914D02*
X160345523Y-44698533D01*
X184826819Y-65935905D02*
X183826819Y-65935905D01*
X183826819Y-65935905D02*
X183826819Y-66174000D01*
X183826819Y-66174000D02*
X183874438Y-66316857D01*
X183874438Y-66316857D02*
X183969676Y-66412095D01*
X183969676Y-66412095D02*
X184064914Y-66459714D01*
X184064914Y-66459714D02*
X184255390Y-66507333D01*
X184255390Y-66507333D02*
X184398247Y-66507333D01*
X184398247Y-66507333D02*
X184588723Y-66459714D01*
X184588723Y-66459714D02*
X184683961Y-66412095D01*
X184683961Y-66412095D02*
X184779200Y-66316857D01*
X184779200Y-66316857D02*
X184826819Y-66174000D01*
X184826819Y-66174000D02*
X184826819Y-65935905D01*
X184160152Y-67364476D02*
X184826819Y-67364476D01*
X183779200Y-67126381D02*
X184493485Y-66888286D01*
X184493485Y-66888286D02*
X184493485Y-67507333D01*
X102816819Y-36409333D02*
X102340628Y-36076000D01*
X102816819Y-35837905D02*
X101816819Y-35837905D01*
X101816819Y-35837905D02*
X101816819Y-36218857D01*
X101816819Y-36218857D02*
X101864438Y-36314095D01*
X101864438Y-36314095D02*
X101912057Y-36361714D01*
X101912057Y-36361714D02*
X102007295Y-36409333D01*
X102007295Y-36409333D02*
X102150152Y-36409333D01*
X102150152Y-36409333D02*
X102245390Y-36361714D01*
X102245390Y-36361714D02*
X102293009Y-36314095D01*
X102293009Y-36314095D02*
X102340628Y-36218857D01*
X102340628Y-36218857D02*
X102340628Y-35837905D01*
X102245390Y-36980762D02*
X102197771Y-36885524D01*
X102197771Y-36885524D02*
X102150152Y-36837905D01*
X102150152Y-36837905D02*
X102054914Y-36790286D01*
X102054914Y-36790286D02*
X102007295Y-36790286D01*
X102007295Y-36790286D02*
X101912057Y-36837905D01*
X101912057Y-36837905D02*
X101864438Y-36885524D01*
X101864438Y-36885524D02*
X101816819Y-36980762D01*
X101816819Y-36980762D02*
X101816819Y-37171238D01*
X101816819Y-37171238D02*
X101864438Y-37266476D01*
X101864438Y-37266476D02*
X101912057Y-37314095D01*
X101912057Y-37314095D02*
X102007295Y-37361714D01*
X102007295Y-37361714D02*
X102054914Y-37361714D01*
X102054914Y-37361714D02*
X102150152Y-37314095D01*
X102150152Y-37314095D02*
X102197771Y-37266476D01*
X102197771Y-37266476D02*
X102245390Y-37171238D01*
X102245390Y-37171238D02*
X102245390Y-36980762D01*
X102245390Y-36980762D02*
X102293009Y-36885524D01*
X102293009Y-36885524D02*
X102340628Y-36837905D01*
X102340628Y-36837905D02*
X102435866Y-36790286D01*
X102435866Y-36790286D02*
X102626342Y-36790286D01*
X102626342Y-36790286D02*
X102721580Y-36837905D01*
X102721580Y-36837905D02*
X102769200Y-36885524D01*
X102769200Y-36885524D02*
X102816819Y-36980762D01*
X102816819Y-36980762D02*
X102816819Y-37171238D01*
X102816819Y-37171238D02*
X102769200Y-37266476D01*
X102769200Y-37266476D02*
X102721580Y-37314095D01*
X102721580Y-37314095D02*
X102626342Y-37361714D01*
X102626342Y-37361714D02*
X102435866Y-37361714D01*
X102435866Y-37361714D02*
X102340628Y-37314095D01*
X102340628Y-37314095D02*
X102293009Y-37266476D01*
X102293009Y-37266476D02*
X102245390Y-37171238D01*
X104594819Y-45045333D02*
X104118628Y-44712000D01*
X104594819Y-44473905D02*
X103594819Y-44473905D01*
X103594819Y-44473905D02*
X103594819Y-44854857D01*
X103594819Y-44854857D02*
X103642438Y-44950095D01*
X103642438Y-44950095D02*
X103690057Y-44997714D01*
X103690057Y-44997714D02*
X103785295Y-45045333D01*
X103785295Y-45045333D02*
X103928152Y-45045333D01*
X103928152Y-45045333D02*
X104023390Y-44997714D01*
X104023390Y-44997714D02*
X104071009Y-44950095D01*
X104071009Y-44950095D02*
X104118628Y-44854857D01*
X104118628Y-44854857D02*
X104118628Y-44473905D01*
X103594819Y-45902476D02*
X103594819Y-45712000D01*
X103594819Y-45712000D02*
X103642438Y-45616762D01*
X103642438Y-45616762D02*
X103690057Y-45569143D01*
X103690057Y-45569143D02*
X103832914Y-45473905D01*
X103832914Y-45473905D02*
X104023390Y-45426286D01*
X104023390Y-45426286D02*
X104404342Y-45426286D01*
X104404342Y-45426286D02*
X104499580Y-45473905D01*
X104499580Y-45473905D02*
X104547200Y-45521524D01*
X104547200Y-45521524D02*
X104594819Y-45616762D01*
X104594819Y-45616762D02*
X104594819Y-45807238D01*
X104594819Y-45807238D02*
X104547200Y-45902476D01*
X104547200Y-45902476D02*
X104499580Y-45950095D01*
X104499580Y-45950095D02*
X104404342Y-45997714D01*
X104404342Y-45997714D02*
X104166247Y-45997714D01*
X104166247Y-45997714D02*
X104071009Y-45950095D01*
X104071009Y-45950095D02*
X104023390Y-45902476D01*
X104023390Y-45902476D02*
X103975771Y-45807238D01*
X103975771Y-45807238D02*
X103975771Y-45616762D01*
X103975771Y-45616762D02*
X104023390Y-45521524D01*
X104023390Y-45521524D02*
X104071009Y-45473905D01*
X104071009Y-45473905D02*
X104166247Y-45426286D01*
X169429580Y-140681642D02*
X169477200Y-140634023D01*
X169477200Y-140634023D02*
X169524819Y-140491166D01*
X169524819Y-140491166D02*
X169524819Y-140395928D01*
X169524819Y-140395928D02*
X169477200Y-140253071D01*
X169477200Y-140253071D02*
X169381961Y-140157833D01*
X169381961Y-140157833D02*
X169286723Y-140110214D01*
X169286723Y-140110214D02*
X169096247Y-140062595D01*
X169096247Y-140062595D02*
X168953390Y-140062595D01*
X168953390Y-140062595D02*
X168762914Y-140110214D01*
X168762914Y-140110214D02*
X168667676Y-140157833D01*
X168667676Y-140157833D02*
X168572438Y-140253071D01*
X168572438Y-140253071D02*
X168524819Y-140395928D01*
X168524819Y-140395928D02*
X168524819Y-140491166D01*
X168524819Y-140491166D02*
X168572438Y-140634023D01*
X168572438Y-140634023D02*
X168620057Y-140681642D01*
X168620057Y-141062595D02*
X168572438Y-141110214D01*
X168572438Y-141110214D02*
X168524819Y-141205452D01*
X168524819Y-141205452D02*
X168524819Y-141443547D01*
X168524819Y-141443547D02*
X168572438Y-141538785D01*
X168572438Y-141538785D02*
X168620057Y-141586404D01*
X168620057Y-141586404D02*
X168715295Y-141634023D01*
X168715295Y-141634023D02*
X168810533Y-141634023D01*
X168810533Y-141634023D02*
X168953390Y-141586404D01*
X168953390Y-141586404D02*
X169524819Y-141014976D01*
X169524819Y-141014976D02*
X169524819Y-141634023D01*
X168524819Y-141967357D02*
X168524819Y-142586404D01*
X168524819Y-142586404D02*
X168905771Y-142253071D01*
X168905771Y-142253071D02*
X168905771Y-142395928D01*
X168905771Y-142395928D02*
X168953390Y-142491166D01*
X168953390Y-142491166D02*
X169001009Y-142538785D01*
X169001009Y-142538785D02*
X169096247Y-142586404D01*
X169096247Y-142586404D02*
X169334342Y-142586404D01*
X169334342Y-142586404D02*
X169429580Y-142538785D01*
X169429580Y-142538785D02*
X169477200Y-142491166D01*
X169477200Y-142491166D02*
X169524819Y-142395928D01*
X169524819Y-142395928D02*
X169524819Y-142110214D01*
X169524819Y-142110214D02*
X169477200Y-142014976D01*
X169477200Y-142014976D02*
X169429580Y-141967357D01*
X165776819Y-141659714D02*
X164776819Y-141659714D01*
X164776819Y-141659714D02*
X164776819Y-141897809D01*
X164776819Y-141897809D02*
X164824438Y-142040666D01*
X164824438Y-142040666D02*
X164919676Y-142135904D01*
X164919676Y-142135904D02*
X165014914Y-142183523D01*
X165014914Y-142183523D02*
X165205390Y-142231142D01*
X165205390Y-142231142D02*
X165348247Y-142231142D01*
X165348247Y-142231142D02*
X165538723Y-142183523D01*
X165538723Y-142183523D02*
X165633961Y-142135904D01*
X165633961Y-142135904D02*
X165729200Y-142040666D01*
X165729200Y-142040666D02*
X165776819Y-141897809D01*
X165776819Y-141897809D02*
X165776819Y-141659714D01*
X165776819Y-143183523D02*
X165776819Y-142612095D01*
X165776819Y-142897809D02*
X164776819Y-142897809D01*
X164776819Y-142897809D02*
X164919676Y-142802571D01*
X164919676Y-142802571D02*
X165014914Y-142707333D01*
X165014914Y-142707333D02*
X165062533Y-142612095D01*
X165776819Y-143659714D02*
X165776819Y-143850190D01*
X165776819Y-143850190D02*
X165729200Y-143945428D01*
X165729200Y-143945428D02*
X165681580Y-143993047D01*
X165681580Y-143993047D02*
X165538723Y-144088285D01*
X165538723Y-144088285D02*
X165348247Y-144135904D01*
X165348247Y-144135904D02*
X164967295Y-144135904D01*
X164967295Y-144135904D02*
X164872057Y-144088285D01*
X164872057Y-144088285D02*
X164824438Y-144040666D01*
X164824438Y-144040666D02*
X164776819Y-143945428D01*
X164776819Y-143945428D02*
X164776819Y-143754952D01*
X164776819Y-143754952D02*
X164824438Y-143659714D01*
X164824438Y-143659714D02*
X164872057Y-143612095D01*
X164872057Y-143612095D02*
X164967295Y-143564476D01*
X164967295Y-143564476D02*
X165205390Y-143564476D01*
X165205390Y-143564476D02*
X165300628Y-143612095D01*
X165300628Y-143612095D02*
X165348247Y-143659714D01*
X165348247Y-143659714D02*
X165395866Y-143754952D01*
X165395866Y-143754952D02*
X165395866Y-143945428D01*
X165395866Y-143945428D02*
X165348247Y-144040666D01*
X165348247Y-144040666D02*
X165300628Y-144088285D01*
X165300628Y-144088285D02*
X165205390Y-144135904D01*
X95863580Y-70445333D02*
X95911200Y-70397714D01*
X95911200Y-70397714D02*
X95958819Y-70254857D01*
X95958819Y-70254857D02*
X95958819Y-70159619D01*
X95958819Y-70159619D02*
X95911200Y-70016762D01*
X95911200Y-70016762D02*
X95815961Y-69921524D01*
X95815961Y-69921524D02*
X95720723Y-69873905D01*
X95720723Y-69873905D02*
X95530247Y-69826286D01*
X95530247Y-69826286D02*
X95387390Y-69826286D01*
X95387390Y-69826286D02*
X95196914Y-69873905D01*
X95196914Y-69873905D02*
X95101676Y-69921524D01*
X95101676Y-69921524D02*
X95006438Y-70016762D01*
X95006438Y-70016762D02*
X94958819Y-70159619D01*
X94958819Y-70159619D02*
X94958819Y-70254857D01*
X94958819Y-70254857D02*
X95006438Y-70397714D01*
X95006438Y-70397714D02*
X95054057Y-70445333D01*
X95958819Y-71397714D02*
X95958819Y-70826286D01*
X95958819Y-71112000D02*
X94958819Y-71112000D01*
X94958819Y-71112000D02*
X95101676Y-71016762D01*
X95101676Y-71016762D02*
X95196914Y-70921524D01*
X95196914Y-70921524D02*
X95244533Y-70826286D01*
X150379580Y-121631642D02*
X150427200Y-121584023D01*
X150427200Y-121584023D02*
X150474819Y-121441166D01*
X150474819Y-121441166D02*
X150474819Y-121345928D01*
X150474819Y-121345928D02*
X150427200Y-121203071D01*
X150427200Y-121203071D02*
X150331961Y-121107833D01*
X150331961Y-121107833D02*
X150236723Y-121060214D01*
X150236723Y-121060214D02*
X150046247Y-121012595D01*
X150046247Y-121012595D02*
X149903390Y-121012595D01*
X149903390Y-121012595D02*
X149712914Y-121060214D01*
X149712914Y-121060214D02*
X149617676Y-121107833D01*
X149617676Y-121107833D02*
X149522438Y-121203071D01*
X149522438Y-121203071D02*
X149474819Y-121345928D01*
X149474819Y-121345928D02*
X149474819Y-121441166D01*
X149474819Y-121441166D02*
X149522438Y-121584023D01*
X149522438Y-121584023D02*
X149570057Y-121631642D01*
X150474819Y-122584023D02*
X150474819Y-122012595D01*
X150474819Y-122298309D02*
X149474819Y-122298309D01*
X149474819Y-122298309D02*
X149617676Y-122203071D01*
X149617676Y-122203071D02*
X149712914Y-122107833D01*
X149712914Y-122107833D02*
X149760533Y-122012595D01*
X149474819Y-122917357D02*
X149474819Y-123584023D01*
X149474819Y-123584023D02*
X150474819Y-123155452D01*
X146726819Y-65935905D02*
X145726819Y-65935905D01*
X145726819Y-65935905D02*
X145726819Y-66174000D01*
X145726819Y-66174000D02*
X145774438Y-66316857D01*
X145774438Y-66316857D02*
X145869676Y-66412095D01*
X145869676Y-66412095D02*
X145964914Y-66459714D01*
X145964914Y-66459714D02*
X146155390Y-66507333D01*
X146155390Y-66507333D02*
X146298247Y-66507333D01*
X146298247Y-66507333D02*
X146488723Y-66459714D01*
X146488723Y-66459714D02*
X146583961Y-66412095D01*
X146583961Y-66412095D02*
X146679200Y-66316857D01*
X146679200Y-66316857D02*
X146726819Y-66174000D01*
X146726819Y-66174000D02*
X146726819Y-65935905D01*
X145822057Y-66888286D02*
X145774438Y-66935905D01*
X145774438Y-66935905D02*
X145726819Y-67031143D01*
X145726819Y-67031143D02*
X145726819Y-67269238D01*
X145726819Y-67269238D02*
X145774438Y-67364476D01*
X145774438Y-67364476D02*
X145822057Y-67412095D01*
X145822057Y-67412095D02*
X145917295Y-67459714D01*
X145917295Y-67459714D02*
X146012533Y-67459714D01*
X146012533Y-67459714D02*
X146155390Y-67412095D01*
X146155390Y-67412095D02*
X146726819Y-66840667D01*
X146726819Y-66840667D02*
X146726819Y-67459714D01*
X159298819Y-36155333D02*
X158822628Y-35822000D01*
X159298819Y-35583905D02*
X158298819Y-35583905D01*
X158298819Y-35583905D02*
X158298819Y-35964857D01*
X158298819Y-35964857D02*
X158346438Y-36060095D01*
X158346438Y-36060095D02*
X158394057Y-36107714D01*
X158394057Y-36107714D02*
X158489295Y-36155333D01*
X158489295Y-36155333D02*
X158632152Y-36155333D01*
X158632152Y-36155333D02*
X158727390Y-36107714D01*
X158727390Y-36107714D02*
X158775009Y-36060095D01*
X158775009Y-36060095D02*
X158822628Y-35964857D01*
X158822628Y-35964857D02*
X158822628Y-35583905D01*
X158298819Y-36488667D02*
X158298819Y-37155333D01*
X158298819Y-37155333D02*
X159298819Y-36726762D01*
D12*
%TO.C,R17*%
X110182576Y-50277500D02*
X110692024Y-50277500D01*
X110182576Y-51322500D02*
X110692024Y-51322500D01*
%TO.C,R16*%
X154229976Y-143974300D02*
X154739424Y-143974300D01*
X154229976Y-145019300D02*
X154739424Y-145019300D01*
%TO.C,R15*%
X153960300Y-126621624D02*
X153960300Y-126112176D01*
X155005300Y-126621624D02*
X155005300Y-126112176D01*
%TO.C,R14*%
X154239700Y-107520824D02*
X154239700Y-107011376D01*
X155284700Y-107520824D02*
X155284700Y-107011376D01*
%TO.C,R13*%
X154239700Y-88496224D02*
X154239700Y-87986776D01*
X155284700Y-88496224D02*
X155284700Y-87986776D01*
%TO.C,R12*%
X154188900Y-69471624D02*
X154188900Y-68962176D01*
X155233900Y-69471624D02*
X155233900Y-68962176D01*
D13*
%TO.C,LED14*%
X159140000Y-123819999D02*
X158240000Y-123819999D01*
X159140000Y-122919999D01*
X159140000Y-123819999D01*
G36*
X159140000Y-123819999D02*
G01*
X158240000Y-123819999D01*
X159140000Y-122919999D01*
X159140000Y-123819999D01*
G37*
%TO.C,LED9*%
X121040000Y-104769999D02*
X120140000Y-104769999D01*
X121040000Y-103869999D01*
X121040000Y-104769999D01*
G36*
X121040000Y-104769999D02*
G01*
X120140000Y-104769999D01*
X121040000Y-103869999D01*
X121040000Y-104769999D01*
G37*
%TO.C,LED20*%
X178190000Y-142869999D02*
X177290000Y-142869999D01*
X178190000Y-141969999D01*
X178190000Y-142869999D01*
G36*
X178190000Y-142869999D02*
G01*
X177290000Y-142869999D01*
X178190000Y-141969999D01*
X178190000Y-142869999D01*
G37*
%TO.C,LED3*%
X159140000Y-66669999D02*
X158240000Y-66669999D01*
X159140000Y-65769999D01*
X159140000Y-66669999D01*
G36*
X159140000Y-66669999D02*
G01*
X158240000Y-66669999D01*
X159140000Y-65769999D01*
X159140000Y-66669999D01*
G37*
%TO.C,LED6*%
X159140000Y-85719999D02*
X158240000Y-85719999D01*
X159140000Y-84819999D01*
X159140000Y-85719999D01*
G36*
X159140000Y-85719999D02*
G01*
X158240000Y-85719999D01*
X159140000Y-84819999D01*
X159140000Y-85719999D01*
G37*
%TO.C,LED11*%
X159140000Y-104769999D02*
X158240000Y-104769999D01*
X159140000Y-103869999D01*
X159140000Y-104769999D01*
G36*
X159140000Y-104769999D02*
G01*
X158240000Y-104769999D01*
X159140000Y-103869999D01*
X159140000Y-104769999D01*
G37*
%TO.C,LED5*%
X178190000Y-85719999D02*
X177290000Y-85719999D01*
X178190000Y-84819999D01*
X178190000Y-85719999D01*
G36*
X178190000Y-85719999D02*
G01*
X177290000Y-85719999D01*
X178190000Y-84819999D01*
X178190000Y-85719999D01*
G37*
D14*
%TO.C,J1*%
X92895801Y-49048439D02*
X92895801Y-52143200D01*
X92895801Y-52143200D02*
X93857061Y-52143200D01*
X97839560Y-46936200D02*
X94200442Y-46936200D01*
X98182941Y-52143200D02*
X99144201Y-52143200D01*
X99144201Y-52143200D02*
X99144201Y-49048439D01*
D13*
%TO.C,LED17*%
X121040000Y-142869999D02*
X120140000Y-142869999D01*
X121040000Y-141969999D01*
X121040000Y-142869999D01*
G36*
X121040000Y-142869999D02*
G01*
X120140000Y-142869999D01*
X121040000Y-141969999D01*
X121040000Y-142869999D01*
G37*
%TO.C,LED16*%
X121040000Y-123819999D02*
X120140000Y-123819999D01*
X121040000Y-122919999D01*
X121040000Y-123819999D01*
G36*
X121040000Y-123819999D02*
G01*
X120140000Y-123819999D01*
X121040000Y-122919999D01*
X121040000Y-123819999D01*
G37*
%TO.C,LED13*%
X178190000Y-123819999D02*
X177290000Y-123819999D01*
X178190000Y-122919999D01*
X178190000Y-123819999D01*
G36*
X178190000Y-123819999D02*
G01*
X177290000Y-123819999D01*
X178190000Y-122919999D01*
X178190000Y-123819999D01*
G37*
%TO.C,LED1*%
X121040000Y-66669999D02*
X120140000Y-66669999D01*
X121040000Y-65769999D01*
X121040000Y-66669999D01*
G36*
X121040000Y-66669999D02*
G01*
X120140000Y-66669999D01*
X121040000Y-65769999D01*
X121040000Y-66669999D01*
G37*
%TO.C,LED2*%
X140090000Y-66669999D02*
X139190000Y-66669999D01*
X140090000Y-65769999D01*
X140090000Y-66669999D01*
G36*
X140090000Y-66669999D02*
G01*
X139190000Y-66669999D01*
X140090000Y-65769999D01*
X140090000Y-66669999D01*
G37*
%TO.C,LED4*%
X178190000Y-66669999D02*
X177290000Y-66669999D01*
X178190000Y-65769999D01*
X178190000Y-66669999D01*
G36*
X178190000Y-66669999D02*
G01*
X177290000Y-66669999D01*
X178190000Y-65769999D01*
X178190000Y-66669999D01*
G37*
%TO.C,LED10*%
X140090000Y-104769999D02*
X139190000Y-104769999D01*
X140090000Y-103869999D01*
X140090000Y-104769999D01*
G36*
X140090000Y-104769999D02*
G01*
X139190000Y-104769999D01*
X140090000Y-103869999D01*
X140090000Y-104769999D01*
G37*
%TO.C,LED21*%
X159140000Y-142869999D02*
X158240000Y-142869999D01*
X159140000Y-141969999D01*
X159140000Y-142869999D01*
G36*
X159140000Y-142869999D02*
G01*
X158240000Y-142869999D01*
X159140000Y-141969999D01*
X159140000Y-142869999D01*
G37*
%TO.C,LED8*%
X121040000Y-85719999D02*
X120140000Y-85719999D01*
X121040000Y-84819999D01*
X121040000Y-85719999D01*
G36*
X121040000Y-85719999D02*
G01*
X120140000Y-85719999D01*
X121040000Y-84819999D01*
X121040000Y-85719999D01*
G37*
%TO.C,LED18*%
X140090000Y-142869999D02*
X139190000Y-142869999D01*
X140090000Y-141969999D01*
X140090000Y-142869999D01*
G36*
X140090000Y-142869999D02*
G01*
X139190000Y-142869999D01*
X140090000Y-141969999D01*
X140090000Y-142869999D01*
G37*
%TO.C,LED7*%
X140090000Y-85719999D02*
X139190000Y-85719999D01*
X140090000Y-84819999D01*
X140090000Y-85719999D01*
G36*
X140090000Y-85719999D02*
G01*
X139190000Y-85719999D01*
X140090000Y-84819999D01*
X140090000Y-85719999D01*
G37*
%TO.C,LED12*%
X178190000Y-104769999D02*
X177290000Y-104769999D01*
X178190000Y-103869999D01*
X178190000Y-104769999D01*
G36*
X178190000Y-104769999D02*
G01*
X177290000Y-104769999D01*
X178190000Y-103869999D01*
X178190000Y-104769999D01*
G37*
%TO.C,LED15*%
X140090000Y-123819999D02*
X139190000Y-123819999D01*
X140090000Y-122919999D01*
X140090000Y-123819999D01*
G36*
X140090000Y-123819999D02*
G01*
X139190000Y-123819999D01*
X140090000Y-122919999D01*
X140090000Y-123819999D01*
G37*
D12*
%TO.C,C8*%
X167130000Y-84028233D02*
X167130000Y-84320767D01*
X168150000Y-84028233D02*
X168150000Y-84320767D01*
%TO.C,D20*%
X171376000Y-143526000D02*
X171376000Y-145526000D01*
X175386000Y-143526000D02*
X171376000Y-143526000D01*
X175386000Y-145526000D02*
X171376000Y-145526000D01*
%TO.C,D15*%
X162322000Y-122174000D02*
X162322000Y-126184000D01*
X162322000Y-126184000D02*
X164322000Y-126184000D01*
X164322000Y-122174000D02*
X164322000Y-126184000D01*
%TO.C,D8*%
X181372000Y-84074000D02*
X181372000Y-88084000D01*
X181372000Y-88084000D02*
X183372000Y-88084000D01*
X183372000Y-84074000D02*
X183372000Y-88084000D01*
%TO.C,C22*%
X161288000Y-38969733D02*
X161288000Y-39262267D01*
X162308000Y-38969733D02*
X162308000Y-39262267D01*
%TO.C,C24*%
X148080000Y-141178233D02*
X148080000Y-141470767D01*
X149100000Y-141178233D02*
X149100000Y-141470767D01*
%TO.C,C13*%
X109980000Y-103078233D02*
X109980000Y-103370767D01*
X111000000Y-103078233D02*
X111000000Y-103370767D01*
%TO.C,U2*%
X97871500Y-70260000D02*
X98321500Y-70260000D01*
X97871500Y-70710000D02*
X97871500Y-70260000D01*
X97871500Y-74030000D02*
X97871500Y-74480000D01*
X97871500Y-74480000D02*
X98321500Y-74480000D01*
X101791500Y-70260000D02*
X101641500Y-70260000D01*
X102091500Y-70500000D02*
X102091500Y-70710000D01*
X102091500Y-74030000D02*
X102091500Y-74480000D01*
X102091500Y-74480000D02*
X101641500Y-74480000D01*
X102091500Y-70260000D02*
X101851500Y-69930000D01*
X102331500Y-69930000D01*
X102091500Y-70260000D01*
G36*
X102091500Y-70260000D02*
G01*
X101851500Y-69930000D01*
X102331500Y-69930000D01*
X102091500Y-70260000D01*
G37*
%TO.C,C15*%
X129030000Y-84028233D02*
X129030000Y-84320767D01*
X130050000Y-84028233D02*
X130050000Y-84320767D01*
%TO.C,D17*%
X124222000Y-141224000D02*
X124222000Y-145234000D01*
X124222000Y-145234000D02*
X126222000Y-145234000D01*
X126222000Y-141224000D02*
X126222000Y-145234000D01*
%TO.C,C11*%
X148080000Y-103078233D02*
X148080000Y-103370767D01*
X149100000Y-103078233D02*
X149100000Y-103370767D01*
%TO.C,C12*%
X129030000Y-103078233D02*
X129030000Y-103370767D01*
X130050000Y-103078233D02*
X130050000Y-103370767D01*
%TO.C,C16*%
X167130000Y-122128233D02*
X167130000Y-122420767D01*
X168150000Y-122128233D02*
X168150000Y-122420767D01*
%TO.C,D14*%
X143272000Y-122174000D02*
X143272000Y-126184000D01*
X143272000Y-126184000D02*
X145272000Y-126184000D01*
X145272000Y-122174000D02*
X145272000Y-126184000D01*
%TO.C,D18*%
X143272000Y-141224000D02*
X143272000Y-145234000D01*
X143272000Y-145234000D02*
X145272000Y-145234000D01*
X145272000Y-141224000D02*
X145272000Y-145234000D01*
%TO.C,D9*%
X124222000Y-103124000D02*
X124222000Y-107134000D01*
X124222000Y-107134000D02*
X126222000Y-107134000D01*
X126222000Y-103124000D02*
X126222000Y-107134000D01*
%TO.C,C6*%
X148080000Y-64978233D02*
X148080000Y-65270767D01*
X149100000Y-64978233D02*
X149100000Y-65270767D01*
%TO.C,C20*%
X109980000Y-141178233D02*
X109980000Y-141470767D01*
X111000000Y-141178233D02*
X111000000Y-141470767D01*
%TO.C,D22*%
X163084000Y-46102000D02*
X163084000Y-50112000D01*
X163084000Y-50112000D02*
X165084000Y-50112000D01*
X165084000Y-46102000D02*
X165084000Y-50112000D01*
%TO.C,R9*%
X158227500Y-38861276D02*
X158227500Y-39370724D01*
X159272500Y-38861276D02*
X159272500Y-39370724D01*
%TO.C,R4*%
X103363500Y-39474224D02*
X103363500Y-38964776D01*
X104408500Y-39474224D02*
X104408500Y-38964776D01*
D15*
%TO.C,G\u002A\u002A\u002A*%
G36*
X102277868Y-92793399D02*
G01*
X101944535Y-92793399D01*
X101944535Y-92486733D01*
X102277868Y-92486733D01*
X102277868Y-92793399D01*
G37*
G36*
X102277868Y-94340064D02*
G01*
X101944535Y-94340064D01*
X101944535Y-93033399D01*
X102277868Y-93033399D01*
X102277868Y-94340064D01*
G37*
G36*
X100037867Y-90113400D02*
G01*
X100437869Y-90113400D01*
X100437869Y-90440064D01*
X100037867Y-90440064D01*
X100037867Y-91420065D01*
X99697868Y-91420065D01*
X99697868Y-90440064D01*
X99157868Y-90440064D01*
X99157868Y-90113400D01*
X99697868Y-90113400D01*
X99697868Y-89693400D01*
X100037867Y-89693400D01*
X100037867Y-90113400D01*
G37*
G36*
X100951202Y-90840723D02*
G01*
X100951196Y-90910986D01*
X100951178Y-91020378D01*
X100951184Y-91117608D01*
X100951256Y-91203423D01*
X100951430Y-91278558D01*
X100951751Y-91343757D01*
X100952258Y-91399755D01*
X100952987Y-91447299D01*
X100953986Y-91487124D01*
X100955288Y-91519971D01*
X100956938Y-91546578D01*
X100958972Y-91567692D01*
X100961435Y-91584045D01*
X100964363Y-91596384D01*
X100967801Y-91605444D01*
X100971785Y-91611969D01*
X100976357Y-91616694D01*
X100981556Y-91620363D01*
X100987424Y-91623717D01*
X100994000Y-91627494D01*
X100994150Y-91627584D01*
X100999628Y-91630506D01*
X101006366Y-91632936D01*
X101015570Y-91634913D01*
X101028446Y-91636485D01*
X101046206Y-91637700D01*
X101070050Y-91638600D01*
X101101193Y-91639236D01*
X101140838Y-91639653D01*
X101190194Y-91639893D01*
X101250467Y-91640007D01*
X101322869Y-91640040D01*
X101631200Y-91640064D01*
X101631200Y-91973400D01*
X101319536Y-91973283D01*
X101281469Y-91973262D01*
X101207993Y-91973118D01*
X101145878Y-91972725D01*
X101093774Y-91971933D01*
X101050331Y-91970601D01*
X101014196Y-91968579D01*
X100984019Y-91965723D01*
X100958453Y-91961886D01*
X100936142Y-91956924D01*
X100915742Y-91950693D01*
X100895900Y-91943043D01*
X100875266Y-91933833D01*
X100852487Y-91922916D01*
X100830152Y-91911612D01*
X100798502Y-91892877D01*
X100770926Y-91871799D01*
X100741916Y-91844469D01*
X100721594Y-91822854D01*
X100687235Y-91778127D01*
X100659833Y-91728597D01*
X100636853Y-91670064D01*
X100621202Y-91623399D01*
X100619345Y-90868398D01*
X100617485Y-90113400D01*
X100951202Y-90113400D01*
X100951202Y-90840723D01*
G37*
G36*
X102064535Y-90569478D02*
G01*
X102064514Y-90655290D01*
X102064403Y-90740085D01*
X102064124Y-90813477D01*
X102063608Y-90876489D01*
X102062783Y-90930141D01*
X102061577Y-90975459D01*
X102059915Y-91013457D01*
X102057725Y-91045164D01*
X102054938Y-91071600D01*
X102051482Y-91093785D01*
X102047279Y-91112742D01*
X102042263Y-91129494D01*
X102036359Y-91145061D01*
X102029492Y-91160466D01*
X102021596Y-91176732D01*
X101998172Y-91218105D01*
X101953217Y-91276041D01*
X101898848Y-91324974D01*
X101835707Y-91364454D01*
X101764430Y-91394028D01*
X101685662Y-91413243D01*
X101677424Y-91414053D01*
X101655635Y-91415130D01*
X101623127Y-91416144D01*
X101581418Y-91417068D01*
X101532020Y-91417869D01*
X101476454Y-91418523D01*
X101416232Y-91419003D01*
X101352869Y-91419282D01*
X101051201Y-91420065D01*
X101051201Y-91087236D01*
X101360720Y-91085316D01*
X101395733Y-91085097D01*
X101462288Y-91084644D01*
X101517266Y-91084170D01*
X101561864Y-91083621D01*
X101597285Y-91082937D01*
X101624729Y-91082064D01*
X101645393Y-91080942D01*
X101660480Y-91079514D01*
X101671190Y-91077723D01*
X101678723Y-91075509D01*
X101684276Y-91072818D01*
X101689055Y-91069590D01*
X101690897Y-91068246D01*
X101698703Y-91062588D01*
X101705429Y-91057092D01*
X101711156Y-91050792D01*
X101715968Y-91042725D01*
X101719940Y-91031928D01*
X101723156Y-91017438D01*
X101725694Y-90998289D01*
X101727632Y-90973515D01*
X101729054Y-90942159D01*
X101730038Y-90903252D01*
X101730665Y-90855831D01*
X101731013Y-90798933D01*
X101731163Y-90731592D01*
X101731196Y-90652848D01*
X101731190Y-90561732D01*
X101731202Y-90113400D01*
X102064535Y-90113400D01*
X102064535Y-90569478D01*
G37*
G36*
X96389726Y-93693897D02*
G01*
X96383573Y-93757869D01*
X96368648Y-93818355D01*
X96344099Y-93879828D01*
X96312704Y-93936453D01*
X96264944Y-93998679D01*
X96207824Y-94052946D01*
X96142769Y-94098132D01*
X96071198Y-94133103D01*
X95994536Y-94156737D01*
X95987501Y-94158141D01*
X95958929Y-94162074D01*
X95924855Y-94164924D01*
X95891201Y-94166154D01*
X95867525Y-94165782D01*
X95788031Y-94156266D01*
X95712239Y-94134591D01*
X95641364Y-94101534D01*
X95576603Y-94057863D01*
X95519171Y-94004355D01*
X95470271Y-93941787D01*
X95431109Y-93870930D01*
X95421215Y-93847602D01*
X95398055Y-93772290D01*
X95387288Y-93696627D01*
X95387498Y-93680883D01*
X95660144Y-93680883D01*
X95670755Y-93733437D01*
X95671268Y-93735111D01*
X95680181Y-93760869D01*
X95690411Y-93780996D01*
X95704910Y-93800241D01*
X95726627Y-93823359D01*
X95754545Y-93849303D01*
X95779772Y-93866976D01*
X95806451Y-93879252D01*
X95830802Y-93886284D01*
X95875553Y-93892374D01*
X95921288Y-93891654D01*
X95961893Y-93883944D01*
X95978795Y-93877665D01*
X96020858Y-93853443D01*
X96058325Y-93820005D01*
X96088286Y-93780279D01*
X96107834Y-93737187D01*
X96114605Y-93707421D01*
X96117284Y-93657201D01*
X96110414Y-93607122D01*
X96094613Y-93560766D01*
X96070508Y-93521718D01*
X96066941Y-93517470D01*
X96027794Y-93481056D01*
X95983517Y-93455451D01*
X95935949Y-93440454D01*
X95886932Y-93435876D01*
X95838311Y-93441522D01*
X95791925Y-93457197D01*
X95749616Y-93482706D01*
X95713226Y-93517854D01*
X95684597Y-93562449D01*
X95675987Y-93581622D01*
X95661812Y-93631197D01*
X95660144Y-93680883D01*
X95387498Y-93680883D01*
X95388287Y-93621726D01*
X95400431Y-93548709D01*
X95423096Y-93478692D01*
X95455658Y-93412791D01*
X95497496Y-93352122D01*
X95547983Y-93297807D01*
X95606498Y-93250959D01*
X95672420Y-93212700D01*
X95745122Y-93184143D01*
X95823983Y-93166410D01*
X95900780Y-93161592D01*
X95977295Y-93169272D01*
X96051416Y-93188832D01*
X96121769Y-93219540D01*
X96186983Y-93260670D01*
X96245681Y-93311490D01*
X96296492Y-93371274D01*
X96338045Y-93439290D01*
X96346448Y-93456366D01*
X96364874Y-93500058D01*
X96377354Y-93542673D01*
X96385079Y-93588945D01*
X96389228Y-93643605D01*
X96389363Y-93657201D01*
X96389726Y-93693897D01*
G37*
G36*
X101711201Y-93360066D02*
G01*
X101351201Y-93360066D01*
X101314223Y-93360090D01*
X101248433Y-93360270D01*
X101187476Y-93360606D01*
X101132564Y-93361083D01*
X101084912Y-93361683D01*
X101045735Y-93362388D01*
X101016248Y-93363186D01*
X100997666Y-93364056D01*
X100991201Y-93364983D01*
X100991246Y-93365106D01*
X100996724Y-93371373D01*
X101010842Y-93386250D01*
X101032874Y-93408996D01*
X101062091Y-93438879D01*
X101097767Y-93475155D01*
X101139176Y-93517089D01*
X101185589Y-93563943D01*
X101236280Y-93614979D01*
X101290523Y-93669462D01*
X101347589Y-93726648D01*
X101354999Y-93734067D01*
X101430482Y-93809820D01*
X101496599Y-93876534D01*
X101553557Y-93934422D01*
X101601554Y-93983694D01*
X101640797Y-94024560D01*
X101671484Y-94057230D01*
X101693822Y-94081917D01*
X101708012Y-94098831D01*
X101714258Y-94108185D01*
X101721047Y-94128762D01*
X101725469Y-94171107D01*
X101718662Y-94213179D01*
X101701775Y-94252683D01*
X101675957Y-94287318D01*
X101642348Y-94314792D01*
X101602103Y-94332804D01*
X101597804Y-94333374D01*
X101580491Y-94334301D01*
X101551355Y-94335186D01*
X101511341Y-94336020D01*
X101461397Y-94336788D01*
X101402471Y-94337481D01*
X101335505Y-94338090D01*
X101261447Y-94338603D01*
X101181248Y-94339011D01*
X101095850Y-94339302D01*
X101006201Y-94339464D01*
X100431200Y-94340064D01*
X100431200Y-94006731D01*
X101161154Y-94006731D01*
X100803485Y-93648399D01*
X100799192Y-93644094D01*
X100741808Y-93586440D01*
X100687058Y-93531159D01*
X100635701Y-93479028D01*
X100588493Y-93430833D01*
X100546196Y-93387354D01*
X100509560Y-93349371D01*
X100479350Y-93317667D01*
X100456316Y-93293022D01*
X100441220Y-93276219D01*
X100434818Y-93268041D01*
X100434071Y-93266520D01*
X100421567Y-93226287D01*
X100420580Y-93184068D01*
X100430189Y-93142461D01*
X100449464Y-93104067D01*
X100477484Y-93071484D01*
X100513325Y-93047319D01*
X100513664Y-93047154D01*
X100518857Y-93044754D01*
X100524440Y-93042651D01*
X100531274Y-93040824D01*
X100540223Y-93039255D01*
X100552148Y-93037926D01*
X100567913Y-93036813D01*
X100588382Y-93035901D01*
X100614416Y-93035166D01*
X100646879Y-93034593D01*
X100686635Y-93034158D01*
X100734548Y-93033843D01*
X100791476Y-93033630D01*
X100858289Y-93033501D01*
X100935845Y-93033432D01*
X101025008Y-93033402D01*
X101126639Y-93033399D01*
X101711201Y-93033399D01*
X101711201Y-93360066D01*
G37*
G36*
X103132916Y-93033417D02*
G01*
X103204373Y-93033489D01*
X103264811Y-93033651D01*
X103315325Y-93033930D01*
X103357013Y-93034362D01*
X103390976Y-93034977D01*
X103418312Y-93035811D01*
X103440119Y-93036894D01*
X103457492Y-93038262D01*
X103471529Y-93039942D01*
X103483331Y-93041973D01*
X103493996Y-93044382D01*
X103504622Y-93047205D01*
X103561616Y-93067008D01*
X103622846Y-93099807D01*
X103674626Y-93142008D01*
X103716947Y-93193605D01*
X103717742Y-93194802D01*
X103750556Y-93255282D01*
X103771454Y-93318252D01*
X103780949Y-93382314D01*
X103779548Y-93446076D01*
X103767761Y-93508143D01*
X103746098Y-93567117D01*
X103715072Y-93621609D01*
X103675187Y-93670221D01*
X103626953Y-93711558D01*
X103570883Y-93744225D01*
X103507487Y-93766830D01*
X103504181Y-93767664D01*
X103490669Y-93770781D01*
X103476599Y-93773328D01*
X103460552Y-93775368D01*
X103441106Y-93776952D01*
X103416842Y-93778137D01*
X103386344Y-93778980D01*
X103348190Y-93779541D01*
X103300964Y-93779868D01*
X103243241Y-93780027D01*
X103173602Y-93780066D01*
X103137011Y-93780078D01*
X103072832Y-93780201D01*
X103020089Y-93780486D01*
X102977516Y-93780978D01*
X102943850Y-93781722D01*
X102917825Y-93782760D01*
X102898172Y-93784137D01*
X102883628Y-93785895D01*
X102872924Y-93788082D01*
X102864797Y-93790737D01*
X102846572Y-93800946D01*
X102825242Y-93823683D01*
X102811499Y-93852708D01*
X102805415Y-93885201D01*
X102807071Y-93918342D01*
X102816545Y-93949308D01*
X102833912Y-93975285D01*
X102859247Y-93993450D01*
X102861848Y-93994599D01*
X102868208Y-93997026D01*
X102875747Y-93999099D01*
X102885479Y-94000845D01*
X102898418Y-94002291D01*
X102915572Y-94003470D01*
X102937958Y-94004406D01*
X102966590Y-94005129D01*
X103002476Y-94005666D01*
X103046630Y-94006047D01*
X103100069Y-94006302D01*
X103163801Y-94006458D01*
X103238840Y-94006542D01*
X103326200Y-94006584D01*
X103764536Y-94006731D01*
X103764536Y-94340739D01*
X103302869Y-94338330D01*
X103239368Y-94338009D01*
X103155113Y-94337571D01*
X103082414Y-94337103D01*
X103020203Y-94336506D01*
X102967418Y-94335690D01*
X102922997Y-94334556D01*
X102885872Y-94333008D01*
X102854981Y-94330956D01*
X102829259Y-94328298D01*
X102807644Y-94324944D01*
X102789065Y-94320798D01*
X102772463Y-94315761D01*
X102756776Y-94309743D01*
X102740933Y-94302648D01*
X102723875Y-94294377D01*
X102704534Y-94284837D01*
X102701201Y-94283184D01*
X102646202Y-94249464D01*
X102596198Y-94207008D01*
X102553961Y-94158525D01*
X102522266Y-94106733D01*
X102503744Y-94064784D01*
X102487325Y-94013361D01*
X102478301Y-93960231D01*
X102475472Y-93900066D01*
X102477533Y-93846117D01*
X102485897Y-93790911D01*
X102501830Y-93737295D01*
X102526544Y-93680064D01*
X102560414Y-93623493D01*
X102606776Y-93569877D01*
X102662264Y-93524322D01*
X102725357Y-93488061D01*
X102794534Y-93462324D01*
X102800105Y-93460881D01*
X102812801Y-93458349D01*
X102828764Y-93456198D01*
X102849257Y-93454380D01*
X102875531Y-93452832D01*
X102908849Y-93451503D01*
X102950468Y-93450336D01*
X103001648Y-93449280D01*
X103063643Y-93448275D01*
X103137716Y-93447267D01*
X103440893Y-93443400D01*
X103447334Y-93425064D01*
X103449314Y-93417942D01*
X103449218Y-93395352D01*
X103440407Y-93376674D01*
X103424474Y-93366015D01*
X103416965Y-93365280D01*
X103396886Y-93364452D01*
X103365770Y-93363666D01*
X103324844Y-93362937D01*
X103275344Y-93362286D01*
X103218497Y-93361722D01*
X103155539Y-93361263D01*
X103087697Y-93360927D01*
X103016201Y-93360729D01*
X102624536Y-93360066D01*
X102624536Y-93033399D01*
X103049342Y-93033399D01*
X103132916Y-93033417D01*
G37*
G36*
X103743035Y-90318399D02*
G01*
X103741202Y-91070064D01*
X103722377Y-91123335D01*
X103712870Y-91148532D01*
X103686677Y-91202886D01*
X103654235Y-91250055D01*
X103612850Y-91294239D01*
X103581596Y-91321062D01*
X103517528Y-91362558D01*
X103445525Y-91393371D01*
X103365662Y-91413459D01*
X103364030Y-91413693D01*
X103348688Y-91414713D01*
X103321721Y-91415616D01*
X103284533Y-91416381D01*
X103238531Y-91416996D01*
X103185122Y-91417443D01*
X103125716Y-91417710D01*
X103061720Y-91417773D01*
X102994535Y-91417623D01*
X102654536Y-91416321D01*
X102601202Y-91398363D01*
X102561503Y-91383090D01*
X102494987Y-91347294D01*
X102437417Y-91301913D01*
X102389279Y-91247367D01*
X102351065Y-91184070D01*
X102340082Y-91161426D01*
X102330509Y-91140459D01*
X102322652Y-91120686D01*
X102316343Y-91100652D01*
X102311408Y-91078908D01*
X102307685Y-91053999D01*
X102304997Y-91024470D01*
X102303179Y-90988875D01*
X102302060Y-90945753D01*
X102301469Y-90893658D01*
X102301241Y-90831135D01*
X102301202Y-90756732D01*
X102301202Y-90745470D01*
X102301226Y-90677949D01*
X102301337Y-90622167D01*
X102301598Y-90576744D01*
X102302075Y-90540291D01*
X102302828Y-90511428D01*
X102303926Y-90488766D01*
X102305432Y-90470925D01*
X102307409Y-90456519D01*
X102309920Y-90444162D01*
X102313031Y-90432474D01*
X102316808Y-90420066D01*
X102327128Y-90389658D01*
X102351395Y-90335250D01*
X102381938Y-90287808D01*
X102421166Y-90243240D01*
X102433784Y-90231132D01*
X102491822Y-90186387D01*
X102557639Y-90151038D01*
X102628691Y-90126522D01*
X102640379Y-90123696D01*
X102653366Y-90121104D01*
X102667856Y-90118986D01*
X102685163Y-90117291D01*
X102706598Y-90115977D01*
X102733484Y-90114993D01*
X102767126Y-90114294D01*
X102808847Y-90113832D01*
X102859955Y-90113559D01*
X102921770Y-90113430D01*
X102995600Y-90113400D01*
X103311200Y-90113400D01*
X103311200Y-90439434D01*
X103009535Y-90441417D01*
X103003418Y-90441456D01*
X102932966Y-90441948D01*
X102874517Y-90442443D01*
X102826838Y-90443001D01*
X102788699Y-90443682D01*
X102758864Y-90444543D01*
X102736100Y-90445638D01*
X102719177Y-90447033D01*
X102706862Y-90448782D01*
X102697922Y-90450942D01*
X102691121Y-90453573D01*
X102685232Y-90456732D01*
X102683612Y-90457710D01*
X102664274Y-90472425D01*
X102648566Y-90488877D01*
X102647828Y-90489876D01*
X102644324Y-90495231D01*
X102641480Y-90501639D01*
X102639215Y-90510471D01*
X102637442Y-90523083D01*
X102636083Y-90540843D01*
X102635057Y-90565119D01*
X102634280Y-90597267D01*
X102633671Y-90638658D01*
X102633149Y-90690654D01*
X102632630Y-90754617D01*
X102632462Y-90776775D01*
X102632042Y-90836694D01*
X102631826Y-90885165D01*
X102631883Y-90923613D01*
X102632273Y-90953460D01*
X102633062Y-90976128D01*
X102634316Y-90993045D01*
X102636101Y-91005627D01*
X102638480Y-91015299D01*
X102641522Y-91023489D01*
X102645287Y-91031616D01*
X102651458Y-91043172D01*
X102666680Y-91061508D01*
X102688583Y-91074402D01*
X102689768Y-91074921D01*
X102697121Y-91077795D01*
X102705509Y-91080162D01*
X102716162Y-91082067D01*
X102730307Y-91083546D01*
X102749174Y-91084638D01*
X102773993Y-91085382D01*
X102805997Y-91085817D01*
X102846416Y-91085985D01*
X102896477Y-91085919D01*
X102957410Y-91085664D01*
X103030445Y-91085256D01*
X103074212Y-91084992D01*
X103139771Y-91084557D01*
X103193879Y-91084095D01*
X103237730Y-91083552D01*
X103272518Y-91082871D01*
X103299434Y-91081995D01*
X103319672Y-91080867D01*
X103334420Y-91079427D01*
X103344872Y-91077624D01*
X103352225Y-91075398D01*
X103357664Y-91072695D01*
X103362386Y-91069452D01*
X103363922Y-91068282D01*
X103380968Y-91052178D01*
X103396202Y-91033467D01*
X103411202Y-91011426D01*
X103411202Y-89566731D01*
X103744865Y-89566731D01*
X103743035Y-90318399D01*
G37*
G36*
X98387927Y-90113643D02*
G01*
X98457554Y-90113826D01*
X98516378Y-90114267D01*
X98565623Y-90115086D01*
X98606519Y-90116394D01*
X98640293Y-90118305D01*
X98668175Y-90120939D01*
X98691392Y-90124404D01*
X98711174Y-90128817D01*
X98728748Y-90134292D01*
X98745344Y-90140946D01*
X98762192Y-90148890D01*
X98780513Y-90158238D01*
X98813537Y-90178167D01*
X98857730Y-90212802D01*
X98899016Y-90253551D01*
X98934116Y-90297081D01*
X98959742Y-90340065D01*
X98967341Y-90356106D01*
X98977064Y-90377439D01*
X98985056Y-90397071D01*
X98991500Y-90416499D01*
X98996579Y-90437235D01*
X99000479Y-90460776D01*
X99003386Y-90488628D01*
X99005483Y-90522294D01*
X99006953Y-90563280D01*
X99007982Y-90613089D01*
X99008756Y-90673221D01*
X99009458Y-90745185D01*
X99009914Y-90799086D01*
X99010277Y-90861717D01*
X99010310Y-90913467D01*
X99009983Y-90955746D01*
X99009263Y-90989964D01*
X99008117Y-91017534D01*
X99006512Y-91039866D01*
X99004415Y-91058370D01*
X99001796Y-91074456D01*
X98996900Y-91097040D01*
X98973467Y-91165956D01*
X98939039Y-91228407D01*
X98894552Y-91283532D01*
X98840936Y-91330464D01*
X98779133Y-91368342D01*
X98710073Y-91396302D01*
X98634692Y-91413480D01*
X98626874Y-91414188D01*
X98605136Y-91415214D01*
X98572646Y-91416183D01*
X98530946Y-91417065D01*
X98481575Y-91417839D01*
X98426078Y-91418478D01*
X98365997Y-91418952D01*
X98302868Y-91419234D01*
X98004536Y-91420065D01*
X98004536Y-91100064D01*
X98340296Y-91100064D01*
X98404928Y-91100028D01*
X98458130Y-91099899D01*
X98501165Y-91099620D01*
X98535302Y-91099134D01*
X98561804Y-91098384D01*
X98581937Y-91097310D01*
X98596970Y-91095855D01*
X98608166Y-91093959D01*
X98616794Y-91091568D01*
X98624117Y-91088622D01*
X98631401Y-91085064D01*
X98639555Y-91080432D01*
X98660720Y-91064352D01*
X98676365Y-91047093D01*
X98691632Y-91024119D01*
X98689751Y-90760425D01*
X98687867Y-90496731D01*
X98671862Y-90474288D01*
X98668610Y-90470136D01*
X98649926Y-90452748D01*
X98628527Y-90439434D01*
X98622563Y-90436956D01*
X98614481Y-90434448D01*
X98604197Y-90432396D01*
X98590475Y-90430755D01*
X98572082Y-90429480D01*
X98547776Y-90428523D01*
X98516321Y-90427836D01*
X98476481Y-90427377D01*
X98427020Y-90427095D01*
X98366699Y-90426942D01*
X98294282Y-90426879D01*
X98243558Y-90426858D01*
X98180081Y-90426873D01*
X98127839Y-90426990D01*
X98085590Y-90427266D01*
X98052086Y-90427755D01*
X98026088Y-90428508D01*
X98006348Y-90429588D01*
X97991624Y-90431040D01*
X97980671Y-90432927D01*
X97972247Y-90435303D01*
X97965104Y-90438219D01*
X97958003Y-90441732D01*
X97946708Y-90447852D01*
X97924175Y-90464301D01*
X97910246Y-90484011D01*
X97903172Y-90510198D01*
X97901201Y-90546072D01*
X97901216Y-90552654D01*
X97901981Y-90577842D01*
X97904702Y-90595023D01*
X97910480Y-90608592D01*
X97920413Y-90622959D01*
X97922942Y-90626274D01*
X97930403Y-90635649D01*
X97937975Y-90643455D01*
X97946864Y-90649830D01*
X97958270Y-90654918D01*
X97973390Y-90658869D01*
X97993433Y-90661821D01*
X98019599Y-90663924D01*
X98053088Y-90665322D01*
X98095103Y-90666156D01*
X98146844Y-90666573D01*
X98209517Y-90666717D01*
X98284322Y-90666732D01*
X98584535Y-90666732D01*
X98584535Y-90986733D01*
X98291684Y-90986733D01*
X98263727Y-90986718D01*
X98186903Y-90986502D01*
X98121680Y-90985956D01*
X98066747Y-90984996D01*
X98020802Y-90983544D01*
X97982537Y-90981516D01*
X97950650Y-90978831D01*
X97923833Y-90975411D01*
X97900781Y-90971172D01*
X97880189Y-90966030D01*
X97860752Y-90959910D01*
X97841789Y-90952776D01*
X97780490Y-90920865D01*
X97724846Y-90878196D01*
X97676423Y-90826362D01*
X97636787Y-90766962D01*
X97607501Y-90701595D01*
X97592447Y-90649830D01*
X97580828Y-90573888D01*
X97581608Y-90499428D01*
X97594547Y-90427605D01*
X97619402Y-90359571D01*
X97655936Y-90296472D01*
X97703906Y-90239460D01*
X97723916Y-90220530D01*
X97777439Y-90179922D01*
X97836737Y-90149145D01*
X97904729Y-90126561D01*
X97910420Y-90125121D01*
X97922360Y-90122457D01*
X97935323Y-90120237D01*
X97950542Y-90118422D01*
X97969247Y-90116970D01*
X97992668Y-90115839D01*
X98022041Y-90114996D01*
X98058590Y-90114393D01*
X98103551Y-90113994D01*
X98158154Y-90113757D01*
X98223626Y-90113643D01*
X98301200Y-90113610D01*
X98306261Y-90113610D01*
X98387927Y-90113643D01*
G37*
G36*
X99621260Y-93033645D02*
G01*
X99690887Y-93033825D01*
X99749711Y-93034266D01*
X99798956Y-93035085D01*
X99839852Y-93036393D01*
X99873626Y-93038307D01*
X99901508Y-93040938D01*
X99924725Y-93044403D01*
X99944507Y-93048816D01*
X99962084Y-93054294D01*
X99978680Y-93060945D01*
X99995525Y-93068889D01*
X100013846Y-93078237D01*
X100046870Y-93098169D01*
X100091063Y-93132804D01*
X100132352Y-93173550D01*
X100167449Y-93217083D01*
X100193075Y-93260064D01*
X100200674Y-93276108D01*
X100210397Y-93297441D01*
X100218389Y-93317070D01*
X100224833Y-93336501D01*
X100229912Y-93357234D01*
X100233812Y-93380775D01*
X100236719Y-93408627D01*
X100238816Y-93442296D01*
X100240286Y-93483282D01*
X100241315Y-93533088D01*
X100242089Y-93593223D01*
X100242791Y-93665184D01*
X100243331Y-93733764D01*
X100243538Y-93800991D01*
X100243184Y-93857487D01*
X100242149Y-93904632D01*
X100240310Y-93943818D01*
X100237553Y-93976428D01*
X100233746Y-94003848D01*
X100228778Y-94027461D01*
X100222520Y-94048656D01*
X100214855Y-94068819D01*
X100205660Y-94089336D01*
X100180862Y-94134930D01*
X100136348Y-94194354D01*
X100082744Y-94244256D01*
X100020545Y-94284279D01*
X99950243Y-94314060D01*
X99872330Y-94333245D01*
X99864089Y-94334052D01*
X99842300Y-94335132D01*
X99809792Y-94336146D01*
X99768083Y-94337067D01*
X99718688Y-94337868D01*
X99663122Y-94338522D01*
X99602897Y-94339002D01*
X99539534Y-94339281D01*
X99237869Y-94340064D01*
X99237869Y-94020066D01*
X99536456Y-94020066D01*
X99573629Y-94020063D01*
X99638261Y-94020027D01*
X99691463Y-94019898D01*
X99734498Y-94019622D01*
X99768635Y-94019136D01*
X99795137Y-94018383D01*
X99815270Y-94017309D01*
X99830303Y-94015854D01*
X99841502Y-94013961D01*
X99850127Y-94011570D01*
X99857450Y-94008624D01*
X99864734Y-94005066D01*
X99872888Y-94000431D01*
X99894053Y-93984351D01*
X99909698Y-93967092D01*
X99924968Y-93944118D01*
X99923084Y-93680427D01*
X99921200Y-93416733D01*
X99905195Y-93394287D01*
X99901943Y-93390135D01*
X99883259Y-93372747D01*
X99861860Y-93359436D01*
X99855896Y-93356955D01*
X99847814Y-93354447D01*
X99837530Y-93352395D01*
X99823808Y-93350757D01*
X99805415Y-93349482D01*
X99781109Y-93348522D01*
X99749654Y-93347838D01*
X99709814Y-93347376D01*
X99660353Y-93347094D01*
X99600032Y-93346944D01*
X99527615Y-93346878D01*
X99476891Y-93346857D01*
X99413414Y-93346872D01*
X99361172Y-93346992D01*
X99318923Y-93347265D01*
X99285419Y-93347754D01*
X99259421Y-93348510D01*
X99239681Y-93349587D01*
X99224957Y-93351042D01*
X99214004Y-93352929D01*
X99205580Y-93355302D01*
X99198440Y-93358218D01*
X99191339Y-93361731D01*
X99180041Y-93367854D01*
X99157508Y-93384300D01*
X99143579Y-93404010D01*
X99136505Y-93430197D01*
X99134534Y-93466074D01*
X99134549Y-93472653D01*
X99135314Y-93497841D01*
X99138035Y-93515022D01*
X99143813Y-93528594D01*
X99153746Y-93542958D01*
X99156275Y-93546273D01*
X99163736Y-93555651D01*
X99171308Y-93563454D01*
X99180197Y-93569829D01*
X99191603Y-93574917D01*
X99206726Y-93578868D01*
X99226769Y-93581823D01*
X99252932Y-93583923D01*
X99286421Y-93585321D01*
X99328436Y-93586155D01*
X99380180Y-93586572D01*
X99442850Y-93586716D01*
X99517655Y-93586731D01*
X99817868Y-93586731D01*
X99817868Y-93906732D01*
X99525017Y-93906732D01*
X99497060Y-93906720D01*
X99420236Y-93906504D01*
X99355013Y-93905955D01*
X99300080Y-93904998D01*
X99254135Y-93903543D01*
X99215870Y-93901515D01*
X99183983Y-93898833D01*
X99157166Y-93895410D01*
X99134114Y-93891171D01*
X99113522Y-93886032D01*
X99094085Y-93879912D01*
X99075122Y-93872775D01*
X99013823Y-93840867D01*
X98958179Y-93798195D01*
X98909756Y-93746361D01*
X98870120Y-93686964D01*
X98840834Y-93621597D01*
X98825780Y-93569832D01*
X98814161Y-93493887D01*
X98814941Y-93419430D01*
X98827880Y-93347607D01*
X98852735Y-93279570D01*
X98889269Y-93216471D01*
X98937239Y-93159459D01*
X98957249Y-93140532D01*
X99010772Y-93099921D01*
X99070070Y-93069147D01*
X99138062Y-93046560D01*
X99143756Y-93045120D01*
X99155693Y-93042456D01*
X99168656Y-93040236D01*
X99183875Y-93038421D01*
X99202580Y-93036969D01*
X99226004Y-93035841D01*
X99255374Y-93034995D01*
X99291923Y-93034392D01*
X99336884Y-93033993D01*
X99391487Y-93033756D01*
X99456959Y-93033642D01*
X99534536Y-93033612D01*
X99539597Y-93033612D01*
X99621260Y-93033645D01*
G37*
G36*
X97531211Y-93208398D02*
G01*
X97531220Y-93296805D01*
X97531250Y-93401163D01*
X97531322Y-93493533D01*
X97531439Y-93574668D01*
X97531619Y-93645330D01*
X97531874Y-93706278D01*
X97532210Y-93758274D01*
X97532645Y-93802077D01*
X97533188Y-93838446D01*
X97533854Y-93868137D01*
X97534649Y-93891918D01*
X97535591Y-93910539D01*
X97536689Y-93924768D01*
X97537952Y-93935361D01*
X97539398Y-93943080D01*
X97541036Y-93948681D01*
X97542878Y-93952926D01*
X97543550Y-93954210D01*
X97557200Y-93973794D01*
X97573358Y-93989592D01*
X97577450Y-93992415D01*
X97582607Y-93995091D01*
X97589483Y-93997293D01*
X97599236Y-93999069D01*
X97613033Y-94000461D01*
X97632029Y-94001517D01*
X97657391Y-94002285D01*
X97690280Y-94002810D01*
X97731854Y-94003137D01*
X97783277Y-94003314D01*
X97845710Y-94003386D01*
X97920317Y-94003398D01*
X97927535Y-94003398D01*
X98003579Y-94003407D01*
X98067530Y-94003335D01*
X98120522Y-94003044D01*
X98163695Y-94002399D01*
X98198186Y-94001259D01*
X98225132Y-93999492D01*
X98245676Y-93996960D01*
X98260952Y-93993525D01*
X98272097Y-93989049D01*
X98280254Y-93983400D01*
X98286557Y-93976440D01*
X98292149Y-93968031D01*
X98298161Y-93958035D01*
X98298326Y-93957765D01*
X98301629Y-93951657D01*
X98304311Y-93944427D01*
X98306441Y-93934719D01*
X98308076Y-93921177D01*
X98309282Y-93902442D01*
X98310125Y-93877158D01*
X98310671Y-93843969D01*
X98310980Y-93801519D01*
X98311121Y-93748446D01*
X98311151Y-93683400D01*
X98311151Y-93679674D01*
X98311115Y-93615294D01*
X98310971Y-93562815D01*
X98310650Y-93520887D01*
X98310092Y-93488148D01*
X98309231Y-93463242D01*
X98308004Y-93444813D01*
X98306345Y-93431505D01*
X98304191Y-93421959D01*
X98301476Y-93414816D01*
X98298137Y-93408723D01*
X98295338Y-93404127D01*
X98289230Y-93394698D01*
X98282705Y-93386847D01*
X98274590Y-93380421D01*
X98263706Y-93375267D01*
X98248886Y-93371232D01*
X98228951Y-93368163D01*
X98202728Y-93365904D01*
X98169044Y-93364305D01*
X98126723Y-93363210D01*
X98074592Y-93362466D01*
X98011475Y-93361920D01*
X97936202Y-93361419D01*
X97631201Y-93359439D01*
X97631201Y-93033399D01*
X97946801Y-93033399D01*
X98017853Y-93033426D01*
X98080094Y-93033549D01*
X98131589Y-93033810D01*
X98173661Y-93034263D01*
X98207624Y-93034947D01*
X98234804Y-93035916D01*
X98256518Y-93037218D01*
X98274089Y-93038898D01*
X98288834Y-93041004D01*
X98302076Y-93043584D01*
X98315135Y-93046683D01*
X98356253Y-93059019D01*
X98424656Y-93089382D01*
X98485505Y-93129516D01*
X98537828Y-93178446D01*
X98580656Y-93235194D01*
X98613017Y-93298773D01*
X98633939Y-93368211D01*
X98635046Y-93373866D01*
X98637665Y-93390651D01*
X98639774Y-93410766D01*
X98641427Y-93435645D01*
X98642669Y-93466713D01*
X98643548Y-93505398D01*
X98644112Y-93553131D01*
X98644409Y-93611340D01*
X98644487Y-93681450D01*
X98644454Y-93732585D01*
X98644301Y-93790794D01*
X98643962Y-93838314D01*
X98643377Y-93876660D01*
X98642483Y-93907353D01*
X98641211Y-93931905D01*
X98639501Y-93951834D01*
X98637290Y-93968655D01*
X98634512Y-93983889D01*
X98631101Y-93999045D01*
X98630552Y-94001307D01*
X98606531Y-94074717D01*
X98572460Y-94140963D01*
X98529134Y-94198986D01*
X98477339Y-94247718D01*
X98417867Y-94286097D01*
X98407082Y-94291614D01*
X98363825Y-94310982D01*
X98321951Y-94324212D01*
X98274536Y-94333605D01*
X98273237Y-94333779D01*
X98258003Y-94334760D01*
X98231099Y-94335612D01*
X98193953Y-94336323D01*
X98147990Y-94336878D01*
X98094641Y-94337262D01*
X98035331Y-94337466D01*
X97971485Y-94337469D01*
X97904534Y-94337262D01*
X97886837Y-94337181D01*
X97810307Y-94336809D01*
X97745516Y-94336365D01*
X97691147Y-94335702D01*
X97645889Y-94334679D01*
X97608419Y-94333146D01*
X97577426Y-94330965D01*
X97551590Y-94327989D01*
X97529600Y-94324071D01*
X97510133Y-94319070D01*
X97491875Y-94312839D01*
X97473512Y-94305237D01*
X97453727Y-94296117D01*
X97431200Y-94285332D01*
X97423814Y-94281681D01*
X97369688Y-94248003D01*
X97320374Y-94205463D01*
X97278713Y-94156854D01*
X97247540Y-94104960D01*
X97246988Y-94103796D01*
X97240076Y-94089585D01*
X97233902Y-94077033D01*
X97228424Y-94065348D01*
X97223600Y-94053744D01*
X97219382Y-94041429D01*
X97215731Y-94027617D01*
X97212599Y-94011516D01*
X97209947Y-93992340D01*
X97207730Y-93969297D01*
X97205903Y-93941601D01*
X97204424Y-93908460D01*
X97203248Y-93869088D01*
X97202333Y-93822693D01*
X97201637Y-93768489D01*
X97201112Y-93705687D01*
X97200716Y-93633495D01*
X97200410Y-93551124D01*
X97200143Y-93457791D01*
X97199879Y-93352698D01*
X97199570Y-93235065D01*
X97197482Y-92486733D01*
X97531202Y-92486733D01*
X97531211Y-93208398D01*
G37*
G36*
X98119166Y-97551624D02*
G01*
X98101613Y-97653843D01*
X98072033Y-97754307D01*
X98030399Y-97852083D01*
X97976681Y-97946229D01*
X97910846Y-98035812D01*
X97881782Y-98069190D01*
X97805174Y-98143041D01*
X97720100Y-98207037D01*
X97627361Y-98260752D01*
X97527761Y-98303751D01*
X97422107Y-98335605D01*
X97311200Y-98355891D01*
X97304294Y-98356599D01*
X97275704Y-98357814D01*
X97238516Y-98357733D01*
X97196222Y-98356518D01*
X97152326Y-98354331D01*
X97110323Y-98351337D01*
X97073714Y-98347698D01*
X97045997Y-98343573D01*
X97009256Y-98335611D01*
X96907325Y-98304795D01*
X96811292Y-98262894D01*
X96721769Y-98210778D01*
X96639380Y-98149326D01*
X96564740Y-98079405D01*
X96498470Y-98001891D01*
X96441188Y-97917657D01*
X96393512Y-97827579D01*
X96356063Y-97732527D01*
X96329459Y-97633377D01*
X96314318Y-97531002D01*
X96312873Y-97481556D01*
X96585701Y-97481556D01*
X96590399Y-97540926D01*
X96601760Y-97599093D01*
X96620591Y-97661814D01*
X96635069Y-97700448D01*
X96669341Y-97770351D01*
X96712946Y-97834779D01*
X96767867Y-97896903D01*
X96791351Y-97919649D01*
X96862241Y-97976811D01*
X96938468Y-98021850D01*
X97020608Y-98055075D01*
X97109231Y-98076783D01*
X97178903Y-98085120D01*
X97269221Y-98084562D01*
X97357349Y-98071248D01*
X97442285Y-98045502D01*
X97523018Y-98007645D01*
X97598549Y-97958004D01*
X97667867Y-97896903D01*
X97697315Y-97865424D01*
X97746239Y-97802526D01*
X97784852Y-97735713D01*
X97815143Y-97661814D01*
X97832945Y-97603140D01*
X97844786Y-97544844D01*
X97849910Y-97485738D01*
X97849124Y-97420065D01*
X97845779Y-97377519D01*
X97829816Y-97288635D01*
X97801841Y-97205259D01*
X97761680Y-97127019D01*
X97709156Y-97053537D01*
X97644092Y-96984441D01*
X97635602Y-96976608D01*
X97621184Y-96963747D01*
X97608740Y-96952563D01*
X97598129Y-96942054D01*
X97589198Y-96931221D01*
X97581803Y-96919065D01*
X97575794Y-96904581D01*
X97571021Y-96886770D01*
X97567340Y-96864636D01*
X97564601Y-96837174D01*
X97562654Y-96803382D01*
X97561355Y-96762264D01*
X97560551Y-96712815D01*
X97560101Y-96654039D01*
X97559849Y-96584934D01*
X97559654Y-96504498D01*
X97559363Y-96411732D01*
X97557524Y-95940066D01*
X96878213Y-95940066D01*
X96876374Y-96411732D01*
X96876200Y-96462462D01*
X96875978Y-96548571D01*
X96875771Y-96622884D01*
X96875432Y-96686394D01*
X96874814Y-96740103D01*
X96873764Y-96785016D01*
X96872141Y-96822129D01*
X96869795Y-96852441D01*
X96866573Y-96876960D01*
X96862334Y-96896679D01*
X96856925Y-96912603D01*
X96850199Y-96925728D01*
X96842009Y-96937062D01*
X96832205Y-96947598D01*
X96820643Y-96958338D01*
X96807173Y-96970287D01*
X96791645Y-96984441D01*
X96760349Y-97015491D01*
X96701039Y-97086543D01*
X96654185Y-97162155D01*
X96619613Y-97242693D01*
X96597149Y-97328538D01*
X96586613Y-97420065D01*
X96585701Y-97481556D01*
X96312873Y-97481556D01*
X96311258Y-97426272D01*
X96320900Y-97320066D01*
X96322472Y-97310094D01*
X96346502Y-97203948D01*
X96383096Y-97101462D01*
X96431780Y-97003587D01*
X96492080Y-96911292D01*
X96563528Y-96825534D01*
X96604535Y-96781698D01*
X96604535Y-96277284D01*
X96604538Y-96221217D01*
X96604565Y-96134451D01*
X96604640Y-96059547D01*
X96604784Y-95995575D01*
X96605024Y-95941605D01*
X96605381Y-95896704D01*
X96605879Y-95859942D01*
X96606539Y-95830386D01*
X96607388Y-95807109D01*
X96608444Y-95789178D01*
X96609731Y-95775660D01*
X96611276Y-95765625D01*
X96613100Y-95758143D01*
X96615224Y-95752281D01*
X96617675Y-95747112D01*
X96619370Y-95743917D01*
X96642680Y-95713278D01*
X96673799Y-95688774D01*
X96708293Y-95673987D01*
X96709061Y-95673816D01*
X96722915Y-95672403D01*
X96748628Y-95671143D01*
X96784868Y-95670030D01*
X96830315Y-95669064D01*
X96883637Y-95668251D01*
X96943514Y-95667588D01*
X97008617Y-95667072D01*
X97077623Y-95666706D01*
X97149203Y-95666490D01*
X97222034Y-95666424D01*
X97294790Y-95666508D01*
X97366145Y-95666739D01*
X97434770Y-95667123D01*
X97499345Y-95667654D01*
X97558541Y-95668335D01*
X97611032Y-95669166D01*
X97655495Y-95670147D01*
X97690601Y-95671278D01*
X97715027Y-95672559D01*
X97727444Y-95673987D01*
X97730846Y-95674905D01*
X97765205Y-95690802D01*
X97795757Y-95716065D01*
X97818062Y-95747112D01*
X97819523Y-95750076D01*
X97821782Y-95755533D01*
X97823729Y-95762220D01*
X97825388Y-95771067D01*
X97826780Y-95783007D01*
X97827932Y-95798970D01*
X97828865Y-95819886D01*
X97829600Y-95846688D01*
X97830164Y-95880303D01*
X97830578Y-95921670D01*
X97830863Y-95971710D01*
X97831046Y-96031362D01*
X97831148Y-96101556D01*
X97831193Y-96183219D01*
X97831202Y-96277284D01*
X97831202Y-96781698D01*
X97872206Y-96825534D01*
X97907870Y-96865794D01*
X97973651Y-96954024D01*
X98027618Y-97047066D01*
X98069738Y-97143981D01*
X98099981Y-97243833D01*
X98118323Y-97345680D01*
X98124728Y-97448592D01*
X98122724Y-97485738D01*
X98119166Y-97551624D01*
G37*
G36*
X98124422Y-86520414D02*
G01*
X98114837Y-86626731D01*
X98113265Y-86636703D01*
X98089235Y-86742849D01*
X98052641Y-86845335D01*
X98003957Y-86943210D01*
X97943657Y-87035505D01*
X97872206Y-87121263D01*
X97831202Y-87165099D01*
X97831202Y-87669513D01*
X97831199Y-87732195D01*
X97831172Y-87818055D01*
X97831094Y-87892119D01*
X97830947Y-87955320D01*
X97830704Y-88008588D01*
X97830341Y-88052859D01*
X97829837Y-88089060D01*
X97829168Y-88118127D01*
X97828310Y-88140987D01*
X97827239Y-88158576D01*
X97825931Y-88171821D01*
X97824368Y-88181658D01*
X97822520Y-88189020D01*
X97820366Y-88194834D01*
X97817885Y-88200033D01*
X97798043Y-88228269D01*
X97767683Y-88254342D01*
X97733012Y-88271220D01*
X97731041Y-88271661D01*
X97715978Y-88273134D01*
X97689263Y-88274469D01*
X97652204Y-88275666D01*
X97606112Y-88276722D01*
X97552295Y-88277634D01*
X97492061Y-88278402D01*
X97426721Y-88279023D01*
X97357586Y-88279497D01*
X97285961Y-88279818D01*
X97213157Y-88279986D01*
X97140482Y-88279998D01*
X97069250Y-88279857D01*
X97000763Y-88279554D01*
X96936335Y-88279089D01*
X96877274Y-88278462D01*
X96824888Y-88277670D01*
X96780488Y-88276710D01*
X96745382Y-88275582D01*
X96720881Y-88274283D01*
X96708293Y-88272810D01*
X96704888Y-88271892D01*
X96670529Y-88255995D01*
X96639980Y-88230732D01*
X96617675Y-88199685D01*
X96616214Y-88196721D01*
X96613955Y-88191264D01*
X96612008Y-88184577D01*
X96610349Y-88175730D01*
X96608954Y-88163790D01*
X96607805Y-88147827D01*
X96606872Y-88126911D01*
X96606137Y-88100109D01*
X96605573Y-88066494D01*
X96605159Y-88025127D01*
X96604874Y-87975087D01*
X96604691Y-87915435D01*
X96604589Y-87845241D01*
X96604544Y-87763578D01*
X96604535Y-87669513D01*
X96604535Y-87165099D01*
X96563528Y-87121263D01*
X96498692Y-87044301D01*
X96438215Y-86954064D01*
X96389246Y-86858922D01*
X96351968Y-86759874D01*
X96326567Y-86657922D01*
X96313220Y-86554059D01*
X96312237Y-86461059D01*
X96585827Y-86461059D01*
X96586613Y-86526732D01*
X96589958Y-86569278D01*
X96605921Y-86658162D01*
X96633896Y-86741538D01*
X96674057Y-86819778D01*
X96726581Y-86893260D01*
X96791645Y-86962356D01*
X96800132Y-86970189D01*
X96814553Y-86983050D01*
X96826997Y-86994234D01*
X96837608Y-87004743D01*
X96846539Y-87015576D01*
X96853934Y-87027732D01*
X96859943Y-87042216D01*
X96864716Y-87060027D01*
X96868397Y-87082161D01*
X96871136Y-87109623D01*
X96873083Y-87143415D01*
X96874382Y-87184533D01*
X96875183Y-87233982D01*
X96875636Y-87292758D01*
X96875888Y-87361863D01*
X96876083Y-87442299D01*
X96876374Y-87535065D01*
X96878213Y-88006731D01*
X97557524Y-88006731D01*
X97559363Y-87535065D01*
X97559537Y-87484335D01*
X97559759Y-87398226D01*
X97559966Y-87323913D01*
X97560305Y-87260403D01*
X97560923Y-87206694D01*
X97561970Y-87161781D01*
X97563596Y-87124668D01*
X97565942Y-87094356D01*
X97569164Y-87069837D01*
X97573403Y-87050118D01*
X97578812Y-87034194D01*
X97585538Y-87021069D01*
X97593728Y-87009735D01*
X97603529Y-86999199D01*
X97615094Y-86988459D01*
X97628564Y-86976510D01*
X97644092Y-86962356D01*
X97675385Y-86931306D01*
X97734698Y-86860254D01*
X97781552Y-86784642D01*
X97816124Y-86704104D01*
X97838588Y-86618259D01*
X97849124Y-86526732D01*
X97850033Y-86465241D01*
X97845338Y-86405871D01*
X97833977Y-86347704D01*
X97815143Y-86284983D01*
X97800668Y-86246349D01*
X97766396Y-86176446D01*
X97722791Y-86112018D01*
X97667867Y-86049894D01*
X97662284Y-86044305D01*
X97592525Y-85984266D01*
X97516808Y-85935777D01*
X97436183Y-85899066D01*
X97351691Y-85874367D01*
X97264373Y-85861911D01*
X97175276Y-85861929D01*
X97085438Y-85874658D01*
X96995909Y-85900326D01*
X96983633Y-85904922D01*
X96907148Y-85941294D01*
X96835544Y-85989408D01*
X96767867Y-86049894D01*
X96738422Y-86081373D01*
X96689498Y-86144271D01*
X96650882Y-86211084D01*
X96620591Y-86284983D01*
X96602792Y-86343657D01*
X96590948Y-86401953D01*
X96585827Y-86461059D01*
X96312237Y-86461059D01*
X96312113Y-86449290D01*
X96323429Y-86344611D01*
X96347351Y-86241024D01*
X96384059Y-86139528D01*
X96393068Y-86119293D01*
X96444695Y-86022480D01*
X96506636Y-85933557D01*
X96578078Y-85853175D01*
X96658220Y-85781985D01*
X96746249Y-85720638D01*
X96841361Y-85669791D01*
X96942746Y-85630092D01*
X97049594Y-85602198D01*
X97073864Y-85598211D01*
X97122275Y-85593369D01*
X97177451Y-85590732D01*
X97235408Y-85590294D01*
X97292165Y-85592061D01*
X97343738Y-85596027D01*
X97386143Y-85602198D01*
X97425218Y-85611300D01*
X97476857Y-85626141D01*
X97529903Y-85643874D01*
X97579490Y-85662855D01*
X97620761Y-85681440D01*
X97697072Y-85724520D01*
X97783931Y-85786629D01*
X97862165Y-85857654D01*
X97931255Y-85936596D01*
X97990676Y-86022453D01*
X98039903Y-86114223D01*
X98078417Y-86210907D01*
X98105690Y-86311500D01*
X98121200Y-86415003D01*
X98122736Y-86465241D01*
X98124422Y-86520414D01*
G37*
G36*
X100672499Y-97551624D02*
G01*
X100654946Y-97653843D01*
X100625366Y-97754307D01*
X100583732Y-97852083D01*
X100530014Y-97946229D01*
X100464179Y-98035812D01*
X100435115Y-98069190D01*
X100358507Y-98143041D01*
X100273433Y-98207037D01*
X100180694Y-98260752D01*
X100081094Y-98303751D01*
X99975440Y-98335605D01*
X99864536Y-98355891D01*
X99857627Y-98356599D01*
X99829037Y-98357814D01*
X99791849Y-98357733D01*
X99749555Y-98356518D01*
X99705659Y-98354331D01*
X99663656Y-98351337D01*
X99627047Y-98347698D01*
X99599330Y-98343573D01*
X99562589Y-98335611D01*
X99460661Y-98304795D01*
X99364625Y-98262894D01*
X99275102Y-98210778D01*
X99192713Y-98149326D01*
X99118073Y-98079405D01*
X99051803Y-98001891D01*
X98994521Y-97917657D01*
X98946845Y-97827579D01*
X98909396Y-97732527D01*
X98882792Y-97633377D01*
X98867651Y-97531002D01*
X98866206Y-97481556D01*
X99139034Y-97481556D01*
X99143732Y-97540926D01*
X99155093Y-97599093D01*
X99173924Y-97661814D01*
X99188402Y-97700448D01*
X99222674Y-97770351D01*
X99266279Y-97834779D01*
X99321200Y-97896903D01*
X99344684Y-97919649D01*
X99415574Y-97976811D01*
X99491801Y-98021850D01*
X99573941Y-98055075D01*
X99662564Y-98076783D01*
X99732236Y-98085120D01*
X99822554Y-98084562D01*
X99910682Y-98071248D01*
X99995618Y-98045502D01*
X100076354Y-98007645D01*
X100151882Y-97958004D01*
X100221200Y-97896903D01*
X100250648Y-97865424D01*
X100299572Y-97802526D01*
X100338188Y-97735713D01*
X100368479Y-97661814D01*
X100386278Y-97603140D01*
X100398119Y-97544844D01*
X100403243Y-97485738D01*
X100402457Y-97420065D01*
X100399112Y-97377519D01*
X100383149Y-97288635D01*
X100355174Y-97205259D01*
X100315013Y-97127019D01*
X100262489Y-97053537D01*
X100197425Y-96984441D01*
X100188935Y-96976608D01*
X100174517Y-96963747D01*
X100162073Y-96952563D01*
X100151462Y-96942054D01*
X100142531Y-96931221D01*
X100135136Y-96919065D01*
X100129127Y-96904581D01*
X100124354Y-96886770D01*
X100120673Y-96864636D01*
X100117934Y-96837174D01*
X100115987Y-96803382D01*
X100114688Y-96762264D01*
X100113884Y-96712815D01*
X100113434Y-96654039D01*
X100113182Y-96584934D01*
X100112987Y-96504498D01*
X100112696Y-96411732D01*
X100110857Y-95940066D01*
X99431546Y-95940066D01*
X99429707Y-96411732D01*
X99429533Y-96462462D01*
X99429311Y-96548571D01*
X99429104Y-96622884D01*
X99428765Y-96686394D01*
X99428147Y-96740103D01*
X99427100Y-96785016D01*
X99425474Y-96822129D01*
X99423128Y-96852441D01*
X99419906Y-96876960D01*
X99415667Y-96896679D01*
X99410258Y-96912603D01*
X99403532Y-96925728D01*
X99395342Y-96937062D01*
X99385538Y-96947598D01*
X99373976Y-96958338D01*
X99360506Y-96970287D01*
X99344978Y-96984441D01*
X99313685Y-97015491D01*
X99254372Y-97086543D01*
X99207518Y-97162155D01*
X99172946Y-97242693D01*
X99150482Y-97328538D01*
X99139946Y-97420065D01*
X99139034Y-97481556D01*
X98866206Y-97481556D01*
X98864591Y-97426272D01*
X98874233Y-97320066D01*
X98875805Y-97310094D01*
X98899835Y-97203948D01*
X98936429Y-97101462D01*
X98985113Y-97003587D01*
X99045413Y-96911292D01*
X99116864Y-96825534D01*
X99157868Y-96781698D01*
X99157868Y-96277284D01*
X99157871Y-96221217D01*
X99157898Y-96134451D01*
X99157973Y-96059547D01*
X99158117Y-95995575D01*
X99158357Y-95941605D01*
X99158714Y-95896704D01*
X99159212Y-95859942D01*
X99159872Y-95830386D01*
X99160721Y-95807109D01*
X99161777Y-95789178D01*
X99163064Y-95775660D01*
X99164609Y-95765625D01*
X99166433Y-95758143D01*
X99168557Y-95752281D01*
X99171008Y-95747112D01*
X99172703Y-95743917D01*
X99196013Y-95713278D01*
X99227132Y-95688774D01*
X99261626Y-95673987D01*
X99262394Y-95673816D01*
X99276248Y-95672403D01*
X99301961Y-95671143D01*
X99338201Y-95670030D01*
X99383648Y-95669064D01*
X99436970Y-95668251D01*
X99496847Y-95667588D01*
X99561953Y-95667072D01*
X99630956Y-95666706D01*
X99702539Y-95666490D01*
X99775370Y-95666424D01*
X99848123Y-95666508D01*
X99919478Y-95666739D01*
X99988103Y-95667123D01*
X100052678Y-95667654D01*
X100111874Y-95668335D01*
X100164365Y-95669166D01*
X100208828Y-95670147D01*
X100243934Y-95671278D01*
X100268360Y-95672559D01*
X100280777Y-95673987D01*
X100284179Y-95674905D01*
X100318541Y-95690802D01*
X100349090Y-95716065D01*
X100371395Y-95747112D01*
X100372856Y-95750076D01*
X100375115Y-95755533D01*
X100377062Y-95762220D01*
X100378721Y-95771067D01*
X100380113Y-95783007D01*
X100381265Y-95798970D01*
X100382198Y-95819886D01*
X100382933Y-95846688D01*
X100383497Y-95880303D01*
X100383911Y-95921670D01*
X100384196Y-95971710D01*
X100384379Y-96031362D01*
X100384481Y-96101556D01*
X100384526Y-96183219D01*
X100384535Y-96277284D01*
X100384535Y-96781698D01*
X100425539Y-96825534D01*
X100461203Y-96865794D01*
X100526984Y-96954024D01*
X100580951Y-97047066D01*
X100623071Y-97143981D01*
X100653314Y-97243833D01*
X100671656Y-97345680D01*
X100678061Y-97448592D01*
X100676057Y-97485738D01*
X100672499Y-97551624D01*
G37*
G36*
X100677755Y-86520414D02*
G01*
X100668170Y-86626731D01*
X100666598Y-86636703D01*
X100642568Y-86742849D01*
X100605974Y-86845335D01*
X100557290Y-86943210D01*
X100496990Y-87035505D01*
X100425539Y-87121263D01*
X100384535Y-87165099D01*
X100384535Y-87669513D01*
X100384532Y-87732195D01*
X100384505Y-87818055D01*
X100384427Y-87892119D01*
X100384280Y-87955320D01*
X100384037Y-88008588D01*
X100383674Y-88052859D01*
X100383170Y-88089060D01*
X100382501Y-88118127D01*
X100381643Y-88140987D01*
X100380572Y-88158576D01*
X100379264Y-88171821D01*
X100377701Y-88181658D01*
X100375853Y-88189020D01*
X100373699Y-88194834D01*
X100371218Y-88200033D01*
X100351376Y-88228269D01*
X100321016Y-88254342D01*
X100286345Y-88271220D01*
X100284377Y-88271661D01*
X100269311Y-88273134D01*
X100242596Y-88274469D01*
X100205537Y-88275666D01*
X100159445Y-88276722D01*
X100105628Y-88277634D01*
X100045394Y-88278402D01*
X99980057Y-88279023D01*
X99910919Y-88279497D01*
X99839294Y-88279818D01*
X99766490Y-88279986D01*
X99693818Y-88279998D01*
X99622583Y-88279857D01*
X99554096Y-88279554D01*
X99489668Y-88279089D01*
X99430607Y-88278462D01*
X99378221Y-88277670D01*
X99333821Y-88276710D01*
X99298718Y-88275582D01*
X99274214Y-88274283D01*
X99261626Y-88272810D01*
X99258224Y-88271892D01*
X99223862Y-88255995D01*
X99193313Y-88230732D01*
X99171008Y-88199685D01*
X99169547Y-88196721D01*
X99167288Y-88191264D01*
X99165341Y-88184577D01*
X99163682Y-88175730D01*
X99162290Y-88163790D01*
X99161138Y-88147827D01*
X99160205Y-88126911D01*
X99159470Y-88100109D01*
X99158906Y-88066494D01*
X99158492Y-88025127D01*
X99158207Y-87975087D01*
X99158024Y-87915435D01*
X99157922Y-87845241D01*
X99157877Y-87763578D01*
X99157868Y-87669513D01*
X99157868Y-87165099D01*
X99116864Y-87121263D01*
X99052025Y-87044301D01*
X98991548Y-86954064D01*
X98942579Y-86858922D01*
X98905304Y-86759874D01*
X98879900Y-86657922D01*
X98866553Y-86554059D01*
X98865573Y-86461059D01*
X99139160Y-86461059D01*
X99139946Y-86526732D01*
X99143291Y-86569278D01*
X99159254Y-86658162D01*
X99187229Y-86741538D01*
X99227390Y-86819778D01*
X99279914Y-86893260D01*
X99344978Y-86962356D01*
X99353468Y-86970189D01*
X99367886Y-86983050D01*
X99380330Y-86994234D01*
X99390941Y-87004743D01*
X99399872Y-87015576D01*
X99407267Y-87027732D01*
X99413276Y-87042216D01*
X99418049Y-87060027D01*
X99421730Y-87082161D01*
X99424469Y-87109623D01*
X99426416Y-87143415D01*
X99427715Y-87184533D01*
X99428519Y-87233982D01*
X99428969Y-87292758D01*
X99429221Y-87361863D01*
X99429416Y-87442299D01*
X99429707Y-87535065D01*
X99431546Y-88006731D01*
X100110857Y-88006731D01*
X100112696Y-87535065D01*
X100112870Y-87484335D01*
X100113092Y-87398226D01*
X100113299Y-87323913D01*
X100113638Y-87260403D01*
X100114256Y-87206694D01*
X100115303Y-87161781D01*
X100116929Y-87124668D01*
X100119275Y-87094356D01*
X100122497Y-87069837D01*
X100126736Y-87050118D01*
X100132145Y-87034194D01*
X100138871Y-87021069D01*
X100147061Y-87009735D01*
X100156865Y-86999199D01*
X100168427Y-86988459D01*
X100181897Y-86976510D01*
X100197425Y-86962356D01*
X100228718Y-86931306D01*
X100288031Y-86860254D01*
X100334885Y-86784642D01*
X100369457Y-86704104D01*
X100391921Y-86618259D01*
X100402457Y-86526732D01*
X100403369Y-86465241D01*
X100398671Y-86405871D01*
X100387310Y-86347704D01*
X100368479Y-86284983D01*
X100354001Y-86246349D01*
X100319729Y-86176446D01*
X100276124Y-86112018D01*
X100221200Y-86049894D01*
X100215617Y-86044305D01*
X100145858Y-85984266D01*
X100070141Y-85935777D01*
X99989516Y-85899066D01*
X99905024Y-85874367D01*
X99817706Y-85861911D01*
X99728609Y-85861929D01*
X99638771Y-85874658D01*
X99549242Y-85900326D01*
X99536966Y-85904922D01*
X99460481Y-85941294D01*
X99388877Y-85989408D01*
X99321200Y-86049894D01*
X99291755Y-86081373D01*
X99242831Y-86144271D01*
X99204215Y-86211084D01*
X99173924Y-86284983D01*
X99156125Y-86343657D01*
X99144284Y-86401953D01*
X99139160Y-86461059D01*
X98865573Y-86461059D01*
X98865449Y-86449290D01*
X98876765Y-86344611D01*
X98900684Y-86241024D01*
X98937392Y-86139528D01*
X98946401Y-86119293D01*
X98998028Y-86022480D01*
X99059969Y-85933557D01*
X99131411Y-85853175D01*
X99211553Y-85781985D01*
X99299585Y-85720638D01*
X99394694Y-85669791D01*
X99496079Y-85630092D01*
X99602927Y-85602198D01*
X99627197Y-85598211D01*
X99675608Y-85593369D01*
X99730784Y-85590732D01*
X99788744Y-85590294D01*
X99845498Y-85592061D01*
X99897071Y-85596027D01*
X99939476Y-85602198D01*
X99978551Y-85611300D01*
X100030193Y-85626141D01*
X100083236Y-85643874D01*
X100132823Y-85662855D01*
X100174097Y-85681440D01*
X100250405Y-85724520D01*
X100337264Y-85786629D01*
X100415498Y-85857654D01*
X100484588Y-85936596D01*
X100544009Y-86022453D01*
X100593236Y-86114223D01*
X100631750Y-86210907D01*
X100659023Y-86311500D01*
X100674533Y-86415003D01*
X100676069Y-86465241D01*
X100677755Y-86520414D01*
G37*
G36*
X103225835Y-97551624D02*
G01*
X103208279Y-97653843D01*
X103178699Y-97754307D01*
X103137065Y-97852083D01*
X103083347Y-97946229D01*
X103017512Y-98035812D01*
X102988448Y-98069190D01*
X102911840Y-98143041D01*
X102826766Y-98207037D01*
X102734027Y-98260752D01*
X102634430Y-98303751D01*
X102528773Y-98335605D01*
X102417869Y-98355891D01*
X102410960Y-98356599D01*
X102382370Y-98357814D01*
X102345182Y-98357733D01*
X102302888Y-98356518D01*
X102258992Y-98354331D01*
X102216989Y-98351337D01*
X102180380Y-98347698D01*
X102152663Y-98343573D01*
X102115922Y-98335611D01*
X102013994Y-98304795D01*
X101917958Y-98262894D01*
X101828435Y-98210778D01*
X101746046Y-98149326D01*
X101671406Y-98079405D01*
X101605136Y-98001891D01*
X101547854Y-97917657D01*
X101500178Y-97827579D01*
X101462729Y-97732527D01*
X101436125Y-97633377D01*
X101420984Y-97531002D01*
X101419539Y-97481556D01*
X101692370Y-97481556D01*
X101697065Y-97540926D01*
X101708426Y-97599093D01*
X101727260Y-97661814D01*
X101741735Y-97700448D01*
X101776007Y-97770351D01*
X101819612Y-97834779D01*
X101874536Y-97896903D01*
X101898017Y-97919649D01*
X101968910Y-97976811D01*
X102045134Y-98021850D01*
X102127274Y-98055075D01*
X102215900Y-98076783D01*
X102285569Y-98085120D01*
X102375887Y-98084562D01*
X102464015Y-98071248D01*
X102548951Y-98045502D01*
X102629687Y-98007645D01*
X102705215Y-97958004D01*
X102774536Y-97896903D01*
X102803981Y-97865424D01*
X102852905Y-97802526D01*
X102891521Y-97735713D01*
X102921812Y-97661814D01*
X102939611Y-97603140D01*
X102951455Y-97544844D01*
X102956576Y-97485738D01*
X102955790Y-97420065D01*
X102952445Y-97377519D01*
X102936482Y-97288635D01*
X102908507Y-97205259D01*
X102868346Y-97127019D01*
X102815822Y-97053537D01*
X102750758Y-96984441D01*
X102742271Y-96976608D01*
X102727850Y-96963747D01*
X102715406Y-96952563D01*
X102704795Y-96942054D01*
X102695864Y-96931221D01*
X102688469Y-96919065D01*
X102682460Y-96904581D01*
X102677687Y-96886770D01*
X102674006Y-96864636D01*
X102671267Y-96837174D01*
X102669320Y-96803382D01*
X102668021Y-96762264D01*
X102667220Y-96712815D01*
X102666767Y-96654039D01*
X102666515Y-96584934D01*
X102666320Y-96504498D01*
X102666029Y-96411732D01*
X102664190Y-95940066D01*
X101984879Y-95940066D01*
X101983040Y-96411732D01*
X101982866Y-96462462D01*
X101982644Y-96548571D01*
X101982437Y-96622884D01*
X101982098Y-96686394D01*
X101981480Y-96740103D01*
X101980433Y-96785016D01*
X101978807Y-96822129D01*
X101976461Y-96852441D01*
X101973239Y-96876960D01*
X101969000Y-96896679D01*
X101963591Y-96912603D01*
X101956865Y-96925728D01*
X101948675Y-96937062D01*
X101938874Y-96947598D01*
X101927309Y-96958338D01*
X101913839Y-96970287D01*
X101898311Y-96984441D01*
X101867018Y-97015491D01*
X101807705Y-97086543D01*
X101760851Y-97162155D01*
X101726279Y-97242693D01*
X101703815Y-97328538D01*
X101693279Y-97420065D01*
X101692370Y-97481556D01*
X101419539Y-97481556D01*
X101417924Y-97426272D01*
X101427566Y-97320066D01*
X101429138Y-97310094D01*
X101453168Y-97203948D01*
X101489762Y-97101462D01*
X101538446Y-97003587D01*
X101598746Y-96911292D01*
X101670197Y-96825534D01*
X101711201Y-96781698D01*
X101711201Y-96277284D01*
X101711204Y-96221217D01*
X101711231Y-96134451D01*
X101711306Y-96059547D01*
X101711453Y-95995575D01*
X101711690Y-95941605D01*
X101712047Y-95896704D01*
X101712545Y-95859942D01*
X101713205Y-95830386D01*
X101714054Y-95807109D01*
X101715110Y-95789178D01*
X101716400Y-95775660D01*
X101717942Y-95765625D01*
X101719766Y-95758143D01*
X101721890Y-95752281D01*
X101724341Y-95747112D01*
X101726036Y-95743917D01*
X101749346Y-95713278D01*
X101780465Y-95688774D01*
X101814959Y-95673987D01*
X101815727Y-95673816D01*
X101829584Y-95672403D01*
X101855294Y-95671143D01*
X101891534Y-95670030D01*
X101936981Y-95669064D01*
X101990306Y-95668251D01*
X102050180Y-95667588D01*
X102115286Y-95667072D01*
X102184289Y-95666706D01*
X102255872Y-95666490D01*
X102328703Y-95666424D01*
X102401456Y-95666508D01*
X102472811Y-95666739D01*
X102541439Y-95667123D01*
X102606011Y-95667654D01*
X102665207Y-95668335D01*
X102717698Y-95669166D01*
X102762161Y-95670147D01*
X102797267Y-95671278D01*
X102821693Y-95672559D01*
X102834110Y-95673987D01*
X102837515Y-95674905D01*
X102871874Y-95690802D01*
X102902423Y-95716065D01*
X102924728Y-95747112D01*
X102926189Y-95750076D01*
X102928448Y-95755533D01*
X102930395Y-95762220D01*
X102932054Y-95771067D01*
X102933449Y-95783007D01*
X102934598Y-95798970D01*
X102935531Y-95819886D01*
X102936266Y-95846688D01*
X102936830Y-95880303D01*
X102937244Y-95921670D01*
X102937529Y-95971710D01*
X102937712Y-96031362D01*
X102937814Y-96101556D01*
X102937859Y-96183219D01*
X102937868Y-96277284D01*
X102937868Y-96781698D01*
X102978875Y-96825534D01*
X103014539Y-96865794D01*
X103080317Y-96954024D01*
X103134284Y-97047066D01*
X103176404Y-97143981D01*
X103206650Y-97243833D01*
X103224989Y-97345680D01*
X103231394Y-97448592D01*
X103229390Y-97485738D01*
X103225835Y-97551624D01*
G37*
G36*
X103231091Y-86520414D02*
G01*
X103221503Y-86626731D01*
X103219931Y-86636703D01*
X103195901Y-86742849D01*
X103159307Y-86845335D01*
X103110623Y-86943210D01*
X103050323Y-87035505D01*
X102978875Y-87121263D01*
X102937868Y-87165099D01*
X102937868Y-87669513D01*
X102937865Y-87732195D01*
X102937838Y-87818055D01*
X102937760Y-87892119D01*
X102937613Y-87955320D01*
X102937370Y-88008588D01*
X102937007Y-88052859D01*
X102936503Y-88089060D01*
X102935834Y-88118127D01*
X102934976Y-88140987D01*
X102933905Y-88158576D01*
X102932600Y-88171821D01*
X102931034Y-88181658D01*
X102929186Y-88189020D01*
X102927032Y-88194834D01*
X102924551Y-88200033D01*
X102904709Y-88228269D01*
X102874349Y-88254342D01*
X102839678Y-88271220D01*
X102837710Y-88271661D01*
X102822647Y-88273134D01*
X102795929Y-88274469D01*
X102758870Y-88275666D01*
X102712778Y-88276722D01*
X102658961Y-88277634D01*
X102598727Y-88278402D01*
X102533390Y-88279023D01*
X102464252Y-88279497D01*
X102392627Y-88279818D01*
X102319823Y-88279986D01*
X102247151Y-88279998D01*
X102175916Y-88279857D01*
X102107429Y-88279554D01*
X102043001Y-88279089D01*
X101983940Y-88278462D01*
X101931557Y-88277670D01*
X101887157Y-88276710D01*
X101852051Y-88275582D01*
X101827547Y-88274283D01*
X101814959Y-88272810D01*
X101811557Y-88271892D01*
X101777198Y-88255995D01*
X101746646Y-88230732D01*
X101724341Y-88199685D01*
X101722880Y-88196721D01*
X101720621Y-88191264D01*
X101718674Y-88184577D01*
X101717015Y-88175730D01*
X101715623Y-88163790D01*
X101714471Y-88147827D01*
X101713538Y-88126911D01*
X101712803Y-88100109D01*
X101712239Y-88066494D01*
X101711825Y-88025127D01*
X101711540Y-87975087D01*
X101711357Y-87915435D01*
X101711255Y-87845241D01*
X101711210Y-87763578D01*
X101711201Y-87669513D01*
X101711201Y-87165099D01*
X101670197Y-87121263D01*
X101605358Y-87044301D01*
X101544881Y-86954064D01*
X101495912Y-86858922D01*
X101458637Y-86759874D01*
X101433233Y-86657922D01*
X101419886Y-86554059D01*
X101418906Y-86461059D01*
X101692493Y-86461059D01*
X101693279Y-86526732D01*
X101696624Y-86569278D01*
X101712587Y-86658162D01*
X101740562Y-86741538D01*
X101780723Y-86819778D01*
X101833247Y-86893260D01*
X101898311Y-86962356D01*
X101906801Y-86970189D01*
X101921219Y-86983050D01*
X101933663Y-86994234D01*
X101944274Y-87004743D01*
X101953205Y-87015576D01*
X101960600Y-87027732D01*
X101966609Y-87042216D01*
X101971382Y-87060027D01*
X101975063Y-87082161D01*
X101977802Y-87109623D01*
X101979749Y-87143415D01*
X101981048Y-87184533D01*
X101981852Y-87233982D01*
X101982302Y-87292758D01*
X101982554Y-87361863D01*
X101982749Y-87442299D01*
X101983040Y-87535065D01*
X101984879Y-88006731D01*
X102664190Y-88006731D01*
X102666029Y-87535065D01*
X102666203Y-87484335D01*
X102666425Y-87398226D01*
X102666632Y-87323913D01*
X102666971Y-87260403D01*
X102667589Y-87206694D01*
X102668639Y-87161781D01*
X102670262Y-87124668D01*
X102672608Y-87094356D01*
X102675830Y-87069837D01*
X102680069Y-87050118D01*
X102685478Y-87034194D01*
X102692204Y-87021069D01*
X102700394Y-87009735D01*
X102710198Y-86999199D01*
X102721760Y-86988459D01*
X102735230Y-86976510D01*
X102750758Y-86962356D01*
X102782054Y-86931306D01*
X102841364Y-86860254D01*
X102888218Y-86784642D01*
X102922790Y-86704104D01*
X102945254Y-86618259D01*
X102955790Y-86526732D01*
X102956702Y-86465241D01*
X102952004Y-86405871D01*
X102940643Y-86347704D01*
X102921812Y-86284983D01*
X102907334Y-86246349D01*
X102873062Y-86176446D01*
X102829457Y-86112018D01*
X102774536Y-86049894D01*
X102768953Y-86044305D01*
X102699191Y-85984266D01*
X102623474Y-85935777D01*
X102542849Y-85899066D01*
X102458357Y-85874367D01*
X102371039Y-85861911D01*
X102281942Y-85861929D01*
X102192104Y-85874658D01*
X102102575Y-85900326D01*
X102090299Y-85904922D01*
X102013814Y-85941294D01*
X101942210Y-85989408D01*
X101874536Y-86049894D01*
X101845088Y-86081373D01*
X101796164Y-86144271D01*
X101757551Y-86211084D01*
X101727260Y-86284983D01*
X101709458Y-86343657D01*
X101697617Y-86401953D01*
X101692493Y-86461059D01*
X101418906Y-86461059D01*
X101418782Y-86449290D01*
X101430098Y-86344611D01*
X101454017Y-86241024D01*
X101490728Y-86139528D01*
X101499737Y-86119293D01*
X101551361Y-86022480D01*
X101613302Y-85933557D01*
X101684747Y-85853175D01*
X101764886Y-85781985D01*
X101852918Y-85720638D01*
X101948027Y-85669791D01*
X102049412Y-85630092D01*
X102156260Y-85602198D01*
X102180530Y-85598211D01*
X102228941Y-85593369D01*
X102284117Y-85590732D01*
X102342077Y-85590294D01*
X102398831Y-85592061D01*
X102450404Y-85596027D01*
X102492809Y-85602198D01*
X102531884Y-85611300D01*
X102583526Y-85626141D01*
X102636569Y-85643874D01*
X102686156Y-85662855D01*
X102727430Y-85681440D01*
X102803738Y-85724520D01*
X102890597Y-85786629D01*
X102968831Y-85857654D01*
X103037921Y-85936596D01*
X103097342Y-86022453D01*
X103146569Y-86114223D01*
X103185083Y-86210907D01*
X103212356Y-86311500D01*
X103227866Y-86415003D01*
X103229402Y-86465241D01*
X103231091Y-86520414D01*
G37*
G36*
X105041201Y-94570065D02*
G01*
X105026126Y-94629246D01*
X105008240Y-94687698D01*
X104972573Y-94768917D01*
X104926733Y-94843419D01*
X104871725Y-94910313D01*
X104808563Y-94968705D01*
X104738252Y-95017701D01*
X104661806Y-95056410D01*
X104580230Y-95083938D01*
X104494535Y-95099394D01*
X104492732Y-95099514D01*
X104478302Y-95099904D01*
X104451077Y-95100279D01*
X104411480Y-95100645D01*
X104359919Y-95100999D01*
X104296811Y-95101338D01*
X104222570Y-95101668D01*
X104137613Y-95101986D01*
X104042351Y-95102289D01*
X103937201Y-95102583D01*
X103822574Y-95102862D01*
X103698893Y-95103132D01*
X103566563Y-95103390D01*
X103426004Y-95103633D01*
X103277630Y-95103867D01*
X103121855Y-95104086D01*
X102959096Y-95104296D01*
X102789764Y-95104491D01*
X102614276Y-95104677D01*
X102433043Y-95104848D01*
X102246485Y-95105007D01*
X102055013Y-95105157D01*
X101859044Y-95105292D01*
X101658989Y-95105415D01*
X101455268Y-95105526D01*
X101248292Y-95105625D01*
X101038475Y-95105712D01*
X100826234Y-95105784D01*
X100611980Y-95105847D01*
X100396133Y-95105898D01*
X100179104Y-95105934D01*
X99961310Y-95105958D01*
X99743162Y-95105973D01*
X99525077Y-95105973D01*
X99307472Y-95105961D01*
X99090758Y-95105934D01*
X98875349Y-95105898D01*
X98661662Y-95105850D01*
X98450111Y-95105787D01*
X98241113Y-95105712D01*
X98035079Y-95105625D01*
X97832423Y-95105526D01*
X97633565Y-95105415D01*
X97438913Y-95105289D01*
X97248887Y-95105151D01*
X97063898Y-95105004D01*
X96884363Y-95104842D01*
X96710696Y-95104665D01*
X96543311Y-95104479D01*
X96382625Y-95104278D01*
X96229049Y-95104065D01*
X96083000Y-95103840D01*
X95944892Y-95103603D01*
X95815139Y-95103351D01*
X95694158Y-95103087D01*
X95582360Y-95102811D01*
X95480162Y-95102523D01*
X95387978Y-95102223D01*
X95306225Y-95101908D01*
X95235314Y-95101581D01*
X95175662Y-95101239D01*
X95127680Y-95100888D01*
X95091788Y-95100522D01*
X95068400Y-95100144D01*
X95057927Y-95099751D01*
X95001758Y-95091498D01*
X94915193Y-95068416D01*
X94834292Y-95033916D01*
X94759919Y-94988751D01*
X94692944Y-94933674D01*
X94634225Y-94869432D01*
X94584632Y-94796781D01*
X94545029Y-94716468D01*
X94516277Y-94629246D01*
X94501202Y-94570065D01*
X94501202Y-89396733D01*
X94774535Y-89396733D01*
X94774535Y-94550064D01*
X94790114Y-94595172D01*
X94813013Y-94647942D01*
X94850120Y-94704009D01*
X94897067Y-94751433D01*
X94953203Y-94789569D01*
X95017868Y-94817775D01*
X95018918Y-94818111D01*
X95021780Y-94818885D01*
X95025416Y-94819620D01*
X95030117Y-94820325D01*
X95036174Y-94821000D01*
X95043878Y-94821639D01*
X95053526Y-94822251D01*
X95065406Y-94822833D01*
X95079812Y-94823385D01*
X95097035Y-94823910D01*
X95117369Y-94824405D01*
X95141105Y-94824876D01*
X95168531Y-94825323D01*
X95199947Y-94825743D01*
X95235638Y-94826139D01*
X95275901Y-94826511D01*
X95321024Y-94826862D01*
X95371304Y-94827192D01*
X95427029Y-94827501D01*
X95488493Y-94827789D01*
X95555987Y-94828059D01*
X95629805Y-94828311D01*
X95710238Y-94828545D01*
X95797577Y-94828761D01*
X95892116Y-94828962D01*
X95994146Y-94829148D01*
X96103958Y-94829319D01*
X96221846Y-94829478D01*
X96348101Y-94829625D01*
X96483017Y-94829760D01*
X96626885Y-94829883D01*
X96779996Y-94829994D01*
X96942641Y-94830099D01*
X97115117Y-94830195D01*
X97297712Y-94830282D01*
X97490720Y-94830363D01*
X97694432Y-94830435D01*
X97909139Y-94830504D01*
X98135135Y-94830570D01*
X98372714Y-94830630D01*
X98622164Y-94830687D01*
X98883779Y-94830744D01*
X99157850Y-94830798D01*
X99444671Y-94830852D01*
X99744536Y-94830909D01*
X99941777Y-94830939D01*
X100189148Y-94830963D01*
X100433054Y-94830975D01*
X100673159Y-94830969D01*
X100909118Y-94830951D01*
X101140592Y-94830918D01*
X101367242Y-94830873D01*
X101588726Y-94830813D01*
X101804708Y-94830738D01*
X102014840Y-94830654D01*
X102218789Y-94830555D01*
X102416210Y-94830444D01*
X102606764Y-94830321D01*
X102790112Y-94830189D01*
X102965912Y-94830045D01*
X103133825Y-94829889D01*
X103293509Y-94829721D01*
X103444625Y-94829544D01*
X103586831Y-94829358D01*
X103719788Y-94829163D01*
X103843157Y-94828959D01*
X103956593Y-94828743D01*
X104059763Y-94828521D01*
X104152319Y-94828290D01*
X104233925Y-94828050D01*
X104304239Y-94827804D01*
X104362925Y-94827552D01*
X104409635Y-94827291D01*
X104444036Y-94827021D01*
X104465780Y-94826748D01*
X104474534Y-94826469D01*
X104525066Y-94815831D01*
X104584880Y-94791876D01*
X104638331Y-94757355D01*
X104684258Y-94713429D01*
X104721503Y-94661244D01*
X104748908Y-94601961D01*
X104765315Y-94536732D01*
X104765384Y-94536177D01*
X104765903Y-94524414D01*
X104766392Y-94499643D01*
X104766854Y-94462155D01*
X104767286Y-94412241D01*
X104767688Y-94350192D01*
X104768060Y-94276293D01*
X104768402Y-94190841D01*
X104768714Y-94094121D01*
X104768993Y-93986424D01*
X104769239Y-93868041D01*
X104769452Y-93739260D01*
X104769635Y-93600372D01*
X104769782Y-93451668D01*
X104769896Y-93293436D01*
X104769974Y-93125967D01*
X104770019Y-92949549D01*
X104770025Y-92764473D01*
X104769998Y-92571033D01*
X104769935Y-92369511D01*
X104769833Y-92160204D01*
X104769695Y-91943400D01*
X104767868Y-89390064D01*
X104750051Y-89344203D01*
X104726993Y-89294688D01*
X104688677Y-89238318D01*
X104641400Y-89191716D01*
X104585471Y-89155170D01*
X104521202Y-89128977D01*
X104519975Y-89128617D01*
X104516870Y-89127852D01*
X104512973Y-89127120D01*
X104507990Y-89126421D01*
X104501633Y-89125752D01*
X104493611Y-89125116D01*
X104483627Y-89124510D01*
X104471393Y-89123937D01*
X104456618Y-89123388D01*
X104439008Y-89122872D01*
X104418272Y-89122380D01*
X104394122Y-89121915D01*
X104366261Y-89121480D01*
X104334398Y-89121066D01*
X104298245Y-89120679D01*
X104257508Y-89120313D01*
X104211896Y-89119974D01*
X104161115Y-89119653D01*
X104104877Y-89119356D01*
X104042888Y-89119080D01*
X103974857Y-89118825D01*
X103900490Y-89118588D01*
X103819502Y-89118369D01*
X103731593Y-89118168D01*
X103636478Y-89117985D01*
X103533860Y-89117817D01*
X103423454Y-89117664D01*
X103304963Y-89117529D01*
X103178096Y-89117406D01*
X103042562Y-89117295D01*
X102898070Y-89117199D01*
X102744326Y-89117112D01*
X102581042Y-89117037D01*
X102407924Y-89116974D01*
X102224681Y-89116920D01*
X102031019Y-89116875D01*
X101826653Y-89116836D01*
X101611283Y-89116806D01*
X101384624Y-89116782D01*
X101146379Y-89116764D01*
X100896260Y-89116749D01*
X100633976Y-89116740D01*
X100359230Y-89116734D01*
X100071737Y-89116734D01*
X99771200Y-89116731D01*
X99633023Y-89116731D01*
X99338450Y-89116734D01*
X99056786Y-89116737D01*
X98787737Y-89116743D01*
X98531015Y-89116755D01*
X98286329Y-89116770D01*
X98053382Y-89116791D01*
X97831889Y-89116818D01*
X97621556Y-89116851D01*
X97422086Y-89116893D01*
X97233197Y-89116944D01*
X97054589Y-89117001D01*
X96885974Y-89117070D01*
X96727061Y-89117151D01*
X96577559Y-89117241D01*
X96437171Y-89117343D01*
X96305612Y-89117460D01*
X96182585Y-89117589D01*
X96067805Y-89117733D01*
X95960972Y-89117892D01*
X95861798Y-89118066D01*
X95769995Y-89118258D01*
X95685266Y-89118465D01*
X95607323Y-89118693D01*
X95535872Y-89118939D01*
X95470622Y-89119203D01*
X95411282Y-89119491D01*
X95357558Y-89119797D01*
X95309162Y-89120124D01*
X95265800Y-89120478D01*
X95227181Y-89120850D01*
X95193014Y-89121249D01*
X95163005Y-89121675D01*
X95136866Y-89122125D01*
X95114303Y-89122599D01*
X95095025Y-89123103D01*
X95078738Y-89123634D01*
X95065154Y-89124192D01*
X95053979Y-89124783D01*
X95044922Y-89125401D01*
X95037692Y-89126052D01*
X95031995Y-89126733D01*
X95027543Y-89127447D01*
X95024042Y-89128194D01*
X95021201Y-89128977D01*
X94962185Y-89152656D01*
X94905416Y-89188560D01*
X94857251Y-89234235D01*
X94818533Y-89288862D01*
X94790114Y-89351625D01*
X94774535Y-89396733D01*
X94501202Y-89396733D01*
X94501202Y-89376732D01*
X94516277Y-89317551D01*
X94532789Y-89262672D01*
X94568372Y-89179647D01*
X94614275Y-89103999D01*
X94669631Y-89036475D01*
X94733573Y-88977831D01*
X94805240Y-88928814D01*
X94883762Y-88890177D01*
X94968281Y-88862670D01*
X95057927Y-88847046D01*
X95058650Y-88846983D01*
X95071475Y-88846536D01*
X95097161Y-88846101D01*
X95135291Y-88845681D01*
X95185451Y-88845276D01*
X95247227Y-88844886D01*
X95320202Y-88844508D01*
X95403956Y-88844145D01*
X95498078Y-88843797D01*
X95602151Y-88843461D01*
X95715761Y-88843143D01*
X95838488Y-88842837D01*
X95969918Y-88842546D01*
X96109637Y-88842267D01*
X96257228Y-88842006D01*
X96412274Y-88841757D01*
X96574361Y-88841523D01*
X96743072Y-88841301D01*
X96917993Y-88841097D01*
X97098704Y-88840905D01*
X97284794Y-88840728D01*
X97475846Y-88840563D01*
X97671443Y-88840416D01*
X97871171Y-88840281D01*
X98074613Y-88840161D01*
X98281352Y-88840056D01*
X98490974Y-88839963D01*
X98703062Y-88839885D01*
X98917199Y-88839822D01*
X99132974Y-88839774D01*
X99349967Y-88839738D01*
X99567764Y-88839717D01*
X99785948Y-88839711D01*
X100004105Y-88839720D01*
X100221818Y-88839744D01*
X100438670Y-88839780D01*
X100654247Y-88839831D01*
X100868135Y-88839894D01*
X101079914Y-88839975D01*
X101289170Y-88840068D01*
X101495486Y-88840176D01*
X101698451Y-88840299D01*
X101897645Y-88840434D01*
X102092651Y-88840587D01*
X102283055Y-88840752D01*
X102468443Y-88840929D01*
X102648398Y-88841124D01*
X102822503Y-88841331D01*
X102990344Y-88841553D01*
X103151504Y-88841790D01*
X103305566Y-88842039D01*
X103452119Y-88842306D01*
X103590740Y-88842585D01*
X103721021Y-88842876D01*
X103842539Y-88843185D01*
X103954883Y-88843506D01*
X104057636Y-88843842D01*
X104150381Y-88844193D01*
X104232704Y-88844559D01*
X104304188Y-88844937D01*
X104364419Y-88845330D01*
X104412977Y-88845738D01*
X104449451Y-88846158D01*
X104473424Y-88846596D01*
X104484476Y-88847046D01*
X104540645Y-88855299D01*
X104627210Y-88878381D01*
X104708111Y-88912881D01*
X104782484Y-88958046D01*
X104849459Y-89013123D01*
X104908178Y-89077365D01*
X104957771Y-89150016D01*
X104997374Y-89230329D01*
X105026126Y-89317551D01*
X105041201Y-89376732D01*
X105041201Y-92764473D01*
X105041201Y-94570065D01*
G37*
D12*
%TO.C,C19*%
X109980000Y-122128233D02*
X109980000Y-122420767D01*
X111000000Y-122128233D02*
X111000000Y-122420767D01*
%TO.C,C21*%
X129030000Y-141178233D02*
X129030000Y-141470767D01*
X130050000Y-141178233D02*
X130050000Y-141470767D01*
%TO.C,D6*%
X143272000Y-84074000D02*
X143272000Y-88084000D01*
X143272000Y-88084000D02*
X145272000Y-88084000D01*
X145272000Y-84074000D02*
X145272000Y-88084000D01*
%TO.C,D7*%
X162322000Y-84074000D02*
X162322000Y-88084000D01*
X162322000Y-88084000D02*
X164322000Y-88084000D01*
X164322000Y-84074000D02*
X164322000Y-88084000D01*
%TO.C,C9*%
X148080000Y-84028233D02*
X148080000Y-84320767D01*
X149100000Y-84028233D02*
X149100000Y-84320767D01*
%TO.C,D12*%
X181372000Y-103124000D02*
X181372000Y-107134000D01*
X181372000Y-107134000D02*
X183372000Y-107134000D01*
X183372000Y-103124000D02*
X183372000Y-107134000D01*
%TO.C,C3*%
X109980000Y-64978233D02*
X109980000Y-65270767D01*
X111000000Y-64978233D02*
X111000000Y-65270767D01*
%TO.C,R2*%
X159362224Y-45705500D02*
X158852776Y-45705500D01*
X159362224Y-46750500D02*
X158852776Y-46750500D01*
%TO.C,D5*%
X124222000Y-84074000D02*
X124222000Y-88084000D01*
X124222000Y-88084000D02*
X126222000Y-88084000D01*
X126222000Y-84074000D02*
X126222000Y-88084000D01*
%TO.C,C14*%
X109980000Y-84028233D02*
X109980000Y-84320767D01*
X111000000Y-84028233D02*
X111000000Y-84320767D01*
%TO.C,C25*%
X161288000Y-42271733D02*
X161288000Y-42564267D01*
X162308000Y-42271733D02*
X162308000Y-42564267D01*
%TO.C,D1*%
X124222000Y-65024000D02*
X124222000Y-69034000D01*
X124222000Y-69034000D02*
X126222000Y-69034000D01*
X126222000Y-65024000D02*
X126222000Y-69034000D01*
%TO.C,C7*%
X167130000Y-64978233D02*
X167130000Y-65270767D01*
X168150000Y-64978233D02*
X168150000Y-65270767D01*
%TO.C,D3*%
X162322000Y-65024000D02*
X162322000Y-69034000D01*
X162322000Y-69034000D02*
X164322000Y-69034000D01*
X164322000Y-65024000D02*
X164322000Y-69034000D01*
%TO.C,R3*%
X159362224Y-47229500D02*
X158852776Y-47229500D01*
X159362224Y-48274500D02*
X158852776Y-48274500D01*
%TO.C,R5*%
X101839500Y-42776224D02*
X101839500Y-42266776D01*
X102884500Y-42776224D02*
X102884500Y-42266776D01*
%TO.C,C18*%
X129030000Y-122128233D02*
X129030000Y-122420767D01*
X130050000Y-122128233D02*
X130050000Y-122420767D01*
%TO.C,U3*%
X125559500Y-51592000D02*
X126359500Y-51592000D01*
X125559500Y-54712000D02*
X126359500Y-54712000D01*
X127159500Y-51592000D02*
X126359500Y-51592000D01*
X127159500Y-54712000D02*
X126359500Y-54712000D01*
X127659500Y-51642000D02*
X127419500Y-51312000D01*
X127899500Y-51312000D01*
X127659500Y-51642000D01*
G36*
X127659500Y-51642000D02*
G01*
X127419500Y-51312000D01*
X127899500Y-51312000D01*
X127659500Y-51642000D01*
G37*
%TO.C,D11*%
X162322000Y-103124000D02*
X162322000Y-107134000D01*
X162322000Y-107134000D02*
X164322000Y-107134000D01*
X164322000Y-103124000D02*
X164322000Y-107134000D01*
%TO.C,D16*%
X181372000Y-122174000D02*
X181372000Y-126184000D01*
X181372000Y-126184000D02*
X183372000Y-126184000D01*
X183372000Y-122174000D02*
X183372000Y-126184000D01*
%TO.C,C10*%
X167130000Y-103078233D02*
X167130000Y-103370767D01*
X168150000Y-103078233D02*
X168150000Y-103370767D01*
%TO.C,C5*%
X129030000Y-64978233D02*
X129030000Y-65270767D01*
X130050000Y-64978233D02*
X130050000Y-65270767D01*
%TO.C,U1*%
X153235000Y-31410000D02*
X135435000Y-31410000D01*
X135435000Y-52410000D01*
X153235000Y-52410000D01*
X153235000Y-31410000D01*
%TO.C,C4*%
X104900000Y-39073233D02*
X104900000Y-39365767D01*
X105920000Y-39073233D02*
X105920000Y-39365767D01*
%TO.C,D13*%
X124222000Y-122174000D02*
X124222000Y-126184000D01*
X124222000Y-126184000D02*
X126222000Y-126184000D01*
X126222000Y-122174000D02*
X126222000Y-126184000D01*
%TO.C,R10*%
X158227500Y-42675724D02*
X158227500Y-42166276D01*
X159272500Y-42675724D02*
X159272500Y-42166276D01*
%TO.C,C2*%
X104900000Y-42375233D02*
X104900000Y-42667767D01*
X105920000Y-42375233D02*
X105920000Y-42667767D01*
%TO.C,R1*%
X98791500Y-65126776D02*
X98791500Y-65636224D01*
X99836500Y-65126776D02*
X99836500Y-65636224D01*
%TO.C,D21*%
X127016000Y-45848000D02*
X127016000Y-49858000D01*
X127016000Y-49858000D02*
X129016000Y-49858000D01*
X129016000Y-45848000D02*
X129016000Y-49858000D01*
%TO.C,D10*%
X143272000Y-103124000D02*
X143272000Y-107134000D01*
X143272000Y-107134000D02*
X145272000Y-107134000D01*
X145272000Y-103124000D02*
X145272000Y-107134000D01*
%TO.C,R11*%
X159751500Y-42675724D02*
X159751500Y-42166276D01*
X160796500Y-42675724D02*
X160796500Y-42166276D01*
%TO.C,D4*%
X181372000Y-65024000D02*
X181372000Y-69034000D01*
X181372000Y-69034000D02*
X183372000Y-69034000D01*
X183372000Y-65024000D02*
X183372000Y-69034000D01*
%TO.C,R8*%
X101839500Y-38964776D02*
X101839500Y-39474224D01*
X102884500Y-38964776D02*
X102884500Y-39474224D01*
%TO.C,R6*%
X103363500Y-42776224D02*
X103363500Y-42266776D01*
X104408500Y-42776224D02*
X104408500Y-42266776D01*
%TO.C,C23*%
X167130000Y-141178233D02*
X167130000Y-141470767D01*
X168150000Y-141178233D02*
X168150000Y-141470767D01*
%TO.C,D19*%
X162322000Y-141224000D02*
X162322000Y-145234000D01*
X162322000Y-145234000D02*
X164322000Y-145234000D01*
X164322000Y-141224000D02*
X164322000Y-145234000D01*
%TO.C,C1*%
X93216000Y-70657767D02*
X93216000Y-70365233D01*
X94236000Y-70657767D02*
X94236000Y-70365233D01*
%TO.C,C17*%
X148080000Y-122128233D02*
X148080000Y-122420767D01*
X149100000Y-122128233D02*
X149100000Y-122420767D01*
%TO.C,D2*%
X143272000Y-65024000D02*
X143272000Y-69034000D01*
X143272000Y-69034000D02*
X145272000Y-69034000D01*
X145272000Y-65024000D02*
X145272000Y-69034000D01*
%TO.C,R7*%
X159751500Y-39370724D02*
X159751500Y-38861276D01*
X160796500Y-39370724D02*
X160796500Y-38861276D01*
%TD*%
M02*
