M48
; DRILL file {KiCad 8.0.5} date 2024-11-15T15:43:04-0500
; FORMAT={-:-/ absolute / inch / decimal}
; #@! TF.CreationDate,2024-11-15T15:43:04-05:00
; #@! TF.GenerationSoftware,Kicad,Pcbnew,8.0.5
; #@! TF.FileFunction,Plated,1,2,PTH
FMAT,2
INCH
; #@! TA.AperFunction,Plated,PTH,ViaDrill
T1C0.0118
; #@! TA.AperFunction,Plated,PTH,ComponentDrill
T2C0.0394
; #@! TA.AperFunction,Plated,PTH,ComponentDrill
T3C0.0472
; #@! TA.AperFunction,Plated,PTH,ComponentDrill
T4C0.0591
; #@! TA.AperFunction,Plated,PTH,ComponentDrill
T5C0.0669
%
G90
G05
T1
X3.77Y-2.85
X3.8185Y-2.558
X3.825Y-2.737
X3.841Y-2.686
X3.856Y-2.553
X3.9363Y-2.8492
X3.96Y-2.97
X4.01Y-3.0
X4.11Y-2.9024
X4.16Y-3.49
X4.16Y-3.5215
X4.16Y-3.553
X4.4Y-5.59
X4.41Y-4.09
X4.41Y-5.5205
X4.45Y-3.47
X4.45Y-3.67
X4.4976Y-2.5205
X4.4976Y-3.2705
X4.4976Y-4.7705
X4.5Y-4.02
X4.51Y-2.0
X4.58Y-3.74
X4.64Y-4.27
X4.76Y-2.77
X4.79Y-2.25
X4.79Y-2.54
X4.8Y-5.56
X4.81Y-1.42
X4.81Y-1.87
X4.81Y-4.06
X4.83Y-1.97
X4.84Y-4.8
X4.85Y-3.31
X4.86Y-4.93
X4.88Y-3.44
X5.01Y-2.45
X5.01Y-4.81
X5.03Y-2.63
X5.09Y-1.65
X5.0904Y-1.9296
X5.15Y-4.0205
X5.15Y-4.09
X5.15Y-5.59
X5.16Y-2.5205
X5.17Y-5.5205
X5.2Y-3.15
X5.2Y-3.24
X5.2Y-3.49
X5.2Y-3.66
X5.2Y-3.98
X5.2Y-4.16
X5.2Y-4.65
X5.2Y-4.74
X5.2054Y-2.0446
X5.24Y-4.7705
X5.2476Y-2.5205
X5.2476Y-3.2705
X5.25Y-4.02
X5.28Y-1.35
X5.49Y-4.89
X5.51Y-3.39
X5.56Y-4.07
X5.56Y-5.55
X5.58Y-2.57
X5.64Y-2.03
X5.66Y-2.78
X5.7Y-2.0
X5.77Y-2.64
X5.77Y-3.33
X5.8Y-4.13
X5.9Y-1.39
X5.9Y-2.77
X5.91Y-2.5205
X5.91Y-2.58
X5.91Y-4.0205
X5.91Y-4.83
X5.91Y-5.6
X5.92Y-1.95
X5.92Y-5.5205
X5.95Y-2.49
X5.95Y-2.65
X5.95Y-3.15
X5.95Y-3.24
X5.95Y-3.47
X5.95Y-3.67
X5.95Y-3.99
X5.95Y-4.16
X5.95Y-4.65
X5.95Y-4.74
X5.9976Y-2.5205
X5.9976Y-3.2705
X5.9976Y-4.0205
X5.9976Y-4.7705
X6.0Y-5.02
X6.05Y-2.0936
X6.12Y-1.7
X6.139Y-1.44
X6.16Y-1.637
X6.21Y-2.41
X6.24Y-3.39
X6.24Y-4.89
X6.253Y-1.448
X6.291Y-1.755
X6.3Y-4.08
X6.31Y-2.56
X6.31Y-5.57
X6.35Y-3.553
X6.47Y-3.2
X6.51Y-2.14
X6.54Y-2.64
X6.64Y-3.65
X6.65Y-4.14
X6.65Y-4.39
X6.66Y-3.2705
X6.66Y-4.0205
X6.66Y-4.7705
X6.67Y-2.5205
X6.67Y-3.33
X6.67Y-3.553
X6.67Y-5.5205
X6.7476Y-2.64
X6.7476Y-2.8
X6.7476Y-4.14
X6.7476Y-4.31
X6.75Y-3.91
X6.84Y-2.22
X6.86Y-4.27
X7.05Y-2.54
X7.05Y-4.09
X7.17Y-2.22
T2
X4.31Y-1.5231
X4.31Y-1.6216
X4.31Y-1.72
X4.8809Y-1.5231
X4.8809Y-1.72
X6.57Y-1.5131
X6.57Y-1.6116
X6.57Y-1.71
X7.1409Y-1.5131
X7.1409Y-1.71
T3
X3.8311Y-2.4031
X3.9689Y-2.4031
X3.9689Y-5.2969
T4
X4.45Y-2.25
X4.45Y-3.0
X4.45Y-3.75
X4.45Y-4.5
X4.45Y-5.25
X4.7Y-2.15
X4.7Y-2.9
X4.7Y-3.65
X4.7Y-4.4
X4.7Y-5.15
X5.2Y-2.25
X5.2Y-3.0
X5.2Y-3.75
X5.2Y-4.5
X5.2Y-5.25
X5.45Y-2.15
X5.45Y-2.9
X5.45Y-3.65
X5.45Y-4.4
X5.45Y-5.15
X5.95Y-2.25
X5.95Y-3.0
X5.95Y-3.75
X5.95Y-4.5
X5.95Y-5.25
X6.2Y-2.15
X6.2Y-2.9
X6.2Y-3.65
X6.2Y-4.4
X6.2Y-5.15
X6.7Y-2.25
X6.7Y-3.0
X6.7Y-3.75
X6.7Y-4.5
X6.7Y-5.25
X6.95Y-2.15
X6.95Y-2.9
X6.95Y-3.65
X6.95Y-4.4
X6.95Y-5.15
T5
X3.7327Y-2.5665
X3.7327Y-5.1335
X4.0673Y-2.6138
X4.0673Y-5.0862
T4
G00X4.5797Y-1.4011
M15
G01X4.6309Y-1.4011
M16
G05
G00X4.5797Y-1.842
M15
G01X4.6309Y-1.842
M16
G05
G00X6.8397Y-1.3911
M15
G01X6.8909Y-1.3911
M16
G05
G00X6.8397Y-1.832
M15
G01X6.8909Y-1.832
M16
G05
M30
